{
  "accessors": [
    {
      "bufferView": 0,
      "componentType": 5126,
      "count": 14,
      "name": "Bip001/translation/Output",
      "type": "VEC3"
    },
    {
      "bufferView": 1,
      "componentType": 5126,
      "count": 14,
      "max": [
        0.46666666865348816
      ],
      "min": [
        0.0
      ],
      "name": "Bip001/translation/Input",
      "type": "SCALAR"
    },
    {
      "bufferView": 2,
      "componentType": 5126,
      "count": 25,
      "name": "Bip001/rotation/Output",
      "type": "VEC4"
    },
    {
      "bufferView": 3,
      "componentType": 5126,
      "count": 25,
      "max": [
        0.8333333134651184
      ],
      "min": [
        0.0
      ],
      "name": "Bip001/rotation/Input",
      "type": "SCALAR"
    },
    {
      "bufferView": 4,
      "componentType": 5126,
      "count": 1,
      "name": "Bip001/scale/Output",
      "type": "VEC3"
    },
    {
      "bufferView": 5,
      "componentType": 5126,
      "count": 1,
      "max": [
        0.8333333134651184
      ],
      "min": [
        0.8333333134651184
      ],
      "name": "Bip001/scale/Input",
      "type": "SCALAR"
    },
    {
      "bufferView": 6,
      "componentType": 5126,
      "count": 1,
      "name": "Bip001 Pelvis/translation/Output",
      "type": "VEC3"
    },
    {
      "bufferView": 7,
      "componentType": 5126,
      "count": 1,
      "max": [
        0.8333333134651184
      ],
      "min": [
        0.8333333134651184
      ],
      "name": "Bip001 Pelvis/translation/Input",
      "type": "SCALAR"
    },
    {
      "bufferView": 8,
      "componentType": 5126,
      "count": 1,
      "name": "Bip001 Pelvis/rotation/Output",
      "type": "VEC4"
    },
    {
      "bufferView": 9,
      "componentType": 5126,
      "count": 1,
      "max": [
        0.8333333134651184
      ],
      "min": [
        0.8333333134651184
      ],
      "name": "Bip001 Pelvis/rotation/Input",
      "type": "SCALAR"
    },
    {
      "bufferView": 10,
      "componentType": 5126,
      "count": 1,
      "name": "Bip001 Pelvis/scale/Output",
      "type": "VEC3"
    },
    {
      "bufferView": 11,
      "componentType": 5126,
      "count": 1,
      "max": [
        0.8333333134651184
      ],
      "min": [
        0.8333333134651184
      ],
      "name": "Bip001 Pelvis/scale/Input",
      "type": "SCALAR"
    },
    {
      "bufferView": 12,
      "componentType": 5126,
      "count": 25,
      "name": "Bip001 Spine/translation/Output",
      "type": "VEC3"
    },
    {
      "bufferView": 13,
      "componentType": 5126,
      "count": 25,
      "max": [
        0.8333333134651184
      ],
      "min": [
        0.0
      ],
      "name": "Bip001 Spine/translation/Input",
      "type": "SCALAR"
    },
    {
      "bufferView": 14,
      "componentType": 5126,
      "count": 25,
      "name": "Bip001 Spine/rotation/Output",
      "type": "VEC4"
    },
    {
      "bufferView": 15,
      "componentType": 5126,
      "count": 25,
      "max": [
        0.8333333134651184
      ],
      "min": [
        0.0
      ],
      "name": "Bip001 Spine/rotation/Input",
      "type": "SCALAR"
    },
    {
      "bufferView": 16,
      "componentType": 5126,
      "count": 1,
      "name": "Bip001 Spine/scale/Output",
      "type": "VEC3"
    },
    {
      "bufferView": 17,
      "componentType": 5126,
      "count": 1,
      "max": [
        0.8333333134651184
      ],
      "min": [
        0.8333333134651184
      ],
      "name": "Bip001 Spine/scale/Input",
      "type": "SCALAR"
    },
    {
      "bufferView": 18,
      "componentType": 5126,
      "count": 24,
      "name": "Bip001 Spine1/translation/Output",
      "type": "VEC3"
    },
    {
      "bufferView": 19,
      "componentType": 5126,
      "count": 24,
      "max": [
        0.8333333134651184
      ],
      "min": [
        0.0
      ],
      "name": "Bip001 Spine1/translation/Input",
      "type": "SCALAR"
    },
    {
      "bufferView": 20,
      "componentType": 5126,
      "count": 25,
      "name": "Bip001 Spine1/rotation/Output",
      "type": "VEC4"
    },
    {
      "bufferView": 21,
      "componentType": 5126,
      "count": 25,
      "max": [
        0.8333333134651184
      ],
      "min": [
        0.0
      ],
      "name": "Bip001 Spine1/rotation/Input",
      "type": "SCALAR"
    },
    {
      "bufferView": 22,
      "componentType": 5126,
      "count": 1,
      "name": "Bip001 Spine1/scale/Output",
      "type": "VEC3"
    },
    {
      "bufferView": 23,
      "componentType": 5126,
      "count": 1,
      "max": [
        0.8333333134651184
      ],
      "min": [
        0.8333333134651184
      ],
      "name": "Bip001 Spine1/scale/Input",
      "type": "SCALAR"
    },
    {
      "bufferView": 24,
      "componentType": 5126,
      "count": 17,
      "name": "Bip001 Neck/translation/Output",
      "type": "VEC3"
    },
    {
      "bufferView": 25,
      "componentType": 5126,
      "count": 17,
      "max": [
        0.6000000238418579
      ],
      "min": [
        0.0
      ],
      "name": "Bip001 Neck/translation/Input",
      "type": "SCALAR"
    },
    {
      "bufferView": 26,
      "componentType": 5126,
      "count": 18,
      "name": "Bip001 Neck/rotation/Output",
      "type": "VEC4"
    },
    {
      "bufferView": 27,
      "componentType": 5126,
      "count": 18,
      "max": [
        0.6000000238418579
      ],
      "min": [
        0.0
      ],
      "name": "Bip001 Neck/rotation/Input",
      "type": "SCALAR"
    },
    {
      "bufferView": 28,
      "componentType": 5126,
      "count": 1,
      "name": "Bip001 Neck/scale/Output",
      "type": "VEC3"
    },
    {
      "bufferView": 29,
      "componentType": 5126,
      "count": 1,
      "max": [
        0.8333333134651184
      ],
      "min": [
        0.8333333134651184
      ],
      "name": "Bip001 Neck/scale/Input",
      "type": "SCALAR"
    },
    {
      "bufferView": 30,
      "componentType": 5126,
      "count": 8,
      "name": "Bip001 Head/translation/Output",
      "type": "VEC3"
    },
    {
      "bufferView": 31,
      "componentType": 5126,
      "count": 8,
      "max": [
        0.8333333134651184
      ],
      "min": [
        0.0
      ],
      "name": "Bip001 Head/translation/Input",
      "type": "SCALAR"
    },
    {
      "bufferView": 32,
      "componentType": 5126,
      "count": 26,
      "name": "Bip001 Head/rotation/Output",
      "type": "VEC4"
    },
    {
      "bufferView": 33,
      "componentType": 5126,
      "count": 26,
      "max": [
        0.8333333134651184
      ],
      "min": [
        0.0
      ],
      "name": "Bip001 Head/rotation/Input",
      "type": "SCALAR"
    },
    {
      "bufferView": 34,
      "componentType": 5126,
      "count": 1,
      "name": "Bip001 Head/scale/Output",
      "type": "VEC3"
    },
    {
      "bufferView": 35,
      "componentType": 5126,
      "count": 1,
      "max": [
        0.8333333134651184
      ],
      "min": [
        0.8333333134651184
      ],
      "name": "Bip001 Head/scale/Input",
      "type": "SCALAR"
    },
    {
      "bufferView": 36,
      "componentType": 5126,
      "count": 5,
      "name": "Bip001 L Clavicle/translation/Output",
      "type": "VEC3"
    },
    {
      "bufferView": 37,
      "componentType": 5126,
      "count": 5,
      "max": [
        0.36666667461395264
      ],
      "min": [
        0.13333334028720856
      ],
      "name": "Bip001 L Clavicle/translation/Input",
      "type": "SCALAR"
    },
    {
      "bufferView": 38,
      "componentType": 5126,
      "count": 26,
      "name": "Bip001 L Clavicle/rotation/Output",
      "type": "VEC4"
    },
    {
      "bufferView": 39,
      "componentType": 5126,
      "count": 26,
      "max": [
        0.8333333134651184
      ],
      "min": [
        0.0
      ],
      "name": "Bip001 L Clavicle/rotation/Input",
      "type": "SCALAR"
    },
    {
      "bufferView": 40,
      "componentType": 5126,
      "count": 1,
      "name": "Bip001 L Clavicle/scale/Output",
      "type": "VEC3"
    },
    {
      "bufferView": 41,
      "componentType": 5126,
      "count": 1,
      "max": [
        0.8333333134651184
      ],
      "min": [
        0.8333333134651184
      ],
      "name": "Bip001 L Clavicle/scale/Input",
      "type": "SCALAR"
    },
    {
      "bufferView": 42,
      "componentType": 5126,
      "count": 8,
      "name": "Bip001 L UpperArm/translation/Output",
      "type": "VEC3"
    },
    {
      "bufferView": 43,
      "componentType": 5126,
      "count": 8,
      "max": [
        0.8333333134651184
      ],
      "min": [
        0.06666667014360428
      ],
      "name": "Bip001 L UpperArm/translation/Input",
      "type": "SCALAR"
    },
    {
      "bufferView": 44,
      "componentType": 5126,
      "count": 26,
      "name": "Bip001 L UpperArm/rotation/Output",
      "type": "VEC4"
    },
    {
      "bufferView": 45,
      "componentType": 5126,
      "count": 26,
      "max": [
        0.8333333134651184
      ],
      "min": [
        0.0
      ],
      "name": "Bip001 L UpperArm/rotation/Input",
      "type": "SCALAR"
    },
    {
      "bufferView": 46,
      "componentType": 5126,
      "count": 1,
      "name": "Bip001 L UpperArm/scale/Output",
      "type": "VEC3"
    },
    {
      "bufferView": 47,
      "componentType": 5126,
      "count": 1,
      "max": [
        0.8333333134651184
      ],
      "min": [
        0.8333333134651184
      ],
      "name": "Bip001 L UpperArm/scale/Input",
      "type": "SCALAR"
    },
    {
      "bufferView": 48,
      "componentType": 5126,
      "count": 9,
      "name": "Bip001 L Forearm/translation/Output",
      "type": "VEC3"
    },
    {
      "bufferView": 49,
      "componentType": 5126,
      "count": 9,
      "max": [
        0.8333333134651184
      ],
      "min": [
        0.0
      ],
      "name": "Bip001 L Forearm/translation/Input",
      "type": "SCALAR"
    },
    {
      "bufferView": 50,
      "componentType": 5126,
      "count": 25,
      "name": "Bip001 L Forearm/rotation/Output",
      "type": "VEC4"
    },
    {
      "bufferView": 51,
      "componentType": 5126,
      "count": 25,
      "max": [
        0.8333333134651184
      ],
      "min": [
        0.0
      ],
      "name": "Bip001 L Forearm/rotation/Input",
      "type": "SCALAR"
    },
    {
      "bufferView": 52,
      "componentType": 5126,
      "count": 1,
      "name": "Bip001 L Forearm/scale/Output",
      "type": "VEC3"
    },
    {
      "bufferView": 53,
      "componentType": 5126,
      "count": 1,
      "max": [
        0.8333333134651184
      ],
      "min": [
        0.8333333134651184
      ],
      "name": "Bip001 L Forearm/scale/Input",
      "type": "SCALAR"
    },
    {
      "bufferView": 54,
      "componentType": 5126,
      "count": 7,
      "name": "Bip001 L Hand/translation/Output",
      "type": "VEC3"
    },
    {
      "bufferView": 55,
      "componentType": 5126,
      "count": 7,
      "max": [
        0.5666666626930237
      ],
      "min": [
        0.0
      ],
      "name": "Bip001 L Hand/translation/Input",
      "type": "SCALAR"
    },
    {
      "bufferView": 56,
      "componentType": 5126,
      "count": 26,
      "name": "Bip001 L Hand/rotation/Output",
      "type": "VEC4"
    },
    {
      "bufferView": 57,
      "componentType": 5126,
      "count": 26,
      "max": [
        0.8333333134651184
      ],
      "min": [
        0.0
      ],
      "name": "Bip001 L Hand/rotation/Input",
      "type": "SCALAR"
    },
    {
      "bufferView": 58,
      "componentType": 5126,
      "count": 1,
      "name": "Bip001 L Hand/scale/Output",
      "type": "VEC3"
    },
    {
      "bufferView": 59,
      "componentType": 5126,
      "count": 1,
      "max": [
        0.8333333134651184
      ],
      "min": [
        0.8333333134651184
      ],
      "name": "Bip001 L Hand/scale/Input",
      "type": "SCALAR"
    },
    {
      "bufferView": 60,
      "componentType": 5126,
      "count": 5,
      "name": "Bip001 R Clavicle/translation/Output",
      "type": "VEC3"
    },
    {
      "bufferView": 61,
      "componentType": 5126,
      "count": 5,
      "max": [
        0.5333333611488342
      ],
      "min": [
        0.10000000149011612
      ],
      "name": "Bip001 R Clavicle/translation/Input",
      "type": "SCALAR"
    },
    {
      "bufferView": 62,
      "componentType": 5126,
      "count": 25,
      "name": "Bip001 R Clavicle/rotation/Output",
      "type": "VEC4"
    },
    {
      "bufferView": 63,
      "componentType": 5126,
      "count": 25,
      "max": [
        0.8333333134651184
      ],
      "min": [
        0.0
      ],
      "name": "Bip001 R Clavicle/rotation/Input",
      "type": "SCALAR"
    },
    {
      "bufferView": 64,
      "componentType": 5126,
      "count": 1,
      "name": "Bip001 R Clavicle/scale/Output",
      "type": "VEC3"
    },
    {
      "bufferView": 65,
      "componentType": 5126,
      "count": 1,
      "max": [
        0.8333333134651184
      ],
      "min": [
        0.8333333134651184
      ],
      "name": "Bip001 R Clavicle/scale/Input",
      "type": "SCALAR"
    },
    {
      "bufferView": 66,
      "componentType": 5126,
      "count": 9,
      "name": "Bip001 R UpperArm/translation/Output",
      "type": "VEC3"
    },
    {
      "bufferView": 67,
      "componentType": 5126,
      "count": 9,
      "max": [
        0.4333333373069763
      ],
      "min": [
        0.06666667014360428
      ],
      "name": "Bip001 R UpperArm/translation/Input",
      "type": "SCALAR"
    },
    {
      "bufferView": 68,
      "componentType": 5126,
      "count": 26,
      "name": "Bip001 R UpperArm/rotation/Output",
      "type": "VEC4"
    },
    {
      "bufferView": 69,
      "componentType": 5126,
      "count": 26,
      "max": [
        0.8333333134651184
      ],
      "min": [
        0.0
      ],
      "name": "Bip001 R UpperArm/rotation/Input",
      "type": "SCALAR"
    },
    {
      "bufferView": 70,
      "componentType": 5126,
      "count": 1,
      "name": "Bip001 R UpperArm/scale/Output",
      "type": "VEC3"
    },
    {
      "bufferView": 71,
      "componentType": 5126,
      "count": 1,
      "max": [
        0.8333333134651184
      ],
      "min": [
        0.8333333134651184
      ],
      "name": "Bip001 R UpperArm/scale/Input",
      "type": "SCALAR"
    },
    {
      "bufferView": 72,
      "componentType": 5126,
      "count": 9,
      "name": "Bip001 R Forearm/translation/Output",
      "type": "VEC3"
    },
    {
      "bufferView": 73,
      "componentType": 5126,
      "count": 9,
      "max": [
        0.4000000059604645
      ],
      "min": [
        0.0
      ],
      "name": "Bip001 R Forearm/translation/Input",
      "type": "SCALAR"
    },
    {
      "bufferView": 74,
      "componentType": 5126,
      "count": 25,
      "name": "Bip001 R Forearm/rotation/Output",
      "type": "VEC4"
    },
    {
      "bufferView": 75,
      "componentType": 5126,
      "count": 25,
      "max": [
        0.8333333134651184
      ],
      "min": [
        0.0
      ],
      "name": "Bip001 R Forearm/rotation/Input",
      "type": "SCALAR"
    },
    {
      "bufferView": 76,
      "componentType": 5126,
      "count": 1,
      "name": "Bip001 R Forearm/scale/Output",
      "type": "VEC3"
    },
    {
      "bufferView": 77,
      "componentType": 5126,
      "count": 1,
      "max": [
        0.8333333134651184
      ],
      "min": [
        0.8333333134651184
      ],
      "name": "Bip001 R Forearm/scale/Input",
      "type": "SCALAR"
    },
    {
      "bufferView": 78,
      "componentType": 5126,
      "count": 10,
      "name": "Bip001 R Hand/translation/Output",
      "type": "VEC3"
    },
    {
      "bufferView": 79,
      "componentType": 5126,
      "count": 10,
      "max": [
        0.7333333492279053
      ],
      "min": [
        0.0
      ],
      "name": "Bip001 R Hand/translation/Input",
      "type": "SCALAR"
    },
    {
      "bufferView": 80,
      "componentType": 5126,
      "count": 26,
      "name": "Bip001 R Hand/rotation/Output",
      "type": "VEC4"
    },
    {
      "bufferView": 81,
      "componentType": 5126,
      "count": 26,
      "max": [
        0.8333333134651184
      ],
      "min": [
        0.0
      ],
      "name": "Bip001 R Hand/rotation/Input",
      "type": "SCALAR"
    },
    {
      "bufferView": 82,
      "componentType": 5126,
      "count": 1,
      "name": "Bip001 R Hand/scale/Output",
      "type": "VEC3"
    },
    {
      "bufferView": 83,
      "componentType": 5126,
      "count": 1,
      "max": [
        0.8333333134651184
      ],
      "min": [
        0.8333333134651184
      ],
      "name": "Bip001 R Hand/scale/Input",
      "type": "SCALAR"
    },
    {
      "bufferView": 84,
      "componentType": 5126,
      "count": 7,
      "name": "Bip001 L Thigh/translation/Output",
      "type": "VEC3"
    },
    {
      "bufferView": 85,
      "componentType": 5126,
      "count": 7,
      "max": [
        0.2666666805744171
      ],
      "min": [
        0.03333333507180214
      ],
      "name": "Bip001 L Thigh/translation/Input",
      "type": "SCALAR"
    },
    {
      "bufferView": 86,
      "componentType": 5126,
      "count": 26,
      "name": "Bip001 L Thigh/rotation/Output",
      "type": "VEC4"
    },
    {
      "bufferView": 87,
      "componentType": 5126,
      "count": 26,
      "max": [
        0.8333333134651184
      ],
      "min": [
        0.0
      ],
      "name": "Bip001 L Thigh/rotation/Input",
      "type": "SCALAR"
    },
    {
      "bufferView": 88,
      "componentType": 5126,
      "count": 1,
      "name": "Bip001 L Thigh/scale/Output",
      "type": "VEC3"
    },
    {
      "bufferView": 89,
      "componentType": 5126,
      "count": 1,
      "max": [
        0.8333333134651184
      ],
      "min": [
        0.8333333134651184
      ],
      "name": "Bip001 L Thigh/scale/Input",
      "type": "SCALAR"
    },
    {
      "bufferView": 90,
      "componentType": 5126,
      "count": 6,
      "name": "Bip001 L Calf/translation/Output",
      "type": "VEC3"
    },
    {
      "bufferView": 91,
      "componentType": 5126,
      "count": 6,
      "max": [
        0.2666666805744171
      ],
      "min": [
        0.0
      ],
      "name": "Bip001 L Calf/translation/Input",
      "type": "SCALAR"
    },
    {
      "bufferView": 92,
      "componentType": 5126,
      "count": 25,
      "name": "Bip001 L Calf/rotation/Output",
      "type": "VEC4"
    },
    {
      "bufferView": 93,
      "componentType": 5126,
      "count": 25,
      "max": [
        0.8333333134651184
      ],
      "min": [
        0.0
      ],
      "name": "Bip001 L Calf/rotation/Input",
      "type": "SCALAR"
    },
    {
      "bufferView": 94,
      "componentType": 5126,
      "count": 1,
      "name": "Bip001 L Calf/scale/Output",
      "type": "VEC3"
    },
    {
      "bufferView": 95,
      "componentType": 5126,
      "count": 1,
      "max": [
        0.8333333134651184
      ],
      "min": [
        0.8333333134651184
      ],
      "name": "Bip001 L Calf/scale/Input",
      "type": "SCALAR"
    },
    {
      "bufferView": 96,
      "componentType": 5126,
      "count": 9,
      "name": "Bip001 L Foot/translation/Output",
      "type": "VEC3"
    },
    {
      "bufferView": 97,
      "componentType": 5126,
      "count": 9,
      "max": [
        0.8333333134651184
      ],
      "min": [
        0.13333334028720856
      ],
      "name": "Bip001 L Foot/translation/Input",
      "type": "SCALAR"
    },
    {
      "bufferView": 98,
      "componentType": 5126,
      "count": 26,
      "name": "Bip001 L Foot/rotation/Output",
      "type": "VEC4"
    },
    {
      "bufferView": 99,
      "componentType": 5126,
      "count": 26,
      "max": [
        0.8333333134651184
      ],
      "min": [
        0.0
      ],
      "name": "Bip001 L Foot/rotation/Input",
      "type": "SCALAR"
    },
    {
      "bufferView": 100,
      "componentType": 5126,
      "count": 1,
      "name": "Bip001 L Foot/scale/Output",
      "type": "VEC3"
    },
    {
      "bufferView": 101,
      "componentType": 5126,
      "count": 1,
      "max": [
        0.8333333134651184
      ],
      "min": [
        0.8333333134651184
      ],
      "name": "Bip001 L Foot/scale/Input",
      "type": "SCALAR"
    },
    {
      "bufferView": 102,
      "componentType": 5126,
      "count": 8,
      "name": "Bip001 L Toe0/translation/Output",
      "type": "VEC3"
    },
    {
      "bufferView": 103,
      "componentType": 5126,
      "count": 8,
      "max": [
        0.4000000059604645
      ],
      "min": [
        0.13333334028720856
      ],
      "name": "Bip001 L Toe0/translation/Input",
      "type": "SCALAR"
    },
    {
      "bufferView": 104,
      "componentType": 5126,
      "count": 8,
      "name": "Bip001 L Toe0/rotation/Output",
      "type": "VEC4"
    },
    {
      "bufferView": 105,
      "componentType": 5126,
      "count": 8,
      "max": [
        0.36666667461395264
      ],
      "min": [
        0.10000000149011612
      ],
      "name": "Bip001 L Toe0/rotation/Input",
      "type": "SCALAR"
    },
    {
      "bufferView": 106,
      "componentType": 5126,
      "count": 1,
      "name": "Bip001 L Toe0/scale/Output",
      "type": "VEC3"
    },
    {
      "bufferView": 107,
      "componentType": 5126,
      "count": 1,
      "max": [
        0.8333333134651184
      ],
      "min": [
        0.8333333134651184
      ],
      "name": "Bip001 L Toe0/scale/Input",
      "type": "SCALAR"
    },
    {
      "bufferView": 108,
      "componentType": 5126,
      "count": 4,
      "name": "Bip001 R Thigh/translation/Output",
      "type": "VEC3"
    },
    {
      "bufferView": 109,
      "componentType": 5126,
      "count": 4,
      "max": [
        0.36666667461395264
      ],
      "min": [
        0.03333333507180214
      ],
      "name": "Bip001 R Thigh/translation/Input",
      "type": "SCALAR"
    },
    {
      "bufferView": 110,
      "componentType": 5126,
      "count": 26,
      "name": "Bip001 R Thigh/rotation/Output",
      "type": "VEC4"
    },
    {
      "bufferView": 111,
      "componentType": 5126,
      "count": 26,
      "max": [
        0.8333333134651184
      ],
      "min": [
        0.0
      ],
      "name": "Bip001 R Thigh/rotation/Input",
      "type": "SCALAR"
    },
    {
      "bufferView": 112,
      "componentType": 5126,
      "count": 1,
      "name": "Bip001 R Thigh/scale/Output",
      "type": "VEC3"
    },
    {
      "bufferView": 113,
      "componentType": 5126,
      "count": 1,
      "max": [
        0.8333333134651184
      ],
      "min": [
        0.8333333134651184
      ],
      "name": "Bip001 R Thigh/scale/Input",
      "type": "SCALAR"
    },
    {
      "bufferView": 114,
      "componentType": 5126,
      "count": 7,
      "name": "Bip001 R Calf/translation/Output",
      "type": "VEC3"
    },
    {
      "bufferView": 115,
      "componentType": 5126,
      "count": 7,
      "max": [
        0.6666666865348816
      ],
      "min": [
        0.03333333507180214
      ],
      "name": "Bip001 R Calf/translation/Input",
      "type": "SCALAR"
    },
    {
      "bufferView": 116,
      "componentType": 5126,
      "count": 26,
      "name": "Bip001 R Calf/rotation/Output",
      "type": "VEC4"
    },
    {
      "bufferView": 117,
      "componentType": 5126,
      "count": 26,
      "max": [
        0.8333333134651184
      ],
      "min": [
        0.0
      ],
      "name": "Bip001 R Calf/rotation/Input",
      "type": "SCALAR"
    },
    {
      "bufferView": 118,
      "componentType": 5126,
      "count": 1,
      "name": "Bip001 R Calf/scale/Output",
      "type": "VEC3"
    },
    {
      "bufferView": 119,
      "componentType": 5126,
      "count": 1,
      "max": [
        0.8333333134651184
      ],
      "min": [
        0.8333333134651184
      ],
      "name": "Bip001 R Calf/scale/Input",
      "type": "SCALAR"
    },
    {
      "bufferView": 120,
      "componentType": 5126,
      "count": 11,
      "name": "Bip001 R Foot/translation/Output",
      "type": "VEC3"
    },
    {
      "bufferView": 121,
      "componentType": 5126,
      "count": 11,
      "max": [
        0.8333333134651184
      ],
      "min": [
        0.0
      ],
      "name": "Bip001 R Foot/translation/Input",
      "type": "SCALAR"
    },
    {
      "bufferView": 122,
      "componentType": 5126,
      "count": 26,
      "name": "Bip001 R Foot/rotation/Output",
      "type": "VEC4"
    },
    {
      "bufferView": 123,
      "componentType": 5126,
      "count": 26,
      "max": [
        0.8333333134651184
      ],
      "min": [
        0.0
      ],
      "name": "Bip001 R Foot/rotation/Input",
      "type": "SCALAR"
    },
    {
      "bufferView": 124,
      "componentType": 5126,
      "count": 1,
      "name": "Bip001 R Foot/scale/Output",
      "type": "VEC3"
    },
    {
      "bufferView": 125,
      "componentType": 5126,
      "count": 1,
      "max": [
        0.8333333134651184
      ],
      "min": [
        0.8333333134651184
      ],
      "name": "Bip001 R Foot/scale/Input",
      "type": "SCALAR"
    },
    {
      "bufferView": 126,
      "componentType": 5126,
      "count": 10,
      "name": "Bip001 R Toe0/translation/Output",
      "type": "VEC3"
    },
    {
      "bufferView": 127,
      "componentType": 5126,
      "count": 10,
      "max": [
        0.8333333134651184
      ],
      "min": [
        0.06666667014360428
      ],
      "name": "Bip001 R Toe0/translation/Input",
      "type": "SCALAR"
    },
    {
      "bufferView": 128,
      "componentType": 5126,
      "count": 6,
      "name": "Bip001 R Toe0/rotation/Output",
      "type": "VEC4"
    },
    {
      "bufferView": 129,
      "componentType": 5126,
      "count": 6,
      "max": [
        0.6000000238418579
      ],
      "min": [
        0.10000000149011612
      ],
      "name": "Bip001 R Toe0/rotation/Input",
      "type": "SCALAR"
    },
    {
      "bufferView": 130,
      "componentType": 5126,
      "count": 1,
      "name": "Bip001 R Toe0/scale/Output",
      "type": "VEC3"
    },
    {
      "bufferView": 131,
      "componentType": 5126,
      "count": 1,
      "max": [
        0.8333333134651184
      ],
      "min": [
        0.8333333134651184
      ],
      "name": "Bip001 R Toe0/scale/Input",
      "type": "SCALAR"
    }
  ],
  "animations": [
    {
      "channels": [
        {
          "sampler": 0,
          "target": {
            "node": 0,
            "path": "translation"
          }
        },
        {
          "sampler": 1,
          "target": {
            "node": 0,
            "path": "rotation"
          }
        },
        {
          "sampler": 2,
          "target": {
            "node": 0,
            "path": "scale"
          }
        },
        {
          "sampler": 3,
          "target": {
            "node": 1,
            "path": "translation"
          }
        },
        {
          "sampler": 4,
          "target": {
            "node": 1,
            "path": "rotation"
          }
        },
        {
          "sampler": 5,
          "target": {
            "node": 1,
            "path": "scale"
          }
        },
        {
          "sampler": 6,
          "target": {
            "node": 2,
            "path": "translation"
          }
        },
        {
          "sampler": 7,
          "target": {
            "node": 2,
            "path": "rotation"
          }
        },
        {
          "sampler": 8,
          "target": {
            "node": 2,
            "path": "scale"
          }
        },
        {
          "sampler": 9,
          "target": {
            "node": 3,
            "path": "translation"
          }
        },
        {
          "sampler": 10,
          "target": {
            "node": 3,
            "path": "rotation"
          }
        },
        {
          "sampler": 11,
          "target": {
            "node": 3,
            "path": "scale"
          }
        },
        {
          "sampler": 12,
          "target": {
            "node": 4,
            "path": "translation"
          }
        },
        {
          "sampler": 13,
          "target": {
            "node": 4,
            "path": "rotation"
          }
        },
        {
          "sampler": 14,
          "target": {
            "node": 4,
            "path": "scale"
          }
        },
        {
          "sampler": 15,
          "target": {
            "node": 5,
            "path": "translation"
          }
        },
        {
          "sampler": 16,
          "target": {
            "node": 5,
            "path": "rotation"
          }
        },
        {
          "sampler": 17,
          "target": {
            "node": 5,
            "path": "scale"
          }
        },
        {
          "sampler": 18,
          "target": {
            "node": 6,
            "path": "translation"
          }
        },
        {
          "sampler": 19,
          "target": {
            "node": 6,
            "path": "rotation"
          }
        },
        {
          "sampler": 20,
          "target": {
            "node": 6,
            "path": "scale"
          }
        },
        {
          "sampler": 21,
          "target": {
            "node": 7,
            "path": "translation"
          }
        },
        {
          "sampler": 22,
          "target": {
            "node": 7,
            "path": "rotation"
          }
        },
        {
          "sampler": 23,
          "target": {
            "node": 7,
            "path": "scale"
          }
        },
        {
          "sampler": 24,
          "target": {
            "node": 8,
            "path": "translation"
          }
        },
        {
          "sampler": 25,
          "target": {
            "node": 8,
            "path": "rotation"
          }
        },
        {
          "sampler": 26,
          "target": {
            "node": 8,
            "path": "scale"
          }
        },
        {
          "sampler": 27,
          "target": {
            "node": 9,
            "path": "translation"
          }
        },
        {
          "sampler": 28,
          "target": {
            "node": 9,
            "path": "rotation"
          }
        },
        {
          "sampler": 29,
          "target": {
            "node": 9,
            "path": "scale"
          }
        },
        {
          "sampler": 30,
          "target": {
            "node": 10,
            "path": "translation"
          }
        },
        {
          "sampler": 31,
          "target": {
            "node": 10,
            "path": "rotation"
          }
        },
        {
          "sampler": 32,
          "target": {
            "node": 10,
            "path": "scale"
          }
        },
        {
          "sampler": 33,
          "target": {
            "node": 11,
            "path": "translation"
          }
        },
        {
          "sampler": 34,
          "target": {
            "node": 11,
            "path": "rotation"
          }
        },
        {
          "sampler": 35,
          "target": {
            "node": 11,
            "path": "scale"
          }
        },
        {
          "sampler": 36,
          "target": {
            "node": 12,
            "path": "translation"
          }
        },
        {
          "sampler": 37,
          "target": {
            "node": 12,
            "path": "rotation"
          }
        },
        {
          "sampler": 38,
          "target": {
            "node": 12,
            "path": "scale"
          }
        },
        {
          "sampler": 39,
          "target": {
            "node": 13,
            "path": "translation"
          }
        },
        {
          "sampler": 40,
          "target": {
            "node": 13,
            "path": "rotation"
          }
        },
        {
          "sampler": 41,
          "target": {
            "node": 13,
            "path": "scale"
          }
        },
        {
          "sampler": 42,
          "target": {
            "node": 14,
            "path": "translation"
          }
        },
        {
          "sampler": 43,
          "target": {
            "node": 14,
            "path": "rotation"
          }
        },
        {
          "sampler": 44,
          "target": {
            "node": 14,
            "path": "scale"
          }
        },
        {
          "sampler": 45,
          "target": {
            "node": 15,
            "path": "translation"
          }
        },
        {
          "sampler": 46,
          "target": {
            "node": 15,
            "path": "rotation"
          }
        },
        {
          "sampler": 47,
          "target": {
            "node": 15,
            "path": "scale"
          }
        },
        {
          "sampler": 48,
          "target": {
            "node": 16,
            "path": "translation"
          }
        },
        {
          "sampler": 49,
          "target": {
            "node": 16,
            "path": "rotation"
          }
        },
        {
          "sampler": 50,
          "target": {
            "node": 16,
            "path": "scale"
          }
        },
        {
          "sampler": 51,
          "target": {
            "node": 17,
            "path": "translation"
          }
        },
        {
          "sampler": 52,
          "target": {
            "node": 17,
            "path": "rotation"
          }
        },
        {
          "sampler": 53,
          "target": {
            "node": 17,
            "path": "scale"
          }
        },
        {
          "sampler": 54,
          "target": {
            "node": 18,
            "path": "translation"
          }
        },
        {
          "sampler": 55,
          "target": {
            "node": 18,
            "path": "rotation"
          }
        },
        {
          "sampler": 56,
          "target": {
            "node": 18,
            "path": "scale"
          }
        },
        {
          "sampler": 57,
          "target": {
            "node": 19,
            "path": "translation"
          }
        },
        {
          "sampler": 58,
          "target": {
            "node": 19,
            "path": "rotation"
          }
        },
        {
          "sampler": 59,
          "target": {
            "node": 19,
            "path": "scale"
          }
        },
        {
          "sampler": 60,
          "target": {
            "node": 20,
            "path": "translation"
          }
        },
        {
          "sampler": 61,
          "target": {
            "node": 20,
            "path": "rotation"
          }
        },
        {
          "sampler": 62,
          "target": {
            "node": 20,
            "path": "scale"
          }
        },
        {
          "sampler": 63,
          "target": {
            "node": 21,
            "path": "translation"
          }
        },
        {
          "sampler": 64,
          "target": {
            "node": 21,
            "path": "rotation"
          }
        },
        {
          "sampler": 65,
          "target": {
            "node": 21,
            "path": "scale"
          }
        }
      ],
      "name": "Take 001",
      "samplers": [
        {
          "input": 1,
          "output": 0
        },
        {
          "input": 3,
          "output": 2
        },
        {
          "input": 5,
          "output": 4
        },
        {
          "input": 7,
          "output": 6
        },
        {
          "input": 9,
          "output": 8
        },
        {
          "input": 11,
          "output": 10
        },
        {
          "input": 13,
          "output": 12
        },
        {
          "input": 15,
          "output": 14
        },
        {
          "input": 17,
          "output": 16
        },
        {
          "input": 19,
          "output": 18
        },
        {
          "input": 21,
          "output": 20
        },
        {
          "input": 23,
          "output": 22
        },
        {
          "input": 25,
          "output": 24
        },
        {
          "input": 27,
          "output": 26
        },
        {
          "input": 29,
          "output": 28
        },
        {
          "input": 31,
          "output": 30
        },
        {
          "input": 33,
          "output": 32
        },
        {
          "input": 35,
          "output": 34
        },
        {
          "input": 37,
          "output": 36
        },
        {
          "input": 39,
          "output": 38
        },
        {
          "input": 41,
          "output": 40
        },
        {
          "input": 43,
          "output": 42
        },
        {
          "input": 45,
          "output": 44
        },
        {
          "input": 47,
          "output": 46
        },
        {
          "input": 49,
          "output": 48
        },
        {
          "input": 51,
          "output": 50
        },
        {
          "input": 53,
          "output": 52
        },
        {
          "input": 55,
          "output": 54
        },
        {
          "input": 57,
          "output": 56
        },
        {
          "input": 59,
          "output": 58
        },
        {
          "input": 61,
          "output": 60
        },
        {
          "input": 63,
          "output": 62
        },
        {
          "input": 65,
          "output": 64
        },
        {
          "input": 67,
          "output": 66
        },
        {
          "input": 69,
          "output": 68
        },
        {
          "input": 71,
          "output": 70
        },
        {
          "input": 73,
          "output": 72
        },
        {
          "input": 75,
          "output": 74
        },
        {
          "input": 77,
          "output": 76
        },
        {
          "input": 79,
          "output": 78
        },
        {
          "input": 81,
          "output": 80
        },
        {
          "input": 83,
          "output": 82
        },
        {
          "input": 85,
          "output": 84
        },
        {
          "input": 87,
          "output": 86
        },
        {
          "input": 89,
          "output": 88
        },
        {
          "input": 91,
          "output": 90
        },
        {
          "input": 93,
          "output": 92
        },
        {
          "input": 95,
          "output": 94
        },
        {
          "input": 97,
          "output": 96
        },
        {
          "input": 99,
          "output": 98
        },
        {
          "input": 101,
          "output": 100
        },
        {
          "input": 103,
          "output": 102
        },
        {
          "input": 105,
          "output": 104
        },
        {
          "input": 107,
          "output": 106
        },
        {
          "input": 109,
          "output": 108
        },
        {
          "input": 111,
          "output": 110
        },
        {
          "input": 113,
          "output": 112
        },
        {
          "input": 115,
          "output": 114
        },
        {
          "input": 117,
          "output": 116
        },
        {
          "input": 119,
          "output": 118
        },
        {
          "input": 121,
          "output": 120
        },
        {
          "input": 123,
          "output": 122
        },
        {
          "input": 125,
          "output": 124
        },
        {
          "input": 127,
          "output": 126
        },
        {
          "input": 129,
          "output": 128
        },
        {
          "input": 131,
          "output": 130
        }
      ]
    }
  ],
  "asset": {
    "copyright": "Copyright (c) 2018-2020 Chukong Technologies Inc.",
    "generator": "FBX-glTF-conv",
    "version": "2.0"
  },
  "bufferViews": [
    {
      "buffer": 0,
      "byteLength": 168
    },
    {
      "buffer": 0,
      "byteLength": 56,
      "byteOffset": 168
    },
    {
      "buffer": 0,
      "byteLength": 400,
      "byteOffset": 224
    },
    {
      "buffer": 0,
      "byteLength": 100,
      "byteOffset": 624
    },
    {
      "buffer": 0,
      "byteLength": 12,
      "byteOffset": 724
    },
    {
      "buffer": 0,
      "byteLength": 4,
      "byteOffset": 736
    },
    {
      "buffer": 0,
      "byteLength": 12,
      "byteOffset": 740
    },
    {
      "buffer": 0,
      "byteLength": 4,
      "byteOffset": 752
    },
    {
      "buffer": 0,
      "byteLength": 16,
      "byteOffset": 756
    },
    {
      "buffer": 0,
      "byteLength": 4,
      "byteOffset": 772
    },
    {
      "buffer": 0,
      "byteLength": 12,
      "byteOffset": 776
    },
    {
      "buffer": 0,
      "byteLength": 4,
      "byteOffset": 788
    },
    {
      "buffer": 0,
      "byteLength": 300,
      "byteOffset": 792
    },
    {
      "buffer": 0,
      "byteLength": 100,
      "byteOffset": 1092
    },
    {
      "buffer": 0,
      "byteLength": 400,
      "byteOffset": 1192
    },
    {
      "buffer": 0,
      "byteLength": 100,
      "byteOffset": 1592
    },
    {
      "buffer": 0,
      "byteLength": 12,
      "byteOffset": 1692
    },
    {
      "buffer": 0,
      "byteLength": 4,
      "byteOffset": 1704
    },
    {
      "buffer": 0,
      "byteLength": 288,
      "byteOffset": 1708
    },
    {
      "buffer": 0,
      "byteLength": 96,
      "byteOffset": 1996
    },
    {
      "buffer": 0,
      "byteLength": 400,
      "byteOffset": 2092
    },
    {
      "buffer": 0,
      "byteLength": 100,
      "byteOffset": 2492
    },
    {
      "buffer": 0,
      "byteLength": 12,
      "byteOffset": 2592
    },
    {
      "buffer": 0,
      "byteLength": 4,
      "byteOffset": 2604
    },
    {
      "buffer": 0,
      "byteLength": 204,
      "byteOffset": 2608
    },
    {
      "buffer": 0,
      "byteLength": 68,
      "byteOffset": 2812
    },
    {
      "buffer": 0,
      "byteLength": 288,
      "byteOffset": 2880
    },
    {
      "buffer": 0,
      "byteLength": 72,
      "byteOffset": 3168
    },
    {
      "buffer": 0,
      "byteLength": 12,
      "byteOffset": 3240
    },
    {
      "buffer": 0,
      "byteLength": 4,
      "byteOffset": 3252
    },
    {
      "buffer": 0,
      "byteLength": 96,
      "byteOffset": 3256
    },
    {
      "buffer": 0,
      "byteLength": 32,
      "byteOffset": 3352
    },
    {
      "buffer": 0,
      "byteLength": 416,
      "byteOffset": 3384
    },
    {
      "buffer": 0,
      "byteLength": 104,
      "byteOffset": 3800
    },
    {
      "buffer": 0,
      "byteLength": 12,
      "byteOffset": 3904
    },
    {
      "buffer": 0,
      "byteLength": 4,
      "byteOffset": 3916
    },
    {
      "buffer": 0,
      "byteLength": 60,
      "byteOffset": 3920
    },
    {
      "buffer": 0,
      "byteLength": 20,
      "byteOffset": 3980
    },
    {
      "buffer": 0,
      "byteLength": 416,
      "byteOffset": 4000
    },
    {
      "buffer": 0,
      "byteLength": 104,
      "byteOffset": 4416
    },
    {
      "buffer": 0,
      "byteLength": 12,
      "byteOffset": 4520
    },
    {
      "buffer": 0,
      "byteLength": 4,
      "byteOffset": 4532
    },
    {
      "buffer": 0,
      "byteLength": 96,
      "byteOffset": 4536
    },
    {
      "buffer": 0,
      "byteLength": 32,
      "byteOffset": 4632
    },
    {
      "buffer": 0,
      "byteLength": 416,
      "byteOffset": 4664
    },
    {
      "buffer": 0,
      "byteLength": 104,
      "byteOffset": 5080
    },
    {
      "buffer": 0,
      "byteLength": 12,
      "byteOffset": 5184
    },
    {
      "buffer": 0,
      "byteLength": 4,
      "byteOffset": 5196
    },
    {
      "buffer": 0,
      "byteLength": 108,
      "byteOffset": 5200
    },
    {
      "buffer": 0,
      "byteLength": 36,
      "byteOffset": 5308
    },
    {
      "buffer": 0,
      "byteLength": 400,
      "byteOffset": 5344
    },
    {
      "buffer": 0,
      "byteLength": 100,
      "byteOffset": 5744
    },
    {
      "buffer": 0,
      "byteLength": 12,
      "byteOffset": 5844
    },
    {
      "buffer": 0,
      "byteLength": 4,
      "byteOffset": 5856
    },
    {
      "buffer": 0,
      "byteLength": 84,
      "byteOffset": 5860
    },
    {
      "buffer": 0,
      "byteLength": 28,
      "byteOffset": 5944
    },
    {
      "buffer": 0,
      "byteLength": 416,
      "byteOffset": 5972
    },
    {
      "buffer": 0,
      "byteLength": 104,
      "byteOffset": 6388
    },
    {
      "buffer": 0,
      "byteLength": 12,
      "byteOffset": 6492
    },
    {
      "buffer": 0,
      "byteLength": 4,
      "byteOffset": 6504
    },
    {
      "buffer": 0,
      "byteLength": 60,
      "byteOffset": 6508
    },
    {
      "buffer": 0,
      "byteLength": 20,
      "byteOffset": 6568
    },
    {
      "buffer": 0,
      "byteLength": 400,
      "byteOffset": 6588
    },
    {
      "buffer": 0,
      "byteLength": 100,
      "byteOffset": 6988
    },
    {
      "buffer": 0,
      "byteLength": 12,
      "byteOffset": 7088
    },
    {
      "buffer": 0,
      "byteLength": 4,
      "byteOffset": 7100
    },
    {
      "buffer": 0,
      "byteLength": 108,
      "byteOffset": 7104
    },
    {
      "buffer": 0,
      "byteLength": 36,
      "byteOffset": 7212
    },
    {
      "buffer": 0,
      "byteLength": 416,
      "byteOffset": 7248
    },
    {
      "buffer": 0,
      "byteLength": 104,
      "byteOffset": 7664
    },
    {
      "buffer": 0,
      "byteLength": 12,
      "byteOffset": 7768
    },
    {
      "buffer": 0,
      "byteLength": 4,
      "byteOffset": 7780
    },
    {
      "buffer": 0,
      "byteLength": 108,
      "byteOffset": 7784
    },
    {
      "buffer": 0,
      "byteLength": 36,
      "byteOffset": 7892
    },
    {
      "buffer": 0,
      "byteLength": 400,
      "byteOffset": 7928
    },
    {
      "buffer": 0,
      "byteLength": 100,
      "byteOffset": 8328
    },
    {
      "buffer": 0,
      "byteLength": 12,
      "byteOffset": 8428
    },
    {
      "buffer": 0,
      "byteLength": 4,
      "byteOffset": 8440
    },
    {
      "buffer": 0,
      "byteLength": 120,
      "byteOffset": 8444
    },
    {
      "buffer": 0,
      "byteLength": 40,
      "byteOffset": 8564
    },
    {
      "buffer": 0,
      "byteLength": 416,
      "byteOffset": 8604
    },
    {
      "buffer": 0,
      "byteLength": 104,
      "byteOffset": 9020
    },
    {
      "buffer": 0,
      "byteLength": 12,
      "byteOffset": 9124
    },
    {
      "buffer": 0,
      "byteLength": 4,
      "byteOffset": 9136
    },
    {
      "buffer": 0,
      "byteLength": 84,
      "byteOffset": 9140
    },
    {
      "buffer": 0,
      "byteLength": 28,
      "byteOffset": 9224
    },
    {
      "buffer": 0,
      "byteLength": 416,
      "byteOffset": 9252
    },
    {
      "buffer": 0,
      "byteLength": 104,
      "byteOffset": 9668
    },
    {
      "buffer": 0,
      "byteLength": 12,
      "byteOffset": 9772
    },
    {
      "buffer": 0,
      "byteLength": 4,
      "byteOffset": 9784
    },
    {
      "buffer": 0,
      "byteLength": 72,
      "byteOffset": 9788
    },
    {
      "buffer": 0,
      "byteLength": 24,
      "byteOffset": 9860
    },
    {
      "buffer": 0,
      "byteLength": 400,
      "byteOffset": 9884
    },
    {
      "buffer": 0,
      "byteLength": 100,
      "byteOffset": 10284
    },
    {
      "buffer": 0,
      "byteLength": 12,
      "byteOffset": 10384
    },
    {
      "buffer": 0,
      "byteLength": 4,
      "byteOffset": 10396
    },
    {
      "buffer": 0,
      "byteLength": 108,
      "byteOffset": 10400
    },
    {
      "buffer": 0,
      "byteLength": 36,
      "byteOffset": 10508
    },
    {
      "buffer": 0,
      "byteLength": 416,
      "byteOffset": 10544
    },
    {
      "buffer": 0,
      "byteLength": 104,
      "byteOffset": 10960
    },
    {
      "buffer": 0,
      "byteLength": 12,
      "byteOffset": 11064
    },
    {
      "buffer": 0,
      "byteLength": 4,
      "byteOffset": 11076
    },
    {
      "buffer": 0,
      "byteLength": 96,
      "byteOffset": 11080
    },
    {
      "buffer": 0,
      "byteLength": 32,
      "byteOffset": 11176
    },
    {
      "buffer": 0,
      "byteLength": 128,
      "byteOffset": 11208
    },
    {
      "buffer": 0,
      "byteLength": 32,
      "byteOffset": 11336
    },
    {
      "buffer": 0,
      "byteLength": 12,
      "byteOffset": 11368
    },
    {
      "buffer": 0,
      "byteLength": 4,
      "byteOffset": 11380
    },
    {
      "buffer": 0,
      "byteLength": 48,
      "byteOffset": 11384
    },
    {
      "buffer": 0,
      "byteLength": 16,
      "byteOffset": 11432
    },
    {
      "buffer": 0,
      "byteLength": 416,
      "byteOffset": 11448
    },
    {
      "buffer": 0,
      "byteLength": 104,
      "byteOffset": 11864
    },
    {
      "buffer": 0,
      "byteLength": 12,
      "byteOffset": 11968
    },
    {
      "buffer": 0,
      "byteLength": 4,
      "byteOffset": 11980
    },
    {
      "buffer": 0,
      "byteLength": 84,
      "byteOffset": 11984
    },
    {
      "buffer": 0,
      "byteLength": 28,
      "byteOffset": 12068
    },
    {
      "buffer": 0,
      "byteLength": 416,
      "byteOffset": 12096
    },
    {
      "buffer": 0,
      "byteLength": 104,
      "byteOffset": 12512
    },
    {
      "buffer": 0,
      "byteLength": 12,
      "byteOffset": 12616
    },
    {
      "buffer": 0,
      "byteLength": 4,
      "byteOffset": 12628
    },
    {
      "buffer": 0,
      "byteLength": 132,
      "byteOffset": 12632
    },
    {
      "buffer": 0,
      "byteLength": 44,
      "byteOffset": 12764
    },
    {
      "buffer": 0,
      "byteLength": 416,
      "byteOffset": 12808
    },
    {
      "buffer": 0,
      "byteLength": 104,
      "byteOffset": 13224
    },
    {
      "buffer": 0,
      "byteLength": 12,
      "byteOffset": 13328
    },
    {
      "buffer": 0,
      "byteLength": 4,
      "byteOffset": 13340
    },
    {
      "buffer": 0,
      "byteLength": 120,
      "byteOffset": 13344
    },
    {
      "buffer": 0,
      "byteLength": 40,
      "byteOffset": 13464
    },
    {
      "buffer": 0,
      "byteLength": 96,
      "byteOffset": 13504
    },
    {
      "buffer": 0,
      "byteLength": 24,
      "byteOffset": 13600
    },
    {
      "buffer": 0,
      "byteLength": 12,
      "byteOffset": 13624
    },
    {
      "buffer": 0,
      "byteLength": 4,
      "byteOffset": 13636
    }
  ],
  "buffers": [
    {
      "byteLength": 13640,
      "uri": "out.bin"
    }
  ],
  "extras": {
    "FBX-glTF-conv": {
      "animationFrameRate": 30.0,
      "fbxFileHeaderInfo": {
        "creationTimeStamp": {
          "day": 9,
          "hour": 17,
          "millisecond": 870,
          "minute": 43,
          "month": 6,
          "second": 59,
          "year": 2026
        },
        "creator": "FBX SDK/FBX Plugins version 2020.3.7",
        "sceneInfo": {
          "author": "",
          "comment": "",
          "keywords": "",
          "original": {
            "applicationName": "3ds Max",
            "applicationVendor": "Autodesk",
            "applicationVersion": "2026",
            "fileName": "E:\\试玩需求\\胖丧尸\\胖丧尸_死亡02（修改位移）.fbx"
          },
          "revision": "",
          "subject": "",
          "title": "",
          "url": "D:\\工程项目\\test_pro\\test_pro\\HYQ_Project\\assets\\GameRes\\FBX\\Monster\\胖丧尸_死亡02.fbx"
        }
      }
    }
  },
  "nodes": [
    {
      "children": [
        1
      ],
      "extras": {
        "FBX-glTF-conv": {
          "skeleton": {
            "skeletonType": "Root"
          }
        }
      },
      "name": "Bip001",
      "rotation": [
        0.3883906900882721,
        0.6546033620834351,
        0.5730252265930176,
        -0.3037913143634796
      ],
      "translation": [
        0.007509647402912378,
        0.8358613848686218,
        -0.0076355841010808945
      ]
    },
    {
      "children": [
        2,
        14,
        18
      ],
      "extras": {
        "FBX-glTF-conv": {
          "skeleton": {
            "skeletonType": "LimbNode"
          }
        }
      },
      "name": "Bip001 Pelvis",
      "rotation": [
        -0.5,
        -0.5,
        -0.4999993145465851,
        0.5000007152557373
      ]
    },
    {
      "children": [
        3
      ],
      "extras": {
        "FBX-glTF-conv": {
          "skeleton": {
            "skeletonType": "LimbNode"
          }
        }
      },
      "name": "Bip001 Spine",
      "rotation": [
        -2.0397824300744105e-06,
        -6.629095423704712e-07,
        -0.05166509374976158,
        0.9986644387245178
      ],
      "translation": [
        0.09197326749563217,
        -0.059761181473731995,
        2.670288097306184e-07
      ]
    },
    {
      "children": [
        4,
        6,
        10
      ],
      "extras": {
        "FBX-glTF-conv": {
          "skeleton": {
            "skeletonType": "LimbNode"
          }
        }
      },
      "name": "Bip001 Spine1",
      "rotation": [
        0.012828931212425232,
        -0.035246334969997406,
        0.34254226088523865,
        0.9387533664703369
      ],
      "translation": [
        0.23071692883968353,
        -0.00017480850510764867,
        1.1920929132713809e-08
      ]
    },
    {
      "children": [
        5
      ],
      "extras": {
        "FBX-glTF-conv": {
          "skeleton": {
            "skeletonType": "LimbNode"
          }
        }
      },
      "name": "Bip001 Neck",
      "rotation": [
        0.14050254225730896,
        -0.17341704666614532,
        0.35047805309295654,
        0.9095882177352905
      ],
      "translation": [
        0.2972293198108673,
        -0.024589309468865395,
        -7.534027190558845e-06
      ]
    },
    {
      "extras": {
        "FBX-glTF-conv": {
          "skeleton": {
            "skeletonType": "LimbNode"
          }
        }
      },
      "name": "Bip001 Head",
      "rotation": [
        -0.0924294963479042,
        0.0303981713950634,
        -0.4508780539035797,
        0.8872664570808411
      ],
      "translation": [
        0.06866813451051712,
        0.013006133958697319,
        4.76837147544984e-09
      ]
    },
    {
      "children": [
        7
      ],
      "extras": {
        "FBX-glTF-conv": {
          "skeleton": {
            "skeletonType": "LimbNode"
          }
        }
      },
      "name": "Bip001 L Clavicle",
      "rotation": [
        0.6285332441329956,
        -0.0029380456544458866,
        0.7777749300003052,
        -0.0018626769306138158
      ],
      "translation": [
        0.23566536605358124,
        -0.026114845648407936,
        0.1099160760641098
      ]
    },
    {
      "children": [
        8
      ],
      "extras": {
        "FBX-glTF-conv": {
          "skeleton": {
            "skeletonType": "LimbNode"
          }
        }
      },
      "name": "Bip001 L UpperArm",
      "rotation": [
        -0.1533125638961792,
        0.35494232177734375,
        -0.1590310037136078,
        0.9084163904190063
      ],
      "translation": [
        0.1403508186340332,
        0.0,
        -1.4210854397564648e-16
      ]
    },
    {
      "children": [
        9
      ],
      "extras": {
        "FBX-glTF-conv": {
          "skeleton": {
            "skeletonType": "LimbNode"
          }
        }
      },
      "name": "Bip001 L Forearm",
      "rotation": [
        -6.285921498824809e-17,
        2.938612065653834e-17,
        -0.42349863052368164,
        0.9058967232704163
      ],
      "translation": [
        0.23130355775356293,
        1.907348590179936e-08,
        7.629394360719743e-08
      ]
    },
    {
      "extras": {
        "FBX-glTF-conv": {
          "skeleton": {
            "skeletonType": "LimbNode"
          }
        }
      },
      "name": "Bip001 L Hand",
      "rotation": [
        -0.29898354411125183,
        0.2651757299900055,
        -0.06459062546491623,
        0.914395272731781
      ],
      "translation": [
        0.2684466242790222,
        7.629394360719743e-08,
        -7.629394360719743e-08
      ]
    },
    {
      "children": [
        11
      ],
      "extras": {
        "FBX-glTF-conv": {
          "skeleton": {
            "skeletonType": "LimbNode"
          }
        }
      },
      "name": "Bip001 R Clavicle",
      "rotation": [
        -0.6234939694404602,
        0.09820739179849625,
        0.7716167569160461,
        -0.07885529845952988
      ],
      "translation": [
        0.23566536605358124,
        -0.02611423470079899,
        -0.10991623252630234
      ]
    },
    {
      "children": [
        12
      ],
      "extras": {
        "FBX-glTF-conv": {
          "skeleton": {
            "skeletonType": "LimbNode"
          }
        }
      },
      "name": "Bip001 R UpperArm",
      "rotation": [
        -0.017078757286071777,
        -0.2015654444694519,
        0.13149213790893555,
        0.9704583883285522
      ],
      "translation": [
        0.1403508335351944,
        3.814697180359872e-08,
        1.4210854397564648e-16
      ]
    },
    {
      "children": [
        13
      ],
      "extras": {
        "FBX-glTF-conv": {
          "skeleton": {
            "skeletonType": "LimbNode"
          }
        }
      },
      "name": "Bip001 R Forearm",
      "rotation": [
        1.8115607793852254e-17,
        1.7600825174519678e-17,
        -0.49819043278694153,
        0.8670676350593567
      ],
      "translation": [
        0.23130367696285248,
        7.629394360719743e-08,
        0.0
      ]
    },
    {
      "extras": {
        "FBX-glTF-conv": {
          "skeleton": {
            "skeletonType": "LimbNode"
          }
        }
      },
      "name": "Bip001 R Hand",
      "rotation": [
        0.9603000283241272,
        0.04300909489393234,
        0.1118372231721878,
        0.2519255578517914
      ],
      "translation": [
        0.26844677329063416,
        7.105427198782324e-17,
        0.0
      ]
    },
    {
      "children": [
        15
      ],
      "extras": {
        "FBX-glTF-conv": {
          "skeleton": {
            "skeletonType": "LimbNode"
          }
        }
      },
      "name": "Bip001 L Thigh",
      "rotation": [
        0.02063341997563839,
        0.9618269801139832,
        -0.22068163752555847,
        -0.1605076938867569
      ],
      "translation": [
        -1.5258788721439487e-07,
        2.288818308215923e-07,
        0.1323079615831375
      ]
    },
    {
      "children": [
        16
      ],
      "extras": {
        "FBX-glTF-conv": {
          "skeleton": {
            "skeletonType": "LimbNode"
          }
        }
      },
      "name": "Bip001 L Calf",
      "rotation": [
        1.8783008544923313e-17,
        -5.915283703907968e-17,
        -0.15554946660995483,
        0.9878280758857727
      ],
      "translation": [
        0.4025454819202423,
        -1.776356799695581e-17,
        7.105427198782324e-17
      ]
    },
    {
      "children": [
        17
      ],
      "extras": {
        "FBX-glTF-conv": {
          "skeleton": {
            "skeletonType": "LimbNode"
          }
        }
      },
      "name": "Bip001 L Foot",
      "rotation": [
        -0.01378890685737133,
        -0.21523916721343994,
        0.09295285493135452,
        0.9720296859741211
      ],
      "translation": [
        0.3981388211250305,
        -9.53674295089968e-09,
        0.0
      ]
    },
    {
      "extras": {
        "FBX-glTF-conv": {
          "skeleton": {
            "skeletonType": "LimbNode"
          }
        }
      },
      "name": "Bip001 L Toe0",
      "rotation": [
        -0.016001498326659203,
        0.0162191204726696,
        0.7116402387619019,
        0.7021744847297668
      ],
      "translation": [
        0.10792408138513565,
        0.13871049880981445,
        0.0
      ]
    },
    {
      "children": [
        19
      ],
      "extras": {
        "FBX-glTF-conv": {
          "skeleton": {
            "skeletonType": "LimbNode"
          }
        }
      },
      "name": "Bip001 R Thigh",
      "rotation": [
        0.03207140788435936,
        0.9913309812545776,
        0.024405958130955696,
        0.12505455315113068
      ],
      "translation": [
        1.5258788721439487e-07,
        -1.5258788721439487e-07,
        -0.13230791687965393
      ]
    },
    {
      "children": [
        20
      ],
      "extras": {
        "FBX-glTF-conv": {
          "skeleton": {
            "skeletonType": "LimbNode"
          }
        }
      },
      "name": "Bip001 R Calf",
      "rotation": [
        5.084599154280166e-17,
        -2.2274943229009794e-17,
        -0.40126970410346985,
        0.9159599542617798
      ],
      "translation": [
        0.40254542231559753,
        0.0,
        1.907348590179936e-08
      ]
    },
    {
      "children": [
        21
      ],
      "extras": {
        "FBX-glTF-conv": {
          "skeleton": {
            "skeletonType": "LimbNode"
          }
        }
      },
      "name": "Bip001 R Foot",
      "rotation": [
        0.013710109516978264,
        0.1158599704504013,
        0.28861764073371887,
        0.9503096342086792
      ],
      "translation": [
        0.3981386423110962,
        -1.907348590179936e-08,
        -3.552713599391162e-17
      ]
    },
    {
      "extras": {
        "FBX-glTF-conv": {
          "skeleton": {
            "skeletonType": "LimbNode"
          }
        }
      },
      "name": "Bip001 R Toe0",
      "rotation": [
        2.1670993533007277e-07,
        -5.112332814860565e-07,
        0.6954527497291565,
        0.7185718417167664
      ],
      "translation": [
        0.10792407393455505,
        0.13871051371097565,
        1.907348590179936e-08
      ]
    }
  ],
  "scenes": [
    {
      "nodes": [
        0
      ]
    }
  ]
}