{
  "accessors": [
    {
      "bufferView": 0,
      "componentType": 5126,
      "count": 1582,
      "max": [
        0.30212682485580444,
        0.11536814272403717,
        0.7371954917907715
      ],
      "min": [
        -0.2998230457305908,
        -0.07578658312559128,
        0.0032005514949560165
      ],
      "name": "big_dazhuang_01_Material0/POSITION",
      "type": "VEC3"
    },
    {
      "bufferView": 0,
      "byteOffset": 12,
      "componentType": 5126,
      "count": 1582,
      "name": "big_dazhuang_01_Material0/NORMAL",
      "type": "VEC3"
    },
    {
      "bufferView": 0,
      "byteOffset": 24,
      "componentType": 5126,
      "count": 1582,
      "name": "big_dazhuang_01_Material0/TEXCOORD_0",
      "type": "VEC2"
    },
    {
      "bufferView": 0,
      "byteOffset": 32,
      "componentType": 5123,
      "count": 1582,
      "name": "big_dazhuang_01_Material0/JOINTS_0",
      "type": "VEC4"
    },
    {
      "bufferView": 0,
      "byteOffset": 40,
      "componentType": 5126,
      "count": 1582,
      "name": "big_dazhuang_01_Material0/WEIGHTS_0",
      "type": "VEC4"
    },
    {
      "bufferView": 0,
      "byteOffset": 56,
      "componentType": 5123,
      "count": 1582,
      "name": "big_dazhuang_01_Material0/JOINTS_1",
      "type": "VEC4"
    },
    {
      "bufferView": 0,
      "byteOffset": 64,
      "componentType": 5126,
      "count": 1582,
      "name": "big_dazhuang_01_Material0/WEIGHTS_1",
      "type": "VEC4"
    },
    {
      "bufferView": 0,
      "byteOffset": 80,
      "componentType": 5123,
      "count": 1582,
      "name": "big_dazhuang_01_Material0/JOINTS_2",
      "type": "VEC4"
    },
    {
      "bufferView": 0,
      "byteOffset": 88,
      "componentType": 5126,
      "count": 1582,
      "name": "big_dazhuang_01_Material0/WEIGHTS_2",
      "type": "VEC4"
    },
    {
      "bufferView": 0,
      "byteOffset": 104,
      "componentType": 5123,
      "count": 1582,
      "name": "big_dazhuang_01_Material0/JOINTS_3",
      "type": "VEC4"
    },
    {
      "bufferView": 0,
      "byteOffset": 112,
      "componentType": 5126,
      "count": 1582,
      "name": "big_dazhuang_01_Material0/WEIGHTS_3",
      "type": "VEC4"
    },
    {
      "bufferView": 1,
      "componentType": 5123,
      "count": 4977,
      "name": "big_dazhuang_01_Material0/INDICES",
      "type": "SCALAR"
    },
    {
      "bufferView": 2,
      "componentType": 5126,
      "count": 544,
      "max": [
        0.3155643045902252,
        0.10330401360988617,
        0.8414906859397888
      ],
      "min": [
        -0.3133019804954529,
        -0.049534156918525696,
        0.42492207884788513
      ],
      "name": "big_dazhuang_01_Material0/POSITION",
      "type": "VEC3"
    },
    {
      "bufferView": 2,
      "byteOffset": 12,
      "componentType": 5126,
      "count": 544,
      "name": "big_dazhuang_01_Material0/NORMAL",
      "type": "VEC3"
    },
    {
      "bufferView": 2,
      "byteOffset": 24,
      "componentType": 5126,
      "count": 544,
      "name": "big_dazhuang_01_Material0/TEXCOORD_0",
      "type": "VEC2"
    },
    {
      "bufferView": 2,
      "byteOffset": 32,
      "componentType": 5123,
      "count": 544,
      "name": "big_dazhuang_01_Material0/JOINTS_0",
      "type": "VEC4"
    },
    {
      "bufferView": 2,
      "byteOffset": 40,
      "componentType": 5126,
      "count": 544,
      "name": "big_dazhuang_01_Material0/WEIGHTS_0",
      "type": "VEC4"
    },
    {
      "bufferView": 2,
      "byteOffset": 56,
      "componentType": 5123,
      "count": 544,
      "name": "big_dazhuang_01_Material0/JOINTS_1",
      "type": "VEC4"
    },
    {
      "bufferView": 2,
      "byteOffset": 64,
      "componentType": 5126,
      "count": 544,
      "name": "big_dazhuang_01_Material0/WEIGHTS_1",
      "type": "VEC4"
    },
    {
      "bufferView": 2,
      "byteOffset": 80,
      "componentType": 5123,
      "count": 544,
      "name": "big_dazhuang_01_Material0/JOINTS_2",
      "type": "VEC4"
    },
    {
      "bufferView": 2,
      "byteOffset": 88,
      "componentType": 5126,
      "count": 544,
      "name": "big_dazhuang_01_Material0/WEIGHTS_2",
      "type": "VEC4"
    },
    {
      "bufferView": 2,
      "byteOffset": 104,
      "componentType": 5123,
      "count": 544,
      "name": "big_dazhuang_01_Material0/JOINTS_3",
      "type": "VEC4"
    },
    {
      "bufferView": 2,
      "byteOffset": 112,
      "componentType": 5126,
      "count": 544,
      "name": "big_dazhuang_01_Material0/WEIGHTS_3",
      "type": "VEC4"
    },
    {
      "bufferView": 3,
      "componentType": 5123,
      "count": 2466,
      "name": "big_dazhuang_01_Material0/INDICES",
      "type": "SCALAR"
    },
    {
      "bufferView": 4,
      "componentType": 5126,
      "count": 21,
      "name": "/InverseBindMatrices",
      "type": "MAT4"
    }
  ],
  "asset": {
    "copyright": "Copyright (c) 2018-2020 Chukong Technologies Inc.",
    "generator": "FBX-glTF-conv",
    "version": "2.0"
  },
  "bufferViews": [
    {
      "buffer": 0,
      "byteLength": 202496,
      "byteStride": 128,
      "name": "big_dazhuang_01_Material0",
      "target": 34962
    },
    {
      "buffer": 0,
      "byteLength": 9954,
      "byteOffset": 202496,
      "target": 34963
    },
    {
      "buffer": 0,
      "byteLength": 69632,
      "byteOffset": 212450,
      "byteStride": 128,
      "name": "big_dazhuang_01_Material0",
      "target": 34962
    },
    {
      "buffer": 0,
      "byteLength": 4932,
      "byteOffset": 282082,
      "target": 34963
    },
    {
      "buffer": 0,
      "byteLength": 1344,
      "byteOffset": 287014
    }
  ],
  "buffers": [
    {
      "byteLength": 288358,
      "uri": "out.bin"
    }
  ],
  "extras": {
    "FBX-glTF-conv": {
      "animationFrameRate": 30.0,
      "fbxFileHeaderInfo": {
        "creationTimeStamp": {
          "day": 8,
          "hour": 18,
          "millisecond": 603,
          "minute": 35,
          "month": 6,
          "second": 10,
          "year": 2026
        },
        "creator": "FBX SDK/FBX Plugins version 2020.3.7",
        "sceneInfo": {
          "author": "",
          "comment": "",
          "keywords": "",
          "original": {
            "applicationName": "3ds Max",
            "applicationVendor": "Autodesk",
            "applicationVersion": "2026",
            "fileName": "E:\\试玩需求\\big_dazhuang_01\\big_dazhuang_01_skin_new.fbx"
          },
          "revision": "",
          "subject": "",
          "title": "",
          "url": "D:\\工程项目\\test_pro\\test_pro\\HYQ_Project\\assets\\GameRes\\FBX\\Hero_2\\big_dazhuang_3_D.fbx"
        }
      }
    }
  },
  "materials": [
    {
      "extras": {
        "FBX-glTF-conv": {
          "raw": {
            "properties": {
              "3dsMax": {
                "value": {
                  "ClassIDa": {
                    "value": 1030429932
                  },
                  "ClassIDb": {
                    "value": -559038463
                  },
                  "ORIGINAL_MTL": {
                    "value": "PHYSICAL_MTL"
                  },
                  "Parameters": {
                    "value": {
                      "aniso_angle_map_on": {
                        "value": true
                      },
                      "aniso_channel": {
                        "value": 0
                      },
                      "aniso_mode": {
                        "value": 0
                      },
                      "anisoangle": {
                        "value": 0.25
                      },
                      "anisotropy": {
                        "value": 0.0
                      },
                      "anisotropy_map_on": {
                        "value": true
                      },
                      "base_color": {
                        "value": [
                          0.5,
                          0.5,
                          0.5,
                          1.0
                        ]
                      },
                      "base_color_map_on": {
                        "value": true
                      },
                      "base_weight": {
                        "value": 1.0
                      },
                      "base_weight_map_on": {
                        "value": true
                      },
                      "brdf_curve": {
                        "value": 5.0
                      },
                      "brdf_high": {
                        "value": 1.0
                      },
                      "brdf_low": {
                        "value": 0.05000000074505806
                      },
                      "brdf_mode": {
                        "value": true
                      },
                      "coat_affect_color": {
                        "value": 0.5
                      },
                      "coat_affect_roughness": {
                        "value": 0.5
                      },
                      "coat_aniso_angle_map_on": {
                        "value": true
                      },
                      "coat_aniso_map_on": {
                        "value": true
                      },
                      "coat_anisoangle": {
                        "value": 0.25
                      },
                      "coat_anisotropy": {
                        "value": 0.0
                      },
                      "coat_color": {
                        "value": [
                          1.0,
                          1.0,
                          1.0,
                          1.0
                        ]
                      },
                      "coat_color_map_on": {
                        "value": true
                      },
                      "coat_ior": {
                        "value": 1.5199999809265137
                      },
                      "coat_map_on": {
                        "value": true
                      },
                      "coat_rough_map_on": {
                        "value": true
                      },
                      "coat_roughness": {
                        "value": 0.0
                      },
                      "coat_roughness_inv": {
                        "value": false
                      },
                      "coating": {
                        "value": 0.0
                      },
                      "cutout_map_on": {
                        "value": true
                      },
                      "diff_rough_map_on": {
                        "value": true
                      },
                      "diff_roughness": {
                        "value": 0.0
                      },
                      "dispersion": {
                        "value": 0.0
                      },
                      "displacement_map_amt": {
                        "value": 1.0
                      },
                      "displacement_map_on": {
                        "value": true
                      },
                      "emission": {
                        "value": 1.0
                      },
                      "emission_map_on": {
                        "value": true
                      },
                      "emit_color": {
                        "value": [
                          0.0,
                          0.0,
                          0.0,
                          1.0
                        ]
                      },
                      "emit_color_map_on": {
                        "value": true
                      },
                      "emit_kelvin": {
                        "value": 6500.0
                      },
                      "emit_luminance": {
                        "value": 1500.0
                      },
                      "material_mode": {
                        "value": 2
                      },
                      "metalness": {
                        "value": 0.0
                      },
                      "metalness_map_on": {
                        "value": true
                      },
                      "refl_color": {
                        "value": [
                          1.0,
                          1.0,
                          1.0,
                          1.0
                        ]
                      },
                      "refl_color_map_on": {
                        "value": true
                      },
                      "reflectivity": {
                        "value": 1.0
                      },
                      "reflectivity_map_on": {
                        "value": true
                      },
                      "roughness": {
                        "value": 0.0
                      },
                      "roughness_inv": {
                        "value": false
                      },
                      "roughness_map_on": {
                        "value": true
                      },
                      "scattering": {
                        "value": 0.0
                      },
                      "scattering_map_on": {
                        "value": true
                      },
                      "sheen": {
                        "value": 0.0
                      },
                      "sheen_color": {
                        "value": [
                          1.0,
                          1.0,
                          1.0,
                          1.0
                        ]
                      },
                      "sheen_color_map_on": {
                        "value": true
                      },
                      "sheen_map_on": {
                        "value": true
                      },
                      "sheen_rough_map_on": {
                        "value": true
                      },
                      "sheen_roughness": {
                        "value": 0.30000001192092896
                      },
                      "sss_color": {
                        "value": [
                          1.0,
                          1.0,
                          1.0,
                          1.0
                        ]
                      },
                      "sss_color_map_on": {
                        "value": true
                      },
                      "sss_depth": {
                        "value": 10.0
                      },
                      "sss_scale": {
                        "value": 1.0
                      },
                      "sss_scale_map_on": {
                        "value": true
                      },
                      "sss_scatter_color": {
                        "value": [
                          100.0,
                          50.0,
                          25.0,
                          1.0
                        ]
                      },
                      "thin_film": {
                        "value": 0.0
                      },
                      "thin_film_ior": {
                        "value": 1.2999999523162842
                      },
                      "thin_film_ior_map_on": {
                        "value": true
                      },
                      "thin_film_map_on": {
                        "value": true
                      },
                      "thin_film_thickness": {
                        "value": 0.0
                      },
                      "thin_walled": {
                        "value": false
                      },
                      "trans_color": {
                        "value": [
                          1.0,
                          1.0,
                          1.0,
                          1.0
                        ]
                      },
                      "trans_color_map_on": {
                        "value": true
                      },
                      "trans_depth": {
                        "value": 0.0
                      },
                      "trans_ior": {
                        "value": 1.5199999809265137
                      },
                      "trans_ior_map_on": {
                        "value": true
                      },
                      "trans_rough_map_on": {
                        "value": true
                      },
                      "trans_roughness": {
                        "value": 0.0
                      },
                      "trans_roughness_inv": {
                        "value": false
                      },
                      "trans_roughness_lock": {
                        "value": true
                      },
                      "trans_scatter_aniso": {
                        "value": 0.0
                      },
                      "trans_scatter_color": {
                        "value": [
                          0.0,
                          0.0,
                          0.0,
                          1.0
                        ]
                      },
                      "transparency": {
                        "value": 0.0
                      },
                      "transparency_map_on": {
                        "value": true
                      }
                    }
                  },
                  "SuperClassID": {
                    "value": 3072
                  }
                }
              },
              "AmbientColor": {
                "value": [
                  0.5,
                  0.5,
                  0.5
                ]
              },
              "DiffuseColor": {
                "value": [
                  0.5,
                  0.5,
                  0.5
                ]
              },
              "EmissiveColor": {
                "value": [
                  0.0,
                  0.0,
                  0.0
                ]
              },
              "EmissiveFactor": {
                "value": 0.0
              },
              "MultiLayer": {
                "value": false
              },
              "ShadingModel": {
                "value": "unknown"
              },
              "ShininessExponent": {
                "value": 1024.0
              },
              "SpecularColor": {
                "value": [
                  1.0,
                  1.0,
                  1.0
                ]
              },
              "SpecularFactor": {
                "value": 2.0
              },
              "TransparencyFactor": {
                "value": 0.0
              },
              "启用": {
                "value": false
              }
            }
          }
        }
      },
      "name": "Material #83"
    },
    {
      "extras": {
        "FBX-glTF-conv": {
          "raw": {
            "properties": {
              "3dsMax": {
                "value": {
                  "ClassIDa": {
                    "value": 1030429932
                  },
                  "ClassIDb": {
                    "value": -559038463
                  },
                  "ORIGINAL_MTL": {
                    "value": "PHYSICAL_MTL"
                  },
                  "Parameters": {
                    "value": {
                      "aniso_angle_map_on": {
                        "value": true
                      },
                      "aniso_channel": {
                        "value": 0
                      },
                      "aniso_mode": {
                        "value": 0
                      },
                      "anisoangle": {
                        "value": 0.25
                      },
                      "anisotropy": {
                        "value": 0.0
                      },
                      "anisotropy_map_on": {
                        "value": true
                      },
                      "base_color": {
                        "value": [
                          0.5,
                          0.5,
                          0.5,
                          1.0
                        ]
                      },
                      "base_color_map_on": {
                        "value": true
                      },
                      "base_weight": {
                        "value": 1.0
                      },
                      "base_weight_map_on": {
                        "value": true
                      },
                      "brdf_curve": {
                        "value": 5.0
                      },
                      "brdf_high": {
                        "value": 1.0
                      },
                      "brdf_low": {
                        "value": 0.05000000074505806
                      },
                      "brdf_mode": {
                        "value": true
                      },
                      "coat_affect_color": {
                        "value": 0.5
                      },
                      "coat_affect_roughness": {
                        "value": 0.5
                      },
                      "coat_aniso_angle_map_on": {
                        "value": true
                      },
                      "coat_aniso_map_on": {
                        "value": true
                      },
                      "coat_anisoangle": {
                        "value": 0.25
                      },
                      "coat_anisotropy": {
                        "value": 0.0
                      },
                      "coat_color": {
                        "value": [
                          1.0,
                          1.0,
                          1.0,
                          1.0
                        ]
                      },
                      "coat_color_map_on": {
                        "value": true
                      },
                      "coat_ior": {
                        "value": 1.5199999809265137
                      },
                      "coat_map_on": {
                        "value": true
                      },
                      "coat_rough_map_on": {
                        "value": true
                      },
                      "coat_roughness": {
                        "value": 0.0
                      },
                      "coat_roughness_inv": {
                        "value": false
                      },
                      "coating": {
                        "value": 0.0
                      },
                      "cutout_map_on": {
                        "value": true
                      },
                      "diff_rough_map_on": {
                        "value": true
                      },
                      "diff_roughness": {
                        "value": 0.0
                      },
                      "dispersion": {
                        "value": 0.0
                      },
                      "displacement_map_amt": {
                        "value": 1.0
                      },
                      "displacement_map_on": {
                        "value": true
                      },
                      "emission": {
                        "value": 1.0
                      },
                      "emission_map_on": {
                        "value": true
                      },
                      "emit_color": {
                        "value": [
                          0.0,
                          0.0,
                          0.0,
                          1.0
                        ]
                      },
                      "emit_color_map_on": {
                        "value": true
                      },
                      "emit_kelvin": {
                        "value": 6500.0
                      },
                      "emit_luminance": {
                        "value": 1500.0
                      },
                      "material_mode": {
                        "value": 2
                      },
                      "metalness": {
                        "value": 0.0
                      },
                      "metalness_map_on": {
                        "value": true
                      },
                      "refl_color": {
                        "value": [
                          1.0,
                          1.0,
                          1.0,
                          1.0
                        ]
                      },
                      "refl_color_map_on": {
                        "value": true
                      },
                      "reflectivity": {
                        "value": 1.0
                      },
                      "reflectivity_map_on": {
                        "value": true
                      },
                      "roughness": {
                        "value": 0.0
                      },
                      "roughness_inv": {
                        "value": false
                      },
                      "roughness_map_on": {
                        "value": true
                      },
                      "scattering": {
                        "value": 0.0
                      },
                      "scattering_map_on": {
                        "value": true
                      },
                      "sheen": {
                        "value": 0.0
                      },
                      "sheen_color": {
                        "value": [
                          1.0,
                          1.0,
                          1.0,
                          1.0
                        ]
                      },
                      "sheen_color_map_on": {
                        "value": true
                      },
                      "sheen_map_on": {
                        "value": true
                      },
                      "sheen_rough_map_on": {
                        "value": true
                      },
                      "sheen_roughness": {
                        "value": 0.30000001192092896
                      },
                      "sss_color": {
                        "value": [
                          1.0,
                          1.0,
                          1.0,
                          1.0
                        ]
                      },
                      "sss_color_map_on": {
                        "value": true
                      },
                      "sss_depth": {
                        "value": 10.0
                      },
                      "sss_scale": {
                        "value": 1.0
                      },
                      "sss_scale_map_on": {
                        "value": true
                      },
                      "sss_scatter_color": {
                        "value": [
                          100.0,
                          50.0,
                          25.0,
                          1.0
                        ]
                      },
                      "thin_film": {
                        "value": 0.0
                      },
                      "thin_film_ior": {
                        "value": 1.2999999523162842
                      },
                      "thin_film_ior_map_on": {
                        "value": true
                      },
                      "thin_film_map_on": {
                        "value": true
                      },
                      "thin_film_thickness": {
                        "value": 0.0
                      },
                      "thin_walled": {
                        "value": false
                      },
                      "trans_color": {
                        "value": [
                          1.0,
                          1.0,
                          1.0,
                          1.0
                        ]
                      },
                      "trans_color_map_on": {
                        "value": true
                      },
                      "trans_depth": {
                        "value": 0.0
                      },
                      "trans_ior": {
                        "value": 1.5199999809265137
                      },
                      "trans_ior_map_on": {
                        "value": true
                      },
                      "trans_rough_map_on": {
                        "value": true
                      },
                      "trans_roughness": {
                        "value": 0.0
                      },
                      "trans_roughness_inv": {
                        "value": false
                      },
                      "trans_roughness_lock": {
                        "value": true
                      },
                      "trans_scatter_aniso": {
                        "value": 0.0
                      },
                      "trans_scatter_color": {
                        "value": [
                          0.0,
                          0.0,
                          0.0,
                          1.0
                        ]
                      },
                      "transparency": {
                        "value": 0.0
                      },
                      "transparency_map_on": {
                        "value": true
                      }
                    }
                  },
                  "SuperClassID": {
                    "value": 3072
                  }
                }
              },
              "AmbientColor": {
                "value": [
                  0.5,
                  0.5,
                  0.5
                ]
              },
              "DiffuseColor": {
                "value": [
                  0.5,
                  0.5,
                  0.5
                ]
              },
              "EmissiveColor": {
                "value": [
                  0.0,
                  0.0,
                  0.0
                ]
              },
              "EmissiveFactor": {
                "value": 0.0
              },
              "MultiLayer": {
                "value": false
              },
              "ShadingModel": {
                "value": "unknown"
              },
              "ShininessExponent": {
                "value": 1024.0
              },
              "SpecularColor": {
                "value": [
                  1.0,
                  1.0,
                  1.0
                ]
              },
              "SpecularFactor": {
                "value": 2.0
              },
              "TransparencyFactor": {
                "value": 0.0
              },
              "启用": {
                "value": false
              }
            }
          }
        }
      },
      "name": "Material #82"
    }
  ],
  "meshes": [
    {
      "name": "big_dazhuang_01",
      "primitives": [
        {
          "attributes": {
            "JOINTS_0": 3,
            "JOINTS_1": 5,
            "JOINTS_2": 7,
            "JOINTS_3": 9,
            "NORMAL": 1,
            "POSITION": 0,
            "TEXCOORD_0": 2,
            "WEIGHTS_0": 4,
            "WEIGHTS_1": 6,
            "WEIGHTS_2": 8,
            "WEIGHTS_3": 10
          },
          "indices": 11,
          "material": 0
        },
        {
          "attributes": {
            "JOINTS_0": 15,
            "JOINTS_1": 17,
            "JOINTS_2": 19,
            "JOINTS_3": 21,
            "NORMAL": 13,
            "POSITION": 12,
            "TEXCOORD_0": 14,
            "WEIGHTS_0": 16,
            "WEIGHTS_1": 18,
            "WEIGHTS_2": 20,
            "WEIGHTS_3": 22
          },
          "indices": 23,
          "material": 1
        }
      ]
    }
  ],
  "nodes": [
    {
      "mesh": 0,
      "name": "big_dazhuang_01",
      "rotation": [
        -0.7071068286895752,
        0.0,
        0.0,
        0.7071067094802856
      ],
      "scale": [
        2.336544990539551,
        2.336544990539551,
        2.336544990539551
      ],
      "skin": 0,
      "translation": [
        0.0,
        0.0,
        -0.04674678295850754
      ]
    },
    {
      "children": [
        2,
        26
      ],
      "extras": {
        "FBX-glTF-conv": {
          "skeleton": {
            "skeletonType": "Root"
          }
        }
      },
      "name": "Bip001",
      "rotation": [
        -0.5000003576278687,
        -0.49999964237213135,
        -0.49999964237213135,
        0.5000003576278687
      ],
      "translation": [
        0.0,
        1.0465580224990845,
        -0.07836991548538208
      ]
    },
    {
      "children": [
        3
      ],
      "extras": {
        "FBX-glTF-conv": {
          "skeleton": {
            "skeletonType": "LimbNode"
          }
        }
      },
      "name": "Bip001 Pelvis",
      "rotation": [
        -0.5,
        -0.5,
        -0.4999993145465851,
        0.5000007152557373
      ]
    },
    {
      "children": [
        4,
        9,
        14
      ],
      "extras": {
        "FBX-glTF-conv": {
          "skeleton": {
            "skeletonType": "LimbNode"
          }
        }
      },
      "name": "Bip001 Spine",
      "rotation": [
        -2.0804759515158366e-06,
        -6.936759859854646e-07,
        0.0003981589979957789,
        0.9999999403953552
      ],
      "translation": [
        0.07221157848834991,
        0.02452269196510315,
        4.139599596442167e-08
      ]
    },
    {
      "children": [
        5
      ],
      "extras": {
        "FBX-glTF-conv": {
          "skeleton": {
            "skeletonType": "LimbNode"
          }
        }
      },
      "name": "Bip001 L Thigh",
      "rotation": [
        0.04675252363085747,
        0.9909860491752625,
        0.10528940707445145,
        -0.06837421655654907
      ],
      "translation": [
        -0.07223105430603027,
        -0.024465378373861313,
        0.08940529823303223
      ]
    },
    {
      "children": [
        6
      ],
      "extras": {
        "FBX-glTF-conv": {
          "skeleton": {
            "skeletonType": "LimbNode"
          }
        }
      },
      "name": "Bip001 L Calf",
      "rotation": [
        -2.8084363779096797e-18,
        -2.0626363996385485e-17,
        -0.13491278886795044,
        0.9908574819564819
      ],
      "translation": [
        0.40392664074897766,
        -6.055831835993786e-09,
        0.0
      ]
    },
    {
      "children": [
        7
      ],
      "extras": {
        "FBX-glTF-conv": {
          "skeleton": {
            "skeletonType": "LimbNode"
          }
        }
      },
      "name": "Bip001 L Foot",
      "rotation": [
        0.006559248082339764,
        -0.06272029876708984,
        0.08149044215679169,
        0.9946770668029785
      ],
      "translation": [
        0.5253466367721558,
        -1.2111663671987571e-08,
        0.0
      ]
    },
    {
      "children": [
        8
      ],
      "extras": {
        "FBX-glTF-conv": {
          "skeleton": {
            "skeletonType": "LimbNode"
          }
        }
      },
      "name": "Bip001 L Toe0",
      "rotation": [
        1.0185956078601066e-08,
        2.0722668025996427e-08,
        0.7071067690849304,
        0.7071067690849304
      ],
      "translation": [
        0.08683574199676514,
        0.10477733612060547,
        2.4223327343975143e-08
      ]
    },
    {
      "extras": {
        "FBX-glTF-conv": {
          "skeleton": {
            "skeletonType": "LimbNode"
          }
        }
      },
      "name": "Bip001 L Toe0Nub",
      "rotation": [
        7.4505792646561986e-09,
        -1.4512757377062546e-22,
        1.0,
        -1.8375892746737375e-15
      ],
      "scale": [
        -1.0,
        -1.0,
        -1.0
      ],
      "translation": [
        0.12583911418914795,
        0.0,
        -2.4223327343975143e-08
      ]
    },
    {
      "children": [
        10
      ],
      "extras": {
        "FBX-glTF-conv": {
          "skeleton": {
            "skeletonType": "LimbNode"
          }
        }
      },
      "name": "Bip001 R Thigh",
      "rotation": [
        0.046752721071243286,
        0.9909862875938416,
        -0.10528665035963058,
        0.06837418675422668
      ],
      "translation": [
        -0.07223105430603027,
        -0.024464882910251617,
        -0.08940538018941879
      ]
    },
    {
      "children": [
        11
      ],
      "extras": {
        "FBX-glTF-conv": {
          "skeleton": {
            "skeletonType": "LimbNode"
          }
        }
      },
      "name": "Bip001 R Calf",
      "rotation": [
        -1.3750909882377398e-17,
        1.8722908496747354e-18,
        -0.13491277396678925,
        0.9908574819564819
      ],
      "translation": [
        0.40392664074897766,
        -1.2111663671987571e-08,
        0.0
      ]
    },
    {
      "children": [
        12
      ],
      "extras": {
        "FBX-glTF-conv": {
          "skeleton": {
            "skeletonType": "LimbNode"
          }
        }
      },
      "name": "Bip001 R Foot",
      "rotation": [
        -0.0065592615865170956,
        0.062720388174057,
        0.0814904198050499,
        0.9946770668029785
      ],
      "translation": [
        0.5253466367721558,
        2.255973158774445e-17,
        -2.4223327343975143e-08
      ]
    },
    {
      "children": [
        13
      ],
      "extras": {
        "FBX-glTF-conv": {
          "skeleton": {
            "skeletonType": "LimbNode"
          }
        }
      },
      "name": "Bip001 R Toe0",
      "rotation": [
        -1.0185955190422646e-08,
        -2.0722666249639587e-08,
        0.7071067690849304,
        0.7071067690849304
      ],
      "translation": [
        0.08683574199676514,
        0.10477733612060547,
        4.51194631754889e-17
      ]
    },
    {
      "extras": {
        "FBX-glTF-conv": {
          "skeleton": {
            "skeletonType": "LimbNode"
          }
        }
      },
      "name": "Bip001 R Toe0Nub",
      "translation": [
        0.12583911418914795,
        0.0,
        0.0
      ]
    },
    {
      "children": [
        15
      ],
      "extras": {
        "FBX-glTF-conv": {
          "skeleton": {
            "skeletonType": "LimbNode"
          }
        }
      },
      "name": "Bip001 Spine1",
      "rotation": [
        -5.976288393197762e-14,
        1.3837635037816653e-07,
        -0.049890514463186264,
        0.9987546801567078
      ],
      "translation": [
        0.2827461063861847,
        -0.0002366497938055545,
        -6.563560805972202e-10
      ]
    },
    {
      "children": [
        16,
        20,
        24
      ],
      "extras": {
        "FBX-glTF-conv": {
          "skeleton": {
            "skeletonType": "LimbNode"
          }
        }
      },
      "name": "Bip001 Neck",
      "rotation": [
        -1.7700261878417223e-06,
        5.747714340031962e-07,
        0.11564712226390839,
        0.993290364742279
      ],
      "translation": [
        0.2843590974807739,
        -0.03362046554684639,
        -4.197698899588431e-08
      ]
    },
    {
      "children": [
        17
      ],
      "extras": {
        "FBX-glTF-conv": {
          "skeleton": {
            "skeletonType": "LimbNode"
          }
        }
      },
      "name": "Bip001 L Clavicle",
      "rotation": [
        0.7017064690589905,
        -0.08722183108329773,
        0.7029149532318115,
        0.0768827348947525
      ],
      "translation": [
        -0.12642668187618256,
        -0.018916673958301544,
        0.10685629397630692
      ]
    },
    {
      "children": [
        18
      ],
      "extras": {
        "FBX-glTF-conv": {
          "skeleton": {
            "skeletonType": "LimbNode"
          }
        }
      },
      "name": "Bip001 L UpperArm",
      "rotation": [
        -0.061534635722637177,
        0.37407180666923523,
        0.09354979544878006,
        0.9206151366233826
      ],
      "translation": [
        0.12755073606967926,
        -1.2111663671987571e-08,
        1.804778527019556e-16
      ]
    },
    {
      "children": [
        19
      ],
      "extras": {
        "FBX-glTF-conv": {
          "skeleton": {
            "skeletonType": "LimbNode"
          }
        }
      },
      "name": "Bip001 L Forearm",
      "rotation": [
        -4.11790923746415e-17,
        -5.45404647085942e-17,
        -0.22649851441383362,
        0.9740114808082581
      ],
      "translation": [
        0.266273558139801,
        2.4223327343975143e-08,
        1.804778527019556e-16
      ]
    },
    {
      "extras": {
        "FBX-glTF-conv": {
          "skeleton": {
            "skeletonType": "LimbNode"
          }
        }
      },
      "name": "Bip001 L Hand",
      "rotation": [
        -0.7304133772850037,
        0.038269415497779846,
        0.015705451369285583,
        0.6817514896392822
      ],
      "translation": [
        0.2864900827407837,
        -9.689330937590057e-08,
        0.0
      ]
    },
    {
      "children": [
        21
      ],
      "extras": {
        "FBX-glTF-conv": {
          "skeleton": {
            "skeletonType": "LimbNode"
          }
        }
      },
      "name": "Bip001 R Clavicle",
      "rotation": [
        -0.7017075419425964,
        0.08721738308668137,
        0.7029139399528503,
        0.07688719034194946
      ],
      "translation": [
        -0.12642620503902435,
        -0.018915366381406784,
        -0.10685721039772034
      ]
    },
    {
      "children": [
        22
      ],
      "extras": {
        "FBX-glTF-conv": {
          "skeleton": {
            "skeletonType": "LimbNode"
          }
        }
      },
      "name": "Bip001 R UpperArm",
      "rotation": [
        0.06153463199734688,
        -0.37407180666923523,
        0.09354979544878006,
        0.9206151366233826
      ],
      "translation": [
        0.12755073606967926,
        0.0,
        -1.804778527019556e-16
      ]
    },
    {
      "children": [
        23
      ],
      "extras": {
        "FBX-glTF-conv": {
          "skeleton": {
            "skeletonType": "LimbNode"
          }
        }
      },
      "name": "Bip001 R Forearm",
      "rotation": [
        -9.746108329257014e-18,
        8.063078678481096e-17,
        -0.2264985293149948,
        0.9740114808082581
      ],
      "translation": [
        0.2662736773490906,
        1.2111663671987571e-08,
        -9.689330937590057e-08
      ]
    },
    {
      "extras": {
        "FBX-glTF-conv": {
          "skeleton": {
            "skeletonType": "LimbNode"
          }
        }
      },
      "name": "Bip001 R Hand",
      "rotation": [
        0.7304133772850037,
        -0.03826943039894104,
        0.015705471858382225,
        0.6817514896392822
      ],
      "translation": [
        0.2864901125431061,
        -9.02389263509778e-17,
        0.0
      ]
    },
    {
      "children": [
        25
      ],
      "extras": {
        "FBX-glTF-conv": {
          "skeleton": {
            "skeletonType": "LimbNode"
          }
        }
      },
      "name": "Bip001 Head",
      "rotation": [
        1.683154550846666e-06,
        -9.758366559253773e-07,
        -0.026646804064512253,
        0.999644935131073
      ],
      "translation": [
        0.05849643051624298,
        -0.0032112381886690855,
        -1.1886429547303123e-06
      ]
    },
    {
      "extras": {
        "FBX-glTF-conv": {
          "skeleton": {
            "skeletonType": "LimbNode"
          }
        }
      },
      "name": "Bip001 HeadNub",
      "translation": [
        0.22270093858242035,
        -4.51194631754889e-17,
        6.884683712080216e-22
      ]
    },
    {
      "extras": {
        "FBX-glTF-conv": {
          "skeleton": {
            "skeletonType": "LimbNode"
          }
        }
      },
      "name": "Bip001 Prop1",
      "rotation": [
        -4.2146808709730976e-08,
        0.7071067690849304,
        4.2146808709730976e-08,
        0.7071067690849304
      ],
      "translation": [
        0.012667026370763779,
        -1.8429875373840332,
        0.0959966629743576
      ]
    }
  ],
  "scenes": [
    {
      "nodes": [
        0,
        1
      ]
    }
  ],
  "skins": [
    {
      "inverseBindMatrices": 24,
      "joints": [
        23,
        22,
        21,
        20,
        15,
        3,
        19,
        18,
        17,
        16,
        4,
        2,
        24,
        14,
        9,
        10,
        5,
        12,
        7,
        6,
        11
      ]
    }
  ]
}