{
  "accessors": [
    {
      "bufferView": 0,
      "componentType": 5126,
      "count": 31,
      "name": "Bip001/translation/Output",
      "type": "VEC3"
    },
    {
      "bufferView": 1,
      "componentType": 5126,
      "count": 31,
      "max": [
        1.0
      ],
      "min": [
        0.0
      ],
      "name": "Bip001/translation/Input",
      "type": "SCALAR"
    },
    {
      "bufferView": 2,
      "componentType": 5126,
      "count": 31,
      "name": "Bip001/rotation/Output",
      "type": "VEC4"
    },
    {
      "bufferView": 3,
      "componentType": 5126,
      "count": 31,
      "max": [
        1.0
      ],
      "min": [
        0.0
      ],
      "name": "Bip001/rotation/Input",
      "type": "SCALAR"
    },
    {
      "bufferView": 4,
      "componentType": 5126,
      "count": 1,
      "name": "Bip001/scale/Output",
      "type": "VEC3"
    },
    {
      "bufferView": 5,
      "componentType": 5126,
      "count": 1,
      "max": [
        1.0
      ],
      "min": [
        1.0
      ],
      "name": "Bip001/scale/Input",
      "type": "SCALAR"
    },
    {
      "bufferView": 6,
      "componentType": 5126,
      "count": 31,
      "name": "Bip001 Footsteps/translation/Output",
      "type": "VEC3"
    },
    {
      "bufferView": 7,
      "componentType": 5126,
      "count": 31,
      "max": [
        1.0
      ],
      "min": [
        0.0
      ],
      "name": "Bip001 Footsteps/translation/Input",
      "type": "SCALAR"
    },
    {
      "bufferView": 8,
      "componentType": 5126,
      "count": 31,
      "name": "Bip001 Footsteps/rotation/Output",
      "type": "VEC4"
    },
    {
      "bufferView": 9,
      "componentType": 5126,
      "count": 31,
      "max": [
        1.0
      ],
      "min": [
        0.0
      ],
      "name": "Bip001 Footsteps/rotation/Input",
      "type": "SCALAR"
    },
    {
      "bufferView": 10,
      "componentType": 5126,
      "count": 1,
      "name": "Bip001 Footsteps/scale/Output",
      "type": "VEC3"
    },
    {
      "bufferView": 11,
      "componentType": 5126,
      "count": 1,
      "max": [
        1.0
      ],
      "min": [
        1.0
      ],
      "name": "Bip001 Footsteps/scale/Input",
      "type": "SCALAR"
    },
    {
      "bufferView": 12,
      "componentType": 5126,
      "count": 1,
      "name": "Bip001 Pelvis/translation/Output",
      "type": "VEC3"
    },
    {
      "bufferView": 13,
      "componentType": 5126,
      "count": 1,
      "max": [
        1.0
      ],
      "min": [
        1.0
      ],
      "name": "Bip001 Pelvis/translation/Input",
      "type": "SCALAR"
    },
    {
      "bufferView": 14,
      "componentType": 5126,
      "count": 1,
      "name": "Bip001 Pelvis/rotation/Output",
      "type": "VEC4"
    },
    {
      "bufferView": 15,
      "componentType": 5126,
      "count": 1,
      "max": [
        1.0
      ],
      "min": [
        1.0
      ],
      "name": "Bip001 Pelvis/rotation/Input",
      "type": "SCALAR"
    },
    {
      "bufferView": 16,
      "componentType": 5126,
      "count": 1,
      "name": "Bip001 Pelvis/scale/Output",
      "type": "VEC3"
    },
    {
      "bufferView": 17,
      "componentType": 5126,
      "count": 1,
      "max": [
        1.0
      ],
      "min": [
        1.0
      ],
      "name": "Bip001 Pelvis/scale/Input",
      "type": "SCALAR"
    },
    {
      "bufferView": 18,
      "componentType": 5126,
      "count": 16,
      "name": "Bip001 Spine/translation/Output",
      "type": "VEC3"
    },
    {
      "bufferView": 19,
      "componentType": 5126,
      "count": 16,
      "max": [
        1.0
      ],
      "min": [
        0.0
      ],
      "name": "Bip001 Spine/translation/Input",
      "type": "SCALAR"
    },
    {
      "bufferView": 20,
      "componentType": 5126,
      "count": 29,
      "name": "Bip001 Spine/rotation/Output",
      "type": "VEC4"
    },
    {
      "bufferView": 21,
      "componentType": 5126,
      "count": 29,
      "max": [
        1.0
      ],
      "min": [
        0.0
      ],
      "name": "Bip001 Spine/rotation/Input",
      "type": "SCALAR"
    },
    {
      "bufferView": 22,
      "componentType": 5126,
      "count": 1,
      "name": "Bip001 Spine/scale/Output",
      "type": "VEC3"
    },
    {
      "bufferView": 23,
      "componentType": 5126,
      "count": 1,
      "max": [
        1.0
      ],
      "min": [
        1.0
      ],
      "name": "Bip001 Spine/scale/Input",
      "type": "SCALAR"
    },
    {
      "bufferView": 24,
      "componentType": 5126,
      "count": 31,
      "name": "Bip001 L Thigh/translation/Output",
      "type": "VEC3"
    },
    {
      "bufferView": 25,
      "componentType": 5126,
      "count": 31,
      "max": [
        1.0
      ],
      "min": [
        0.0
      ],
      "name": "Bip001 L Thigh/translation/Input",
      "type": "SCALAR"
    },
    {
      "bufferView": 26,
      "componentType": 5126,
      "count": 31,
      "name": "Bip001 L Thigh/rotation/Output",
      "type": "VEC4"
    },
    {
      "bufferView": 27,
      "componentType": 5126,
      "count": 31,
      "max": [
        1.0
      ],
      "min": [
        0.0
      ],
      "name": "Bip001 L Thigh/rotation/Input",
      "type": "SCALAR"
    },
    {
      "bufferView": 28,
      "componentType": 5126,
      "count": 1,
      "name": "Bip001 L Thigh/scale/Output",
      "type": "VEC3"
    },
    {
      "bufferView": 29,
      "componentType": 5126,
      "count": 1,
      "max": [
        1.0
      ],
      "min": [
        1.0
      ],
      "name": "Bip001 L Thigh/scale/Input",
      "type": "SCALAR"
    },
    {
      "bufferView": 30,
      "componentType": 5126,
      "count": 1,
      "name": "Bip001 L Calf/translation/Output",
      "type": "VEC3"
    },
    {
      "bufferView": 31,
      "componentType": 5126,
      "count": 1,
      "max": [
        1.0
      ],
      "min": [
        1.0
      ],
      "name": "Bip001 L Calf/translation/Input",
      "type": "SCALAR"
    },
    {
      "bufferView": 32,
      "componentType": 5126,
      "count": 26,
      "name": "Bip001 L Calf/rotation/Output",
      "type": "VEC4"
    },
    {
      "bufferView": 33,
      "componentType": 5126,
      "count": 26,
      "max": [
        1.0
      ],
      "min": [
        0.0
      ],
      "name": "Bip001 L Calf/rotation/Input",
      "type": "SCALAR"
    },
    {
      "bufferView": 34,
      "componentType": 5126,
      "count": 1,
      "name": "Bip001 L Calf/scale/Output",
      "type": "VEC3"
    },
    {
      "bufferView": 35,
      "componentType": 5126,
      "count": 1,
      "max": [
        1.0
      ],
      "min": [
        1.0
      ],
      "name": "Bip001 L Calf/scale/Input",
      "type": "SCALAR"
    },
    {
      "bufferView": 36,
      "componentType": 5126,
      "count": 1,
      "name": "Bip001 L Foot/translation/Output",
      "type": "VEC3"
    },
    {
      "bufferView": 37,
      "componentType": 5126,
      "count": 1,
      "max": [
        1.0
      ],
      "min": [
        1.0
      ],
      "name": "Bip001 L Foot/translation/Input",
      "type": "SCALAR"
    },
    {
      "bufferView": 38,
      "componentType": 5126,
      "count": 31,
      "name": "Bip001 L Foot/rotation/Output",
      "type": "VEC4"
    },
    {
      "bufferView": 39,
      "componentType": 5126,
      "count": 31,
      "max": [
        1.0
      ],
      "min": [
        0.0
      ],
      "name": "Bip001 L Foot/rotation/Input",
      "type": "SCALAR"
    },
    {
      "bufferView": 40,
      "componentType": 5126,
      "count": 1,
      "name": "Bip001 L Foot/scale/Output",
      "type": "VEC3"
    },
    {
      "bufferView": 41,
      "componentType": 5126,
      "count": 1,
      "max": [
        1.0
      ],
      "min": [
        1.0
      ],
      "name": "Bip001 L Foot/scale/Input",
      "type": "SCALAR"
    },
    {
      "bufferView": 42,
      "componentType": 5126,
      "count": 1,
      "name": "Bip001 L Toe0/translation/Output",
      "type": "VEC3"
    },
    {
      "bufferView": 43,
      "componentType": 5126,
      "count": 1,
      "max": [
        1.0
      ],
      "min": [
        1.0
      ],
      "name": "Bip001 L Toe0/translation/Input",
      "type": "SCALAR"
    },
    {
      "bufferView": 44,
      "componentType": 5126,
      "count": 14,
      "name": "Bip001 L Toe0/rotation/Output",
      "type": "VEC4"
    },
    {
      "bufferView": 45,
      "componentType": 5126,
      "count": 14,
      "max": [
        0.9666666388511658
      ],
      "min": [
        0.23333333432674408
      ],
      "name": "Bip001 L Toe0/rotation/Input",
      "type": "SCALAR"
    },
    {
      "bufferView": 46,
      "componentType": 5126,
      "count": 1,
      "name": "Bip001 L Toe0/scale/Output",
      "type": "VEC3"
    },
    {
      "bufferView": 47,
      "componentType": 5126,
      "count": 1,
      "max": [
        1.0
      ],
      "min": [
        1.0
      ],
      "name": "Bip001 L Toe0/scale/Input",
      "type": "SCALAR"
    },
    {
      "bufferView": 48,
      "componentType": 5126,
      "count": 31,
      "name": "Bip001 R Thigh/translation/Output",
      "type": "VEC3"
    },
    {
      "bufferView": 49,
      "componentType": 5126,
      "count": 31,
      "max": [
        1.0
      ],
      "min": [
        0.0
      ],
      "name": "Bip001 R Thigh/translation/Input",
      "type": "SCALAR"
    },
    {
      "bufferView": 50,
      "componentType": 5126,
      "count": 31,
      "name": "Bip001 R Thigh/rotation/Output",
      "type": "VEC4"
    },
    {
      "bufferView": 51,
      "componentType": 5126,
      "count": 31,
      "max": [
        1.0
      ],
      "min": [
        0.0
      ],
      "name": "Bip001 R Thigh/rotation/Input",
      "type": "SCALAR"
    },
    {
      "bufferView": 52,
      "componentType": 5126,
      "count": 1,
      "name": "Bip001 R Thigh/scale/Output",
      "type": "VEC3"
    },
    {
      "bufferView": 53,
      "componentType": 5126,
      "count": 1,
      "max": [
        1.0
      ],
      "min": [
        1.0
      ],
      "name": "Bip001 R Thigh/scale/Input",
      "type": "SCALAR"
    },
    {
      "bufferView": 54,
      "componentType": 5126,
      "count": 1,
      "name": "Bip001 R Calf/translation/Output",
      "type": "VEC3"
    },
    {
      "bufferView": 55,
      "componentType": 5126,
      "count": 1,
      "max": [
        1.0
      ],
      "min": [
        1.0
      ],
      "name": "Bip001 R Calf/translation/Input",
      "type": "SCALAR"
    },
    {
      "bufferView": 56,
      "componentType": 5126,
      "count": 28,
      "name": "Bip001 R Calf/rotation/Output",
      "type": "VEC4"
    },
    {
      "bufferView": 57,
      "componentType": 5126,
      "count": 28,
      "max": [
        1.0
      ],
      "min": [
        0.0
      ],
      "name": "Bip001 R Calf/rotation/Input",
      "type": "SCALAR"
    },
    {
      "bufferView": 58,
      "componentType": 5126,
      "count": 1,
      "name": "Bip001 R Calf/scale/Output",
      "type": "VEC3"
    },
    {
      "bufferView": 59,
      "componentType": 5126,
      "count": 1,
      "max": [
        1.0
      ],
      "min": [
        1.0
      ],
      "name": "Bip001 R Calf/scale/Input",
      "type": "SCALAR"
    },
    {
      "bufferView": 60,
      "componentType": 5126,
      "count": 1,
      "name": "Bip001 R Foot/translation/Output",
      "type": "VEC3"
    },
    {
      "bufferView": 61,
      "componentType": 5126,
      "count": 1,
      "max": [
        1.0
      ],
      "min": [
        1.0
      ],
      "name": "Bip001 R Foot/translation/Input",
      "type": "SCALAR"
    },
    {
      "bufferView": 62,
      "componentType": 5126,
      "count": 30,
      "name": "Bip001 R Foot/rotation/Output",
      "type": "VEC4"
    },
    {
      "bufferView": 63,
      "componentType": 5126,
      "count": 30,
      "max": [
        1.0
      ],
      "min": [
        0.0
      ],
      "name": "Bip001 R Foot/rotation/Input",
      "type": "SCALAR"
    },
    {
      "bufferView": 64,
      "componentType": 5126,
      "count": 1,
      "name": "Bip001 R Foot/scale/Output",
      "type": "VEC3"
    },
    {
      "bufferView": 65,
      "componentType": 5126,
      "count": 1,
      "max": [
        1.0
      ],
      "min": [
        1.0
      ],
      "name": "Bip001 R Foot/scale/Input",
      "type": "SCALAR"
    },
    {
      "bufferView": 66,
      "componentType": 5126,
      "count": 1,
      "name": "Bip001 R Toe0/translation/Output",
      "type": "VEC3"
    },
    {
      "bufferView": 67,
      "componentType": 5126,
      "count": 1,
      "max": [
        1.0
      ],
      "min": [
        1.0
      ],
      "name": "Bip001 R Toe0/translation/Input",
      "type": "SCALAR"
    },
    {
      "bufferView": 68,
      "componentType": 5126,
      "count": 29,
      "name": "Bip001 R Toe0/rotation/Output",
      "type": "VEC4"
    },
    {
      "bufferView": 69,
      "componentType": 5126,
      "count": 29,
      "max": [
        1.0
      ],
      "min": [
        0.0
      ],
      "name": "Bip001 R Toe0/rotation/Input",
      "type": "SCALAR"
    },
    {
      "bufferView": 70,
      "componentType": 5126,
      "count": 1,
      "name": "Bip001 R Toe0/scale/Output",
      "type": "VEC3"
    },
    {
      "bufferView": 71,
      "componentType": 5126,
      "count": 1,
      "max": [
        1.0
      ],
      "min": [
        1.0
      ],
      "name": "Bip001 R Toe0/scale/Input",
      "type": "SCALAR"
    },
    {
      "bufferView": 72,
      "componentType": 5126,
      "count": 19,
      "name": "Bip001 Spine1/translation/Output",
      "type": "VEC3"
    },
    {
      "bufferView": 73,
      "componentType": 5126,
      "count": 19,
      "max": [
        1.0
      ],
      "min": [
        0.0
      ],
      "name": "Bip001 Spine1/translation/Input",
      "type": "SCALAR"
    },
    {
      "bufferView": 74,
      "componentType": 5126,
      "count": 29,
      "name": "Bip001 Spine1/rotation/Output",
      "type": "VEC4"
    },
    {
      "bufferView": 75,
      "componentType": 5126,
      "count": 29,
      "max": [
        1.0
      ],
      "min": [
        0.0
      ],
      "name": "Bip001 Spine1/rotation/Input",
      "type": "SCALAR"
    },
    {
      "bufferView": 76,
      "componentType": 5126,
      "count": 1,
      "name": "Bip001 Spine1/scale/Output",
      "type": "VEC3"
    },
    {
      "bufferView": 77,
      "componentType": 5126,
      "count": 1,
      "max": [
        1.0
      ],
      "min": [
        1.0
      ],
      "name": "Bip001 Spine1/scale/Input",
      "type": "SCALAR"
    },
    {
      "bufferView": 78,
      "componentType": 5126,
      "count": 1,
      "name": "Bip001 Neck/translation/Output",
      "type": "VEC3"
    },
    {
      "bufferView": 79,
      "componentType": 5126,
      "count": 1,
      "max": [
        1.0
      ],
      "min": [
        1.0
      ],
      "name": "Bip001 Neck/translation/Input",
      "type": "SCALAR"
    },
    {
      "bufferView": 80,
      "componentType": 5126,
      "count": 1,
      "name": "Bip001 Neck/rotation/Output",
      "type": "VEC4"
    },
    {
      "bufferView": 81,
      "componentType": 5126,
      "count": 1,
      "max": [
        1.0
      ],
      "min": [
        1.0
      ],
      "name": "Bip001 Neck/rotation/Input",
      "type": "SCALAR"
    },
    {
      "bufferView": 82,
      "componentType": 5126,
      "count": 1,
      "name": "Bip001 Neck/scale/Output",
      "type": "VEC3"
    },
    {
      "bufferView": 83,
      "componentType": 5126,
      "count": 1,
      "max": [
        1.0
      ],
      "min": [
        1.0
      ],
      "name": "Bip001 Neck/scale/Input",
      "type": "SCALAR"
    },
    {
      "bufferView": 84,
      "componentType": 5126,
      "count": 1,
      "name": "Bip001 L Clavicle/translation/Output",
      "type": "VEC3"
    },
    {
      "bufferView": 85,
      "componentType": 5126,
      "count": 1,
      "max": [
        1.0
      ],
      "min": [
        1.0
      ],
      "name": "Bip001 L Clavicle/translation/Input",
      "type": "SCALAR"
    },
    {
      "bufferView": 86,
      "componentType": 5126,
      "count": 1,
      "name": "Bip001 L Clavicle/rotation/Output",
      "type": "VEC4"
    },
    {
      "bufferView": 87,
      "componentType": 5126,
      "count": 1,
      "max": [
        1.0
      ],
      "min": [
        1.0
      ],
      "name": "Bip001 L Clavicle/rotation/Input",
      "type": "SCALAR"
    },
    {
      "bufferView": 88,
      "componentType": 5126,
      "count": 1,
      "name": "Bip001 L Clavicle/scale/Output",
      "type": "VEC3"
    },
    {
      "bufferView": 89,
      "componentType": 5126,
      "count": 1,
      "max": [
        1.0
      ],
      "min": [
        1.0
      ],
      "name": "Bip001 L Clavicle/scale/Input",
      "type": "SCALAR"
    },
    {
      "bufferView": 90,
      "componentType": 5126,
      "count": 1,
      "name": "Bip001 L UpperArm/translation/Output",
      "type": "VEC3"
    },
    {
      "bufferView": 91,
      "componentType": 5126,
      "count": 1,
      "max": [
        1.0
      ],
      "min": [
        1.0
      ],
      "name": "Bip001 L UpperArm/translation/Input",
      "type": "SCALAR"
    },
    {
      "bufferView": 92,
      "componentType": 5126,
      "count": 31,
      "name": "Bip001 L UpperArm/rotation/Output",
      "type": "VEC4"
    },
    {
      "bufferView": 93,
      "componentType": 5126,
      "count": 31,
      "max": [
        1.0
      ],
      "min": [
        0.0
      ],
      "name": "Bip001 L UpperArm/rotation/Input",
      "type": "SCALAR"
    },
    {
      "bufferView": 94,
      "componentType": 5126,
      "count": 1,
      "name": "Bip001 L UpperArm/scale/Output",
      "type": "VEC3"
    },
    {
      "bufferView": 95,
      "componentType": 5126,
      "count": 1,
      "max": [
        1.0
      ],
      "min": [
        1.0
      ],
      "name": "Bip001 L UpperArm/scale/Input",
      "type": "SCALAR"
    },
    {
      "bufferView": 96,
      "componentType": 5126,
      "count": 1,
      "name": "Bip001 L Forearm/translation/Output",
      "type": "VEC3"
    },
    {
      "bufferView": 97,
      "componentType": 5126,
      "count": 1,
      "max": [
        1.0
      ],
      "min": [
        1.0
      ],
      "name": "Bip001 L Forearm/translation/Input",
      "type": "SCALAR"
    },
    {
      "bufferView": 98,
      "componentType": 5126,
      "count": 29,
      "name": "Bip001 L Forearm/rotation/Output",
      "type": "VEC4"
    },
    {
      "bufferView": 99,
      "componentType": 5126,
      "count": 29,
      "max": [
        1.0
      ],
      "min": [
        0.0
      ],
      "name": "Bip001 L Forearm/rotation/Input",
      "type": "SCALAR"
    },
    {
      "bufferView": 100,
      "componentType": 5126,
      "count": 1,
      "name": "Bip001 L Forearm/scale/Output",
      "type": "VEC3"
    },
    {
      "bufferView": 101,
      "componentType": 5126,
      "count": 1,
      "max": [
        1.0
      ],
      "min": [
        1.0
      ],
      "name": "Bip001 L Forearm/scale/Input",
      "type": "SCALAR"
    },
    {
      "bufferView": 102,
      "componentType": 5126,
      "count": 1,
      "name": "Bip001 L Hand/translation/Output",
      "type": "VEC3"
    },
    {
      "bufferView": 103,
      "componentType": 5126,
      "count": 1,
      "max": [
        0.0
      ],
      "min": [
        0.0
      ],
      "name": "Bip001 L Hand/translation/Input",
      "type": "SCALAR"
    },
    {
      "bufferView": 104,
      "componentType": 5126,
      "count": 1,
      "name": "Bip001 L Hand/rotation/Output",
      "type": "VEC4"
    },
    {
      "bufferView": 105,
      "componentType": 5126,
      "count": 1,
      "max": [
        1.0
      ],
      "min": [
        1.0
      ],
      "name": "Bip001 L Hand/rotation/Input",
      "type": "SCALAR"
    },
    {
      "bufferView": 106,
      "componentType": 5126,
      "count": 1,
      "name": "Bip001 L Hand/scale/Output",
      "type": "VEC3"
    },
    {
      "bufferView": 107,
      "componentType": 5126,
      "count": 1,
      "max": [
        1.0
      ],
      "min": [
        1.0
      ],
      "name": "Bip001 L Hand/scale/Input",
      "type": "SCALAR"
    },
    {
      "bufferView": 108,
      "componentType": 5126,
      "count": 1,
      "name": "Bip001 R Clavicle/translation/Output",
      "type": "VEC3"
    },
    {
      "bufferView": 109,
      "componentType": 5126,
      "count": 1,
      "max": [
        1.0
      ],
      "min": [
        1.0
      ],
      "name": "Bip001 R Clavicle/translation/Input",
      "type": "SCALAR"
    },
    {
      "bufferView": 110,
      "componentType": 5126,
      "count": 1,
      "name": "Bip001 R Clavicle/rotation/Output",
      "type": "VEC4"
    },
    {
      "bufferView": 111,
      "componentType": 5126,
      "count": 1,
      "max": [
        1.0
      ],
      "min": [
        1.0
      ],
      "name": "Bip001 R Clavicle/rotation/Input",
      "type": "SCALAR"
    },
    {
      "bufferView": 112,
      "componentType": 5126,
      "count": 1,
      "name": "Bip001 R Clavicle/scale/Output",
      "type": "VEC3"
    },
    {
      "bufferView": 113,
      "componentType": 5126,
      "count": 1,
      "max": [
        1.0
      ],
      "min": [
        1.0
      ],
      "name": "Bip001 R Clavicle/scale/Input",
      "type": "SCALAR"
    },
    {
      "bufferView": 114,
      "componentType": 5126,
      "count": 1,
      "name": "Bip001 R UpperArm/translation/Output",
      "type": "VEC3"
    },
    {
      "bufferView": 115,
      "componentType": 5126,
      "count": 1,
      "max": [
        1.0
      ],
      "min": [
        1.0
      ],
      "name": "Bip001 R UpperArm/translation/Input",
      "type": "SCALAR"
    },
    {
      "bufferView": 116,
      "componentType": 5126,
      "count": 31,
      "name": "Bip001 R UpperArm/rotation/Output",
      "type": "VEC4"
    },
    {
      "bufferView": 117,
      "componentType": 5126,
      "count": 31,
      "max": [
        1.0
      ],
      "min": [
        0.0
      ],
      "name": "Bip001 R UpperArm/rotation/Input",
      "type": "SCALAR"
    },
    {
      "bufferView": 118,
      "componentType": 5126,
      "count": 1,
      "name": "Bip001 R UpperArm/scale/Output",
      "type": "VEC3"
    },
    {
      "bufferView": 119,
      "componentType": 5126,
      "count": 1,
      "max": [
        1.0
      ],
      "min": [
        1.0
      ],
      "name": "Bip001 R UpperArm/scale/Input",
      "type": "SCALAR"
    },
    {
      "bufferView": 120,
      "componentType": 5126,
      "count": 1,
      "name": "Bip001 R Forearm/translation/Output",
      "type": "VEC3"
    },
    {
      "bufferView": 121,
      "componentType": 5126,
      "count": 1,
      "max": [
        1.0
      ],
      "min": [
        1.0
      ],
      "name": "Bip001 R Forearm/translation/Input",
      "type": "SCALAR"
    },
    {
      "bufferView": 122,
      "componentType": 5126,
      "count": 29,
      "name": "Bip001 R Forearm/rotation/Output",
      "type": "VEC4"
    },
    {
      "bufferView": 123,
      "componentType": 5126,
      "count": 29,
      "max": [
        1.0
      ],
      "min": [
        0.0
      ],
      "name": "Bip001 R Forearm/rotation/Input",
      "type": "SCALAR"
    },
    {
      "bufferView": 124,
      "componentType": 5126,
      "count": 1,
      "name": "Bip001 R Forearm/scale/Output",
      "type": "VEC3"
    },
    {
      "bufferView": 125,
      "componentType": 5126,
      "count": 1,
      "max": [
        1.0
      ],
      "min": [
        1.0
      ],
      "name": "Bip001 R Forearm/scale/Input",
      "type": "SCALAR"
    },
    {
      "bufferView": 126,
      "componentType": 5126,
      "count": 2,
      "name": "Bip001 R Hand/translation/Output",
      "type": "VEC3"
    },
    {
      "bufferView": 127,
      "componentType": 5126,
      "count": 2,
      "max": [
        0.699999988079071
      ],
      "min": [
        0.3333333432674408
      ],
      "name": "Bip001 R Hand/translation/Input",
      "type": "SCALAR"
    },
    {
      "bufferView": 128,
      "componentType": 5126,
      "count": 29,
      "name": "Bip001 R Hand/rotation/Output",
      "type": "VEC4"
    },
    {
      "bufferView": 129,
      "componentType": 5126,
      "count": 29,
      "max": [
        1.0
      ],
      "min": [
        0.0
      ],
      "name": "Bip001 R Hand/rotation/Input",
      "type": "SCALAR"
    },
    {
      "bufferView": 130,
      "componentType": 5126,
      "count": 1,
      "name": "Bip001 R Hand/scale/Output",
      "type": "VEC3"
    },
    {
      "bufferView": 131,
      "componentType": 5126,
      "count": 1,
      "max": [
        1.0
      ],
      "min": [
        1.0
      ],
      "name": "Bip001 R Hand/scale/Input",
      "type": "SCALAR"
    },
    {
      "bufferView": 132,
      "componentType": 5126,
      "count": 1,
      "name": "Bip001 Head/translation/Output",
      "type": "VEC3"
    },
    {
      "bufferView": 133,
      "componentType": 5126,
      "count": 1,
      "max": [
        1.0
      ],
      "min": [
        1.0
      ],
      "name": "Bip001 Head/translation/Input",
      "type": "SCALAR"
    },
    {
      "bufferView": 134,
      "componentType": 5126,
      "count": 29,
      "name": "Bip001 Head/rotation/Output",
      "type": "VEC4"
    },
    {
      "bufferView": 135,
      "componentType": 5126,
      "count": 29,
      "max": [
        1.0
      ],
      "min": [
        0.0
      ],
      "name": "Bip001 Head/rotation/Input",
      "type": "SCALAR"
    },
    {
      "bufferView": 136,
      "componentType": 5126,
      "count": 1,
      "name": "Bip001 Head/scale/Output",
      "type": "VEC3"
    },
    {
      "bufferView": 137,
      "componentType": 5126,
      "count": 1,
      "max": [
        1.0
      ],
      "min": [
        1.0
      ],
      "name": "Bip001 Head/scale/Input",
      "type": "SCALAR"
    },
    {
      "bufferView": 138,
      "componentType": 5126,
      "count": 31,
      "name": "Bip001 Prop1/translation/Output",
      "type": "VEC3"
    },
    {
      "bufferView": 139,
      "componentType": 5126,
      "count": 31,
      "max": [
        1.0
      ],
      "min": [
        0.0
      ],
      "name": "Bip001 Prop1/translation/Input",
      "type": "SCALAR"
    },
    {
      "bufferView": 140,
      "componentType": 5126,
      "count": 30,
      "name": "Bip001 Prop1/rotation/Output",
      "type": "VEC4"
    },
    {
      "bufferView": 141,
      "componentType": 5126,
      "count": 30,
      "max": [
        1.0
      ],
      "min": [
        0.0
      ],
      "name": "Bip001 Prop1/rotation/Input",
      "type": "SCALAR"
    },
    {
      "bufferView": 142,
      "componentType": 5126,
      "count": 1,
      "name": "Bip001 Prop1/scale/Output",
      "type": "VEC3"
    },
    {
      "bufferView": 143,
      "componentType": 5126,
      "count": 1,
      "max": [
        1.0
      ],
      "min": [
        1.0
      ],
      "name": "Bip001 Prop1/scale/Input",
      "type": "SCALAR"
    }
  ],
  "animations": [
    {
      "channels": [
        {
          "sampler": 0,
          "target": {
            "node": 0,
            "path": "translation"
          }
        },
        {
          "sampler": 1,
          "target": {
            "node": 0,
            "path": "rotation"
          }
        },
        {
          "sampler": 2,
          "target": {
            "node": 0,
            "path": "scale"
          }
        },
        {
          "sampler": 3,
          "target": {
            "node": 1,
            "path": "translation"
          }
        },
        {
          "sampler": 4,
          "target": {
            "node": 1,
            "path": "rotation"
          }
        },
        {
          "sampler": 5,
          "target": {
            "node": 1,
            "path": "scale"
          }
        },
        {
          "sampler": 6,
          "target": {
            "node": 2,
            "path": "translation"
          }
        },
        {
          "sampler": 7,
          "target": {
            "node": 2,
            "path": "rotation"
          }
        },
        {
          "sampler": 8,
          "target": {
            "node": 2,
            "path": "scale"
          }
        },
        {
          "sampler": 9,
          "target": {
            "node": 3,
            "path": "translation"
          }
        },
        {
          "sampler": 10,
          "target": {
            "node": 3,
            "path": "rotation"
          }
        },
        {
          "sampler": 11,
          "target": {
            "node": 3,
            "path": "scale"
          }
        },
        {
          "sampler": 12,
          "target": {
            "node": 4,
            "path": "translation"
          }
        },
        {
          "sampler": 13,
          "target": {
            "node": 4,
            "path": "rotation"
          }
        },
        {
          "sampler": 14,
          "target": {
            "node": 4,
            "path": "scale"
          }
        },
        {
          "sampler": 15,
          "target": {
            "node": 5,
            "path": "translation"
          }
        },
        {
          "sampler": 16,
          "target": {
            "node": 5,
            "path": "rotation"
          }
        },
        {
          "sampler": 17,
          "target": {
            "node": 5,
            "path": "scale"
          }
        },
        {
          "sampler": 18,
          "target": {
            "node": 6,
            "path": "translation"
          }
        },
        {
          "sampler": 19,
          "target": {
            "node": 6,
            "path": "rotation"
          }
        },
        {
          "sampler": 20,
          "target": {
            "node": 6,
            "path": "scale"
          }
        },
        {
          "sampler": 21,
          "target": {
            "node": 7,
            "path": "translation"
          }
        },
        {
          "sampler": 22,
          "target": {
            "node": 7,
            "path": "rotation"
          }
        },
        {
          "sampler": 23,
          "target": {
            "node": 7,
            "path": "scale"
          }
        },
        {
          "sampler": 24,
          "target": {
            "node": 9,
            "path": "translation"
          }
        },
        {
          "sampler": 25,
          "target": {
            "node": 9,
            "path": "rotation"
          }
        },
        {
          "sampler": 26,
          "target": {
            "node": 9,
            "path": "scale"
          }
        },
        {
          "sampler": 27,
          "target": {
            "node": 10,
            "path": "translation"
          }
        },
        {
          "sampler": 28,
          "target": {
            "node": 10,
            "path": "rotation"
          }
        },
        {
          "sampler": 29,
          "target": {
            "node": 10,
            "path": "scale"
          }
        },
        {
          "sampler": 30,
          "target": {
            "node": 11,
            "path": "translation"
          }
        },
        {
          "sampler": 31,
          "target": {
            "node": 11,
            "path": "rotation"
          }
        },
        {
          "sampler": 32,
          "target": {
            "node": 11,
            "path": "scale"
          }
        },
        {
          "sampler": 33,
          "target": {
            "node": 12,
            "path": "translation"
          }
        },
        {
          "sampler": 34,
          "target": {
            "node": 12,
            "path": "rotation"
          }
        },
        {
          "sampler": 35,
          "target": {
            "node": 12,
            "path": "scale"
          }
        },
        {
          "sampler": 36,
          "target": {
            "node": 14,
            "path": "translation"
          }
        },
        {
          "sampler": 37,
          "target": {
            "node": 14,
            "path": "rotation"
          }
        },
        {
          "sampler": 38,
          "target": {
            "node": 14,
            "path": "scale"
          }
        },
        {
          "sampler": 39,
          "target": {
            "node": 15,
            "path": "translation"
          }
        },
        {
          "sampler": 40,
          "target": {
            "node": 15,
            "path": "rotation"
          }
        },
        {
          "sampler": 41,
          "target": {
            "node": 15,
            "path": "scale"
          }
        },
        {
          "sampler": 42,
          "target": {
            "node": 16,
            "path": "translation"
          }
        },
        {
          "sampler": 43,
          "target": {
            "node": 16,
            "path": "rotation"
          }
        },
        {
          "sampler": 44,
          "target": {
            "node": 16,
            "path": "scale"
          }
        },
        {
          "sampler": 45,
          "target": {
            "node": 17,
            "path": "translation"
          }
        },
        {
          "sampler": 46,
          "target": {
            "node": 17,
            "path": "rotation"
          }
        },
        {
          "sampler": 47,
          "target": {
            "node": 17,
            "path": "scale"
          }
        },
        {
          "sampler": 48,
          "target": {
            "node": 18,
            "path": "translation"
          }
        },
        {
          "sampler": 49,
          "target": {
            "node": 18,
            "path": "rotation"
          }
        },
        {
          "sampler": 50,
          "target": {
            "node": 18,
            "path": "scale"
          }
        },
        {
          "sampler": 51,
          "target": {
            "node": 19,
            "path": "translation"
          }
        },
        {
          "sampler": 52,
          "target": {
            "node": 19,
            "path": "rotation"
          }
        },
        {
          "sampler": 53,
          "target": {
            "node": 19,
            "path": "scale"
          }
        },
        {
          "sampler": 54,
          "target": {
            "node": 20,
            "path": "translation"
          }
        },
        {
          "sampler": 55,
          "target": {
            "node": 20,
            "path": "rotation"
          }
        },
        {
          "sampler": 56,
          "target": {
            "node": 20,
            "path": "scale"
          }
        },
        {
          "sampler": 57,
          "target": {
            "node": 21,
            "path": "translation"
          }
        },
        {
          "sampler": 58,
          "target": {
            "node": 21,
            "path": "rotation"
          }
        },
        {
          "sampler": 59,
          "target": {
            "node": 21,
            "path": "scale"
          }
        },
        {
          "sampler": 60,
          "target": {
            "node": 22,
            "path": "translation"
          }
        },
        {
          "sampler": 61,
          "target": {
            "node": 22,
            "path": "rotation"
          }
        },
        {
          "sampler": 62,
          "target": {
            "node": 22,
            "path": "scale"
          }
        },
        {
          "sampler": 63,
          "target": {
            "node": 23,
            "path": "translation"
          }
        },
        {
          "sampler": 64,
          "target": {
            "node": 23,
            "path": "rotation"
          }
        },
        {
          "sampler": 65,
          "target": {
            "node": 23,
            "path": "scale"
          }
        },
        {
          "sampler": 66,
          "target": {
            "node": 24,
            "path": "translation"
          }
        },
        {
          "sampler": 67,
          "target": {
            "node": 24,
            "path": "rotation"
          }
        },
        {
          "sampler": 68,
          "target": {
            "node": 24,
            "path": "scale"
          }
        },
        {
          "sampler": 69,
          "target": {
            "node": 26,
            "path": "translation"
          }
        },
        {
          "sampler": 70,
          "target": {
            "node": 26,
            "path": "rotation"
          }
        },
        {
          "sampler": 71,
          "target": {
            "node": 26,
            "path": "scale"
          }
        }
      ],
      "name": "Take 001",
      "samplers": [
        {
          "input": 1,
          "output": 0
        },
        {
          "input": 3,
          "output": 2
        },
        {
          "input": 5,
          "output": 4
        },
        {
          "input": 7,
          "output": 6
        },
        {
          "input": 9,
          "output": 8
        },
        {
          "input": 11,
          "output": 10
        },
        {
          "input": 13,
          "output": 12
        },
        {
          "input": 15,
          "output": 14
        },
        {
          "input": 17,
          "output": 16
        },
        {
          "input": 19,
          "output": 18
        },
        {
          "input": 21,
          "output": 20
        },
        {
          "input": 23,
          "output": 22
        },
        {
          "input": 25,
          "output": 24
        },
        {
          "input": 27,
          "output": 26
        },
        {
          "input": 29,
          "output": 28
        },
        {
          "input": 31,
          "output": 30
        },
        {
          "input": 33,
          "output": 32
        },
        {
          "input": 35,
          "output": 34
        },
        {
          "input": 37,
          "output": 36
        },
        {
          "input": 39,
          "output": 38
        },
        {
          "input": 41,
          "output": 40
        },
        {
          "input": 43,
          "output": 42
        },
        {
          "input": 45,
          "output": 44
        },
        {
          "input": 47,
          "output": 46
        },
        {
          "input": 49,
          "output": 48
        },
        {
          "input": 51,
          "output": 50
        },
        {
          "input": 53,
          "output": 52
        },
        {
          "input": 55,
          "output": 54
        },
        {
          "input": 57,
          "output": 56
        },
        {
          "input": 59,
          "output": 58
        },
        {
          "input": 61,
          "output": 60
        },
        {
          "input": 63,
          "output": 62
        },
        {
          "input": 65,
          "output": 64
        },
        {
          "input": 67,
          "output": 66
        },
        {
          "input": 69,
          "output": 68
        },
        {
          "input": 71,
          "output": 70
        },
        {
          "input": 73,
          "output": 72
        },
        {
          "input": 75,
          "output": 74
        },
        {
          "input": 77,
          "output": 76
        },
        {
          "input": 79,
          "output": 78
        },
        {
          "input": 81,
          "output": 80
        },
        {
          "input": 83,
          "output": 82
        },
        {
          "input": 85,
          "output": 84
        },
        {
          "input": 87,
          "output": 86
        },
        {
          "input": 89,
          "output": 88
        },
        {
          "input": 91,
          "output": 90
        },
        {
          "input": 93,
          "output": 92
        },
        {
          "input": 95,
          "output": 94
        },
        {
          "input": 97,
          "output": 96
        },
        {
          "input": 99,
          "output": 98
        },
        {
          "input": 101,
          "output": 100
        },
        {
          "input": 103,
          "output": 102
        },
        {
          "input": 105,
          "output": 104
        },
        {
          "input": 107,
          "output": 106
        },
        {
          "input": 109,
          "output": 108
        },
        {
          "input": 111,
          "output": 110
        },
        {
          "input": 113,
          "output": 112
        },
        {
          "input": 115,
          "output": 114
        },
        {
          "input": 117,
          "output": 116
        },
        {
          "input": 119,
          "output": 118
        },
        {
          "input": 121,
          "output": 120
        },
        {
          "input": 123,
          "output": 122
        },
        {
          "input": 125,
          "output": 124
        },
        {
          "input": 127,
          "output": 126
        },
        {
          "input": 129,
          "output": 128
        },
        {
          "input": 131,
          "output": 130
        },
        {
          "input": 133,
          "output": 132
        },
        {
          "input": 135,
          "output": 134
        },
        {
          "input": 137,
          "output": 136
        },
        {
          "input": 139,
          "output": 138
        },
        {
          "input": 141,
          "output": 140
        },
        {
          "input": 143,
          "output": 142
        }
      ]
    }
  ],
  "asset": {
    "copyright": "Copyright (c) 2018-2020 Chukong Technologies Inc.",
    "generator": "FBX-glTF-conv",
    "version": "2.0"
  },
  "bufferViews": [
    {
      "buffer": 0,
      "byteLength": 372
    },
    {
      "buffer": 0,
      "byteLength": 124,
      "byteOffset": 372
    },
    {
      "buffer": 0,
      "byteLength": 496,
      "byteOffset": 496
    },
    {
      "buffer": 0,
      "byteLength": 124,
      "byteOffset": 992
    },
    {
      "buffer": 0,
      "byteLength": 12,
      "byteOffset": 1116
    },
    {
      "buffer": 0,
      "byteLength": 4,
      "byteOffset": 1128
    },
    {
      "buffer": 0,
      "byteLength": 372,
      "byteOffset": 1132
    },
    {
      "buffer": 0,
      "byteLength": 124,
      "byteOffset": 1504
    },
    {
      "buffer": 0,
      "byteLength": 496,
      "byteOffset": 1628
    },
    {
      "buffer": 0,
      "byteLength": 124,
      "byteOffset": 2124
    },
    {
      "buffer": 0,
      "byteLength": 12,
      "byteOffset": 2248
    },
    {
      "buffer": 0,
      "byteLength": 4,
      "byteOffset": 2260
    },
    {
      "buffer": 0,
      "byteLength": 12,
      "byteOffset": 2264
    },
    {
      "buffer": 0,
      "byteLength": 4,
      "byteOffset": 2276
    },
    {
      "buffer": 0,
      "byteLength": 16,
      "byteOffset": 2280
    },
    {
      "buffer": 0,
      "byteLength": 4,
      "byteOffset": 2296
    },
    {
      "buffer": 0,
      "byteLength": 12,
      "byteOffset": 2300
    },
    {
      "buffer": 0,
      "byteLength": 4,
      "byteOffset": 2312
    },
    {
      "buffer": 0,
      "byteLength": 192,
      "byteOffset": 2316
    },
    {
      "buffer": 0,
      "byteLength": 64,
      "byteOffset": 2508
    },
    {
      "buffer": 0,
      "byteLength": 464,
      "byteOffset": 2572
    },
    {
      "buffer": 0,
      "byteLength": 116,
      "byteOffset": 3036
    },
    {
      "buffer": 0,
      "byteLength": 12,
      "byteOffset": 3152
    },
    {
      "buffer": 0,
      "byteLength": 4,
      "byteOffset": 3164
    },
    {
      "buffer": 0,
      "byteLength": 372,
      "byteOffset": 3168
    },
    {
      "buffer": 0,
      "byteLength": 124,
      "byteOffset": 3540
    },
    {
      "buffer": 0,
      "byteLength": 496,
      "byteOffset": 3664
    },
    {
      "buffer": 0,
      "byteLength": 124,
      "byteOffset": 4160
    },
    {
      "buffer": 0,
      "byteLength": 12,
      "byteOffset": 4284
    },
    {
      "buffer": 0,
      "byteLength": 4,
      "byteOffset": 4296
    },
    {
      "buffer": 0,
      "byteLength": 12,
      "byteOffset": 4300
    },
    {
      "buffer": 0,
      "byteLength": 4,
      "byteOffset": 4312
    },
    {
      "buffer": 0,
      "byteLength": 416,
      "byteOffset": 4316
    },
    {
      "buffer": 0,
      "byteLength": 104,
      "byteOffset": 4732
    },
    {
      "buffer": 0,
      "byteLength": 12,
      "byteOffset": 4836
    },
    {
      "buffer": 0,
      "byteLength": 4,
      "byteOffset": 4848
    },
    {
      "buffer": 0,
      "byteLength": 12,
      "byteOffset": 4852
    },
    {
      "buffer": 0,
      "byteLength": 4,
      "byteOffset": 4864
    },
    {
      "buffer": 0,
      "byteLength": 496,
      "byteOffset": 4868
    },
    {
      "buffer": 0,
      "byteLength": 124,
      "byteOffset": 5364
    },
    {
      "buffer": 0,
      "byteLength": 12,
      "byteOffset": 5488
    },
    {
      "buffer": 0,
      "byteLength": 4,
      "byteOffset": 5500
    },
    {
      "buffer": 0,
      "byteLength": 12,
      "byteOffset": 5504
    },
    {
      "buffer": 0,
      "byteLength": 4,
      "byteOffset": 5516
    },
    {
      "buffer": 0,
      "byteLength": 224,
      "byteOffset": 5520
    },
    {
      "buffer": 0,
      "byteLength": 56,
      "byteOffset": 5744
    },
    {
      "buffer": 0,
      "byteLength": 12,
      "byteOffset": 5800
    },
    {
      "buffer": 0,
      "byteLength": 4,
      "byteOffset": 5812
    },
    {
      "buffer": 0,
      "byteLength": 372,
      "byteOffset": 5816
    },
    {
      "buffer": 0,
      "byteLength": 124,
      "byteOffset": 6188
    },
    {
      "buffer": 0,
      "byteLength": 496,
      "byteOffset": 6312
    },
    {
      "buffer": 0,
      "byteLength": 124,
      "byteOffset": 6808
    },
    {
      "buffer": 0,
      "byteLength": 12,
      "byteOffset": 6932
    },
    {
      "buffer": 0,
      "byteLength": 4,
      "byteOffset": 6944
    },
    {
      "buffer": 0,
      "byteLength": 12,
      "byteOffset": 6948
    },
    {
      "buffer": 0,
      "byteLength": 4,
      "byteOffset": 6960
    },
    {
      "buffer": 0,
      "byteLength": 448,
      "byteOffset": 6964
    },
    {
      "buffer": 0,
      "byteLength": 112,
      "byteOffset": 7412
    },
    {
      "buffer": 0,
      "byteLength": 12,
      "byteOffset": 7524
    },
    {
      "buffer": 0,
      "byteLength": 4,
      "byteOffset": 7536
    },
    {
      "buffer": 0,
      "byteLength": 12,
      "byteOffset": 7540
    },
    {
      "buffer": 0,
      "byteLength": 4,
      "byteOffset": 7552
    },
    {
      "buffer": 0,
      "byteLength": 480,
      "byteOffset": 7556
    },
    {
      "buffer": 0,
      "byteLength": 120,
      "byteOffset": 8036
    },
    {
      "buffer": 0,
      "byteLength": 12,
      "byteOffset": 8156
    },
    {
      "buffer": 0,
      "byteLength": 4,
      "byteOffset": 8168
    },
    {
      "buffer": 0,
      "byteLength": 12,
      "byteOffset": 8172
    },
    {
      "buffer": 0,
      "byteLength": 4,
      "byteOffset": 8184
    },
    {
      "buffer": 0,
      "byteLength": 464,
      "byteOffset": 8188
    },
    {
      "buffer": 0,
      "byteLength": 116,
      "byteOffset": 8652
    },
    {
      "buffer": 0,
      "byteLength": 12,
      "byteOffset": 8768
    },
    {
      "buffer": 0,
      "byteLength": 4,
      "byteOffset": 8780
    },
    {
      "buffer": 0,
      "byteLength": 228,
      "byteOffset": 8784
    },
    {
      "buffer": 0,
      "byteLength": 76,
      "byteOffset": 9012
    },
    {
      "buffer": 0,
      "byteLength": 464,
      "byteOffset": 9088
    },
    {
      "buffer": 0,
      "byteLength": 116,
      "byteOffset": 9552
    },
    {
      "buffer": 0,
      "byteLength": 12,
      "byteOffset": 9668
    },
    {
      "buffer": 0,
      "byteLength": 4,
      "byteOffset": 9680
    },
    {
      "buffer": 0,
      "byteLength": 12,
      "byteOffset": 9684
    },
    {
      "buffer": 0,
      "byteLength": 4,
      "byteOffset": 9696
    },
    {
      "buffer": 0,
      "byteLength": 16,
      "byteOffset": 9700
    },
    {
      "buffer": 0,
      "byteLength": 4,
      "byteOffset": 9716
    },
    {
      "buffer": 0,
      "byteLength": 12,
      "byteOffset": 9720
    },
    {
      "buffer": 0,
      "byteLength": 4,
      "byteOffset": 9732
    },
    {
      "buffer": 0,
      "byteLength": 12,
      "byteOffset": 9736
    },
    {
      "buffer": 0,
      "byteLength": 4,
      "byteOffset": 9748
    },
    {
      "buffer": 0,
      "byteLength": 16,
      "byteOffset": 9752
    },
    {
      "buffer": 0,
      "byteLength": 4,
      "byteOffset": 9768
    },
    {
      "buffer": 0,
      "byteLength": 12,
      "byteOffset": 9772
    },
    {
      "buffer": 0,
      "byteLength": 4,
      "byteOffset": 9784
    },
    {
      "buffer": 0,
      "byteLength": 12,
      "byteOffset": 9788
    },
    {
      "buffer": 0,
      "byteLength": 4,
      "byteOffset": 9800
    },
    {
      "buffer": 0,
      "byteLength": 496,
      "byteOffset": 9804
    },
    {
      "buffer": 0,
      "byteLength": 124,
      "byteOffset": 10300
    },
    {
      "buffer": 0,
      "byteLength": 12,
      "byteOffset": 10424
    },
    {
      "buffer": 0,
      "byteLength": 4,
      "byteOffset": 10436
    },
    {
      "buffer": 0,
      "byteLength": 12,
      "byteOffset": 10440
    },
    {
      "buffer": 0,
      "byteLength": 4,
      "byteOffset": 10452
    },
    {
      "buffer": 0,
      "byteLength": 464,
      "byteOffset": 10456
    },
    {
      "buffer": 0,
      "byteLength": 116,
      "byteOffset": 10920
    },
    {
      "buffer": 0,
      "byteLength": 12,
      "byteOffset": 11036
    },
    {
      "buffer": 0,
      "byteLength": 4,
      "byteOffset": 11048
    },
    {
      "buffer": 0,
      "byteLength": 12,
      "byteOffset": 11052
    },
    {
      "buffer": 0,
      "byteLength": 4,
      "byteOffset": 11064
    },
    {
      "buffer": 0,
      "byteLength": 16,
      "byteOffset": 11068
    },
    {
      "buffer": 0,
      "byteLength": 4,
      "byteOffset": 11084
    },
    {
      "buffer": 0,
      "byteLength": 12,
      "byteOffset": 11088
    },
    {
      "buffer": 0,
      "byteLength": 4,
      "byteOffset": 11100
    },
    {
      "buffer": 0,
      "byteLength": 12,
      "byteOffset": 11104
    },
    {
      "buffer": 0,
      "byteLength": 4,
      "byteOffset": 11116
    },
    {
      "buffer": 0,
      "byteLength": 16,
      "byteOffset": 11120
    },
    {
      "buffer": 0,
      "byteLength": 4,
      "byteOffset": 11136
    },
    {
      "buffer": 0,
      "byteLength": 12,
      "byteOffset": 11140
    },
    {
      "buffer": 0,
      "byteLength": 4,
      "byteOffset": 11152
    },
    {
      "buffer": 0,
      "byteLength": 12,
      "byteOffset": 11156
    },
    {
      "buffer": 0,
      "byteLength": 4,
      "byteOffset": 11168
    },
    {
      "buffer": 0,
      "byteLength": 496,
      "byteOffset": 11172
    },
    {
      "buffer": 0,
      "byteLength": 124,
      "byteOffset": 11668
    },
    {
      "buffer": 0,
      "byteLength": 12,
      "byteOffset": 11792
    },
    {
      "buffer": 0,
      "byteLength": 4,
      "byteOffset": 11804
    },
    {
      "buffer": 0,
      "byteLength": 12,
      "byteOffset": 11808
    },
    {
      "buffer": 0,
      "byteLength": 4,
      "byteOffset": 11820
    },
    {
      "buffer": 0,
      "byteLength": 464,
      "byteOffset": 11824
    },
    {
      "buffer": 0,
      "byteLength": 116,
      "byteOffset": 12288
    },
    {
      "buffer": 0,
      "byteLength": 12,
      "byteOffset": 12404
    },
    {
      "buffer": 0,
      "byteLength": 4,
      "byteOffset": 12416
    },
    {
      "buffer": 0,
      "byteLength": 24,
      "byteOffset": 12420
    },
    {
      "buffer": 0,
      "byteLength": 8,
      "byteOffset": 12444
    },
    {
      "buffer": 0,
      "byteLength": 464,
      "byteOffset": 12452
    },
    {
      "buffer": 0,
      "byteLength": 116,
      "byteOffset": 12916
    },
    {
      "buffer": 0,
      "byteLength": 12,
      "byteOffset": 13032
    },
    {
      "buffer": 0,
      "byteLength": 4,
      "byteOffset": 13044
    },
    {
      "buffer": 0,
      "byteLength": 12,
      "byteOffset": 13048
    },
    {
      "buffer": 0,
      "byteLength": 4,
      "byteOffset": 13060
    },
    {
      "buffer": 0,
      "byteLength": 464,
      "byteOffset": 13064
    },
    {
      "buffer": 0,
      "byteLength": 116,
      "byteOffset": 13528
    },
    {
      "buffer": 0,
      "byteLength": 12,
      "byteOffset": 13644
    },
    {
      "buffer": 0,
      "byteLength": 4,
      "byteOffset": 13656
    },
    {
      "buffer": 0,
      "byteLength": 372,
      "byteOffset": 13660
    },
    {
      "buffer": 0,
      "byteLength": 124,
      "byteOffset": 14032
    },
    {
      "buffer": 0,
      "byteLength": 480,
      "byteOffset": 14156
    },
    {
      "buffer": 0,
      "byteLength": 120,
      "byteOffset": 14636
    },
    {
      "buffer": 0,
      "byteLength": 12,
      "byteOffset": 14756
    },
    {
      "buffer": 0,
      "byteLength": 4,
      "byteOffset": 14768
    }
  ],
  "buffers": [
    {
      "byteLength": 14772,
      "uri": "out.bin"
    }
  ],
  "extras": {
    "FBX-glTF-conv": {
      "animationFrameRate": 30.0,
      "fbxFileHeaderInfo": {
        "creationTimeStamp": {
          "day": 5,
          "hour": 18,
          "millisecond": 827,
          "minute": 26,
          "month": 6,
          "second": 14,
          "year": 2026
        },
        "creator": "FBX SDK/FBX Plugins version 2020.3.7",
        "sceneInfo": {
          "author": "",
          "comment": "",
          "keywords": "",
          "original": {
            "applicationName": "3ds Max",
            "applicationVendor": "Autodesk",
            "applicationVersion": "2026",
            "fileName": "E:\\试玩需求\\big_dazhuang_01\\big_dazhuang_01_idle.fbx"
          },
          "revision": "",
          "subject": "",
          "title": "",
          "url": "D:\\工程项目\\test_pro\\test_pro\\HYQ_Project\\assets\\GameRes\\FBX\\Hero_2\\big_dazhuang_01_idle1.fbx"
        }
      }
    }
  },
  "nodes": [
    {
      "children": [
        1,
        2,
        26
      ],
      "extras": {
        "FBX-glTF-conv": {
          "skeleton": {
            "skeletonType": "Root"
          }
        }
      },
      "name": "Bip001",
      "rotation": [
        -0.4106598198413849,
        -0.4402965009212494,
        -0.5850478410720825,
        0.5433382987976074
      ],
      "translation": [
        0.0,
        0.5659540295600891,
        -0.25130555033683777
      ]
    },
    {
      "name": "Bip001 Footsteps",
      "rotation": [
        -0.09381785988807678,
        -0.10235463827848434,
        0.7250279784202576,
        0.6745785474777222
      ],
      "translation": [
        0.1546802669763565,
        0.012326018884778023,
        -0.5424957871437073
      ]
    },
    {
      "children": [
        3
      ],
      "extras": {
        "FBX-glTF-conv": {
          "skeleton": {
            "skeletonType": "LimbNode"
          }
        }
      },
      "name": "Bip001 Pelvis",
      "rotation": [
        -0.46505171060562134,
        -0.5346307158470154,
        -0.4630996882915497,
        0.5323866605758667
      ]
    },
    {
      "children": [
        4,
        9,
        14
      ],
      "extras": {
        "FBX-glTF-conv": {
          "skeleton": {
            "skeletonType": "LimbNode"
          }
        }
      },
      "name": "Bip001 Spine",
      "rotation": [
        -0.01886598765850067,
        5.2313906053313985e-05,
        -0.0918690636754036,
        0.9955923557281494
      ],
      "translation": [
        0.0721551850438118,
        0.024288052693009377,
        -0.003723706817254424
      ]
    },
    {
      "children": [
        5
      ],
      "extras": {
        "FBX-glTF-conv": {
          "skeleton": {
            "skeletonType": "LimbNode"
          }
        }
      },
      "name": "Bip001 L Thigh",
      "rotation": [
        0.7589415311813354,
        0.6405148506164551,
        0.021061379462480545,
        -0.11534684896469116
      ],
      "translation": [
        -0.0661812350153923,
        -0.040559057146310806,
        0.09189295768737793
      ]
    },
    {
      "children": [
        6
      ],
      "extras": {
        "FBX-glTF-conv": {
          "skeleton": {
            "skeletonType": "LimbNode"
          }
        }
      },
      "name": "Bip001 L Calf",
      "rotation": [
        2.931212769638425e-17,
        -3.036913547905146e-17,
        -0.8238985538482666,
        0.5667373538017273
      ],
      "translation": [
        0.4039266109466553,
        -4.8446654687950286e-08,
        0.0
      ]
    },
    {
      "children": [
        7
      ],
      "extras": {
        "FBX-glTF-conv": {
          "skeleton": {
            "skeletonType": "LimbNode"
          }
        }
      },
      "name": "Bip001 L Foot",
      "rotation": [
        -0.022919494658708572,
        -0.07380173355340958,
        0.13543415069580078,
        0.9877679944038391
      ],
      "translation": [
        0.5253466367721558,
        -2.1195411648022855e-08,
        4.51194631754889e-17
      ]
    },
    {
      "children": [
        8
      ],
      "extras": {
        "FBX-glTF-conv": {
          "skeleton": {
            "skeletonType": "LimbNode"
          }
        }
      },
      "name": "Bip001 L Toe0",
      "rotation": [
        -0.14617443084716797,
        0.1461750566959381,
        0.6918337345123291,
        0.6918323636054993
      ],
      "translation": [
        0.017818298190832138,
        0.10711430758237839,
        -0.010672046802937984
      ]
    },
    {
      "extras": {
        "FBX-glTF-conv": {
          "skeleton": {
            "skeletonType": "LimbNode"
          }
        }
      },
      "name": "Bip001 L Toe0Nub",
      "rotation": [
        -1.4901203826411802e-08,
        -1.4210854715202004e-14,
        1.0,
        -6.123255438749521e-17
      ],
      "scale": [
        -1.0,
        -1.0,
        -1.0
      ],
      "translation": [
        0.12583911418914795,
        6.055831835993786e-09,
        0.0
      ]
    },
    {
      "children": [
        10
      ],
      "extras": {
        "FBX-glTF-conv": {
          "skeleton": {
            "skeletonType": "LimbNode"
          }
        }
      },
      "name": "Bip001 R Thigh",
      "rotation": [
        0.1098102554678917,
        0.9642526507377625,
        -0.052910298109054565,
        0.23528501391410828
      ],
      "translation": [
        -0.06678211688995361,
        -0.033840399235486984,
        -0.08679044246673584
      ]
    },
    {
      "children": [
        11
      ],
      "extras": {
        "FBX-glTF-conv": {
          "skeleton": {
            "skeletonType": "LimbNode"
          }
        }
      },
      "name": "Bip001 R Calf",
      "rotation": [
        2.8334347272787367e-17,
        -9.465729670367878e-18,
        -0.7212058305740356,
        0.6927208304405212
      ],
      "translation": [
        0.40392667055130005,
        -1.2111663671987571e-08,
        -4.8446654687950286e-08
      ]
    },
    {
      "children": [
        12
      ],
      "extras": {
        "FBX-glTF-conv": {
          "skeleton": {
            "skeletonType": "LimbNode"
          }
        }
      },
      "name": "Bip001 R Foot",
      "rotation": [
        -0.06560709327459335,
        0.33941254019737244,
        0.277756005525589,
        0.896295964717865
      ],
      "translation": [
        0.5253466963768005,
        -1.2111663671987571e-08,
        2.4223327343975143e-08
      ]
    },
    {
      "children": [
        13
      ],
      "extras": {
        "FBX-glTF-conv": {
          "skeleton": {
            "skeletonType": "LimbNode"
          }
        }
      },
      "name": "Bip001 R Toe0",
      "rotation": [
        0.041031163185834885,
        -0.013897391967475414,
        0.9077701568603516,
        0.4172249138355255
      ],
      "translation": [
        0.08683571219444275,
        0.10477732867002487,
        4.8446654687950286e-08
      ]
    },
    {
      "extras": {
        "FBX-glTF-conv": {
          "skeleton": {
            "skeletonType": "LimbNode"
          }
        }
      },
      "name": "Bip001 R Toe0Nub",
      "translation": [
        0.12583909928798676,
        1.5139579589984464e-09,
        0.0
      ]
    },
    {
      "children": [
        15
      ],
      "extras": {
        "FBX-glTF-conv": {
          "skeleton": {
            "skeletonType": "LimbNode"
          }
        }
      },
      "name": "Bip001 Spine1",
      "rotation": [
        0.002309068338945508,
        -0.005687068682163954,
        0.2647072672843933,
        0.9643092751502991
      ],
      "translation": [
        0.2828911244869232,
        -0.00020459022198338062,
        -3.4291147699150315e-07
      ]
    },
    {
      "children": [
        16,
        20,
        24
      ],
      "extras": {
        "FBX-glTF-conv": {
          "skeleton": {
            "skeletonType": "LimbNode"
          }
        }
      },
      "name": "Bip001 Neck",
      "rotation": [
        1.6681080128311265e-10,
        -2.824702391990286e-07,
        0.10156010091304779,
        0.9948294162750244
      ],
      "translation": [
        0.2843574583530426,
        -0.033620670437812805,
        -4.20123349442747e-08
      ]
    },
    {
      "children": [
        17
      ],
      "extras": {
        "FBX-glTF-conv": {
          "skeleton": {
            "skeletonType": "LimbNode"
          }
        }
      },
      "name": "Bip001 L Clavicle",
      "rotation": [
        0.8234432339668274,
        -0.13194705545902252,
        0.5516164302825928,
        -0.01582801714539528
      ],
      "translation": [
        -0.12583795189857483,
        -0.02249136008322239,
        0.10685662925243378
      ]
    },
    {
      "children": [
        18
      ],
      "extras": {
        "FBX-glTF-conv": {
          "skeleton": {
            "skeletonType": "LimbNode"
          }
        }
      },
      "name": "Bip001 L UpperArm",
      "rotation": [
        -0.5977444052696228,
        -0.21589383482933044,
        0.021204546093940735,
        0.7717783451080322
      ],
      "translation": [
        0.12755073606967926,
        0.0,
        0.0
      ]
    },
    {
      "children": [
        19
      ],
      "extras": {
        "FBX-glTF-conv": {
          "skeleton": {
            "skeletonType": "LimbNode"
          }
        }
      },
      "name": "Bip001 L Forearm",
      "rotation": [
        -2.5535111831626267e-17,
        1.0877961895289861e-17,
        -0.391919881105423,
        0.919999361038208
      ],
      "translation": [
        0.2662736773490906,
        -2.4223327343975143e-08,
        -4.8446654687950286e-08
      ]
    },
    {
      "extras": {
        "FBX-glTF-conv": {
          "skeleton": {
            "skeletonType": "LimbNode"
          }
        }
      },
      "name": "Bip001 L Hand",
      "rotation": [
        0.30052265524864197,
        0.37953245639801025,
        0.7763986587524414,
        -0.40354233980178833
      ],
      "translation": [
        0.286489874124527,
        -9.02389263509778e-17,
        1.804778527019556e-16
      ]
    },
    {
      "children": [
        21
      ],
      "extras": {
        "FBX-glTF-conv": {
          "skeleton": {
            "skeletonType": "LimbNode"
          }
        }
      },
      "name": "Bip001 R Clavicle",
      "rotation": [
        0.7904431223869324,
        -0.08549775183200836,
        -0.6039466857910156,
        -0.05601952224969864
      ],
      "translation": [
        -0.12583795189857483,
        -0.02249087579548359,
        -0.10685687512159348
      ]
    },
    {
      "children": [
        22
      ],
      "extras": {
        "FBX-glTF-conv": {
          "skeleton": {
            "skeletonType": "LimbNode"
          }
        }
      },
      "name": "Bip001 R UpperArm",
      "rotation": [
        0.5015241503715515,
        0.36749881505966187,
        0.3512427508831024,
        0.7000333070755005
      ],
      "translation": [
        0.12755072116851807,
        0.0,
        -4.8446654687950286e-08
      ]
    },
    {
      "children": [
        23
      ],
      "extras": {
        "FBX-glTF-conv": {
          "skeleton": {
            "skeletonType": "LimbNode"
          }
        }
      },
      "name": "Bip001 R Forearm",
      "rotation": [
        -4.2169121688749066e-17,
        3.8676169572509145e-17,
        -0.47700244188308716,
        0.8789019584655762
      ],
      "translation": [
        0.26627376675605774,
        -4.8446654687950286e-08,
        -2.4223327343975143e-08
      ]
    },
    {
      "extras": {
        "FBX-glTF-conv": {
          "skeleton": {
            "skeletonType": "LimbNode"
          }
        }
      },
      "name": "Bip001 R Hand",
      "rotation": [
        -0.026706000789999962,
        0.31887444853782654,
        -0.5268380045890808,
        0.787431001663208
      ],
      "translation": [
        0.28649017214775085,
        0.0,
        -2.4223327343975143e-08
      ]
    },
    {
      "children": [
        25
      ],
      "extras": {
        "FBX-glTF-conv": {
          "skeleton": {
            "skeletonType": "LimbNode"
          }
        }
      },
      "name": "Bip001 Head",
      "rotation": [
        -0.018292903900146484,
        0.00425376882776618,
        -0.04530809074640274,
        0.9987965226173401
      ],
      "translation": [
        0.05849647894501686,
        -0.0032112381886690855,
        -1.1888355402334128e-06
      ]
    },
    {
      "extras": {
        "FBX-glTF-conv": {
          "skeleton": {
            "skeletonType": "LimbNode"
          }
        }
      },
      "name": "Bip001 HeadNub",
      "translation": [
        0.22270093858242035,
        -1.804778527019556e-16,
        1.5139579589984464e-09
      ]
    },
    {
      "extras": {
        "FBX-glTF-conv": {
          "skeleton": {
            "skeletonType": "LimbNode"
          }
        }
      },
      "name": "Bip001 Prop1",
      "rotation": [
        -0.24736027419567108,
        -0.12651701271533966,
        -0.15493369102478027,
        0.9480516314506531
      ],
      "translation": [
        -0.1768341362476349,
        -0.3776901960372925,
        1.016789436340332
      ]
    }
  ],
  "scenes": [
    {
      "nodes": [
        0
      ]
    }
  ]
}