{
  "accessors": [
    {
      "bufferView": 0,
      "componentType": 5126,
      "count": 26,
      "name": "Bip001/translation/Output",
      "type": "VEC3"
    },
    {
      "bufferView": 1,
      "componentType": 5126,
      "count": 26,
      "max": [
        0.8666666746139526
      ],
      "min": [
        0.0
      ],
      "name": "Bip001/translation/Input",
      "type": "SCALAR"
    },
    {
      "bufferView": 2,
      "componentType": 5126,
      "count": 26,
      "name": "Bip001/rotation/Output",
      "type": "VEC4"
    },
    {
      "bufferView": 3,
      "componentType": 5126,
      "count": 26,
      "max": [
        0.8666666746139526
      ],
      "min": [
        0.0
      ],
      "name": "Bip001/rotation/Input",
      "type": "SCALAR"
    },
    {
      "bufferView": 4,
      "componentType": 5126,
      "count": 1,
      "name": "Bip001/scale/Output",
      "type": "VEC3"
    },
    {
      "bufferView": 5,
      "componentType": 5126,
      "count": 1,
      "max": [
        0.8666666746139526
      ],
      "min": [
        0.8666666746139526
      ],
      "name": "Bip001/scale/Input",
      "type": "SCALAR"
    },
    {
      "bufferView": 6,
      "componentType": 5126,
      "count": 1,
      "name": "Bip001 Pelvis/translation/Output",
      "type": "VEC3"
    },
    {
      "bufferView": 7,
      "componentType": 5126,
      "count": 1,
      "max": [
        0.8666666746139526
      ],
      "min": [
        0.8666666746139526
      ],
      "name": "Bip001 Pelvis/translation/Input",
      "type": "SCALAR"
    },
    {
      "bufferView": 8,
      "componentType": 5126,
      "count": 1,
      "name": "Bip001 Pelvis/rotation/Output",
      "type": "VEC4"
    },
    {
      "bufferView": 9,
      "componentType": 5126,
      "count": 1,
      "max": [
        0.8666666746139526
      ],
      "min": [
        0.8666666746139526
      ],
      "name": "Bip001 Pelvis/rotation/Input",
      "type": "SCALAR"
    },
    {
      "bufferView": 10,
      "componentType": 5126,
      "count": 1,
      "name": "Bip001 Pelvis/scale/Output",
      "type": "VEC3"
    },
    {
      "bufferView": 11,
      "componentType": 5126,
      "count": 1,
      "max": [
        0.8666666746139526
      ],
      "min": [
        0.8666666746139526
      ],
      "name": "Bip001 Pelvis/scale/Input",
      "type": "SCALAR"
    },
    {
      "bufferView": 12,
      "componentType": 5126,
      "count": 26,
      "name": "Bip001 Spine/translation/Output",
      "type": "VEC3"
    },
    {
      "bufferView": 13,
      "componentType": 5126,
      "count": 26,
      "max": [
        0.8666666746139526
      ],
      "min": [
        0.0
      ],
      "name": "Bip001 Spine/translation/Input",
      "type": "SCALAR"
    },
    {
      "bufferView": 14,
      "componentType": 5126,
      "count": 25,
      "name": "Bip001 Spine/rotation/Output",
      "type": "VEC4"
    },
    {
      "bufferView": 15,
      "componentType": 5126,
      "count": 25,
      "max": [
        0.8666666746139526
      ],
      "min": [
        0.0
      ],
      "name": "Bip001 Spine/rotation/Input",
      "type": "SCALAR"
    },
    {
      "bufferView": 16,
      "componentType": 5126,
      "count": 1,
      "name": "Bip001 Spine/scale/Output",
      "type": "VEC3"
    },
    {
      "bufferView": 17,
      "componentType": 5126,
      "count": 1,
      "max": [
        0.8666666746139526
      ],
      "min": [
        0.8666666746139526
      ],
      "name": "Bip001 Spine/scale/Input",
      "type": "SCALAR"
    },
    {
      "bufferView": 18,
      "componentType": 5126,
      "count": 26,
      "name": "Bip001 Spine1/translation/Output",
      "type": "VEC3"
    },
    {
      "bufferView": 19,
      "componentType": 5126,
      "count": 26,
      "max": [
        0.8666666746139526
      ],
      "min": [
        0.0
      ],
      "name": "Bip001 Spine1/translation/Input",
      "type": "SCALAR"
    },
    {
      "bufferView": 20,
      "componentType": 5126,
      "count": 25,
      "name": "Bip001 Spine1/rotation/Output",
      "type": "VEC4"
    },
    {
      "bufferView": 21,
      "componentType": 5126,
      "count": 25,
      "max": [
        0.8666666746139526
      ],
      "min": [
        0.0
      ],
      "name": "Bip001 Spine1/rotation/Input",
      "type": "SCALAR"
    },
    {
      "bufferView": 22,
      "componentType": 5126,
      "count": 1,
      "name": "Bip001 Spine1/scale/Output",
      "type": "VEC3"
    },
    {
      "bufferView": 23,
      "componentType": 5126,
      "count": 1,
      "max": [
        0.8666666746139526
      ],
      "min": [
        0.8666666746139526
      ],
      "name": "Bip001 Spine1/scale/Input",
      "type": "SCALAR"
    },
    {
      "bufferView": 24,
      "componentType": 5126,
      "count": 13,
      "name": "Bip001 Neck/translation/Output",
      "type": "VEC3"
    },
    {
      "bufferView": 25,
      "componentType": 5126,
      "count": 13,
      "max": [
        0.8666666746139526
      ],
      "min": [
        0.10000000149011612
      ],
      "name": "Bip001 Neck/translation/Input",
      "type": "SCALAR"
    },
    {
      "bufferView": 26,
      "componentType": 5126,
      "count": 1,
      "name": "Bip001 Neck/rotation/Output",
      "type": "VEC4"
    },
    {
      "bufferView": 27,
      "componentType": 5126,
      "count": 1,
      "max": [
        0.8666666746139526
      ],
      "min": [
        0.8666666746139526
      ],
      "name": "Bip001 Neck/rotation/Input",
      "type": "SCALAR"
    },
    {
      "bufferView": 28,
      "componentType": 5126,
      "count": 1,
      "name": "Bip001 Neck/scale/Output",
      "type": "VEC3"
    },
    {
      "bufferView": 29,
      "componentType": 5126,
      "count": 1,
      "max": [
        0.8666666746139526
      ],
      "min": [
        0.8666666746139526
      ],
      "name": "Bip001 Neck/scale/Input",
      "type": "SCALAR"
    },
    {
      "bufferView": 30,
      "componentType": 5126,
      "count": 20,
      "name": "Bip001 L Clavicle/translation/Output",
      "type": "VEC3"
    },
    {
      "bufferView": 31,
      "componentType": 5126,
      "count": 20,
      "max": [
        0.8666666746139526
      ],
      "min": [
        0.0
      ],
      "name": "Bip001 L Clavicle/translation/Input",
      "type": "SCALAR"
    },
    {
      "bufferView": 32,
      "componentType": 5126,
      "count": 27,
      "name": "Bip001 L Clavicle/rotation/Output",
      "type": "VEC4"
    },
    {
      "bufferView": 33,
      "componentType": 5126,
      "count": 27,
      "max": [
        0.8666666746139526
      ],
      "min": [
        0.0
      ],
      "name": "Bip001 L Clavicle/rotation/Input",
      "type": "SCALAR"
    },
    {
      "bufferView": 34,
      "componentType": 5126,
      "count": 1,
      "name": "Bip001 L Clavicle/scale/Output",
      "type": "VEC3"
    },
    {
      "bufferView": 35,
      "componentType": 5126,
      "count": 1,
      "max": [
        0.8666666746139526
      ],
      "min": [
        0.8666666746139526
      ],
      "name": "Bip001 L Clavicle/scale/Input",
      "type": "SCALAR"
    },
    {
      "bufferView": 36,
      "componentType": 5126,
      "count": 15,
      "name": "Bip001 L UpperArm/translation/Output",
      "type": "VEC3"
    },
    {
      "bufferView": 37,
      "componentType": 5126,
      "count": 15,
      "max": [
        0.8666666746139526
      ],
      "min": [
        0.0
      ],
      "name": "Bip001 L UpperArm/translation/Input",
      "type": "SCALAR"
    },
    {
      "bufferView": 38,
      "componentType": 5126,
      "count": 27,
      "name": "Bip001 L UpperArm/rotation/Output",
      "type": "VEC4"
    },
    {
      "bufferView": 39,
      "componentType": 5126,
      "count": 27,
      "max": [
        0.8666666746139526
      ],
      "min": [
        0.0
      ],
      "name": "Bip001 L UpperArm/rotation/Input",
      "type": "SCALAR"
    },
    {
      "bufferView": 40,
      "componentType": 5126,
      "count": 1,
      "name": "Bip001 L UpperArm/scale/Output",
      "type": "VEC3"
    },
    {
      "bufferView": 41,
      "componentType": 5126,
      "count": 1,
      "max": [
        0.8666666746139526
      ],
      "min": [
        0.8666666746139526
      ],
      "name": "Bip001 L UpperArm/scale/Input",
      "type": "SCALAR"
    },
    {
      "bufferView": 42,
      "componentType": 5126,
      "count": 17,
      "name": "Bip001 L Forearm/translation/Output",
      "type": "VEC3"
    },
    {
      "bufferView": 43,
      "componentType": 5126,
      "count": 17,
      "max": [
        0.8666666746139526
      ],
      "min": [
        0.0
      ],
      "name": "Bip001 L Forearm/translation/Input",
      "type": "SCALAR"
    },
    {
      "bufferView": 44,
      "componentType": 5126,
      "count": 24,
      "name": "Bip001 L Forearm/rotation/Output",
      "type": "VEC4"
    },
    {
      "bufferView": 45,
      "componentType": 5126,
      "count": 24,
      "max": [
        0.8666666746139526
      ],
      "min": [
        0.0
      ],
      "name": "Bip001 L Forearm/rotation/Input",
      "type": "SCALAR"
    },
    {
      "bufferView": 46,
      "componentType": 5126,
      "count": 1,
      "name": "Bip001 L Forearm/scale/Output",
      "type": "VEC3"
    },
    {
      "bufferView": 47,
      "componentType": 5126,
      "count": 1,
      "max": [
        0.8666666746139526
      ],
      "min": [
        0.8666666746139526
      ],
      "name": "Bip001 L Forearm/scale/Input",
      "type": "SCALAR"
    },
    {
      "bufferView": 48,
      "componentType": 5126,
      "count": 15,
      "name": "Bip001 L Hand/translation/Output",
      "type": "VEC3"
    },
    {
      "bufferView": 49,
      "componentType": 5126,
      "count": 15,
      "max": [
        0.8666666746139526
      ],
      "min": [
        0.0
      ],
      "name": "Bip001 L Hand/translation/Input",
      "type": "SCALAR"
    },
    {
      "bufferView": 50,
      "componentType": 5126,
      "count": 24,
      "name": "Bip001 L Hand/rotation/Output",
      "type": "VEC4"
    },
    {
      "bufferView": 51,
      "componentType": 5126,
      "count": 24,
      "max": [
        0.8666666746139526
      ],
      "min": [
        0.0
      ],
      "name": "Bip001 L Hand/rotation/Input",
      "type": "SCALAR"
    },
    {
      "bufferView": 52,
      "componentType": 5126,
      "count": 1,
      "name": "Bip001 L Hand/scale/Output",
      "type": "VEC3"
    },
    {
      "bufferView": 53,
      "componentType": 5126,
      "count": 1,
      "max": [
        0.8666666746139526
      ],
      "min": [
        0.8666666746139526
      ],
      "name": "Bip001 L Hand/scale/Input",
      "type": "SCALAR"
    },
    {
      "bufferView": 54,
      "componentType": 5126,
      "count": 20,
      "name": "Bip001 R Clavicle/translation/Output",
      "type": "VEC3"
    },
    {
      "bufferView": 55,
      "componentType": 5126,
      "count": 20,
      "max": [
        0.8666666746139526
      ],
      "min": [
        0.0
      ],
      "name": "Bip001 R Clavicle/translation/Input",
      "type": "SCALAR"
    },
    {
      "bufferView": 56,
      "componentType": 5126,
      "count": 27,
      "name": "Bip001 R Clavicle/rotation/Output",
      "type": "VEC4"
    },
    {
      "bufferView": 57,
      "componentType": 5126,
      "count": 27,
      "max": [
        0.8666666746139526
      ],
      "min": [
        0.0
      ],
      "name": "Bip001 R Clavicle/rotation/Input",
      "type": "SCALAR"
    },
    {
      "bufferView": 58,
      "componentType": 5126,
      "count": 1,
      "name": "Bip001 R Clavicle/scale/Output",
      "type": "VEC3"
    },
    {
      "bufferView": 59,
      "componentType": 5126,
      "count": 1,
      "max": [
        0.8666666746139526
      ],
      "min": [
        0.8666666746139526
      ],
      "name": "Bip001 R Clavicle/scale/Input",
      "type": "SCALAR"
    },
    {
      "bufferView": 60,
      "componentType": 5126,
      "count": 16,
      "name": "Bip001 R UpperArm/translation/Output",
      "type": "VEC3"
    },
    {
      "bufferView": 61,
      "componentType": 5126,
      "count": 16,
      "max": [
        0.8666666746139526
      ],
      "min": [
        0.10000000149011612
      ],
      "name": "Bip001 R UpperArm/translation/Input",
      "type": "SCALAR"
    },
    {
      "bufferView": 62,
      "componentType": 5126,
      "count": 27,
      "name": "Bip001 R UpperArm/rotation/Output",
      "type": "VEC4"
    },
    {
      "bufferView": 63,
      "componentType": 5126,
      "count": 27,
      "max": [
        0.8666666746139526
      ],
      "min": [
        0.0
      ],
      "name": "Bip001 R UpperArm/rotation/Input",
      "type": "SCALAR"
    },
    {
      "bufferView": 64,
      "componentType": 5126,
      "count": 1,
      "name": "Bip001 R UpperArm/scale/Output",
      "type": "VEC3"
    },
    {
      "bufferView": 65,
      "componentType": 5126,
      "count": 1,
      "max": [
        0.8666666746139526
      ],
      "min": [
        0.8666666746139526
      ],
      "name": "Bip001 R UpperArm/scale/Input",
      "type": "SCALAR"
    },
    {
      "bufferView": 66,
      "componentType": 5126,
      "count": 15,
      "name": "Bip001 R Forearm/translation/Output",
      "type": "VEC3"
    },
    {
      "bufferView": 67,
      "componentType": 5126,
      "count": 15,
      "max": [
        0.8666666746139526
      ],
      "min": [
        0.0
      ],
      "name": "Bip001 R Forearm/translation/Input",
      "type": "SCALAR"
    },
    {
      "bufferView": 68,
      "componentType": 5126,
      "count": 26,
      "name": "Bip001 R Forearm/rotation/Output",
      "type": "VEC4"
    },
    {
      "bufferView": 69,
      "componentType": 5126,
      "count": 26,
      "max": [
        0.8666666746139526
      ],
      "min": [
        0.0
      ],
      "name": "Bip001 R Forearm/rotation/Input",
      "type": "SCALAR"
    },
    {
      "bufferView": 70,
      "componentType": 5126,
      "count": 1,
      "name": "Bip001 R Forearm/scale/Output",
      "type": "VEC3"
    },
    {
      "bufferView": 71,
      "componentType": 5126,
      "count": 1,
      "max": [
        0.8666666746139526
      ],
      "min": [
        0.8666666746139526
      ],
      "name": "Bip001 R Forearm/scale/Input",
      "type": "SCALAR"
    },
    {
      "bufferView": 72,
      "componentType": 5126,
      "count": 11,
      "name": "Bip001 R Hand/translation/Output",
      "type": "VEC3"
    },
    {
      "bufferView": 73,
      "componentType": 5126,
      "count": 11,
      "max": [
        0.8666666746139526
      ],
      "min": [
        0.03333333507180214
      ],
      "name": "Bip001 R Hand/translation/Input",
      "type": "SCALAR"
    },
    {
      "bufferView": 74,
      "componentType": 5126,
      "count": 26,
      "name": "Bip001 R Hand/rotation/Output",
      "type": "VEC4"
    },
    {
      "bufferView": 75,
      "componentType": 5126,
      "count": 26,
      "max": [
        0.8666666746139526
      ],
      "min": [
        0.0
      ],
      "name": "Bip001 R Hand/rotation/Input",
      "type": "SCALAR"
    },
    {
      "bufferView": 76,
      "componentType": 5126,
      "count": 1,
      "name": "Bip001 R Hand/scale/Output",
      "type": "VEC3"
    },
    {
      "bufferView": 77,
      "componentType": 5126,
      "count": 1,
      "max": [
        0.8666666746139526
      ],
      "min": [
        0.8666666746139526
      ],
      "name": "Bip001 R Hand/scale/Input",
      "type": "SCALAR"
    },
    {
      "bufferView": 78,
      "componentType": 5126,
      "count": 15,
      "name": "Bip001 Head/translation/Output",
      "type": "VEC3"
    },
    {
      "bufferView": 79,
      "componentType": 5126,
      "count": 15,
      "max": [
        0.8666666746139526
      ],
      "min": [
        0.06666667014360428
      ],
      "name": "Bip001 Head/translation/Input",
      "type": "SCALAR"
    },
    {
      "bufferView": 80,
      "componentType": 5126,
      "count": 27,
      "name": "Bip001 Head/rotation/Output",
      "type": "VEC4"
    },
    {
      "bufferView": 81,
      "componentType": 5126,
      "count": 27,
      "max": [
        0.8666666746139526
      ],
      "min": [
        0.0
      ],
      "name": "Bip001 Head/rotation/Input",
      "type": "SCALAR"
    },
    {
      "bufferView": 82,
      "componentType": 5126,
      "count": 1,
      "name": "Bip001 Head/scale/Output",
      "type": "VEC3"
    },
    {
      "bufferView": 83,
      "componentType": 5126,
      "count": 1,
      "max": [
        0.8666666746139526
      ],
      "min": [
        0.8666666746139526
      ],
      "name": "Bip001 Head/scale/Input",
      "type": "SCALAR"
    },
    {
      "bufferView": 84,
      "componentType": 5126,
      "count": 27,
      "name": "Bip001 L Thigh/translation/Output",
      "type": "VEC3"
    },
    {
      "bufferView": 85,
      "componentType": 5126,
      "count": 27,
      "max": [
        0.8666666746139526
      ],
      "min": [
        0.0
      ],
      "name": "Bip001 L Thigh/translation/Input",
      "type": "SCALAR"
    },
    {
      "bufferView": 86,
      "componentType": 5126,
      "count": 27,
      "name": "Bip001 L Thigh/rotation/Output",
      "type": "VEC4"
    },
    {
      "bufferView": 87,
      "componentType": 5126,
      "count": 27,
      "max": [
        0.8666666746139526
      ],
      "min": [
        0.0
      ],
      "name": "Bip001 L Thigh/rotation/Input",
      "type": "SCALAR"
    },
    {
      "bufferView": 88,
      "componentType": 5126,
      "count": 1,
      "name": "Bip001 L Thigh/scale/Output",
      "type": "VEC3"
    },
    {
      "bufferView": 89,
      "componentType": 5126,
      "count": 1,
      "max": [
        0.8666666746139526
      ],
      "min": [
        0.8666666746139526
      ],
      "name": "Bip001 L Thigh/scale/Input",
      "type": "SCALAR"
    },
    {
      "bufferView": 90,
      "componentType": 5126,
      "count": 7,
      "name": "Bip001 L Calf/translation/Output",
      "type": "VEC3"
    },
    {
      "bufferView": 91,
      "componentType": 5126,
      "count": 7,
      "max": [
        0.8666666746139526
      ],
      "min": [
        0.4333333373069763
      ],
      "name": "Bip001 L Calf/translation/Input",
      "type": "SCALAR"
    },
    {
      "bufferView": 92,
      "componentType": 5126,
      "count": 27,
      "name": "Bip001 L Calf/rotation/Output",
      "type": "VEC4"
    },
    {
      "bufferView": 93,
      "componentType": 5126,
      "count": 27,
      "max": [
        0.8666666746139526
      ],
      "min": [
        0.0
      ],
      "name": "Bip001 L Calf/rotation/Input",
      "type": "SCALAR"
    },
    {
      "bufferView": 94,
      "componentType": 5126,
      "count": 1,
      "name": "Bip001 L Calf/scale/Output",
      "type": "VEC3"
    },
    {
      "bufferView": 95,
      "componentType": 5126,
      "count": 1,
      "max": [
        0.8666666746139526
      ],
      "min": [
        0.8666666746139526
      ],
      "name": "Bip001 L Calf/scale/Input",
      "type": "SCALAR"
    },
    {
      "bufferView": 96,
      "componentType": 5126,
      "count": 7,
      "name": "Bip001 L Foot/translation/Output",
      "type": "VEC3"
    },
    {
      "bufferView": 97,
      "componentType": 5126,
      "count": 7,
      "max": [
        0.8666666746139526
      ],
      "min": [
        0.4000000059604645
      ],
      "name": "Bip001 L Foot/translation/Input",
      "type": "SCALAR"
    },
    {
      "bufferView": 98,
      "componentType": 5126,
      "count": 27,
      "name": "Bip001 L Foot/rotation/Output",
      "type": "VEC4"
    },
    {
      "bufferView": 99,
      "componentType": 5126,
      "count": 27,
      "max": [
        0.8666666746139526
      ],
      "min": [
        0.0
      ],
      "name": "Bip001 L Foot/rotation/Input",
      "type": "SCALAR"
    },
    {
      "bufferView": 100,
      "componentType": 5126,
      "count": 1,
      "name": "Bip001 L Foot/scale/Output",
      "type": "VEC3"
    },
    {
      "bufferView": 101,
      "componentType": 5126,
      "count": 1,
      "max": [
        0.8666666746139526
      ],
      "min": [
        0.8666666746139526
      ],
      "name": "Bip001 L Foot/scale/Input",
      "type": "SCALAR"
    },
    {
      "bufferView": 102,
      "componentType": 5126,
      "count": 1,
      "name": "Bip001 L Toe0/translation/Output",
      "type": "VEC3"
    },
    {
      "bufferView": 103,
      "componentType": 5126,
      "count": 1,
      "max": [
        0.8666666746139526
      ],
      "min": [
        0.8666666746139526
      ],
      "name": "Bip001 L Toe0/translation/Input",
      "type": "SCALAR"
    },
    {
      "bufferView": 104,
      "componentType": 5126,
      "count": 23,
      "name": "Bip001 L Toe0/rotation/Output",
      "type": "VEC4"
    },
    {
      "bufferView": 105,
      "componentType": 5126,
      "count": 23,
      "max": [
        0.8666666746139526
      ],
      "min": [
        0.0
      ],
      "name": "Bip001 L Toe0/rotation/Input",
      "type": "SCALAR"
    },
    {
      "bufferView": 106,
      "componentType": 5126,
      "count": 1,
      "name": "Bip001 L Toe0/scale/Output",
      "type": "VEC3"
    },
    {
      "bufferView": 107,
      "componentType": 5126,
      "count": 1,
      "max": [
        0.8666666746139526
      ],
      "min": [
        0.8666666746139526
      ],
      "name": "Bip001 L Toe0/scale/Input",
      "type": "SCALAR"
    },
    {
      "bufferView": 108,
      "componentType": 5126,
      "count": 27,
      "name": "Bip001 R Thigh/translation/Output",
      "type": "VEC3"
    },
    {
      "bufferView": 109,
      "componentType": 5126,
      "count": 27,
      "max": [
        0.8666666746139526
      ],
      "min": [
        0.0
      ],
      "name": "Bip001 R Thigh/translation/Input",
      "type": "SCALAR"
    },
    {
      "bufferView": 110,
      "componentType": 5126,
      "count": 27,
      "name": "Bip001 R Thigh/rotation/Output",
      "type": "VEC4"
    },
    {
      "bufferView": 111,
      "componentType": 5126,
      "count": 27,
      "max": [
        0.8666666746139526
      ],
      "min": [
        0.0
      ],
      "name": "Bip001 R Thigh/rotation/Input",
      "type": "SCALAR"
    },
    {
      "bufferView": 112,
      "componentType": 5126,
      "count": 1,
      "name": "Bip001 R Thigh/scale/Output",
      "type": "VEC3"
    },
    {
      "bufferView": 113,
      "componentType": 5126,
      "count": 1,
      "max": [
        0.8666666746139526
      ],
      "min": [
        0.8666666746139526
      ],
      "name": "Bip001 R Thigh/scale/Input",
      "type": "SCALAR"
    },
    {
      "bufferView": 114,
      "componentType": 5126,
      "count": 6,
      "name": "Bip001 R Calf/translation/Output",
      "type": "VEC3"
    },
    {
      "bufferView": 115,
      "componentType": 5126,
      "count": 6,
      "max": [
        0.6333333253860474
      ],
      "min": [
        0.13333334028720856
      ],
      "name": "Bip001 R Calf/translation/Input",
      "type": "SCALAR"
    },
    {
      "bufferView": 116,
      "componentType": 5126,
      "count": 26,
      "name": "Bip001 R Calf/rotation/Output",
      "type": "VEC4"
    },
    {
      "bufferView": 117,
      "componentType": 5126,
      "count": 26,
      "max": [
        0.8666666746139526
      ],
      "min": [
        0.0
      ],
      "name": "Bip001 R Calf/rotation/Input",
      "type": "SCALAR"
    },
    {
      "bufferView": 118,
      "componentType": 5126,
      "count": 1,
      "name": "Bip001 R Calf/scale/Output",
      "type": "VEC3"
    },
    {
      "bufferView": 119,
      "componentType": 5126,
      "count": 1,
      "max": [
        0.8666666746139526
      ],
      "min": [
        0.8666666746139526
      ],
      "name": "Bip001 R Calf/scale/Input",
      "type": "SCALAR"
    },
    {
      "bufferView": 120,
      "componentType": 5126,
      "count": 7,
      "name": "Bip001 R Foot/translation/Output",
      "type": "VEC3"
    },
    {
      "bufferView": 121,
      "componentType": 5126,
      "count": 7,
      "max": [
        0.5666666626930237
      ],
      "min": [
        0.06666667014360428
      ],
      "name": "Bip001 R Foot/translation/Input",
      "type": "SCALAR"
    },
    {
      "bufferView": 122,
      "componentType": 5126,
      "count": 27,
      "name": "Bip001 R Foot/rotation/Output",
      "type": "VEC4"
    },
    {
      "bufferView": 123,
      "componentType": 5126,
      "count": 27,
      "max": [
        0.8666666746139526
      ],
      "min": [
        0.0
      ],
      "name": "Bip001 R Foot/rotation/Input",
      "type": "SCALAR"
    },
    {
      "bufferView": 124,
      "componentType": 5126,
      "count": 1,
      "name": "Bip001 R Foot/scale/Output",
      "type": "VEC3"
    },
    {
      "bufferView": 125,
      "componentType": 5126,
      "count": 1,
      "max": [
        0.8666666746139526
      ],
      "min": [
        0.8666666746139526
      ],
      "name": "Bip001 R Foot/scale/Input",
      "type": "SCALAR"
    },
    {
      "bufferView": 126,
      "componentType": 5126,
      "count": 1,
      "name": "Bip001 R Toe0/translation/Output",
      "type": "VEC3"
    },
    {
      "bufferView": 127,
      "componentType": 5126,
      "count": 1,
      "max": [
        0.8666666746139526
      ],
      "min": [
        0.8666666746139526
      ],
      "name": "Bip001 R Toe0/translation/Input",
      "type": "SCALAR"
    },
    {
      "bufferView": 128,
      "componentType": 5126,
      "count": 25,
      "name": "Bip001 R Toe0/rotation/Output",
      "type": "VEC4"
    },
    {
      "bufferView": 129,
      "componentType": 5126,
      "count": 25,
      "max": [
        0.8666666746139526
      ],
      "min": [
        0.0
      ],
      "name": "Bip001 R Toe0/rotation/Input",
      "type": "SCALAR"
    },
    {
      "bufferView": 130,
      "componentType": 5126,
      "count": 1,
      "name": "Bip001 R Toe0/scale/Output",
      "type": "VEC3"
    },
    {
      "bufferView": 131,
      "componentType": 5126,
      "count": 1,
      "max": [
        0.8666666746139526
      ],
      "min": [
        0.8666666746139526
      ],
      "name": "Bip001 R Toe0/scale/Input",
      "type": "SCALAR"
    }
  ],
  "animations": [
    {
      "channels": [
        {
          "sampler": 0,
          "target": {
            "node": 0,
            "path": "translation"
          }
        },
        {
          "sampler": 1,
          "target": {
            "node": 0,
            "path": "rotation"
          }
        },
        {
          "sampler": 2,
          "target": {
            "node": 0,
            "path": "scale"
          }
        },
        {
          "sampler": 3,
          "target": {
            "node": 1,
            "path": "translation"
          }
        },
        {
          "sampler": 4,
          "target": {
            "node": 1,
            "path": "rotation"
          }
        },
        {
          "sampler": 5,
          "target": {
            "node": 1,
            "path": "scale"
          }
        },
        {
          "sampler": 6,
          "target": {
            "node": 2,
            "path": "translation"
          }
        },
        {
          "sampler": 7,
          "target": {
            "node": 2,
            "path": "rotation"
          }
        },
        {
          "sampler": 8,
          "target": {
            "node": 2,
            "path": "scale"
          }
        },
        {
          "sampler": 9,
          "target": {
            "node": 3,
            "path": "translation"
          }
        },
        {
          "sampler": 10,
          "target": {
            "node": 3,
            "path": "rotation"
          }
        },
        {
          "sampler": 11,
          "target": {
            "node": 3,
            "path": "scale"
          }
        },
        {
          "sampler": 12,
          "target": {
            "node": 4,
            "path": "translation"
          }
        },
        {
          "sampler": 13,
          "target": {
            "node": 4,
            "path": "rotation"
          }
        },
        {
          "sampler": 14,
          "target": {
            "node": 4,
            "path": "scale"
          }
        },
        {
          "sampler": 15,
          "target": {
            "node": 5,
            "path": "translation"
          }
        },
        {
          "sampler": 16,
          "target": {
            "node": 5,
            "path": "rotation"
          }
        },
        {
          "sampler": 17,
          "target": {
            "node": 5,
            "path": "scale"
          }
        },
        {
          "sampler": 18,
          "target": {
            "node": 6,
            "path": "translation"
          }
        },
        {
          "sampler": 19,
          "target": {
            "node": 6,
            "path": "rotation"
          }
        },
        {
          "sampler": 20,
          "target": {
            "node": 6,
            "path": "scale"
          }
        },
        {
          "sampler": 21,
          "target": {
            "node": 7,
            "path": "translation"
          }
        },
        {
          "sampler": 22,
          "target": {
            "node": 7,
            "path": "rotation"
          }
        },
        {
          "sampler": 23,
          "target": {
            "node": 7,
            "path": "scale"
          }
        },
        {
          "sampler": 24,
          "target": {
            "node": 8,
            "path": "translation"
          }
        },
        {
          "sampler": 25,
          "target": {
            "node": 8,
            "path": "rotation"
          }
        },
        {
          "sampler": 26,
          "target": {
            "node": 8,
            "path": "scale"
          }
        },
        {
          "sampler": 27,
          "target": {
            "node": 9,
            "path": "translation"
          }
        },
        {
          "sampler": 28,
          "target": {
            "node": 9,
            "path": "rotation"
          }
        },
        {
          "sampler": 29,
          "target": {
            "node": 9,
            "path": "scale"
          }
        },
        {
          "sampler": 30,
          "target": {
            "node": 10,
            "path": "translation"
          }
        },
        {
          "sampler": 31,
          "target": {
            "node": 10,
            "path": "rotation"
          }
        },
        {
          "sampler": 32,
          "target": {
            "node": 10,
            "path": "scale"
          }
        },
        {
          "sampler": 33,
          "target": {
            "node": 11,
            "path": "translation"
          }
        },
        {
          "sampler": 34,
          "target": {
            "node": 11,
            "path": "rotation"
          }
        },
        {
          "sampler": 35,
          "target": {
            "node": 11,
            "path": "scale"
          }
        },
        {
          "sampler": 36,
          "target": {
            "node": 12,
            "path": "translation"
          }
        },
        {
          "sampler": 37,
          "target": {
            "node": 12,
            "path": "rotation"
          }
        },
        {
          "sampler": 38,
          "target": {
            "node": 12,
            "path": "scale"
          }
        },
        {
          "sampler": 39,
          "target": {
            "node": 13,
            "path": "translation"
          }
        },
        {
          "sampler": 40,
          "target": {
            "node": 13,
            "path": "rotation"
          }
        },
        {
          "sampler": 41,
          "target": {
            "node": 13,
            "path": "scale"
          }
        },
        {
          "sampler": 42,
          "target": {
            "node": 14,
            "path": "translation"
          }
        },
        {
          "sampler": 43,
          "target": {
            "node": 14,
            "path": "rotation"
          }
        },
        {
          "sampler": 44,
          "target": {
            "node": 14,
            "path": "scale"
          }
        },
        {
          "sampler": 45,
          "target": {
            "node": 15,
            "path": "translation"
          }
        },
        {
          "sampler": 46,
          "target": {
            "node": 15,
            "path": "rotation"
          }
        },
        {
          "sampler": 47,
          "target": {
            "node": 15,
            "path": "scale"
          }
        },
        {
          "sampler": 48,
          "target": {
            "node": 16,
            "path": "translation"
          }
        },
        {
          "sampler": 49,
          "target": {
            "node": 16,
            "path": "rotation"
          }
        },
        {
          "sampler": 50,
          "target": {
            "node": 16,
            "path": "scale"
          }
        },
        {
          "sampler": 51,
          "target": {
            "node": 17,
            "path": "translation"
          }
        },
        {
          "sampler": 52,
          "target": {
            "node": 17,
            "path": "rotation"
          }
        },
        {
          "sampler": 53,
          "target": {
            "node": 17,
            "path": "scale"
          }
        },
        {
          "sampler": 54,
          "target": {
            "node": 18,
            "path": "translation"
          }
        },
        {
          "sampler": 55,
          "target": {
            "node": 18,
            "path": "rotation"
          }
        },
        {
          "sampler": 56,
          "target": {
            "node": 18,
            "path": "scale"
          }
        },
        {
          "sampler": 57,
          "target": {
            "node": 19,
            "path": "translation"
          }
        },
        {
          "sampler": 58,
          "target": {
            "node": 19,
            "path": "rotation"
          }
        },
        {
          "sampler": 59,
          "target": {
            "node": 19,
            "path": "scale"
          }
        },
        {
          "sampler": 60,
          "target": {
            "node": 20,
            "path": "translation"
          }
        },
        {
          "sampler": 61,
          "target": {
            "node": 20,
            "path": "rotation"
          }
        },
        {
          "sampler": 62,
          "target": {
            "node": 20,
            "path": "scale"
          }
        },
        {
          "sampler": 63,
          "target": {
            "node": 21,
            "path": "translation"
          }
        },
        {
          "sampler": 64,
          "target": {
            "node": 21,
            "path": "rotation"
          }
        },
        {
          "sampler": 65,
          "target": {
            "node": 21,
            "path": "scale"
          }
        }
      ],
      "name": "Take 001",
      "samplers": [
        {
          "input": 1,
          "output": 0
        },
        {
          "input": 3,
          "output": 2
        },
        {
          "input": 5,
          "output": 4
        },
        {
          "input": 7,
          "output": 6
        },
        {
          "input": 9,
          "output": 8
        },
        {
          "input": 11,
          "output": 10
        },
        {
          "input": 13,
          "output": 12
        },
        {
          "input": 15,
          "output": 14
        },
        {
          "input": 17,
          "output": 16
        },
        {
          "input": 19,
          "output": 18
        },
        {
          "input": 21,
          "output": 20
        },
        {
          "input": 23,
          "output": 22
        },
        {
          "input": 25,
          "output": 24
        },
        {
          "input": 27,
          "output": 26
        },
        {
          "input": 29,
          "output": 28
        },
        {
          "input": 31,
          "output": 30
        },
        {
          "input": 33,
          "output": 32
        },
        {
          "input": 35,
          "output": 34
        },
        {
          "input": 37,
          "output": 36
        },
        {
          "input": 39,
          "output": 38
        },
        {
          "input": 41,
          "output": 40
        },
        {
          "input": 43,
          "output": 42
        },
        {
          "input": 45,
          "output": 44
        },
        {
          "input": 47,
          "output": 46
        },
        {
          "input": 49,
          "output": 48
        },
        {
          "input": 51,
          "output": 50
        },
        {
          "input": 53,
          "output": 52
        },
        {
          "input": 55,
          "output": 54
        },
        {
          "input": 57,
          "output": 56
        },
        {
          "input": 59,
          "output": 58
        },
        {
          "input": 61,
          "output": 60
        },
        {
          "input": 63,
          "output": 62
        },
        {
          "input": 65,
          "output": 64
        },
        {
          "input": 67,
          "output": 66
        },
        {
          "input": 69,
          "output": 68
        },
        {
          "input": 71,
          "output": 70
        },
        {
          "input": 73,
          "output": 72
        },
        {
          "input": 75,
          "output": 74
        },
        {
          "input": 77,
          "output": 76
        },
        {
          "input": 79,
          "output": 78
        },
        {
          "input": 81,
          "output": 80
        },
        {
          "input": 83,
          "output": 82
        },
        {
          "input": 85,
          "output": 84
        },
        {
          "input": 87,
          "output": 86
        },
        {
          "input": 89,
          "output": 88
        },
        {
          "input": 91,
          "output": 90
        },
        {
          "input": 93,
          "output": 92
        },
        {
          "input": 95,
          "output": 94
        },
        {
          "input": 97,
          "output": 96
        },
        {
          "input": 99,
          "output": 98
        },
        {
          "input": 101,
          "output": 100
        },
        {
          "input": 103,
          "output": 102
        },
        {
          "input": 105,
          "output": 104
        },
        {
          "input": 107,
          "output": 106
        },
        {
          "input": 109,
          "output": 108
        },
        {
          "input": 111,
          "output": 110
        },
        {
          "input": 113,
          "output": 112
        },
        {
          "input": 115,
          "output": 114
        },
        {
          "input": 117,
          "output": 116
        },
        {
          "input": 119,
          "output": 118
        },
        {
          "input": 121,
          "output": 120
        },
        {
          "input": 123,
          "output": 122
        },
        {
          "input": 125,
          "output": 124
        },
        {
          "input": 127,
          "output": 126
        },
        {
          "input": 129,
          "output": 128
        },
        {
          "input": 131,
          "output": 130
        }
      ]
    }
  ],
  "asset": {
    "copyright": "Copyright (c) 2018-2020 Chukong Technologies Inc.",
    "generator": "FBX-glTF-conv",
    "version": "2.0"
  },
  "bufferViews": [
    {
      "buffer": 0,
      "byteLength": 312
    },
    {
      "buffer": 0,
      "byteLength": 104,
      "byteOffset": 312
    },
    {
      "buffer": 0,
      "byteLength": 416,
      "byteOffset": 416
    },
    {
      "buffer": 0,
      "byteLength": 104,
      "byteOffset": 832
    },
    {
      "buffer": 0,
      "byteLength": 12,
      "byteOffset": 936
    },
    {
      "buffer": 0,
      "byteLength": 4,
      "byteOffset": 948
    },
    {
      "buffer": 0,
      "byteLength": 12,
      "byteOffset": 952
    },
    {
      "buffer": 0,
      "byteLength": 4,
      "byteOffset": 964
    },
    {
      "buffer": 0,
      "byteLength": 16,
      "byteOffset": 968
    },
    {
      "buffer": 0,
      "byteLength": 4,
      "byteOffset": 984
    },
    {
      "buffer": 0,
      "byteLength": 12,
      "byteOffset": 988
    },
    {
      "buffer": 0,
      "byteLength": 4,
      "byteOffset": 1000
    },
    {
      "buffer": 0,
      "byteLength": 312,
      "byteOffset": 1004
    },
    {
      "buffer": 0,
      "byteLength": 104,
      "byteOffset": 1316
    },
    {
      "buffer": 0,
      "byteLength": 400,
      "byteOffset": 1420
    },
    {
      "buffer": 0,
      "byteLength": 100,
      "byteOffset": 1820
    },
    {
      "buffer": 0,
      "byteLength": 12,
      "byteOffset": 1920
    },
    {
      "buffer": 0,
      "byteLength": 4,
      "byteOffset": 1932
    },
    {
      "buffer": 0,
      "byteLength": 312,
      "byteOffset": 1936
    },
    {
      "buffer": 0,
      "byteLength": 104,
      "byteOffset": 2248
    },
    {
      "buffer": 0,
      "byteLength": 400,
      "byteOffset": 2352
    },
    {
      "buffer": 0,
      "byteLength": 100,
      "byteOffset": 2752
    },
    {
      "buffer": 0,
      "byteLength": 12,
      "byteOffset": 2852
    },
    {
      "buffer": 0,
      "byteLength": 4,
      "byteOffset": 2864
    },
    {
      "buffer": 0,
      "byteLength": 156,
      "byteOffset": 2868
    },
    {
      "buffer": 0,
      "byteLength": 52,
      "byteOffset": 3024
    },
    {
      "buffer": 0,
      "byteLength": 16,
      "byteOffset": 3076
    },
    {
      "buffer": 0,
      "byteLength": 4,
      "byteOffset": 3092
    },
    {
      "buffer": 0,
      "byteLength": 12,
      "byteOffset": 3096
    },
    {
      "buffer": 0,
      "byteLength": 4,
      "byteOffset": 3108
    },
    {
      "buffer": 0,
      "byteLength": 240,
      "byteOffset": 3112
    },
    {
      "buffer": 0,
      "byteLength": 80,
      "byteOffset": 3352
    },
    {
      "buffer": 0,
      "byteLength": 432,
      "byteOffset": 3432
    },
    {
      "buffer": 0,
      "byteLength": 108,
      "byteOffset": 3864
    },
    {
      "buffer": 0,
      "byteLength": 12,
      "byteOffset": 3972
    },
    {
      "buffer": 0,
      "byteLength": 4,
      "byteOffset": 3984
    },
    {
      "buffer": 0,
      "byteLength": 180,
      "byteOffset": 3988
    },
    {
      "buffer": 0,
      "byteLength": 60,
      "byteOffset": 4168
    },
    {
      "buffer": 0,
      "byteLength": 432,
      "byteOffset": 4228
    },
    {
      "buffer": 0,
      "byteLength": 108,
      "byteOffset": 4660
    },
    {
      "buffer": 0,
      "byteLength": 12,
      "byteOffset": 4768
    },
    {
      "buffer": 0,
      "byteLength": 4,
      "byteOffset": 4780
    },
    {
      "buffer": 0,
      "byteLength": 204,
      "byteOffset": 4784
    },
    {
      "buffer": 0,
      "byteLength": 68,
      "byteOffset": 4988
    },
    {
      "buffer": 0,
      "byteLength": 384,
      "byteOffset": 5056
    },
    {
      "buffer": 0,
      "byteLength": 96,
      "byteOffset": 5440
    },
    {
      "buffer": 0,
      "byteLength": 12,
      "byteOffset": 5536
    },
    {
      "buffer": 0,
      "byteLength": 4,
      "byteOffset": 5548
    },
    {
      "buffer": 0,
      "byteLength": 180,
      "byteOffset": 5552
    },
    {
      "buffer": 0,
      "byteLength": 60,
      "byteOffset": 5732
    },
    {
      "buffer": 0,
      "byteLength": 384,
      "byteOffset": 5792
    },
    {
      "buffer": 0,
      "byteLength": 96,
      "byteOffset": 6176
    },
    {
      "buffer": 0,
      "byteLength": 12,
      "byteOffset": 6272
    },
    {
      "buffer": 0,
      "byteLength": 4,
      "byteOffset": 6284
    },
    {
      "buffer": 0,
      "byteLength": 240,
      "byteOffset": 6288
    },
    {
      "buffer": 0,
      "byteLength": 80,
      "byteOffset": 6528
    },
    {
      "buffer": 0,
      "byteLength": 432,
      "byteOffset": 6608
    },
    {
      "buffer": 0,
      "byteLength": 108,
      "byteOffset": 7040
    },
    {
      "buffer": 0,
      "byteLength": 12,
      "byteOffset": 7148
    },
    {
      "buffer": 0,
      "byteLength": 4,
      "byteOffset": 7160
    },
    {
      "buffer": 0,
      "byteLength": 192,
      "byteOffset": 7164
    },
    {
      "buffer": 0,
      "byteLength": 64,
      "byteOffset": 7356
    },
    {
      "buffer": 0,
      "byteLength": 432,
      "byteOffset": 7420
    },
    {
      "buffer": 0,
      "byteLength": 108,
      "byteOffset": 7852
    },
    {
      "buffer": 0,
      "byteLength": 12,
      "byteOffset": 7960
    },
    {
      "buffer": 0,
      "byteLength": 4,
      "byteOffset": 7972
    },
    {
      "buffer": 0,
      "byteLength": 180,
      "byteOffset": 7976
    },
    {
      "buffer": 0,
      "byteLength": 60,
      "byteOffset": 8156
    },
    {
      "buffer": 0,
      "byteLength": 416,
      "byteOffset": 8216
    },
    {
      "buffer": 0,
      "byteLength": 104,
      "byteOffset": 8632
    },
    {
      "buffer": 0,
      "byteLength": 12,
      "byteOffset": 8736
    },
    {
      "buffer": 0,
      "byteLength": 4,
      "byteOffset": 8748
    },
    {
      "buffer": 0,
      "byteLength": 132,
      "byteOffset": 8752
    },
    {
      "buffer": 0,
      "byteLength": 44,
      "byteOffset": 8884
    },
    {
      "buffer": 0,
      "byteLength": 416,
      "byteOffset": 8928
    },
    {
      "buffer": 0,
      "byteLength": 104,
      "byteOffset": 9344
    },
    {
      "buffer": 0,
      "byteLength": 12,
      "byteOffset": 9448
    },
    {
      "buffer": 0,
      "byteLength": 4,
      "byteOffset": 9460
    },
    {
      "buffer": 0,
      "byteLength": 180,
      "byteOffset": 9464
    },
    {
      "buffer": 0,
      "byteLength": 60,
      "byteOffset": 9644
    },
    {
      "buffer": 0,
      "byteLength": 432,
      "byteOffset": 9704
    },
    {
      "buffer": 0,
      "byteLength": 108,
      "byteOffset": 10136
    },
    {
      "buffer": 0,
      "byteLength": 12,
      "byteOffset": 10244
    },
    {
      "buffer": 0,
      "byteLength": 4,
      "byteOffset": 10256
    },
    {
      "buffer": 0,
      "byteLength": 324,
      "byteOffset": 10260
    },
    {
      "buffer": 0,
      "byteLength": 108,
      "byteOffset": 10584
    },
    {
      "buffer": 0,
      "byteLength": 432,
      "byteOffset": 10692
    },
    {
      "buffer": 0,
      "byteLength": 108,
      "byteOffset": 11124
    },
    {
      "buffer": 0,
      "byteLength": 12,
      "byteOffset": 11232
    },
    {
      "buffer": 0,
      "byteLength": 4,
      "byteOffset": 11244
    },
    {
      "buffer": 0,
      "byteLength": 84,
      "byteOffset": 11248
    },
    {
      "buffer": 0,
      "byteLength": 28,
      "byteOffset": 11332
    },
    {
      "buffer": 0,
      "byteLength": 432,
      "byteOffset": 11360
    },
    {
      "buffer": 0,
      "byteLength": 108,
      "byteOffset": 11792
    },
    {
      "buffer": 0,
      "byteLength": 12,
      "byteOffset": 11900
    },
    {
      "buffer": 0,
      "byteLength": 4,
      "byteOffset": 11912
    },
    {
      "buffer": 0,
      "byteLength": 84,
      "byteOffset": 11916
    },
    {
      "buffer": 0,
      "byteLength": 28,
      "byteOffset": 12000
    },
    {
      "buffer": 0,
      "byteLength": 432,
      "byteOffset": 12028
    },
    {
      "buffer": 0,
      "byteLength": 108,
      "byteOffset": 12460
    },
    {
      "buffer": 0,
      "byteLength": 12,
      "byteOffset": 12568
    },
    {
      "buffer": 0,
      "byteLength": 4,
      "byteOffset": 12580
    },
    {
      "buffer": 0,
      "byteLength": 12,
      "byteOffset": 12584
    },
    {
      "buffer": 0,
      "byteLength": 4,
      "byteOffset": 12596
    },
    {
      "buffer": 0,
      "byteLength": 368,
      "byteOffset": 12600
    },
    {
      "buffer": 0,
      "byteLength": 92,
      "byteOffset": 12968
    },
    {
      "buffer": 0,
      "byteLength": 12,
      "byteOffset": 13060
    },
    {
      "buffer": 0,
      "byteLength": 4,
      "byteOffset": 13072
    },
    {
      "buffer": 0,
      "byteLength": 324,
      "byteOffset": 13076
    },
    {
      "buffer": 0,
      "byteLength": 108,
      "byteOffset": 13400
    },
    {
      "buffer": 0,
      "byteLength": 432,
      "byteOffset": 13508
    },
    {
      "buffer": 0,
      "byteLength": 108,
      "byteOffset": 13940
    },
    {
      "buffer": 0,
      "byteLength": 12,
      "byteOffset": 14048
    },
    {
      "buffer": 0,
      "byteLength": 4,
      "byteOffset": 14060
    },
    {
      "buffer": 0,
      "byteLength": 72,
      "byteOffset": 14064
    },
    {
      "buffer": 0,
      "byteLength": 24,
      "byteOffset": 14136
    },
    {
      "buffer": 0,
      "byteLength": 416,
      "byteOffset": 14160
    },
    {
      "buffer": 0,
      "byteLength": 104,
      "byteOffset": 14576
    },
    {
      "buffer": 0,
      "byteLength": 12,
      "byteOffset": 14680
    },
    {
      "buffer": 0,
      "byteLength": 4,
      "byteOffset": 14692
    },
    {
      "buffer": 0,
      "byteLength": 84,
      "byteOffset": 14696
    },
    {
      "buffer": 0,
      "byteLength": 28,
      "byteOffset": 14780
    },
    {
      "buffer": 0,
      "byteLength": 432,
      "byteOffset": 14808
    },
    {
      "buffer": 0,
      "byteLength": 108,
      "byteOffset": 15240
    },
    {
      "buffer": 0,
      "byteLength": 12,
      "byteOffset": 15348
    },
    {
      "buffer": 0,
      "byteLength": 4,
      "byteOffset": 15360
    },
    {
      "buffer": 0,
      "byteLength": 12,
      "byteOffset": 15364
    },
    {
      "buffer": 0,
      "byteLength": 4,
      "byteOffset": 15376
    },
    {
      "buffer": 0,
      "byteLength": 400,
      "byteOffset": 15380
    },
    {
      "buffer": 0,
      "byteLength": 100,
      "byteOffset": 15780
    },
    {
      "buffer": 0,
      "byteLength": 12,
      "byteOffset": 15880
    },
    {
      "buffer": 0,
      "byteLength": 4,
      "byteOffset": 15892
    }
  ],
  "buffers": [
    {
      "byteLength": 15896,
      "uri": "out.bin"
    }
  ],
  "extras": {
    "FBX-glTF-conv": {
      "animationFrameRate": 30.0,
      "fbxFileHeaderInfo": {
        "creationTimeStamp": {
          "day": 21,
          "hour": 10,
          "millisecond": 799,
          "minute": 53,
          "month": 5,
          "second": 54,
          "year": 2026
        },
        "creator": "FBX SDK/FBX Plugins version 2020.3.2",
        "sceneInfo": {
          "author": "",
          "comment": "",
          "keywords": "",
          "original": {
            "applicationName": "3ds Max",
            "applicationVendor": "Autodesk",
            "applicationVersion": "2024",
            "fileName": "\\\\192.168.5.190\\Playable\\T-The War\\1.美术资源\\3D模型\\BOSS\\fbx\\跑.fbx"
          },
          "revision": "",
          "subject": "",
          "title": "",
          "url": "D:\\工程项目\\test_pro\\test_pro\\HYQ_Project\\assets\\GameRes\\FBX\\Monster_boos\\跑.fbx"
        }
      }
    }
  },
  "nodes": [
    {
      "children": [
        1
      ],
      "extras": {
        "FBX-glTF-conv": {
          "skeleton": {
            "skeletonType": "Root"
          }
        }
      },
      "name": "Bip001",
      "rotation": [
        -0.5471300482749939,
        -0.4625873565673828,
        -0.45268598198890686,
        0.5307890772819519
      ],
      "translation": [
        -0.002829070668667555,
        0.8167604207992554,
        0.0010268115438520908
      ]
    },
    {
      "children": [
        2
      ],
      "extras": {
        "FBX-glTF-conv": {
          "skeleton": {
            "skeletonType": "LimbNode"
          }
        }
      },
      "name": "Bip001 Pelvis",
      "rotation": [
        -0.5,
        -0.5,
        -0.4999993145465851,
        0.5000007152557373
      ]
    },
    {
      "children": [
        3,
        14,
        18
      ],
      "extras": {
        "FBX-glTF-conv": {
          "skeleton": {
            "skeletonType": "LimbNode"
          }
        }
      },
      "name": "Bip001 Spine",
      "rotation": [
        -0.13801325857639313,
        0.009313030168414116,
        0.004181234166026115,
        0.9903777837753296
      ],
      "translation": [
        0.1204831674695015,
        -0.00019710302876774222,
        5.61767810722813e-05
      ]
    },
    {
      "children": [
        4
      ],
      "extras": {
        "FBX-glTF-conv": {
          "skeleton": {
            "skeletonType": "LimbNode"
          }
        }
      },
      "name": "Bip001 Spine1",
      "rotation": [
        0.028881557285785675,
        0.0076605346985161304,
        0.04092569649219513,
        0.9987152814865112
      ],
      "translation": [
        0.2574259042739868,
        -0.00028032183763571084,
        -1.6429425159003586e-05
      ]
    },
    {
      "children": [
        5,
        9,
        13
      ],
      "extras": {
        "FBX-glTF-conv": {
          "skeleton": {
            "skeletonType": "LimbNode"
          }
        }
      },
      "name": "Bip001 Neck",
      "rotation": [
        2.7518864964548584e-09,
        -6.103341547714081e-07,
        0.2195538729429245,
        0.9756003618240356
      ],
      "translation": [
        0.35110679268836975,
        0.06282266974449158,
        1.1205673189351728e-07
      ]
    },
    {
      "children": [
        6
      ],
      "extras": {
        "FBX-glTF-conv": {
          "skeleton": {
            "skeletonType": "LimbNode"
          }
        }
      },
      "name": "Bip001 L Clavicle",
      "rotation": [
        0.6604204177856445,
        -0.12633541226387024,
        0.7174060940742493,
        0.18224342167377472
      ],
      "translation": [
        -0.14825324714183807,
        -0.03934593126177788,
        0.08091886341571808
      ]
    },
    {
      "children": [
        7
      ],
      "extras": {
        "FBX-glTF-conv": {
          "skeleton": {
            "skeletonType": "LimbNode"
          }
        }
      },
      "name": "Bip001 L UpperArm",
      "rotation": [
        0.2668435573577881,
        0.37785935401916504,
        -0.18944688141345978,
        0.8660985827445984
      ],
      "translation": [
        0.1883077174425125,
        -9.53674295089968e-09,
        2.8421708795129297e-16
      ]
    },
    {
      "children": [
        8
      ],
      "extras": {
        "FBX-glTF-conv": {
          "skeleton": {
            "skeletonType": "LimbNode"
          }
        }
      },
      "name": "Bip001 L Forearm",
      "rotation": [
        2.448020177899249e-17,
        -1.3080201236036739e-17,
        -0.47126391530036926,
        0.8819922208786011
      ],
      "translation": [
        0.5471746921539307,
        -7.105427198782324e-17,
        -7.629394360719743e-08
      ]
    },
    {
      "extras": {
        "FBX-glTF-conv": {
          "skeleton": {
            "skeletonType": "LimbNode"
          }
        }
      },
      "name": "Bip001 L Hand",
      "rotation": [
        -0.7357588410377502,
        0.04043392091989517,
        0.08369636535644531,
        0.6708345413208008
      ],
      "translation": [
        0.45311206579208374,
        1.1102230411687688e-17,
        7.629394360719743e-08
      ]
    },
    {
      "children": [
        10
      ],
      "extras": {
        "FBX-glTF-conv": {
          "skeleton": {
            "skeletonType": "LimbNode"
          }
        }
      },
      "name": "Bip001 R Clavicle",
      "rotation": [
        -0.580112874507904,
        0.25411510467529297,
        0.770355224609375,
        0.07380601018667221
      ],
      "translation": [
        -0.14825324714183807,
        -0.03934547305107117,
        -0.08091896027326584
      ]
    },
    {
      "children": [
        11
      ],
      "extras": {
        "FBX-glTF-conv": {
          "skeleton": {
            "skeletonType": "LimbNode"
          }
        }
      },
      "name": "Bip001 R UpperArm",
      "rotation": [
        -0.29351451992988586,
        -0.4110511541366577,
        0.16296568512916565,
        0.8475425243377686
      ],
      "translation": [
        0.1883077472448349,
        1.776356799695581e-17,
        1.5258788721439487e-07
      ]
    },
    {
      "children": [
        12
      ],
      "extras": {
        "FBX-glTF-conv": {
          "skeleton": {
            "skeletonType": "LimbNode"
          }
        }
      },
      "name": "Bip001 R Forearm",
      "rotation": [
        7.20109775037735e-18,
        7.442869408536799e-18,
        -0.41439157724380493,
        0.910098671913147
      ],
      "translation": [
        0.547174870967865,
        -7.629394360719743e-08,
        3.814697180359872e-08
      ]
    },
    {
      "extras": {
        "FBX-glTF-conv": {
          "skeleton": {
            "skeletonType": "LimbNode"
          }
        }
      },
      "name": "Bip001 R Hand",
      "rotation": [
        0.73936927318573,
        -0.09444883465766907,
        0.06708735227584839,
        0.66325843334198
      ],
      "translation": [
        0.4531121850013733,
        0.0,
        0.0
      ]
    },
    {
      "extras": {
        "FBX-glTF-conv": {
          "skeleton": {
            "skeletonType": "LimbNode"
          }
        }
      },
      "name": "Bip001 Head",
      "rotation": [
        -0.007190233562141657,
        -0.031306955963373184,
        -0.10689330101013184,
        0.9937514662742615
      ],
      "translation": [
        0.06890808045864105,
        -7.629394360719743e-08,
        4.76837147544984e-09
      ]
    },
    {
      "children": [
        15
      ],
      "extras": {
        "FBX-glTF-conv": {
          "skeleton": {
            "skeletonType": "LimbNode"
          }
        }
      },
      "name": "Bip001 L Thigh",
      "rotation": [
        -0.20162835717201233,
        0.9789375066757202,
        0.015520390123128891,
        -0.028043856844305992
      ],
      "translation": [
        -0.12202415615320206,
        -0.02035287767648697,
        0.07486236840486526
      ]
    },
    {
      "children": [
        16
      ],
      "extras": {
        "FBX-glTF-conv": {
          "skeleton": {
            "skeletonType": "LimbNode"
          }
        }
      },
      "name": "Bip001 L Calf",
      "rotation": [
        8.886478248454144e-18,
        1.2718952437380743e-17,
        -0.1456717550754547,
        0.9893329739570618
      ],
      "translation": [
        0.42956435680389404,
        0.0,
        1.776356799695581e-17
      ]
    },
    {
      "children": [
        17
      ],
      "extras": {
        "FBX-glTF-conv": {
          "skeleton": {
            "skeletonType": "LimbNode"
          }
        }
      },
      "name": "Bip001 L Foot",
      "rotation": [
        -0.09809807687997818,
        -0.09804360568523407,
        0.015392953529953957,
        0.9902157783508301
      ],
      "translation": [
        0.381795197725296,
        0.0,
        9.53674295089968e-09
      ]
    },
    {
      "extras": {
        "FBX-glTF-conv": {
          "skeleton": {
            "skeletonType": "LimbNode"
          }
        }
      },
      "name": "Bip001 L Toe0",
      "rotation": [
        -0.015498627908527851,
        -0.017863541841506958,
        0.8865219950675964,
        0.46208158135414124
      ],
      "translation": [
        0.06767954677343369,
        0.10465750098228455,
        1.907348590179936e-08
      ]
    },
    {
      "children": [
        19
      ],
      "extras": {
        "FBX-glTF-conv": {
          "skeleton": {
            "skeletonType": "LimbNode"
          }
        }
      },
      "name": "Bip001 R Thigh",
      "rotation": [
        0.31302303075790405,
        0.9436964988708496,
        0.08427181839942932,
        0.06596814841032028
      ],
      "translation": [
        -0.11888748407363892,
        0.023377953097224236,
        -0.07902956753969193
      ]
    },
    {
      "children": [
        20
      ],
      "extras": {
        "FBX-glTF-conv": {
          "skeleton": {
            "skeletonType": "LimbNode"
          }
        }
      },
      "name": "Bip001 R Calf",
      "rotation": [
        -1.5537227921881588e-17,
        -2.6782151125137736e-17,
        -0.16714945435523987,
        0.9859315752983093
      ],
      "translation": [
        0.42956435680389404,
        -3.814697180359872e-08,
        3.552713599391162e-17
      ]
    },
    {
      "children": [
        21
      ],
      "extras": {
        "FBX-glTF-conv": {
          "skeleton": {
            "skeletonType": "LimbNode"
          }
        }
      },
      "name": "Bip001 R Foot",
      "rotation": [
        0.10278848558664322,
        0.08661800622940063,
        0.1660441905260086,
        0.97691410779953
      ],
      "translation": [
        0.3817952275276184,
        -3.814697180359872e-08,
        1.907348590179936e-08
      ]
    },
    {
      "extras": {
        "FBX-glTF-conv": {
          "skeleton": {
            "skeletonType": "LimbNode"
          }
        }
      },
      "name": "Bip001 R Toe0",
      "rotation": [
        1.7122157913718183e-08,
        1.975633523443321e-08,
        0.7071067690849304,
        0.7071067690849304
      ],
      "translation": [
        0.06767954677343369,
        0.10465751588344574,
        -9.53674295089968e-09
      ]
    }
  ],
  "scenes": [
    {
      "nodes": [
        0
      ]
    }
  ]
}