{
  "accessors": [
    {
      "bufferView": 0,
      "componentType": 5126,
      "count": 212,
      "max": [
        0.25399160385131836,
        0.23832492530345917,
        0.5887418389320374
      ],
      "min": [
        -0.23920802772045135,
        -0.24009768664836884,
        -0.005197320133447647
      ],
      "name": "Loft002/POSITION",
      "type": "VEC3"
    },
    {
      "bufferView": 0,
      "byteOffset": 12,
      "componentType": 5126,
      "count": 212,
      "name": "Loft002/NORMAL",
      "type": "VEC3"
    },
    {
      "bufferView": 0,
      "byteOffset": 24,
      "componentType": 5126,
      "count": 212,
      "name": "Loft002/TEXCOORD_0",
      "type": "VEC2"
    },
    {
      "bufferView": 1,
      "componentType": 5123,
      "count": 630,
      "name": "Loft002/INDICES",
      "type": "SCALAR"
    }
  ],
  "asset": {
    "copyright": "Copyright (c) 2018-2020 Chukong Technologies Inc.",
    "generator": "FBX-glTF-conv",
    "version": "2.0"
  },
  "bufferViews": [
    {
      "buffer": 0,
      "byteLength": 6784,
      "byteStride": 32,
      "name": "Loft002",
      "target": 34962
    },
    {
      "buffer": 0,
      "byteLength": 1260,
      "byteOffset": 6784,
      "target": 34963
    }
  ],
  "buffers": [
    {
      "byteLength": 8044,
      "uri": "out.bin"
    }
  ],
  "extras": {
    "FBX-glTF-conv": {
      "animationFrameRate": 30.0,
      "fbxFileHeaderInfo": {
        "creationTimeStamp": {
          "day": 29,
          "hour": 14,
          "millisecond": 89,
          "minute": 0,
          "month": 8,
          "second": 55,
          "year": 2025
        },
        "creator": "FBX SDK/FBX Plugins version 2019.0",
        "sceneInfo": {
          "author": "",
          "comment": "",
          "keywords": "",
          "original": {
            "applicationName": "3ds Max",
            "applicationVendor": "Autodesk",
            "applicationVersion": "2019",
            "fileName": "C:\\Users\\Administrator\\Desktop\\素材\\5\\10\\hilex.FBX"
          },
          "revision": "",
          "subject": "",
          "title": "",
          "url": "D:\\工程项目\\test_pro\\test_pro\\HYQ_Project\\assets\\GameRes\\1219\\A-texiao\\mech\\hilex.FBX"
        }
      }
    }
  },
  "meshes": [
    {
      "name": "Loft002",
      "primitives": [
        {
          "attributes": {
            "NORMAL": 1,
            "POSITION": 0,
            "TEXCOORD_0": 2
          },
          "indices": 3
        }
      ]
    }
  ],
  "nodes": [
    {
      "mesh": 0,
      "name": "Loft002",
      "rotation": [
        -0.7071068286895752,
        9.00353749888616e-12,
        9.003538366247898e-12,
        0.7071067094802856
      ]
    }
  ],
  "scenes": [
    {
      "nodes": [
        0
      ]
    }
  ]
}