{
  "accessors": [
    {
      "bufferView": 0,
      "componentType": 5126,
      "count": 365,
      "max": [
        7.36834716796875,
        9.021737098693848,
        0.9722687005996704
      ],
      "min": [
        0.8269603848457336,
        -5.186374664306641,
        -0.9722687005996704
      ],
      "name": "拉链_锯齿003_Material0/POSITION",
      "type": "VEC3"
    },
    {
      "bufferView": 0,
      "byteOffset": 12,
      "componentType": 5126,
      "count": 365,
      "name": "拉链_锯齿003_Material0/NORMAL",
      "type": "VEC3"
    },
    {
      "bufferView": 0,
      "byteOffset": 24,
      "componentType": 5126,
      "count": 365,
      "name": "拉链_锯齿003_Material0/TEXCOORD_0",
      "type": "VEC2"
    },
    {
      "bufferView": 1,
      "componentType": 5123,
      "count": 1236,
      "name": "拉链_锯齿003_Material0/INDICES",
      "type": "SCALAR"
    },
    {
      "bufferView": 2,
      "componentType": 5126,
      "count": 25,
      "max": [
        4.577636616431846e-07,
        2.778946876525879,
        0.7444211840629578
      ],
      "min": [
        -4.577636616431846e-07,
        -2.778946876525879,
        -0.7444211840629578
      ],
      "name": "拉链_锯齿003_Material0/POSITION",
      "type": "VEC3"
    },
    {
      "bufferView": 2,
      "byteOffset": 12,
      "componentType": 5126,
      "count": 25,
      "name": "拉链_锯齿003_Material0/NORMAL",
      "type": "VEC3"
    },
    {
      "bufferView": 2,
      "byteOffset": 24,
      "componentType": 5126,
      "count": 25,
      "name": "拉链_锯齿003_Material0/TEXCOORD_0",
      "type": "VEC2"
    },
    {
      "bufferView": 3,
      "componentType": 5123,
      "count": 96,
      "name": "拉链_锯齿003_Material0/INDICES",
      "type": "SCALAR"
    },
    {
      "bufferView": 4,
      "componentType": 5126,
      "count": 1,
      "name": "拉链_锯齿003/rotation/Output",
      "type": "VEC4"
    },
    {
      "bufferView": 5,
      "componentType": 5126,
      "count": 1,
      "max": [
        3.3333332538604736
      ],
      "min": [
        3.3333332538604736
      ],
      "name": "拉链_锯齿003/rotation/Input",
      "type": "SCALAR"
    }
  ],
  "animations": [
    {
      "channels": [
        {
          "sampler": 0,
          "target": {
            "node": 0,
            "path": "rotation"
          }
        }
      ],
      "name": "Take 001",
      "samplers": [
        {
          "input": 9,
          "output": 8
        }
      ]
    }
  ],
  "asset": {
    "copyright": "Copyright (c) 2018-2020 Chukong Technologies Inc.",
    "generator": "FBX-glTF-conv",
    "version": "2.0"
  },
  "bufferViews": [
    {
      "buffer": 0,
      "byteLength": 11680,
      "byteStride": 32,
      "name": "拉链_锯齿003_Material0",
      "target": 34962
    },
    {
      "buffer": 0,
      "byteLength": 2472,
      "byteOffset": 11680,
      "target": 34963
    },
    {
      "buffer": 0,
      "byteLength": 800,
      "byteOffset": 14152,
      "byteStride": 32,
      "name": "拉链_锯齿003_Material0",
      "target": 34962
    },
    {
      "buffer": 0,
      "byteLength": 192,
      "byteOffset": 14952,
      "target": 34963
    },
    {
      "buffer": 0,
      "byteLength": 16,
      "byteOffset": 15144
    },
    {
      "buffer": 0,
      "byteLength": 4,
      "byteOffset": 15160
    }
  ],
  "buffers": [
    {
      "byteLength": 15164,
      "uri": "out.bin"
    }
  ],
  "extras": {
    "FBX-glTF-conv": {
      "animationFrameRate": 30.0,
      "fbxFileHeaderInfo": {
        "creationTimeStamp": {
          "day": 15,
          "hour": 10,
          "millisecond": 503,
          "minute": 41,
          "month": 6,
          "second": 59,
          "year": 2026
        },
        "creator": "FBX SDK/FBX Plugins version 2020.3.2",
        "sceneInfo": {
          "author": "",
          "comment": "",
          "keywords": "",
          "original": {
            "applicationName": "3ds Max",
            "applicationVendor": "Autodesk",
            "applicationVersion": "2024",
            "fileName": "C:\\Users\\Admin\\Desktop\\左.fbx"
          },
          "revision": "",
          "subject": "",
          "title": "",
          "url": "D:\\工程项目\\PlayableAD\\Cocos\\TheW\\20260615_HYQ\\HYQ_Project\\assets\\GameRes\\HYQ_map\\fbx\\左.fbx"
        }
      }
    }
  },
  "materials": [
    {
      "extras": {
        "FBX-glTF-conv": {
          "raw": {
            "properties": {
              "3dsMax": {
                "value": {
                  "ClassIDa": {
                    "value": 1030429932
                  },
                  "ClassIDb": {
                    "value": -559038463
                  },
                  "ORIGINAL_MTL": {
                    "value": "PHYSICAL_MTL"
                  },
                  "Parameters": {
                    "value": {
                      "aniso_angle_map_on": {
                        "value": true
                      },
                      "aniso_channel": {
                        "value": 0
                      },
                      "aniso_mode": {
                        "value": 0
                      },
                      "anisoangle": {
                        "value": 0.25
                      },
                      "anisotropy": {
                        "value": 0.0
                      },
                      "anisotropy_map_on": {
                        "value": true
                      },
                      "base_color": {
                        "value": [
                          0.4000000059604645,
                          0.4000000059604645,
                          0.4000000059604645,
                          1.0
                        ]
                      },
                      "base_color_map_on": {
                        "value": true
                      },
                      "base_weight": {
                        "value": 1.0
                      },
                      "base_weight_map_on": {
                        "value": true
                      },
                      "brdf_curve": {
                        "value": 5.0
                      },
                      "brdf_high": {
                        "value": 1.0
                      },
                      "brdf_low": {
                        "value": 0.05000000074505806
                      },
                      "brdf_mode": {
                        "value": true
                      },
                      "coat_affect_color": {
                        "value": 0.5
                      },
                      "coat_affect_roughness": {
                        "value": 0.5
                      },
                      "coat_aniso_angle_map_on": {
                        "value": true
                      },
                      "coat_aniso_map_on": {
                        "value": true
                      },
                      "coat_anisoangle": {
                        "value": 0.25
                      },
                      "coat_anisotropy": {
                        "value": 0.0
                      },
                      "coat_color": {
                        "value": [
                          1.0,
                          1.0,
                          1.0,
                          1.0
                        ]
                      },
                      "coat_color_map_on": {
                        "value": true
                      },
                      "coat_ior": {
                        "value": 1.5199999809265137
                      },
                      "coat_map_on": {
                        "value": true
                      },
                      "coat_rough_map_on": {
                        "value": true
                      },
                      "coat_roughness": {
                        "value": 0.0
                      },
                      "coat_roughness_inv": {
                        "value": false
                      },
                      "coating": {
                        "value": 0.0
                      },
                      "cutout_map_on": {
                        "value": true
                      },
                      "diff_rough_map_on": {
                        "value": true
                      },
                      "diff_roughness": {
                        "value": 0.0
                      },
                      "dispersion": {
                        "value": 0.0
                      },
                      "displacement_map_amt": {
                        "value": 1.0
                      },
                      "displacement_map_on": {
                        "value": true
                      },
                      "emission": {
                        "value": 1.0
                      },
                      "emission_map_on": {
                        "value": true
                      },
                      "emit_color": {
                        "value": [
                          0.0,
                          0.0,
                          0.0,
                          1.0
                        ]
                      },
                      "emit_color_map_on": {
                        "value": true
                      },
                      "emit_kelvin": {
                        "value": 6500.0
                      },
                      "emit_luminance": {
                        "value": 1500.0
                      },
                      "material_mode": {
                        "value": 2
                      },
                      "metalness": {
                        "value": 0.0
                      },
                      "metalness_map_on": {
                        "value": true
                      },
                      "refl_color": {
                        "value": [
                          0.20000000298023224,
                          0.20000000298023224,
                          0.20000000298023224,
                          1.0
                        ]
                      },
                      "refl_color_map_on": {
                        "value": true
                      },
                      "reflectivity": {
                        "value": 1.0
                      },
                      "reflectivity_map_on": {
                        "value": true
                      },
                      "roughness": {
                        "value": 0.5678071975708008
                      },
                      "roughness_inv": {
                        "value": false
                      },
                      "roughness_map_on": {
                        "value": true
                      },
                      "scattering": {
                        "value": 0.0
                      },
                      "scattering_map_on": {
                        "value": true
                      },
                      "sheen": {
                        "value": 0.0
                      },
                      "sheen_color": {
                        "value": [
                          1.0,
                          1.0,
                          1.0,
                          1.0
                        ]
                      },
                      "sheen_color_map_on": {
                        "value": true
                      },
                      "sheen_map_on": {
                        "value": true
                      },
                      "sheen_rough_map_on": {
                        "value": true
                      },
                      "sheen_roughness": {
                        "value": 0.30000001192092896
                      },
                      "sss_color": {
                        "value": [
                          1.0,
                          1.0,
                          1.0,
                          1.0
                        ]
                      },
                      "sss_color_map_on": {
                        "value": true
                      },
                      "sss_depth": {
                        "value": 10.0
                      },
                      "sss_scale": {
                        "value": 1.0
                      },
                      "sss_scale_map_on": {
                        "value": true
                      },
                      "sss_scatter_color": {
                        "value": [
                          10000.0,
                          5000.0,
                          2500.0,
                          1.0
                        ]
                      },
                      "thin_film": {
                        "value": 0.0
                      },
                      "thin_film_ior": {
                        "value": 1.2999999523162842
                      },
                      "thin_film_ior_map_on": {
                        "value": true
                      },
                      "thin_film_map_on": {
                        "value": true
                      },
                      "thin_film_thickness": {
                        "value": 0.0
                      },
                      "thin_walled": {
                        "value": false
                      },
                      "trans_color": {
                        "value": [
                          0.0,
                          0.0,
                          0.0,
                          1.0
                        ]
                      },
                      "trans_color_map_on": {
                        "value": true
                      },
                      "trans_depth": {
                        "value": 0.0
                      },
                      "trans_ior": {
                        "value": 1.5199999809265137
                      },
                      "trans_ior_map_on": {
                        "value": true
                      },
                      "trans_rough_map_on": {
                        "value": true
                      },
                      "trans_roughness": {
                        "value": 0.0
                      },
                      "trans_roughness_inv": {
                        "value": false
                      },
                      "trans_roughness_lock": {
                        "value": true
                      },
                      "trans_scatter_aniso": {
                        "value": 0.0
                      },
                      "trans_scatter_color": {
                        "value": [
                          0.0,
                          0.0,
                          0.0,
                          1.0
                        ]
                      },
                      "transparency": {
                        "value": 0.0
                      },
                      "transparency_map_on": {
                        "value": true
                      }
                    }
                  },
                  "SuperClassID": {
                    "value": 3072
                  }
                }
              },
              "AmbientColor": {
                "value": [
                  0.4000000059604645,
                  0.4000000059604645,
                  0.4000000059604645
                ]
              },
              "DiffuseColor": {
                "value": [
                  0.4000000059604645,
                  0.4000000059604645,
                  0.4000000059604645
                ]
              },
              "EmissiveColor": {
                "value": [
                  0.0,
                  0.0,
                  0.0
                ]
              },
              "EmissiveFactor": {
                "value": 0.0
              },
              "MultiLayer": {
                "value": false
              },
              "ShadingModel": {
                "value": "unknown"
              },
              "ShininessExponent": {
                "value": 19.999998092651367
              },
              "SpecularColor": {
                "value": [
                  0.20000000298023224,
                  0.20000000298023224,
                  0.20000000298023224
                ]
              },
              "SpecularFactor": {
                "value": 0.8643856048583984
              },
              "TransparencyFactor": {
                "value": 0.0
              }
            }
          }
        }
      },
      "name": "拉链材质_Inst1"
    },
    {
      "extras": {
        "FBX-glTF-conv": {
          "raw": {
            "properties": {
              "3dsMax": {
                "value": {
                  "ClassIDa": {
                    "value": 1030429932
                  },
                  "ClassIDb": {
                    "value": -559038463
                  },
                  "ORIGINAL_MTL": {
                    "value": "PHYSICAL_MTL"
                  },
                  "Parameters": {
                    "value": {
                      "aniso_angle_map_on": {
                        "value": true
                      },
                      "aniso_channel": {
                        "value": 0
                      },
                      "aniso_mode": {
                        "value": 0
                      },
                      "anisoangle": {
                        "value": 0.25
                      },
                      "anisotropy": {
                        "value": 0.0
                      },
                      "anisotropy_map_on": {
                        "value": true
                      },
                      "base_color": {
                        "value": [
                          1.0,
                          0.0,
                          0.0,
                          1.0
                        ]
                      },
                      "base_color_map_on": {
                        "value": true
                      },
                      "base_weight": {
                        "value": 1.0
                      },
                      "base_weight_map_on": {
                        "value": true
                      },
                      "brdf_curve": {
                        "value": 5.0
                      },
                      "brdf_high": {
                        "value": 1.0
                      },
                      "brdf_low": {
                        "value": 0.05000000074505806
                      },
                      "brdf_mode": {
                        "value": true
                      },
                      "coat_affect_color": {
                        "value": 0.5
                      },
                      "coat_affect_roughness": {
                        "value": 0.5
                      },
                      "coat_aniso_angle_map_on": {
                        "value": true
                      },
                      "coat_aniso_map_on": {
                        "value": true
                      },
                      "coat_anisoangle": {
                        "value": 0.25
                      },
                      "coat_anisotropy": {
                        "value": 0.0
                      },
                      "coat_color": {
                        "value": [
                          1.0,
                          1.0,
                          1.0,
                          1.0
                        ]
                      },
                      "coat_color_map_on": {
                        "value": true
                      },
                      "coat_ior": {
                        "value": 1.5199999809265137
                      },
                      "coat_map_on": {
                        "value": true
                      },
                      "coat_rough_map_on": {
                        "value": true
                      },
                      "coat_roughness": {
                        "value": 0.0
                      },
                      "coat_roughness_inv": {
                        "value": false
                      },
                      "coating": {
                        "value": 0.0
                      },
                      "cutout_map_on": {
                        "value": true
                      },
                      "diff_rough_map_on": {
                        "value": true
                      },
                      "diff_roughness": {
                        "value": 0.0
                      },
                      "dispersion": {
                        "value": 0.0
                      },
                      "displacement_map_amt": {
                        "value": 1.0
                      },
                      "displacement_map_on": {
                        "value": true
                      },
                      "emission": {
                        "value": 1.0
                      },
                      "emission_map_on": {
                        "value": true
                      },
                      "emit_color": {
                        "value": [
                          0.0,
                          0.0,
                          0.0,
                          1.0
                        ]
                      },
                      "emit_color_map_on": {
                        "value": true
                      },
                      "emit_kelvin": {
                        "value": 6500.0
                      },
                      "emit_luminance": {
                        "value": 1500.0
                      },
                      "material_mode": {
                        "value": 0
                      },
                      "metalness": {
                        "value": 0.0
                      },
                      "metalness_map_on": {
                        "value": true
                      },
                      "refl_color": {
                        "value": [
                          1.0,
                          1.0,
                          1.0,
                          1.0
                        ]
                      },
                      "refl_color_map_on": {
                        "value": true
                      },
                      "reflectivity": {
                        "value": 1.0
                      },
                      "reflectivity_map_on": {
                        "value": true
                      },
                      "roughness": {
                        "value": 0.0
                      },
                      "roughness_inv": {
                        "value": false
                      },
                      "roughness_map_on": {
                        "value": true
                      },
                      "scattering": {
                        "value": 0.0
                      },
                      "scattering_map_on": {
                        "value": true
                      },
                      "sheen": {
                        "value": 0.0
                      },
                      "sheen_color": {
                        "value": [
                          1.0,
                          1.0,
                          1.0,
                          1.0
                        ]
                      },
                      "sheen_color_map_on": {
                        "value": true
                      },
                      "sheen_map_on": {
                        "value": true
                      },
                      "sheen_rough_map_on": {
                        "value": true
                      },
                      "sheen_roughness": {
                        "value": 0.30000001192092896
                      },
                      "sss_color": {
                        "value": [
                          1.0,
                          1.0,
                          1.0,
                          1.0
                        ]
                      },
                      "sss_color_map_on": {
                        "value": true
                      },
                      "sss_depth": {
                        "value": 10.0
                      },
                      "sss_scale": {
                        "value": 1.0
                      },
                      "sss_scale_map_on": {
                        "value": true
                      },
                      "sss_scatter_color": {
                        "value": [
                          10000.0,
                          5000.0,
                          2500.0,
                          1.0
                        ]
                      },
                      "thin_film": {
                        "value": 0.0
                      },
                      "thin_film_ior": {
                        "value": 1.2999999523162842
                      },
                      "thin_film_ior_map_on": {
                        "value": true
                      },
                      "thin_film_map_on": {
                        "value": true
                      },
                      "thin_film_thickness": {
                        "value": 0.0
                      },
                      "thin_walled": {
                        "value": false
                      },
                      "trans_color": {
                        "value": [
                          1.0,
                          1.0,
                          1.0,
                          1.0
                        ]
                      },
                      "trans_color_map_on": {
                        "value": true
                      },
                      "trans_depth": {
                        "value": 0.0
                      },
                      "trans_ior": {
                        "value": 1.5199999809265137
                      },
                      "trans_ior_map_on": {
                        "value": true
                      },
                      "trans_rough_map_on": {
                        "value": true
                      },
                      "trans_roughness": {
                        "value": 0.0
                      },
                      "trans_roughness_inv": {
                        "value": false
                      },
                      "trans_roughness_lock": {
                        "value": true
                      },
                      "trans_scatter_aniso": {
                        "value": 0.0
                      },
                      "trans_scatter_color": {
                        "value": [
                          0.0,
                          0.0,
                          0.0,
                          1.0
                        ]
                      },
                      "transparency": {
                        "value": 0.0
                      },
                      "transparency_map_on": {
                        "value": true
                      }
                    }
                  },
                  "SuperClassID": {
                    "value": 3072
                  }
                }
              },
              "AmbientColor": {
                "value": [
                  1.0,
                  0.0,
                  0.0
                ]
              },
              "DiffuseColor": {
                "value": [
                  1.0,
                  0.0,
                  0.0
                ]
              },
              "EmissiveColor": {
                "value": [
                  0.0,
                  0.0,
                  0.0
                ]
              },
              "EmissiveFactor": {
                "value": 0.0
              },
              "MultiLayer": {
                "value": false
              },
              "ShadingModel": {
                "value": "unknown"
              },
              "ShininessExponent": {
                "value": 1024.0
              },
              "SpecularColor": {
                "value": [
                  1.0,
                  1.0,
                  1.0
                ]
              },
              "SpecularFactor": {
                "value": 2.0
              },
              "TransparencyFactor": {
                "value": 0.0
              },
              "启用": {
                "value": false
              }
            }
          }
        }
      },
      "name": "02 - Default"
    }
  ],
  "meshes": [
    {
      "name": "拉链_锯齿003",
      "primitives": [
        {
          "attributes": {
            "NORMAL": 1,
            "POSITION": 0,
            "TEXCOORD_0": 2
          },
          "indices": 3,
          "material": 0
        },
        {
          "attributes": {
            "NORMAL": 5,
            "POSITION": 4,
            "TEXCOORD_0": 6
          },
          "indices": 7,
          "material": 1
        }
      ]
    }
  ],
  "nodes": [
    {
      "mesh": 0,
      "name": "拉链_锯齿003",
      "rotation": [
        -0.7071067690849304,
        -0.0,
        0.0,
        0.7071067690849304
      ],
      "scale": [
        0.10000000149011612,
        0.10000000149011612,
        0.10000000149011612
      ],
      "translation": [
        0.0,
        -1.5036375700105964e-08,
        0.0
      ]
    }
  ],
  "scenes": [
    {
      "nodes": [
        0
      ]
    }
  ]
}