{
  "accessors": [
    {
      "bufferView": 0,
      "componentType": 5126,
      "count": 20,
      "name": "Bip001/translation/Output",
      "type": "VEC3"
    },
    {
      "bufferView": 1,
      "componentType": 5126,
      "count": 20,
      "max": [
        0.6666666865348816
      ],
      "min": [
        0.0
      ],
      "name": "Bip001/translation/Input",
      "type": "SCALAR"
    },
    {
      "bufferView": 2,
      "componentType": 5126,
      "count": 1,
      "name": "Bip001/rotation/Output",
      "type": "VEC4"
    },
    {
      "bufferView": 3,
      "componentType": 5126,
      "count": 1,
      "max": [
        0.6666666865348816
      ],
      "min": [
        0.6666666865348816
      ],
      "name": "Bip001/rotation/Input",
      "type": "SCALAR"
    },
    {
      "bufferView": 4,
      "componentType": 5126,
      "count": 1,
      "name": "Bip001/scale/Output",
      "type": "VEC3"
    },
    {
      "bufferView": 5,
      "componentType": 5126,
      "count": 1,
      "max": [
        0.6666666865348816
      ],
      "min": [
        0.6666666865348816
      ],
      "name": "Bip001/scale/Input",
      "type": "SCALAR"
    },
    {
      "bufferView": 6,
      "componentType": 5126,
      "count": 21,
      "name": "Bip001 Footsteps/translation/Output",
      "type": "VEC3"
    },
    {
      "bufferView": 7,
      "componentType": 5126,
      "count": 21,
      "max": [
        0.6666666865348816
      ],
      "min": [
        0.0
      ],
      "name": "Bip001 Footsteps/translation/Input",
      "type": "SCALAR"
    },
    {
      "bufferView": 8,
      "componentType": 5126,
      "count": 1,
      "name": "Bip001 Footsteps/rotation/Output",
      "type": "VEC4"
    },
    {
      "bufferView": 9,
      "componentType": 5126,
      "count": 1,
      "max": [
        0.6666666865348816
      ],
      "min": [
        0.6666666865348816
      ],
      "name": "Bip001 Footsteps/rotation/Input",
      "type": "SCALAR"
    },
    {
      "bufferView": 10,
      "componentType": 5126,
      "count": 1,
      "name": "Bip001 Footsteps/scale/Output",
      "type": "VEC3"
    },
    {
      "bufferView": 11,
      "componentType": 5126,
      "count": 1,
      "max": [
        0.6666666865348816
      ],
      "min": [
        0.6666666865348816
      ],
      "name": "Bip001 Footsteps/scale/Input",
      "type": "SCALAR"
    },
    {
      "bufferView": 12,
      "componentType": 5126,
      "count": 1,
      "name": "Bip001 Pelvis/translation/Output",
      "type": "VEC3"
    },
    {
      "bufferView": 13,
      "componentType": 5126,
      "count": 1,
      "max": [
        0.6666666865348816
      ],
      "min": [
        0.6666666865348816
      ],
      "name": "Bip001 Pelvis/translation/Input",
      "type": "SCALAR"
    },
    {
      "bufferView": 14,
      "componentType": 5126,
      "count": 20,
      "name": "Bip001 Pelvis/rotation/Output",
      "type": "VEC4"
    },
    {
      "bufferView": 15,
      "componentType": 5126,
      "count": 20,
      "max": [
        0.6666666865348816
      ],
      "min": [
        0.0
      ],
      "name": "Bip001 Pelvis/rotation/Input",
      "type": "SCALAR"
    },
    {
      "bufferView": 16,
      "componentType": 5126,
      "count": 1,
      "name": "Bip001 Pelvis/scale/Output",
      "type": "VEC3"
    },
    {
      "bufferView": 17,
      "componentType": 5126,
      "count": 1,
      "max": [
        0.6666666865348816
      ],
      "min": [
        0.6666666865348816
      ],
      "name": "Bip001 Pelvis/scale/Input",
      "type": "SCALAR"
    },
    {
      "bufferView": 18,
      "componentType": 5126,
      "count": 21,
      "name": "Bip001 Spine/translation/Output",
      "type": "VEC3"
    },
    {
      "bufferView": 19,
      "componentType": 5126,
      "count": 21,
      "max": [
        0.6666666865348816
      ],
      "min": [
        0.0
      ],
      "name": "Bip001 Spine/translation/Input",
      "type": "SCALAR"
    },
    {
      "bufferView": 20,
      "componentType": 5126,
      "count": 21,
      "name": "Bip001 Spine/rotation/Output",
      "type": "VEC4"
    },
    {
      "bufferView": 21,
      "componentType": 5126,
      "count": 21,
      "max": [
        0.6666666865348816
      ],
      "min": [
        0.0
      ],
      "name": "Bip001 Spine/rotation/Input",
      "type": "SCALAR"
    },
    {
      "bufferView": 22,
      "componentType": 5126,
      "count": 1,
      "name": "Bip001 Spine/scale/Output",
      "type": "VEC3"
    },
    {
      "bufferView": 23,
      "componentType": 5126,
      "count": 1,
      "max": [
        0.6666666865348816
      ],
      "min": [
        0.6666666865348816
      ],
      "name": "Bip001 Spine/scale/Input",
      "type": "SCALAR"
    },
    {
      "bufferView": 24,
      "componentType": 5126,
      "count": 21,
      "name": "Bip001 Spine1/translation/Output",
      "type": "VEC3"
    },
    {
      "bufferView": 25,
      "componentType": 5126,
      "count": 21,
      "max": [
        0.6666666865348816
      ],
      "min": [
        0.0
      ],
      "name": "Bip001 Spine1/translation/Input",
      "type": "SCALAR"
    },
    {
      "bufferView": 26,
      "componentType": 5126,
      "count": 21,
      "name": "Bip001 Spine1/rotation/Output",
      "type": "VEC4"
    },
    {
      "bufferView": 27,
      "componentType": 5126,
      "count": 21,
      "max": [
        0.6666666865348816
      ],
      "min": [
        0.0
      ],
      "name": "Bip001 Spine1/rotation/Input",
      "type": "SCALAR"
    },
    {
      "bufferView": 28,
      "componentType": 5126,
      "count": 1,
      "name": "Bip001 Spine1/scale/Output",
      "type": "VEC3"
    },
    {
      "bufferView": 29,
      "componentType": 5126,
      "count": 1,
      "max": [
        0.6666666865348816
      ],
      "min": [
        0.6666666865348816
      ],
      "name": "Bip001 Spine1/scale/Input",
      "type": "SCALAR"
    },
    {
      "bufferView": 30,
      "componentType": 5126,
      "count": 21,
      "name": "Bip001 Neck/translation/Output",
      "type": "VEC3"
    },
    {
      "bufferView": 31,
      "componentType": 5126,
      "count": 21,
      "max": [
        0.6666666865348816
      ],
      "min": [
        0.0
      ],
      "name": "Bip001 Neck/translation/Input",
      "type": "SCALAR"
    },
    {
      "bufferView": 32,
      "componentType": 5126,
      "count": 21,
      "name": "Bip001 Neck/rotation/Output",
      "type": "VEC4"
    },
    {
      "bufferView": 33,
      "componentType": 5126,
      "count": 21,
      "max": [
        0.6666666865348816
      ],
      "min": [
        0.0
      ],
      "name": "Bip001 Neck/rotation/Input",
      "type": "SCALAR"
    },
    {
      "bufferView": 34,
      "componentType": 5126,
      "count": 1,
      "name": "Bip001 Neck/scale/Output",
      "type": "VEC3"
    },
    {
      "bufferView": 35,
      "componentType": 5126,
      "count": 1,
      "max": [
        0.6666666865348816
      ],
      "min": [
        0.6666666865348816
      ],
      "name": "Bip001 Neck/scale/Input",
      "type": "SCALAR"
    },
    {
      "bufferView": 36,
      "componentType": 5126,
      "count": 5,
      "name": "Bip001 Head/translation/Output",
      "type": "VEC3"
    },
    {
      "bufferView": 37,
      "componentType": 5126,
      "count": 5,
      "max": [
        0.6333333253860474
      ],
      "min": [
        0.4333333373069763
      ],
      "name": "Bip001 Head/translation/Input",
      "type": "SCALAR"
    },
    {
      "bufferView": 38,
      "componentType": 5126,
      "count": 21,
      "name": "Bip001 Head/rotation/Output",
      "type": "VEC4"
    },
    {
      "bufferView": 39,
      "componentType": 5126,
      "count": 21,
      "max": [
        0.6666666865348816
      ],
      "min": [
        0.0
      ],
      "name": "Bip001 Head/rotation/Input",
      "type": "SCALAR"
    },
    {
      "bufferView": 40,
      "componentType": 5126,
      "count": 1,
      "name": "Bip001 Head/scale/Output",
      "type": "VEC3"
    },
    {
      "bufferView": 41,
      "componentType": 5126,
      "count": 1,
      "max": [
        0.6666666865348816
      ],
      "min": [
        0.6666666865348816
      ],
      "name": "Bip001 Head/scale/Input",
      "type": "SCALAR"
    },
    {
      "bufferView": 42,
      "componentType": 5126,
      "count": 8,
      "name": "Bip001 L Clavicle/translation/Output",
      "type": "VEC3"
    },
    {
      "bufferView": 43,
      "componentType": 5126,
      "count": 8,
      "max": [
        0.6666666865348816
      ],
      "min": [
        0.06666667014360428
      ],
      "name": "Bip001 L Clavicle/translation/Input",
      "type": "SCALAR"
    },
    {
      "bufferView": 44,
      "componentType": 5126,
      "count": 21,
      "name": "Bip001 L Clavicle/rotation/Output",
      "type": "VEC4"
    },
    {
      "bufferView": 45,
      "componentType": 5126,
      "count": 21,
      "max": [
        0.6666666865348816
      ],
      "min": [
        0.0
      ],
      "name": "Bip001 L Clavicle/rotation/Input",
      "type": "SCALAR"
    },
    {
      "bufferView": 46,
      "componentType": 5126,
      "count": 1,
      "name": "Bip001 L Clavicle/scale/Output",
      "type": "VEC3"
    },
    {
      "bufferView": 47,
      "componentType": 5126,
      "count": 1,
      "max": [
        0.6666666865348816
      ],
      "min": [
        0.6666666865348816
      ],
      "name": "Bip001 L Clavicle/scale/Input",
      "type": "SCALAR"
    },
    {
      "bufferView": 48,
      "componentType": 5126,
      "count": 13,
      "name": "Bip001 L UpperArm/translation/Output",
      "type": "VEC3"
    },
    {
      "bufferView": 49,
      "componentType": 5126,
      "count": 13,
      "max": [
        0.6666666865348816
      ],
      "min": [
        0.0
      ],
      "name": "Bip001 L UpperArm/translation/Input",
      "type": "SCALAR"
    },
    {
      "bufferView": 50,
      "componentType": 5126,
      "count": 21,
      "name": "Bip001 L UpperArm/rotation/Output",
      "type": "VEC4"
    },
    {
      "bufferView": 51,
      "componentType": 5126,
      "count": 21,
      "max": [
        0.6666666865348816
      ],
      "min": [
        0.0
      ],
      "name": "Bip001 L UpperArm/rotation/Input",
      "type": "SCALAR"
    },
    {
      "bufferView": 52,
      "componentType": 5126,
      "count": 1,
      "name": "Bip001 L UpperArm/scale/Output",
      "type": "VEC3"
    },
    {
      "bufferView": 53,
      "componentType": 5126,
      "count": 1,
      "max": [
        0.6666666865348816
      ],
      "min": [
        0.6666666865348816
      ],
      "name": "Bip001 L UpperArm/scale/Input",
      "type": "SCALAR"
    },
    {
      "bufferView": 54,
      "componentType": 5126,
      "count": 8,
      "name": "Bip001 L Forearm/translation/Output",
      "type": "VEC3"
    },
    {
      "bufferView": 55,
      "componentType": 5126,
      "count": 8,
      "max": [
        0.5
      ],
      "min": [
        0.03333333507180214
      ],
      "name": "Bip001 L Forearm/translation/Input",
      "type": "SCALAR"
    },
    {
      "bufferView": 56,
      "componentType": 5126,
      "count": 21,
      "name": "Bip001 L Forearm/rotation/Output",
      "type": "VEC4"
    },
    {
      "bufferView": 57,
      "componentType": 5126,
      "count": 21,
      "max": [
        0.6666666865348816
      ],
      "min": [
        0.0
      ],
      "name": "Bip001 L Forearm/rotation/Input",
      "type": "SCALAR"
    },
    {
      "bufferView": 58,
      "componentType": 5126,
      "count": 1,
      "name": "Bip001 L Forearm/scale/Output",
      "type": "VEC3"
    },
    {
      "bufferView": 59,
      "componentType": 5126,
      "count": 1,
      "max": [
        0.6666666865348816
      ],
      "min": [
        0.6666666865348816
      ],
      "name": "Bip001 L Forearm/scale/Input",
      "type": "SCALAR"
    },
    {
      "bufferView": 60,
      "componentType": 5126,
      "count": 8,
      "name": "Bip001 L Hand/translation/Output",
      "type": "VEC3"
    },
    {
      "bufferView": 61,
      "componentType": 5126,
      "count": 8,
      "max": [
        0.6666666865348816
      ],
      "min": [
        0.03333333507180214
      ],
      "name": "Bip001 L Hand/translation/Input",
      "type": "SCALAR"
    },
    {
      "bufferView": 62,
      "componentType": 5126,
      "count": 21,
      "name": "Bip001 L Hand/rotation/Output",
      "type": "VEC4"
    },
    {
      "bufferView": 63,
      "componentType": 5126,
      "count": 21,
      "max": [
        0.6666666865348816
      ],
      "min": [
        0.0
      ],
      "name": "Bip001 L Hand/rotation/Input",
      "type": "SCALAR"
    },
    {
      "bufferView": 64,
      "componentType": 5126,
      "count": 1,
      "name": "Bip001 L Hand/scale/Output",
      "type": "VEC3"
    },
    {
      "bufferView": 65,
      "componentType": 5126,
      "count": 1,
      "max": [
        0.6666666865348816
      ],
      "min": [
        0.6666666865348816
      ],
      "name": "Bip001 L Hand/scale/Input",
      "type": "SCALAR"
    },
    {
      "bufferView": 66,
      "componentType": 5126,
      "count": 8,
      "name": "Bip001 R Clavicle/translation/Output",
      "type": "VEC3"
    },
    {
      "bufferView": 67,
      "componentType": 5126,
      "count": 8,
      "max": [
        0.6666666865348816
      ],
      "min": [
        0.06666667014360428
      ],
      "name": "Bip001 R Clavicle/translation/Input",
      "type": "SCALAR"
    },
    {
      "bufferView": 68,
      "componentType": 5126,
      "count": 21,
      "name": "Bip001 R Clavicle/rotation/Output",
      "type": "VEC4"
    },
    {
      "bufferView": 69,
      "componentType": 5126,
      "count": 21,
      "max": [
        0.6666666865348816
      ],
      "min": [
        0.0
      ],
      "name": "Bip001 R Clavicle/rotation/Input",
      "type": "SCALAR"
    },
    {
      "bufferView": 70,
      "componentType": 5126,
      "count": 1,
      "name": "Bip001 R Clavicle/scale/Output",
      "type": "VEC3"
    },
    {
      "bufferView": 71,
      "componentType": 5126,
      "count": 1,
      "max": [
        0.6666666865348816
      ],
      "min": [
        0.6666666865348816
      ],
      "name": "Bip001 R Clavicle/scale/Input",
      "type": "SCALAR"
    },
    {
      "bufferView": 72,
      "componentType": 5126,
      "count": 11,
      "name": "Bip001 R UpperArm/translation/Output",
      "type": "VEC3"
    },
    {
      "bufferView": 73,
      "componentType": 5126,
      "count": 11,
      "max": [
        0.5666666626930237
      ],
      "min": [
        0.0
      ],
      "name": "Bip001 R UpperArm/translation/Input",
      "type": "SCALAR"
    },
    {
      "bufferView": 74,
      "componentType": 5126,
      "count": 21,
      "name": "Bip001 R UpperArm/rotation/Output",
      "type": "VEC4"
    },
    {
      "bufferView": 75,
      "componentType": 5126,
      "count": 21,
      "max": [
        0.6666666865348816
      ],
      "min": [
        0.0
      ],
      "name": "Bip001 R UpperArm/rotation/Input",
      "type": "SCALAR"
    },
    {
      "bufferView": 76,
      "componentType": 5126,
      "count": 1,
      "name": "Bip001 R UpperArm/scale/Output",
      "type": "VEC3"
    },
    {
      "bufferView": 77,
      "componentType": 5126,
      "count": 1,
      "max": [
        0.6666666865348816
      ],
      "min": [
        0.6666666865348816
      ],
      "name": "Bip001 R UpperArm/scale/Input",
      "type": "SCALAR"
    },
    {
      "bufferView": 78,
      "componentType": 5126,
      "count": 11,
      "name": "Bip001 R Forearm/translation/Output",
      "type": "VEC3"
    },
    {
      "bufferView": 79,
      "componentType": 5126,
      "count": 11,
      "max": [
        0.6666666865348816
      ],
      "min": [
        0.0
      ],
      "name": "Bip001 R Forearm/translation/Input",
      "type": "SCALAR"
    },
    {
      "bufferView": 80,
      "componentType": 5126,
      "count": 21,
      "name": "Bip001 R Forearm/rotation/Output",
      "type": "VEC4"
    },
    {
      "bufferView": 81,
      "componentType": 5126,
      "count": 21,
      "max": [
        0.6666666865348816
      ],
      "min": [
        0.0
      ],
      "name": "Bip001 R Forearm/rotation/Input",
      "type": "SCALAR"
    },
    {
      "bufferView": 82,
      "componentType": 5126,
      "count": 1,
      "name": "Bip001 R Forearm/scale/Output",
      "type": "VEC3"
    },
    {
      "bufferView": 83,
      "componentType": 5126,
      "count": 1,
      "max": [
        0.6666666865348816
      ],
      "min": [
        0.6666666865348816
      ],
      "name": "Bip001 R Forearm/scale/Input",
      "type": "SCALAR"
    },
    {
      "bufferView": 84,
      "componentType": 5126,
      "count": 7,
      "name": "Bip001 R Hand/translation/Output",
      "type": "VEC3"
    },
    {
      "bufferView": 85,
      "componentType": 5126,
      "count": 7,
      "max": [
        0.6666666865348816
      ],
      "min": [
        0.20000000298023224
      ],
      "name": "Bip001 R Hand/translation/Input",
      "type": "SCALAR"
    },
    {
      "bufferView": 86,
      "componentType": 5126,
      "count": 21,
      "name": "Bip001 R Hand/rotation/Output",
      "type": "VEC4"
    },
    {
      "bufferView": 87,
      "componentType": 5126,
      "count": 21,
      "max": [
        0.6666666865348816
      ],
      "min": [
        0.0
      ],
      "name": "Bip001 R Hand/rotation/Input",
      "type": "SCALAR"
    },
    {
      "bufferView": 88,
      "componentType": 5126,
      "count": 1,
      "name": "Bip001 R Hand/scale/Output",
      "type": "VEC3"
    },
    {
      "bufferView": 89,
      "componentType": 5126,
      "count": 1,
      "max": [
        0.6666666865348816
      ],
      "min": [
        0.6666666865348816
      ],
      "name": "Bip001 R Hand/scale/Input",
      "type": "SCALAR"
    },
    {
      "bufferView": 90,
      "componentType": 5126,
      "count": 6,
      "name": "Bip001 L Thigh/translation/Output",
      "type": "VEC3"
    },
    {
      "bufferView": 91,
      "componentType": 5126,
      "count": 6,
      "max": [
        0.4333333373069763
      ],
      "min": [
        0.10000000149011612
      ],
      "name": "Bip001 L Thigh/translation/Input",
      "type": "SCALAR"
    },
    {
      "bufferView": 92,
      "componentType": 5126,
      "count": 21,
      "name": "Bip001 L Thigh/rotation/Output",
      "type": "VEC4"
    },
    {
      "bufferView": 93,
      "componentType": 5126,
      "count": 21,
      "max": [
        0.6666666865348816
      ],
      "min": [
        0.0
      ],
      "name": "Bip001 L Thigh/rotation/Input",
      "type": "SCALAR"
    },
    {
      "bufferView": 94,
      "componentType": 5126,
      "count": 1,
      "name": "Bip001 L Thigh/scale/Output",
      "type": "VEC3"
    },
    {
      "bufferView": 95,
      "componentType": 5126,
      "count": 1,
      "max": [
        0.6666666865348816
      ],
      "min": [
        0.6666666865348816
      ],
      "name": "Bip001 L Thigh/scale/Input",
      "type": "SCALAR"
    },
    {
      "bufferView": 96,
      "componentType": 5126,
      "count": 3,
      "name": "Bip001 L Calf/translation/Output",
      "type": "VEC3"
    },
    {
      "bufferView": 97,
      "componentType": 5126,
      "count": 3,
      "max": [
        0.5666666626930237
      ],
      "min": [
        0.06666667014360428
      ],
      "name": "Bip001 L Calf/translation/Input",
      "type": "SCALAR"
    },
    {
      "bufferView": 98,
      "componentType": 5126,
      "count": 21,
      "name": "Bip001 L Calf/rotation/Output",
      "type": "VEC4"
    },
    {
      "bufferView": 99,
      "componentType": 5126,
      "count": 21,
      "max": [
        0.6666666865348816
      ],
      "min": [
        0.0
      ],
      "name": "Bip001 L Calf/rotation/Input",
      "type": "SCALAR"
    },
    {
      "bufferView": 100,
      "componentType": 5126,
      "count": 1,
      "name": "Bip001 L Calf/scale/Output",
      "type": "VEC3"
    },
    {
      "bufferView": 101,
      "componentType": 5126,
      "count": 1,
      "max": [
        0.6666666865348816
      ],
      "min": [
        0.6666666865348816
      ],
      "name": "Bip001 L Calf/scale/Input",
      "type": "SCALAR"
    },
    {
      "bufferView": 102,
      "componentType": 5126,
      "count": 4,
      "name": "Bip001 L Foot/translation/Output",
      "type": "VEC3"
    },
    {
      "bufferView": 103,
      "componentType": 5126,
      "count": 4,
      "max": [
        0.5666666626930237
      ],
      "min": [
        0.20000000298023224
      ],
      "name": "Bip001 L Foot/translation/Input",
      "type": "SCALAR"
    },
    {
      "bufferView": 104,
      "componentType": 5126,
      "count": 21,
      "name": "Bip001 L Foot/rotation/Output",
      "type": "VEC4"
    },
    {
      "bufferView": 105,
      "componentType": 5126,
      "count": 21,
      "max": [
        0.6666666865348816
      ],
      "min": [
        0.0
      ],
      "name": "Bip001 L Foot/rotation/Input",
      "type": "SCALAR"
    },
    {
      "bufferView": 106,
      "componentType": 5126,
      "count": 1,
      "name": "Bip001 L Foot/scale/Output",
      "type": "VEC3"
    },
    {
      "bufferView": 107,
      "componentType": 5126,
      "count": 1,
      "max": [
        0.6666666865348816
      ],
      "min": [
        0.6666666865348816
      ],
      "name": "Bip001 L Foot/scale/Input",
      "type": "SCALAR"
    },
    {
      "bufferView": 108,
      "componentType": 5126,
      "count": 1,
      "name": "Bip001 L Toe0/translation/Output",
      "type": "VEC3"
    },
    {
      "bufferView": 109,
      "componentType": 5126,
      "count": 1,
      "max": [
        0.6666666865348816
      ],
      "min": [
        0.6666666865348816
      ],
      "name": "Bip001 L Toe0/translation/Input",
      "type": "SCALAR"
    },
    {
      "bufferView": 110,
      "componentType": 5126,
      "count": 16,
      "name": "Bip001 L Toe0/rotation/Output",
      "type": "VEC4"
    },
    {
      "bufferView": 111,
      "componentType": 5126,
      "count": 16,
      "max": [
        0.6666666865348816
      ],
      "min": [
        0.0
      ],
      "name": "Bip001 L Toe0/rotation/Input",
      "type": "SCALAR"
    },
    {
      "bufferView": 112,
      "componentType": 5126,
      "count": 1,
      "name": "Bip001 L Toe0/scale/Output",
      "type": "VEC3"
    },
    {
      "bufferView": 113,
      "componentType": 5126,
      "count": 1,
      "max": [
        0.6666666865348816
      ],
      "min": [
        0.6666666865348816
      ],
      "name": "Bip001 L Toe0/scale/Input",
      "type": "SCALAR"
    },
    {
      "bufferView": 114,
      "componentType": 5126,
      "count": 1,
      "name": "Bip001 R Thigh/translation/Output",
      "type": "VEC3"
    },
    {
      "bufferView": 115,
      "componentType": 5126,
      "count": 1,
      "max": [
        0.6666666865348816
      ],
      "min": [
        0.6666666865348816
      ],
      "name": "Bip001 R Thigh/translation/Input",
      "type": "SCALAR"
    },
    {
      "bufferView": 116,
      "componentType": 5126,
      "count": 21,
      "name": "Bip001 R Thigh/rotation/Output",
      "type": "VEC4"
    },
    {
      "bufferView": 117,
      "componentType": 5126,
      "count": 21,
      "max": [
        0.6666666865348816
      ],
      "min": [
        0.0
      ],
      "name": "Bip001 R Thigh/rotation/Input",
      "type": "SCALAR"
    },
    {
      "bufferView": 118,
      "componentType": 5126,
      "count": 1,
      "name": "Bip001 R Thigh/scale/Output",
      "type": "VEC3"
    },
    {
      "bufferView": 119,
      "componentType": 5126,
      "count": 1,
      "max": [
        0.6666666865348816
      ],
      "min": [
        0.6666666865348816
      ],
      "name": "Bip001 R Thigh/scale/Input",
      "type": "SCALAR"
    },
    {
      "bufferView": 120,
      "componentType": 5126,
      "count": 7,
      "name": "Bip001 R Calf/translation/Output",
      "type": "VEC3"
    },
    {
      "bufferView": 121,
      "componentType": 5126,
      "count": 7,
      "max": [
        0.5333333611488342
      ],
      "min": [
        0.06666667014360428
      ],
      "name": "Bip001 R Calf/translation/Input",
      "type": "SCALAR"
    },
    {
      "bufferView": 122,
      "componentType": 5126,
      "count": 21,
      "name": "Bip001 R Calf/rotation/Output",
      "type": "VEC4"
    },
    {
      "bufferView": 123,
      "componentType": 5126,
      "count": 21,
      "max": [
        0.6666666865348816
      ],
      "min": [
        0.0
      ],
      "name": "Bip001 R Calf/rotation/Input",
      "type": "SCALAR"
    },
    {
      "bufferView": 124,
      "componentType": 5126,
      "count": 1,
      "name": "Bip001 R Calf/scale/Output",
      "type": "VEC3"
    },
    {
      "bufferView": 125,
      "componentType": 5126,
      "count": 1,
      "max": [
        0.6666666865348816
      ],
      "min": [
        0.6666666865348816
      ],
      "name": "Bip001 R Calf/scale/Input",
      "type": "SCALAR"
    },
    {
      "bufferView": 126,
      "componentType": 5126,
      "count": 6,
      "name": "Bip001 R Foot/translation/Output",
      "type": "VEC3"
    },
    {
      "bufferView": 127,
      "componentType": 5126,
      "count": 6,
      "max": [
        0.6666666865348816
      ],
      "min": [
        0.03333333507180214
      ],
      "name": "Bip001 R Foot/translation/Input",
      "type": "SCALAR"
    },
    {
      "bufferView": 128,
      "componentType": 5126,
      "count": 21,
      "name": "Bip001 R Foot/rotation/Output",
      "type": "VEC4"
    },
    {
      "bufferView": 129,
      "componentType": 5126,
      "count": 21,
      "max": [
        0.6666666865348816
      ],
      "min": [
        0.0
      ],
      "name": "Bip001 R Foot/rotation/Input",
      "type": "SCALAR"
    },
    {
      "bufferView": 130,
      "componentType": 5126,
      "count": 1,
      "name": "Bip001 R Foot/scale/Output",
      "type": "VEC3"
    },
    {
      "bufferView": 131,
      "componentType": 5126,
      "count": 1,
      "max": [
        0.6666666865348816
      ],
      "min": [
        0.6666666865348816
      ],
      "name": "Bip001 R Foot/scale/Input",
      "type": "SCALAR"
    },
    {
      "bufferView": 132,
      "componentType": 5126,
      "count": 1,
      "name": "Bip001 R Toe0/translation/Output",
      "type": "VEC3"
    },
    {
      "bufferView": 133,
      "componentType": 5126,
      "count": 1,
      "max": [
        0.6666666865348816
      ],
      "min": [
        0.6666666865348816
      ],
      "name": "Bip001 R Toe0/translation/Input",
      "type": "SCALAR"
    },
    {
      "bufferView": 134,
      "componentType": 5126,
      "count": 14,
      "name": "Bip001 R Toe0/rotation/Output",
      "type": "VEC4"
    },
    {
      "bufferView": 135,
      "componentType": 5126,
      "count": 14,
      "max": [
        0.6666666865348816
      ],
      "min": [
        0.0
      ],
      "name": "Bip001 R Toe0/rotation/Input",
      "type": "SCALAR"
    },
    {
      "bufferView": 136,
      "componentType": 5126,
      "count": 1,
      "name": "Bip001 R Toe0/scale/Output",
      "type": "VEC3"
    },
    {
      "bufferView": 137,
      "componentType": 5126,
      "count": 1,
      "max": [
        0.6666666865348816
      ],
      "min": [
        0.6666666865348816
      ],
      "name": "Bip001 R Toe0/scale/Input",
      "type": "SCALAR"
    }
  ],
  "animations": [
    {
      "channels": [
        {
          "sampler": 0,
          "target": {
            "node": 0,
            "path": "translation"
          }
        },
        {
          "sampler": 1,
          "target": {
            "node": 0,
            "path": "rotation"
          }
        },
        {
          "sampler": 2,
          "target": {
            "node": 0,
            "path": "scale"
          }
        },
        {
          "sampler": 3,
          "target": {
            "node": 1,
            "path": "translation"
          }
        },
        {
          "sampler": 4,
          "target": {
            "node": 1,
            "path": "rotation"
          }
        },
        {
          "sampler": 5,
          "target": {
            "node": 1,
            "path": "scale"
          }
        },
        {
          "sampler": 6,
          "target": {
            "node": 2,
            "path": "translation"
          }
        },
        {
          "sampler": 7,
          "target": {
            "node": 2,
            "path": "rotation"
          }
        },
        {
          "sampler": 8,
          "target": {
            "node": 2,
            "path": "scale"
          }
        },
        {
          "sampler": 9,
          "target": {
            "node": 3,
            "path": "translation"
          }
        },
        {
          "sampler": 10,
          "target": {
            "node": 3,
            "path": "rotation"
          }
        },
        {
          "sampler": 11,
          "target": {
            "node": 3,
            "path": "scale"
          }
        },
        {
          "sampler": 12,
          "target": {
            "node": 4,
            "path": "translation"
          }
        },
        {
          "sampler": 13,
          "target": {
            "node": 4,
            "path": "rotation"
          }
        },
        {
          "sampler": 14,
          "target": {
            "node": 4,
            "path": "scale"
          }
        },
        {
          "sampler": 15,
          "target": {
            "node": 5,
            "path": "translation"
          }
        },
        {
          "sampler": 16,
          "target": {
            "node": 5,
            "path": "rotation"
          }
        },
        {
          "sampler": 17,
          "target": {
            "node": 5,
            "path": "scale"
          }
        },
        {
          "sampler": 18,
          "target": {
            "node": 6,
            "path": "translation"
          }
        },
        {
          "sampler": 19,
          "target": {
            "node": 6,
            "path": "rotation"
          }
        },
        {
          "sampler": 20,
          "target": {
            "node": 6,
            "path": "scale"
          }
        },
        {
          "sampler": 21,
          "target": {
            "node": 8,
            "path": "translation"
          }
        },
        {
          "sampler": 22,
          "target": {
            "node": 8,
            "path": "rotation"
          }
        },
        {
          "sampler": 23,
          "target": {
            "node": 8,
            "path": "scale"
          }
        },
        {
          "sampler": 24,
          "target": {
            "node": 9,
            "path": "translation"
          }
        },
        {
          "sampler": 25,
          "target": {
            "node": 9,
            "path": "rotation"
          }
        },
        {
          "sampler": 26,
          "target": {
            "node": 9,
            "path": "scale"
          }
        },
        {
          "sampler": 27,
          "target": {
            "node": 10,
            "path": "translation"
          }
        },
        {
          "sampler": 28,
          "target": {
            "node": 10,
            "path": "rotation"
          }
        },
        {
          "sampler": 29,
          "target": {
            "node": 10,
            "path": "scale"
          }
        },
        {
          "sampler": 30,
          "target": {
            "node": 11,
            "path": "translation"
          }
        },
        {
          "sampler": 31,
          "target": {
            "node": 11,
            "path": "rotation"
          }
        },
        {
          "sampler": 32,
          "target": {
            "node": 11,
            "path": "scale"
          }
        },
        {
          "sampler": 33,
          "target": {
            "node": 12,
            "path": "translation"
          }
        },
        {
          "sampler": 34,
          "target": {
            "node": 12,
            "path": "rotation"
          }
        },
        {
          "sampler": 35,
          "target": {
            "node": 12,
            "path": "scale"
          }
        },
        {
          "sampler": 36,
          "target": {
            "node": 13,
            "path": "translation"
          }
        },
        {
          "sampler": 37,
          "target": {
            "node": 13,
            "path": "rotation"
          }
        },
        {
          "sampler": 38,
          "target": {
            "node": 13,
            "path": "scale"
          }
        },
        {
          "sampler": 39,
          "target": {
            "node": 14,
            "path": "translation"
          }
        },
        {
          "sampler": 40,
          "target": {
            "node": 14,
            "path": "rotation"
          }
        },
        {
          "sampler": 41,
          "target": {
            "node": 14,
            "path": "scale"
          }
        },
        {
          "sampler": 42,
          "target": {
            "node": 15,
            "path": "translation"
          }
        },
        {
          "sampler": 43,
          "target": {
            "node": 15,
            "path": "rotation"
          }
        },
        {
          "sampler": 44,
          "target": {
            "node": 15,
            "path": "scale"
          }
        },
        {
          "sampler": 45,
          "target": {
            "node": 16,
            "path": "translation"
          }
        },
        {
          "sampler": 46,
          "target": {
            "node": 16,
            "path": "rotation"
          }
        },
        {
          "sampler": 47,
          "target": {
            "node": 16,
            "path": "scale"
          }
        },
        {
          "sampler": 48,
          "target": {
            "node": 17,
            "path": "translation"
          }
        },
        {
          "sampler": 49,
          "target": {
            "node": 17,
            "path": "rotation"
          }
        },
        {
          "sampler": 50,
          "target": {
            "node": 17,
            "path": "scale"
          }
        },
        {
          "sampler": 51,
          "target": {
            "node": 18,
            "path": "translation"
          }
        },
        {
          "sampler": 52,
          "target": {
            "node": 18,
            "path": "rotation"
          }
        },
        {
          "sampler": 53,
          "target": {
            "node": 18,
            "path": "scale"
          }
        },
        {
          "sampler": 54,
          "target": {
            "node": 19,
            "path": "translation"
          }
        },
        {
          "sampler": 55,
          "target": {
            "node": 19,
            "path": "rotation"
          }
        },
        {
          "sampler": 56,
          "target": {
            "node": 19,
            "path": "scale"
          }
        },
        {
          "sampler": 57,
          "target": {
            "node": 21,
            "path": "translation"
          }
        },
        {
          "sampler": 58,
          "target": {
            "node": 21,
            "path": "rotation"
          }
        },
        {
          "sampler": 59,
          "target": {
            "node": 21,
            "path": "scale"
          }
        },
        {
          "sampler": 60,
          "target": {
            "node": 22,
            "path": "translation"
          }
        },
        {
          "sampler": 61,
          "target": {
            "node": 22,
            "path": "rotation"
          }
        },
        {
          "sampler": 62,
          "target": {
            "node": 22,
            "path": "scale"
          }
        },
        {
          "sampler": 63,
          "target": {
            "node": 23,
            "path": "translation"
          }
        },
        {
          "sampler": 64,
          "target": {
            "node": 23,
            "path": "rotation"
          }
        },
        {
          "sampler": 65,
          "target": {
            "node": 23,
            "path": "scale"
          }
        },
        {
          "sampler": 66,
          "target": {
            "node": 24,
            "path": "translation"
          }
        },
        {
          "sampler": 67,
          "target": {
            "node": 24,
            "path": "rotation"
          }
        },
        {
          "sampler": 68,
          "target": {
            "node": 24,
            "path": "scale"
          }
        }
      ],
      "name": "Take 001",
      "samplers": [
        {
          "input": 1,
          "output": 0
        },
        {
          "input": 3,
          "output": 2
        },
        {
          "input": 5,
          "output": 4
        },
        {
          "input": 7,
          "output": 6
        },
        {
          "input": 9,
          "output": 8
        },
        {
          "input": 11,
          "output": 10
        },
        {
          "input": 13,
          "output": 12
        },
        {
          "input": 15,
          "output": 14
        },
        {
          "input": 17,
          "output": 16
        },
        {
          "input": 19,
          "output": 18
        },
        {
          "input": 21,
          "output": 20
        },
        {
          "input": 23,
          "output": 22
        },
        {
          "input": 25,
          "output": 24
        },
        {
          "input": 27,
          "output": 26
        },
        {
          "input": 29,
          "output": 28
        },
        {
          "input": 31,
          "output": 30
        },
        {
          "input": 33,
          "output": 32
        },
        {
          "input": 35,
          "output": 34
        },
        {
          "input": 37,
          "output": 36
        },
        {
          "input": 39,
          "output": 38
        },
        {
          "input": 41,
          "output": 40
        },
        {
          "input": 43,
          "output": 42
        },
        {
          "input": 45,
          "output": 44
        },
        {
          "input": 47,
          "output": 46
        },
        {
          "input": 49,
          "output": 48
        },
        {
          "input": 51,
          "output": 50
        },
        {
          "input": 53,
          "output": 52
        },
        {
          "input": 55,
          "output": 54
        },
        {
          "input": 57,
          "output": 56
        },
        {
          "input": 59,
          "output": 58
        },
        {
          "input": 61,
          "output": 60
        },
        {
          "input": 63,
          "output": 62
        },
        {
          "input": 65,
          "output": 64
        },
        {
          "input": 67,
          "output": 66
        },
        {
          "input": 69,
          "output": 68
        },
        {
          "input": 71,
          "output": 70
        },
        {
          "input": 73,
          "output": 72
        },
        {
          "input": 75,
          "output": 74
        },
        {
          "input": 77,
          "output": 76
        },
        {
          "input": 79,
          "output": 78
        },
        {
          "input": 81,
          "output": 80
        },
        {
          "input": 83,
          "output": 82
        },
        {
          "input": 85,
          "output": 84
        },
        {
          "input": 87,
          "output": 86
        },
        {
          "input": 89,
          "output": 88
        },
        {
          "input": 91,
          "output": 90
        },
        {
          "input": 93,
          "output": 92
        },
        {
          "input": 95,
          "output": 94
        },
        {
          "input": 97,
          "output": 96
        },
        {
          "input": 99,
          "output": 98
        },
        {
          "input": 101,
          "output": 100
        },
        {
          "input": 103,
          "output": 102
        },
        {
          "input": 105,
          "output": 104
        },
        {
          "input": 107,
          "output": 106
        },
        {
          "input": 109,
          "output": 108
        },
        {
          "input": 111,
          "output": 110
        },
        {
          "input": 113,
          "output": 112
        },
        {
          "input": 115,
          "output": 114
        },
        {
          "input": 117,
          "output": 116
        },
        {
          "input": 119,
          "output": 118
        },
        {
          "input": 121,
          "output": 120
        },
        {
          "input": 123,
          "output": 122
        },
        {
          "input": 125,
          "output": 124
        },
        {
          "input": 127,
          "output": 126
        },
        {
          "input": 129,
          "output": 128
        },
        {
          "input": 131,
          "output": 130
        },
        {
          "input": 133,
          "output": 132
        },
        {
          "input": 135,
          "output": 134
        },
        {
          "input": 137,
          "output": 136
        }
      ]
    }
  ],
  "asset": {
    "copyright": "Copyright (c) 2018-2020 Chukong Technologies Inc.",
    "generator": "FBX-glTF-conv",
    "version": "2.0"
  },
  "bufferViews": [
    {
      "buffer": 0,
      "byteLength": 240
    },
    {
      "buffer": 0,
      "byteLength": 80,
      "byteOffset": 240
    },
    {
      "buffer": 0,
      "byteLength": 16,
      "byteOffset": 320
    },
    {
      "buffer": 0,
      "byteLength": 4,
      "byteOffset": 336
    },
    {
      "buffer": 0,
      "byteLength": 12,
      "byteOffset": 340
    },
    {
      "buffer": 0,
      "byteLength": 4,
      "byteOffset": 352
    },
    {
      "buffer": 0,
      "byteLength": 252,
      "byteOffset": 356
    },
    {
      "buffer": 0,
      "byteLength": 84,
      "byteOffset": 608
    },
    {
      "buffer": 0,
      "byteLength": 16,
      "byteOffset": 692
    },
    {
      "buffer": 0,
      "byteLength": 4,
      "byteOffset": 708
    },
    {
      "buffer": 0,
      "byteLength": 12,
      "byteOffset": 712
    },
    {
      "buffer": 0,
      "byteLength": 4,
      "byteOffset": 724
    },
    {
      "buffer": 0,
      "byteLength": 12,
      "byteOffset": 728
    },
    {
      "buffer": 0,
      "byteLength": 4,
      "byteOffset": 740
    },
    {
      "buffer": 0,
      "byteLength": 320,
      "byteOffset": 744
    },
    {
      "buffer": 0,
      "byteLength": 80,
      "byteOffset": 1064
    },
    {
      "buffer": 0,
      "byteLength": 12,
      "byteOffset": 1144
    },
    {
      "buffer": 0,
      "byteLength": 4,
      "byteOffset": 1156
    },
    {
      "buffer": 0,
      "byteLength": 252,
      "byteOffset": 1160
    },
    {
      "buffer": 0,
      "byteLength": 84,
      "byteOffset": 1412
    },
    {
      "buffer": 0,
      "byteLength": 336,
      "byteOffset": 1496
    },
    {
      "buffer": 0,
      "byteLength": 84,
      "byteOffset": 1832
    },
    {
      "buffer": 0,
      "byteLength": 12,
      "byteOffset": 1916
    },
    {
      "buffer": 0,
      "byteLength": 4,
      "byteOffset": 1928
    },
    {
      "buffer": 0,
      "byteLength": 252,
      "byteOffset": 1932
    },
    {
      "buffer": 0,
      "byteLength": 84,
      "byteOffset": 2184
    },
    {
      "buffer": 0,
      "byteLength": 336,
      "byteOffset": 2268
    },
    {
      "buffer": 0,
      "byteLength": 84,
      "byteOffset": 2604
    },
    {
      "buffer": 0,
      "byteLength": 12,
      "byteOffset": 2688
    },
    {
      "buffer": 0,
      "byteLength": 4,
      "byteOffset": 2700
    },
    {
      "buffer": 0,
      "byteLength": 252,
      "byteOffset": 2704
    },
    {
      "buffer": 0,
      "byteLength": 84,
      "byteOffset": 2956
    },
    {
      "buffer": 0,
      "byteLength": 336,
      "byteOffset": 3040
    },
    {
      "buffer": 0,
      "byteLength": 84,
      "byteOffset": 3376
    },
    {
      "buffer": 0,
      "byteLength": 12,
      "byteOffset": 3460
    },
    {
      "buffer": 0,
      "byteLength": 4,
      "byteOffset": 3472
    },
    {
      "buffer": 0,
      "byteLength": 60,
      "byteOffset": 3476
    },
    {
      "buffer": 0,
      "byteLength": 20,
      "byteOffset": 3536
    },
    {
      "buffer": 0,
      "byteLength": 336,
      "byteOffset": 3556
    },
    {
      "buffer": 0,
      "byteLength": 84,
      "byteOffset": 3892
    },
    {
      "buffer": 0,
      "byteLength": 12,
      "byteOffset": 3976
    },
    {
      "buffer": 0,
      "byteLength": 4,
      "byteOffset": 3988
    },
    {
      "buffer": 0,
      "byteLength": 96,
      "byteOffset": 3992
    },
    {
      "buffer": 0,
      "byteLength": 32,
      "byteOffset": 4088
    },
    {
      "buffer": 0,
      "byteLength": 336,
      "byteOffset": 4120
    },
    {
      "buffer": 0,
      "byteLength": 84,
      "byteOffset": 4456
    },
    {
      "buffer": 0,
      "byteLength": 12,
      "byteOffset": 4540
    },
    {
      "buffer": 0,
      "byteLength": 4,
      "byteOffset": 4552
    },
    {
      "buffer": 0,
      "byteLength": 156,
      "byteOffset": 4556
    },
    {
      "buffer": 0,
      "byteLength": 52,
      "byteOffset": 4712
    },
    {
      "buffer": 0,
      "byteLength": 336,
      "byteOffset": 4764
    },
    {
      "buffer": 0,
      "byteLength": 84,
      "byteOffset": 5100
    },
    {
      "buffer": 0,
      "byteLength": 12,
      "byteOffset": 5184
    },
    {
      "buffer": 0,
      "byteLength": 4,
      "byteOffset": 5196
    },
    {
      "buffer": 0,
      "byteLength": 96,
      "byteOffset": 5200
    },
    {
      "buffer": 0,
      "byteLength": 32,
      "byteOffset": 5296
    },
    {
      "buffer": 0,
      "byteLength": 336,
      "byteOffset": 5328
    },
    {
      "buffer": 0,
      "byteLength": 84,
      "byteOffset": 5664
    },
    {
      "buffer": 0,
      "byteLength": 12,
      "byteOffset": 5748
    },
    {
      "buffer": 0,
      "byteLength": 4,
      "byteOffset": 5760
    },
    {
      "buffer": 0,
      "byteLength": 96,
      "byteOffset": 5764
    },
    {
      "buffer": 0,
      "byteLength": 32,
      "byteOffset": 5860
    },
    {
      "buffer": 0,
      "byteLength": 336,
      "byteOffset": 5892
    },
    {
      "buffer": 0,
      "byteLength": 84,
      "byteOffset": 6228
    },
    {
      "buffer": 0,
      "byteLength": 12,
      "byteOffset": 6312
    },
    {
      "buffer": 0,
      "byteLength": 4,
      "byteOffset": 6324
    },
    {
      "buffer": 0,
      "byteLength": 96,
      "byteOffset": 6328
    },
    {
      "buffer": 0,
      "byteLength": 32,
      "byteOffset": 6424
    },
    {
      "buffer": 0,
      "byteLength": 336,
      "byteOffset": 6456
    },
    {
      "buffer": 0,
      "byteLength": 84,
      "byteOffset": 6792
    },
    {
      "buffer": 0,
      "byteLength": 12,
      "byteOffset": 6876
    },
    {
      "buffer": 0,
      "byteLength": 4,
      "byteOffset": 6888
    },
    {
      "buffer": 0,
      "byteLength": 132,
      "byteOffset": 6892
    },
    {
      "buffer": 0,
      "byteLength": 44,
      "byteOffset": 7024
    },
    {
      "buffer": 0,
      "byteLength": 336,
      "byteOffset": 7068
    },
    {
      "buffer": 0,
      "byteLength": 84,
      "byteOffset": 7404
    },
    {
      "buffer": 0,
      "byteLength": 12,
      "byteOffset": 7488
    },
    {
      "buffer": 0,
      "byteLength": 4,
      "byteOffset": 7500
    },
    {
      "buffer": 0,
      "byteLength": 132,
      "byteOffset": 7504
    },
    {
      "buffer": 0,
      "byteLength": 44,
      "byteOffset": 7636
    },
    {
      "buffer": 0,
      "byteLength": 336,
      "byteOffset": 7680
    },
    {
      "buffer": 0,
      "byteLength": 84,
      "byteOffset": 8016
    },
    {
      "buffer": 0,
      "byteLength": 12,
      "byteOffset": 8100
    },
    {
      "buffer": 0,
      "byteLength": 4,
      "byteOffset": 8112
    },
    {
      "buffer": 0,
      "byteLength": 84,
      "byteOffset": 8116
    },
    {
      "buffer": 0,
      "byteLength": 28,
      "byteOffset": 8200
    },
    {
      "buffer": 0,
      "byteLength": 336,
      "byteOffset": 8228
    },
    {
      "buffer": 0,
      "byteLength": 84,
      "byteOffset": 8564
    },
    {
      "buffer": 0,
      "byteLength": 12,
      "byteOffset": 8648
    },
    {
      "buffer": 0,
      "byteLength": 4,
      "byteOffset": 8660
    },
    {
      "buffer": 0,
      "byteLength": 72,
      "byteOffset": 8664
    },
    {
      "buffer": 0,
      "byteLength": 24,
      "byteOffset": 8736
    },
    {
      "buffer": 0,
      "byteLength": 336,
      "byteOffset": 8760
    },
    {
      "buffer": 0,
      "byteLength": 84,
      "byteOffset": 9096
    },
    {
      "buffer": 0,
      "byteLength": 12,
      "byteOffset": 9180
    },
    {
      "buffer": 0,
      "byteLength": 4,
      "byteOffset": 9192
    },
    {
      "buffer": 0,
      "byteLength": 36,
      "byteOffset": 9196
    },
    {
      "buffer": 0,
      "byteLength": 12,
      "byteOffset": 9232
    },
    {
      "buffer": 0,
      "byteLength": 336,
      "byteOffset": 9244
    },
    {
      "buffer": 0,
      "byteLength": 84,
      "byteOffset": 9580
    },
    {
      "buffer": 0,
      "byteLength": 12,
      "byteOffset": 9664
    },
    {
      "buffer": 0,
      "byteLength": 4,
      "byteOffset": 9676
    },
    {
      "buffer": 0,
      "byteLength": 48,
      "byteOffset": 9680
    },
    {
      "buffer": 0,
      "byteLength": 16,
      "byteOffset": 9728
    },
    {
      "buffer": 0,
      "byteLength": 336,
      "byteOffset": 9744
    },
    {
      "buffer": 0,
      "byteLength": 84,
      "byteOffset": 10080
    },
    {
      "buffer": 0,
      "byteLength": 12,
      "byteOffset": 10164
    },
    {
      "buffer": 0,
      "byteLength": 4,
      "byteOffset": 10176
    },
    {
      "buffer": 0,
      "byteLength": 12,
      "byteOffset": 10180
    },
    {
      "buffer": 0,
      "byteLength": 4,
      "byteOffset": 10192
    },
    {
      "buffer": 0,
      "byteLength": 256,
      "byteOffset": 10196
    },
    {
      "buffer": 0,
      "byteLength": 64,
      "byteOffset": 10452
    },
    {
      "buffer": 0,
      "byteLength": 12,
      "byteOffset": 10516
    },
    {
      "buffer": 0,
      "byteLength": 4,
      "byteOffset": 10528
    },
    {
      "buffer": 0,
      "byteLength": 12,
      "byteOffset": 10532
    },
    {
      "buffer": 0,
      "byteLength": 4,
      "byteOffset": 10544
    },
    {
      "buffer": 0,
      "byteLength": 336,
      "byteOffset": 10548
    },
    {
      "buffer": 0,
      "byteLength": 84,
      "byteOffset": 10884
    },
    {
      "buffer": 0,
      "byteLength": 12,
      "byteOffset": 10968
    },
    {
      "buffer": 0,
      "byteLength": 4,
      "byteOffset": 10980
    },
    {
      "buffer": 0,
      "byteLength": 84,
      "byteOffset": 10984
    },
    {
      "buffer": 0,
      "byteLength": 28,
      "byteOffset": 11068
    },
    {
      "buffer": 0,
      "byteLength": 336,
      "byteOffset": 11096
    },
    {
      "buffer": 0,
      "byteLength": 84,
      "byteOffset": 11432
    },
    {
      "buffer": 0,
      "byteLength": 12,
      "byteOffset": 11516
    },
    {
      "buffer": 0,
      "byteLength": 4,
      "byteOffset": 11528
    },
    {
      "buffer": 0,
      "byteLength": 72,
      "byteOffset": 11532
    },
    {
      "buffer": 0,
      "byteLength": 24,
      "byteOffset": 11604
    },
    {
      "buffer": 0,
      "byteLength": 336,
      "byteOffset": 11628
    },
    {
      "buffer": 0,
      "byteLength": 84,
      "byteOffset": 11964
    },
    {
      "buffer": 0,
      "byteLength": 12,
      "byteOffset": 12048
    },
    {
      "buffer": 0,
      "byteLength": 4,
      "byteOffset": 12060
    },
    {
      "buffer": 0,
      "byteLength": 12,
      "byteOffset": 12064
    },
    {
      "buffer": 0,
      "byteLength": 4,
      "byteOffset": 12076
    },
    {
      "buffer": 0,
      "byteLength": 224,
      "byteOffset": 12080
    },
    {
      "buffer": 0,
      "byteLength": 56,
      "byteOffset": 12304
    },
    {
      "buffer": 0,
      "byteLength": 12,
      "byteOffset": 12360
    },
    {
      "buffer": 0,
      "byteLength": 4,
      "byteOffset": 12372
    }
  ],
  "buffers": [
    {
      "byteLength": 12376,
      "uri": "out.bin"
    }
  ],
  "extras": {
    "FBX-glTF-conv": {
      "animationFrameRate": 30.0,
      "fbxFileHeaderInfo": {
        "creationTimeStamp": {
          "day": 3,
          "hour": 10,
          "millisecond": 143,
          "minute": 23,
          "month": 6,
          "second": 16,
          "year": 2026
        },
        "creator": "FBX SDK/FBX Plugins version 2020.3.7",
        "sceneInfo": {
          "author": "",
          "comment": "",
          "keywords": "",
          "original": {
            "applicationName": "3ds Max",
            "applicationVendor": "Autodesk",
            "applicationVersion": "2026",
            "fileName": "E:\\试玩需求\\胖丧尸\\胖丧尸_跑（修改）.fbx"
          },
          "revision": "",
          "subject": "",
          "title": "",
          "url": "D:\\工程项目\\test_pro\\test_pro\\HYQ_Project\\assets\\GameRes\\FBX\\Monster\\胖丧尸_跑（修改）.fbx"
        }
      }
    }
  },
  "nodes": [
    {
      "children": [
        1,
        2
      ],
      "extras": {
        "FBX-glTF-conv": {
          "skeleton": {
            "skeletonType": "Root"
          }
        }
      },
      "name": "Bip001",
      "rotation": [
        -0.38511794805526733,
        -0.38511794805526733,
        -0.5930296182632446,
        0.5930296182632446
      ],
      "translation": [
        0.00036418691161088645,
        0.7968059778213501,
        0.0
      ]
    },
    {
      "name": "Bip001 Footsteps",
      "rotation": [
        -0.1470157653093338,
        -0.1470157653093338,
        0.6916548013687134,
        0.6916548013687134
      ],
      "translation": [
        0.3210037648677826,
        0.0,
        -0.7209862470626831
      ]
    },
    {
      "children": [
        3,
        16,
        21
      ],
      "extras": {
        "FBX-glTF-conv": {
          "skeleton": {
            "skeletonType": "LimbNode"
          }
        }
      },
      "name": "Bip001 Pelvis",
      "rotation": [
        -0.48812633752822876,
        -0.5115981101989746,
        -0.48812568187713623,
        0.5115988254547119
      ]
    },
    {
      "children": [
        4
      ],
      "extras": {
        "FBX-glTF-conv": {
          "skeleton": {
            "skeletonType": "LimbNode"
          }
        }
      },
      "name": "Bip001 Spine",
      "rotation": [
        0.09720893949270248,
        0.02498096600174904,
        0.007059330120682716,
        0.9949253797531128
      ],
      "translation": [
        0.09199386835098267,
        -0.05969299376010895,
        0.0027607320807874203
      ]
    },
    {
      "children": [
        5,
        8,
        12
      ],
      "extras": {
        "FBX-glTF-conv": {
          "skeleton": {
            "skeletonType": "LimbNode"
          }
        }
      },
      "name": "Bip001 Spine1",
      "rotation": [
        0.06918410956859589,
        0.1266688108444214,
        0.2250528484582901,
        0.963597297668457
      ],
      "translation": [
        0.23066474497318268,
        -0.0002031707699643448,
        -4.345893830759451e-05
      ]
    },
    {
      "children": [
        6
      ],
      "extras": {
        "FBX-glTF-conv": {
          "skeleton": {
            "skeletonType": "LimbNode"
          }
        }
      },
      "name": "Bip001 Neck",
      "rotation": [
        -0.03800170123577118,
        0.10072799772024155,
        0.02494589053094387,
        0.9938749670982361
      ],
      "translation": [
        0.29719406366348267,
        -0.024605179205536842,
        4.0435788832837716e-06
      ]
    },
    {
      "children": [
        7
      ],
      "extras": {
        "FBX-glTF-conv": {
          "skeleton": {
            "skeletonType": "LimbNode"
          }
        }
      },
      "name": "Bip001 Head",
      "rotation": [
        -0.021275149658322334,
        -0.0881231352686882,
        -0.32994967699050903,
        0.9396355152130127
      ],
      "translation": [
        0.06866813451051712,
        0.013006133958697319,
        3.814697180359872e-08
      ]
    },
    {
      "extras": {
        "FBX-glTF-conv": {
          "skeleton": {
            "skeletonType": "LimbNode"
          }
        }
      },
      "name": "Bip001 HeadNub",
      "translation": [
        0.24481643736362457,
        0.0,
        -7.629394360719743e-08
      ]
    },
    {
      "children": [
        9
      ],
      "extras": {
        "FBX-glTF-conv": {
          "skeleton": {
            "skeletonType": "LimbNode"
          }
        }
      },
      "name": "Bip001 L Clavicle",
      "rotation": [
        0.6647803783416748,
        -0.19176824390888214,
        0.6986983418464661,
        -0.1819688230752945
      ],
      "translation": [
        0.2356654405593872,
        -0.02611488290131092,
        0.10991611331701279
      ]
    },
    {
      "children": [
        10
      ],
      "extras": {
        "FBX-glTF-conv": {
          "skeleton": {
            "skeletonType": "LimbNode"
          }
        }
      },
      "name": "Bip001 L UpperArm",
      "rotation": [
        0.24997562170028687,
        0.38318100571632385,
        -0.24450534582138062,
        0.8549278378486633
      ],
      "translation": [
        0.14035087823867798,
        0.0,
        -7.629394360719743e-08
      ]
    },
    {
      "children": [
        11
      ],
      "extras": {
        "FBX-glTF-conv": {
          "skeleton": {
            "skeletonType": "LimbNode"
          }
        }
      },
      "name": "Bip001 L Forearm",
      "rotation": [
        3.0473578611914855e-17,
        5.85884086937429e-18,
        -0.270300954580307,
        0.9627758860588074
      ],
      "translation": [
        0.2313036471605301,
        -7.629394360719743e-08,
        0.0
      ]
    },
    {
      "extras": {
        "FBX-glTF-conv": {
          "skeleton": {
            "skeletonType": "LimbNode"
          }
        }
      },
      "name": "Bip001 L Hand",
      "rotation": [
        -0.6277363300323486,
        0.2662290334701538,
        -0.22672073543071747,
        0.695461630821228
      ],
      "translation": [
        0.2684466242790222,
        7.629394360719743e-08,
        7.629394360719743e-08
      ]
    },
    {
      "children": [
        13
      ],
      "extras": {
        "FBX-glTF-conv": {
          "skeleton": {
            "skeletonType": "LimbNode"
          }
        }
      },
      "name": "Bip001 R Clavicle",
      "rotation": [
        0.7940376996994019,
        0.010311055928468704,
        -0.6076168417930603,
        -0.014129274524748325
      ],
      "translation": [
        0.2356654405593872,
        -0.026114273816347122,
        -0.10991623252630234
      ]
    },
    {
      "children": [
        14
      ],
      "extras": {
        "FBX-glTF-conv": {
          "skeleton": {
            "skeletonType": "LimbNode"
          }
        }
      },
      "name": "Bip001 R UpperArm",
      "rotation": [
        0.18265320360660553,
        -0.29303255677223206,
        -0.0721903070807457,
        0.9357126951217651
      ],
      "translation": [
        0.1403508335351944,
        1.4210854397564648e-16,
        7.629394360719743e-08
      ]
    },
    {
      "children": [
        15
      ],
      "extras": {
        "FBX-glTF-conv": {
          "skeleton": {
            "skeletonType": "LimbNode"
          }
        }
      },
      "name": "Bip001 R Forearm",
      "rotation": [
        1.9356418417351198e-17,
        -4.614150107057982e-17,
        -0.5526909828186035,
        0.8333863019943237
      ],
      "translation": [
        0.2313036024570465,
        1.907348590179936e-08,
        2.8421708795129297e-16
      ]
    },
    {
      "extras": {
        "FBX-glTF-conv": {
          "skeleton": {
            "skeletonType": "LimbNode"
          }
        }
      },
      "name": "Bip001 R Hand",
      "rotation": [
        0.6534715890884399,
        -0.23627538979053497,
        -0.15989813208580017,
        0.7011286616325378
      ],
      "translation": [
        0.2684466242790222,
        0.0,
        1.4210854397564648e-16
      ]
    },
    {
      "children": [
        17
      ],
      "extras": {
        "FBX-glTF-conv": {
          "skeleton": {
            "skeletonType": "LimbNode"
          }
        }
      },
      "name": "Bip001 L Thigh",
      "rotation": [
        0.48434603214263916,
        0.8724702000617981,
        0.057139042764902115,
        0.030655603855848312
      ],
      "translation": [
        -1.5258788721439487e-07,
        2.288818308215923e-07,
        0.13230791687965393
      ]
    },
    {
      "children": [
        18
      ],
      "extras": {
        "FBX-glTF-conv": {
          "skeleton": {
            "skeletonType": "LimbNode"
          }
        }
      },
      "name": "Bip001 L Calf",
      "rotation": [
        -1.0987274640419356e-17,
        -1.7680894603453586e-17,
        -0.5278110504150391,
        0.8493618369102478
      ],
      "translation": [
        0.40254539251327515,
        0.0,
        9.53674295089968e-09
      ]
    },
    {
      "children": [
        19
      ],
      "extras": {
        "FBX-glTF-conv": {
          "skeleton": {
            "skeletonType": "LimbNode"
          }
        }
      },
      "name": "Bip001 L Foot",
      "rotation": [
        0.027722375467419624,
        0.013929965905845165,
        0.25240468978881836,
        0.9671242237091064
      ],
      "translation": [
        0.39813876152038574,
        -3.099441414633475e-08,
        0.0
      ]
    },
    {
      "children": [
        20
      ],
      "extras": {
        "FBX-glTF-conv": {
          "skeleton": {
            "skeletonType": "LimbNode"
          }
        }
      },
      "name": "Bip001 L Toe0",
      "rotation": [
        -1.450095851396327e-06,
        3.141228489766945e-06,
        0.7071082592010498,
        0.707105278968811
      ],
      "translation": [
        0.10792405903339386,
        0.13871051371097565,
        0.0
      ]
    },
    {
      "extras": {
        "FBX-glTF-conv": {
          "skeleton": {
            "skeletonType": "LimbNode"
          }
        }
      },
      "name": "Bip001 L Toe0Nub",
      "rotation": [
        2.7794158086180687e-09,
        -1.862645149230957e-09,
        1.0,
        2.3283069916502086e-10
      ],
      "scale": [
        -1.0,
        -1.0,
        -1.0
      ],
      "translation": [
        0.06367139518260956,
        1.19209286886246e-09,
        -1.776356799695581e-17
      ]
    },
    {
      "children": [
        22
      ],
      "extras": {
        "FBX-glTF-conv": {
          "skeleton": {
            "skeletonType": "LimbNode"
          }
        }
      },
      "name": "Bip001 R Thigh",
      "rotation": [
        0.4664668142795563,
        0.8775720596313477,
        -0.069589763879776,
        0.08621647208929062
      ],
      "translation": [
        1.5258788721439487e-07,
        -1.5258788721439487e-07,
        -0.13230791687965393
      ]
    },
    {
      "children": [
        23
      ],
      "extras": {
        "FBX-glTF-conv": {
          "skeleton": {
            "skeletonType": "LimbNode"
          }
        }
      },
      "name": "Bip001 R Calf",
      "rotation": [
        -3.224163084913265e-18,
        1.517715454687603e-17,
        -0.7819731831550598,
        0.6233120560646057
      ],
      "translation": [
        0.40254542231559753,
        7.629394360719743e-08,
        1.907348590179936e-08
      ]
    },
    {
      "children": [
        24
      ],
      "extras": {
        "FBX-glTF-conv": {
          "skeleton": {
            "skeletonType": "LimbNode"
          }
        }
      },
      "name": "Bip001 R Foot",
      "rotation": [
        -0.04443160817027092,
        -0.056024909019470215,
        -0.5164898633956909,
        0.853302538394928
      ],
      "translation": [
        0.39813873171806335,
        7.105427198782324e-17,
        0.0
      ]
    },
    {
      "children": [
        25
      ],
      "extras": {
        "FBX-glTF-conv": {
          "skeleton": {
            "skeletonType": "LimbNode"
          }
        }
      },
      "name": "Bip001 R Toe0",
      "rotation": [
        -0.00010502188524696976,
        0.0003445555630605668,
        0.6902248859405518,
        0.7235948443412781
      ],
      "translation": [
        0.10792408138513565,
        0.13871051371097565,
        0.0
      ]
    },
    {
      "extras": {
        "FBX-glTF-conv": {
          "skeleton": {
            "skeletonType": "LimbNode"
          }
        }
      },
      "name": "Bip001 R Toe0Nub",
      "translation": [
        0.06367141753435135,
        -7.105427198782324e-17,
        0.0
      ]
    }
  ],
  "scenes": [
    {
      "nodes": [
        0
      ]
    }
  ]
}