{
  "accessors": [
    {
      "bufferView": 0,
      "componentType": 5126,
      "count": 20,
      "name": "Bip001/translation/Output",
      "type": "VEC3"
    },
    {
      "bufferView": 1,
      "componentType": 5126,
      "count": 20,
      "max": [
        0.6666666865348816
      ],
      "min": [
        0.0
      ],
      "name": "Bip001/translation/Input",
      "type": "SCALAR"
    },
    {
      "bufferView": 2,
      "componentType": 5126,
      "count": 1,
      "name": "Bip001/rotation/Output",
      "type": "VEC4"
    },
    {
      "bufferView": 3,
      "componentType": 5126,
      "count": 1,
      "max": [
        0.6666666865348816
      ],
      "min": [
        0.6666666865348816
      ],
      "name": "Bip001/rotation/Input",
      "type": "SCALAR"
    },
    {
      "bufferView": 4,
      "componentType": 5126,
      "count": 1,
      "name": "Bip001/scale/Output",
      "type": "VEC3"
    },
    {
      "bufferView": 5,
      "componentType": 5126,
      "count": 1,
      "max": [
        0.6666666865348816
      ],
      "min": [
        0.6666666865348816
      ],
      "name": "Bip001/scale/Input",
      "type": "SCALAR"
    },
    {
      "bufferView": 6,
      "componentType": 5126,
      "count": 1,
      "name": "Bip001 Pelvis/translation/Output",
      "type": "VEC3"
    },
    {
      "bufferView": 7,
      "componentType": 5126,
      "count": 1,
      "max": [
        0.6666666865348816
      ],
      "min": [
        0.6666666865348816
      ],
      "name": "Bip001 Pelvis/translation/Input",
      "type": "SCALAR"
    },
    {
      "bufferView": 8,
      "componentType": 5126,
      "count": 20,
      "name": "Bip001 Pelvis/rotation/Output",
      "type": "VEC4"
    },
    {
      "bufferView": 9,
      "componentType": 5126,
      "count": 20,
      "max": [
        0.6666666865348816
      ],
      "min": [
        0.0
      ],
      "name": "Bip001 Pelvis/rotation/Input",
      "type": "SCALAR"
    },
    {
      "bufferView": 10,
      "componentType": 5126,
      "count": 1,
      "name": "Bip001 Pelvis/scale/Output",
      "type": "VEC3"
    },
    {
      "bufferView": 11,
      "componentType": 5126,
      "count": 1,
      "max": [
        0.6666666865348816
      ],
      "min": [
        0.6666666865348816
      ],
      "name": "Bip001 Pelvis/scale/Input",
      "type": "SCALAR"
    },
    {
      "bufferView": 12,
      "componentType": 5126,
      "count": 21,
      "name": "Bip001 Spine/translation/Output",
      "type": "VEC3"
    },
    {
      "bufferView": 13,
      "componentType": 5126,
      "count": 21,
      "max": [
        0.6666666865348816
      ],
      "min": [
        0.0
      ],
      "name": "Bip001 Spine/translation/Input",
      "type": "SCALAR"
    },
    {
      "bufferView": 14,
      "componentType": 5126,
      "count": 21,
      "name": "Bip001 Spine/rotation/Output",
      "type": "VEC4"
    },
    {
      "bufferView": 15,
      "componentType": 5126,
      "count": 21,
      "max": [
        0.6666666865348816
      ],
      "min": [
        0.0
      ],
      "name": "Bip001 Spine/rotation/Input",
      "type": "SCALAR"
    },
    {
      "bufferView": 16,
      "componentType": 5126,
      "count": 1,
      "name": "Bip001 Spine/scale/Output",
      "type": "VEC3"
    },
    {
      "bufferView": 17,
      "componentType": 5126,
      "count": 1,
      "max": [
        0.6666666865348816
      ],
      "min": [
        0.6666666865348816
      ],
      "name": "Bip001 Spine/scale/Input",
      "type": "SCALAR"
    },
    {
      "bufferView": 18,
      "componentType": 5126,
      "count": 21,
      "name": "Bip001 L Thigh/translation/Output",
      "type": "VEC3"
    },
    {
      "bufferView": 19,
      "componentType": 5126,
      "count": 21,
      "max": [
        0.6666666865348816
      ],
      "min": [
        0.0
      ],
      "name": "Bip001 L Thigh/translation/Input",
      "type": "SCALAR"
    },
    {
      "bufferView": 20,
      "componentType": 5126,
      "count": 21,
      "name": "Bip001 L Thigh/rotation/Output",
      "type": "VEC4"
    },
    {
      "bufferView": 21,
      "componentType": 5126,
      "count": 21,
      "max": [
        0.6666666865348816
      ],
      "min": [
        0.0
      ],
      "name": "Bip001 L Thigh/rotation/Input",
      "type": "SCALAR"
    },
    {
      "bufferView": 22,
      "componentType": 5126,
      "count": 1,
      "name": "Bip001 L Thigh/scale/Output",
      "type": "VEC3"
    },
    {
      "bufferView": 23,
      "componentType": 5126,
      "count": 1,
      "max": [
        0.6666666865348816
      ],
      "min": [
        0.6666666865348816
      ],
      "name": "Bip001 L Thigh/scale/Input",
      "type": "SCALAR"
    },
    {
      "bufferView": 24,
      "componentType": 5126,
      "count": 6,
      "name": "Bip001 L Calf/translation/Output",
      "type": "VEC3"
    },
    {
      "bufferView": 25,
      "componentType": 5126,
      "count": 6,
      "max": [
        0.6333333253860474
      ],
      "min": [
        0.13333334028720856
      ],
      "name": "Bip001 L Calf/translation/Input",
      "type": "SCALAR"
    },
    {
      "bufferView": 26,
      "componentType": 5126,
      "count": 21,
      "name": "Bip001 L Calf/rotation/Output",
      "type": "VEC4"
    },
    {
      "bufferView": 27,
      "componentType": 5126,
      "count": 21,
      "max": [
        0.6666666865348816
      ],
      "min": [
        0.0
      ],
      "name": "Bip001 L Calf/rotation/Input",
      "type": "SCALAR"
    },
    {
      "bufferView": 28,
      "componentType": 5126,
      "count": 1,
      "name": "Bip001 L Calf/scale/Output",
      "type": "VEC3"
    },
    {
      "bufferView": 29,
      "componentType": 5126,
      "count": 1,
      "max": [
        0.6666666865348816
      ],
      "min": [
        0.6666666865348816
      ],
      "name": "Bip001 L Calf/scale/Input",
      "type": "SCALAR"
    },
    {
      "bufferView": 30,
      "componentType": 5126,
      "count": 13,
      "name": "Bip001 L Foot/translation/Output",
      "type": "VEC3"
    },
    {
      "bufferView": 31,
      "componentType": 5126,
      "count": 13,
      "max": [
        0.5666666626930237
      ],
      "min": [
        0.13333334028720856
      ],
      "name": "Bip001 L Foot/translation/Input",
      "type": "SCALAR"
    },
    {
      "bufferView": 32,
      "componentType": 5126,
      "count": 21,
      "name": "Bip001 L Foot/rotation/Output",
      "type": "VEC4"
    },
    {
      "bufferView": 33,
      "componentType": 5126,
      "count": 21,
      "max": [
        0.6666666865348816
      ],
      "min": [
        0.0
      ],
      "name": "Bip001 L Foot/rotation/Input",
      "type": "SCALAR"
    },
    {
      "bufferView": 34,
      "componentType": 5126,
      "count": 1,
      "name": "Bip001 L Foot/scale/Output",
      "type": "VEC3"
    },
    {
      "bufferView": 35,
      "componentType": 5126,
      "count": 1,
      "max": [
        0.6666666865348816
      ],
      "min": [
        0.6666666865348816
      ],
      "name": "Bip001 L Foot/scale/Input",
      "type": "SCALAR"
    },
    {
      "bufferView": 36,
      "componentType": 5126,
      "count": 3,
      "name": "Bip001 L Toe0/translation/Output",
      "type": "VEC3"
    },
    {
      "bufferView": 37,
      "componentType": 5126,
      "count": 3,
      "max": [
        0.5333333611488342
      ],
      "min": [
        0.23333333432674408
      ],
      "name": "Bip001 L Toe0/translation/Input",
      "type": "SCALAR"
    },
    {
      "bufferView": 38,
      "componentType": 5126,
      "count": 15,
      "name": "Bip001 L Toe0/rotation/Output",
      "type": "VEC4"
    },
    {
      "bufferView": 39,
      "componentType": 5126,
      "count": 15,
      "max": [
        0.6333333253860474
      ],
      "min": [
        0.0
      ],
      "name": "Bip001 L Toe0/rotation/Input",
      "type": "SCALAR"
    },
    {
      "bufferView": 40,
      "componentType": 5126,
      "count": 1,
      "name": "Bip001 L Toe0/scale/Output",
      "type": "VEC3"
    },
    {
      "bufferView": 41,
      "componentType": 5126,
      "count": 1,
      "max": [
        0.6666666865348816
      ],
      "min": [
        0.6666666865348816
      ],
      "name": "Bip001 L Toe0/scale/Input",
      "type": "SCALAR"
    },
    {
      "bufferView": 42,
      "componentType": 5126,
      "count": 21,
      "name": "Bip001 R Thigh/translation/Output",
      "type": "VEC3"
    },
    {
      "bufferView": 43,
      "componentType": 5126,
      "count": 21,
      "max": [
        0.6666666865348816
      ],
      "min": [
        0.0
      ],
      "name": "Bip001 R Thigh/translation/Input",
      "type": "SCALAR"
    },
    {
      "bufferView": 44,
      "componentType": 5126,
      "count": 21,
      "name": "Bip001 R Thigh/rotation/Output",
      "type": "VEC4"
    },
    {
      "bufferView": 45,
      "componentType": 5126,
      "count": 21,
      "max": [
        0.6666666865348816
      ],
      "min": [
        0.0
      ],
      "name": "Bip001 R Thigh/rotation/Input",
      "type": "SCALAR"
    },
    {
      "bufferView": 46,
      "componentType": 5126,
      "count": 1,
      "name": "Bip001 R Thigh/scale/Output",
      "type": "VEC3"
    },
    {
      "bufferView": 47,
      "componentType": 5126,
      "count": 1,
      "max": [
        0.6666666865348816
      ],
      "min": [
        0.6666666865348816
      ],
      "name": "Bip001 R Thigh/scale/Input",
      "type": "SCALAR"
    },
    {
      "bufferView": 48,
      "componentType": 5126,
      "count": 5,
      "name": "Bip001 R Calf/translation/Output",
      "type": "VEC3"
    },
    {
      "bufferView": 49,
      "componentType": 5126,
      "count": 5,
      "max": [
        0.20000000298023224
      ],
      "min": [
        0.03333333507180214
      ],
      "name": "Bip001 R Calf/translation/Input",
      "type": "SCALAR"
    },
    {
      "bufferView": 50,
      "componentType": 5126,
      "count": 21,
      "name": "Bip001 R Calf/rotation/Output",
      "type": "VEC4"
    },
    {
      "bufferView": 51,
      "componentType": 5126,
      "count": 21,
      "max": [
        0.6666666865348816
      ],
      "min": [
        0.0
      ],
      "name": "Bip001 R Calf/rotation/Input",
      "type": "SCALAR"
    },
    {
      "bufferView": 52,
      "componentType": 5126,
      "count": 1,
      "name": "Bip001 R Calf/scale/Output",
      "type": "VEC3"
    },
    {
      "bufferView": 53,
      "componentType": 5126,
      "count": 1,
      "max": [
        0.6666666865348816
      ],
      "min": [
        0.6666666865348816
      ],
      "name": "Bip001 R Calf/scale/Input",
      "type": "SCALAR"
    },
    {
      "bufferView": 54,
      "componentType": 5126,
      "count": 8,
      "name": "Bip001 R Foot/translation/Output",
      "type": "VEC3"
    },
    {
      "bufferView": 55,
      "componentType": 5126,
      "count": 8,
      "max": [
        0.5333333611488342
      ],
      "min": [
        0.03333333507180214
      ],
      "name": "Bip001 R Foot/translation/Input",
      "type": "SCALAR"
    },
    {
      "bufferView": 56,
      "componentType": 5126,
      "count": 21,
      "name": "Bip001 R Foot/rotation/Output",
      "type": "VEC4"
    },
    {
      "bufferView": 57,
      "componentType": 5126,
      "count": 21,
      "max": [
        0.6666666865348816
      ],
      "min": [
        0.0
      ],
      "name": "Bip001 R Foot/rotation/Input",
      "type": "SCALAR"
    },
    {
      "bufferView": 58,
      "componentType": 5126,
      "count": 1,
      "name": "Bip001 R Foot/scale/Output",
      "type": "VEC3"
    },
    {
      "bufferView": 59,
      "componentType": 5126,
      "count": 1,
      "max": [
        0.6666666865348816
      ],
      "min": [
        0.6666666865348816
      ],
      "name": "Bip001 R Foot/scale/Input",
      "type": "SCALAR"
    },
    {
      "bufferView": 60,
      "componentType": 5126,
      "count": 1,
      "name": "Bip001 R Toe0/translation/Output",
      "type": "VEC3"
    },
    {
      "bufferView": 61,
      "componentType": 5126,
      "count": 1,
      "max": [
        0.5666666626930237
      ],
      "min": [
        0.5666666626930237
      ],
      "name": "Bip001 R Toe0/translation/Input",
      "type": "SCALAR"
    },
    {
      "bufferView": 62,
      "componentType": 5126,
      "count": 15,
      "name": "Bip001 R Toe0/rotation/Output",
      "type": "VEC4"
    },
    {
      "bufferView": 63,
      "componentType": 5126,
      "count": 15,
      "max": [
        0.6666666865348816
      ],
      "min": [
        0.0
      ],
      "name": "Bip001 R Toe0/rotation/Input",
      "type": "SCALAR"
    },
    {
      "bufferView": 64,
      "componentType": 5126,
      "count": 1,
      "name": "Bip001 R Toe0/scale/Output",
      "type": "VEC3"
    },
    {
      "bufferView": 65,
      "componentType": 5126,
      "count": 1,
      "max": [
        0.6666666865348816
      ],
      "min": [
        0.6666666865348816
      ],
      "name": "Bip001 R Toe0/scale/Input",
      "type": "SCALAR"
    },
    {
      "bufferView": 66,
      "componentType": 5126,
      "count": 12,
      "name": "Bip001 Spine1/translation/Output",
      "type": "VEC3"
    },
    {
      "bufferView": 67,
      "componentType": 5126,
      "count": 12,
      "max": [
        0.6666666865348816
      ],
      "min": [
        0.03333333507180214
      ],
      "name": "Bip001 Spine1/translation/Input",
      "type": "SCALAR"
    },
    {
      "bufferView": 68,
      "componentType": 5126,
      "count": 1,
      "name": "Bip001 Spine1/rotation/Output",
      "type": "VEC4"
    },
    {
      "bufferView": 69,
      "componentType": 5126,
      "count": 1,
      "max": [
        0.6666666865348816
      ],
      "min": [
        0.6666666865348816
      ],
      "name": "Bip001 Spine1/rotation/Input",
      "type": "SCALAR"
    },
    {
      "bufferView": 70,
      "componentType": 5126,
      "count": 1,
      "name": "Bip001 Spine1/scale/Output",
      "type": "VEC3"
    },
    {
      "bufferView": 71,
      "componentType": 5126,
      "count": 1,
      "max": [
        0.6666666865348816
      ],
      "min": [
        0.6666666865348816
      ],
      "name": "Bip001 Spine1/scale/Input",
      "type": "SCALAR"
    },
    {
      "bufferView": 72,
      "componentType": 5126,
      "count": 14,
      "name": "Bip001 Neck/translation/Output",
      "type": "VEC3"
    },
    {
      "bufferView": 73,
      "componentType": 5126,
      "count": 14,
      "max": [
        0.6666666865348816
      ],
      "min": [
        0.0
      ],
      "name": "Bip001 Neck/translation/Input",
      "type": "SCALAR"
    },
    {
      "bufferView": 74,
      "componentType": 5126,
      "count": 1,
      "name": "Bip001 Neck/rotation/Output",
      "type": "VEC4"
    },
    {
      "bufferView": 75,
      "componentType": 5126,
      "count": 1,
      "max": [
        0.6666666865348816
      ],
      "min": [
        0.6666666865348816
      ],
      "name": "Bip001 Neck/rotation/Input",
      "type": "SCALAR"
    },
    {
      "bufferView": 76,
      "componentType": 5126,
      "count": 1,
      "name": "Bip001 Neck/scale/Output",
      "type": "VEC3"
    },
    {
      "bufferView": 77,
      "componentType": 5126,
      "count": 1,
      "max": [
        0.6666666865348816
      ],
      "min": [
        0.6666666865348816
      ],
      "name": "Bip001 Neck/scale/Input",
      "type": "SCALAR"
    },
    {
      "bufferView": 78,
      "componentType": 5126,
      "count": 13,
      "name": "Bip001 L Clavicle/translation/Output",
      "type": "VEC3"
    },
    {
      "bufferView": 79,
      "componentType": 5126,
      "count": 13,
      "max": [
        0.6666666865348816
      ],
      "min": [
        0.0
      ],
      "name": "Bip001 L Clavicle/translation/Input",
      "type": "SCALAR"
    },
    {
      "bufferView": 80,
      "componentType": 5126,
      "count": 1,
      "name": "Bip001 L Clavicle/rotation/Output",
      "type": "VEC4"
    },
    {
      "bufferView": 81,
      "componentType": 5126,
      "count": 1,
      "max": [
        0.6666666865348816
      ],
      "min": [
        0.6666666865348816
      ],
      "name": "Bip001 L Clavicle/rotation/Input",
      "type": "SCALAR"
    },
    {
      "bufferView": 82,
      "componentType": 5126,
      "count": 1,
      "name": "Bip001 L Clavicle/scale/Output",
      "type": "VEC3"
    },
    {
      "bufferView": 83,
      "componentType": 5126,
      "count": 1,
      "max": [
        0.6666666865348816
      ],
      "min": [
        0.6666666865348816
      ],
      "name": "Bip001 L Clavicle/scale/Input",
      "type": "SCALAR"
    },
    {
      "bufferView": 84,
      "componentType": 5126,
      "count": 14,
      "name": "Bip001 L UpperArm/translation/Output",
      "type": "VEC3"
    },
    {
      "bufferView": 85,
      "componentType": 5126,
      "count": 14,
      "max": [
        0.6666666865348816
      ],
      "min": [
        0.0
      ],
      "name": "Bip001 L UpperArm/translation/Input",
      "type": "SCALAR"
    },
    {
      "bufferView": 86,
      "componentType": 5126,
      "count": 21,
      "name": "Bip001 L UpperArm/rotation/Output",
      "type": "VEC4"
    },
    {
      "bufferView": 87,
      "componentType": 5126,
      "count": 21,
      "max": [
        0.6666666865348816
      ],
      "min": [
        0.0
      ],
      "name": "Bip001 L UpperArm/rotation/Input",
      "type": "SCALAR"
    },
    {
      "bufferView": 88,
      "componentType": 5126,
      "count": 1,
      "name": "Bip001 L UpperArm/scale/Output",
      "type": "VEC3"
    },
    {
      "bufferView": 89,
      "componentType": 5126,
      "count": 1,
      "max": [
        0.6666666865348816
      ],
      "min": [
        0.6666666865348816
      ],
      "name": "Bip001 L UpperArm/scale/Input",
      "type": "SCALAR"
    },
    {
      "bufferView": 90,
      "componentType": 5126,
      "count": 6,
      "name": "Bip001 L Forearm/translation/Output",
      "type": "VEC3"
    },
    {
      "bufferView": 91,
      "componentType": 5126,
      "count": 6,
      "max": [
        0.6666666865348816
      ],
      "min": [
        0.1666666716337204
      ],
      "name": "Bip001 L Forearm/translation/Input",
      "type": "SCALAR"
    },
    {
      "bufferView": 92,
      "componentType": 5126,
      "count": 21,
      "name": "Bip001 L Forearm/rotation/Output",
      "type": "VEC4"
    },
    {
      "bufferView": 93,
      "componentType": 5126,
      "count": 21,
      "max": [
        0.6666666865348816
      ],
      "min": [
        0.0
      ],
      "name": "Bip001 L Forearm/rotation/Input",
      "type": "SCALAR"
    },
    {
      "bufferView": 94,
      "componentType": 5126,
      "count": 1,
      "name": "Bip001 L Forearm/scale/Output",
      "type": "VEC3"
    },
    {
      "bufferView": 95,
      "componentType": 5126,
      "count": 1,
      "max": [
        0.6666666865348816
      ],
      "min": [
        0.6666666865348816
      ],
      "name": "Bip001 L Forearm/scale/Input",
      "type": "SCALAR"
    },
    {
      "bufferView": 96,
      "componentType": 5126,
      "count": 7,
      "name": "Bip001 L Hand/translation/Output",
      "type": "VEC3"
    },
    {
      "bufferView": 97,
      "componentType": 5126,
      "count": 7,
      "max": [
        0.6000000238418579
      ],
      "min": [
        0.03333333507180214
      ],
      "name": "Bip001 L Hand/translation/Input",
      "type": "SCALAR"
    },
    {
      "bufferView": 98,
      "componentType": 5126,
      "count": 21,
      "name": "Bip001 L Hand/rotation/Output",
      "type": "VEC4"
    },
    {
      "bufferView": 99,
      "componentType": 5126,
      "count": 21,
      "max": [
        0.6666666865348816
      ],
      "min": [
        0.0
      ],
      "name": "Bip001 L Hand/rotation/Input",
      "type": "SCALAR"
    },
    {
      "bufferView": 100,
      "componentType": 5126,
      "count": 1,
      "name": "Bip001 L Hand/scale/Output",
      "type": "VEC3"
    },
    {
      "bufferView": 101,
      "componentType": 5126,
      "count": 1,
      "max": [
        0.6666666865348816
      ],
      "min": [
        0.6666666865348816
      ],
      "name": "Bip001 L Hand/scale/Input",
      "type": "SCALAR"
    },
    {
      "bufferView": 102,
      "componentType": 5126,
      "count": 16,
      "name": "Bip001 R Clavicle/translation/Output",
      "type": "VEC3"
    },
    {
      "bufferView": 103,
      "componentType": 5126,
      "count": 16,
      "max": [
        0.6666666865348816
      ],
      "min": [
        0.0
      ],
      "name": "Bip001 R Clavicle/translation/Input",
      "type": "SCALAR"
    },
    {
      "bufferView": 104,
      "componentType": 5126,
      "count": 21,
      "name": "Bip001 R Clavicle/rotation/Output",
      "type": "VEC4"
    },
    {
      "bufferView": 105,
      "componentType": 5126,
      "count": 21,
      "max": [
        0.6666666865348816
      ],
      "min": [
        0.0
      ],
      "name": "Bip001 R Clavicle/rotation/Input",
      "type": "SCALAR"
    },
    {
      "bufferView": 106,
      "componentType": 5126,
      "count": 1,
      "name": "Bip001 R Clavicle/scale/Output",
      "type": "VEC3"
    },
    {
      "bufferView": 107,
      "componentType": 5126,
      "count": 1,
      "max": [
        0.6666666865348816
      ],
      "min": [
        0.6666666865348816
      ],
      "name": "Bip001 R Clavicle/scale/Input",
      "type": "SCALAR"
    },
    {
      "bufferView": 108,
      "componentType": 5126,
      "count": 8,
      "name": "Bip001 R UpperArm/translation/Output",
      "type": "VEC3"
    },
    {
      "bufferView": 109,
      "componentType": 5126,
      "count": 8,
      "max": [
        0.6666666865348816
      ],
      "min": [
        0.10000000149011612
      ],
      "name": "Bip001 R UpperArm/translation/Input",
      "type": "SCALAR"
    },
    {
      "bufferView": 110,
      "componentType": 5126,
      "count": 21,
      "name": "Bip001 R UpperArm/rotation/Output",
      "type": "VEC4"
    },
    {
      "bufferView": 111,
      "componentType": 5126,
      "count": 21,
      "max": [
        0.6666666865348816
      ],
      "min": [
        0.0
      ],
      "name": "Bip001 R UpperArm/rotation/Input",
      "type": "SCALAR"
    },
    {
      "bufferView": 112,
      "componentType": 5126,
      "count": 1,
      "name": "Bip001 R UpperArm/scale/Output",
      "type": "VEC3"
    },
    {
      "bufferView": 113,
      "componentType": 5126,
      "count": 1,
      "max": [
        0.6666666865348816
      ],
      "min": [
        0.6666666865348816
      ],
      "name": "Bip001 R UpperArm/scale/Input",
      "type": "SCALAR"
    },
    {
      "bufferView": 114,
      "componentType": 5126,
      "count": 8,
      "name": "Bip001 R Forearm/translation/Output",
      "type": "VEC3"
    },
    {
      "bufferView": 115,
      "componentType": 5126,
      "count": 8,
      "max": [
        0.6666666865348816
      ],
      "min": [
        0.0
      ],
      "name": "Bip001 R Forearm/translation/Input",
      "type": "SCALAR"
    },
    {
      "bufferView": 116,
      "componentType": 5126,
      "count": 21,
      "name": "Bip001 R Forearm/rotation/Output",
      "type": "VEC4"
    },
    {
      "bufferView": 117,
      "componentType": 5126,
      "count": 21,
      "max": [
        0.6666666865348816
      ],
      "min": [
        0.0
      ],
      "name": "Bip001 R Forearm/rotation/Input",
      "type": "SCALAR"
    },
    {
      "bufferView": 118,
      "componentType": 5126,
      "count": 1,
      "name": "Bip001 R Forearm/scale/Output",
      "type": "VEC3"
    },
    {
      "bufferView": 119,
      "componentType": 5126,
      "count": 1,
      "max": [
        0.6666666865348816
      ],
      "min": [
        0.6666666865348816
      ],
      "name": "Bip001 R Forearm/scale/Input",
      "type": "SCALAR"
    },
    {
      "bufferView": 120,
      "componentType": 5126,
      "count": 10,
      "name": "Bip001 R Hand/translation/Output",
      "type": "VEC3"
    },
    {
      "bufferView": 121,
      "componentType": 5126,
      "count": 10,
      "max": [
        0.6666666865348816
      ],
      "min": [
        0.13333334028720856
      ],
      "name": "Bip001 R Hand/translation/Input",
      "type": "SCALAR"
    },
    {
      "bufferView": 122,
      "componentType": 5126,
      "count": 21,
      "name": "Bip001 R Hand/rotation/Output",
      "type": "VEC4"
    },
    {
      "bufferView": 123,
      "componentType": 5126,
      "count": 21,
      "max": [
        0.6666666865348816
      ],
      "min": [
        0.0
      ],
      "name": "Bip001 R Hand/rotation/Input",
      "type": "SCALAR"
    },
    {
      "bufferView": 124,
      "componentType": 5126,
      "count": 1,
      "name": "Bip001 R Hand/scale/Output",
      "type": "VEC3"
    },
    {
      "bufferView": 125,
      "componentType": 5126,
      "count": 1,
      "max": [
        0.6666666865348816
      ],
      "min": [
        0.6666666865348816
      ],
      "name": "Bip001 R Hand/scale/Input",
      "type": "SCALAR"
    },
    {
      "bufferView": 126,
      "componentType": 5126,
      "count": 13,
      "name": "Bip001 Head/translation/Output",
      "type": "VEC3"
    },
    {
      "bufferView": 127,
      "componentType": 5126,
      "count": 13,
      "max": [
        0.6666666865348816
      ],
      "min": [
        0.0
      ],
      "name": "Bip001 Head/translation/Input",
      "type": "SCALAR"
    },
    {
      "bufferView": 128,
      "componentType": 5126,
      "count": 21,
      "name": "Bip001 Head/rotation/Output",
      "type": "VEC4"
    },
    {
      "bufferView": 129,
      "componentType": 5126,
      "count": 21,
      "max": [
        0.6666666865348816
      ],
      "min": [
        0.0
      ],
      "name": "Bip001 Head/rotation/Input",
      "type": "SCALAR"
    },
    {
      "bufferView": 130,
      "componentType": 5126,
      "count": 1,
      "name": "Bip001 Head/scale/Output",
      "type": "VEC3"
    },
    {
      "bufferView": 131,
      "componentType": 5126,
      "count": 1,
      "max": [
        0.6666666865348816
      ],
      "min": [
        0.6666666865348816
      ],
      "name": "Bip001 Head/scale/Input",
      "type": "SCALAR"
    },
    {
      "bufferView": 132,
      "componentType": 5126,
      "count": 21,
      "name": "Bip001 Prop1/translation/Output",
      "type": "VEC3"
    },
    {
      "bufferView": 133,
      "componentType": 5126,
      "count": 21,
      "max": [
        0.6666666865348816
      ],
      "min": [
        0.0
      ],
      "name": "Bip001 Prop1/translation/Input",
      "type": "SCALAR"
    },
    {
      "bufferView": 134,
      "componentType": 5126,
      "count": 20,
      "name": "Bip001 Prop1/rotation/Output",
      "type": "VEC4"
    },
    {
      "bufferView": 135,
      "componentType": 5126,
      "count": 20,
      "max": [
        0.6666666865348816
      ],
      "min": [
        0.0
      ],
      "name": "Bip001 Prop1/rotation/Input",
      "type": "SCALAR"
    },
    {
      "bufferView": 136,
      "componentType": 5126,
      "count": 1,
      "name": "Bip001 Prop1/scale/Output",
      "type": "VEC3"
    },
    {
      "bufferView": 137,
      "componentType": 5126,
      "count": 1,
      "max": [
        0.6666666865348816
      ],
      "min": [
        0.6666666865348816
      ],
      "name": "Bip001 Prop1/scale/Input",
      "type": "SCALAR"
    }
  ],
  "animations": [
    {
      "channels": [
        {
          "sampler": 0,
          "target": {
            "node": 0,
            "path": "translation"
          }
        },
        {
          "sampler": 1,
          "target": {
            "node": 0,
            "path": "rotation"
          }
        },
        {
          "sampler": 2,
          "target": {
            "node": 0,
            "path": "scale"
          }
        },
        {
          "sampler": 3,
          "target": {
            "node": 1,
            "path": "translation"
          }
        },
        {
          "sampler": 4,
          "target": {
            "node": 1,
            "path": "rotation"
          }
        },
        {
          "sampler": 5,
          "target": {
            "node": 1,
            "path": "scale"
          }
        },
        {
          "sampler": 6,
          "target": {
            "node": 2,
            "path": "translation"
          }
        },
        {
          "sampler": 7,
          "target": {
            "node": 2,
            "path": "rotation"
          }
        },
        {
          "sampler": 8,
          "target": {
            "node": 2,
            "path": "scale"
          }
        },
        {
          "sampler": 9,
          "target": {
            "node": 3,
            "path": "translation"
          }
        },
        {
          "sampler": 10,
          "target": {
            "node": 3,
            "path": "rotation"
          }
        },
        {
          "sampler": 11,
          "target": {
            "node": 3,
            "path": "scale"
          }
        },
        {
          "sampler": 12,
          "target": {
            "node": 4,
            "path": "translation"
          }
        },
        {
          "sampler": 13,
          "target": {
            "node": 4,
            "path": "rotation"
          }
        },
        {
          "sampler": 14,
          "target": {
            "node": 4,
            "path": "scale"
          }
        },
        {
          "sampler": 15,
          "target": {
            "node": 5,
            "path": "translation"
          }
        },
        {
          "sampler": 16,
          "target": {
            "node": 5,
            "path": "rotation"
          }
        },
        {
          "sampler": 17,
          "target": {
            "node": 5,
            "path": "scale"
          }
        },
        {
          "sampler": 18,
          "target": {
            "node": 6,
            "path": "translation"
          }
        },
        {
          "sampler": 19,
          "target": {
            "node": 6,
            "path": "rotation"
          }
        },
        {
          "sampler": 20,
          "target": {
            "node": 6,
            "path": "scale"
          }
        },
        {
          "sampler": 21,
          "target": {
            "node": 7,
            "path": "translation"
          }
        },
        {
          "sampler": 22,
          "target": {
            "node": 7,
            "path": "rotation"
          }
        },
        {
          "sampler": 23,
          "target": {
            "node": 7,
            "path": "scale"
          }
        },
        {
          "sampler": 24,
          "target": {
            "node": 8,
            "path": "translation"
          }
        },
        {
          "sampler": 25,
          "target": {
            "node": 8,
            "path": "rotation"
          }
        },
        {
          "sampler": 26,
          "target": {
            "node": 8,
            "path": "scale"
          }
        },
        {
          "sampler": 27,
          "target": {
            "node": 9,
            "path": "translation"
          }
        },
        {
          "sampler": 28,
          "target": {
            "node": 9,
            "path": "rotation"
          }
        },
        {
          "sampler": 29,
          "target": {
            "node": 9,
            "path": "scale"
          }
        },
        {
          "sampler": 30,
          "target": {
            "node": 10,
            "path": "translation"
          }
        },
        {
          "sampler": 31,
          "target": {
            "node": 10,
            "path": "rotation"
          }
        },
        {
          "sampler": 32,
          "target": {
            "node": 10,
            "path": "scale"
          }
        },
        {
          "sampler": 33,
          "target": {
            "node": 11,
            "path": "translation"
          }
        },
        {
          "sampler": 34,
          "target": {
            "node": 11,
            "path": "rotation"
          }
        },
        {
          "sampler": 35,
          "target": {
            "node": 11,
            "path": "scale"
          }
        },
        {
          "sampler": 36,
          "target": {
            "node": 12,
            "path": "translation"
          }
        },
        {
          "sampler": 37,
          "target": {
            "node": 12,
            "path": "rotation"
          }
        },
        {
          "sampler": 38,
          "target": {
            "node": 12,
            "path": "scale"
          }
        },
        {
          "sampler": 39,
          "target": {
            "node": 13,
            "path": "translation"
          }
        },
        {
          "sampler": 40,
          "target": {
            "node": 13,
            "path": "rotation"
          }
        },
        {
          "sampler": 41,
          "target": {
            "node": 13,
            "path": "scale"
          }
        },
        {
          "sampler": 42,
          "target": {
            "node": 14,
            "path": "translation"
          }
        },
        {
          "sampler": 43,
          "target": {
            "node": 14,
            "path": "rotation"
          }
        },
        {
          "sampler": 44,
          "target": {
            "node": 14,
            "path": "scale"
          }
        },
        {
          "sampler": 45,
          "target": {
            "node": 15,
            "path": "translation"
          }
        },
        {
          "sampler": 46,
          "target": {
            "node": 15,
            "path": "rotation"
          }
        },
        {
          "sampler": 47,
          "target": {
            "node": 15,
            "path": "scale"
          }
        },
        {
          "sampler": 48,
          "target": {
            "node": 16,
            "path": "translation"
          }
        },
        {
          "sampler": 49,
          "target": {
            "node": 16,
            "path": "rotation"
          }
        },
        {
          "sampler": 50,
          "target": {
            "node": 16,
            "path": "scale"
          }
        },
        {
          "sampler": 51,
          "target": {
            "node": 17,
            "path": "translation"
          }
        },
        {
          "sampler": 52,
          "target": {
            "node": 17,
            "path": "rotation"
          }
        },
        {
          "sampler": 53,
          "target": {
            "node": 17,
            "path": "scale"
          }
        },
        {
          "sampler": 54,
          "target": {
            "node": 18,
            "path": "translation"
          }
        },
        {
          "sampler": 55,
          "target": {
            "node": 18,
            "path": "rotation"
          }
        },
        {
          "sampler": 56,
          "target": {
            "node": 18,
            "path": "scale"
          }
        },
        {
          "sampler": 57,
          "target": {
            "node": 19,
            "path": "translation"
          }
        },
        {
          "sampler": 58,
          "target": {
            "node": 19,
            "path": "rotation"
          }
        },
        {
          "sampler": 59,
          "target": {
            "node": 19,
            "path": "scale"
          }
        },
        {
          "sampler": 60,
          "target": {
            "node": 20,
            "path": "translation"
          }
        },
        {
          "sampler": 61,
          "target": {
            "node": 20,
            "path": "rotation"
          }
        },
        {
          "sampler": 62,
          "target": {
            "node": 20,
            "path": "scale"
          }
        },
        {
          "sampler": 63,
          "target": {
            "node": 21,
            "path": "translation"
          }
        },
        {
          "sampler": 64,
          "target": {
            "node": 21,
            "path": "rotation"
          }
        },
        {
          "sampler": 65,
          "target": {
            "node": 21,
            "path": "scale"
          }
        },
        {
          "sampler": 66,
          "target": {
            "node": 22,
            "path": "translation"
          }
        },
        {
          "sampler": 67,
          "target": {
            "node": 22,
            "path": "rotation"
          }
        },
        {
          "sampler": 68,
          "target": {
            "node": 22,
            "path": "scale"
          }
        }
      ],
      "name": "Take 001",
      "samplers": [
        {
          "input": 1,
          "output": 0
        },
        {
          "input": 3,
          "output": 2
        },
        {
          "input": 5,
          "output": 4
        },
        {
          "input": 7,
          "output": 6
        },
        {
          "input": 9,
          "output": 8
        },
        {
          "input": 11,
          "output": 10
        },
        {
          "input": 13,
          "output": 12
        },
        {
          "input": 15,
          "output": 14
        },
        {
          "input": 17,
          "output": 16
        },
        {
          "input": 19,
          "output": 18
        },
        {
          "input": 21,
          "output": 20
        },
        {
          "input": 23,
          "output": 22
        },
        {
          "input": 25,
          "output": 24
        },
        {
          "input": 27,
          "output": 26
        },
        {
          "input": 29,
          "output": 28
        },
        {
          "input": 31,
          "output": 30
        },
        {
          "input": 33,
          "output": 32
        },
        {
          "input": 35,
          "output": 34
        },
        {
          "input": 37,
          "output": 36
        },
        {
          "input": 39,
          "output": 38
        },
        {
          "input": 41,
          "output": 40
        },
        {
          "input": 43,
          "output": 42
        },
        {
          "input": 45,
          "output": 44
        },
        {
          "input": 47,
          "output": 46
        },
        {
          "input": 49,
          "output": 48
        },
        {
          "input": 51,
          "output": 50
        },
        {
          "input": 53,
          "output": 52
        },
        {
          "input": 55,
          "output": 54
        },
        {
          "input": 57,
          "output": 56
        },
        {
          "input": 59,
          "output": 58
        },
        {
          "input": 61,
          "output": 60
        },
        {
          "input": 63,
          "output": 62
        },
        {
          "input": 65,
          "output": 64
        },
        {
          "input": 67,
          "output": 66
        },
        {
          "input": 69,
          "output": 68
        },
        {
          "input": 71,
          "output": 70
        },
        {
          "input": 73,
          "output": 72
        },
        {
          "input": 75,
          "output": 74
        },
        {
          "input": 77,
          "output": 76
        },
        {
          "input": 79,
          "output": 78
        },
        {
          "input": 81,
          "output": 80
        },
        {
          "input": 83,
          "output": 82
        },
        {
          "input": 85,
          "output": 84
        },
        {
          "input": 87,
          "output": 86
        },
        {
          "input": 89,
          "output": 88
        },
        {
          "input": 91,
          "output": 90
        },
        {
          "input": 93,
          "output": 92
        },
        {
          "input": 95,
          "output": 94
        },
        {
          "input": 97,
          "output": 96
        },
        {
          "input": 99,
          "output": 98
        },
        {
          "input": 101,
          "output": 100
        },
        {
          "input": 103,
          "output": 102
        },
        {
          "input": 105,
          "output": 104
        },
        {
          "input": 107,
          "output": 106
        },
        {
          "input": 109,
          "output": 108
        },
        {
          "input": 111,
          "output": 110
        },
        {
          "input": 113,
          "output": 112
        },
        {
          "input": 115,
          "output": 114
        },
        {
          "input": 117,
          "output": 116
        },
        {
          "input": 119,
          "output": 118
        },
        {
          "input": 121,
          "output": 120
        },
        {
          "input": 123,
          "output": 122
        },
        {
          "input": 125,
          "output": 124
        },
        {
          "input": 127,
          "output": 126
        },
        {
          "input": 129,
          "output": 128
        },
        {
          "input": 131,
          "output": 130
        },
        {
          "input": 133,
          "output": 132
        },
        {
          "input": 135,
          "output": 134
        },
        {
          "input": 137,
          "output": 136
        }
      ]
    }
  ],
  "asset": {
    "copyright": "Copyright (c) 2018-2020 Chukong Technologies Inc.",
    "generator": "FBX-glTF-conv",
    "version": "2.0"
  },
  "bufferViews": [
    {
      "buffer": 0,
      "byteLength": 240
    },
    {
      "buffer": 0,
      "byteLength": 80,
      "byteOffset": 240
    },
    {
      "buffer": 0,
      "byteLength": 16,
      "byteOffset": 320
    },
    {
      "buffer": 0,
      "byteLength": 4,
      "byteOffset": 336
    },
    {
      "buffer": 0,
      "byteLength": 12,
      "byteOffset": 340
    },
    {
      "buffer": 0,
      "byteLength": 4,
      "byteOffset": 352
    },
    {
      "buffer": 0,
      "byteLength": 12,
      "byteOffset": 356
    },
    {
      "buffer": 0,
      "byteLength": 4,
      "byteOffset": 368
    },
    {
      "buffer": 0,
      "byteLength": 320,
      "byteOffset": 372
    },
    {
      "buffer": 0,
      "byteLength": 80,
      "byteOffset": 692
    },
    {
      "buffer": 0,
      "byteLength": 12,
      "byteOffset": 772
    },
    {
      "buffer": 0,
      "byteLength": 4,
      "byteOffset": 784
    },
    {
      "buffer": 0,
      "byteLength": 252,
      "byteOffset": 788
    },
    {
      "buffer": 0,
      "byteLength": 84,
      "byteOffset": 1040
    },
    {
      "buffer": 0,
      "byteLength": 336,
      "byteOffset": 1124
    },
    {
      "buffer": 0,
      "byteLength": 84,
      "byteOffset": 1460
    },
    {
      "buffer": 0,
      "byteLength": 12,
      "byteOffset": 1544
    },
    {
      "buffer": 0,
      "byteLength": 4,
      "byteOffset": 1556
    },
    {
      "buffer": 0,
      "byteLength": 252,
      "byteOffset": 1560
    },
    {
      "buffer": 0,
      "byteLength": 84,
      "byteOffset": 1812
    },
    {
      "buffer": 0,
      "byteLength": 336,
      "byteOffset": 1896
    },
    {
      "buffer": 0,
      "byteLength": 84,
      "byteOffset": 2232
    },
    {
      "buffer": 0,
      "byteLength": 12,
      "byteOffset": 2316
    },
    {
      "buffer": 0,
      "byteLength": 4,
      "byteOffset": 2328
    },
    {
      "buffer": 0,
      "byteLength": 72,
      "byteOffset": 2332
    },
    {
      "buffer": 0,
      "byteLength": 24,
      "byteOffset": 2404
    },
    {
      "buffer": 0,
      "byteLength": 336,
      "byteOffset": 2428
    },
    {
      "buffer": 0,
      "byteLength": 84,
      "byteOffset": 2764
    },
    {
      "buffer": 0,
      "byteLength": 12,
      "byteOffset": 2848
    },
    {
      "buffer": 0,
      "byteLength": 4,
      "byteOffset": 2860
    },
    {
      "buffer": 0,
      "byteLength": 156,
      "byteOffset": 2864
    },
    {
      "buffer": 0,
      "byteLength": 52,
      "byteOffset": 3020
    },
    {
      "buffer": 0,
      "byteLength": 336,
      "byteOffset": 3072
    },
    {
      "buffer": 0,
      "byteLength": 84,
      "byteOffset": 3408
    },
    {
      "buffer": 0,
      "byteLength": 12,
      "byteOffset": 3492
    },
    {
      "buffer": 0,
      "byteLength": 4,
      "byteOffset": 3504
    },
    {
      "buffer": 0,
      "byteLength": 36,
      "byteOffset": 3508
    },
    {
      "buffer": 0,
      "byteLength": 12,
      "byteOffset": 3544
    },
    {
      "buffer": 0,
      "byteLength": 240,
      "byteOffset": 3556
    },
    {
      "buffer": 0,
      "byteLength": 60,
      "byteOffset": 3796
    },
    {
      "buffer": 0,
      "byteLength": 12,
      "byteOffset": 3856
    },
    {
      "buffer": 0,
      "byteLength": 4,
      "byteOffset": 3868
    },
    {
      "buffer": 0,
      "byteLength": 252,
      "byteOffset": 3872
    },
    {
      "buffer": 0,
      "byteLength": 84,
      "byteOffset": 4124
    },
    {
      "buffer": 0,
      "byteLength": 336,
      "byteOffset": 4208
    },
    {
      "buffer": 0,
      "byteLength": 84,
      "byteOffset": 4544
    },
    {
      "buffer": 0,
      "byteLength": 12,
      "byteOffset": 4628
    },
    {
      "buffer": 0,
      "byteLength": 4,
      "byteOffset": 4640
    },
    {
      "buffer": 0,
      "byteLength": 60,
      "byteOffset": 4644
    },
    {
      "buffer": 0,
      "byteLength": 20,
      "byteOffset": 4704
    },
    {
      "buffer": 0,
      "byteLength": 336,
      "byteOffset": 4724
    },
    {
      "buffer": 0,
      "byteLength": 84,
      "byteOffset": 5060
    },
    {
      "buffer": 0,
      "byteLength": 12,
      "byteOffset": 5144
    },
    {
      "buffer": 0,
      "byteLength": 4,
      "byteOffset": 5156
    },
    {
      "buffer": 0,
      "byteLength": 96,
      "byteOffset": 5160
    },
    {
      "buffer": 0,
      "byteLength": 32,
      "byteOffset": 5256
    },
    {
      "buffer": 0,
      "byteLength": 336,
      "byteOffset": 5288
    },
    {
      "buffer": 0,
      "byteLength": 84,
      "byteOffset": 5624
    },
    {
      "buffer": 0,
      "byteLength": 12,
      "byteOffset": 5708
    },
    {
      "buffer": 0,
      "byteLength": 4,
      "byteOffset": 5720
    },
    {
      "buffer": 0,
      "byteLength": 12,
      "byteOffset": 5724
    },
    {
      "buffer": 0,
      "byteLength": 4,
      "byteOffset": 5736
    },
    {
      "buffer": 0,
      "byteLength": 240,
      "byteOffset": 5740
    },
    {
      "buffer": 0,
      "byteLength": 60,
      "byteOffset": 5980
    },
    {
      "buffer": 0,
      "byteLength": 12,
      "byteOffset": 6040
    },
    {
      "buffer": 0,
      "byteLength": 4,
      "byteOffset": 6052
    },
    {
      "buffer": 0,
      "byteLength": 144,
      "byteOffset": 6056
    },
    {
      "buffer": 0,
      "byteLength": 48,
      "byteOffset": 6200
    },
    {
      "buffer": 0,
      "byteLength": 16,
      "byteOffset": 6248
    },
    {
      "buffer": 0,
      "byteLength": 4,
      "byteOffset": 6264
    },
    {
      "buffer": 0,
      "byteLength": 12,
      "byteOffset": 6268
    },
    {
      "buffer": 0,
      "byteLength": 4,
      "byteOffset": 6280
    },
    {
      "buffer": 0,
      "byteLength": 168,
      "byteOffset": 6284
    },
    {
      "buffer": 0,
      "byteLength": 56,
      "byteOffset": 6452
    },
    {
      "buffer": 0,
      "byteLength": 16,
      "byteOffset": 6508
    },
    {
      "buffer": 0,
      "byteLength": 4,
      "byteOffset": 6524
    },
    {
      "buffer": 0,
      "byteLength": 12,
      "byteOffset": 6528
    },
    {
      "buffer": 0,
      "byteLength": 4,
      "byteOffset": 6540
    },
    {
      "buffer": 0,
      "byteLength": 156,
      "byteOffset": 6544
    },
    {
      "buffer": 0,
      "byteLength": 52,
      "byteOffset": 6700
    },
    {
      "buffer": 0,
      "byteLength": 16,
      "byteOffset": 6752
    },
    {
      "buffer": 0,
      "byteLength": 4,
      "byteOffset": 6768
    },
    {
      "buffer": 0,
      "byteLength": 12,
      "byteOffset": 6772
    },
    {
      "buffer": 0,
      "byteLength": 4,
      "byteOffset": 6784
    },
    {
      "buffer": 0,
      "byteLength": 168,
      "byteOffset": 6788
    },
    {
      "buffer": 0,
      "byteLength": 56,
      "byteOffset": 6956
    },
    {
      "buffer": 0,
      "byteLength": 336,
      "byteOffset": 7012
    },
    {
      "buffer": 0,
      "byteLength": 84,
      "byteOffset": 7348
    },
    {
      "buffer": 0,
      "byteLength": 12,
      "byteOffset": 7432
    },
    {
      "buffer": 0,
      "byteLength": 4,
      "byteOffset": 7444
    },
    {
      "buffer": 0,
      "byteLength": 72,
      "byteOffset": 7448
    },
    {
      "buffer": 0,
      "byteLength": 24,
      "byteOffset": 7520
    },
    {
      "buffer": 0,
      "byteLength": 336,
      "byteOffset": 7544
    },
    {
      "buffer": 0,
      "byteLength": 84,
      "byteOffset": 7880
    },
    {
      "buffer": 0,
      "byteLength": 12,
      "byteOffset": 7964
    },
    {
      "buffer": 0,
      "byteLength": 4,
      "byteOffset": 7976
    },
    {
      "buffer": 0,
      "byteLength": 84,
      "byteOffset": 7980
    },
    {
      "buffer": 0,
      "byteLength": 28,
      "byteOffset": 8064
    },
    {
      "buffer": 0,
      "byteLength": 336,
      "byteOffset": 8092
    },
    {
      "buffer": 0,
      "byteLength": 84,
      "byteOffset": 8428
    },
    {
      "buffer": 0,
      "byteLength": 12,
      "byteOffset": 8512
    },
    {
      "buffer": 0,
      "byteLength": 4,
      "byteOffset": 8524
    },
    {
      "buffer": 0,
      "byteLength": 192,
      "byteOffset": 8528
    },
    {
      "buffer": 0,
      "byteLength": 64,
      "byteOffset": 8720
    },
    {
      "buffer": 0,
      "byteLength": 336,
      "byteOffset": 8784
    },
    {
      "buffer": 0,
      "byteLength": 84,
      "byteOffset": 9120
    },
    {
      "buffer": 0,
      "byteLength": 12,
      "byteOffset": 9204
    },
    {
      "buffer": 0,
      "byteLength": 4,
      "byteOffset": 9216
    },
    {
      "buffer": 0,
      "byteLength": 96,
      "byteOffset": 9220
    },
    {
      "buffer": 0,
      "byteLength": 32,
      "byteOffset": 9316
    },
    {
      "buffer": 0,
      "byteLength": 336,
      "byteOffset": 9348
    },
    {
      "buffer": 0,
      "byteLength": 84,
      "byteOffset": 9684
    },
    {
      "buffer": 0,
      "byteLength": 12,
      "byteOffset": 9768
    },
    {
      "buffer": 0,
      "byteLength": 4,
      "byteOffset": 9780
    },
    {
      "buffer": 0,
      "byteLength": 96,
      "byteOffset": 9784
    },
    {
      "buffer": 0,
      "byteLength": 32,
      "byteOffset": 9880
    },
    {
      "buffer": 0,
      "byteLength": 336,
      "byteOffset": 9912
    },
    {
      "buffer": 0,
      "byteLength": 84,
      "byteOffset": 10248
    },
    {
      "buffer": 0,
      "byteLength": 12,
      "byteOffset": 10332
    },
    {
      "buffer": 0,
      "byteLength": 4,
      "byteOffset": 10344
    },
    {
      "buffer": 0,
      "byteLength": 120,
      "byteOffset": 10348
    },
    {
      "buffer": 0,
      "byteLength": 40,
      "byteOffset": 10468
    },
    {
      "buffer": 0,
      "byteLength": 336,
      "byteOffset": 10508
    },
    {
      "buffer": 0,
      "byteLength": 84,
      "byteOffset": 10844
    },
    {
      "buffer": 0,
      "byteLength": 12,
      "byteOffset": 10928
    },
    {
      "buffer": 0,
      "byteLength": 4,
      "byteOffset": 10940
    },
    {
      "buffer": 0,
      "byteLength": 156,
      "byteOffset": 10944
    },
    {
      "buffer": 0,
      "byteLength": 52,
      "byteOffset": 11100
    },
    {
      "buffer": 0,
      "byteLength": 336,
      "byteOffset": 11152
    },
    {
      "buffer": 0,
      "byteLength": 84,
      "byteOffset": 11488
    },
    {
      "buffer": 0,
      "byteLength": 12,
      "byteOffset": 11572
    },
    {
      "buffer": 0,
      "byteLength": 4,
      "byteOffset": 11584
    },
    {
      "buffer": 0,
      "byteLength": 252,
      "byteOffset": 11588
    },
    {
      "buffer": 0,
      "byteLength": 84,
      "byteOffset": 11840
    },
    {
      "buffer": 0,
      "byteLength": 320,
      "byteOffset": 11924
    },
    {
      "buffer": 0,
      "byteLength": 80,
      "byteOffset": 12244
    },
    {
      "buffer": 0,
      "byteLength": 12,
      "byteOffset": 12324
    },
    {
      "buffer": 0,
      "byteLength": 4,
      "byteOffset": 12336
    }
  ],
  "buffers": [
    {
      "byteLength": 12340,
      "uri": "out.bin"
    }
  ],
  "extras": {
    "FBX-glTF-conv": {
      "animationFrameRate": 30.0,
      "fbxFileHeaderInfo": {
        "creationTimeStamp": {
          "day": 22,
          "hour": 18,
          "millisecond": 878,
          "minute": 7,
          "month": 5,
          "second": 45,
          "year": 2026
        },
        "creator": "FBX SDK/FBX Plugins version 2020.3.2",
        "sceneInfo": {
          "author": "",
          "comment": "",
          "keywords": "",
          "original": {
            "applicationName": "3ds Max",
            "applicationVendor": "Autodesk",
            "applicationVersion": "2024",
            "fileName": "\\\\192.168.5.190\\Playable\\T-The War\\1.美术资源\\3D模型\\大壮\\合批修改\\跑攻击.fbx"
          },
          "revision": "",
          "subject": "",
          "title": "",
          "url": "D:\\工程项目\\test_pro\\test_pro\\HYQ_Project\\assets\\GameRes\\FBX\\Hero_1\\跑攻击.fbx"
        }
      }
    }
  },
  "nodes": [
    {
      "children": [
        1,
        22
      ],
      "extras": {
        "FBX-glTF-conv": {
          "skeleton": {
            "skeletonType": "Root"
          }
        }
      },
      "name": "Bip001",
      "rotation": [
        -0.38511794805526733,
        -0.38511794805526733,
        -0.5930296182632446,
        0.5930296182632446
      ],
      "translation": [
        0.00036418676609173417,
        0.8887256383895874,
        0.0
      ]
    },
    {
      "children": [
        2
      ],
      "extras": {
        "FBX-glTF-conv": {
          "skeleton": {
            "skeletonType": "LimbNode"
          }
        }
      },
      "name": "Bip001 Pelvis",
      "rotation": [
        -0.48812633752822876,
        -0.5115981101989746,
        -0.48812568187713623,
        0.5115988254547119
      ]
    },
    {
      "children": [
        3,
        7,
        11
      ],
      "extras": {
        "FBX-glTF-conv": {
          "skeleton": {
            "skeletonType": "LimbNode"
          }
        }
      },
      "name": "Bip001 Spine",
      "rotation": [
        -0.15111954510211945,
        0.0240476056933403,
        -0.16320006549358368,
        0.974653959274292
      ],
      "translation": [
        0.07214157283306122,
        0.024517670273780823,
        -0.001093294587917626
      ]
    },
    {
      "children": [
        4
      ],
      "extras": {
        "FBX-glTF-conv": {
          "skeleton": {
            "skeletonType": "LimbNode"
          }
        }
      },
      "name": "Bip001 L Thigh",
      "rotation": [
        0.37914541363716125,
        0.9138363003730774,
        0.1431485414505005,
        -0.025699147954583168
      ],
      "translation": [
        -0.06001579388976097,
        -0.07188687473535538,
        0.07229045778512955
      ]
    },
    {
      "children": [
        5
      ],
      "extras": {
        "FBX-glTF-conv": {
          "skeleton": {
            "skeletonType": "LimbNode"
          }
        }
      },
      "name": "Bip001 L Calf",
      "rotation": [
        4.238993341736703e-18,
        3.4818947794016184e-18,
        -0.5323663949966431,
        0.8465140461921692
      ],
      "translation": [
        0.4039266109466553,
        0.0,
        2.6645351995433716e-17
      ]
    },
    {
      "children": [
        6
      ],
      "extras": {
        "FBX-glTF-conv": {
          "skeleton": {
            "skeletonType": "LimbNode"
          }
        }
      },
      "name": "Bip001 L Foot",
      "rotation": [
        -0.129322811961174,
        -0.024756111204624176,
        0.21178631484508514,
        0.968405544757843
      ],
      "translation": [
        0.5253466963768005,
        3.099441414633475e-08,
        -8.881783998477905e-18
      ]
    },
    {
      "extras": {
        "FBX-glTF-conv": {
          "skeleton": {
            "skeletonType": "LimbNode"
          }
        }
      },
      "name": "Bip001 L Toe0",
      "rotation": [
        -1.2614282240974717e-06,
        3.0921723919163924e-06,
        0.7071083188056946,
        0.7071052193641663
      ],
      "translation": [
        0.08683575689792633,
        0.10477734357118607,
        4.76837147544984e-09
      ]
    },
    {
      "children": [
        8
      ],
      "extras": {
        "FBX-glTF-conv": {
          "skeleton": {
            "skeletonType": "LimbNode"
          }
        }
      },
      "name": "Bip001 R Thigh",
      "rotation": [
        0.5472513437271118,
        0.802230954170227,
        0.23581431806087494,
        -0.03651119023561478
      ],
      "translation": [
        -0.06045348942279816,
        -0.017809739336371422,
        -0.09814640879631042
      ]
    },
    {
      "children": [
        9
      ],
      "extras": {
        "FBX-glTF-conv": {
          "skeleton": {
            "skeletonType": "LimbNode"
          }
        }
      },
      "name": "Bip001 R Calf",
      "rotation": [
        1.6205771009378583e-18,
        -7.63618730795473e-18,
        0.9782138466835022,
        -0.20759980380535126
      ],
      "translation": [
        0.4039266109466553,
        0.0,
        -1.907348590179936e-08
      ]
    },
    {
      "children": [
        10
      ],
      "extras": {
        "FBX-glTF-conv": {
          "skeleton": {
            "skeletonType": "LimbNode"
          }
        }
      },
      "name": "Bip001 R Foot",
      "rotation": [
        -0.004648385103791952,
        0.030974380671977997,
        -0.34057217836380005,
        0.9396965503692627
      ],
      "translation": [
        0.5253466963768005,
        1.4210854397564648e-16,
        -1.907348590179936e-08
      ]
    },
    {
      "extras": {
        "FBX-glTF-conv": {
          "skeleton": {
            "skeletonType": "LimbNode"
          }
        }
      },
      "name": "Bip001 R Toe0",
      "rotation": [
        -0.00010500560165382922,
        0.0003445479378569871,
        0.6902248859405518,
        0.7235948443412781
      ],
      "translation": [
        0.08683574944734573,
        0.10477729886770248,
        0.0
      ]
    },
    {
      "children": [
        12
      ],
      "extras": {
        "FBX-glTF-conv": {
          "skeleton": {
            "skeletonType": "LimbNode"
          }
        }
      },
      "name": "Bip001 Spine1",
      "rotation": [
        -0.16901792585849762,
        0.06582264602184296,
        0.012590124271810055,
        0.9833319783210754
      ],
      "translation": [
        0.2827807664871216,
        -0.00022418976004701108,
        7.866382657084614e-05
      ]
    },
    {
      "children": [
        13,
        17,
        21
      ],
      "extras": {
        "FBX-glTF-conv": {
          "skeleton": {
            "skeletonType": "LimbNode"
          }
        }
      },
      "name": "Bip001 Neck",
      "rotation": [
        3.65443106886687e-08,
        -2.846074949047761e-07,
        0.10156012326478958,
        0.9948294162750244
      ],
      "translation": [
        0.2843576669692993,
        -0.033620767295360565,
        -2.8610228852699038e-08
      ]
    },
    {
      "children": [
        14
      ],
      "extras": {
        "FBX-glTF-conv": {
          "skeleton": {
            "skeletonType": "LimbNode"
          }
        }
      },
      "name": "Bip001 L Clavicle",
      "rotation": [
        0.7091081738471985,
        0.0471319779753685,
        0.6772368550300598,
        0.19051097333431244
      ],
      "translation": [
        -0.12583816051483154,
        -0.022491341456770897,
        0.10685662180185318
      ]
    },
    {
      "children": [
        15
      ],
      "extras": {
        "FBX-glTF-conv": {
          "skeleton": {
            "skeletonType": "LimbNode"
          }
        }
      },
      "name": "Bip001 L UpperArm",
      "rotation": [
        0.09021390974521637,
        0.34867751598358154,
        -0.4076671898365021,
        0.8391024470329285
      ],
      "translation": [
        0.12755075097084045,
        -1.907348590179936e-08,
        -1.5258788721439487e-07
      ]
    },
    {
      "children": [
        16
      ],
      "extras": {
        "FBX-glTF-conv": {
          "skeleton": {
            "skeletonType": "LimbNode"
          }
        }
      },
      "name": "Bip001 L Forearm",
      "rotation": [
        -1.3106878637972186e-17,
        3.212344990065597e-17,
        -0.5140482783317566,
        0.8577612638473511
      ],
      "translation": [
        0.26627373695373535,
        3.552713599391162e-17,
        -1.4210854397564648e-16
      ]
    },
    {
      "extras": {
        "FBX-glTF-conv": {
          "skeleton": {
            "skeletonType": "LimbNode"
          }
        }
      },
      "name": "Bip001 L Hand",
      "rotation": [
        -0.2344551980495453,
        0.2392502874135971,
        -0.0292587261646986,
        0.9417717456817627
      ],
      "translation": [
        0.28649014234542847,
        -3.814697180359872e-08,
        7.629394360719743e-08
      ]
    },
    {
      "children": [
        18
      ],
      "extras": {
        "FBX-glTF-conv": {
          "skeleton": {
            "skeletonType": "LimbNode"
          }
        }
      },
      "name": "Bip001 R Clavicle",
      "rotation": [
        0.7694932222366333,
        -0.17150433361530304,
        -0.6125108599662781,
        0.05741838738322258
      ],
      "translation": [
        -0.12583816051483154,
        -0.02249073050916195,
        -0.10685689002275467
      ]
    },
    {
      "children": [
        19
      ],
      "extras": {
        "FBX-glTF-conv": {
          "skeleton": {
            "skeletonType": "LimbNode"
          }
        }
      },
      "name": "Bip001 R UpperArm",
      "rotation": [
        -0.47207894921302795,
        -0.232878178358078,
        -0.4372122883796692,
        0.7292150855064392
      ],
      "translation": [
        0.12755073606967926,
        1.907348590179936e-08,
        0.0
      ]
    },
    {
      "children": [
        20
      ],
      "extras": {
        "FBX-glTF-conv": {
          "skeleton": {
            "skeletonType": "LimbNode"
          }
        }
      },
      "name": "Bip001 R Forearm",
      "rotation": [
        -2.3479940240707642e-17,
        1.480082210975013e-17,
        -0.5332558155059814,
        0.8459540009498596
      ],
      "translation": [
        0.2662736177444458,
        0.0,
        0.0
      ]
    },
    {
      "extras": {
        "FBX-glTF-conv": {
          "skeleton": {
            "skeletonType": "LimbNode"
          }
        }
      },
      "name": "Bip001 R Hand",
      "rotation": [
        -0.6049507856369019,
        0.005212615244090557,
        0.6743554472923279,
        -0.4233818054199219
      ],
      "translation": [
        0.2864900827407837,
        2.6645351995433716e-17,
        7.105427198782324e-17
      ]
    },
    {
      "extras": {
        "FBX-glTF-conv": {
          "skeleton": {
            "skeletonType": "LimbNode"
          }
        }
      },
      "name": "Bip001 Head",
      "rotation": [
        0.28315266966819763,
        -0.15195469558238983,
        -0.10901574790477753,
        0.9406645894050598
      ],
      "translation": [
        0.06347213685512543,
        -0.0012642288347706199,
        -4.863738922722405e-07
      ]
    },
    {
      "extras": {
        "FBX-glTF-conv": {
          "skeleton": {
            "skeletonType": "LimbNode"
          }
        }
      },
      "name": "Bip001 Prop1",
      "rotation": [
        0.5347137451171875,
        0.10067283362150192,
        0.8276061415672302,
        0.13789214193820953
      ],
      "translation": [
        -0.061745185405015945,
        -0.14893734455108643,
        -0.00819442793726921
      ]
    }
  ],
  "scenes": [
    {
      "nodes": [
        0
      ]
    }
  ]
}