{
  "accessors": [
    {
      "bufferView": 0,
      "componentType": 5126,
      "count": 236,
      "max": [
        0.3190675377845764,
        0.7666601538658142,
        1.9149506092071533
      ],
      "min": [
        -0.798948347568512,
        -0.7666601538658142,
        -0.04679572954773903
      ],
      "name": "shizhu_02/POSITION",
      "type": "VEC3"
    },
    {
      "bufferView": 0,
      "byteOffset": 12,
      "componentType": 5126,
      "count": 236,
      "name": "shizhu_02/NORMAL",
      "type": "VEC3"
    },
    {
      "bufferView": 0,
      "byteOffset": 24,
      "componentType": 5126,
      "count": 236,
      "name": "shizhu_02/TEXCOORD_0",
      "type": "VEC2"
    },
    {
      "bufferView": 1,
      "componentType": 5123,
      "count": 348,
      "name": "shizhu_02/INDICES",
      "type": "SCALAR"
    }
  ],
  "asset": {
    "copyright": "Copyright (c) 2018-2020 Chukong Technologies Inc.",
    "generator": "FBX-glTF-conv",
    "version": "2.0"
  },
  "bufferViews": [
    {
      "buffer": 0,
      "byteLength": 7552,
      "byteStride": 32,
      "name": "shizhu_02",
      "target": 34962
    },
    {
      "buffer": 0,
      "byteLength": 696,
      "byteOffset": 7552,
      "target": 34963
    }
  ],
  "buffers": [
    {
      "byteLength": 8248,
      "uri": "out.bin"
    }
  ],
  "extras": {
    "FBX-glTF-conv": {
      "animationFrameRate": 30.0,
      "fbxFileHeaderInfo": {
        "creationTimeStamp": {
          "day": 25,
          "hour": 11,
          "millisecond": 675,
          "minute": 5,
          "month": 6,
          "second": 48,
          "year": 2026
        },
        "creator": "FBX SDK/FBX Plugins version 2020.1.1",
        "sceneInfo": {
          "author": "",
          "comment": "",
          "keywords": "",
          "original": {
            "applicationName": "3ds Max",
            "applicationVendor": "Autodesk",
            "applicationVersion": "2022",
            "fileName": "C:\\Users\\Administrator\\Desktop\\SLLYT\\6.24\\SM_shizhu_02.fbx"
          },
          "revision": "",
          "subject": "",
          "title": "",
          "url": "D:\\工程项目\\PlayableAD\\Cocos\\TheW\\20260615_HYQ\\HYQ_Project\\assets\\GameRes\\SLLYT_map\\fbx\\SM_shizhu_02.fbx"
        }
      }
    }
  },
  "meshes": [
    {
      "name": "shizhu_02",
      "primitives": [
        {
          "attributes": {
            "NORMAL": 1,
            "POSITION": 0,
            "TEXCOORD_0": 2
          },
          "indices": 3
        }
      ]
    }
  ],
  "nodes": [
    {
      "mesh": 0,
      "name": "shizhu_02",
      "rotation": [
        -0.7071067690849304,
        -0.0,
        0.0,
        0.7071067690849304
      ]
    }
  ],
  "scenes": [
    {
      "nodes": [
        0
      ]
    }
  ]
}