{
  "accessors": [
    {
      "bufferView": 0,
      "componentType": 5126,
      "count": 1390,
      "max": [
        0.5965327024459839,
        0.15069004893302917,
        0.22748583555221558
      ],
      "min": [
        -0.34061121940612793,
        -0.18070831894874573,
        -0.19397610425949097
      ],
      "name": "3/POSITION",
      "type": "VEC3"
    },
    {
      "bufferView": 0,
      "byteOffset": 12,
      "componentType": 5126,
      "count": 1390,
      "name": "3/NORMAL",
      "type": "VEC3"
    },
    {
      "bufferView": 0,
      "byteOffset": 24,
      "componentType": 5126,
      "count": 1390,
      "name": "3/TEXCOORD_0",
      "type": "VEC2"
    },
    {
      "bufferView": 1,
      "componentType": 5123,
      "count": 1410,
      "name": "3/INDICES",
      "type": "SCALAR"
    }
  ],
  "asset": {
    "copyright": "Copyright (c) 2018-2020 Chukong Technologies Inc.",
    "generator": "FBX-glTF-conv",
    "version": "2.0"
  },
  "bufferViews": [
    {
      "buffer": 0,
      "byteLength": 44480,
      "byteStride": 32,
      "name": "3",
      "target": 34962
    },
    {
      "buffer": 0,
      "byteLength": 2820,
      "byteOffset": 44480,
      "target": 34963
    }
  ],
  "buffers": [
    {
      "byteLength": 47300,
      "uri": "out.bin"
    }
  ],
  "extras": {
    "FBX-glTF-conv": {
      "animationFrameRate": 30.0,
      "fbxFileHeaderInfo": {
        "creationTimeStamp": {
          "day": 22,
          "hour": 11,
          "millisecond": 940,
          "minute": 2,
          "month": 6,
          "second": 36,
          "year": 2026
        },
        "creator": "FBX SDK/FBX Plugins version 2020.1.1",
        "sceneInfo": {
          "author": "",
          "comment": "",
          "keywords": "",
          "original": {
            "applicationName": "3ds Max",
            "applicationVendor": "Autodesk",
            "applicationVersion": "2022",
            "fileName": "C:\\Users\\Administrator\\Desktop\\SLLYT\\教网店学徒各种副业vx-Rshgzs666-3dmax室外藤曼爬山虎花藤植物3d模型素材cr vr渲染带贴图藤曼fbx\\3.fbx"
          },
          "revision": "",
          "subject": "",
          "title": "",
          "url": "D:\\工程项目\\PlayableAD\\Cocos\\TheW\\20260615_HYQ\\HYQ_Project\\assets\\GameRes\\SLLYT_map\\fbx\\3.fbx"
        }
      }
    }
  },
  "meshes": [
    {
      "name": "3",
      "primitives": [
        {
          "attributes": {
            "NORMAL": 1,
            "POSITION": 0,
            "TEXCOORD_0": 2
          },
          "indices": 3
        }
      ]
    }
  ],
  "nodes": [
    {
      "mesh": 0,
      "name": "3",
      "rotation": [
        -0.7071067690849304,
        -0.0,
        0.0,
        0.7071067690849304
      ]
    }
  ],
  "scenes": [
    {
      "nodes": [
        0
      ]
    }
  ]
}