{
  "accessors": [
    {
      "bufferView": 0,
      "componentType": 5126,
      "count": 20,
      "name": "Bip001/translation/Output",
      "type": "VEC3"
    },
    {
      "bufferView": 1,
      "componentType": 5126,
      "count": 20,
      "max": [
        0.6666666865348816
      ],
      "min": [
        0.0
      ],
      "name": "Bip001/translation/Input",
      "type": "SCALAR"
    },
    {
      "bufferView": 2,
      "componentType": 5126,
      "count": 10,
      "name": "Bip001/rotation/Output",
      "type": "VEC4"
    },
    {
      "bufferView": 3,
      "componentType": 5126,
      "count": 10,
      "max": [
        0.30000001192092896
      ],
      "min": [
        0.0
      ],
      "name": "Bip001/rotation/Input",
      "type": "SCALAR"
    },
    {
      "bufferView": 4,
      "componentType": 5126,
      "count": 1,
      "name": "Bip001/scale/Output",
      "type": "VEC3"
    },
    {
      "bufferView": 5,
      "componentType": 5126,
      "count": 1,
      "max": [
        0.6666666865348816
      ],
      "min": [
        0.6666666865348816
      ],
      "name": "Bip001/scale/Input",
      "type": "SCALAR"
    },
    {
      "bufferView": 6,
      "componentType": 5126,
      "count": 1,
      "name": "Bip001 Pelvis/translation/Output",
      "type": "VEC3"
    },
    {
      "bufferView": 7,
      "componentType": 5126,
      "count": 1,
      "max": [
        0.6666666865348816
      ],
      "min": [
        0.6666666865348816
      ],
      "name": "Bip001 Pelvis/translation/Input",
      "type": "SCALAR"
    },
    {
      "bufferView": 8,
      "componentType": 5126,
      "count": 1,
      "name": "Bip001 Pelvis/rotation/Output",
      "type": "VEC4"
    },
    {
      "bufferView": 9,
      "componentType": 5126,
      "count": 1,
      "max": [
        0.6666666865348816
      ],
      "min": [
        0.6666666865348816
      ],
      "name": "Bip001 Pelvis/rotation/Input",
      "type": "SCALAR"
    },
    {
      "bufferView": 10,
      "componentType": 5126,
      "count": 1,
      "name": "Bip001 Pelvis/scale/Output",
      "type": "VEC3"
    },
    {
      "bufferView": 11,
      "componentType": 5126,
      "count": 1,
      "max": [
        0.6666666865348816
      ],
      "min": [
        0.6666666865348816
      ],
      "name": "Bip001 Pelvis/scale/Input",
      "type": "SCALAR"
    },
    {
      "bufferView": 12,
      "componentType": 5126,
      "count": 20,
      "name": "Bip001 Spine/translation/Output",
      "type": "VEC3"
    },
    {
      "bufferView": 13,
      "componentType": 5126,
      "count": 20,
      "max": [
        0.6666666865348816
      ],
      "min": [
        0.0
      ],
      "name": "Bip001 Spine/translation/Input",
      "type": "SCALAR"
    },
    {
      "bufferView": 14,
      "componentType": 5126,
      "count": 20,
      "name": "Bip001 Spine/rotation/Output",
      "type": "VEC4"
    },
    {
      "bufferView": 15,
      "componentType": 5126,
      "count": 20,
      "max": [
        0.6666666865348816
      ],
      "min": [
        0.0
      ],
      "name": "Bip001 Spine/rotation/Input",
      "type": "SCALAR"
    },
    {
      "bufferView": 16,
      "componentType": 5126,
      "count": 1,
      "name": "Bip001 Spine/scale/Output",
      "type": "VEC3"
    },
    {
      "bufferView": 17,
      "componentType": 5126,
      "count": 1,
      "max": [
        0.6666666865348816
      ],
      "min": [
        0.6666666865348816
      ],
      "name": "Bip001 Spine/scale/Input",
      "type": "SCALAR"
    },
    {
      "bufferView": 18,
      "componentType": 5126,
      "count": 17,
      "name": "Bip001 Spine1/translation/Output",
      "type": "VEC3"
    },
    {
      "bufferView": 19,
      "componentType": 5126,
      "count": 17,
      "max": [
        0.6666666865348816
      ],
      "min": [
        0.0
      ],
      "name": "Bip001 Spine1/translation/Input",
      "type": "SCALAR"
    },
    {
      "bufferView": 20,
      "componentType": 5126,
      "count": 20,
      "name": "Bip001 Spine1/rotation/Output",
      "type": "VEC4"
    },
    {
      "bufferView": 21,
      "componentType": 5126,
      "count": 20,
      "max": [
        0.6666666865348816
      ],
      "min": [
        0.0
      ],
      "name": "Bip001 Spine1/rotation/Input",
      "type": "SCALAR"
    },
    {
      "bufferView": 22,
      "componentType": 5126,
      "count": 1,
      "name": "Bip001 Spine1/scale/Output",
      "type": "VEC3"
    },
    {
      "bufferView": 23,
      "componentType": 5126,
      "count": 1,
      "max": [
        0.6666666865348816
      ],
      "min": [
        0.6666666865348816
      ],
      "name": "Bip001 Spine1/scale/Input",
      "type": "SCALAR"
    },
    {
      "bufferView": 24,
      "componentType": 5126,
      "count": 19,
      "name": "Bip001 Spine2/translation/Output",
      "type": "VEC3"
    },
    {
      "bufferView": 25,
      "componentType": 5126,
      "count": 19,
      "max": [
        0.6666666865348816
      ],
      "min": [
        0.0
      ],
      "name": "Bip001 Spine2/translation/Input",
      "type": "SCALAR"
    },
    {
      "bufferView": 26,
      "componentType": 5126,
      "count": 20,
      "name": "Bip001 Spine2/rotation/Output",
      "type": "VEC4"
    },
    {
      "bufferView": 27,
      "componentType": 5126,
      "count": 20,
      "max": [
        0.6666666865348816
      ],
      "min": [
        0.0
      ],
      "name": "Bip001 Spine2/rotation/Input",
      "type": "SCALAR"
    },
    {
      "bufferView": 28,
      "componentType": 5126,
      "count": 1,
      "name": "Bip001 Spine2/scale/Output",
      "type": "VEC3"
    },
    {
      "bufferView": 29,
      "componentType": 5126,
      "count": 1,
      "max": [
        0.6666666865348816
      ],
      "min": [
        0.6666666865348816
      ],
      "name": "Bip001 Spine2/scale/Input",
      "type": "SCALAR"
    },
    {
      "bufferView": 30,
      "componentType": 5126,
      "count": 13,
      "name": "Bip001 Neck/translation/Output",
      "type": "VEC3"
    },
    {
      "bufferView": 31,
      "componentType": 5126,
      "count": 13,
      "max": [
        0.6666666865348816
      ],
      "min": [
        0.0
      ],
      "name": "Bip001 Neck/translation/Input",
      "type": "SCALAR"
    },
    {
      "bufferView": 32,
      "componentType": 5126,
      "count": 10,
      "name": "Bip001 Neck/rotation/Output",
      "type": "VEC4"
    },
    {
      "bufferView": 33,
      "componentType": 5126,
      "count": 10,
      "max": [
        0.30000001192092896
      ],
      "min": [
        0.0
      ],
      "name": "Bip001 Neck/rotation/Input",
      "type": "SCALAR"
    },
    {
      "bufferView": 34,
      "componentType": 5126,
      "count": 1,
      "name": "Bip001 Neck/scale/Output",
      "type": "VEC3"
    },
    {
      "bufferView": 35,
      "componentType": 5126,
      "count": 1,
      "max": [
        0.6666666865348816
      ],
      "min": [
        0.6666666865348816
      ],
      "name": "Bip001 Neck/scale/Input",
      "type": "SCALAR"
    },
    {
      "bufferView": 36,
      "componentType": 5126,
      "count": 17,
      "name": "Bip001 L Clavicle/translation/Output",
      "type": "VEC3"
    },
    {
      "bufferView": 37,
      "componentType": 5126,
      "count": 17,
      "max": [
        0.6666666865348816
      ],
      "min": [
        0.0
      ],
      "name": "Bip001 L Clavicle/translation/Input",
      "type": "SCALAR"
    },
    {
      "bufferView": 38,
      "componentType": 5126,
      "count": 18,
      "name": "Bip001 L Clavicle/rotation/Output",
      "type": "VEC4"
    },
    {
      "bufferView": 39,
      "componentType": 5126,
      "count": 18,
      "max": [
        0.5666666626930237
      ],
      "min": [
        0.0
      ],
      "name": "Bip001 L Clavicle/rotation/Input",
      "type": "SCALAR"
    },
    {
      "bufferView": 40,
      "componentType": 5126,
      "count": 1,
      "name": "Bip001 L Clavicle/scale/Output",
      "type": "VEC3"
    },
    {
      "bufferView": 41,
      "componentType": 5126,
      "count": 1,
      "max": [
        0.6666666865348816
      ],
      "min": [
        0.6666666865348816
      ],
      "name": "Bip001 L Clavicle/scale/Input",
      "type": "SCALAR"
    },
    {
      "bufferView": 42,
      "componentType": 5126,
      "count": 7,
      "name": "Bip001 L UpperArm/translation/Output",
      "type": "VEC3"
    },
    {
      "bufferView": 43,
      "componentType": 5126,
      "count": 7,
      "max": [
        0.4333333373069763
      ],
      "min": [
        0.0
      ],
      "name": "Bip001 L UpperArm/translation/Input",
      "type": "SCALAR"
    },
    {
      "bufferView": 44,
      "componentType": 5126,
      "count": 21,
      "name": "Bip001 L UpperArm/rotation/Output",
      "type": "VEC4"
    },
    {
      "bufferView": 45,
      "componentType": 5126,
      "count": 21,
      "max": [
        0.6666666865348816
      ],
      "min": [
        0.0
      ],
      "name": "Bip001 L UpperArm/rotation/Input",
      "type": "SCALAR"
    },
    {
      "bufferView": 46,
      "componentType": 5126,
      "count": 1,
      "name": "Bip001 L UpperArm/scale/Output",
      "type": "VEC3"
    },
    {
      "bufferView": 47,
      "componentType": 5126,
      "count": 1,
      "max": [
        0.6666666865348816
      ],
      "min": [
        0.6666666865348816
      ],
      "name": "Bip001 L UpperArm/scale/Input",
      "type": "SCALAR"
    },
    {
      "bufferView": 48,
      "componentType": 5126,
      "count": 6,
      "name": "Bip001 L Forearm/translation/Output",
      "type": "VEC3"
    },
    {
      "bufferView": 49,
      "componentType": 5126,
      "count": 6,
      "max": [
        0.4000000059604645
      ],
      "min": [
        0.03333333507180214
      ],
      "name": "Bip001 L Forearm/translation/Input",
      "type": "SCALAR"
    },
    {
      "bufferView": 50,
      "componentType": 5126,
      "count": 21,
      "name": "Bip001 L Forearm/rotation/Output",
      "type": "VEC4"
    },
    {
      "bufferView": 51,
      "componentType": 5126,
      "count": 21,
      "max": [
        0.6666666865348816
      ],
      "min": [
        0.0
      ],
      "name": "Bip001 L Forearm/rotation/Input",
      "type": "SCALAR"
    },
    {
      "bufferView": 52,
      "componentType": 5126,
      "count": 1,
      "name": "Bip001 L Forearm/scale/Output",
      "type": "VEC3"
    },
    {
      "bufferView": 53,
      "componentType": 5126,
      "count": 1,
      "max": [
        0.6666666865348816
      ],
      "min": [
        0.6666666865348816
      ],
      "name": "Bip001 L Forearm/scale/Input",
      "type": "SCALAR"
    },
    {
      "bufferView": 54,
      "componentType": 5126,
      "count": 13,
      "name": "Bip001 L Hand/translation/Output",
      "type": "VEC3"
    },
    {
      "bufferView": 55,
      "componentType": 5126,
      "count": 13,
      "max": [
        0.6666666865348816
      ],
      "min": [
        0.0
      ],
      "name": "Bip001 L Hand/translation/Input",
      "type": "SCALAR"
    },
    {
      "bufferView": 56,
      "componentType": 5126,
      "count": 21,
      "name": "Bip001 L Hand/rotation/Output",
      "type": "VEC4"
    },
    {
      "bufferView": 57,
      "componentType": 5126,
      "count": 21,
      "max": [
        0.6666666865348816
      ],
      "min": [
        0.0
      ],
      "name": "Bip001 L Hand/rotation/Input",
      "type": "SCALAR"
    },
    {
      "bufferView": 58,
      "componentType": 5126,
      "count": 1,
      "name": "Bip001 L Hand/scale/Output",
      "type": "VEC3"
    },
    {
      "bufferView": 59,
      "componentType": 5126,
      "count": 1,
      "max": [
        0.6666666865348816
      ],
      "min": [
        0.6666666865348816
      ],
      "name": "Bip001 L Hand/scale/Input",
      "type": "SCALAR"
    },
    {
      "bufferView": 60,
      "componentType": 5126,
      "count": 1,
      "name": "mixamorig:LeftHand/rotation/Output",
      "type": "VEC4"
    },
    {
      "bufferView": 61,
      "componentType": 5126,
      "count": 1,
      "max": [
        0.6666666865348816
      ],
      "min": [
        0.6666666865348816
      ],
      "name": "mixamorig:LeftHand/rotation/Input",
      "type": "SCALAR"
    },
    {
      "bufferView": 62,
      "componentType": 5126,
      "count": 1,
      "name": "mixamorig:LeftForeArm/rotation/Output",
      "type": "VEC4"
    },
    {
      "bufferView": 63,
      "componentType": 5126,
      "count": 1,
      "max": [
        0.6666666865348816
      ],
      "min": [
        0.6666666865348816
      ],
      "name": "mixamorig:LeftForeArm/rotation/Input",
      "type": "SCALAR"
    },
    {
      "bufferView": 64,
      "componentType": 5126,
      "count": 1,
      "name": "mixamorig:LeftArm/rotation/Output",
      "type": "VEC4"
    },
    {
      "bufferView": 65,
      "componentType": 5126,
      "count": 1,
      "max": [
        0.6666666865348816
      ],
      "min": [
        0.6666666865348816
      ],
      "name": "mixamorig:LeftArm/rotation/Input",
      "type": "SCALAR"
    },
    {
      "bufferView": 66,
      "componentType": 5126,
      "count": 1,
      "name": "mixamorig:LeftShoulder/rotation/Output",
      "type": "VEC4"
    },
    {
      "bufferView": 67,
      "componentType": 5126,
      "count": 1,
      "max": [
        0.6666666865348816
      ],
      "min": [
        0.6666666865348816
      ],
      "name": "mixamorig:LeftShoulder/rotation/Input",
      "type": "SCALAR"
    },
    {
      "bufferView": 68,
      "componentType": 5126,
      "count": 13,
      "name": "Bip001 R Clavicle/translation/Output",
      "type": "VEC3"
    },
    {
      "bufferView": 69,
      "componentType": 5126,
      "count": 13,
      "max": [
        0.46666666865348816
      ],
      "min": [
        0.0
      ],
      "name": "Bip001 R Clavicle/translation/Input",
      "type": "SCALAR"
    },
    {
      "bufferView": 70,
      "componentType": 5126,
      "count": 18,
      "name": "Bip001 R Clavicle/rotation/Output",
      "type": "VEC4"
    },
    {
      "bufferView": 71,
      "componentType": 5126,
      "count": 18,
      "max": [
        0.5666666626930237
      ],
      "min": [
        0.0
      ],
      "name": "Bip001 R Clavicle/rotation/Input",
      "type": "SCALAR"
    },
    {
      "bufferView": 72,
      "componentType": 5126,
      "count": 1,
      "name": "Bip001 R Clavicle/scale/Output",
      "type": "VEC3"
    },
    {
      "bufferView": 73,
      "componentType": 5126,
      "count": 1,
      "max": [
        0.6666666865348816
      ],
      "min": [
        0.6666666865348816
      ],
      "name": "Bip001 R Clavicle/scale/Input",
      "type": "SCALAR"
    },
    {
      "bufferView": 74,
      "componentType": 5126,
      "count": 3,
      "name": "Bip001 R UpperArm/translation/Output",
      "type": "VEC3"
    },
    {
      "bufferView": 75,
      "componentType": 5126,
      "count": 3,
      "max": [
        0.4333333373069763
      ],
      "min": [
        0.03333333507180214
      ],
      "name": "Bip001 R UpperArm/translation/Input",
      "type": "SCALAR"
    },
    {
      "bufferView": 76,
      "componentType": 5126,
      "count": 21,
      "name": "Bip001 R UpperArm/rotation/Output",
      "type": "VEC4"
    },
    {
      "bufferView": 77,
      "componentType": 5126,
      "count": 21,
      "max": [
        0.6666666865348816
      ],
      "min": [
        0.0
      ],
      "name": "Bip001 R UpperArm/rotation/Input",
      "type": "SCALAR"
    },
    {
      "bufferView": 78,
      "componentType": 5126,
      "count": 1,
      "name": "Bip001 R UpperArm/scale/Output",
      "type": "VEC3"
    },
    {
      "bufferView": 79,
      "componentType": 5126,
      "count": 1,
      "max": [
        0.6666666865348816
      ],
      "min": [
        0.6666666865348816
      ],
      "name": "Bip001 R UpperArm/scale/Input",
      "type": "SCALAR"
    },
    {
      "bufferView": 80,
      "componentType": 5126,
      "count": 8,
      "name": "Bip001 R Forearm/translation/Output",
      "type": "VEC3"
    },
    {
      "bufferView": 81,
      "componentType": 5126,
      "count": 8,
      "max": [
        0.6666666865348816
      ],
      "min": [
        0.13333334028720856
      ],
      "name": "Bip001 R Forearm/translation/Input",
      "type": "SCALAR"
    },
    {
      "bufferView": 82,
      "componentType": 5126,
      "count": 21,
      "name": "Bip001 R Forearm/rotation/Output",
      "type": "VEC4"
    },
    {
      "bufferView": 83,
      "componentType": 5126,
      "count": 21,
      "max": [
        0.6666666865348816
      ],
      "min": [
        0.0
      ],
      "name": "Bip001 R Forearm/rotation/Input",
      "type": "SCALAR"
    },
    {
      "bufferView": 84,
      "componentType": 5126,
      "count": 1,
      "name": "Bip001 R Forearm/scale/Output",
      "type": "VEC3"
    },
    {
      "bufferView": 85,
      "componentType": 5126,
      "count": 1,
      "max": [
        0.6666666865348816
      ],
      "min": [
        0.6666666865348816
      ],
      "name": "Bip001 R Forearm/scale/Input",
      "type": "SCALAR"
    },
    {
      "bufferView": 86,
      "componentType": 5126,
      "count": 8,
      "name": "Bip001 R Hand/translation/Output",
      "type": "VEC3"
    },
    {
      "bufferView": 87,
      "componentType": 5126,
      "count": 8,
      "max": [
        0.3333333432674408
      ],
      "min": [
        0.0
      ],
      "name": "Bip001 R Hand/translation/Input",
      "type": "SCALAR"
    },
    {
      "bufferView": 88,
      "componentType": 5126,
      "count": 21,
      "name": "Bip001 R Hand/rotation/Output",
      "type": "VEC4"
    },
    {
      "bufferView": 89,
      "componentType": 5126,
      "count": 21,
      "max": [
        0.6666666865348816
      ],
      "min": [
        0.0
      ],
      "name": "Bip001 R Hand/rotation/Input",
      "type": "SCALAR"
    },
    {
      "bufferView": 90,
      "componentType": 5126,
      "count": 1,
      "name": "Bip001 R Hand/scale/Output",
      "type": "VEC3"
    },
    {
      "bufferView": 91,
      "componentType": 5126,
      "count": 1,
      "max": [
        0.6666666865348816
      ],
      "min": [
        0.6666666865348816
      ],
      "name": "Bip001 R Hand/scale/Input",
      "type": "SCALAR"
    },
    {
      "bufferView": 92,
      "componentType": 5126,
      "count": 1,
      "name": "mixamorig:RightHand/rotation/Output",
      "type": "VEC4"
    },
    {
      "bufferView": 93,
      "componentType": 5126,
      "count": 1,
      "max": [
        0.6666666865348816
      ],
      "min": [
        0.6666666865348816
      ],
      "name": "mixamorig:RightHand/rotation/Input",
      "type": "SCALAR"
    },
    {
      "bufferView": 94,
      "componentType": 5126,
      "count": 1,
      "name": "mixamorig:RightForeArm/rotation/Output",
      "type": "VEC4"
    },
    {
      "bufferView": 95,
      "componentType": 5126,
      "count": 1,
      "max": [
        0.6666666865348816
      ],
      "min": [
        0.6666666865348816
      ],
      "name": "mixamorig:RightForeArm/rotation/Input",
      "type": "SCALAR"
    },
    {
      "bufferView": 96,
      "componentType": 5126,
      "count": 1,
      "name": "mixamorig:RightArm/rotation/Output",
      "type": "VEC4"
    },
    {
      "bufferView": 97,
      "componentType": 5126,
      "count": 1,
      "max": [
        0.6666666865348816
      ],
      "min": [
        0.6666666865348816
      ],
      "name": "mixamorig:RightArm/rotation/Input",
      "type": "SCALAR"
    },
    {
      "bufferView": 98,
      "componentType": 5126,
      "count": 1,
      "name": "mixamorig:RightShoulder/rotation/Output",
      "type": "VEC4"
    },
    {
      "bufferView": 99,
      "componentType": 5126,
      "count": 1,
      "max": [
        0.6666666865348816
      ],
      "min": [
        0.6666666865348816
      ],
      "name": "mixamorig:RightShoulder/rotation/Input",
      "type": "SCALAR"
    },
    {
      "bufferView": 100,
      "componentType": 5126,
      "count": 3,
      "name": "Bip001 Head/translation/Output",
      "type": "VEC3"
    },
    {
      "bufferView": 101,
      "componentType": 5126,
      "count": 3,
      "max": [
        0.6666666865348816
      ],
      "min": [
        0.06666667014360428
      ],
      "name": "Bip001 Head/translation/Input",
      "type": "SCALAR"
    },
    {
      "bufferView": 102,
      "componentType": 5126,
      "count": 21,
      "name": "Bip001 Head/rotation/Output",
      "type": "VEC4"
    },
    {
      "bufferView": 103,
      "componentType": 5126,
      "count": 21,
      "max": [
        0.6666666865348816
      ],
      "min": [
        0.0
      ],
      "name": "Bip001 Head/rotation/Input",
      "type": "SCALAR"
    },
    {
      "bufferView": 104,
      "componentType": 5126,
      "count": 1,
      "name": "Bip001 Head/scale/Output",
      "type": "VEC3"
    },
    {
      "bufferView": 105,
      "componentType": 5126,
      "count": 1,
      "max": [
        0.6666666865348816
      ],
      "min": [
        0.6666666865348816
      ],
      "name": "Bip001 Head/scale/Input",
      "type": "SCALAR"
    },
    {
      "bufferView": 106,
      "componentType": 5126,
      "count": 1,
      "name": "mixamorig:Head/rotation/Output",
      "type": "VEC4"
    },
    {
      "bufferView": 107,
      "componentType": 5126,
      "count": 1,
      "max": [
        0.6666666865348816
      ],
      "min": [
        0.6666666865348816
      ],
      "name": "mixamorig:Head/rotation/Input",
      "type": "SCALAR"
    },
    {
      "bufferView": 108,
      "componentType": 5126,
      "count": 1,
      "name": "mixamorig:HeadTop_End/rotation/Output",
      "type": "VEC4"
    },
    {
      "bufferView": 109,
      "componentType": 5126,
      "count": 1,
      "max": [
        0.6666666865348816
      ],
      "min": [
        0.6666666865348816
      ],
      "name": "mixamorig:HeadTop_End/rotation/Input",
      "type": "SCALAR"
    },
    {
      "bufferView": 110,
      "componentType": 5126,
      "count": 1,
      "name": "mixamorig:Neck/rotation/Output",
      "type": "VEC4"
    },
    {
      "bufferView": 111,
      "componentType": 5126,
      "count": 1,
      "max": [
        0.6666666865348816
      ],
      "min": [
        0.6666666865348816
      ],
      "name": "mixamorig:Neck/rotation/Input",
      "type": "SCALAR"
    },
    {
      "bufferView": 112,
      "componentType": 5126,
      "count": 1,
      "name": "mixamorig:Spine2/rotation/Output",
      "type": "VEC4"
    },
    {
      "bufferView": 113,
      "componentType": 5126,
      "count": 1,
      "max": [
        0.6666666865348816
      ],
      "min": [
        0.6666666865348816
      ],
      "name": "mixamorig:Spine2/rotation/Input",
      "type": "SCALAR"
    },
    {
      "bufferView": 114,
      "componentType": 5126,
      "count": 1,
      "name": "mixamorig:Spine1/rotation/Output",
      "type": "VEC4"
    },
    {
      "bufferView": 115,
      "componentType": 5126,
      "count": 1,
      "max": [
        0.6666666865348816
      ],
      "min": [
        0.6666666865348816
      ],
      "name": "mixamorig:Spine1/rotation/Input",
      "type": "SCALAR"
    },
    {
      "bufferView": 116,
      "componentType": 5126,
      "count": 21,
      "name": "Bip001 L Thigh/translation/Output",
      "type": "VEC3"
    },
    {
      "bufferView": 117,
      "componentType": 5126,
      "count": 21,
      "max": [
        0.6666666865348816
      ],
      "min": [
        0.0
      ],
      "name": "Bip001 L Thigh/translation/Input",
      "type": "SCALAR"
    },
    {
      "bufferView": 118,
      "componentType": 5126,
      "count": 20,
      "name": "Bip001 L Thigh/rotation/Output",
      "type": "VEC4"
    },
    {
      "bufferView": 119,
      "componentType": 5126,
      "count": 20,
      "max": [
        0.6666666865348816
      ],
      "min": [
        0.0
      ],
      "name": "Bip001 L Thigh/rotation/Input",
      "type": "SCALAR"
    },
    {
      "bufferView": 120,
      "componentType": 5126,
      "count": 1,
      "name": "Bip001 L Thigh/scale/Output",
      "type": "VEC3"
    },
    {
      "bufferView": 121,
      "componentType": 5126,
      "count": 1,
      "max": [
        0.6666666865348816
      ],
      "min": [
        0.6666666865348816
      ],
      "name": "Bip001 L Thigh/scale/Input",
      "type": "SCALAR"
    },
    {
      "bufferView": 122,
      "componentType": 5126,
      "count": 11,
      "name": "Bip001 L Calf/translation/Output",
      "type": "VEC3"
    },
    {
      "bufferView": 123,
      "componentType": 5126,
      "count": 11,
      "max": [
        0.6666666865348816
      ],
      "min": [
        0.0
      ],
      "name": "Bip001 L Calf/translation/Input",
      "type": "SCALAR"
    },
    {
      "bufferView": 124,
      "componentType": 5126,
      "count": 18,
      "name": "Bip001 L Calf/rotation/Output",
      "type": "VEC4"
    },
    {
      "bufferView": 125,
      "componentType": 5126,
      "count": 18,
      "max": [
        0.5666666626930237
      ],
      "min": [
        0.0
      ],
      "name": "Bip001 L Calf/rotation/Input",
      "type": "SCALAR"
    },
    {
      "bufferView": 126,
      "componentType": 5126,
      "count": 1,
      "name": "Bip001 L Calf/scale/Output",
      "type": "VEC3"
    },
    {
      "bufferView": 127,
      "componentType": 5126,
      "count": 1,
      "max": [
        0.6666666865348816
      ],
      "min": [
        0.6666666865348816
      ],
      "name": "Bip001 L Calf/scale/Input",
      "type": "SCALAR"
    },
    {
      "bufferView": 128,
      "componentType": 5126,
      "count": 4,
      "name": "Bip001 L Foot/translation/Output",
      "type": "VEC3"
    },
    {
      "bufferView": 129,
      "componentType": 5126,
      "count": 4,
      "max": [
        0.46666666865348816
      ],
      "min": [
        0.0
      ],
      "name": "Bip001 L Foot/translation/Input",
      "type": "SCALAR"
    },
    {
      "bufferView": 130,
      "componentType": 5126,
      "count": 20,
      "name": "Bip001 L Foot/rotation/Output",
      "type": "VEC4"
    },
    {
      "bufferView": 131,
      "componentType": 5126,
      "count": 20,
      "max": [
        0.6666666865348816
      ],
      "min": [
        0.0
      ],
      "name": "Bip001 L Foot/rotation/Input",
      "type": "SCALAR"
    },
    {
      "bufferView": 132,
      "componentType": 5126,
      "count": 1,
      "name": "Bip001 L Foot/scale/Output",
      "type": "VEC3"
    },
    {
      "bufferView": 133,
      "componentType": 5126,
      "count": 1,
      "max": [
        0.6666666865348816
      ],
      "min": [
        0.6666666865348816
      ],
      "name": "Bip001 L Foot/scale/Input",
      "type": "SCALAR"
    },
    {
      "bufferView": 134,
      "componentType": 5126,
      "count": 8,
      "name": "Bip001 L Toe0/translation/Output",
      "type": "VEC3"
    },
    {
      "bufferView": 135,
      "componentType": 5126,
      "count": 8,
      "max": [
        0.46666666865348816
      ],
      "min": [
        0.03333333507180214
      ],
      "name": "Bip001 L Toe0/translation/Input",
      "type": "SCALAR"
    },
    {
      "bufferView": 136,
      "componentType": 5126,
      "count": 5,
      "name": "Bip001 L Toe0/rotation/Output",
      "type": "VEC4"
    },
    {
      "bufferView": 137,
      "componentType": 5126,
      "count": 5,
      "max": [
        0.1666666716337204
      ],
      "min": [
        0.0
      ],
      "name": "Bip001 L Toe0/rotation/Input",
      "type": "SCALAR"
    },
    {
      "bufferView": 138,
      "componentType": 5126,
      "count": 1,
      "name": "Bip001 L Toe0/scale/Output",
      "type": "VEC3"
    },
    {
      "bufferView": 139,
      "componentType": 5126,
      "count": 1,
      "max": [
        0.6666666865348816
      ],
      "min": [
        0.6666666865348816
      ],
      "name": "Bip001 L Toe0/scale/Input",
      "type": "SCALAR"
    },
    {
      "bufferView": 140,
      "componentType": 5126,
      "count": 1,
      "name": "mixamorig:LeftToe_End/rotation/Output",
      "type": "VEC4"
    },
    {
      "bufferView": 141,
      "componentType": 5126,
      "count": 1,
      "max": [
        0.6666666865348816
      ],
      "min": [
        0.6666666865348816
      ],
      "name": "mixamorig:LeftToe_End/rotation/Input",
      "type": "SCALAR"
    },
    {
      "bufferView": 142,
      "componentType": 5126,
      "count": 1,
      "name": "mixamorig:LeftFoot/rotation/Output",
      "type": "VEC4"
    },
    {
      "bufferView": 143,
      "componentType": 5126,
      "count": 1,
      "max": [
        0.6666666865348816
      ],
      "min": [
        0.6666666865348816
      ],
      "name": "mixamorig:LeftFoot/rotation/Input",
      "type": "SCALAR"
    },
    {
      "bufferView": 144,
      "componentType": 5126,
      "count": 1,
      "name": "mixamorig:LeftToeBase/rotation/Output",
      "type": "VEC4"
    },
    {
      "bufferView": 145,
      "componentType": 5126,
      "count": 1,
      "max": [
        0.6666666865348816
      ],
      "min": [
        0.6666666865348816
      ],
      "name": "mixamorig:LeftToeBase/rotation/Input",
      "type": "SCALAR"
    },
    {
      "bufferView": 146,
      "componentType": 5126,
      "count": 1,
      "name": "mixamorig:LeftLeg/rotation/Output",
      "type": "VEC4"
    },
    {
      "bufferView": 147,
      "componentType": 5126,
      "count": 1,
      "max": [
        0.6666666865348816
      ],
      "min": [
        0.6666666865348816
      ],
      "name": "mixamorig:LeftLeg/rotation/Input",
      "type": "SCALAR"
    },
    {
      "bufferView": 148,
      "componentType": 5126,
      "count": 1,
      "name": "mixamorig:LeftUpLeg/rotation/Output",
      "type": "VEC4"
    },
    {
      "bufferView": 149,
      "componentType": 5126,
      "count": 1,
      "max": [
        0.6666666865348816
      ],
      "min": [
        0.6666666865348816
      ],
      "name": "mixamorig:LeftUpLeg/rotation/Input",
      "type": "SCALAR"
    },
    {
      "bufferView": 150,
      "componentType": 5126,
      "count": 21,
      "name": "Bip001 R Thigh/translation/Output",
      "type": "VEC3"
    },
    {
      "bufferView": 151,
      "componentType": 5126,
      "count": 21,
      "max": [
        0.6666666865348816
      ],
      "min": [
        0.0
      ],
      "name": "Bip001 R Thigh/translation/Input",
      "type": "SCALAR"
    },
    {
      "bufferView": 152,
      "componentType": 5126,
      "count": 20,
      "name": "Bip001 R Thigh/rotation/Output",
      "type": "VEC4"
    },
    {
      "bufferView": 153,
      "componentType": 5126,
      "count": 20,
      "max": [
        0.6666666865348816
      ],
      "min": [
        0.0
      ],
      "name": "Bip001 R Thigh/rotation/Input",
      "type": "SCALAR"
    },
    {
      "bufferView": 154,
      "componentType": 5126,
      "count": 1,
      "name": "Bip001 R Thigh/scale/Output",
      "type": "VEC3"
    },
    {
      "bufferView": 155,
      "componentType": 5126,
      "count": 1,
      "max": [
        0.6666666865348816
      ],
      "min": [
        0.6666666865348816
      ],
      "name": "Bip001 R Thigh/scale/Input",
      "type": "SCALAR"
    },
    {
      "bufferView": 156,
      "componentType": 5126,
      "count": 7,
      "name": "Bip001 R Calf/translation/Output",
      "type": "VEC3"
    },
    {
      "bufferView": 157,
      "componentType": 5126,
      "count": 7,
      "max": [
        0.4333333373069763
      ],
      "min": [
        0.0
      ],
      "name": "Bip001 R Calf/translation/Input",
      "type": "SCALAR"
    },
    {
      "bufferView": 158,
      "componentType": 5126,
      "count": 20,
      "name": "Bip001 R Calf/rotation/Output",
      "type": "VEC4"
    },
    {
      "bufferView": 159,
      "componentType": 5126,
      "count": 20,
      "max": [
        0.6666666865348816
      ],
      "min": [
        0.0
      ],
      "name": "Bip001 R Calf/rotation/Input",
      "type": "SCALAR"
    },
    {
      "bufferView": 160,
      "componentType": 5126,
      "count": 1,
      "name": "Bip001 R Calf/scale/Output",
      "type": "VEC3"
    },
    {
      "bufferView": 161,
      "componentType": 5126,
      "count": 1,
      "max": [
        0.6666666865348816
      ],
      "min": [
        0.6666666865348816
      ],
      "name": "Bip001 R Calf/scale/Input",
      "type": "SCALAR"
    },
    {
      "bufferView": 162,
      "componentType": 5126,
      "count": 11,
      "name": "Bip001 R Foot/translation/Output",
      "type": "VEC3"
    },
    {
      "bufferView": 163,
      "componentType": 5126,
      "count": 11,
      "max": [
        0.6333333253860474
      ],
      "min": [
        0.06666667014360428
      ],
      "name": "Bip001 R Foot/translation/Input",
      "type": "SCALAR"
    },
    {
      "bufferView": 164,
      "componentType": 5126,
      "count": 21,
      "name": "Bip001 R Foot/rotation/Output",
      "type": "VEC4"
    },
    {
      "bufferView": 165,
      "componentType": 5126,
      "count": 21,
      "max": [
        0.6666666865348816
      ],
      "min": [
        0.0
      ],
      "name": "Bip001 R Foot/rotation/Input",
      "type": "SCALAR"
    },
    {
      "bufferView": 166,
      "componentType": 5126,
      "count": 1,
      "name": "Bip001 R Foot/scale/Output",
      "type": "VEC3"
    },
    {
      "bufferView": 167,
      "componentType": 5126,
      "count": 1,
      "max": [
        0.6666666865348816
      ],
      "min": [
        0.6666666865348816
      ],
      "name": "Bip001 R Foot/scale/Input",
      "type": "SCALAR"
    },
    {
      "bufferView": 168,
      "componentType": 5126,
      "count": 9,
      "name": "Bip001 R Toe0/translation/Output",
      "type": "VEC3"
    },
    {
      "bufferView": 169,
      "componentType": 5126,
      "count": 9,
      "max": [
        0.6666666865348816
      ],
      "min": [
        0.06666667014360428
      ],
      "name": "Bip001 R Toe0/translation/Input",
      "type": "SCALAR"
    },
    {
      "bufferView": 170,
      "componentType": 5126,
      "count": 2,
      "name": "Bip001 R Toe0/rotation/Output",
      "type": "VEC4"
    },
    {
      "bufferView": 171,
      "componentType": 5126,
      "count": 2,
      "max": [
        0.06666667014360428
      ],
      "min": [
        0.0
      ],
      "name": "Bip001 R Toe0/rotation/Input",
      "type": "SCALAR"
    },
    {
      "bufferView": 172,
      "componentType": 5126,
      "count": 1,
      "name": "Bip001 R Toe0/scale/Output",
      "type": "VEC3"
    },
    {
      "bufferView": 173,
      "componentType": 5126,
      "count": 1,
      "max": [
        0.6666666865348816
      ],
      "min": [
        0.6666666865348816
      ],
      "name": "Bip001 R Toe0/scale/Input",
      "type": "SCALAR"
    },
    {
      "bufferView": 174,
      "componentType": 5126,
      "count": 1,
      "name": "mixamorig:RightToe_End/rotation/Output",
      "type": "VEC4"
    },
    {
      "bufferView": 175,
      "componentType": 5126,
      "count": 1,
      "max": [
        0.6666666865348816
      ],
      "min": [
        0.6666666865348816
      ],
      "name": "mixamorig:RightToe_End/rotation/Input",
      "type": "SCALAR"
    },
    {
      "bufferView": 176,
      "componentType": 5126,
      "count": 1,
      "name": "mixamorig:RightFoot/rotation/Output",
      "type": "VEC4"
    },
    {
      "bufferView": 177,
      "componentType": 5126,
      "count": 1,
      "max": [
        0.6666666865348816
      ],
      "min": [
        0.6666666865348816
      ],
      "name": "mixamorig:RightFoot/rotation/Input",
      "type": "SCALAR"
    },
    {
      "bufferView": 178,
      "componentType": 5126,
      "count": 1,
      "name": "mixamorig:RightToeBase/rotation/Output",
      "type": "VEC4"
    },
    {
      "bufferView": 179,
      "componentType": 5126,
      "count": 1,
      "max": [
        0.6666666865348816
      ],
      "min": [
        0.6666666865348816
      ],
      "name": "mixamorig:RightToeBase/rotation/Input",
      "type": "SCALAR"
    },
    {
      "bufferView": 180,
      "componentType": 5126,
      "count": 1,
      "name": "mixamorig:RightLeg/rotation/Output",
      "type": "VEC4"
    },
    {
      "bufferView": 181,
      "componentType": 5126,
      "count": 1,
      "max": [
        0.6666666865348816
      ],
      "min": [
        0.6666666865348816
      ],
      "name": "mixamorig:RightLeg/rotation/Input",
      "type": "SCALAR"
    },
    {
      "bufferView": 182,
      "componentType": 5126,
      "count": 1,
      "name": "mixamorig:RightUpLeg/rotation/Output",
      "type": "VEC4"
    },
    {
      "bufferView": 183,
      "componentType": 5126,
      "count": 1,
      "max": [
        0.6666666865348816
      ],
      "min": [
        0.6666666865348816
      ],
      "name": "mixamorig:RightUpLeg/rotation/Input",
      "type": "SCALAR"
    },
    {
      "bufferView": 184,
      "componentType": 5126,
      "count": 1,
      "name": "mixamorig:Spine/rotation/Output",
      "type": "VEC4"
    },
    {
      "bufferView": 185,
      "componentType": 5126,
      "count": 1,
      "max": [
        0.6666666865348816
      ],
      "min": [
        0.6666666865348816
      ],
      "name": "mixamorig:Spine/rotation/Input",
      "type": "SCALAR"
    },
    {
      "bufferView": 186,
      "componentType": 5126,
      "count": 1,
      "name": "mixamorig:Hips/rotation/Output",
      "type": "VEC4"
    },
    {
      "bufferView": 187,
      "componentType": 5126,
      "count": 1,
      "max": [
        0.6666666865348816
      ],
      "min": [
        0.6666666865348816
      ],
      "name": "mixamorig:Hips/rotation/Input",
      "type": "SCALAR"
    }
  ],
  "animations": [
    {
      "channels": [
        {
          "sampler": 0,
          "target": {
            "node": 0,
            "path": "translation"
          }
        },
        {
          "sampler": 1,
          "target": {
            "node": 0,
            "path": "rotation"
          }
        },
        {
          "sampler": 2,
          "target": {
            "node": 0,
            "path": "scale"
          }
        },
        {
          "sampler": 3,
          "target": {
            "node": 1,
            "path": "translation"
          }
        },
        {
          "sampler": 4,
          "target": {
            "node": 1,
            "path": "rotation"
          }
        },
        {
          "sampler": 5,
          "target": {
            "node": 1,
            "path": "scale"
          }
        },
        {
          "sampler": 6,
          "target": {
            "node": 2,
            "path": "translation"
          }
        },
        {
          "sampler": 7,
          "target": {
            "node": 2,
            "path": "rotation"
          }
        },
        {
          "sampler": 8,
          "target": {
            "node": 2,
            "path": "scale"
          }
        },
        {
          "sampler": 9,
          "target": {
            "node": 3,
            "path": "translation"
          }
        },
        {
          "sampler": 10,
          "target": {
            "node": 3,
            "path": "rotation"
          }
        },
        {
          "sampler": 11,
          "target": {
            "node": 3,
            "path": "scale"
          }
        },
        {
          "sampler": 12,
          "target": {
            "node": 4,
            "path": "translation"
          }
        },
        {
          "sampler": 13,
          "target": {
            "node": 4,
            "path": "rotation"
          }
        },
        {
          "sampler": 14,
          "target": {
            "node": 4,
            "path": "scale"
          }
        },
        {
          "sampler": 15,
          "target": {
            "node": 5,
            "path": "translation"
          }
        },
        {
          "sampler": 16,
          "target": {
            "node": 5,
            "path": "rotation"
          }
        },
        {
          "sampler": 17,
          "target": {
            "node": 5,
            "path": "scale"
          }
        },
        {
          "sampler": 18,
          "target": {
            "node": 6,
            "path": "translation"
          }
        },
        {
          "sampler": 19,
          "target": {
            "node": 6,
            "path": "rotation"
          }
        },
        {
          "sampler": 20,
          "target": {
            "node": 6,
            "path": "scale"
          }
        },
        {
          "sampler": 21,
          "target": {
            "node": 7,
            "path": "translation"
          }
        },
        {
          "sampler": 22,
          "target": {
            "node": 7,
            "path": "rotation"
          }
        },
        {
          "sampler": 23,
          "target": {
            "node": 7,
            "path": "scale"
          }
        },
        {
          "sampler": 24,
          "target": {
            "node": 8,
            "path": "translation"
          }
        },
        {
          "sampler": 25,
          "target": {
            "node": 8,
            "path": "rotation"
          }
        },
        {
          "sampler": 26,
          "target": {
            "node": 8,
            "path": "scale"
          }
        },
        {
          "sampler": 27,
          "target": {
            "node": 9,
            "path": "translation"
          }
        },
        {
          "sampler": 28,
          "target": {
            "node": 9,
            "path": "rotation"
          }
        },
        {
          "sampler": 29,
          "target": {
            "node": 9,
            "path": "scale"
          }
        },
        {
          "sampler": 30,
          "target": {
            "node": 10,
            "path": "rotation"
          }
        },
        {
          "sampler": 31,
          "target": {
            "node": 11,
            "path": "rotation"
          }
        },
        {
          "sampler": 32,
          "target": {
            "node": 12,
            "path": "rotation"
          }
        },
        {
          "sampler": 33,
          "target": {
            "node": 13,
            "path": "rotation"
          }
        },
        {
          "sampler": 34,
          "target": {
            "node": 14,
            "path": "translation"
          }
        },
        {
          "sampler": 35,
          "target": {
            "node": 14,
            "path": "rotation"
          }
        },
        {
          "sampler": 36,
          "target": {
            "node": 14,
            "path": "scale"
          }
        },
        {
          "sampler": 37,
          "target": {
            "node": 15,
            "path": "translation"
          }
        },
        {
          "sampler": 38,
          "target": {
            "node": 15,
            "path": "rotation"
          }
        },
        {
          "sampler": 39,
          "target": {
            "node": 15,
            "path": "scale"
          }
        },
        {
          "sampler": 40,
          "target": {
            "node": 16,
            "path": "translation"
          }
        },
        {
          "sampler": 41,
          "target": {
            "node": 16,
            "path": "rotation"
          }
        },
        {
          "sampler": 42,
          "target": {
            "node": 16,
            "path": "scale"
          }
        },
        {
          "sampler": 43,
          "target": {
            "node": 17,
            "path": "translation"
          }
        },
        {
          "sampler": 44,
          "target": {
            "node": 17,
            "path": "rotation"
          }
        },
        {
          "sampler": 45,
          "target": {
            "node": 17,
            "path": "scale"
          }
        },
        {
          "sampler": 46,
          "target": {
            "node": 18,
            "path": "rotation"
          }
        },
        {
          "sampler": 47,
          "target": {
            "node": 19,
            "path": "rotation"
          }
        },
        {
          "sampler": 48,
          "target": {
            "node": 20,
            "path": "rotation"
          }
        },
        {
          "sampler": 49,
          "target": {
            "node": 21,
            "path": "rotation"
          }
        },
        {
          "sampler": 50,
          "target": {
            "node": 22,
            "path": "translation"
          }
        },
        {
          "sampler": 51,
          "target": {
            "node": 22,
            "path": "rotation"
          }
        },
        {
          "sampler": 52,
          "target": {
            "node": 22,
            "path": "scale"
          }
        },
        {
          "sampler": 53,
          "target": {
            "node": 23,
            "path": "rotation"
          }
        },
        {
          "sampler": 54,
          "target": {
            "node": 24,
            "path": "rotation"
          }
        },
        {
          "sampler": 55,
          "target": {
            "node": 25,
            "path": "rotation"
          }
        },
        {
          "sampler": 56,
          "target": {
            "node": 26,
            "path": "rotation"
          }
        },
        {
          "sampler": 57,
          "target": {
            "node": 27,
            "path": "rotation"
          }
        },
        {
          "sampler": 58,
          "target": {
            "node": 28,
            "path": "translation"
          }
        },
        {
          "sampler": 59,
          "target": {
            "node": 28,
            "path": "rotation"
          }
        },
        {
          "sampler": 60,
          "target": {
            "node": 28,
            "path": "scale"
          }
        },
        {
          "sampler": 61,
          "target": {
            "node": 29,
            "path": "translation"
          }
        },
        {
          "sampler": 62,
          "target": {
            "node": 29,
            "path": "rotation"
          }
        },
        {
          "sampler": 63,
          "target": {
            "node": 29,
            "path": "scale"
          }
        },
        {
          "sampler": 64,
          "target": {
            "node": 30,
            "path": "translation"
          }
        },
        {
          "sampler": 65,
          "target": {
            "node": 30,
            "path": "rotation"
          }
        },
        {
          "sampler": 66,
          "target": {
            "node": 30,
            "path": "scale"
          }
        },
        {
          "sampler": 67,
          "target": {
            "node": 31,
            "path": "translation"
          }
        },
        {
          "sampler": 68,
          "target": {
            "node": 31,
            "path": "rotation"
          }
        },
        {
          "sampler": 69,
          "target": {
            "node": 31,
            "path": "scale"
          }
        },
        {
          "sampler": 70,
          "target": {
            "node": 32,
            "path": "rotation"
          }
        },
        {
          "sampler": 71,
          "target": {
            "node": 33,
            "path": "rotation"
          }
        },
        {
          "sampler": 72,
          "target": {
            "node": 34,
            "path": "rotation"
          }
        },
        {
          "sampler": 73,
          "target": {
            "node": 35,
            "path": "rotation"
          }
        },
        {
          "sampler": 74,
          "target": {
            "node": 36,
            "path": "rotation"
          }
        },
        {
          "sampler": 75,
          "target": {
            "node": 37,
            "path": "translation"
          }
        },
        {
          "sampler": 76,
          "target": {
            "node": 37,
            "path": "rotation"
          }
        },
        {
          "sampler": 77,
          "target": {
            "node": 37,
            "path": "scale"
          }
        },
        {
          "sampler": 78,
          "target": {
            "node": 38,
            "path": "translation"
          }
        },
        {
          "sampler": 79,
          "target": {
            "node": 38,
            "path": "rotation"
          }
        },
        {
          "sampler": 80,
          "target": {
            "node": 38,
            "path": "scale"
          }
        },
        {
          "sampler": 81,
          "target": {
            "node": 39,
            "path": "translation"
          }
        },
        {
          "sampler": 82,
          "target": {
            "node": 39,
            "path": "rotation"
          }
        },
        {
          "sampler": 83,
          "target": {
            "node": 39,
            "path": "scale"
          }
        },
        {
          "sampler": 84,
          "target": {
            "node": 40,
            "path": "translation"
          }
        },
        {
          "sampler": 85,
          "target": {
            "node": 40,
            "path": "rotation"
          }
        },
        {
          "sampler": 86,
          "target": {
            "node": 40,
            "path": "scale"
          }
        },
        {
          "sampler": 87,
          "target": {
            "node": 41,
            "path": "rotation"
          }
        },
        {
          "sampler": 88,
          "target": {
            "node": 42,
            "path": "rotation"
          }
        },
        {
          "sampler": 89,
          "target": {
            "node": 43,
            "path": "rotation"
          }
        },
        {
          "sampler": 90,
          "target": {
            "node": 44,
            "path": "rotation"
          }
        },
        {
          "sampler": 91,
          "target": {
            "node": 45,
            "path": "rotation"
          }
        },
        {
          "sampler": 92,
          "target": {
            "node": 46,
            "path": "rotation"
          }
        },
        {
          "sampler": 93,
          "target": {
            "node": 47,
            "path": "rotation"
          }
        }
      ],
      "name": "Take 001",
      "samplers": [
        {
          "input": 1,
          "output": 0
        },
        {
          "input": 3,
          "output": 2
        },
        {
          "input": 5,
          "output": 4
        },
        {
          "input": 7,
          "output": 6
        },
        {
          "input": 9,
          "output": 8
        },
        {
          "input": 11,
          "output": 10
        },
        {
          "input": 13,
          "output": 12
        },
        {
          "input": 15,
          "output": 14
        },
        {
          "input": 17,
          "output": 16
        },
        {
          "input": 19,
          "output": 18
        },
        {
          "input": 21,
          "output": 20
        },
        {
          "input": 23,
          "output": 22
        },
        {
          "input": 25,
          "output": 24
        },
        {
          "input": 27,
          "output": 26
        },
        {
          "input": 29,
          "output": 28
        },
        {
          "input": 31,
          "output": 30
        },
        {
          "input": 33,
          "output": 32
        },
        {
          "input": 35,
          "output": 34
        },
        {
          "input": 37,
          "output": 36
        },
        {
          "input": 39,
          "output": 38
        },
        {
          "input": 41,
          "output": 40
        },
        {
          "input": 43,
          "output": 42
        },
        {
          "input": 45,
          "output": 44
        },
        {
          "input": 47,
          "output": 46
        },
        {
          "input": 49,
          "output": 48
        },
        {
          "input": 51,
          "output": 50
        },
        {
          "input": 53,
          "output": 52
        },
        {
          "input": 55,
          "output": 54
        },
        {
          "input": 57,
          "output": 56
        },
        {
          "input": 59,
          "output": 58
        },
        {
          "input": 61,
          "output": 60
        },
        {
          "input": 63,
          "output": 62
        },
        {
          "input": 65,
          "output": 64
        },
        {
          "input": 67,
          "output": 66
        },
        {
          "input": 69,
          "output": 68
        },
        {
          "input": 71,
          "output": 70
        },
        {
          "input": 73,
          "output": 72
        },
        {
          "input": 75,
          "output": 74
        },
        {
          "input": 77,
          "output": 76
        },
        {
          "input": 79,
          "output": 78
        },
        {
          "input": 81,
          "output": 80
        },
        {
          "input": 83,
          "output": 82
        },
        {
          "input": 85,
          "output": 84
        },
        {
          "input": 87,
          "output": 86
        },
        {
          "input": 89,
          "output": 88
        },
        {
          "input": 91,
          "output": 90
        },
        {
          "input": 93,
          "output": 92
        },
        {
          "input": 95,
          "output": 94
        },
        {
          "input": 97,
          "output": 96
        },
        {
          "input": 99,
          "output": 98
        },
        {
          "input": 101,
          "output": 100
        },
        {
          "input": 103,
          "output": 102
        },
        {
          "input": 105,
          "output": 104
        },
        {
          "input": 107,
          "output": 106
        },
        {
          "input": 109,
          "output": 108
        },
        {
          "input": 111,
          "output": 110
        },
        {
          "input": 113,
          "output": 112
        },
        {
          "input": 115,
          "output": 114
        },
        {
          "input": 117,
          "output": 116
        },
        {
          "input": 119,
          "output": 118
        },
        {
          "input": 121,
          "output": 120
        },
        {
          "input": 123,
          "output": 122
        },
        {
          "input": 125,
          "output": 124
        },
        {
          "input": 127,
          "output": 126
        },
        {
          "input": 129,
          "output": 128
        },
        {
          "input": 131,
          "output": 130
        },
        {
          "input": 133,
          "output": 132
        },
        {
          "input": 135,
          "output": 134
        },
        {
          "input": 137,
          "output": 136
        },
        {
          "input": 139,
          "output": 138
        },
        {
          "input": 141,
          "output": 140
        },
        {
          "input": 143,
          "output": 142
        },
        {
          "input": 145,
          "output": 144
        },
        {
          "input": 147,
          "output": 146
        },
        {
          "input": 149,
          "output": 148
        },
        {
          "input": 151,
          "output": 150
        },
        {
          "input": 153,
          "output": 152
        },
        {
          "input": 155,
          "output": 154
        },
        {
          "input": 157,
          "output": 156
        },
        {
          "input": 159,
          "output": 158
        },
        {
          "input": 161,
          "output": 160
        },
        {
          "input": 163,
          "output": 162
        },
        {
          "input": 165,
          "output": 164
        },
        {
          "input": 167,
          "output": 166
        },
        {
          "input": 169,
          "output": 168
        },
        {
          "input": 171,
          "output": 170
        },
        {
          "input": 173,
          "output": 172
        },
        {
          "input": 175,
          "output": 174
        },
        {
          "input": 177,
          "output": 176
        },
        {
          "input": 179,
          "output": 178
        },
        {
          "input": 181,
          "output": 180
        },
        {
          "input": 183,
          "output": 182
        },
        {
          "input": 185,
          "output": 184
        },
        {
          "input": 187,
          "output": 186
        }
      ]
    }
  ],
  "asset": {
    "copyright": "Copyright (c) 2018-2020 Chukong Technologies Inc.",
    "generator": "FBX-glTF-conv",
    "version": "2.0"
  },
  "bufferViews": [
    {
      "buffer": 0,
      "byteLength": 240
    },
    {
      "buffer": 0,
      "byteLength": 80,
      "byteOffset": 240
    },
    {
      "buffer": 0,
      "byteLength": 160,
      "byteOffset": 320
    },
    {
      "buffer": 0,
      "byteLength": 40,
      "byteOffset": 480
    },
    {
      "buffer": 0,
      "byteLength": 12,
      "byteOffset": 520
    },
    {
      "buffer": 0,
      "byteLength": 4,
      "byteOffset": 532
    },
    {
      "buffer": 0,
      "byteLength": 12,
      "byteOffset": 536
    },
    {
      "buffer": 0,
      "byteLength": 4,
      "byteOffset": 548
    },
    {
      "buffer": 0,
      "byteLength": 16,
      "byteOffset": 552
    },
    {
      "buffer": 0,
      "byteLength": 4,
      "byteOffset": 568
    },
    {
      "buffer": 0,
      "byteLength": 12,
      "byteOffset": 572
    },
    {
      "buffer": 0,
      "byteLength": 4,
      "byteOffset": 584
    },
    {
      "buffer": 0,
      "byteLength": 240,
      "byteOffset": 588
    },
    {
      "buffer": 0,
      "byteLength": 80,
      "byteOffset": 828
    },
    {
      "buffer": 0,
      "byteLength": 320,
      "byteOffset": 908
    },
    {
      "buffer": 0,
      "byteLength": 80,
      "byteOffset": 1228
    },
    {
      "buffer": 0,
      "byteLength": 12,
      "byteOffset": 1308
    },
    {
      "buffer": 0,
      "byteLength": 4,
      "byteOffset": 1320
    },
    {
      "buffer": 0,
      "byteLength": 204,
      "byteOffset": 1324
    },
    {
      "buffer": 0,
      "byteLength": 68,
      "byteOffset": 1528
    },
    {
      "buffer": 0,
      "byteLength": 320,
      "byteOffset": 1596
    },
    {
      "buffer": 0,
      "byteLength": 80,
      "byteOffset": 1916
    },
    {
      "buffer": 0,
      "byteLength": 12,
      "byteOffset": 1996
    },
    {
      "buffer": 0,
      "byteLength": 4,
      "byteOffset": 2008
    },
    {
      "buffer": 0,
      "byteLength": 228,
      "byteOffset": 2012
    },
    {
      "buffer": 0,
      "byteLength": 76,
      "byteOffset": 2240
    },
    {
      "buffer": 0,
      "byteLength": 320,
      "byteOffset": 2316
    },
    {
      "buffer": 0,
      "byteLength": 80,
      "byteOffset": 2636
    },
    {
      "buffer": 0,
      "byteLength": 12,
      "byteOffset": 2716
    },
    {
      "buffer": 0,
      "byteLength": 4,
      "byteOffset": 2728
    },
    {
      "buffer": 0,
      "byteLength": 156,
      "byteOffset": 2732
    },
    {
      "buffer": 0,
      "byteLength": 52,
      "byteOffset": 2888
    },
    {
      "buffer": 0,
      "byteLength": 160,
      "byteOffset": 2940
    },
    {
      "buffer": 0,
      "byteLength": 40,
      "byteOffset": 3100
    },
    {
      "buffer": 0,
      "byteLength": 12,
      "byteOffset": 3140
    },
    {
      "buffer": 0,
      "byteLength": 4,
      "byteOffset": 3152
    },
    {
      "buffer": 0,
      "byteLength": 204,
      "byteOffset": 3156
    },
    {
      "buffer": 0,
      "byteLength": 68,
      "byteOffset": 3360
    },
    {
      "buffer": 0,
      "byteLength": 288,
      "byteOffset": 3428
    },
    {
      "buffer": 0,
      "byteLength": 72,
      "byteOffset": 3716
    },
    {
      "buffer": 0,
      "byteLength": 12,
      "byteOffset": 3788
    },
    {
      "buffer": 0,
      "byteLength": 4,
      "byteOffset": 3800
    },
    {
      "buffer": 0,
      "byteLength": 84,
      "byteOffset": 3804
    },
    {
      "buffer": 0,
      "byteLength": 28,
      "byteOffset": 3888
    },
    {
      "buffer": 0,
      "byteLength": 336,
      "byteOffset": 3916
    },
    {
      "buffer": 0,
      "byteLength": 84,
      "byteOffset": 4252
    },
    {
      "buffer": 0,
      "byteLength": 12,
      "byteOffset": 4336
    },
    {
      "buffer": 0,
      "byteLength": 4,
      "byteOffset": 4348
    },
    {
      "buffer": 0,
      "byteLength": 72,
      "byteOffset": 4352
    },
    {
      "buffer": 0,
      "byteLength": 24,
      "byteOffset": 4424
    },
    {
      "buffer": 0,
      "byteLength": 336,
      "byteOffset": 4448
    },
    {
      "buffer": 0,
      "byteLength": 84,
      "byteOffset": 4784
    },
    {
      "buffer": 0,
      "byteLength": 12,
      "byteOffset": 4868
    },
    {
      "buffer": 0,
      "byteLength": 4,
      "byteOffset": 4880
    },
    {
      "buffer": 0,
      "byteLength": 156,
      "byteOffset": 4884
    },
    {
      "buffer": 0,
      "byteLength": 52,
      "byteOffset": 5040
    },
    {
      "buffer": 0,
      "byteLength": 336,
      "byteOffset": 5092
    },
    {
      "buffer": 0,
      "byteLength": 84,
      "byteOffset": 5428
    },
    {
      "buffer": 0,
      "byteLength": 12,
      "byteOffset": 5512
    },
    {
      "buffer": 0,
      "byteLength": 4,
      "byteOffset": 5524
    },
    {
      "buffer": 0,
      "byteLength": 16,
      "byteOffset": 5528
    },
    {
      "buffer": 0,
      "byteLength": 4,
      "byteOffset": 5544
    },
    {
      "buffer": 0,
      "byteLength": 16,
      "byteOffset": 5548
    },
    {
      "buffer": 0,
      "byteLength": 4,
      "byteOffset": 5564
    },
    {
      "buffer": 0,
      "byteLength": 16,
      "byteOffset": 5568
    },
    {
      "buffer": 0,
      "byteLength": 4,
      "byteOffset": 5584
    },
    {
      "buffer": 0,
      "byteLength": 16,
      "byteOffset": 5588
    },
    {
      "buffer": 0,
      "byteLength": 4,
      "byteOffset": 5604
    },
    {
      "buffer": 0,
      "byteLength": 156,
      "byteOffset": 5608
    },
    {
      "buffer": 0,
      "byteLength": 52,
      "byteOffset": 5764
    },
    {
      "buffer": 0,
      "byteLength": 288,
      "byteOffset": 5816
    },
    {
      "buffer": 0,
      "byteLength": 72,
      "byteOffset": 6104
    },
    {
      "buffer": 0,
      "byteLength": 12,
      "byteOffset": 6176
    },
    {
      "buffer": 0,
      "byteLength": 4,
      "byteOffset": 6188
    },
    {
      "buffer": 0,
      "byteLength": 36,
      "byteOffset": 6192
    },
    {
      "buffer": 0,
      "byteLength": 12,
      "byteOffset": 6228
    },
    {
      "buffer": 0,
      "byteLength": 336,
      "byteOffset": 6240
    },
    {
      "buffer": 0,
      "byteLength": 84,
      "byteOffset": 6576
    },
    {
      "buffer": 0,
      "byteLength": 12,
      "byteOffset": 6660
    },
    {
      "buffer": 0,
      "byteLength": 4,
      "byteOffset": 6672
    },
    {
      "buffer": 0,
      "byteLength": 96,
      "byteOffset": 6676
    },
    {
      "buffer": 0,
      "byteLength": 32,
      "byteOffset": 6772
    },
    {
      "buffer": 0,
      "byteLength": 336,
      "byteOffset": 6804
    },
    {
      "buffer": 0,
      "byteLength": 84,
      "byteOffset": 7140
    },
    {
      "buffer": 0,
      "byteLength": 12,
      "byteOffset": 7224
    },
    {
      "buffer": 0,
      "byteLength": 4,
      "byteOffset": 7236
    },
    {
      "buffer": 0,
      "byteLength": 96,
      "byteOffset": 7240
    },
    {
      "buffer": 0,
      "byteLength": 32,
      "byteOffset": 7336
    },
    {
      "buffer": 0,
      "byteLength": 336,
      "byteOffset": 7368
    },
    {
      "buffer": 0,
      "byteLength": 84,
      "byteOffset": 7704
    },
    {
      "buffer": 0,
      "byteLength": 12,
      "byteOffset": 7788
    },
    {
      "buffer": 0,
      "byteLength": 4,
      "byteOffset": 7800
    },
    {
      "buffer": 0,
      "byteLength": 16,
      "byteOffset": 7804
    },
    {
      "buffer": 0,
      "byteLength": 4,
      "byteOffset": 7820
    },
    {
      "buffer": 0,
      "byteLength": 16,
      "byteOffset": 7824
    },
    {
      "buffer": 0,
      "byteLength": 4,
      "byteOffset": 7840
    },
    {
      "buffer": 0,
      "byteLength": 16,
      "byteOffset": 7844
    },
    {
      "buffer": 0,
      "byteLength": 4,
      "byteOffset": 7860
    },
    {
      "buffer": 0,
      "byteLength": 16,
      "byteOffset": 7864
    },
    {
      "buffer": 0,
      "byteLength": 4,
      "byteOffset": 7880
    },
    {
      "buffer": 0,
      "byteLength": 36,
      "byteOffset": 7884
    },
    {
      "buffer": 0,
      "byteLength": 12,
      "byteOffset": 7920
    },
    {
      "buffer": 0,
      "byteLength": 336,
      "byteOffset": 7932
    },
    {
      "buffer": 0,
      "byteLength": 84,
      "byteOffset": 8268
    },
    {
      "buffer": 0,
      "byteLength": 12,
      "byteOffset": 8352
    },
    {
      "buffer": 0,
      "byteLength": 4,
      "byteOffset": 8364
    },
    {
      "buffer": 0,
      "byteLength": 16,
      "byteOffset": 8368
    },
    {
      "buffer": 0,
      "byteLength": 4,
      "byteOffset": 8384
    },
    {
      "buffer": 0,
      "byteLength": 16,
      "byteOffset": 8388
    },
    {
      "buffer": 0,
      "byteLength": 4,
      "byteOffset": 8404
    },
    {
      "buffer": 0,
      "byteLength": 16,
      "byteOffset": 8408
    },
    {
      "buffer": 0,
      "byteLength": 4,
      "byteOffset": 8424
    },
    {
      "buffer": 0,
      "byteLength": 16,
      "byteOffset": 8428
    },
    {
      "buffer": 0,
      "byteLength": 4,
      "byteOffset": 8444
    },
    {
      "buffer": 0,
      "byteLength": 16,
      "byteOffset": 8448
    },
    {
      "buffer": 0,
      "byteLength": 4,
      "byteOffset": 8464
    },
    {
      "buffer": 0,
      "byteLength": 252,
      "byteOffset": 8468
    },
    {
      "buffer": 0,
      "byteLength": 84,
      "byteOffset": 8720
    },
    {
      "buffer": 0,
      "byteLength": 320,
      "byteOffset": 8804
    },
    {
      "buffer": 0,
      "byteLength": 80,
      "byteOffset": 9124
    },
    {
      "buffer": 0,
      "byteLength": 12,
      "byteOffset": 9204
    },
    {
      "buffer": 0,
      "byteLength": 4,
      "byteOffset": 9216
    },
    {
      "buffer": 0,
      "byteLength": 132,
      "byteOffset": 9220
    },
    {
      "buffer": 0,
      "byteLength": 44,
      "byteOffset": 9352
    },
    {
      "buffer": 0,
      "byteLength": 288,
      "byteOffset": 9396
    },
    {
      "buffer": 0,
      "byteLength": 72,
      "byteOffset": 9684
    },
    {
      "buffer": 0,
      "byteLength": 12,
      "byteOffset": 9756
    },
    {
      "buffer": 0,
      "byteLength": 4,
      "byteOffset": 9768
    },
    {
      "buffer": 0,
      "byteLength": 48,
      "byteOffset": 9772
    },
    {
      "buffer": 0,
      "byteLength": 16,
      "byteOffset": 9820
    },
    {
      "buffer": 0,
      "byteLength": 320,
      "byteOffset": 9836
    },
    {
      "buffer": 0,
      "byteLength": 80,
      "byteOffset": 10156
    },
    {
      "buffer": 0,
      "byteLength": 12,
      "byteOffset": 10236
    },
    {
      "buffer": 0,
      "byteLength": 4,
      "byteOffset": 10248
    },
    {
      "buffer": 0,
      "byteLength": 96,
      "byteOffset": 10252
    },
    {
      "buffer": 0,
      "byteLength": 32,
      "byteOffset": 10348
    },
    {
      "buffer": 0,
      "byteLength": 80,
      "byteOffset": 10380
    },
    {
      "buffer": 0,
      "byteLength": 20,
      "byteOffset": 10460
    },
    {
      "buffer": 0,
      "byteLength": 12,
      "byteOffset": 10480
    },
    {
      "buffer": 0,
      "byteLength": 4,
      "byteOffset": 10492
    },
    {
      "buffer": 0,
      "byteLength": 16,
      "byteOffset": 10496
    },
    {
      "buffer": 0,
      "byteLength": 4,
      "byteOffset": 10512
    },
    {
      "buffer": 0,
      "byteLength": 16,
      "byteOffset": 10516
    },
    {
      "buffer": 0,
      "byteLength": 4,
      "byteOffset": 10532
    },
    {
      "buffer": 0,
      "byteLength": 16,
      "byteOffset": 10536
    },
    {
      "buffer": 0,
      "byteLength": 4,
      "byteOffset": 10552
    },
    {
      "buffer": 0,
      "byteLength": 16,
      "byteOffset": 10556
    },
    {
      "buffer": 0,
      "byteLength": 4,
      "byteOffset": 10572
    },
    {
      "buffer": 0,
      "byteLength": 16,
      "byteOffset": 10576
    },
    {
      "buffer": 0,
      "byteLength": 4,
      "byteOffset": 10592
    },
    {
      "buffer": 0,
      "byteLength": 252,
      "byteOffset": 10596
    },
    {
      "buffer": 0,
      "byteLength": 84,
      "byteOffset": 10848
    },
    {
      "buffer": 0,
      "byteLength": 320,
      "byteOffset": 10932
    },
    {
      "buffer": 0,
      "byteLength": 80,
      "byteOffset": 11252
    },
    {
      "buffer": 0,
      "byteLength": 12,
      "byteOffset": 11332
    },
    {
      "buffer": 0,
      "byteLength": 4,
      "byteOffset": 11344
    },
    {
      "buffer": 0,
      "byteLength": 84,
      "byteOffset": 11348
    },
    {
      "buffer": 0,
      "byteLength": 28,
      "byteOffset": 11432
    },
    {
      "buffer": 0,
      "byteLength": 320,
      "byteOffset": 11460
    },
    {
      "buffer": 0,
      "byteLength": 80,
      "byteOffset": 11780
    },
    {
      "buffer": 0,
      "byteLength": 12,
      "byteOffset": 11860
    },
    {
      "buffer": 0,
      "byteLength": 4,
      "byteOffset": 11872
    },
    {
      "buffer": 0,
      "byteLength": 132,
      "byteOffset": 11876
    },
    {
      "buffer": 0,
      "byteLength": 44,
      "byteOffset": 12008
    },
    {
      "buffer": 0,
      "byteLength": 336,
      "byteOffset": 12052
    },
    {
      "buffer": 0,
      "byteLength": 84,
      "byteOffset": 12388
    },
    {
      "buffer": 0,
      "byteLength": 12,
      "byteOffset": 12472
    },
    {
      "buffer": 0,
      "byteLength": 4,
      "byteOffset": 12484
    },
    {
      "buffer": 0,
      "byteLength": 108,
      "byteOffset": 12488
    },
    {
      "buffer": 0,
      "byteLength": 36,
      "byteOffset": 12596
    },
    {
      "buffer": 0,
      "byteLength": 32,
      "byteOffset": 12632
    },
    {
      "buffer": 0,
      "byteLength": 8,
      "byteOffset": 12664
    },
    {
      "buffer": 0,
      "byteLength": 12,
      "byteOffset": 12672
    },
    {
      "buffer": 0,
      "byteLength": 4,
      "byteOffset": 12684
    },
    {
      "buffer": 0,
      "byteLength": 16,
      "byteOffset": 12688
    },
    {
      "buffer": 0,
      "byteLength": 4,
      "byteOffset": 12704
    },
    {
      "buffer": 0,
      "byteLength": 16,
      "byteOffset": 12708
    },
    {
      "buffer": 0,
      "byteLength": 4,
      "byteOffset": 12724
    },
    {
      "buffer": 0,
      "byteLength": 16,
      "byteOffset": 12728
    },
    {
      "buffer": 0,
      "byteLength": 4,
      "byteOffset": 12744
    },
    {
      "buffer": 0,
      "byteLength": 16,
      "byteOffset": 12748
    },
    {
      "buffer": 0,
      "byteLength": 4,
      "byteOffset": 12764
    },
    {
      "buffer": 0,
      "byteLength": 16,
      "byteOffset": 12768
    },
    {
      "buffer": 0,
      "byteLength": 4,
      "byteOffset": 12784
    },
    {
      "buffer": 0,
      "byteLength": 16,
      "byteOffset": 12788
    },
    {
      "buffer": 0,
      "byteLength": 4,
      "byteOffset": 12804
    },
    {
      "buffer": 0,
      "byteLength": 16,
      "byteOffset": 12808
    },
    {
      "buffer": 0,
      "byteLength": 4,
      "byteOffset": 12824
    }
  ],
  "buffers": [
    {
      "byteLength": 12828,
      "uri": "out.bin"
    }
  ],
  "extras": {
    "FBX-glTF-conv": {
      "animationFrameRate": 30.0,
      "fbxFileHeaderInfo": {
        "creationTimeStamp": {
          "day": 2,
          "hour": 9,
          "millisecond": 181,
          "minute": 54,
          "month": 6,
          "second": 58,
          "year": 2026
        },
        "creator": "FBX SDK/FBX Plugins version 2020.3.7",
        "sceneInfo": {
          "author": "",
          "comment": "",
          "keywords": "",
          "original": {
            "applicationName": "3ds Max",
            "applicationVendor": "Autodesk",
            "applicationVersion": "2026",
            "fileName": "E:\\试玩需求\\boss\\boos_2\\boos_02_死亡.fbx"
          },
          "revision": "",
          "subject": "",
          "title": "",
          "url": "D:\\工程项目\\test_pro\\test_pro\\HYQ_Project\\assets\\GameRes\\FBX\\Monster_boos_2\\boos_02_死亡.fbx"
        }
      }
    }
  },
  "nodes": [
    {
      "children": [
        1,
        47
      ],
      "extras": {
        "FBX-glTF-conv": {
          "skeleton": {
            "skeletonType": "Root"
          }
        }
      },
      "name": "Bip001",
      "rotation": [
        0.3883906900882721,
        0.6546033620834351,
        0.5730252265930176,
        -0.3037913143634796
      ],
      "translation": [
        0.007509647402912378,
        0.8505949974060059,
        -0.0076355841010808945
      ]
    },
    {
      "children": [
        2
      ],
      "extras": {
        "FBX-glTF-conv": {
          "skeleton": {
            "skeletonType": "LimbNode"
          }
        }
      },
      "name": "Bip001 Pelvis",
      "rotation": [
        -0.5,
        -0.5,
        -0.4999992847442627,
        0.5000007152557373
      ]
    },
    {
      "children": [
        3,
        28,
        37,
        46
      ],
      "extras": {
        "FBX-glTF-conv": {
          "skeleton": {
            "skeletonType": "LimbNode"
          }
        }
      },
      "name": "Bip001 Spine",
      "rotation": [
        0.007773309946060181,
        -0.025370735675096512,
        0.19190117716789246,
        0.981055498123169
      ],
      "translation": [
        0.03595931828022003,
        -0.0001678466796875,
        -5.81741346650233e-07
      ]
    },
    {
      "children": [
        4,
        27
      ],
      "extras": {
        "FBX-glTF-conv": {
          "skeleton": {
            "skeletonType": "LimbNode"
          }
        }
      },
      "name": "Bip001 Spine1",
      "rotation": [
        0.0013094565365463495,
        -0.0035976595245301723,
        0.03496392071247101,
        0.9993812441825867
      ],
      "translation": [
        0.14758002758026123,
        -0.00016611098544672132,
        -3.9637089344068954e-07
      ]
    },
    {
      "children": [
        5,
        26
      ],
      "extras": {
        "FBX-glTF-conv": {
          "skeleton": {
            "skeletonType": "LimbNode"
          }
        }
      },
      "name": "Bip001 Spine2",
      "rotation": [
        0.002617340534925461,
        -0.0071908594109117985,
        0.06988456845283508,
        0.9975257515907288
      ],
      "translation": [
        0.20916473865509033,
        -0.00018243789963889867,
        -7.784366857777059e-07
      ]
    },
    {
      "children": [
        6,
        14,
        22
      ],
      "extras": {
        "FBX-glTF-conv": {
          "skeleton": {
            "skeletonType": "LimbNode"
          }
        }
      },
      "name": "Bip001 Neck",
      "rotation": [
        0.14050258696079254,
        -0.1734171211719513,
        0.3504781126976013,
        0.9095881581306458
      ],
      "translation": [
        0.2427021861076355,
        -4.081726001459174e-05,
        -7.669925253139809e-06
      ]
    },
    {
      "children": [
        7,
        13
      ],
      "extras": {
        "FBX-glTF-conv": {
          "skeleton": {
            "skeletonType": "LimbNode"
          }
        }
      },
      "name": "Bip001 L Clavicle",
      "rotation": [
        0.6587363481521606,
        -0.08329416066408157,
        0.6505515575408936,
        0.3686612844467163
      ],
      "translation": [
        0.08598122000694275,
        -0.20291046798229218,
        0.1243610605597496
      ]
    },
    {
      "children": [
        8,
        12
      ],
      "extras": {
        "FBX-glTF-conv": {
          "skeleton": {
            "skeletonType": "LimbNode"
          }
        }
      },
      "name": "Bip001 L UpperArm",
      "rotation": [
        0.010114360600709915,
        0.37438735365867615,
        0.07479348033666611,
        0.9241957068443298
      ],
      "translation": [
        0.3080410063266754,
        -7.629394360719743e-08,
        -1.5258788721439487e-07
      ]
    },
    {
      "children": [
        9,
        11
      ],
      "extras": {
        "FBX-glTF-conv": {
          "skeleton": {
            "skeletonType": "LimbNode"
          }
        }
      },
      "name": "Bip001 L Forearm",
      "rotation": [
        -3.1005789926753923e-17,
        2.778449054112132e-17,
        -0.6673611998558044,
        0.7447342276573181
      ],
      "translation": [
        0.2870975434780121,
        -1.4210854397564648e-16,
        1.4210854397564648e-16
      ]
    },
    {
      "children": [
        10
      ],
      "extras": {
        "FBX-glTF-conv": {
          "skeleton": {
            "skeletonType": "LimbNode"
          }
        }
      },
      "name": "Bip001 L Hand",
      "rotation": [
        -0.3050127923488617,
        -0.003013164736330509,
        0.022432025521993637,
        0.9520792365074158
      ],
      "translation": [
        0.2870974838733673,
        7.629394360719743e-08,
        -7.629394360719743e-08
      ]
    },
    {
      "name": "mixamorig:LeftHand",
      "rotation": [
        0.6532353162765503,
        0.45542916655540466,
        0.5144954919815063,
        -0.3180602490901947
      ],
      "scale": [
        2.539999008178711,
        2.5399999618530273,
        2.5399999618530273
      ],
      "translation": [
        -0.005195579491555691,
        0.006821594201028347,
        0.008967285044491291
      ]
    },
    {
      "name": "mixamorig:LeftForeArm",
      "rotation": [
        0.6836795210838318,
        0.7166414260864258,
        -0.07865606248378754,
        0.11322782933712006
      ],
      "scale": [
        2.539999008178711,
        2.5399999618530273,
        2.5399999618530273
      ],
      "translation": [
        -0.015022811479866505,
        -0.0066307829692959785,
        -0.017049789428710938
      ]
    },
    {
      "name": "mixamorig:LeftArm",
      "rotation": [
        0.7058023810386658,
        0.6951907277107239,
        -0.11008135229349136,
        0.08021821826696396
      ],
      "scale": [
        2.5399999618530273,
        2.5399999618530273,
        2.5399999618530273
      ],
      "translation": [
        -0.04131027311086655,
        0.002693710383027792,
        -0.004597472958266735
      ]
    },
    {
      "name": "mixamorig:LeftShoulder",
      "rotation": [
        0.7018406987190247,
        0.7064086198806763,
        -0.07844384014606476,
        0.0474667064845562
      ],
      "scale": [
        2.539999008178711,
        2.5399999618530273,
        2.5399999618530273
      ],
      "translation": [
        -0.00021629333787132055,
        0.00041805265937000513,
        0.013137970119714737
      ]
    },
    {
      "children": [
        15,
        21
      ],
      "extras": {
        "FBX-glTF-conv": {
          "skeleton": {
            "skeletonType": "LimbNode"
          }
        }
      },
      "name": "Bip001 R Clavicle",
      "rotation": [
        -0.3732199966907501,
        0.31480643153190613,
        0.8472648859024048,
        0.20915533602237701
      ],
      "translation": [
        -0.013666229322552681,
        -0.2351759374141693,
        -0.09237374365329742
      ]
    },
    {
      "children": [
        16,
        20
      ],
      "extras": {
        "FBX-glTF-conv": {
          "skeleton": {
            "skeletonType": "LimbNode"
          }
        }
      },
      "name": "Bip001 R UpperArm",
      "rotation": [
        -0.006727212108671665,
        -0.4240635335445404,
        0.008863811381161213,
        0.9055640697479248
      ],
      "translation": [
        0.3080410063266754,
        7.105427198782324e-17,
        -1.5258788721439487e-07
      ]
    },
    {
      "children": [
        17,
        19
      ],
      "extras": {
        "FBX-glTF-conv": {
          "skeleton": {
            "skeletonType": "LimbNode"
          }
        }
      },
      "name": "Bip001 R Forearm",
      "rotation": [
        4.347172932145062e-17,
        -3.452096011424702e-17,
        -0.6218743324279785,
        0.7831170558929443
      ],
      "translation": [
        0.287097692489624,
        7.629394360719743e-08,
        0.0
      ]
    },
    {
      "children": [
        18
      ],
      "extras": {
        "FBX-glTF-conv": {
          "skeleton": {
            "skeletonType": "LimbNode"
          }
        }
      },
      "name": "Bip001 R Hand",
      "rotation": [
        0.9768171906471252,
        -0.06778814643621445,
        0.04383143410086632,
        0.19827188551425934
      ],
      "translation": [
        0.28709763288497925,
        -7.629394360719743e-08,
        -1.4210854397564648e-16
      ]
    },
    {
      "name": "mixamorig:RightHand",
      "rotation": [
        0.5141546726226807,
        0.3193710744380951,
        0.6536287665367126,
        -0.45433080196380615
      ],
      "scale": [
        2.5400009155273438,
        2.5399999618530273,
        2.5400021076202393
      ],
      "translation": [
        -0.006829795893281698,
        0.008728256449103355,
        -0.008531036786735058
      ]
    },
    {
      "name": "mixamorig:RightForeArm",
      "rotation": [
        0.07833968102931976,
        0.11276665329933167,
        -0.6849592924118042,
        0.7155259251594543
      ],
      "scale": [
        2.5399999618530273,
        2.5399999618530273,
        2.5400009155273438
      ],
      "translation": [
        -0.017352523282170296,
        -0.006063919048756361,
        0.018366089090704918
      ]
    },
    {
      "name": "mixamorig:RightArm",
      "rotation": [
        0.1095070168375969,
        0.0799793004989624,
        -0.7024778723716736,
        0.698667585849762
      ],
      "scale": [
        2.5399999618530273,
        2.539999008178711,
        2.5400009155273438
      ],
      "translation": [
        -0.043639909476041794,
        0.0006764221470803022,
        0.0056491089053452015
      ]
    },
    {
      "name": "mixamorig:RightShoulder",
      "rotation": [
        0.0779046043753624,
        0.04660668224096298,
        -0.7037020325660706,
        0.7046716213226318
      ],
      "scale": [
        2.539999008178711,
        2.5399999618530273,
        2.5399999618530273
      ],
      "translation": [
        -0.002597007667645812,
        -0.00025768281193450093,
        -0.012230072170495987
      ]
    },
    {
      "children": [
        23,
        25
      ],
      "extras": {
        "FBX-glTF-conv": {
          "skeleton": {
            "skeletonType": "LimbNode"
          }
        }
      },
      "name": "Bip001 Head",
      "rotation": [
        0.11681244522333145,
        0.06802847236394882,
        -0.3555715084075928,
        0.9248220920562744
      ],
      "translation": [
        0.16557221114635468,
        0.08173507452011108,
        1.776356799695581e-17
      ]
    },
    {
      "children": [
        24
      ],
      "name": "mixamorig:Head",
      "rotation": [
        -0.4999998211860657,
        -0.5000001788139343,
        -0.49999919533729553,
        0.5000008344650269
      ],
      "scale": [
        2.539999008178711,
        2.5399999618530273,
        2.539999008178711
      ],
      "translation": [
        0.18508803844451904,
        -0.053071994334459305,
        0.0012736511416733265
      ]
    },
    {
      "name": "mixamorig:HeadTop_End",
      "translation": [
        4.76837147544984e-09,
        0.013808594085276127,
        0.0208046343177557
      ]
    },
    {
      "name": "mixamorig:Neck",
      "rotation": [
        -0.49999988079071045,
        -0.5000001192092896,
        -0.4999992549419403,
        0.5000007748603821
      ],
      "scale": [
        2.539999008178711,
        2.5399999618530273,
        2.539999008178711
      ],
      "translation": [
        0.07222549617290497,
        -0.22311712801456451,
        0.0012735938653349876
      ]
    },
    {
      "name": "mixamorig:Spine2",
      "rotation": [
        0.5392642021179199,
        0.457377552986145,
        0.5392635464668274,
        -0.4573781192302704
      ],
      "scale": [
        2.5399999618530273,
        2.5399999618530273,
        2.539999008178711
      ],
      "translation": [
        0.21886184811592102,
        -0.09824702888727188,
        0.0012737989891320467
      ]
    },
    {
      "name": "mixamorig:Spine1",
      "rotation": [
        0.5392642021179199,
        0.457377552986145,
        0.5392634868621826,
        -0.4573781490325928
      ],
      "scale": [
        2.5399999618530273,
        2.5399999618530273,
        2.539999008178711
      ],
      "translation": [
        0.19562645256519318,
        -0.05998712405562401,
        0.0012740278616547585
      ]
    },
    {
      "children": [
        29,
        36
      ],
      "extras": {
        "FBX-glTF-conv": {
          "skeleton": {
            "skeletonType": "LimbNode"
          }
        }
      },
      "name": "Bip001 L Thigh",
      "rotation": [
        0.20541633665561676,
        0.9395093321800232,
        -0.19654548168182373,
        -0.1910397708415985
      ],
      "translation": [
        -0.022676238790154457,
        0.01480991393327713,
        0.2008776068687439
      ]
    },
    {
      "children": [
        30,
        35
      ],
      "extras": {
        "FBX-glTF-conv": {
          "skeleton": {
            "skeletonType": "LimbNode"
          }
        }
      },
      "name": "Bip001 L Calf",
      "rotation": [
        -3.2271985068890895e-17,
        -1.2736766599052685e-17,
        -0.2644161283969879,
        0.9644086956977844
      ],
      "translation": [
        0.47849610447883606,
        2.6645351995433716e-17,
        3.814697180359872e-08
      ]
    },
    {
      "children": [
        31,
        33,
        34
      ],
      "extras": {
        "FBX-glTF-conv": {
          "skeleton": {
            "skeletonType": "LimbNode"
          }
        }
      },
      "name": "Bip001 L Foot",
      "rotation": [
        0.0036641827318817377,
        -0.1841687113046646,
        0.19231022894382477,
        0.9638906717300415
      ],
      "translation": [
        0.3594862222671509,
        -2.8610228852699038e-08,
        -3.814697180359872e-08
      ]
    },
    {
      "children": [
        32
      ],
      "extras": {
        "FBX-glTF-conv": {
          "skeleton": {
            "skeletonType": "LimbNode"
          }
        }
      },
      "name": "Bip001 L Toe0",
      "rotation": [
        -0.016001496464014053,
        0.016219118610024452,
        0.7116402387619019,
        0.7021744847297668
      ],
      "translation": [
        0.11005411297082901,
        0.14720526337623596,
        3.814697180359872e-08
      ]
    },
    {
      "name": "mixamorig:LeftToe_End",
      "rotation": [
        0.5158940553665161,
        0.5000931024551392,
        0.5084511041641235,
        -0.4745921492576599
      ],
      "scale": [
        2.5400009155273438,
        2.5400009155273438,
        2.5399999618530273
      ],
      "translation": [
        0.0857096016407013,
        0.006687748245894909,
        -0.0030457305256277323
      ]
    },
    {
      "name": "mixamorig:LeftFoot",
      "rotation": [
        -0.17010539770126343,
        -0.6228621006011963,
        -0.22538746893405914,
        0.7295940518379211
      ],
      "scale": [
        2.5400009155273438,
        2.5400009155273438,
        2.5399999618530273
      ],
      "translation": [
        -0.0012794113717973232,
        -0.005283365026116371,
        -0.010648002848029137
      ]
    },
    {
      "name": "mixamorig:LeftToeBase",
      "rotation": [
        -0.011172602884471416,
        -0.7184112071990967,
        -0.02394142560660839,
        0.6951167583465576
      ],
      "scale": [
        2.5400009155273438,
        2.5400009155273438,
        2.5399999618530273
      ],
      "translation": [
        0.09932303428649902,
        0.15108008682727814,
        -0.004591750912368298
      ]
    },
    {
      "name": "mixamorig:LeftLeg",
      "rotation": [
        0.5103976726531982,
        0.4873581528663635,
        0.5040103793144226,
        -0.4979455769062042
      ],
      "scale": [
        2.5399999618530273,
        2.5399999618530273,
        2.5399999618530273
      ],
      "translation": [
        0.007181072141975164,
        0.002397832926362753,
        -0.0029585647862404585
      ]
    },
    {
      "name": "mixamorig:LeftUpLeg",
      "rotation": [
        -0.5098426938056946,
        -0.4869607090950012,
        -0.49407270550727844,
        0.5087454319000244
      ],
      "scale": [
        2.5400009155273438,
        2.5399999618530273,
        2.5399999618530273
      ],
      "translation": [
        0.09449256956577301,
        0.004893045406788588,
        0.011757202446460724
      ]
    },
    {
      "children": [
        38,
        45
      ],
      "extras": {
        "FBX-glTF-conv": {
          "skeleton": {
            "skeletonType": "LimbNode"
          }
        }
      },
      "name": "Bip001 R Thigh",
      "rotation": [
        0.18835902214050293,
        0.9594006538391113,
        -0.0016044958028942347,
        0.20992542803287506
      ],
      "translation": [
        -0.04372650012373924,
        0.012609061785042286,
        -0.1975192278623581
      ]
    },
    {
      "children": [
        39,
        44
      ],
      "extras": {
        "FBX-glTF-conv": {
          "skeleton": {
            "skeletonType": "LimbNode"
          }
        }
      },
      "name": "Bip001 R Calf",
      "rotation": [
        8.412383816272439e-17,
        -7.008617784919936e-18,
        -0.24572719633579254,
        0.9693390130996704
      ],
      "translation": [
        0.4784960150718689,
        9.53674295089968e-09,
        -7.629394360719743e-08
      ]
    },
    {
      "children": [
        40,
        42,
        43
      ],
      "extras": {
        "FBX-glTF-conv": {
          "skeleton": {
            "skeletonType": "LimbNode"
          }
        }
      },
      "name": "Bip001 R Foot",
      "rotation": [
        0.02353627048432827,
        0.22072483599185944,
        0.15006417036056519,
        0.963435173034668
      ],
      "translation": [
        0.3594861328601837,
        -1.668930060816365e-08,
        3.814697180359872e-08
      ]
    },
    {
      "children": [
        41
      ],
      "extras": {
        "FBX-glTF-conv": {
          "skeleton": {
            "skeletonType": "LimbNode"
          }
        }
      },
      "name": "Bip001 R Toe0",
      "rotation": [
        2.0940042588790675e-07,
        -5.04309809912229e-07,
        0.6954527497291565,
        0.7185718417167664
      ],
      "translation": [
        0.11005411297082901,
        0.14720526337623596,
        0.0
      ]
    },
    {
      "name": "mixamorig:RightToe_End",
      "rotation": [
        0.5079810619354248,
        0.4746187925338745,
        0.5164567232131958,
        -0.4999646842479706
      ],
      "scale": [
        2.5400009155273438,
        2.5400021076202393,
        2.5400021076202393
      ],
      "translation": [
        0.08575031161308289,
        0.0066905999556183815,
        0.0003944397030863911
      ]
    },
    {
      "name": "mixamorig:RightFoot",
      "rotation": [
        -0.2255728393793106,
        -0.7292258143424988,
        -0.17077237367630005,
        0.6230436563491821
      ],
      "scale": [
        2.5400009155273438,
        2.5400009155273438,
        2.5400009155273438
      ],
      "translation": [
        -0.0012762737460434437,
        -0.00445644510909915,
        0.007784232962876558
      ]
    },
    {
      "name": "mixamorig:RightToeBase",
      "rotation": [
        -0.023590216413140297,
        -0.6948030591011047,
        -0.011661115102469921,
        0.7187184691429138
      ],
      "scale": [
        2.5400009155273438,
        2.5400009155273438,
        2.5400021076202393
      ],
      "translation": [
        0.0993223562836647,
        0.15149778127670288,
        0.00183868408203125
      ]
    },
    {
      "name": "mixamorig:RightLeg",
      "rotation": [
        0.5026589035987854,
        0.4991583526134491,
        0.5092336535453796,
        -0.4887290596961975
      ],
      "scale": [
        2.5400009155273438,
        2.5400009155273438,
        2.5400009155273438
      ],
      "translation": [
        0.007027359213680029,
        0.0020842361263930798,
        0.0004178237868472934
      ]
    },
    {
      "name": "mixamorig:RightUpLeg",
      "rotation": [
        0.49297839403152466,
        0.5096501111984253,
        0.5089558959007263,
        -0.4880501627922058
      ],
      "scale": [
        2.5399999618530273,
        2.5400009155273438,
        2.5399999618530273
      ],
      "translation": [
        0.09441246092319489,
        0.0030406189616769552,
        -0.014297790825366974
      ]
    },
    {
      "name": "mixamorig:Spine",
      "rotation": [
        0.5392643213272095,
        0.4573774039745331,
        0.5392636060714722,
        -0.45737800002098083
      ],
      "scale": [
        2.5399999618530273,
        2.5399999618530273,
        2.5399999618530273
      ],
      "translation": [
        0.1398676335811615,
        -0.026514949277043343,
        0.0012742376420646906
      ]
    },
    {
      "name": "mixamorig:Hips",
      "rotation": [
        0.5000003576278687,
        0.49999964237213135,
        0.49999964237213135,
        0.5000003576278687
      ],
      "scale": [
        2.5399999618530273,
        2.5399999618530273,
        2.5399999618530273
      ],
      "translation": [
        0.0021143818739801645,
        0.001274271053262055,
        0.0015002441359683871
      ]
    }
  ],
  "scenes": [
    {
      "nodes": [
        0
      ]
    }
  ]
}