{
  "accessors": [
    {
      "bufferView": 0,
      "componentType": 5126,
      "count": 20,
      "name": "Bip001/translation/Output",
      "type": "VEC3"
    },
    {
      "bufferView": 1,
      "componentType": 5126,
      "count": 20,
      "max": [
        0.6666666865348816
      ],
      "min": [
        0.0
      ],
      "name": "Bip001/translation/Input",
      "type": "SCALAR"
    },
    {
      "bufferView": 2,
      "componentType": 5126,
      "count": 1,
      "name": "Bip001/rotation/Output",
      "type": "VEC4"
    },
    {
      "bufferView": 3,
      "componentType": 5126,
      "count": 1,
      "max": [
        0.6666666865348816
      ],
      "min": [
        0.6666666865348816
      ],
      "name": "Bip001/rotation/Input",
      "type": "SCALAR"
    },
    {
      "bufferView": 4,
      "componentType": 5126,
      "count": 1,
      "name": "Bip001/scale/Output",
      "type": "VEC3"
    },
    {
      "bufferView": 5,
      "componentType": 5126,
      "count": 1,
      "max": [
        0.6666666865348816
      ],
      "min": [
        0.6666666865348816
      ],
      "name": "Bip001/scale/Input",
      "type": "SCALAR"
    },
    {
      "bufferView": 6,
      "componentType": 5126,
      "count": 1,
      "name": "Bip001 Pelvis/translation/Output",
      "type": "VEC3"
    },
    {
      "bufferView": 7,
      "componentType": 5126,
      "count": 1,
      "max": [
        0.6666666865348816
      ],
      "min": [
        0.6666666865348816
      ],
      "name": "Bip001 Pelvis/translation/Input",
      "type": "SCALAR"
    },
    {
      "bufferView": 8,
      "componentType": 5126,
      "count": 20,
      "name": "Bip001 Pelvis/rotation/Output",
      "type": "VEC4"
    },
    {
      "bufferView": 9,
      "componentType": 5126,
      "count": 20,
      "max": [
        0.6666666865348816
      ],
      "min": [
        0.0
      ],
      "name": "Bip001 Pelvis/rotation/Input",
      "type": "SCALAR"
    },
    {
      "bufferView": 10,
      "componentType": 5126,
      "count": 1,
      "name": "Bip001 Pelvis/scale/Output",
      "type": "VEC3"
    },
    {
      "bufferView": 11,
      "componentType": 5126,
      "count": 1,
      "max": [
        0.6666666865348816
      ],
      "min": [
        0.6666666865348816
      ],
      "name": "Bip001 Pelvis/scale/Input",
      "type": "SCALAR"
    },
    {
      "bufferView": 12,
      "componentType": 5126,
      "count": 21,
      "name": "Bip001 Spine/translation/Output",
      "type": "VEC3"
    },
    {
      "bufferView": 13,
      "componentType": 5126,
      "count": 21,
      "max": [
        0.6666666865348816
      ],
      "min": [
        0.0
      ],
      "name": "Bip001 Spine/translation/Input",
      "type": "SCALAR"
    },
    {
      "bufferView": 14,
      "componentType": 5126,
      "count": 21,
      "name": "Bip001 Spine/rotation/Output",
      "type": "VEC4"
    },
    {
      "bufferView": 15,
      "componentType": 5126,
      "count": 21,
      "max": [
        0.6666666865348816
      ],
      "min": [
        0.0
      ],
      "name": "Bip001 Spine/rotation/Input",
      "type": "SCALAR"
    },
    {
      "bufferView": 16,
      "componentType": 5126,
      "count": 1,
      "name": "Bip001 Spine/scale/Output",
      "type": "VEC3"
    },
    {
      "bufferView": 17,
      "componentType": 5126,
      "count": 1,
      "max": [
        0.6666666865348816
      ],
      "min": [
        0.6666666865348816
      ],
      "name": "Bip001 Spine/scale/Input",
      "type": "SCALAR"
    },
    {
      "bufferView": 18,
      "componentType": 5126,
      "count": 21,
      "name": "Bip001 L Thigh/translation/Output",
      "type": "VEC3"
    },
    {
      "bufferView": 19,
      "componentType": 5126,
      "count": 21,
      "max": [
        0.6666666865348816
      ],
      "min": [
        0.0
      ],
      "name": "Bip001 L Thigh/translation/Input",
      "type": "SCALAR"
    },
    {
      "bufferView": 20,
      "componentType": 5126,
      "count": 21,
      "name": "Bip001 L Thigh/rotation/Output",
      "type": "VEC4"
    },
    {
      "bufferView": 21,
      "componentType": 5126,
      "count": 21,
      "max": [
        0.6666666865348816
      ],
      "min": [
        0.0
      ],
      "name": "Bip001 L Thigh/rotation/Input",
      "type": "SCALAR"
    },
    {
      "bufferView": 22,
      "componentType": 5126,
      "count": 1,
      "name": "Bip001 L Thigh/scale/Output",
      "type": "VEC3"
    },
    {
      "bufferView": 23,
      "componentType": 5126,
      "count": 1,
      "max": [
        0.6666666865348816
      ],
      "min": [
        0.6666666865348816
      ],
      "name": "Bip001 L Thigh/scale/Input",
      "type": "SCALAR"
    },
    {
      "bufferView": 24,
      "componentType": 5126,
      "count": 5,
      "name": "Bip001 L Calf/translation/Output",
      "type": "VEC3"
    },
    {
      "bufferView": 25,
      "componentType": 5126,
      "count": 5,
      "max": [
        0.4000000059604645
      ],
      "min": [
        0.1666666716337204
      ],
      "name": "Bip001 L Calf/translation/Input",
      "type": "SCALAR"
    },
    {
      "bufferView": 26,
      "componentType": 5126,
      "count": 21,
      "name": "Bip001 L Calf/rotation/Output",
      "type": "VEC4"
    },
    {
      "bufferView": 27,
      "componentType": 5126,
      "count": 21,
      "max": [
        0.6666666865348816
      ],
      "min": [
        0.0
      ],
      "name": "Bip001 L Calf/rotation/Input",
      "type": "SCALAR"
    },
    {
      "bufferView": 28,
      "componentType": 5126,
      "count": 1,
      "name": "Bip001 L Calf/scale/Output",
      "type": "VEC3"
    },
    {
      "bufferView": 29,
      "componentType": 5126,
      "count": 1,
      "max": [
        0.6666666865348816
      ],
      "min": [
        0.6666666865348816
      ],
      "name": "Bip001 L Calf/scale/Input",
      "type": "SCALAR"
    },
    {
      "bufferView": 30,
      "componentType": 5126,
      "count": 7,
      "name": "Bip001 L Foot/translation/Output",
      "type": "VEC3"
    },
    {
      "bufferView": 31,
      "componentType": 5126,
      "count": 7,
      "max": [
        0.4333333373069763
      ],
      "min": [
        0.0
      ],
      "name": "Bip001 L Foot/translation/Input",
      "type": "SCALAR"
    },
    {
      "bufferView": 32,
      "componentType": 5126,
      "count": 21,
      "name": "Bip001 L Foot/rotation/Output",
      "type": "VEC4"
    },
    {
      "bufferView": 33,
      "componentType": 5126,
      "count": 21,
      "max": [
        0.6666666865348816
      ],
      "min": [
        0.0
      ],
      "name": "Bip001 L Foot/rotation/Input",
      "type": "SCALAR"
    },
    {
      "bufferView": 34,
      "componentType": 5126,
      "count": 1,
      "name": "Bip001 L Foot/scale/Output",
      "type": "VEC3"
    },
    {
      "bufferView": 35,
      "componentType": 5126,
      "count": 1,
      "max": [
        0.6666666865348816
      ],
      "min": [
        0.6666666865348816
      ],
      "name": "Bip001 L Foot/scale/Input",
      "type": "SCALAR"
    },
    {
      "bufferView": 36,
      "componentType": 5126,
      "count": 4,
      "name": "Bip001 L Toe0/translation/Output",
      "type": "VEC3"
    },
    {
      "bufferView": 37,
      "componentType": 5126,
      "count": 4,
      "max": [
        0.6666666865348816
      ],
      "min": [
        0.06666667014360428
      ],
      "name": "Bip001 L Toe0/translation/Input",
      "type": "SCALAR"
    },
    {
      "bufferView": 38,
      "componentType": 5126,
      "count": 15,
      "name": "Bip001 L Toe0/rotation/Output",
      "type": "VEC4"
    },
    {
      "bufferView": 39,
      "componentType": 5126,
      "count": 15,
      "max": [
        0.6333333253860474
      ],
      "min": [
        0.0
      ],
      "name": "Bip001 L Toe0/rotation/Input",
      "type": "SCALAR"
    },
    {
      "bufferView": 40,
      "componentType": 5126,
      "count": 1,
      "name": "Bip001 L Toe0/scale/Output",
      "type": "VEC3"
    },
    {
      "bufferView": 41,
      "componentType": 5126,
      "count": 1,
      "max": [
        0.6666666865348816
      ],
      "min": [
        0.6666666865348816
      ],
      "name": "Bip001 L Toe0/scale/Input",
      "type": "SCALAR"
    },
    {
      "bufferView": 42,
      "componentType": 5126,
      "count": 21,
      "name": "Bip001 R Thigh/translation/Output",
      "type": "VEC3"
    },
    {
      "bufferView": 43,
      "componentType": 5126,
      "count": 21,
      "max": [
        0.6666666865348816
      ],
      "min": [
        0.0
      ],
      "name": "Bip001 R Thigh/translation/Input",
      "type": "SCALAR"
    },
    {
      "bufferView": 44,
      "componentType": 5126,
      "count": 21,
      "name": "Bip001 R Thigh/rotation/Output",
      "type": "VEC4"
    },
    {
      "bufferView": 45,
      "componentType": 5126,
      "count": 21,
      "max": [
        0.6666666865348816
      ],
      "min": [
        0.0
      ],
      "name": "Bip001 R Thigh/rotation/Input",
      "type": "SCALAR"
    },
    {
      "bufferView": 46,
      "componentType": 5126,
      "count": 1,
      "name": "Bip001 R Thigh/scale/Output",
      "type": "VEC3"
    },
    {
      "bufferView": 47,
      "componentType": 5126,
      "count": 1,
      "max": [
        0.6666666865348816
      ],
      "min": [
        0.6666666865348816
      ],
      "name": "Bip001 R Thigh/scale/Input",
      "type": "SCALAR"
    },
    {
      "bufferView": 48,
      "componentType": 5126,
      "count": 8,
      "name": "Bip001 R Calf/translation/Output",
      "type": "VEC3"
    },
    {
      "bufferView": 49,
      "componentType": 5126,
      "count": 8,
      "max": [
        0.6666666865348816
      ],
      "min": [
        0.03333333507180214
      ],
      "name": "Bip001 R Calf/translation/Input",
      "type": "SCALAR"
    },
    {
      "bufferView": 50,
      "componentType": 5126,
      "count": 21,
      "name": "Bip001 R Calf/rotation/Output",
      "type": "VEC4"
    },
    {
      "bufferView": 51,
      "componentType": 5126,
      "count": 21,
      "max": [
        0.6666666865348816
      ],
      "min": [
        0.0
      ],
      "name": "Bip001 R Calf/rotation/Input",
      "type": "SCALAR"
    },
    {
      "bufferView": 52,
      "componentType": 5126,
      "count": 1,
      "name": "Bip001 R Calf/scale/Output",
      "type": "VEC3"
    },
    {
      "bufferView": 53,
      "componentType": 5126,
      "count": 1,
      "max": [
        0.6666666865348816
      ],
      "min": [
        0.6666666865348816
      ],
      "name": "Bip001 R Calf/scale/Input",
      "type": "SCALAR"
    },
    {
      "bufferView": 54,
      "componentType": 5126,
      "count": 8,
      "name": "Bip001 R Foot/translation/Output",
      "type": "VEC3"
    },
    {
      "bufferView": 55,
      "componentType": 5126,
      "count": 8,
      "max": [
        0.5
      ],
      "min": [
        0.03333333507180214
      ],
      "name": "Bip001 R Foot/translation/Input",
      "type": "SCALAR"
    },
    {
      "bufferView": 56,
      "componentType": 5126,
      "count": 21,
      "name": "Bip001 R Foot/rotation/Output",
      "type": "VEC4"
    },
    {
      "bufferView": 57,
      "componentType": 5126,
      "count": 21,
      "max": [
        0.6666666865348816
      ],
      "min": [
        0.0
      ],
      "name": "Bip001 R Foot/rotation/Input",
      "type": "SCALAR"
    },
    {
      "bufferView": 58,
      "componentType": 5126,
      "count": 1,
      "name": "Bip001 R Foot/scale/Output",
      "type": "VEC3"
    },
    {
      "bufferView": 59,
      "componentType": 5126,
      "count": 1,
      "max": [
        0.6666666865348816
      ],
      "min": [
        0.6666666865348816
      ],
      "name": "Bip001 R Foot/scale/Input",
      "type": "SCALAR"
    },
    {
      "bufferView": 60,
      "componentType": 5126,
      "count": 1,
      "name": "Bip001 R Toe0/translation/Output",
      "type": "VEC3"
    },
    {
      "bufferView": 61,
      "componentType": 5126,
      "count": 1,
      "max": [
        0.6666666865348816
      ],
      "min": [
        0.6666666865348816
      ],
      "name": "Bip001 R Toe0/translation/Input",
      "type": "SCALAR"
    },
    {
      "bufferView": 62,
      "componentType": 5126,
      "count": 15,
      "name": "Bip001 R Toe0/rotation/Output",
      "type": "VEC4"
    },
    {
      "bufferView": 63,
      "componentType": 5126,
      "count": 15,
      "max": [
        0.6666666865348816
      ],
      "min": [
        0.0
      ],
      "name": "Bip001 R Toe0/rotation/Input",
      "type": "SCALAR"
    },
    {
      "bufferView": 64,
      "componentType": 5126,
      "count": 1,
      "name": "Bip001 R Toe0/scale/Output",
      "type": "VEC3"
    },
    {
      "bufferView": 65,
      "componentType": 5126,
      "count": 1,
      "max": [
        0.6666666865348816
      ],
      "min": [
        0.6666666865348816
      ],
      "name": "Bip001 R Toe0/scale/Input",
      "type": "SCALAR"
    },
    {
      "bufferView": 66,
      "componentType": 5126,
      "count": 21,
      "name": "Bip001 Spine1/translation/Output",
      "type": "VEC3"
    },
    {
      "bufferView": 67,
      "componentType": 5126,
      "count": 21,
      "max": [
        0.6666666865348816
      ],
      "min": [
        0.0
      ],
      "name": "Bip001 Spine1/translation/Input",
      "type": "SCALAR"
    },
    {
      "bufferView": 68,
      "componentType": 5126,
      "count": 21,
      "name": "Bip001 Spine1/rotation/Output",
      "type": "VEC4"
    },
    {
      "bufferView": 69,
      "componentType": 5126,
      "count": 21,
      "max": [
        0.6666666865348816
      ],
      "min": [
        0.0
      ],
      "name": "Bip001 Spine1/rotation/Input",
      "type": "SCALAR"
    },
    {
      "bufferView": 70,
      "componentType": 5126,
      "count": 1,
      "name": "Bip001 Spine1/scale/Output",
      "type": "VEC3"
    },
    {
      "bufferView": 71,
      "componentType": 5126,
      "count": 1,
      "max": [
        0.6666666865348816
      ],
      "min": [
        0.6666666865348816
      ],
      "name": "Bip001 Spine1/scale/Input",
      "type": "SCALAR"
    },
    {
      "bufferView": 72,
      "componentType": 5126,
      "count": 21,
      "name": "Bip001 Neck/translation/Output",
      "type": "VEC3"
    },
    {
      "bufferView": 73,
      "componentType": 5126,
      "count": 21,
      "max": [
        0.6666666865348816
      ],
      "min": [
        0.0
      ],
      "name": "Bip001 Neck/translation/Input",
      "type": "SCALAR"
    },
    {
      "bufferView": 74,
      "componentType": 5126,
      "count": 21,
      "name": "Bip001 Neck/rotation/Output",
      "type": "VEC4"
    },
    {
      "bufferView": 75,
      "componentType": 5126,
      "count": 21,
      "max": [
        0.6666666865348816
      ],
      "min": [
        0.0
      ],
      "name": "Bip001 Neck/rotation/Input",
      "type": "SCALAR"
    },
    {
      "bufferView": 76,
      "componentType": 5126,
      "count": 1,
      "name": "Bip001 Neck/scale/Output",
      "type": "VEC3"
    },
    {
      "bufferView": 77,
      "componentType": 5126,
      "count": 1,
      "max": [
        0.6666666865348816
      ],
      "min": [
        0.6666666865348816
      ],
      "name": "Bip001 Neck/scale/Input",
      "type": "SCALAR"
    },
    {
      "bufferView": 78,
      "componentType": 5126,
      "count": 21,
      "name": "Bip001 L Clavicle/translation/Output",
      "type": "VEC3"
    },
    {
      "bufferView": 79,
      "componentType": 5126,
      "count": 21,
      "max": [
        0.6666666865348816
      ],
      "min": [
        0.0
      ],
      "name": "Bip001 L Clavicle/translation/Input",
      "type": "SCALAR"
    },
    {
      "bufferView": 80,
      "componentType": 5126,
      "count": 21,
      "name": "Bip001 L Clavicle/rotation/Output",
      "type": "VEC4"
    },
    {
      "bufferView": 81,
      "componentType": 5126,
      "count": 21,
      "max": [
        0.6666666865348816
      ],
      "min": [
        0.0
      ],
      "name": "Bip001 L Clavicle/rotation/Input",
      "type": "SCALAR"
    },
    {
      "bufferView": 82,
      "componentType": 5126,
      "count": 1,
      "name": "Bip001 L Clavicle/scale/Output",
      "type": "VEC3"
    },
    {
      "bufferView": 83,
      "componentType": 5126,
      "count": 1,
      "max": [
        0.6666666865348816
      ],
      "min": [
        0.6666666865348816
      ],
      "name": "Bip001 L Clavicle/scale/Input",
      "type": "SCALAR"
    },
    {
      "bufferView": 84,
      "componentType": 5126,
      "count": 9,
      "name": "Bip001 L UpperArm/translation/Output",
      "type": "VEC3"
    },
    {
      "bufferView": 85,
      "componentType": 5126,
      "count": 9,
      "max": [
        0.5666666626930237
      ],
      "min": [
        0.06666667014360428
      ],
      "name": "Bip001 L UpperArm/translation/Input",
      "type": "SCALAR"
    },
    {
      "bufferView": 86,
      "componentType": 5126,
      "count": 21,
      "name": "Bip001 L UpperArm/rotation/Output",
      "type": "VEC4"
    },
    {
      "bufferView": 87,
      "componentType": 5126,
      "count": 21,
      "max": [
        0.6666666865348816
      ],
      "min": [
        0.0
      ],
      "name": "Bip001 L UpperArm/rotation/Input",
      "type": "SCALAR"
    },
    {
      "bufferView": 88,
      "componentType": 5126,
      "count": 1,
      "name": "Bip001 L UpperArm/scale/Output",
      "type": "VEC3"
    },
    {
      "bufferView": 89,
      "componentType": 5126,
      "count": 1,
      "max": [
        0.6666666865348816
      ],
      "min": [
        0.6666666865348816
      ],
      "name": "Bip001 L UpperArm/scale/Input",
      "type": "SCALAR"
    },
    {
      "bufferView": 90,
      "componentType": 5126,
      "count": 5,
      "name": "Bip001 L Forearm/translation/Output",
      "type": "VEC3"
    },
    {
      "bufferView": 91,
      "componentType": 5126,
      "count": 5,
      "max": [
        0.6333333253860474
      ],
      "min": [
        0.4333333373069763
      ],
      "name": "Bip001 L Forearm/translation/Input",
      "type": "SCALAR"
    },
    {
      "bufferView": 92,
      "componentType": 5126,
      "count": 21,
      "name": "Bip001 L Forearm/rotation/Output",
      "type": "VEC4"
    },
    {
      "bufferView": 93,
      "componentType": 5126,
      "count": 21,
      "max": [
        0.6666666865348816
      ],
      "min": [
        0.0
      ],
      "name": "Bip001 L Forearm/rotation/Input",
      "type": "SCALAR"
    },
    {
      "bufferView": 94,
      "componentType": 5126,
      "count": 1,
      "name": "Bip001 L Forearm/scale/Output",
      "type": "VEC3"
    },
    {
      "bufferView": 95,
      "componentType": 5126,
      "count": 1,
      "max": [
        0.6666666865348816
      ],
      "min": [
        0.6666666865348816
      ],
      "name": "Bip001 L Forearm/scale/Input",
      "type": "SCALAR"
    },
    {
      "bufferView": 96,
      "componentType": 5126,
      "count": 6,
      "name": "Bip001 L Hand/translation/Output",
      "type": "VEC3"
    },
    {
      "bufferView": 97,
      "componentType": 5126,
      "count": 6,
      "max": [
        0.6000000238418579
      ],
      "min": [
        0.3333333432674408
      ],
      "name": "Bip001 L Hand/translation/Input",
      "type": "SCALAR"
    },
    {
      "bufferView": 98,
      "componentType": 5126,
      "count": 21,
      "name": "Bip001 L Hand/rotation/Output",
      "type": "VEC4"
    },
    {
      "bufferView": 99,
      "componentType": 5126,
      "count": 21,
      "max": [
        0.6666666865348816
      ],
      "min": [
        0.0
      ],
      "name": "Bip001 L Hand/rotation/Input",
      "type": "SCALAR"
    },
    {
      "bufferView": 100,
      "componentType": 5126,
      "count": 1,
      "name": "Bip001 L Hand/scale/Output",
      "type": "VEC3"
    },
    {
      "bufferView": 101,
      "componentType": 5126,
      "count": 1,
      "max": [
        0.6666666865348816
      ],
      "min": [
        0.6666666865348816
      ],
      "name": "Bip001 L Hand/scale/Input",
      "type": "SCALAR"
    },
    {
      "bufferView": 102,
      "componentType": 5126,
      "count": 21,
      "name": "Bip001 R Clavicle/translation/Output",
      "type": "VEC3"
    },
    {
      "bufferView": 103,
      "componentType": 5126,
      "count": 21,
      "max": [
        0.6666666865348816
      ],
      "min": [
        0.0
      ],
      "name": "Bip001 R Clavicle/translation/Input",
      "type": "SCALAR"
    },
    {
      "bufferView": 104,
      "componentType": 5126,
      "count": 21,
      "name": "Bip001 R Clavicle/rotation/Output",
      "type": "VEC4"
    },
    {
      "bufferView": 105,
      "componentType": 5126,
      "count": 21,
      "max": [
        0.6666666865348816
      ],
      "min": [
        0.0
      ],
      "name": "Bip001 R Clavicle/rotation/Input",
      "type": "SCALAR"
    },
    {
      "bufferView": 106,
      "componentType": 5126,
      "count": 1,
      "name": "Bip001 R Clavicle/scale/Output",
      "type": "VEC3"
    },
    {
      "bufferView": 107,
      "componentType": 5126,
      "count": 1,
      "max": [
        0.6666666865348816
      ],
      "min": [
        0.6666666865348816
      ],
      "name": "Bip001 R Clavicle/scale/Input",
      "type": "SCALAR"
    },
    {
      "bufferView": 108,
      "componentType": 5126,
      "count": 8,
      "name": "Bip001 R UpperArm/translation/Output",
      "type": "VEC3"
    },
    {
      "bufferView": 109,
      "componentType": 5126,
      "count": 8,
      "max": [
        0.6666666865348816
      ],
      "min": [
        0.06666667014360428
      ],
      "name": "Bip001 R UpperArm/translation/Input",
      "type": "SCALAR"
    },
    {
      "bufferView": 110,
      "componentType": 5126,
      "count": 21,
      "name": "Bip001 R UpperArm/rotation/Output",
      "type": "VEC4"
    },
    {
      "bufferView": 111,
      "componentType": 5126,
      "count": 21,
      "max": [
        0.6666666865348816
      ],
      "min": [
        0.0
      ],
      "name": "Bip001 R UpperArm/rotation/Input",
      "type": "SCALAR"
    },
    {
      "bufferView": 112,
      "componentType": 5126,
      "count": 1,
      "name": "Bip001 R UpperArm/scale/Output",
      "type": "VEC3"
    },
    {
      "bufferView": 113,
      "componentType": 5126,
      "count": 1,
      "max": [
        0.6666666865348816
      ],
      "min": [
        0.6666666865348816
      ],
      "name": "Bip001 R UpperArm/scale/Input",
      "type": "SCALAR"
    },
    {
      "bufferView": 114,
      "componentType": 5126,
      "count": 10,
      "name": "Bip001 R Forearm/translation/Output",
      "type": "VEC3"
    },
    {
      "bufferView": 115,
      "componentType": 5126,
      "count": 10,
      "max": [
        0.6666666865348816
      ],
      "min": [
        0.13333334028720856
      ],
      "name": "Bip001 R Forearm/translation/Input",
      "type": "SCALAR"
    },
    {
      "bufferView": 116,
      "componentType": 5126,
      "count": 21,
      "name": "Bip001 R Forearm/rotation/Output",
      "type": "VEC4"
    },
    {
      "bufferView": 117,
      "componentType": 5126,
      "count": 21,
      "max": [
        0.6666666865348816
      ],
      "min": [
        0.0
      ],
      "name": "Bip001 R Forearm/rotation/Input",
      "type": "SCALAR"
    },
    {
      "bufferView": 118,
      "componentType": 5126,
      "count": 1,
      "name": "Bip001 R Forearm/scale/Output",
      "type": "VEC3"
    },
    {
      "bufferView": 119,
      "componentType": 5126,
      "count": 1,
      "max": [
        0.6666666865348816
      ],
      "min": [
        0.6666666865348816
      ],
      "name": "Bip001 R Forearm/scale/Input",
      "type": "SCALAR"
    },
    {
      "bufferView": 120,
      "componentType": 5126,
      "count": 13,
      "name": "Bip001 R Hand/translation/Output",
      "type": "VEC3"
    },
    {
      "bufferView": 121,
      "componentType": 5126,
      "count": 13,
      "max": [
        0.6666666865348816
      ],
      "min": [
        0.0
      ],
      "name": "Bip001 R Hand/translation/Input",
      "type": "SCALAR"
    },
    {
      "bufferView": 122,
      "componentType": 5126,
      "count": 21,
      "name": "Bip001 R Hand/rotation/Output",
      "type": "VEC4"
    },
    {
      "bufferView": 123,
      "componentType": 5126,
      "count": 21,
      "max": [
        0.6666666865348816
      ],
      "min": [
        0.0
      ],
      "name": "Bip001 R Hand/rotation/Input",
      "type": "SCALAR"
    },
    {
      "bufferView": 124,
      "componentType": 5126,
      "count": 1,
      "name": "Bip001 R Hand/scale/Output",
      "type": "VEC3"
    },
    {
      "bufferView": 125,
      "componentType": 5126,
      "count": 1,
      "max": [
        0.6666666865348816
      ],
      "min": [
        0.6666666865348816
      ],
      "name": "Bip001 R Hand/scale/Input",
      "type": "SCALAR"
    },
    {
      "bufferView": 126,
      "componentType": 5126,
      "count": 12,
      "name": "Bip001 Head/translation/Output",
      "type": "VEC3"
    },
    {
      "bufferView": 127,
      "componentType": 5126,
      "count": 12,
      "max": [
        0.6666666865348816
      ],
      "min": [
        0.03333333507180214
      ],
      "name": "Bip001 Head/translation/Input",
      "type": "SCALAR"
    },
    {
      "bufferView": 128,
      "componentType": 5126,
      "count": 21,
      "name": "Bip001 Head/rotation/Output",
      "type": "VEC4"
    },
    {
      "bufferView": 129,
      "componentType": 5126,
      "count": 21,
      "max": [
        0.6666666865348816
      ],
      "min": [
        0.0
      ],
      "name": "Bip001 Head/rotation/Input",
      "type": "SCALAR"
    },
    {
      "bufferView": 130,
      "componentType": 5126,
      "count": 1,
      "name": "Bip001 Head/scale/Output",
      "type": "VEC3"
    },
    {
      "bufferView": 131,
      "componentType": 5126,
      "count": 1,
      "max": [
        0.6666666865348816
      ],
      "min": [
        0.6666666865348816
      ],
      "name": "Bip001 Head/scale/Input",
      "type": "SCALAR"
    },
    {
      "bufferView": 132,
      "componentType": 5126,
      "count": 21,
      "name": "Bip001 Prop1/translation/Output",
      "type": "VEC3"
    },
    {
      "bufferView": 133,
      "componentType": 5126,
      "count": 21,
      "max": [
        0.6666666865348816
      ],
      "min": [
        0.0
      ],
      "name": "Bip001 Prop1/translation/Input",
      "type": "SCALAR"
    },
    {
      "bufferView": 134,
      "componentType": 5126,
      "count": 21,
      "name": "Bip001 Prop1/rotation/Output",
      "type": "VEC4"
    },
    {
      "bufferView": 135,
      "componentType": 5126,
      "count": 21,
      "max": [
        0.6666666865348816
      ],
      "min": [
        0.0
      ],
      "name": "Bip001 Prop1/rotation/Input",
      "type": "SCALAR"
    },
    {
      "bufferView": 136,
      "componentType": 5126,
      "count": 1,
      "name": "Bip001 Prop1/scale/Output",
      "type": "VEC3"
    },
    {
      "bufferView": 137,
      "componentType": 5126,
      "count": 1,
      "max": [
        0.6666666865348816
      ],
      "min": [
        0.6666666865348816
      ],
      "name": "Bip001 Prop1/scale/Input",
      "type": "SCALAR"
    }
  ],
  "animations": [
    {
      "channels": [
        {
          "sampler": 0,
          "target": {
            "node": 0,
            "path": "translation"
          }
        },
        {
          "sampler": 1,
          "target": {
            "node": 0,
            "path": "rotation"
          }
        },
        {
          "sampler": 2,
          "target": {
            "node": 0,
            "path": "scale"
          }
        },
        {
          "sampler": 3,
          "target": {
            "node": 1,
            "path": "translation"
          }
        },
        {
          "sampler": 4,
          "target": {
            "node": 1,
            "path": "rotation"
          }
        },
        {
          "sampler": 5,
          "target": {
            "node": 1,
            "path": "scale"
          }
        },
        {
          "sampler": 6,
          "target": {
            "node": 2,
            "path": "translation"
          }
        },
        {
          "sampler": 7,
          "target": {
            "node": 2,
            "path": "rotation"
          }
        },
        {
          "sampler": 8,
          "target": {
            "node": 2,
            "path": "scale"
          }
        },
        {
          "sampler": 9,
          "target": {
            "node": 3,
            "path": "translation"
          }
        },
        {
          "sampler": 10,
          "target": {
            "node": 3,
            "path": "rotation"
          }
        },
        {
          "sampler": 11,
          "target": {
            "node": 3,
            "path": "scale"
          }
        },
        {
          "sampler": 12,
          "target": {
            "node": 4,
            "path": "translation"
          }
        },
        {
          "sampler": 13,
          "target": {
            "node": 4,
            "path": "rotation"
          }
        },
        {
          "sampler": 14,
          "target": {
            "node": 4,
            "path": "scale"
          }
        },
        {
          "sampler": 15,
          "target": {
            "node": 5,
            "path": "translation"
          }
        },
        {
          "sampler": 16,
          "target": {
            "node": 5,
            "path": "rotation"
          }
        },
        {
          "sampler": 17,
          "target": {
            "node": 5,
            "path": "scale"
          }
        },
        {
          "sampler": 18,
          "target": {
            "node": 6,
            "path": "translation"
          }
        },
        {
          "sampler": 19,
          "target": {
            "node": 6,
            "path": "rotation"
          }
        },
        {
          "sampler": 20,
          "target": {
            "node": 6,
            "path": "scale"
          }
        },
        {
          "sampler": 21,
          "target": {
            "node": 7,
            "path": "translation"
          }
        },
        {
          "sampler": 22,
          "target": {
            "node": 7,
            "path": "rotation"
          }
        },
        {
          "sampler": 23,
          "target": {
            "node": 7,
            "path": "scale"
          }
        },
        {
          "sampler": 24,
          "target": {
            "node": 8,
            "path": "translation"
          }
        },
        {
          "sampler": 25,
          "target": {
            "node": 8,
            "path": "rotation"
          }
        },
        {
          "sampler": 26,
          "target": {
            "node": 8,
            "path": "scale"
          }
        },
        {
          "sampler": 27,
          "target": {
            "node": 9,
            "path": "translation"
          }
        },
        {
          "sampler": 28,
          "target": {
            "node": 9,
            "path": "rotation"
          }
        },
        {
          "sampler": 29,
          "target": {
            "node": 9,
            "path": "scale"
          }
        },
        {
          "sampler": 30,
          "target": {
            "node": 10,
            "path": "translation"
          }
        },
        {
          "sampler": 31,
          "target": {
            "node": 10,
            "path": "rotation"
          }
        },
        {
          "sampler": 32,
          "target": {
            "node": 10,
            "path": "scale"
          }
        },
        {
          "sampler": 33,
          "target": {
            "node": 11,
            "path": "translation"
          }
        },
        {
          "sampler": 34,
          "target": {
            "node": 11,
            "path": "rotation"
          }
        },
        {
          "sampler": 35,
          "target": {
            "node": 11,
            "path": "scale"
          }
        },
        {
          "sampler": 36,
          "target": {
            "node": 12,
            "path": "translation"
          }
        },
        {
          "sampler": 37,
          "target": {
            "node": 12,
            "path": "rotation"
          }
        },
        {
          "sampler": 38,
          "target": {
            "node": 12,
            "path": "scale"
          }
        },
        {
          "sampler": 39,
          "target": {
            "node": 13,
            "path": "translation"
          }
        },
        {
          "sampler": 40,
          "target": {
            "node": 13,
            "path": "rotation"
          }
        },
        {
          "sampler": 41,
          "target": {
            "node": 13,
            "path": "scale"
          }
        },
        {
          "sampler": 42,
          "target": {
            "node": 14,
            "path": "translation"
          }
        },
        {
          "sampler": 43,
          "target": {
            "node": 14,
            "path": "rotation"
          }
        },
        {
          "sampler": 44,
          "target": {
            "node": 14,
            "path": "scale"
          }
        },
        {
          "sampler": 45,
          "target": {
            "node": 15,
            "path": "translation"
          }
        },
        {
          "sampler": 46,
          "target": {
            "node": 15,
            "path": "rotation"
          }
        },
        {
          "sampler": 47,
          "target": {
            "node": 15,
            "path": "scale"
          }
        },
        {
          "sampler": 48,
          "target": {
            "node": 16,
            "path": "translation"
          }
        },
        {
          "sampler": 49,
          "target": {
            "node": 16,
            "path": "rotation"
          }
        },
        {
          "sampler": 50,
          "target": {
            "node": 16,
            "path": "scale"
          }
        },
        {
          "sampler": 51,
          "target": {
            "node": 17,
            "path": "translation"
          }
        },
        {
          "sampler": 52,
          "target": {
            "node": 17,
            "path": "rotation"
          }
        },
        {
          "sampler": 53,
          "target": {
            "node": 17,
            "path": "scale"
          }
        },
        {
          "sampler": 54,
          "target": {
            "node": 18,
            "path": "translation"
          }
        },
        {
          "sampler": 55,
          "target": {
            "node": 18,
            "path": "rotation"
          }
        },
        {
          "sampler": 56,
          "target": {
            "node": 18,
            "path": "scale"
          }
        },
        {
          "sampler": 57,
          "target": {
            "node": 19,
            "path": "translation"
          }
        },
        {
          "sampler": 58,
          "target": {
            "node": 19,
            "path": "rotation"
          }
        },
        {
          "sampler": 59,
          "target": {
            "node": 19,
            "path": "scale"
          }
        },
        {
          "sampler": 60,
          "target": {
            "node": 20,
            "path": "translation"
          }
        },
        {
          "sampler": 61,
          "target": {
            "node": 20,
            "path": "rotation"
          }
        },
        {
          "sampler": 62,
          "target": {
            "node": 20,
            "path": "scale"
          }
        },
        {
          "sampler": 63,
          "target": {
            "node": 21,
            "path": "translation"
          }
        },
        {
          "sampler": 64,
          "target": {
            "node": 21,
            "path": "rotation"
          }
        },
        {
          "sampler": 65,
          "target": {
            "node": 21,
            "path": "scale"
          }
        },
        {
          "sampler": 66,
          "target": {
            "node": 22,
            "path": "translation"
          }
        },
        {
          "sampler": 67,
          "target": {
            "node": 22,
            "path": "rotation"
          }
        },
        {
          "sampler": 68,
          "target": {
            "node": 22,
            "path": "scale"
          }
        }
      ],
      "name": "Take 001",
      "samplers": [
        {
          "input": 1,
          "output": 0
        },
        {
          "input": 3,
          "output": 2
        },
        {
          "input": 5,
          "output": 4
        },
        {
          "input": 7,
          "output": 6
        },
        {
          "input": 9,
          "output": 8
        },
        {
          "input": 11,
          "output": 10
        },
        {
          "input": 13,
          "output": 12
        },
        {
          "input": 15,
          "output": 14
        },
        {
          "input": 17,
          "output": 16
        },
        {
          "input": 19,
          "output": 18
        },
        {
          "input": 21,
          "output": 20
        },
        {
          "input": 23,
          "output": 22
        },
        {
          "input": 25,
          "output": 24
        },
        {
          "input": 27,
          "output": 26
        },
        {
          "input": 29,
          "output": 28
        },
        {
          "input": 31,
          "output": 30
        },
        {
          "input": 33,
          "output": 32
        },
        {
          "input": 35,
          "output": 34
        },
        {
          "input": 37,
          "output": 36
        },
        {
          "input": 39,
          "output": 38
        },
        {
          "input": 41,
          "output": 40
        },
        {
          "input": 43,
          "output": 42
        },
        {
          "input": 45,
          "output": 44
        },
        {
          "input": 47,
          "output": 46
        },
        {
          "input": 49,
          "output": 48
        },
        {
          "input": 51,
          "output": 50
        },
        {
          "input": 53,
          "output": 52
        },
        {
          "input": 55,
          "output": 54
        },
        {
          "input": 57,
          "output": 56
        },
        {
          "input": 59,
          "output": 58
        },
        {
          "input": 61,
          "output": 60
        },
        {
          "input": 63,
          "output": 62
        },
        {
          "input": 65,
          "output": 64
        },
        {
          "input": 67,
          "output": 66
        },
        {
          "input": 69,
          "output": 68
        },
        {
          "input": 71,
          "output": 70
        },
        {
          "input": 73,
          "output": 72
        },
        {
          "input": 75,
          "output": 74
        },
        {
          "input": 77,
          "output": 76
        },
        {
          "input": 79,
          "output": 78
        },
        {
          "input": 81,
          "output": 80
        },
        {
          "input": 83,
          "output": 82
        },
        {
          "input": 85,
          "output": 84
        },
        {
          "input": 87,
          "output": 86
        },
        {
          "input": 89,
          "output": 88
        },
        {
          "input": 91,
          "output": 90
        },
        {
          "input": 93,
          "output": 92
        },
        {
          "input": 95,
          "output": 94
        },
        {
          "input": 97,
          "output": 96
        },
        {
          "input": 99,
          "output": 98
        },
        {
          "input": 101,
          "output": 100
        },
        {
          "input": 103,
          "output": 102
        },
        {
          "input": 105,
          "output": 104
        },
        {
          "input": 107,
          "output": 106
        },
        {
          "input": 109,
          "output": 108
        },
        {
          "input": 111,
          "output": 110
        },
        {
          "input": 113,
          "output": 112
        },
        {
          "input": 115,
          "output": 114
        },
        {
          "input": 117,
          "output": 116
        },
        {
          "input": 119,
          "output": 118
        },
        {
          "input": 121,
          "output": 120
        },
        {
          "input": 123,
          "output": 122
        },
        {
          "input": 125,
          "output": 124
        },
        {
          "input": 127,
          "output": 126
        },
        {
          "input": 129,
          "output": 128
        },
        {
          "input": 131,
          "output": 130
        },
        {
          "input": 133,
          "output": 132
        },
        {
          "input": 135,
          "output": 134
        },
        {
          "input": 137,
          "output": 136
        }
      ]
    }
  ],
  "asset": {
    "copyright": "Copyright (c) 2018-2020 Chukong Technologies Inc.",
    "generator": "FBX-glTF-conv",
    "version": "2.0"
  },
  "bufferViews": [
    {
      "buffer": 0,
      "byteLength": 240
    },
    {
      "buffer": 0,
      "byteLength": 80,
      "byteOffset": 240
    },
    {
      "buffer": 0,
      "byteLength": 16,
      "byteOffset": 320
    },
    {
      "buffer": 0,
      "byteLength": 4,
      "byteOffset": 336
    },
    {
      "buffer": 0,
      "byteLength": 12,
      "byteOffset": 340
    },
    {
      "buffer": 0,
      "byteLength": 4,
      "byteOffset": 352
    },
    {
      "buffer": 0,
      "byteLength": 12,
      "byteOffset": 356
    },
    {
      "buffer": 0,
      "byteLength": 4,
      "byteOffset": 368
    },
    {
      "buffer": 0,
      "byteLength": 320,
      "byteOffset": 372
    },
    {
      "buffer": 0,
      "byteLength": 80,
      "byteOffset": 692
    },
    {
      "buffer": 0,
      "byteLength": 12,
      "byteOffset": 772
    },
    {
      "buffer": 0,
      "byteLength": 4,
      "byteOffset": 784
    },
    {
      "buffer": 0,
      "byteLength": 252,
      "byteOffset": 788
    },
    {
      "buffer": 0,
      "byteLength": 84,
      "byteOffset": 1040
    },
    {
      "buffer": 0,
      "byteLength": 336,
      "byteOffset": 1124
    },
    {
      "buffer": 0,
      "byteLength": 84,
      "byteOffset": 1460
    },
    {
      "buffer": 0,
      "byteLength": 12,
      "byteOffset": 1544
    },
    {
      "buffer": 0,
      "byteLength": 4,
      "byteOffset": 1556
    },
    {
      "buffer": 0,
      "byteLength": 252,
      "byteOffset": 1560
    },
    {
      "buffer": 0,
      "byteLength": 84,
      "byteOffset": 1812
    },
    {
      "buffer": 0,
      "byteLength": 336,
      "byteOffset": 1896
    },
    {
      "buffer": 0,
      "byteLength": 84,
      "byteOffset": 2232
    },
    {
      "buffer": 0,
      "byteLength": 12,
      "byteOffset": 2316
    },
    {
      "buffer": 0,
      "byteLength": 4,
      "byteOffset": 2328
    },
    {
      "buffer": 0,
      "byteLength": 60,
      "byteOffset": 2332
    },
    {
      "buffer": 0,
      "byteLength": 20,
      "byteOffset": 2392
    },
    {
      "buffer": 0,
      "byteLength": 336,
      "byteOffset": 2412
    },
    {
      "buffer": 0,
      "byteLength": 84,
      "byteOffset": 2748
    },
    {
      "buffer": 0,
      "byteLength": 12,
      "byteOffset": 2832
    },
    {
      "buffer": 0,
      "byteLength": 4,
      "byteOffset": 2844
    },
    {
      "buffer": 0,
      "byteLength": 84,
      "byteOffset": 2848
    },
    {
      "buffer": 0,
      "byteLength": 28,
      "byteOffset": 2932
    },
    {
      "buffer": 0,
      "byteLength": 336,
      "byteOffset": 2960
    },
    {
      "buffer": 0,
      "byteLength": 84,
      "byteOffset": 3296
    },
    {
      "buffer": 0,
      "byteLength": 12,
      "byteOffset": 3380
    },
    {
      "buffer": 0,
      "byteLength": 4,
      "byteOffset": 3392
    },
    {
      "buffer": 0,
      "byteLength": 48,
      "byteOffset": 3396
    },
    {
      "buffer": 0,
      "byteLength": 16,
      "byteOffset": 3444
    },
    {
      "buffer": 0,
      "byteLength": 240,
      "byteOffset": 3460
    },
    {
      "buffer": 0,
      "byteLength": 60,
      "byteOffset": 3700
    },
    {
      "buffer": 0,
      "byteLength": 12,
      "byteOffset": 3760
    },
    {
      "buffer": 0,
      "byteLength": 4,
      "byteOffset": 3772
    },
    {
      "buffer": 0,
      "byteLength": 252,
      "byteOffset": 3776
    },
    {
      "buffer": 0,
      "byteLength": 84,
      "byteOffset": 4028
    },
    {
      "buffer": 0,
      "byteLength": 336,
      "byteOffset": 4112
    },
    {
      "buffer": 0,
      "byteLength": 84,
      "byteOffset": 4448
    },
    {
      "buffer": 0,
      "byteLength": 12,
      "byteOffset": 4532
    },
    {
      "buffer": 0,
      "byteLength": 4,
      "byteOffset": 4544
    },
    {
      "buffer": 0,
      "byteLength": 96,
      "byteOffset": 4548
    },
    {
      "buffer": 0,
      "byteLength": 32,
      "byteOffset": 4644
    },
    {
      "buffer": 0,
      "byteLength": 336,
      "byteOffset": 4676
    },
    {
      "buffer": 0,
      "byteLength": 84,
      "byteOffset": 5012
    },
    {
      "buffer": 0,
      "byteLength": 12,
      "byteOffset": 5096
    },
    {
      "buffer": 0,
      "byteLength": 4,
      "byteOffset": 5108
    },
    {
      "buffer": 0,
      "byteLength": 96,
      "byteOffset": 5112
    },
    {
      "buffer": 0,
      "byteLength": 32,
      "byteOffset": 5208
    },
    {
      "buffer": 0,
      "byteLength": 336,
      "byteOffset": 5240
    },
    {
      "buffer": 0,
      "byteLength": 84,
      "byteOffset": 5576
    },
    {
      "buffer": 0,
      "byteLength": 12,
      "byteOffset": 5660
    },
    {
      "buffer": 0,
      "byteLength": 4,
      "byteOffset": 5672
    },
    {
      "buffer": 0,
      "byteLength": 12,
      "byteOffset": 5676
    },
    {
      "buffer": 0,
      "byteLength": 4,
      "byteOffset": 5688
    },
    {
      "buffer": 0,
      "byteLength": 240,
      "byteOffset": 5692
    },
    {
      "buffer": 0,
      "byteLength": 60,
      "byteOffset": 5932
    },
    {
      "buffer": 0,
      "byteLength": 12,
      "byteOffset": 5992
    },
    {
      "buffer": 0,
      "byteLength": 4,
      "byteOffset": 6004
    },
    {
      "buffer": 0,
      "byteLength": 252,
      "byteOffset": 6008
    },
    {
      "buffer": 0,
      "byteLength": 84,
      "byteOffset": 6260
    },
    {
      "buffer": 0,
      "byteLength": 336,
      "byteOffset": 6344
    },
    {
      "buffer": 0,
      "byteLength": 84,
      "byteOffset": 6680
    },
    {
      "buffer": 0,
      "byteLength": 12,
      "byteOffset": 6764
    },
    {
      "buffer": 0,
      "byteLength": 4,
      "byteOffset": 6776
    },
    {
      "buffer": 0,
      "byteLength": 252,
      "byteOffset": 6780
    },
    {
      "buffer": 0,
      "byteLength": 84,
      "byteOffset": 7032
    },
    {
      "buffer": 0,
      "byteLength": 336,
      "byteOffset": 7116
    },
    {
      "buffer": 0,
      "byteLength": 84,
      "byteOffset": 7452
    },
    {
      "buffer": 0,
      "byteLength": 12,
      "byteOffset": 7536
    },
    {
      "buffer": 0,
      "byteLength": 4,
      "byteOffset": 7548
    },
    {
      "buffer": 0,
      "byteLength": 252,
      "byteOffset": 7552
    },
    {
      "buffer": 0,
      "byteLength": 84,
      "byteOffset": 7804
    },
    {
      "buffer": 0,
      "byteLength": 336,
      "byteOffset": 7888
    },
    {
      "buffer": 0,
      "byteLength": 84,
      "byteOffset": 8224
    },
    {
      "buffer": 0,
      "byteLength": 12,
      "byteOffset": 8308
    },
    {
      "buffer": 0,
      "byteLength": 4,
      "byteOffset": 8320
    },
    {
      "buffer": 0,
      "byteLength": 108,
      "byteOffset": 8324
    },
    {
      "buffer": 0,
      "byteLength": 36,
      "byteOffset": 8432
    },
    {
      "buffer": 0,
      "byteLength": 336,
      "byteOffset": 8468
    },
    {
      "buffer": 0,
      "byteLength": 84,
      "byteOffset": 8804
    },
    {
      "buffer": 0,
      "byteLength": 12,
      "byteOffset": 8888
    },
    {
      "buffer": 0,
      "byteLength": 4,
      "byteOffset": 8900
    },
    {
      "buffer": 0,
      "byteLength": 60,
      "byteOffset": 8904
    },
    {
      "buffer": 0,
      "byteLength": 20,
      "byteOffset": 8964
    },
    {
      "buffer": 0,
      "byteLength": 336,
      "byteOffset": 8984
    },
    {
      "buffer": 0,
      "byteLength": 84,
      "byteOffset": 9320
    },
    {
      "buffer": 0,
      "byteLength": 12,
      "byteOffset": 9404
    },
    {
      "buffer": 0,
      "byteLength": 4,
      "byteOffset": 9416
    },
    {
      "buffer": 0,
      "byteLength": 72,
      "byteOffset": 9420
    },
    {
      "buffer": 0,
      "byteLength": 24,
      "byteOffset": 9492
    },
    {
      "buffer": 0,
      "byteLength": 336,
      "byteOffset": 9516
    },
    {
      "buffer": 0,
      "byteLength": 84,
      "byteOffset": 9852
    },
    {
      "buffer": 0,
      "byteLength": 12,
      "byteOffset": 9936
    },
    {
      "buffer": 0,
      "byteLength": 4,
      "byteOffset": 9948
    },
    {
      "buffer": 0,
      "byteLength": 252,
      "byteOffset": 9952
    },
    {
      "buffer": 0,
      "byteLength": 84,
      "byteOffset": 10204
    },
    {
      "buffer": 0,
      "byteLength": 336,
      "byteOffset": 10288
    },
    {
      "buffer": 0,
      "byteLength": 84,
      "byteOffset": 10624
    },
    {
      "buffer": 0,
      "byteLength": 12,
      "byteOffset": 10708
    },
    {
      "buffer": 0,
      "byteLength": 4,
      "byteOffset": 10720
    },
    {
      "buffer": 0,
      "byteLength": 96,
      "byteOffset": 10724
    },
    {
      "buffer": 0,
      "byteLength": 32,
      "byteOffset": 10820
    },
    {
      "buffer": 0,
      "byteLength": 336,
      "byteOffset": 10852
    },
    {
      "buffer": 0,
      "byteLength": 84,
      "byteOffset": 11188
    },
    {
      "buffer": 0,
      "byteLength": 12,
      "byteOffset": 11272
    },
    {
      "buffer": 0,
      "byteLength": 4,
      "byteOffset": 11284
    },
    {
      "buffer": 0,
      "byteLength": 120,
      "byteOffset": 11288
    },
    {
      "buffer": 0,
      "byteLength": 40,
      "byteOffset": 11408
    },
    {
      "buffer": 0,
      "byteLength": 336,
      "byteOffset": 11448
    },
    {
      "buffer": 0,
      "byteLength": 84,
      "byteOffset": 11784
    },
    {
      "buffer": 0,
      "byteLength": 12,
      "byteOffset": 11868
    },
    {
      "buffer": 0,
      "byteLength": 4,
      "byteOffset": 11880
    },
    {
      "buffer": 0,
      "byteLength": 156,
      "byteOffset": 11884
    },
    {
      "buffer": 0,
      "byteLength": 52,
      "byteOffset": 12040
    },
    {
      "buffer": 0,
      "byteLength": 336,
      "byteOffset": 12092
    },
    {
      "buffer": 0,
      "byteLength": 84,
      "byteOffset": 12428
    },
    {
      "buffer": 0,
      "byteLength": 12,
      "byteOffset": 12512
    },
    {
      "buffer": 0,
      "byteLength": 4,
      "byteOffset": 12524
    },
    {
      "buffer": 0,
      "byteLength": 144,
      "byteOffset": 12528
    },
    {
      "buffer": 0,
      "byteLength": 48,
      "byteOffset": 12672
    },
    {
      "buffer": 0,
      "byteLength": 336,
      "byteOffset": 12720
    },
    {
      "buffer": 0,
      "byteLength": 84,
      "byteOffset": 13056
    },
    {
      "buffer": 0,
      "byteLength": 12,
      "byteOffset": 13140
    },
    {
      "buffer": 0,
      "byteLength": 4,
      "byteOffset": 13152
    },
    {
      "buffer": 0,
      "byteLength": 252,
      "byteOffset": 13156
    },
    {
      "buffer": 0,
      "byteLength": 84,
      "byteOffset": 13408
    },
    {
      "buffer": 0,
      "byteLength": 336,
      "byteOffset": 13492
    },
    {
      "buffer": 0,
      "byteLength": 84,
      "byteOffset": 13828
    },
    {
      "buffer": 0,
      "byteLength": 12,
      "byteOffset": 13912
    },
    {
      "buffer": 0,
      "byteLength": 4,
      "byteOffset": 13924
    }
  ],
  "buffers": [
    {
      "byteLength": 13928,
      "uri": "out.bin"
    }
  ],
  "extras": {
    "FBX-glTF-conv": {
      "animationFrameRate": 30.0,
      "fbxFileHeaderInfo": {
        "creationTimeStamp": {
          "day": 12,
          "hour": 15,
          "millisecond": 602,
          "minute": 47,
          "month": 5,
          "second": 32,
          "year": 2026
        },
        "creator": "FBX SDK/FBX Plugins version 2020.3.2",
        "sceneInfo": {
          "author": "",
          "comment": "",
          "keywords": "",
          "original": {
            "applicationName": "3ds Max",
            "applicationVendor": "Autodesk",
            "applicationVersion": "2024",
            "fileName": "\\\\192.168.5.190\\Playable\\T-The War\\1.美术资源\\3D模型\\主角\\fbx\\跑.fbx"
          },
          "revision": "",
          "subject": "",
          "title": "",
          "url": "D:\\工程项目\\PlayableAD\\Cocos\\TheW\\20260615_HYQ\\HYQ_Project\\assets\\GameRes\\SLLYT_map\\zhujue\\跑.fbx"
        }
      }
    }
  },
  "nodes": [
    {
      "children": [
        1,
        22
      ],
      "extras": {
        "FBX-glTF-conv": {
          "skeleton": {
            "skeletonType": "Root"
          }
        }
      },
      "name": "Bip001",
      "rotation": [
        -0.38511794805526733,
        -0.38511794805526733,
        -0.5930296182632446,
        0.5930296182632446
      ],
      "translation": [
        0.00036418676609173417,
        0.8887256383895874,
        0.0
      ]
    },
    {
      "children": [
        2
      ],
      "extras": {
        "FBX-glTF-conv": {
          "skeleton": {
            "skeletonType": "LimbNode"
          }
        }
      },
      "name": "Bip001 Pelvis",
      "rotation": [
        -0.48812633752822876,
        -0.5115981101989746,
        -0.48812568187713623,
        0.5115988254547119
      ]
    },
    {
      "children": [
        3,
        7,
        11
      ],
      "extras": {
        "FBX-glTF-conv": {
          "skeleton": {
            "skeletonType": "LimbNode"
          }
        }
      },
      "name": "Bip001 Spine",
      "rotation": [
        0.009875518269836903,
        0.0015043392777442932,
        0.009003977291285992,
        0.9999095797538757
      ],
      "translation": [
        0.07221557945013046,
        0.02449546754360199,
        -0.001165842986665666
      ]
    },
    {
      "children": [
        4
      ],
      "extras": {
        "FBX-glTF-conv": {
          "skeleton": {
            "skeletonType": "LimbNode"
          }
        }
      },
      "name": "Bip001 L Thigh",
      "rotation": [
        0.5332769751548767,
        0.8449140191078186,
        -0.011405249126255512,
        0.04007313400506973
      ],
      "translation": [
        -0.07290183752775192,
        -0.02139720879495144,
        0.09080610424280167
      ]
    },
    {
      "children": [
        5
      ],
      "extras": {
        "FBX-glTF-conv": {
          "skeleton": {
            "skeletonType": "LimbNode"
          }
        }
      },
      "name": "Bip001 L Calf",
      "rotation": [
        -3.3154846517197317e-18,
        -2.013427094125524e-18,
        -0.5323663949966431,
        0.8465140461921692
      ],
      "translation": [
        0.4039266109466553,
        0.0,
        -4.76837147544984e-09
      ]
    },
    {
      "children": [
        6
      ],
      "extras": {
        "FBX-glTF-conv": {
          "skeleton": {
            "skeletonType": "LimbNode"
          }
        }
      },
      "name": "Bip001 L Foot",
      "rotation": [
        -0.03185822069644928,
        -0.0034587266854941845,
        0.21320022642612457,
        0.9764828681945801
      ],
      "translation": [
        0.5253466963768005,
        3.33786012163273e-08,
        -8.881783998477905e-18
      ]
    },
    {
      "extras": {
        "FBX-glTF-conv": {
          "skeleton": {
            "skeletonType": "LimbNode"
          }
        }
      },
      "name": "Bip001 L Toe0",
      "rotation": [
        -1.403869077876152e-06,
        3.139782847938477e-06,
        0.7071082592010498,
        0.707105278968811
      ],
      "translation": [
        0.08683574944734573,
        0.10477731376886368,
        -8.881783998477905e-18
      ]
    },
    {
      "children": [
        8
      ],
      "extras": {
        "FBX-glTF-conv": {
          "skeleton": {
            "skeletonType": "LimbNode"
          }
        }
      },
      "name": "Bip001 R Thigh",
      "rotation": [
        0.6811734437942505,
        0.7220982909202576,
        0.09463012963533401,
        0.07497983425855637
      ],
      "translation": [
        -0.07239547371864319,
        -0.024933701381087303,
        -0.0879688709974289
      ]
    },
    {
      "children": [
        9
      ],
      "extras": {
        "FBX-glTF-conv": {
          "skeleton": {
            "skeletonType": "LimbNode"
          }
        }
      },
      "name": "Bip001 R Calf",
      "rotation": [
        -9.794097212494278e-18,
        -2.0698796893904303e-17,
        0.9782138466835022,
        -0.20759983360767365
      ],
      "translation": [
        0.4039266109466553,
        1.4210854397564648e-16,
        3.552713599391162e-17
      ]
    },
    {
      "children": [
        10
      ],
      "extras": {
        "FBX-glTF-conv": {
          "skeleton": {
            "skeletonType": "LimbNode"
          }
        }
      },
      "name": "Bip001 R Foot",
      "rotation": [
        -0.10565457493066788,
        0.06741202622652054,
        -0.33526739478111267,
        0.9337496757507324
      ],
      "translation": [
        0.5253466367721558,
        0.0,
        0.0
      ]
    },
    {
      "extras": {
        "FBX-glTF-conv": {
          "skeleton": {
            "skeletonType": "LimbNode"
          }
        }
      },
      "name": "Bip001 R Toe0",
      "rotation": [
        -0.00010502188524696976,
        0.0003445555630605668,
        0.6902248859405518,
        0.7235948443412781
      ],
      "translation": [
        0.08683578670024872,
        0.10477733612060547,
        0.0
      ]
    },
    {
      "children": [
        12
      ],
      "extras": {
        "FBX-glTF-conv": {
          "skeleton": {
            "skeletonType": "LimbNode"
          }
        }
      },
      "name": "Bip001 Spine1",
      "rotation": [
        -0.05929412320256233,
        -0.009032792411744595,
        0.1362571120262146,
        0.9888561964035034
      ],
      "translation": [
        0.28283339738845825,
        -0.0002273559512104839,
        2.8476715669967234e-05
      ]
    },
    {
      "children": [
        13,
        17,
        21
      ],
      "extras": {
        "FBX-glTF-conv": {
          "skeleton": {
            "skeletonType": "LimbNode"
          }
        }
      },
      "name": "Bip001 Neck",
      "rotation": [
        -0.03800166770815849,
        0.10072802007198334,
        0.024945905432105064,
        0.9938749670982361
      ],
      "translation": [
        0.28434988856315613,
        -0.033621519804000854,
        3.7145614442124497e-06
      ]
    },
    {
      "children": [
        14
      ],
      "extras": {
        "FBX-glTF-conv": {
          "skeleton": {
            "skeletonType": "LimbNode"
          }
        }
      },
      "name": "Bip001 L Clavicle",
      "rotation": [
        0.6485698223114014,
        -0.010709942318499088,
        0.760347843170166,
        0.033371150493621826
      ],
      "translation": [
        -0.139720156788826,
        -0.04799896106123924,
        0.07701355218887329
      ]
    },
    {
      "children": [
        15
      ],
      "extras": {
        "FBX-glTF-conv": {
          "skeleton": {
            "skeletonType": "LimbNode"
          }
        }
      },
      "name": "Bip001 L UpperArm",
      "rotation": [
        -0.13251489400863647,
        0.3954548239707947,
        -0.32277897000312805,
        0.849628746509552
      ],
      "translation": [
        0.12755070626735687,
        -7.629394360719743e-08,
        -1.4210854397564648e-16
      ]
    },
    {
      "children": [
        16
      ],
      "extras": {
        "FBX-glTF-conv": {
          "skeleton": {
            "skeletonType": "LimbNode"
          }
        }
      },
      "name": "Bip001 L Forearm",
      "rotation": [
        2.983456173638294e-17,
        -8.254464449424225e-17,
        -0.7847049832344055,
        0.6198694109916687
      ],
      "translation": [
        0.26627373695373535,
        -1.907348590179936e-08,
        7.629394360719743e-08
      ]
    },
    {
      "extras": {
        "FBX-glTF-conv": {
          "skeleton": {
            "skeletonType": "LimbNode"
          }
        }
      },
      "name": "Bip001 L Hand",
      "rotation": [
        -0.8462057113647461,
        -0.05549331381917,
        0.0026364303193986416,
        0.5299522876739502
      ],
      "translation": [
        0.28649014234542847,
        7.629394360719743e-08,
        0.0
      ]
    },
    {
      "children": [
        18
      ],
      "extras": {
        "FBX-glTF-conv": {
          "skeleton": {
            "skeletonType": "LimbNode"
          }
        }
      },
      "name": "Bip001 R Clavicle",
      "rotation": [
        0.8334179520606995,
        -0.14841201901435852,
        -0.5193214416503906,
        0.11702000349760056
      ],
      "translation": [
        -0.09652473777532578,
        -0.03292899951338768,
        -0.13174591958522797
      ]
    },
    {
      "children": [
        19
      ],
      "extras": {
        "FBX-glTF-conv": {
          "skeleton": {
            "skeletonType": "LimbNode"
          }
        }
      },
      "name": "Bip001 R UpperArm",
      "rotation": [
        -0.119042307138443,
        -0.16022911667823792,
        -0.3808977007865906,
        0.9028136730194092
      ],
      "translation": [
        0.12755073606967926,
        0.0,
        7.629394360719743e-08
      ]
    },
    {
      "children": [
        20
      ],
      "extras": {
        "FBX-glTF-conv": {
          "skeleton": {
            "skeletonType": "LimbNode"
          }
        }
      },
      "name": "Bip001 R Forearm",
      "rotation": [
        2.8235416471526024e-17,
        5.526862849310218e-17,
        -0.8051676750183105,
        0.5930472612380981
      ],
      "translation": [
        0.2662736773490906,
        7.629394360719743e-08,
        -7.629394360719743e-08
      ]
    },
    {
      "extras": {
        "FBX-glTF-conv": {
          "skeleton": {
            "skeletonType": "LimbNode"
          }
        }
      },
      "name": "Bip001 R Hand",
      "rotation": [
        0.8153674602508545,
        0.03272652626037598,
        -0.4164826273918152,
        0.40080809593200684
      ],
      "translation": [
        0.28649017214775085,
        3.814697180359872e-08,
        -7.629394360719743e-08
      ]
    },
    {
      "extras": {
        "FBX-glTF-conv": {
          "skeleton": {
            "skeletonType": "LimbNode"
          }
        }
      },
      "name": "Bip001 Head",
      "rotation": [
        0.09406331926584244,
        -0.10834186524152756,
        -0.25417202711105347,
        0.9564573764801025
      ],
      "translation": [
        0.06347213685512543,
        -0.001264267018996179,
        -4.76837158203125e-07
      ]
    },
    {
      "extras": {
        "FBX-glTF-conv": {
          "skeleton": {
            "skeletonType": "LimbNode"
          }
        }
      },
      "name": "Bip001 Prop1",
      "rotation": [
        0.43299248814582825,
        0.39468443393707275,
        0.7998459935188293,
        -0.13033856451511383
      ],
      "translation": [
        0.12526874244213104,
        -0.29630523920059204,
        0.3795841336250305
      ]
    }
  ],
  "scenes": [
    {
      "nodes": [
        0
      ]
    }
  ]
}