{
  "accessors": [
    {
      "bufferView": 0,
      "componentType": 5126,
      "count": 21,
      "name": "Bip001/translation/Output",
      "type": "VEC3"
    },
    {
      "bufferView": 1,
      "componentType": 5126,
      "count": 21,
      "max": [
        0.6666666865348816
      ],
      "min": [
        0.0
      ],
      "name": "Bip001/translation/Input",
      "type": "SCALAR"
    },
    {
      "bufferView": 2,
      "componentType": 5126,
      "count": 21,
      "name": "Bip001/rotation/Output",
      "type": "VEC4"
    },
    {
      "bufferView": 3,
      "componentType": 5126,
      "count": 21,
      "max": [
        0.6666666865348816
      ],
      "min": [
        0.0
      ],
      "name": "Bip001/rotation/Input",
      "type": "SCALAR"
    },
    {
      "bufferView": 4,
      "componentType": 5126,
      "count": 1,
      "name": "Bip001/scale/Output",
      "type": "VEC3"
    },
    {
      "bufferView": 5,
      "componentType": 5126,
      "count": 1,
      "max": [
        0.6666666865348816
      ],
      "min": [
        0.6666666865348816
      ],
      "name": "Bip001/scale/Input",
      "type": "SCALAR"
    },
    {
      "bufferView": 6,
      "componentType": 5126,
      "count": 1,
      "name": "Bip001 Pelvis/translation/Output",
      "type": "VEC3"
    },
    {
      "bufferView": 7,
      "componentType": 5126,
      "count": 1,
      "max": [
        0.6666666865348816
      ],
      "min": [
        0.6666666865348816
      ],
      "name": "Bip001 Pelvis/translation/Input",
      "type": "SCALAR"
    },
    {
      "bufferView": 8,
      "componentType": 5126,
      "count": 1,
      "name": "Bip001 Pelvis/rotation/Output",
      "type": "VEC4"
    },
    {
      "bufferView": 9,
      "componentType": 5126,
      "count": 1,
      "max": [
        0.6666666865348816
      ],
      "min": [
        0.6666666865348816
      ],
      "name": "Bip001 Pelvis/rotation/Input",
      "type": "SCALAR"
    },
    {
      "bufferView": 10,
      "componentType": 5126,
      "count": 1,
      "name": "Bip001 Pelvis/scale/Output",
      "type": "VEC3"
    },
    {
      "bufferView": 11,
      "componentType": 5126,
      "count": 1,
      "max": [
        0.6666666865348816
      ],
      "min": [
        0.6666666865348816
      ],
      "name": "Bip001 Pelvis/scale/Input",
      "type": "SCALAR"
    },
    {
      "bufferView": 12,
      "componentType": 5126,
      "count": 21,
      "name": "Bip001 Spine/translation/Output",
      "type": "VEC3"
    },
    {
      "bufferView": 13,
      "componentType": 5126,
      "count": 21,
      "max": [
        0.6666666865348816
      ],
      "min": [
        0.0
      ],
      "name": "Bip001 Spine/translation/Input",
      "type": "SCALAR"
    },
    {
      "bufferView": 14,
      "componentType": 5126,
      "count": 21,
      "name": "Bip001 Spine/rotation/Output",
      "type": "VEC4"
    },
    {
      "bufferView": 15,
      "componentType": 5126,
      "count": 21,
      "max": [
        0.6666666865348816
      ],
      "min": [
        0.0
      ],
      "name": "Bip001 Spine/rotation/Input",
      "type": "SCALAR"
    },
    {
      "bufferView": 16,
      "componentType": 5126,
      "count": 1,
      "name": "Bip001 Spine/scale/Output",
      "type": "VEC3"
    },
    {
      "bufferView": 17,
      "componentType": 5126,
      "count": 1,
      "max": [
        0.6666666865348816
      ],
      "min": [
        0.6666666865348816
      ],
      "name": "Bip001 Spine/scale/Input",
      "type": "SCALAR"
    },
    {
      "bufferView": 18,
      "componentType": 5126,
      "count": 21,
      "name": "Bip001 Spine1/translation/Output",
      "type": "VEC3"
    },
    {
      "bufferView": 19,
      "componentType": 5126,
      "count": 21,
      "max": [
        0.6666666865348816
      ],
      "min": [
        0.0
      ],
      "name": "Bip001 Spine1/translation/Input",
      "type": "SCALAR"
    },
    {
      "bufferView": 20,
      "componentType": 5126,
      "count": 21,
      "name": "Bip001 Spine1/rotation/Output",
      "type": "VEC4"
    },
    {
      "bufferView": 21,
      "componentType": 5126,
      "count": 21,
      "max": [
        0.6666666865348816
      ],
      "min": [
        0.0
      ],
      "name": "Bip001 Spine1/rotation/Input",
      "type": "SCALAR"
    },
    {
      "bufferView": 22,
      "componentType": 5126,
      "count": 1,
      "name": "Bip001 Spine1/scale/Output",
      "type": "VEC3"
    },
    {
      "bufferView": 23,
      "componentType": 5126,
      "count": 1,
      "max": [
        0.6666666865348816
      ],
      "min": [
        0.6666666865348816
      ],
      "name": "Bip001 Spine1/scale/Input",
      "type": "SCALAR"
    },
    {
      "bufferView": 24,
      "componentType": 5126,
      "count": 21,
      "name": "Bip001 Neck/translation/Output",
      "type": "VEC3"
    },
    {
      "bufferView": 25,
      "componentType": 5126,
      "count": 21,
      "max": [
        0.6666666865348816
      ],
      "min": [
        0.0
      ],
      "name": "Bip001 Neck/translation/Input",
      "type": "SCALAR"
    },
    {
      "bufferView": 26,
      "componentType": 5126,
      "count": 21,
      "name": "Bip001 Neck/rotation/Output",
      "type": "VEC4"
    },
    {
      "bufferView": 27,
      "componentType": 5126,
      "count": 21,
      "max": [
        0.6666666865348816
      ],
      "min": [
        0.0
      ],
      "name": "Bip001 Neck/rotation/Input",
      "type": "SCALAR"
    },
    {
      "bufferView": 28,
      "componentType": 5126,
      "count": 1,
      "name": "Bip001 Neck/scale/Output",
      "type": "VEC3"
    },
    {
      "bufferView": 29,
      "componentType": 5126,
      "count": 1,
      "max": [
        0.6666666865348816
      ],
      "min": [
        0.6666666865348816
      ],
      "name": "Bip001 Neck/scale/Input",
      "type": "SCALAR"
    },
    {
      "bufferView": 30,
      "componentType": 5126,
      "count": 9,
      "name": "Bip001 Head/translation/Output",
      "type": "VEC3"
    },
    {
      "bufferView": 31,
      "componentType": 5126,
      "count": 9,
      "max": [
        0.6666666865348816
      ],
      "min": [
        0.0
      ],
      "name": "Bip001 Head/translation/Input",
      "type": "SCALAR"
    },
    {
      "bufferView": 32,
      "componentType": 5126,
      "count": 21,
      "name": "Bip001 Head/rotation/Output",
      "type": "VEC4"
    },
    {
      "bufferView": 33,
      "componentType": 5126,
      "count": 21,
      "max": [
        0.6666666865348816
      ],
      "min": [
        0.0
      ],
      "name": "Bip001 Head/rotation/Input",
      "type": "SCALAR"
    },
    {
      "bufferView": 34,
      "componentType": 5126,
      "count": 1,
      "name": "Bip001 Head/scale/Output",
      "type": "VEC3"
    },
    {
      "bufferView": 35,
      "componentType": 5126,
      "count": 1,
      "max": [
        0.6666666865348816
      ],
      "min": [
        0.6666666865348816
      ],
      "name": "Bip001 Head/scale/Input",
      "type": "SCALAR"
    },
    {
      "bufferView": 36,
      "componentType": 5126,
      "count": 6,
      "name": "Bip001 L Clavicle/translation/Output",
      "type": "VEC3"
    },
    {
      "bufferView": 37,
      "componentType": 5126,
      "count": 6,
      "max": [
        0.4333333373069763
      ],
      "min": [
        0.03333333507180214
      ],
      "name": "Bip001 L Clavicle/translation/Input",
      "type": "SCALAR"
    },
    {
      "bufferView": 38,
      "componentType": 5126,
      "count": 21,
      "name": "Bip001 L Clavicle/rotation/Output",
      "type": "VEC4"
    },
    {
      "bufferView": 39,
      "componentType": 5126,
      "count": 21,
      "max": [
        0.6666666865348816
      ],
      "min": [
        0.0
      ],
      "name": "Bip001 L Clavicle/rotation/Input",
      "type": "SCALAR"
    },
    {
      "bufferView": 40,
      "componentType": 5126,
      "count": 1,
      "name": "Bip001 L Clavicle/scale/Output",
      "type": "VEC3"
    },
    {
      "bufferView": 41,
      "componentType": 5126,
      "count": 1,
      "max": [
        0.6666666865348816
      ],
      "min": [
        0.6666666865348816
      ],
      "name": "Bip001 L Clavicle/scale/Input",
      "type": "SCALAR"
    },
    {
      "bufferView": 42,
      "componentType": 5126,
      "count": 8,
      "name": "Bip001 L UpperArm/translation/Output",
      "type": "VEC3"
    },
    {
      "bufferView": 43,
      "componentType": 5126,
      "count": 8,
      "max": [
        0.6333333253860474
      ],
      "min": [
        0.06666667014360428
      ],
      "name": "Bip001 L UpperArm/translation/Input",
      "type": "SCALAR"
    },
    {
      "bufferView": 44,
      "componentType": 5126,
      "count": 21,
      "name": "Bip001 L UpperArm/rotation/Output",
      "type": "VEC4"
    },
    {
      "bufferView": 45,
      "componentType": 5126,
      "count": 21,
      "max": [
        0.6666666865348816
      ],
      "min": [
        0.0
      ],
      "name": "Bip001 L UpperArm/rotation/Input",
      "type": "SCALAR"
    },
    {
      "bufferView": 46,
      "componentType": 5126,
      "count": 1,
      "name": "Bip001 L UpperArm/scale/Output",
      "type": "VEC3"
    },
    {
      "bufferView": 47,
      "componentType": 5126,
      "count": 1,
      "max": [
        0.6666666865348816
      ],
      "min": [
        0.6666666865348816
      ],
      "name": "Bip001 L UpperArm/scale/Input",
      "type": "SCALAR"
    },
    {
      "bufferView": 48,
      "componentType": 5126,
      "count": 5,
      "name": "Bip001 L Forearm/translation/Output",
      "type": "VEC3"
    },
    {
      "bufferView": 49,
      "componentType": 5126,
      "count": 5,
      "max": [
        0.6333333253860474
      ],
      "min": [
        0.20000000298023224
      ],
      "name": "Bip001 L Forearm/translation/Input",
      "type": "SCALAR"
    },
    {
      "bufferView": 50,
      "componentType": 5126,
      "count": 21,
      "name": "Bip001 L Forearm/rotation/Output",
      "type": "VEC4"
    },
    {
      "bufferView": 51,
      "componentType": 5126,
      "count": 21,
      "max": [
        0.6666666865348816
      ],
      "min": [
        0.0
      ],
      "name": "Bip001 L Forearm/rotation/Input",
      "type": "SCALAR"
    },
    {
      "bufferView": 52,
      "componentType": 5126,
      "count": 1,
      "name": "Bip001 L Forearm/scale/Output",
      "type": "VEC3"
    },
    {
      "bufferView": 53,
      "componentType": 5126,
      "count": 1,
      "max": [
        0.6666666865348816
      ],
      "min": [
        0.6666666865348816
      ],
      "name": "Bip001 L Forearm/scale/Input",
      "type": "SCALAR"
    },
    {
      "bufferView": 54,
      "componentType": 5126,
      "count": 5,
      "name": "Bip001 L Hand/translation/Output",
      "type": "VEC3"
    },
    {
      "bufferView": 55,
      "componentType": 5126,
      "count": 5,
      "max": [
        0.6666666865348816
      ],
      "min": [
        0.06666667014360428
      ],
      "name": "Bip001 L Hand/translation/Input",
      "type": "SCALAR"
    },
    {
      "bufferView": 56,
      "componentType": 5126,
      "count": 21,
      "name": "Bip001 L Hand/rotation/Output",
      "type": "VEC4"
    },
    {
      "bufferView": 57,
      "componentType": 5126,
      "count": 21,
      "max": [
        0.6666666865348816
      ],
      "min": [
        0.0
      ],
      "name": "Bip001 L Hand/rotation/Input",
      "type": "SCALAR"
    },
    {
      "bufferView": 58,
      "componentType": 5126,
      "count": 1,
      "name": "Bip001 L Hand/scale/Output",
      "type": "VEC3"
    },
    {
      "bufferView": 59,
      "componentType": 5126,
      "count": 1,
      "max": [
        0.6666666865348816
      ],
      "min": [
        0.6666666865348816
      ],
      "name": "Bip001 L Hand/scale/Input",
      "type": "SCALAR"
    },
    {
      "bufferView": 60,
      "componentType": 5126,
      "count": 12,
      "name": "Bip001 R Clavicle/translation/Output",
      "type": "VEC3"
    },
    {
      "bufferView": 61,
      "componentType": 5126,
      "count": 12,
      "max": [
        0.6666666865348816
      ],
      "min": [
        0.03333333507180214
      ],
      "name": "Bip001 R Clavicle/translation/Input",
      "type": "SCALAR"
    },
    {
      "bufferView": 62,
      "componentType": 5126,
      "count": 21,
      "name": "Bip001 R Clavicle/rotation/Output",
      "type": "VEC4"
    },
    {
      "bufferView": 63,
      "componentType": 5126,
      "count": 21,
      "max": [
        0.6666666865348816
      ],
      "min": [
        0.0
      ],
      "name": "Bip001 R Clavicle/rotation/Input",
      "type": "SCALAR"
    },
    {
      "bufferView": 64,
      "componentType": 5126,
      "count": 1,
      "name": "Bip001 R Clavicle/scale/Output",
      "type": "VEC3"
    },
    {
      "bufferView": 65,
      "componentType": 5126,
      "count": 1,
      "max": [
        0.6666666865348816
      ],
      "min": [
        0.6666666865348816
      ],
      "name": "Bip001 R Clavicle/scale/Input",
      "type": "SCALAR"
    },
    {
      "bufferView": 66,
      "componentType": 5126,
      "count": 8,
      "name": "Bip001 R UpperArm/translation/Output",
      "type": "VEC3"
    },
    {
      "bufferView": 67,
      "componentType": 5126,
      "count": 8,
      "max": [
        0.6666666865348816
      ],
      "min": [
        0.0
      ],
      "name": "Bip001 R UpperArm/translation/Input",
      "type": "SCALAR"
    },
    {
      "bufferView": 68,
      "componentType": 5126,
      "count": 21,
      "name": "Bip001 R UpperArm/rotation/Output",
      "type": "VEC4"
    },
    {
      "bufferView": 69,
      "componentType": 5126,
      "count": 21,
      "max": [
        0.6666666865348816
      ],
      "min": [
        0.0
      ],
      "name": "Bip001 R UpperArm/rotation/Input",
      "type": "SCALAR"
    },
    {
      "bufferView": 70,
      "componentType": 5126,
      "count": 1,
      "name": "Bip001 R UpperArm/scale/Output",
      "type": "VEC3"
    },
    {
      "bufferView": 71,
      "componentType": 5126,
      "count": 1,
      "max": [
        0.6666666865348816
      ],
      "min": [
        0.6666666865348816
      ],
      "name": "Bip001 R UpperArm/scale/Input",
      "type": "SCALAR"
    },
    {
      "bufferView": 72,
      "componentType": 5126,
      "count": 10,
      "name": "Bip001 R Forearm/translation/Output",
      "type": "VEC3"
    },
    {
      "bufferView": 73,
      "componentType": 5126,
      "count": 10,
      "max": [
        0.6666666865348816
      ],
      "min": [
        0.0
      ],
      "name": "Bip001 R Forearm/translation/Input",
      "type": "SCALAR"
    },
    {
      "bufferView": 74,
      "componentType": 5126,
      "count": 21,
      "name": "Bip001 R Forearm/rotation/Output",
      "type": "VEC4"
    },
    {
      "bufferView": 75,
      "componentType": 5126,
      "count": 21,
      "max": [
        0.6666666865348816
      ],
      "min": [
        0.0
      ],
      "name": "Bip001 R Forearm/rotation/Input",
      "type": "SCALAR"
    },
    {
      "bufferView": 76,
      "componentType": 5126,
      "count": 1,
      "name": "Bip001 R Forearm/scale/Output",
      "type": "VEC3"
    },
    {
      "bufferView": 77,
      "componentType": 5126,
      "count": 1,
      "max": [
        0.6666666865348816
      ],
      "min": [
        0.6666666865348816
      ],
      "name": "Bip001 R Forearm/scale/Input",
      "type": "SCALAR"
    },
    {
      "bufferView": 78,
      "componentType": 5126,
      "count": 10,
      "name": "Bip001 R Hand/translation/Output",
      "type": "VEC3"
    },
    {
      "bufferView": 79,
      "componentType": 5126,
      "count": 10,
      "max": [
        0.6666666865348816
      ],
      "min": [
        0.0
      ],
      "name": "Bip001 R Hand/translation/Input",
      "type": "SCALAR"
    },
    {
      "bufferView": 80,
      "componentType": 5126,
      "count": 21,
      "name": "Bip001 R Hand/rotation/Output",
      "type": "VEC4"
    },
    {
      "bufferView": 81,
      "componentType": 5126,
      "count": 21,
      "max": [
        0.6666666865348816
      ],
      "min": [
        0.0
      ],
      "name": "Bip001 R Hand/rotation/Input",
      "type": "SCALAR"
    },
    {
      "bufferView": 82,
      "componentType": 5126,
      "count": 1,
      "name": "Bip001 R Hand/scale/Output",
      "type": "VEC3"
    },
    {
      "bufferView": 83,
      "componentType": 5126,
      "count": 1,
      "max": [
        0.6666666865348816
      ],
      "min": [
        0.6666666865348816
      ],
      "name": "Bip001 R Hand/scale/Input",
      "type": "SCALAR"
    },
    {
      "bufferView": 84,
      "componentType": 5126,
      "count": 1,
      "name": "Bip001 L Thigh/translation/Output",
      "type": "VEC3"
    },
    {
      "bufferView": 85,
      "componentType": 5126,
      "count": 1,
      "max": [
        0.6666666865348816
      ],
      "min": [
        0.6666666865348816
      ],
      "name": "Bip001 L Thigh/translation/Input",
      "type": "SCALAR"
    },
    {
      "bufferView": 86,
      "componentType": 5126,
      "count": 21,
      "name": "Bip001 L Thigh/rotation/Output",
      "type": "VEC4"
    },
    {
      "bufferView": 87,
      "componentType": 5126,
      "count": 21,
      "max": [
        0.6666666865348816
      ],
      "min": [
        0.0
      ],
      "name": "Bip001 L Thigh/rotation/Input",
      "type": "SCALAR"
    },
    {
      "bufferView": 88,
      "componentType": 5126,
      "count": 1,
      "name": "Bip001 L Thigh/scale/Output",
      "type": "VEC3"
    },
    {
      "bufferView": 89,
      "componentType": 5126,
      "count": 1,
      "max": [
        0.6666666865348816
      ],
      "min": [
        0.6666666865348816
      ],
      "name": "Bip001 L Thigh/scale/Input",
      "type": "SCALAR"
    },
    {
      "bufferView": 90,
      "componentType": 5126,
      "count": 5,
      "name": "Bip001 L Calf/translation/Output",
      "type": "VEC3"
    },
    {
      "bufferView": 91,
      "componentType": 5126,
      "count": 5,
      "max": [
        0.6000000238418579
      ],
      "min": [
        0.36666667461395264
      ],
      "name": "Bip001 L Calf/translation/Input",
      "type": "SCALAR"
    },
    {
      "bufferView": 92,
      "componentType": 5126,
      "count": 21,
      "name": "Bip001 L Calf/rotation/Output",
      "type": "VEC4"
    },
    {
      "bufferView": 93,
      "componentType": 5126,
      "count": 21,
      "max": [
        0.6666666865348816
      ],
      "min": [
        0.0
      ],
      "name": "Bip001 L Calf/rotation/Input",
      "type": "SCALAR"
    },
    {
      "bufferView": 94,
      "componentType": 5126,
      "count": 1,
      "name": "Bip001 L Calf/scale/Output",
      "type": "VEC3"
    },
    {
      "bufferView": 95,
      "componentType": 5126,
      "count": 1,
      "max": [
        0.6666666865348816
      ],
      "min": [
        0.6666666865348816
      ],
      "name": "Bip001 L Calf/scale/Input",
      "type": "SCALAR"
    },
    {
      "bufferView": 96,
      "componentType": 5126,
      "count": 4,
      "name": "Bip001 L Foot/translation/Output",
      "type": "VEC3"
    },
    {
      "bufferView": 97,
      "componentType": 5126,
      "count": 4,
      "max": [
        0.6666666865348816
      ],
      "min": [
        0.0
      ],
      "name": "Bip001 L Foot/translation/Input",
      "type": "SCALAR"
    },
    {
      "bufferView": 98,
      "componentType": 5126,
      "count": 21,
      "name": "Bip001 L Foot/rotation/Output",
      "type": "VEC4"
    },
    {
      "bufferView": 99,
      "componentType": 5126,
      "count": 21,
      "max": [
        0.6666666865348816
      ],
      "min": [
        0.0
      ],
      "name": "Bip001 L Foot/rotation/Input",
      "type": "SCALAR"
    },
    {
      "bufferView": 100,
      "componentType": 5126,
      "count": 1,
      "name": "Bip001 L Foot/scale/Output",
      "type": "VEC3"
    },
    {
      "bufferView": 101,
      "componentType": 5126,
      "count": 1,
      "max": [
        0.6666666865348816
      ],
      "min": [
        0.6666666865348816
      ],
      "name": "Bip001 L Foot/scale/Input",
      "type": "SCALAR"
    },
    {
      "bufferView": 102,
      "componentType": 5126,
      "count": 1,
      "name": "Bip001 L Toe0/translation/Output",
      "type": "VEC3"
    },
    {
      "bufferView": 103,
      "componentType": 5126,
      "count": 1,
      "max": [
        0.6666666865348816
      ],
      "min": [
        0.6666666865348816
      ],
      "name": "Bip001 L Toe0/translation/Input",
      "type": "SCALAR"
    },
    {
      "bufferView": 104,
      "componentType": 5126,
      "count": 20,
      "name": "Bip001 L Toe0/rotation/Output",
      "type": "VEC4"
    },
    {
      "bufferView": 105,
      "componentType": 5126,
      "count": 20,
      "max": [
        0.6666666865348816
      ],
      "min": [
        0.0
      ],
      "name": "Bip001 L Toe0/rotation/Input",
      "type": "SCALAR"
    },
    {
      "bufferView": 106,
      "componentType": 5126,
      "count": 1,
      "name": "Bip001 L Toe0/scale/Output",
      "type": "VEC3"
    },
    {
      "bufferView": 107,
      "componentType": 5126,
      "count": 1,
      "max": [
        0.6666666865348816
      ],
      "min": [
        0.6666666865348816
      ],
      "name": "Bip001 L Toe0/scale/Input",
      "type": "SCALAR"
    },
    {
      "bufferView": 108,
      "componentType": 5126,
      "count": 5,
      "name": "Bip001 R Thigh/translation/Output",
      "type": "VEC3"
    },
    {
      "bufferView": 109,
      "componentType": 5126,
      "count": 5,
      "max": [
        0.5666666626930237
      ],
      "min": [
        0.30000001192092896
      ],
      "name": "Bip001 R Thigh/translation/Input",
      "type": "SCALAR"
    },
    {
      "bufferView": 110,
      "componentType": 5126,
      "count": 21,
      "name": "Bip001 R Thigh/rotation/Output",
      "type": "VEC4"
    },
    {
      "bufferView": 111,
      "componentType": 5126,
      "count": 21,
      "max": [
        0.6666666865348816
      ],
      "min": [
        0.0
      ],
      "name": "Bip001 R Thigh/rotation/Input",
      "type": "SCALAR"
    },
    {
      "bufferView": 112,
      "componentType": 5126,
      "count": 1,
      "name": "Bip001 R Thigh/scale/Output",
      "type": "VEC3"
    },
    {
      "bufferView": 113,
      "componentType": 5126,
      "count": 1,
      "max": [
        0.6666666865348816
      ],
      "min": [
        0.6666666865348816
      ],
      "name": "Bip001 R Thigh/scale/Input",
      "type": "SCALAR"
    },
    {
      "bufferView": 114,
      "componentType": 5126,
      "count": 5,
      "name": "Bip001 R Calf/translation/Output",
      "type": "VEC3"
    },
    {
      "bufferView": 115,
      "componentType": 5126,
      "count": 5,
      "max": [
        0.23333333432674408
      ],
      "min": [
        0.0
      ],
      "name": "Bip001 R Calf/translation/Input",
      "type": "SCALAR"
    },
    {
      "bufferView": 116,
      "componentType": 5126,
      "count": 21,
      "name": "Bip001 R Calf/rotation/Output",
      "type": "VEC4"
    },
    {
      "bufferView": 117,
      "componentType": 5126,
      "count": 21,
      "max": [
        0.6666666865348816
      ],
      "min": [
        0.0
      ],
      "name": "Bip001 R Calf/rotation/Input",
      "type": "SCALAR"
    },
    {
      "bufferView": 118,
      "componentType": 5126,
      "count": 1,
      "name": "Bip001 R Calf/scale/Output",
      "type": "VEC3"
    },
    {
      "bufferView": 119,
      "componentType": 5126,
      "count": 1,
      "max": [
        0.6666666865348816
      ],
      "min": [
        0.6666666865348816
      ],
      "name": "Bip001 R Calf/scale/Input",
      "type": "SCALAR"
    },
    {
      "bufferView": 120,
      "componentType": 5126,
      "count": 3,
      "name": "Bip001 R Foot/translation/Output",
      "type": "VEC3"
    },
    {
      "bufferView": 121,
      "componentType": 5126,
      "count": 3,
      "max": [
        0.5666666626930237
      ],
      "min": [
        0.0
      ],
      "name": "Bip001 R Foot/translation/Input",
      "type": "SCALAR"
    },
    {
      "bufferView": 122,
      "componentType": 5126,
      "count": 21,
      "name": "Bip001 R Foot/rotation/Output",
      "type": "VEC4"
    },
    {
      "bufferView": 123,
      "componentType": 5126,
      "count": 21,
      "max": [
        0.6666666865348816
      ],
      "min": [
        0.0
      ],
      "name": "Bip001 R Foot/rotation/Input",
      "type": "SCALAR"
    },
    {
      "bufferView": 124,
      "componentType": 5126,
      "count": 1,
      "name": "Bip001 R Foot/scale/Output",
      "type": "VEC3"
    },
    {
      "bufferView": 125,
      "componentType": 5126,
      "count": 1,
      "max": [
        0.6666666865348816
      ],
      "min": [
        0.6666666865348816
      ],
      "name": "Bip001 R Foot/scale/Input",
      "type": "SCALAR"
    },
    {
      "bufferView": 126,
      "componentType": 5126,
      "count": 1,
      "name": "Bip001 R Toe0/translation/Output",
      "type": "VEC3"
    },
    {
      "bufferView": 127,
      "componentType": 5126,
      "count": 1,
      "max": [
        0.6666666865348816
      ],
      "min": [
        0.6666666865348816
      ],
      "name": "Bip001 R Toe0/translation/Input",
      "type": "SCALAR"
    },
    {
      "bufferView": 128,
      "componentType": 5126,
      "count": 1,
      "name": "Bip001 R Toe0/rotation/Output",
      "type": "VEC4"
    },
    {
      "bufferView": 129,
      "componentType": 5126,
      "count": 1,
      "max": [
        0.6666666865348816
      ],
      "min": [
        0.6666666865348816
      ],
      "name": "Bip001 R Toe0/rotation/Input",
      "type": "SCALAR"
    },
    {
      "bufferView": 130,
      "componentType": 5126,
      "count": 1,
      "name": "Bip001 R Toe0/scale/Output",
      "type": "VEC3"
    },
    {
      "bufferView": 131,
      "componentType": 5126,
      "count": 1,
      "max": [
        0.6666666865348816
      ],
      "min": [
        0.6666666865348816
      ],
      "name": "Bip001 R Toe0/scale/Input",
      "type": "SCALAR"
    }
  ],
  "animations": [
    {
      "channels": [
        {
          "sampler": 0,
          "target": {
            "node": 0,
            "path": "translation"
          }
        },
        {
          "sampler": 1,
          "target": {
            "node": 0,
            "path": "rotation"
          }
        },
        {
          "sampler": 2,
          "target": {
            "node": 0,
            "path": "scale"
          }
        },
        {
          "sampler": 3,
          "target": {
            "node": 1,
            "path": "translation"
          }
        },
        {
          "sampler": 4,
          "target": {
            "node": 1,
            "path": "rotation"
          }
        },
        {
          "sampler": 5,
          "target": {
            "node": 1,
            "path": "scale"
          }
        },
        {
          "sampler": 6,
          "target": {
            "node": 2,
            "path": "translation"
          }
        },
        {
          "sampler": 7,
          "target": {
            "node": 2,
            "path": "rotation"
          }
        },
        {
          "sampler": 8,
          "target": {
            "node": 2,
            "path": "scale"
          }
        },
        {
          "sampler": 9,
          "target": {
            "node": 3,
            "path": "translation"
          }
        },
        {
          "sampler": 10,
          "target": {
            "node": 3,
            "path": "rotation"
          }
        },
        {
          "sampler": 11,
          "target": {
            "node": 3,
            "path": "scale"
          }
        },
        {
          "sampler": 12,
          "target": {
            "node": 4,
            "path": "translation"
          }
        },
        {
          "sampler": 13,
          "target": {
            "node": 4,
            "path": "rotation"
          }
        },
        {
          "sampler": 14,
          "target": {
            "node": 4,
            "path": "scale"
          }
        },
        {
          "sampler": 15,
          "target": {
            "node": 5,
            "path": "translation"
          }
        },
        {
          "sampler": 16,
          "target": {
            "node": 5,
            "path": "rotation"
          }
        },
        {
          "sampler": 17,
          "target": {
            "node": 5,
            "path": "scale"
          }
        },
        {
          "sampler": 18,
          "target": {
            "node": 6,
            "path": "translation"
          }
        },
        {
          "sampler": 19,
          "target": {
            "node": 6,
            "path": "rotation"
          }
        },
        {
          "sampler": 20,
          "target": {
            "node": 6,
            "path": "scale"
          }
        },
        {
          "sampler": 21,
          "target": {
            "node": 7,
            "path": "translation"
          }
        },
        {
          "sampler": 22,
          "target": {
            "node": 7,
            "path": "rotation"
          }
        },
        {
          "sampler": 23,
          "target": {
            "node": 7,
            "path": "scale"
          }
        },
        {
          "sampler": 24,
          "target": {
            "node": 8,
            "path": "translation"
          }
        },
        {
          "sampler": 25,
          "target": {
            "node": 8,
            "path": "rotation"
          }
        },
        {
          "sampler": 26,
          "target": {
            "node": 8,
            "path": "scale"
          }
        },
        {
          "sampler": 27,
          "target": {
            "node": 9,
            "path": "translation"
          }
        },
        {
          "sampler": 28,
          "target": {
            "node": 9,
            "path": "rotation"
          }
        },
        {
          "sampler": 29,
          "target": {
            "node": 9,
            "path": "scale"
          }
        },
        {
          "sampler": 30,
          "target": {
            "node": 10,
            "path": "translation"
          }
        },
        {
          "sampler": 31,
          "target": {
            "node": 10,
            "path": "rotation"
          }
        },
        {
          "sampler": 32,
          "target": {
            "node": 10,
            "path": "scale"
          }
        },
        {
          "sampler": 33,
          "target": {
            "node": 11,
            "path": "translation"
          }
        },
        {
          "sampler": 34,
          "target": {
            "node": 11,
            "path": "rotation"
          }
        },
        {
          "sampler": 35,
          "target": {
            "node": 11,
            "path": "scale"
          }
        },
        {
          "sampler": 36,
          "target": {
            "node": 12,
            "path": "translation"
          }
        },
        {
          "sampler": 37,
          "target": {
            "node": 12,
            "path": "rotation"
          }
        },
        {
          "sampler": 38,
          "target": {
            "node": 12,
            "path": "scale"
          }
        },
        {
          "sampler": 39,
          "target": {
            "node": 13,
            "path": "translation"
          }
        },
        {
          "sampler": 40,
          "target": {
            "node": 13,
            "path": "rotation"
          }
        },
        {
          "sampler": 41,
          "target": {
            "node": 13,
            "path": "scale"
          }
        },
        {
          "sampler": 42,
          "target": {
            "node": 14,
            "path": "translation"
          }
        },
        {
          "sampler": 43,
          "target": {
            "node": 14,
            "path": "rotation"
          }
        },
        {
          "sampler": 44,
          "target": {
            "node": 14,
            "path": "scale"
          }
        },
        {
          "sampler": 45,
          "target": {
            "node": 15,
            "path": "translation"
          }
        },
        {
          "sampler": 46,
          "target": {
            "node": 15,
            "path": "rotation"
          }
        },
        {
          "sampler": 47,
          "target": {
            "node": 15,
            "path": "scale"
          }
        },
        {
          "sampler": 48,
          "target": {
            "node": 16,
            "path": "translation"
          }
        },
        {
          "sampler": 49,
          "target": {
            "node": 16,
            "path": "rotation"
          }
        },
        {
          "sampler": 50,
          "target": {
            "node": 16,
            "path": "scale"
          }
        },
        {
          "sampler": 51,
          "target": {
            "node": 17,
            "path": "translation"
          }
        },
        {
          "sampler": 52,
          "target": {
            "node": 17,
            "path": "rotation"
          }
        },
        {
          "sampler": 53,
          "target": {
            "node": 17,
            "path": "scale"
          }
        },
        {
          "sampler": 54,
          "target": {
            "node": 18,
            "path": "translation"
          }
        },
        {
          "sampler": 55,
          "target": {
            "node": 18,
            "path": "rotation"
          }
        },
        {
          "sampler": 56,
          "target": {
            "node": 18,
            "path": "scale"
          }
        },
        {
          "sampler": 57,
          "target": {
            "node": 19,
            "path": "translation"
          }
        },
        {
          "sampler": 58,
          "target": {
            "node": 19,
            "path": "rotation"
          }
        },
        {
          "sampler": 59,
          "target": {
            "node": 19,
            "path": "scale"
          }
        },
        {
          "sampler": 60,
          "target": {
            "node": 20,
            "path": "translation"
          }
        },
        {
          "sampler": 61,
          "target": {
            "node": 20,
            "path": "rotation"
          }
        },
        {
          "sampler": 62,
          "target": {
            "node": 20,
            "path": "scale"
          }
        },
        {
          "sampler": 63,
          "target": {
            "node": 21,
            "path": "translation"
          }
        },
        {
          "sampler": 64,
          "target": {
            "node": 21,
            "path": "rotation"
          }
        },
        {
          "sampler": 65,
          "target": {
            "node": 21,
            "path": "scale"
          }
        }
      ],
      "name": "Take 001",
      "samplers": [
        {
          "input": 1,
          "output": 0
        },
        {
          "input": 3,
          "output": 2
        },
        {
          "input": 5,
          "output": 4
        },
        {
          "input": 7,
          "output": 6
        },
        {
          "input": 9,
          "output": 8
        },
        {
          "input": 11,
          "output": 10
        },
        {
          "input": 13,
          "output": 12
        },
        {
          "input": 15,
          "output": 14
        },
        {
          "input": 17,
          "output": 16
        },
        {
          "input": 19,
          "output": 18
        },
        {
          "input": 21,
          "output": 20
        },
        {
          "input": 23,
          "output": 22
        },
        {
          "input": 25,
          "output": 24
        },
        {
          "input": 27,
          "output": 26
        },
        {
          "input": 29,
          "output": 28
        },
        {
          "input": 31,
          "output": 30
        },
        {
          "input": 33,
          "output": 32
        },
        {
          "input": 35,
          "output": 34
        },
        {
          "input": 37,
          "output": 36
        },
        {
          "input": 39,
          "output": 38
        },
        {
          "input": 41,
          "output": 40
        },
        {
          "input": 43,
          "output": 42
        },
        {
          "input": 45,
          "output": 44
        },
        {
          "input": 47,
          "output": 46
        },
        {
          "input": 49,
          "output": 48
        },
        {
          "input": 51,
          "output": 50
        },
        {
          "input": 53,
          "output": 52
        },
        {
          "input": 55,
          "output": 54
        },
        {
          "input": 57,
          "output": 56
        },
        {
          "input": 59,
          "output": 58
        },
        {
          "input": 61,
          "output": 60
        },
        {
          "input": 63,
          "output": 62
        },
        {
          "input": 65,
          "output": 64
        },
        {
          "input": 67,
          "output": 66
        },
        {
          "input": 69,
          "output": 68
        },
        {
          "input": 71,
          "output": 70
        },
        {
          "input": 73,
          "output": 72
        },
        {
          "input": 75,
          "output": 74
        },
        {
          "input": 77,
          "output": 76
        },
        {
          "input": 79,
          "output": 78
        },
        {
          "input": 81,
          "output": 80
        },
        {
          "input": 83,
          "output": 82
        },
        {
          "input": 85,
          "output": 84
        },
        {
          "input": 87,
          "output": 86
        },
        {
          "input": 89,
          "output": 88
        },
        {
          "input": 91,
          "output": 90
        },
        {
          "input": 93,
          "output": 92
        },
        {
          "input": 95,
          "output": 94
        },
        {
          "input": 97,
          "output": 96
        },
        {
          "input": 99,
          "output": 98
        },
        {
          "input": 101,
          "output": 100
        },
        {
          "input": 103,
          "output": 102
        },
        {
          "input": 105,
          "output": 104
        },
        {
          "input": 107,
          "output": 106
        },
        {
          "input": 109,
          "output": 108
        },
        {
          "input": 111,
          "output": 110
        },
        {
          "input": 113,
          "output": 112
        },
        {
          "input": 115,
          "output": 114
        },
        {
          "input": 117,
          "output": 116
        },
        {
          "input": 119,
          "output": 118
        },
        {
          "input": 121,
          "output": 120
        },
        {
          "input": 123,
          "output": 122
        },
        {
          "input": 125,
          "output": 124
        },
        {
          "input": 127,
          "output": 126
        },
        {
          "input": 129,
          "output": 128
        },
        {
          "input": 131,
          "output": 130
        }
      ]
    }
  ],
  "asset": {
    "copyright": "Copyright (c) 2018-2020 Chukong Technologies Inc.",
    "generator": "FBX-glTF-conv",
    "version": "2.0"
  },
  "bufferViews": [
    {
      "buffer": 0,
      "byteLength": 252
    },
    {
      "buffer": 0,
      "byteLength": 84,
      "byteOffset": 252
    },
    {
      "buffer": 0,
      "byteLength": 336,
      "byteOffset": 336
    },
    {
      "buffer": 0,
      "byteLength": 84,
      "byteOffset": 672
    },
    {
      "buffer": 0,
      "byteLength": 12,
      "byteOffset": 756
    },
    {
      "buffer": 0,
      "byteLength": 4,
      "byteOffset": 768
    },
    {
      "buffer": 0,
      "byteLength": 12,
      "byteOffset": 772
    },
    {
      "buffer": 0,
      "byteLength": 4,
      "byteOffset": 784
    },
    {
      "buffer": 0,
      "byteLength": 16,
      "byteOffset": 788
    },
    {
      "buffer": 0,
      "byteLength": 4,
      "byteOffset": 804
    },
    {
      "buffer": 0,
      "byteLength": 12,
      "byteOffset": 808
    },
    {
      "buffer": 0,
      "byteLength": 4,
      "byteOffset": 820
    },
    {
      "buffer": 0,
      "byteLength": 252,
      "byteOffset": 824
    },
    {
      "buffer": 0,
      "byteLength": 84,
      "byteOffset": 1076
    },
    {
      "buffer": 0,
      "byteLength": 336,
      "byteOffset": 1160
    },
    {
      "buffer": 0,
      "byteLength": 84,
      "byteOffset": 1496
    },
    {
      "buffer": 0,
      "byteLength": 12,
      "byteOffset": 1580
    },
    {
      "buffer": 0,
      "byteLength": 4,
      "byteOffset": 1592
    },
    {
      "buffer": 0,
      "byteLength": 252,
      "byteOffset": 1596
    },
    {
      "buffer": 0,
      "byteLength": 84,
      "byteOffset": 1848
    },
    {
      "buffer": 0,
      "byteLength": 336,
      "byteOffset": 1932
    },
    {
      "buffer": 0,
      "byteLength": 84,
      "byteOffset": 2268
    },
    {
      "buffer": 0,
      "byteLength": 12,
      "byteOffset": 2352
    },
    {
      "buffer": 0,
      "byteLength": 4,
      "byteOffset": 2364
    },
    {
      "buffer": 0,
      "byteLength": 252,
      "byteOffset": 2368
    },
    {
      "buffer": 0,
      "byteLength": 84,
      "byteOffset": 2620
    },
    {
      "buffer": 0,
      "byteLength": 336,
      "byteOffset": 2704
    },
    {
      "buffer": 0,
      "byteLength": 84,
      "byteOffset": 3040
    },
    {
      "buffer": 0,
      "byteLength": 12,
      "byteOffset": 3124
    },
    {
      "buffer": 0,
      "byteLength": 4,
      "byteOffset": 3136
    },
    {
      "buffer": 0,
      "byteLength": 108,
      "byteOffset": 3140
    },
    {
      "buffer": 0,
      "byteLength": 36,
      "byteOffset": 3248
    },
    {
      "buffer": 0,
      "byteLength": 336,
      "byteOffset": 3284
    },
    {
      "buffer": 0,
      "byteLength": 84,
      "byteOffset": 3620
    },
    {
      "buffer": 0,
      "byteLength": 12,
      "byteOffset": 3704
    },
    {
      "buffer": 0,
      "byteLength": 4,
      "byteOffset": 3716
    },
    {
      "buffer": 0,
      "byteLength": 72,
      "byteOffset": 3720
    },
    {
      "buffer": 0,
      "byteLength": 24,
      "byteOffset": 3792
    },
    {
      "buffer": 0,
      "byteLength": 336,
      "byteOffset": 3816
    },
    {
      "buffer": 0,
      "byteLength": 84,
      "byteOffset": 4152
    },
    {
      "buffer": 0,
      "byteLength": 12,
      "byteOffset": 4236
    },
    {
      "buffer": 0,
      "byteLength": 4,
      "byteOffset": 4248
    },
    {
      "buffer": 0,
      "byteLength": 96,
      "byteOffset": 4252
    },
    {
      "buffer": 0,
      "byteLength": 32,
      "byteOffset": 4348
    },
    {
      "buffer": 0,
      "byteLength": 336,
      "byteOffset": 4380
    },
    {
      "buffer": 0,
      "byteLength": 84,
      "byteOffset": 4716
    },
    {
      "buffer": 0,
      "byteLength": 12,
      "byteOffset": 4800
    },
    {
      "buffer": 0,
      "byteLength": 4,
      "byteOffset": 4812
    },
    {
      "buffer": 0,
      "byteLength": 60,
      "byteOffset": 4816
    },
    {
      "buffer": 0,
      "byteLength": 20,
      "byteOffset": 4876
    },
    {
      "buffer": 0,
      "byteLength": 336,
      "byteOffset": 4896
    },
    {
      "buffer": 0,
      "byteLength": 84,
      "byteOffset": 5232
    },
    {
      "buffer": 0,
      "byteLength": 12,
      "byteOffset": 5316
    },
    {
      "buffer": 0,
      "byteLength": 4,
      "byteOffset": 5328
    },
    {
      "buffer": 0,
      "byteLength": 60,
      "byteOffset": 5332
    },
    {
      "buffer": 0,
      "byteLength": 20,
      "byteOffset": 5392
    },
    {
      "buffer": 0,
      "byteLength": 336,
      "byteOffset": 5412
    },
    {
      "buffer": 0,
      "byteLength": 84,
      "byteOffset": 5748
    },
    {
      "buffer": 0,
      "byteLength": 12,
      "byteOffset": 5832
    },
    {
      "buffer": 0,
      "byteLength": 4,
      "byteOffset": 5844
    },
    {
      "buffer": 0,
      "byteLength": 144,
      "byteOffset": 5848
    },
    {
      "buffer": 0,
      "byteLength": 48,
      "byteOffset": 5992
    },
    {
      "buffer": 0,
      "byteLength": 336,
      "byteOffset": 6040
    },
    {
      "buffer": 0,
      "byteLength": 84,
      "byteOffset": 6376
    },
    {
      "buffer": 0,
      "byteLength": 12,
      "byteOffset": 6460
    },
    {
      "buffer": 0,
      "byteLength": 4,
      "byteOffset": 6472
    },
    {
      "buffer": 0,
      "byteLength": 96,
      "byteOffset": 6476
    },
    {
      "buffer": 0,
      "byteLength": 32,
      "byteOffset": 6572
    },
    {
      "buffer": 0,
      "byteLength": 336,
      "byteOffset": 6604
    },
    {
      "buffer": 0,
      "byteLength": 84,
      "byteOffset": 6940
    },
    {
      "buffer": 0,
      "byteLength": 12,
      "byteOffset": 7024
    },
    {
      "buffer": 0,
      "byteLength": 4,
      "byteOffset": 7036
    },
    {
      "buffer": 0,
      "byteLength": 120,
      "byteOffset": 7040
    },
    {
      "buffer": 0,
      "byteLength": 40,
      "byteOffset": 7160
    },
    {
      "buffer": 0,
      "byteLength": 336,
      "byteOffset": 7200
    },
    {
      "buffer": 0,
      "byteLength": 84,
      "byteOffset": 7536
    },
    {
      "buffer": 0,
      "byteLength": 12,
      "byteOffset": 7620
    },
    {
      "buffer": 0,
      "byteLength": 4,
      "byteOffset": 7632
    },
    {
      "buffer": 0,
      "byteLength": 120,
      "byteOffset": 7636
    },
    {
      "buffer": 0,
      "byteLength": 40,
      "byteOffset": 7756
    },
    {
      "buffer": 0,
      "byteLength": 336,
      "byteOffset": 7796
    },
    {
      "buffer": 0,
      "byteLength": 84,
      "byteOffset": 8132
    },
    {
      "buffer": 0,
      "byteLength": 12,
      "byteOffset": 8216
    },
    {
      "buffer": 0,
      "byteLength": 4,
      "byteOffset": 8228
    },
    {
      "buffer": 0,
      "byteLength": 12,
      "byteOffset": 8232
    },
    {
      "buffer": 0,
      "byteLength": 4,
      "byteOffset": 8244
    },
    {
      "buffer": 0,
      "byteLength": 336,
      "byteOffset": 8248
    },
    {
      "buffer": 0,
      "byteLength": 84,
      "byteOffset": 8584
    },
    {
      "buffer": 0,
      "byteLength": 12,
      "byteOffset": 8668
    },
    {
      "buffer": 0,
      "byteLength": 4,
      "byteOffset": 8680
    },
    {
      "buffer": 0,
      "byteLength": 60,
      "byteOffset": 8684
    },
    {
      "buffer": 0,
      "byteLength": 20,
      "byteOffset": 8744
    },
    {
      "buffer": 0,
      "byteLength": 336,
      "byteOffset": 8764
    },
    {
      "buffer": 0,
      "byteLength": 84,
      "byteOffset": 9100
    },
    {
      "buffer": 0,
      "byteLength": 12,
      "byteOffset": 9184
    },
    {
      "buffer": 0,
      "byteLength": 4,
      "byteOffset": 9196
    },
    {
      "buffer": 0,
      "byteLength": 48,
      "byteOffset": 9200
    },
    {
      "buffer": 0,
      "byteLength": 16,
      "byteOffset": 9248
    },
    {
      "buffer": 0,
      "byteLength": 336,
      "byteOffset": 9264
    },
    {
      "buffer": 0,
      "byteLength": 84,
      "byteOffset": 9600
    },
    {
      "buffer": 0,
      "byteLength": 12,
      "byteOffset": 9684
    },
    {
      "buffer": 0,
      "byteLength": 4,
      "byteOffset": 9696
    },
    {
      "buffer": 0,
      "byteLength": 12,
      "byteOffset": 9700
    },
    {
      "buffer": 0,
      "byteLength": 4,
      "byteOffset": 9712
    },
    {
      "buffer": 0,
      "byteLength": 320,
      "byteOffset": 9716
    },
    {
      "buffer": 0,
      "byteLength": 80,
      "byteOffset": 10036
    },
    {
      "buffer": 0,
      "byteLength": 12,
      "byteOffset": 10116
    },
    {
      "buffer": 0,
      "byteLength": 4,
      "byteOffset": 10128
    },
    {
      "buffer": 0,
      "byteLength": 60,
      "byteOffset": 10132
    },
    {
      "buffer": 0,
      "byteLength": 20,
      "byteOffset": 10192
    },
    {
      "buffer": 0,
      "byteLength": 336,
      "byteOffset": 10212
    },
    {
      "buffer": 0,
      "byteLength": 84,
      "byteOffset": 10548
    },
    {
      "buffer": 0,
      "byteLength": 12,
      "byteOffset": 10632
    },
    {
      "buffer": 0,
      "byteLength": 4,
      "byteOffset": 10644
    },
    {
      "buffer": 0,
      "byteLength": 60,
      "byteOffset": 10648
    },
    {
      "buffer": 0,
      "byteLength": 20,
      "byteOffset": 10708
    },
    {
      "buffer": 0,
      "byteLength": 336,
      "byteOffset": 10728
    },
    {
      "buffer": 0,
      "byteLength": 84,
      "byteOffset": 11064
    },
    {
      "buffer": 0,
      "byteLength": 12,
      "byteOffset": 11148
    },
    {
      "buffer": 0,
      "byteLength": 4,
      "byteOffset": 11160
    },
    {
      "buffer": 0,
      "byteLength": 36,
      "byteOffset": 11164
    },
    {
      "buffer": 0,
      "byteLength": 12,
      "byteOffset": 11200
    },
    {
      "buffer": 0,
      "byteLength": 336,
      "byteOffset": 11212
    },
    {
      "buffer": 0,
      "byteLength": 84,
      "byteOffset": 11548
    },
    {
      "buffer": 0,
      "byteLength": 12,
      "byteOffset": 11632
    },
    {
      "buffer": 0,
      "byteLength": 4,
      "byteOffset": 11644
    },
    {
      "buffer": 0,
      "byteLength": 12,
      "byteOffset": 11648
    },
    {
      "buffer": 0,
      "byteLength": 4,
      "byteOffset": 11660
    },
    {
      "buffer": 0,
      "byteLength": 16,
      "byteOffset": 11664
    },
    {
      "buffer": 0,
      "byteLength": 4,
      "byteOffset": 11680
    },
    {
      "buffer": 0,
      "byteLength": 12,
      "byteOffset": 11684
    },
    {
      "buffer": 0,
      "byteLength": 4,
      "byteOffset": 11696
    }
  ],
  "buffers": [
    {
      "byteLength": 11700,
      "uri": "out.bin"
    }
  ],
  "extras": {
    "FBX-glTF-conv": {
      "animationFrameRate": 30.0,
      "fbxFileHeaderInfo": {
        "creationTimeStamp": {
          "day": 21,
          "hour": 17,
          "millisecond": 550,
          "minute": 20,
          "month": 5,
          "second": 54,
          "year": 2026
        },
        "creator": "FBX SDK/FBX Plugins version 2020.3.2",
        "sceneInfo": {
          "author": "",
          "comment": "",
          "keywords": "",
          "original": {
            "applicationName": "3ds Max",
            "applicationVendor": "Autodesk",
            "applicationVersion": "2024",
            "fileName": "\\\\192.168.5.190\\Playable\\T-The War\\1.美术资源\\3D模型\\胖丧尸\\fbx\\胖丧尸_攻击.fbx"
          },
          "revision": "",
          "subject": "",
          "title": "",
          "url": "D:\\工程项目\\test_pro\\test_pro\\HYQ_Project\\assets\\GameRes\\FBX\\Monster\\胖丧尸_攻击.fbx"
        }
      }
    }
  },
  "nodes": [
    {
      "children": [
        1
      ],
      "extras": {
        "FBX-glTF-conv": {
          "skeleton": {
            "skeletonType": "Root"
          }
        }
      },
      "name": "Bip001",
      "rotation": [
        0.4249621331691742,
        0.5791754126548767,
        0.5622225999832153,
        -0.4097179174423218
      ],
      "translation": [
        0.007164306472986937,
        0.8997977375984192,
        -0.004605344031006098
      ]
    },
    {
      "children": [
        2,
        14,
        18
      ],
      "extras": {
        "FBX-glTF-conv": {
          "skeleton": {
            "skeletonType": "LimbNode"
          }
        }
      },
      "name": "Bip001 Pelvis",
      "rotation": [
        -0.5000000596046448,
        -0.4999999701976776,
        -0.49999943375587463,
        0.500000536441803
      ]
    },
    {
      "children": [
        3
      ],
      "extras": {
        "FBX-glTF-conv": {
          "skeleton": {
            "skeletonType": "LimbNode"
          }
        }
      },
      "name": "Bip001 Spine",
      "rotation": [
        -0.0759778693318367,
        -0.009968218393623829,
        0.014618542045354843,
        0.9969525337219238
      ],
      "translation": [
        0.09199737757444382,
        -0.05976007506251335,
        2.7983189283986576e-05
      ]
    },
    {
      "children": [
        4,
        6,
        10
      ],
      "extras": {
        "FBX-glTF-conv": {
          "skeleton": {
            "skeletonType": "LimbNode"
          }
        }
      },
      "name": "Bip001 Spine1",
      "rotation": [
        0.0724637359380722,
        -0.05252070352435112,
        0.11502151936292648,
        0.9893233180046082
      ],
      "translation": [
        0.23062339425086975,
        -0.0002200651215389371,
        -3.0012130082468502e-05
      ]
    },
    {
      "children": [
        5
      ],
      "extras": {
        "FBX-glTF-conv": {
          "skeleton": {
            "skeletonType": "LimbNode"
          }
        }
      },
      "name": "Bip001 Neck",
      "rotation": [
        0.14955778419971466,
        0.011652751825749874,
        0.053230833262205124,
        0.9872503280639648
      ],
      "translation": [
        0.29719650745391846,
        -0.02460254728794098,
        -1.6641617548884824e-05
      ]
    },
    {
      "extras": {
        "FBX-glTF-conv": {
          "skeleton": {
            "skeletonType": "LimbNode"
          }
        }
      },
      "name": "Bip001 Head",
      "rotation": [
        0.05389201641082764,
        0.19480350613594055,
        0.08281951397657394,
        0.9758525490760803
      ],
      "translation": [
        0.06866821646690369,
        0.01300609577447176,
        -8.881783998477905e-18
      ]
    },
    {
      "children": [
        7
      ],
      "extras": {
        "FBX-glTF-conv": {
          "skeleton": {
            "skeletonType": "LimbNode"
          }
        }
      },
      "name": "Bip001 L Clavicle",
      "rotation": [
        0.7185447812080383,
        -0.09844963252544403,
        0.6806735992431641,
        -0.10336601734161377
      ],
      "translation": [
        0.2356654405593872,
        -0.026114845648407936,
        0.10991609841585159
      ]
    },
    {
      "children": [
        8
      ],
      "extras": {
        "FBX-glTF-conv": {
          "skeleton": {
            "skeletonType": "LimbNode"
          }
        }
      },
      "name": "Bip001 L UpperArm",
      "rotation": [
        -0.05926771089434624,
        0.6424822807312012,
        0.024824516847729683,
        0.7636017203330994
      ],
      "translation": [
        0.1403508335351944,
        3.814697180359872e-08,
        0.0
      ]
    },
    {
      "children": [
        9
      ],
      "extras": {
        "FBX-glTF-conv": {
          "skeleton": {
            "skeletonType": "LimbNode"
          }
        }
      },
      "name": "Bip001 L Forearm",
      "rotation": [
        -7.19348686156125e-18,
        -2.905005578522183e-18,
        -0.07975193858146667,
        0.9968147277832031
      ],
      "translation": [
        0.23130370676517487,
        -3.552713599391162e-17,
        3.814697180359872e-08
      ]
    },
    {
      "extras": {
        "FBX-glTF-conv": {
          "skeleton": {
            "skeletonType": "LimbNode"
          }
        }
      },
      "name": "Bip001 L Hand",
      "rotation": [
        -0.6962172985076904,
        0.1601579487323761,
        -0.07970071583986282,
        0.6951825022697449
      ],
      "translation": [
        0.2684466540813446,
        -9.53674295089968e-09,
        -3.814697180359872e-08
      ]
    },
    {
      "children": [
        11
      ],
      "extras": {
        "FBX-glTF-conv": {
          "skeleton": {
            "skeletonType": "LimbNode"
          }
        }
      },
      "name": "Bip001 R Clavicle",
      "rotation": [
        0.7185450196266174,
        -0.09844774752855301,
        -0.6806738972663879,
        0.10336402803659439
      ],
      "translation": [
        0.2356654405593872,
        -0.02611423470079899,
        -0.10991623252630234
      ]
    },
    {
      "children": [
        12
      ],
      "extras": {
        "FBX-glTF-conv": {
          "skeleton": {
            "skeletonType": "LimbNode"
          }
        }
      },
      "name": "Bip001 R UpperArm",
      "rotation": [
        -0.09158997237682343,
        -0.6101682782173157,
        -0.0020230694208294153,
        0.7869573831558228
      ],
      "translation": [
        0.1403508335351944,
        -1.907348590179936e-08,
        1.5258788721439487e-07
      ]
    },
    {
      "children": [
        13
      ],
      "extras": {
        "FBX-glTF-conv": {
          "skeleton": {
            "skeletonType": "LimbNode"
          }
        }
      },
      "name": "Bip001 R Forearm",
      "rotation": [
        -3.515776676318219e-17,
        -1.7454953527857176e-17,
        -0.3189055025577545,
        0.9477865099906921
      ],
      "translation": [
        0.23130370676517487,
        0.0,
        -1.4210854397564648e-16
      ]
    },
    {
      "extras": {
        "FBX-glTF-conv": {
          "skeleton": {
            "skeletonType": "LimbNode"
          }
        }
      },
      "name": "Bip001 R Hand",
      "rotation": [
        0.5683855414390564,
        -0.020733851939439774,
        0.16225934028625488,
        0.8063373565673828
      ],
      "translation": [
        0.2684466540813446,
        -9.53674295089968e-09,
        -1.5258788721439487e-07
      ]
    },
    {
      "children": [
        15
      ],
      "extras": {
        "FBX-glTF-conv": {
          "skeleton": {
            "skeletonType": "LimbNode"
          }
        }
      },
      "name": "Bip001 L Thigh",
      "rotation": [
        0.15581807494163513,
        0.9343382716178894,
        0.30593061447143555,
        -0.09559887647628784
      ],
      "translation": [
        -1.5258788721439487e-07,
        2.1934509675247682e-07,
        0.13230794668197632
      ]
    },
    {
      "children": [
        16
      ],
      "extras": {
        "FBX-glTF-conv": {
          "skeleton": {
            "skeletonType": "LimbNode"
          }
        }
      },
      "name": "Bip001 L Calf",
      "rotation": [
        -5.530793942453315e-17,
        7.042949916243949e-18,
        -0.21836210787296295,
        0.9758678078651428
      ],
      "translation": [
        0.40254539251327515,
        7.105427198782324e-17,
        -1.907348590179936e-08
      ]
    },
    {
      "children": [
        17
      ],
      "extras": {
        "FBX-glTF-conv": {
          "skeleton": {
            "skeletonType": "LimbNode"
          }
        }
      },
      "name": "Bip001 L Foot",
      "rotation": [
        -0.07419957965612411,
        -0.04110366851091385,
        0.022297387942671776,
        0.9961464405059814
      ],
      "translation": [
        0.39813873171806335,
        -1.907348590179936e-08,
        1.907348590179936e-08
      ]
    },
    {
      "extras": {
        "FBX-glTF-conv": {
          "skeleton": {
            "skeletonType": "LimbNode"
          }
        }
      },
      "name": "Bip001 L Toe0",
      "rotation": [
        2.1439118427224457e-06,
        -9.565596883476246e-07,
        0.7071059346199036,
        0.7071076035499573
      ],
      "translation": [
        0.10792407393455505,
        0.13871048390865326,
        -9.53674295089968e-09
      ]
    },
    {
      "children": [
        19
      ],
      "extras": {
        "FBX-glTF-conv": {
          "skeleton": {
            "skeletonType": "LimbNode"
          }
        }
      },
      "name": "Bip001 R Thigh",
      "rotation": [
        0.06477707624435425,
        0.931484580039978,
        -0.32736989855766296,
        0.1448078751564026
      ],
      "translation": [
        2.288818308215923e-07,
        -1.4305115314527939e-07,
        -0.13230791687965393
      ]
    },
    {
      "children": [
        20
      ],
      "extras": {
        "FBX-glTF-conv": {
          "skeleton": {
            "skeletonType": "LimbNode"
          }
        }
      },
      "name": "Bip001 R Calf",
      "rotation": [
        -7.555011111361226e-18,
        -4.094213821636956e-17,
        -0.1814652979373932,
        0.983397364616394
      ],
      "translation": [
        0.40254536271095276,
        -1.907348590179936e-08,
        0.0
      ]
    },
    {
      "children": [
        21
      ],
      "extras": {
        "FBX-glTF-conv": {
          "skeleton": {
            "skeletonType": "LimbNode"
          }
        }
      },
      "name": "Bip001 R Foot",
      "rotation": [
        -0.004415220580995083,
        0.1016867533326149,
        0.06025969609618187,
        0.992979884147644
      ],
      "translation": [
        0.3981385827064514,
        -1.907348590179936e-08,
        0.0
      ]
    },
    {
      "extras": {
        "FBX-glTF-conv": {
          "skeleton": {
            "skeletonType": "LimbNode"
          }
        }
      },
      "name": "Bip001 R Toe0",
      "rotation": [
        0.006282665766775608,
        -0.006282164715230465,
        0.7070781588554382,
        0.7070795893669128
      ],
      "translation": [
        0.10792405903339386,
        0.13871049880981445,
        3.552713599391162e-17
      ]
    }
  ],
  "scenes": [
    {
      "nodes": [
        0
      ]
    }
  ]
}