{
  "accessors": [
    {
      "bufferView": 0,
      "componentType": 5126,
      "count": 788,
      "max": [
        11.640427589416504,
        345.3088684082031,
        21.700523376464844
      ],
      "min": [
        -11.640427589416504,
        5.971621036529541,
        -0.22305358946323395
      ],
      "name": "qiaoliang01_01/POSITION",
      "type": "VEC3"
    },
    {
      "bufferView": 0,
      "byteOffset": 12,
      "componentType": 5126,
      "count": 788,
      "name": "qiaoliang01_01/NORMAL",
      "type": "VEC3"
    },
    {
      "bufferView": 0,
      "byteOffset": 24,
      "componentType": 5126,
      "count": 788,
      "name": "qiaoliang01_01/TEXCOORD_0",
      "type": "VEC2"
    },
    {
      "bufferView": 1,
      "componentType": 5123,
      "count": 2748,
      "name": "qiaoliang01_01/INDICES",
      "type": "SCALAR"
    }
  ],
  "asset": {
    "copyright": "Copyright (c) 2018-2020 Chukong Technologies Inc.",
    "generator": "FBX-glTF-conv",
    "version": "2.0"
  },
  "bufferViews": [
    {
      "buffer": 0,
      "byteLength": 25216,
      "byteStride": 32,
      "name": "qiaoliang01_01",
      "target": 34962
    },
    {
      "buffer": 0,
      "byteLength": 5496,
      "byteOffset": 25216,
      "target": 34963
    }
  ],
  "buffers": [
    {
      "byteLength": 30712,
      "uri": "out.bin"
    }
  ],
  "extras": {
    "FBX-glTF-conv": {
      "animationFrameRate": 30.0,
      "fbxFileHeaderInfo": {
        "creationTimeStamp": {
          "day": 15,
          "hour": 16,
          "millisecond": 34,
          "minute": 42,
          "month": 5,
          "second": 26,
          "year": 2026
        },
        "creator": "FBX SDK/FBX Plugins version 2020.1.1",
        "sceneInfo": {
          "author": "",
          "comment": "",
          "keywords": "",
          "original": {
            "applicationName": "3ds Max",
            "applicationVendor": "Autodesk",
            "applicationVersion": "2022",
            "fileName": "D:\\PlayableAD\\Cocos\\TheW\\DotNoName\\DotNoNamePreject\\assets\\GameRes\\Environment\\Fbx\\qiaoliang01_01.fbx"
          },
          "revision": "",
          "subject": "",
          "title": "",
          "url": "D:\\工程项目\\test_pro\\test_pro\\HYQ_Project\\assets\\GameRes\\Environment\\Fbx\\qiaoliang01_01.fbx"
        }
      }
    }
  },
  "meshes": [
    {
      "name": "qiaoliang01_01",
      "primitives": [
        {
          "attributes": {
            "NORMAL": 1,
            "POSITION": 0,
            "TEXCOORD_0": 2
          },
          "indices": 3
        }
      ]
    }
  ],
  "nodes": [
    {
      "mesh": 0,
      "name": "qiaoliang01_01",
      "rotation": [
        -0.7071067690849304,
        -0.0,
        0.0,
        0.7071067690849304
      ]
    }
  ],
  "scenes": [
    {
      "nodes": [
        0
      ]
    }
  ]
}