{
  "accessors": [
    {
      "bufferView": 0,
      "componentType": 5126,
      "count": 31,
      "name": "Bip001/translation/Output",
      "type": "VEC3"
    },
    {
      "bufferView": 1,
      "componentType": 5126,
      "count": 31,
      "max": [
        1.0
      ],
      "min": [
        0.0
      ],
      "name": "Bip001/translation/Input",
      "type": "SCALAR"
    },
    {
      "bufferView": 2,
      "componentType": 5126,
      "count": 31,
      "name": "Bip001/rotation/Output",
      "type": "VEC4"
    },
    {
      "bufferView": 3,
      "componentType": 5126,
      "count": 31,
      "max": [
        1.0
      ],
      "min": [
        0.0
      ],
      "name": "Bip001/rotation/Input",
      "type": "SCALAR"
    },
    {
      "bufferView": 4,
      "componentType": 5126,
      "count": 1,
      "name": "Bip001/scale/Output",
      "type": "VEC3"
    },
    {
      "bufferView": 5,
      "componentType": 5126,
      "count": 1,
      "max": [
        1.0
      ],
      "min": [
        1.0
      ],
      "name": "Bip001/scale/Input",
      "type": "SCALAR"
    },
    {
      "bufferView": 6,
      "componentType": 5126,
      "count": 31,
      "name": "Bip001 Footsteps/translation/Output",
      "type": "VEC3"
    },
    {
      "bufferView": 7,
      "componentType": 5126,
      "count": 31,
      "max": [
        1.0
      ],
      "min": [
        0.0
      ],
      "name": "Bip001 Footsteps/translation/Input",
      "type": "SCALAR"
    },
    {
      "bufferView": 8,
      "componentType": 5126,
      "count": 31,
      "name": "Bip001 Footsteps/rotation/Output",
      "type": "VEC4"
    },
    {
      "bufferView": 9,
      "componentType": 5126,
      "count": 31,
      "max": [
        1.0
      ],
      "min": [
        0.0
      ],
      "name": "Bip001 Footsteps/rotation/Input",
      "type": "SCALAR"
    },
    {
      "bufferView": 10,
      "componentType": 5126,
      "count": 1,
      "name": "Bip001 Footsteps/scale/Output",
      "type": "VEC3"
    },
    {
      "bufferView": 11,
      "componentType": 5126,
      "count": 1,
      "max": [
        1.0
      ],
      "min": [
        1.0
      ],
      "name": "Bip001 Footsteps/scale/Input",
      "type": "SCALAR"
    },
    {
      "bufferView": 12,
      "componentType": 5126,
      "count": 1,
      "name": "Bip001 Pelvis/translation/Output",
      "type": "VEC3"
    },
    {
      "bufferView": 13,
      "componentType": 5126,
      "count": 1,
      "max": [
        1.0
      ],
      "min": [
        1.0
      ],
      "name": "Bip001 Pelvis/translation/Input",
      "type": "SCALAR"
    },
    {
      "bufferView": 14,
      "componentType": 5126,
      "count": 1,
      "name": "Bip001 Pelvis/rotation/Output",
      "type": "VEC4"
    },
    {
      "bufferView": 15,
      "componentType": 5126,
      "count": 1,
      "max": [
        1.0
      ],
      "min": [
        1.0
      ],
      "name": "Bip001 Pelvis/rotation/Input",
      "type": "SCALAR"
    },
    {
      "bufferView": 16,
      "componentType": 5126,
      "count": 1,
      "name": "Bip001 Pelvis/scale/Output",
      "type": "VEC3"
    },
    {
      "bufferView": 17,
      "componentType": 5126,
      "count": 1,
      "max": [
        1.0
      ],
      "min": [
        1.0
      ],
      "name": "Bip001 Pelvis/scale/Input",
      "type": "SCALAR"
    },
    {
      "bufferView": 18,
      "componentType": 5126,
      "count": 25,
      "name": "Bip001 Spine/translation/Output",
      "type": "VEC3"
    },
    {
      "bufferView": 19,
      "componentType": 5126,
      "count": 25,
      "max": [
        1.0
      ],
      "min": [
        0.0
      ],
      "name": "Bip001 Spine/translation/Input",
      "type": "SCALAR"
    },
    {
      "bufferView": 20,
      "componentType": 5126,
      "count": 29,
      "name": "Bip001 Spine/rotation/Output",
      "type": "VEC4"
    },
    {
      "bufferView": 21,
      "componentType": 5126,
      "count": 29,
      "max": [
        1.0
      ],
      "min": [
        0.0
      ],
      "name": "Bip001 Spine/rotation/Input",
      "type": "SCALAR"
    },
    {
      "bufferView": 22,
      "componentType": 5126,
      "count": 1,
      "name": "Bip001 Spine/scale/Output",
      "type": "VEC3"
    },
    {
      "bufferView": 23,
      "componentType": 5126,
      "count": 1,
      "max": [
        1.0
      ],
      "min": [
        1.0
      ],
      "name": "Bip001 Spine/scale/Input",
      "type": "SCALAR"
    },
    {
      "bufferView": 24,
      "componentType": 5126,
      "count": 31,
      "name": "Bip001 L Thigh/translation/Output",
      "type": "VEC3"
    },
    {
      "bufferView": 25,
      "componentType": 5126,
      "count": 31,
      "max": [
        1.0
      ],
      "min": [
        0.0
      ],
      "name": "Bip001 L Thigh/translation/Input",
      "type": "SCALAR"
    },
    {
      "bufferView": 26,
      "componentType": 5126,
      "count": 31,
      "name": "Bip001 L Thigh/rotation/Output",
      "type": "VEC4"
    },
    {
      "bufferView": 27,
      "componentType": 5126,
      "count": 31,
      "max": [
        1.0
      ],
      "min": [
        0.0
      ],
      "name": "Bip001 L Thigh/rotation/Input",
      "type": "SCALAR"
    },
    {
      "bufferView": 28,
      "componentType": 5126,
      "count": 1,
      "name": "Bip001 L Thigh/scale/Output",
      "type": "VEC3"
    },
    {
      "bufferView": 29,
      "componentType": 5126,
      "count": 1,
      "max": [
        1.0
      ],
      "min": [
        1.0
      ],
      "name": "Bip001 L Thigh/scale/Input",
      "type": "SCALAR"
    },
    {
      "bufferView": 30,
      "componentType": 5126,
      "count": 2,
      "name": "Bip001 L Calf/translation/Output",
      "type": "VEC3"
    },
    {
      "bufferView": 31,
      "componentType": 5126,
      "count": 2,
      "max": [
        0.36666667461395264
      ],
      "min": [
        0.3333333432674408
      ],
      "name": "Bip001 L Calf/translation/Input",
      "type": "SCALAR"
    },
    {
      "bufferView": 32,
      "componentType": 5126,
      "count": 26,
      "name": "Bip001 L Calf/rotation/Output",
      "type": "VEC4"
    },
    {
      "bufferView": 33,
      "componentType": 5126,
      "count": 26,
      "max": [
        1.0
      ],
      "min": [
        0.0
      ],
      "name": "Bip001 L Calf/rotation/Input",
      "type": "SCALAR"
    },
    {
      "bufferView": 34,
      "componentType": 5126,
      "count": 1,
      "name": "Bip001 L Calf/scale/Output",
      "type": "VEC3"
    },
    {
      "bufferView": 35,
      "componentType": 5126,
      "count": 1,
      "max": [
        1.0
      ],
      "min": [
        1.0
      ],
      "name": "Bip001 L Calf/scale/Input",
      "type": "SCALAR"
    },
    {
      "bufferView": 36,
      "componentType": 5126,
      "count": 11,
      "name": "Bip001 L Foot/translation/Output",
      "type": "VEC3"
    },
    {
      "bufferView": 37,
      "componentType": 5126,
      "count": 11,
      "max": [
        0.9666666388511658
      ],
      "min": [
        0.0
      ],
      "name": "Bip001 L Foot/translation/Input",
      "type": "SCALAR"
    },
    {
      "bufferView": 38,
      "componentType": 5126,
      "count": 31,
      "name": "Bip001 L Foot/rotation/Output",
      "type": "VEC4"
    },
    {
      "bufferView": 39,
      "componentType": 5126,
      "count": 31,
      "max": [
        1.0
      ],
      "min": [
        0.0
      ],
      "name": "Bip001 L Foot/rotation/Input",
      "type": "SCALAR"
    },
    {
      "bufferView": 40,
      "componentType": 5126,
      "count": 1,
      "name": "Bip001 L Foot/scale/Output",
      "type": "VEC3"
    },
    {
      "bufferView": 41,
      "componentType": 5126,
      "count": 1,
      "max": [
        1.0
      ],
      "min": [
        1.0
      ],
      "name": "Bip001 L Foot/scale/Input",
      "type": "SCALAR"
    },
    {
      "bufferView": 42,
      "componentType": 5126,
      "count": 1,
      "name": "Bip001 L Toe0/translation/Output",
      "type": "VEC3"
    },
    {
      "bufferView": 43,
      "componentType": 5126,
      "count": 1,
      "max": [
        0.5333333611488342
      ],
      "min": [
        0.5333333611488342
      ],
      "name": "Bip001 L Toe0/translation/Input",
      "type": "SCALAR"
    },
    {
      "bufferView": 44,
      "componentType": 5126,
      "count": 22,
      "name": "Bip001 L Toe0/rotation/Output",
      "type": "VEC4"
    },
    {
      "bufferView": 45,
      "componentType": 5126,
      "count": 22,
      "max": [
        0.9666666388511658
      ],
      "min": [
        0.20000000298023224
      ],
      "name": "Bip001 L Toe0/rotation/Input",
      "type": "SCALAR"
    },
    {
      "bufferView": 46,
      "componentType": 5126,
      "count": 1,
      "name": "Bip001 L Toe0/scale/Output",
      "type": "VEC3"
    },
    {
      "bufferView": 47,
      "componentType": 5126,
      "count": 1,
      "max": [
        1.0
      ],
      "min": [
        1.0
      ],
      "name": "Bip001 L Toe0/scale/Input",
      "type": "SCALAR"
    },
    {
      "bufferView": 48,
      "componentType": 5126,
      "count": 31,
      "name": "Bip001 R Thigh/translation/Output",
      "type": "VEC3"
    },
    {
      "bufferView": 49,
      "componentType": 5126,
      "count": 31,
      "max": [
        1.0
      ],
      "min": [
        0.0
      ],
      "name": "Bip001 R Thigh/translation/Input",
      "type": "SCALAR"
    },
    {
      "bufferView": 50,
      "componentType": 5126,
      "count": 31,
      "name": "Bip001 R Thigh/rotation/Output",
      "type": "VEC4"
    },
    {
      "bufferView": 51,
      "componentType": 5126,
      "count": 31,
      "max": [
        1.0
      ],
      "min": [
        0.0
      ],
      "name": "Bip001 R Thigh/rotation/Input",
      "type": "SCALAR"
    },
    {
      "bufferView": 52,
      "componentType": 5126,
      "count": 1,
      "name": "Bip001 R Thigh/scale/Output",
      "type": "VEC3"
    },
    {
      "bufferView": 53,
      "componentType": 5126,
      "count": 1,
      "max": [
        1.0
      ],
      "min": [
        1.0
      ],
      "name": "Bip001 R Thigh/scale/Input",
      "type": "SCALAR"
    },
    {
      "bufferView": 54,
      "componentType": 5126,
      "count": 4,
      "name": "Bip001 R Calf/translation/Output",
      "type": "VEC3"
    },
    {
      "bufferView": 55,
      "componentType": 5126,
      "count": 4,
      "max": [
        1.0
      ],
      "min": [
        0.4000000059604645
      ],
      "name": "Bip001 R Calf/translation/Input",
      "type": "SCALAR"
    },
    {
      "bufferView": 56,
      "componentType": 5126,
      "count": 26,
      "name": "Bip001 R Calf/rotation/Output",
      "type": "VEC4"
    },
    {
      "bufferView": 57,
      "componentType": 5126,
      "count": 26,
      "max": [
        1.0
      ],
      "min": [
        0.0
      ],
      "name": "Bip001 R Calf/rotation/Input",
      "type": "SCALAR"
    },
    {
      "bufferView": 58,
      "componentType": 5126,
      "count": 1,
      "name": "Bip001 R Calf/scale/Output",
      "type": "VEC3"
    },
    {
      "bufferView": 59,
      "componentType": 5126,
      "count": 1,
      "max": [
        1.0
      ],
      "min": [
        1.0
      ],
      "name": "Bip001 R Calf/scale/Input",
      "type": "SCALAR"
    },
    {
      "bufferView": 60,
      "componentType": 5126,
      "count": 10,
      "name": "Bip001 R Foot/translation/Output",
      "type": "VEC3"
    },
    {
      "bufferView": 61,
      "componentType": 5126,
      "count": 10,
      "max": [
        1.0
      ],
      "min": [
        0.10000000149011612
      ],
      "name": "Bip001 R Foot/translation/Input",
      "type": "SCALAR"
    },
    {
      "bufferView": 62,
      "componentType": 5126,
      "count": 30,
      "name": "Bip001 R Foot/rotation/Output",
      "type": "VEC4"
    },
    {
      "bufferView": 63,
      "componentType": 5126,
      "count": 30,
      "max": [
        1.0
      ],
      "min": [
        0.0
      ],
      "name": "Bip001 R Foot/rotation/Input",
      "type": "SCALAR"
    },
    {
      "bufferView": 64,
      "componentType": 5126,
      "count": 1,
      "name": "Bip001 R Foot/scale/Output",
      "type": "VEC3"
    },
    {
      "bufferView": 65,
      "componentType": 5126,
      "count": 1,
      "max": [
        1.0
      ],
      "min": [
        1.0
      ],
      "name": "Bip001 R Foot/scale/Input",
      "type": "SCALAR"
    },
    {
      "bufferView": 66,
      "componentType": 5126,
      "count": 1,
      "name": "Bip001 R Toe0/translation/Output",
      "type": "VEC3"
    },
    {
      "bufferView": 67,
      "componentType": 5126,
      "count": 1,
      "max": [
        0.4000000059604645
      ],
      "min": [
        0.4000000059604645
      ],
      "name": "Bip001 R Toe0/translation/Input",
      "type": "SCALAR"
    },
    {
      "bufferView": 68,
      "componentType": 5126,
      "count": 12,
      "name": "Bip001 R Toe0/rotation/Output",
      "type": "VEC4"
    },
    {
      "bufferView": 69,
      "componentType": 5126,
      "count": 12,
      "max": [
        0.6666666865348816
      ],
      "min": [
        0.13333334028720856
      ],
      "name": "Bip001 R Toe0/rotation/Input",
      "type": "SCALAR"
    },
    {
      "bufferView": 70,
      "componentType": 5126,
      "count": 1,
      "name": "Bip001 R Toe0/scale/Output",
      "type": "VEC3"
    },
    {
      "bufferView": 71,
      "componentType": 5126,
      "count": 1,
      "max": [
        1.0
      ],
      "min": [
        1.0
      ],
      "name": "Bip001 R Toe0/scale/Input",
      "type": "SCALAR"
    },
    {
      "bufferView": 72,
      "componentType": 5126,
      "count": 28,
      "name": "Bip001 Spine1/translation/Output",
      "type": "VEC3"
    },
    {
      "bufferView": 73,
      "componentType": 5126,
      "count": 28,
      "max": [
        1.0
      ],
      "min": [
        0.0
      ],
      "name": "Bip001 Spine1/translation/Input",
      "type": "SCALAR"
    },
    {
      "bufferView": 74,
      "componentType": 5126,
      "count": 29,
      "name": "Bip001 Spine1/rotation/Output",
      "type": "VEC4"
    },
    {
      "bufferView": 75,
      "componentType": 5126,
      "count": 29,
      "max": [
        1.0
      ],
      "min": [
        0.0
      ],
      "name": "Bip001 Spine1/rotation/Input",
      "type": "SCALAR"
    },
    {
      "bufferView": 76,
      "componentType": 5126,
      "count": 1,
      "name": "Bip001 Spine1/scale/Output",
      "type": "VEC3"
    },
    {
      "bufferView": 77,
      "componentType": 5126,
      "count": 1,
      "max": [
        1.0
      ],
      "min": [
        1.0
      ],
      "name": "Bip001 Spine1/scale/Input",
      "type": "SCALAR"
    },
    {
      "bufferView": 78,
      "componentType": 5126,
      "count": 6,
      "name": "Bip001 Neck/translation/Output",
      "type": "VEC3"
    },
    {
      "bufferView": 79,
      "componentType": 5126,
      "count": 6,
      "max": [
        1.0
      ],
      "min": [
        0.5333333611488342
      ],
      "name": "Bip001 Neck/translation/Input",
      "type": "SCALAR"
    },
    {
      "bufferView": 80,
      "componentType": 5126,
      "count": 1,
      "name": "Bip001 Neck/rotation/Output",
      "type": "VEC4"
    },
    {
      "bufferView": 81,
      "componentType": 5126,
      "count": 1,
      "max": [
        1.0
      ],
      "min": [
        1.0
      ],
      "name": "Bip001 Neck/rotation/Input",
      "type": "SCALAR"
    },
    {
      "bufferView": 82,
      "componentType": 5126,
      "count": 1,
      "name": "Bip001 Neck/scale/Output",
      "type": "VEC3"
    },
    {
      "bufferView": 83,
      "componentType": 5126,
      "count": 1,
      "max": [
        1.0
      ],
      "min": [
        1.0
      ],
      "name": "Bip001 Neck/scale/Input",
      "type": "SCALAR"
    },
    {
      "bufferView": 84,
      "componentType": 5126,
      "count": 8,
      "name": "Bip001 L Clavicle/translation/Output",
      "type": "VEC3"
    },
    {
      "bufferView": 85,
      "componentType": 5126,
      "count": 8,
      "max": [
        1.0
      ],
      "min": [
        0.06666667014360428
      ],
      "name": "Bip001 L Clavicle/translation/Input",
      "type": "SCALAR"
    },
    {
      "bufferView": 86,
      "componentType": 5126,
      "count": 1,
      "name": "Bip001 L Clavicle/rotation/Output",
      "type": "VEC4"
    },
    {
      "bufferView": 87,
      "componentType": 5126,
      "count": 1,
      "max": [
        1.0
      ],
      "min": [
        1.0
      ],
      "name": "Bip001 L Clavicle/rotation/Input",
      "type": "SCALAR"
    },
    {
      "bufferView": 88,
      "componentType": 5126,
      "count": 1,
      "name": "Bip001 L Clavicle/scale/Output",
      "type": "VEC3"
    },
    {
      "bufferView": 89,
      "componentType": 5126,
      "count": 1,
      "max": [
        1.0
      ],
      "min": [
        1.0
      ],
      "name": "Bip001 L Clavicle/scale/Input",
      "type": "SCALAR"
    },
    {
      "bufferView": 90,
      "componentType": 5126,
      "count": 4,
      "name": "Bip001 L UpperArm/translation/Output",
      "type": "VEC3"
    },
    {
      "bufferView": 91,
      "componentType": 5126,
      "count": 4,
      "max": [
        0.6333333253860474
      ],
      "min": [
        0.03333333507180214
      ],
      "name": "Bip001 L UpperArm/translation/Input",
      "type": "SCALAR"
    },
    {
      "bufferView": 92,
      "componentType": 5126,
      "count": 31,
      "name": "Bip001 L UpperArm/rotation/Output",
      "type": "VEC4"
    },
    {
      "bufferView": 93,
      "componentType": 5126,
      "count": 31,
      "max": [
        1.0
      ],
      "min": [
        0.0
      ],
      "name": "Bip001 L UpperArm/rotation/Input",
      "type": "SCALAR"
    },
    {
      "bufferView": 94,
      "componentType": 5126,
      "count": 1,
      "name": "Bip001 L UpperArm/scale/Output",
      "type": "VEC3"
    },
    {
      "bufferView": 95,
      "componentType": 5126,
      "count": 1,
      "max": [
        1.0
      ],
      "min": [
        1.0
      ],
      "name": "Bip001 L UpperArm/scale/Input",
      "type": "SCALAR"
    },
    {
      "bufferView": 96,
      "componentType": 5126,
      "count": 14,
      "name": "Bip001 L Forearm/translation/Output",
      "type": "VEC3"
    },
    {
      "bufferView": 97,
      "componentType": 5126,
      "count": 14,
      "max": [
        1.0
      ],
      "min": [
        0.0
      ],
      "name": "Bip001 L Forearm/translation/Input",
      "type": "SCALAR"
    },
    {
      "bufferView": 98,
      "componentType": 5126,
      "count": 29,
      "name": "Bip001 L Forearm/rotation/Output",
      "type": "VEC4"
    },
    {
      "bufferView": 99,
      "componentType": 5126,
      "count": 29,
      "max": [
        1.0
      ],
      "min": [
        0.0
      ],
      "name": "Bip001 L Forearm/rotation/Input",
      "type": "SCALAR"
    },
    {
      "bufferView": 100,
      "componentType": 5126,
      "count": 1,
      "name": "Bip001 L Forearm/scale/Output",
      "type": "VEC3"
    },
    {
      "bufferView": 101,
      "componentType": 5126,
      "count": 1,
      "max": [
        1.0
      ],
      "min": [
        1.0
      ],
      "name": "Bip001 L Forearm/scale/Input",
      "type": "SCALAR"
    },
    {
      "bufferView": 102,
      "componentType": 5126,
      "count": 16,
      "name": "Bip001 L Hand/translation/Output",
      "type": "VEC3"
    },
    {
      "bufferView": 103,
      "componentType": 5126,
      "count": 16,
      "max": [
        1.0
      ],
      "min": [
        0.03333333507180214
      ],
      "name": "Bip001 L Hand/translation/Input",
      "type": "SCALAR"
    },
    {
      "bufferView": 104,
      "componentType": 5126,
      "count": 1,
      "name": "Bip001 L Hand/rotation/Output",
      "type": "VEC4"
    },
    {
      "bufferView": 105,
      "componentType": 5126,
      "count": 1,
      "max": [
        1.0
      ],
      "min": [
        1.0
      ],
      "name": "Bip001 L Hand/rotation/Input",
      "type": "SCALAR"
    },
    {
      "bufferView": 106,
      "componentType": 5126,
      "count": 1,
      "name": "Bip001 L Hand/scale/Output",
      "type": "VEC3"
    },
    {
      "bufferView": 107,
      "componentType": 5126,
      "count": 1,
      "max": [
        1.0
      ],
      "min": [
        1.0
      ],
      "name": "Bip001 L Hand/scale/Input",
      "type": "SCALAR"
    },
    {
      "bufferView": 108,
      "componentType": 5126,
      "count": 5,
      "name": "Bip001 R Clavicle/translation/Output",
      "type": "VEC3"
    },
    {
      "bufferView": 109,
      "componentType": 5126,
      "count": 5,
      "max": [
        1.0
      ],
      "min": [
        0.4333333373069763
      ],
      "name": "Bip001 R Clavicle/translation/Input",
      "type": "SCALAR"
    },
    {
      "bufferView": 110,
      "componentType": 5126,
      "count": 1,
      "name": "Bip001 R Clavicle/rotation/Output",
      "type": "VEC4"
    },
    {
      "bufferView": 111,
      "componentType": 5126,
      "count": 1,
      "max": [
        1.0
      ],
      "min": [
        1.0
      ],
      "name": "Bip001 R Clavicle/rotation/Input",
      "type": "SCALAR"
    },
    {
      "bufferView": 112,
      "componentType": 5126,
      "count": 1,
      "name": "Bip001 R Clavicle/scale/Output",
      "type": "VEC3"
    },
    {
      "bufferView": 113,
      "componentType": 5126,
      "count": 1,
      "max": [
        1.0
      ],
      "min": [
        1.0
      ],
      "name": "Bip001 R Clavicle/scale/Input",
      "type": "SCALAR"
    },
    {
      "bufferView": 114,
      "componentType": 5126,
      "count": 9,
      "name": "Bip001 R UpperArm/translation/Output",
      "type": "VEC3"
    },
    {
      "bufferView": 115,
      "componentType": 5126,
      "count": 9,
      "max": [
        0.4333333373069763
      ],
      "min": [
        0.0
      ],
      "name": "Bip001 R UpperArm/translation/Input",
      "type": "SCALAR"
    },
    {
      "bufferView": 116,
      "componentType": 5126,
      "count": 31,
      "name": "Bip001 R UpperArm/rotation/Output",
      "type": "VEC4"
    },
    {
      "bufferView": 117,
      "componentType": 5126,
      "count": 31,
      "max": [
        1.0
      ],
      "min": [
        0.0
      ],
      "name": "Bip001 R UpperArm/rotation/Input",
      "type": "SCALAR"
    },
    {
      "bufferView": 118,
      "componentType": 5126,
      "count": 1,
      "name": "Bip001 R UpperArm/scale/Output",
      "type": "VEC3"
    },
    {
      "bufferView": 119,
      "componentType": 5126,
      "count": 1,
      "max": [
        1.0
      ],
      "min": [
        1.0
      ],
      "name": "Bip001 R UpperArm/scale/Input",
      "type": "SCALAR"
    },
    {
      "bufferView": 120,
      "componentType": 5126,
      "count": 11,
      "name": "Bip001 R Forearm/translation/Output",
      "type": "VEC3"
    },
    {
      "bufferView": 121,
      "componentType": 5126,
      "count": 11,
      "max": [
        0.46666666865348816
      ],
      "min": [
        0.0
      ],
      "name": "Bip001 R Forearm/translation/Input",
      "type": "SCALAR"
    },
    {
      "bufferView": 122,
      "componentType": 5126,
      "count": 29,
      "name": "Bip001 R Forearm/rotation/Output",
      "type": "VEC4"
    },
    {
      "bufferView": 123,
      "componentType": 5126,
      "count": 29,
      "max": [
        1.0
      ],
      "min": [
        0.0
      ],
      "name": "Bip001 R Forearm/rotation/Input",
      "type": "SCALAR"
    },
    {
      "bufferView": 124,
      "componentType": 5126,
      "count": 1,
      "name": "Bip001 R Forearm/scale/Output",
      "type": "VEC3"
    },
    {
      "bufferView": 125,
      "componentType": 5126,
      "count": 1,
      "max": [
        1.0
      ],
      "min": [
        1.0
      ],
      "name": "Bip001 R Forearm/scale/Input",
      "type": "SCALAR"
    },
    {
      "bufferView": 126,
      "componentType": 5126,
      "count": 18,
      "name": "Bip001 R Hand/translation/Output",
      "type": "VEC3"
    },
    {
      "bufferView": 127,
      "componentType": 5126,
      "count": 18,
      "max": [
        1.0
      ],
      "min": [
        0.0
      ],
      "name": "Bip001 R Hand/translation/Input",
      "type": "SCALAR"
    },
    {
      "bufferView": 128,
      "componentType": 5126,
      "count": 1,
      "name": "Bip001 R Hand/rotation/Output",
      "type": "VEC4"
    },
    {
      "bufferView": 129,
      "componentType": 5126,
      "count": 1,
      "max": [
        1.0
      ],
      "min": [
        1.0
      ],
      "name": "Bip001 R Hand/rotation/Input",
      "type": "SCALAR"
    },
    {
      "bufferView": 130,
      "componentType": 5126,
      "count": 1,
      "name": "Bip001 R Hand/scale/Output",
      "type": "VEC3"
    },
    {
      "bufferView": 131,
      "componentType": 5126,
      "count": 1,
      "max": [
        1.0
      ],
      "min": [
        1.0
      ],
      "name": "Bip001 R Hand/scale/Input",
      "type": "SCALAR"
    },
    {
      "bufferView": 132,
      "componentType": 5126,
      "count": 18,
      "name": "Bip001 Head/translation/Output",
      "type": "VEC3"
    },
    {
      "bufferView": 133,
      "componentType": 5126,
      "count": 18,
      "max": [
        0.9666666388511658
      ],
      "min": [
        0.03333333507180214
      ],
      "name": "Bip001 Head/translation/Input",
      "type": "SCALAR"
    },
    {
      "bufferView": 134,
      "componentType": 5126,
      "count": 29,
      "name": "Bip001 Head/rotation/Output",
      "type": "VEC4"
    },
    {
      "bufferView": 135,
      "componentType": 5126,
      "count": 29,
      "max": [
        1.0
      ],
      "min": [
        0.0
      ],
      "name": "Bip001 Head/rotation/Input",
      "type": "SCALAR"
    },
    {
      "bufferView": 136,
      "componentType": 5126,
      "count": 1,
      "name": "Bip001 Head/scale/Output",
      "type": "VEC3"
    },
    {
      "bufferView": 137,
      "componentType": 5126,
      "count": 1,
      "max": [
        1.0
      ],
      "min": [
        1.0
      ],
      "name": "Bip001 Head/scale/Input",
      "type": "SCALAR"
    },
    {
      "bufferView": 138,
      "componentType": 5126,
      "count": 31,
      "name": "Bip001 Prop1/translation/Output",
      "type": "VEC3"
    },
    {
      "bufferView": 139,
      "componentType": 5126,
      "count": 31,
      "max": [
        1.0
      ],
      "min": [
        0.0
      ],
      "name": "Bip001 Prop1/translation/Input",
      "type": "SCALAR"
    },
    {
      "bufferView": 140,
      "componentType": 5126,
      "count": 31,
      "name": "Bip001 Prop1/rotation/Output",
      "type": "VEC4"
    },
    {
      "bufferView": 141,
      "componentType": 5126,
      "count": 31,
      "max": [
        1.0
      ],
      "min": [
        0.0
      ],
      "name": "Bip001 Prop1/rotation/Input",
      "type": "SCALAR"
    },
    {
      "bufferView": 142,
      "componentType": 5126,
      "count": 1,
      "name": "Bip001 Prop1/scale/Output",
      "type": "VEC3"
    },
    {
      "bufferView": 143,
      "componentType": 5126,
      "count": 1,
      "max": [
        1.0
      ],
      "min": [
        1.0
      ],
      "name": "Bip001 Prop1/scale/Input",
      "type": "SCALAR"
    }
  ],
  "animations": [
    {
      "channels": [
        {
          "sampler": 0,
          "target": {
            "node": 0,
            "path": "translation"
          }
        },
        {
          "sampler": 1,
          "target": {
            "node": 0,
            "path": "rotation"
          }
        },
        {
          "sampler": 2,
          "target": {
            "node": 0,
            "path": "scale"
          }
        },
        {
          "sampler": 3,
          "target": {
            "node": 1,
            "path": "translation"
          }
        },
        {
          "sampler": 4,
          "target": {
            "node": 1,
            "path": "rotation"
          }
        },
        {
          "sampler": 5,
          "target": {
            "node": 1,
            "path": "scale"
          }
        },
        {
          "sampler": 6,
          "target": {
            "node": 2,
            "path": "translation"
          }
        },
        {
          "sampler": 7,
          "target": {
            "node": 2,
            "path": "rotation"
          }
        },
        {
          "sampler": 8,
          "target": {
            "node": 2,
            "path": "scale"
          }
        },
        {
          "sampler": 9,
          "target": {
            "node": 3,
            "path": "translation"
          }
        },
        {
          "sampler": 10,
          "target": {
            "node": 3,
            "path": "rotation"
          }
        },
        {
          "sampler": 11,
          "target": {
            "node": 3,
            "path": "scale"
          }
        },
        {
          "sampler": 12,
          "target": {
            "node": 4,
            "path": "translation"
          }
        },
        {
          "sampler": 13,
          "target": {
            "node": 4,
            "path": "rotation"
          }
        },
        {
          "sampler": 14,
          "target": {
            "node": 4,
            "path": "scale"
          }
        },
        {
          "sampler": 15,
          "target": {
            "node": 5,
            "path": "translation"
          }
        },
        {
          "sampler": 16,
          "target": {
            "node": 5,
            "path": "rotation"
          }
        },
        {
          "sampler": 17,
          "target": {
            "node": 5,
            "path": "scale"
          }
        },
        {
          "sampler": 18,
          "target": {
            "node": 6,
            "path": "translation"
          }
        },
        {
          "sampler": 19,
          "target": {
            "node": 6,
            "path": "rotation"
          }
        },
        {
          "sampler": 20,
          "target": {
            "node": 6,
            "path": "scale"
          }
        },
        {
          "sampler": 21,
          "target": {
            "node": 7,
            "path": "translation"
          }
        },
        {
          "sampler": 22,
          "target": {
            "node": 7,
            "path": "rotation"
          }
        },
        {
          "sampler": 23,
          "target": {
            "node": 7,
            "path": "scale"
          }
        },
        {
          "sampler": 24,
          "target": {
            "node": 9,
            "path": "translation"
          }
        },
        {
          "sampler": 25,
          "target": {
            "node": 9,
            "path": "rotation"
          }
        },
        {
          "sampler": 26,
          "target": {
            "node": 9,
            "path": "scale"
          }
        },
        {
          "sampler": 27,
          "target": {
            "node": 10,
            "path": "translation"
          }
        },
        {
          "sampler": 28,
          "target": {
            "node": 10,
            "path": "rotation"
          }
        },
        {
          "sampler": 29,
          "target": {
            "node": 10,
            "path": "scale"
          }
        },
        {
          "sampler": 30,
          "target": {
            "node": 11,
            "path": "translation"
          }
        },
        {
          "sampler": 31,
          "target": {
            "node": 11,
            "path": "rotation"
          }
        },
        {
          "sampler": 32,
          "target": {
            "node": 11,
            "path": "scale"
          }
        },
        {
          "sampler": 33,
          "target": {
            "node": 12,
            "path": "translation"
          }
        },
        {
          "sampler": 34,
          "target": {
            "node": 12,
            "path": "rotation"
          }
        },
        {
          "sampler": 35,
          "target": {
            "node": 12,
            "path": "scale"
          }
        },
        {
          "sampler": 36,
          "target": {
            "node": 14,
            "path": "translation"
          }
        },
        {
          "sampler": 37,
          "target": {
            "node": 14,
            "path": "rotation"
          }
        },
        {
          "sampler": 38,
          "target": {
            "node": 14,
            "path": "scale"
          }
        },
        {
          "sampler": 39,
          "target": {
            "node": 15,
            "path": "translation"
          }
        },
        {
          "sampler": 40,
          "target": {
            "node": 15,
            "path": "rotation"
          }
        },
        {
          "sampler": 41,
          "target": {
            "node": 15,
            "path": "scale"
          }
        },
        {
          "sampler": 42,
          "target": {
            "node": 16,
            "path": "translation"
          }
        },
        {
          "sampler": 43,
          "target": {
            "node": 16,
            "path": "rotation"
          }
        },
        {
          "sampler": 44,
          "target": {
            "node": 16,
            "path": "scale"
          }
        },
        {
          "sampler": 45,
          "target": {
            "node": 17,
            "path": "translation"
          }
        },
        {
          "sampler": 46,
          "target": {
            "node": 17,
            "path": "rotation"
          }
        },
        {
          "sampler": 47,
          "target": {
            "node": 17,
            "path": "scale"
          }
        },
        {
          "sampler": 48,
          "target": {
            "node": 18,
            "path": "translation"
          }
        },
        {
          "sampler": 49,
          "target": {
            "node": 18,
            "path": "rotation"
          }
        },
        {
          "sampler": 50,
          "target": {
            "node": 18,
            "path": "scale"
          }
        },
        {
          "sampler": 51,
          "target": {
            "node": 19,
            "path": "translation"
          }
        },
        {
          "sampler": 52,
          "target": {
            "node": 19,
            "path": "rotation"
          }
        },
        {
          "sampler": 53,
          "target": {
            "node": 19,
            "path": "scale"
          }
        },
        {
          "sampler": 54,
          "target": {
            "node": 20,
            "path": "translation"
          }
        },
        {
          "sampler": 55,
          "target": {
            "node": 20,
            "path": "rotation"
          }
        },
        {
          "sampler": 56,
          "target": {
            "node": 20,
            "path": "scale"
          }
        },
        {
          "sampler": 57,
          "target": {
            "node": 21,
            "path": "translation"
          }
        },
        {
          "sampler": 58,
          "target": {
            "node": 21,
            "path": "rotation"
          }
        },
        {
          "sampler": 59,
          "target": {
            "node": 21,
            "path": "scale"
          }
        },
        {
          "sampler": 60,
          "target": {
            "node": 22,
            "path": "translation"
          }
        },
        {
          "sampler": 61,
          "target": {
            "node": 22,
            "path": "rotation"
          }
        },
        {
          "sampler": 62,
          "target": {
            "node": 22,
            "path": "scale"
          }
        },
        {
          "sampler": 63,
          "target": {
            "node": 23,
            "path": "translation"
          }
        },
        {
          "sampler": 64,
          "target": {
            "node": 23,
            "path": "rotation"
          }
        },
        {
          "sampler": 65,
          "target": {
            "node": 23,
            "path": "scale"
          }
        },
        {
          "sampler": 66,
          "target": {
            "node": 24,
            "path": "translation"
          }
        },
        {
          "sampler": 67,
          "target": {
            "node": 24,
            "path": "rotation"
          }
        },
        {
          "sampler": 68,
          "target": {
            "node": 24,
            "path": "scale"
          }
        },
        {
          "sampler": 69,
          "target": {
            "node": 26,
            "path": "translation"
          }
        },
        {
          "sampler": 70,
          "target": {
            "node": 26,
            "path": "rotation"
          }
        },
        {
          "sampler": 71,
          "target": {
            "node": 26,
            "path": "scale"
          }
        }
      ],
      "name": "Take 001",
      "samplers": [
        {
          "input": 1,
          "output": 0
        },
        {
          "input": 3,
          "output": 2
        },
        {
          "input": 5,
          "output": 4
        },
        {
          "input": 7,
          "output": 6
        },
        {
          "input": 9,
          "output": 8
        },
        {
          "input": 11,
          "output": 10
        },
        {
          "input": 13,
          "output": 12
        },
        {
          "input": 15,
          "output": 14
        },
        {
          "input": 17,
          "output": 16
        },
        {
          "input": 19,
          "output": 18
        },
        {
          "input": 21,
          "output": 20
        },
        {
          "input": 23,
          "output": 22
        },
        {
          "input": 25,
          "output": 24
        },
        {
          "input": 27,
          "output": 26
        },
        {
          "input": 29,
          "output": 28
        },
        {
          "input": 31,
          "output": 30
        },
        {
          "input": 33,
          "output": 32
        },
        {
          "input": 35,
          "output": 34
        },
        {
          "input": 37,
          "output": 36
        },
        {
          "input": 39,
          "output": 38
        },
        {
          "input": 41,
          "output": 40
        },
        {
          "input": 43,
          "output": 42
        },
        {
          "input": 45,
          "output": 44
        },
        {
          "input": 47,
          "output": 46
        },
        {
          "input": 49,
          "output": 48
        },
        {
          "input": 51,
          "output": 50
        },
        {
          "input": 53,
          "output": 52
        },
        {
          "input": 55,
          "output": 54
        },
        {
          "input": 57,
          "output": 56
        },
        {
          "input": 59,
          "output": 58
        },
        {
          "input": 61,
          "output": 60
        },
        {
          "input": 63,
          "output": 62
        },
        {
          "input": 65,
          "output": 64
        },
        {
          "input": 67,
          "output": 66
        },
        {
          "input": 69,
          "output": 68
        },
        {
          "input": 71,
          "output": 70
        },
        {
          "input": 73,
          "output": 72
        },
        {
          "input": 75,
          "output": 74
        },
        {
          "input": 77,
          "output": 76
        },
        {
          "input": 79,
          "output": 78
        },
        {
          "input": 81,
          "output": 80
        },
        {
          "input": 83,
          "output": 82
        },
        {
          "input": 85,
          "output": 84
        },
        {
          "input": 87,
          "output": 86
        },
        {
          "input": 89,
          "output": 88
        },
        {
          "input": 91,
          "output": 90
        },
        {
          "input": 93,
          "output": 92
        },
        {
          "input": 95,
          "output": 94
        },
        {
          "input": 97,
          "output": 96
        },
        {
          "input": 99,
          "output": 98
        },
        {
          "input": 101,
          "output": 100
        },
        {
          "input": 103,
          "output": 102
        },
        {
          "input": 105,
          "output": 104
        },
        {
          "input": 107,
          "output": 106
        },
        {
          "input": 109,
          "output": 108
        },
        {
          "input": 111,
          "output": 110
        },
        {
          "input": 113,
          "output": 112
        },
        {
          "input": 115,
          "output": 114
        },
        {
          "input": 117,
          "output": 116
        },
        {
          "input": 119,
          "output": 118
        },
        {
          "input": 121,
          "output": 120
        },
        {
          "input": 123,
          "output": 122
        },
        {
          "input": 125,
          "output": 124
        },
        {
          "input": 127,
          "output": 126
        },
        {
          "input": 129,
          "output": 128
        },
        {
          "input": 131,
          "output": 130
        },
        {
          "input": 133,
          "output": 132
        },
        {
          "input": 135,
          "output": 134
        },
        {
          "input": 137,
          "output": 136
        },
        {
          "input": 139,
          "output": 138
        },
        {
          "input": 141,
          "output": 140
        },
        {
          "input": 143,
          "output": 142
        }
      ]
    }
  ],
  "asset": {
    "copyright": "Copyright (c) 2018-2020 Chukong Technologies Inc.",
    "generator": "FBX-glTF-conv",
    "version": "2.0"
  },
  "bufferViews": [
    {
      "buffer": 0,
      "byteLength": 372
    },
    {
      "buffer": 0,
      "byteLength": 124,
      "byteOffset": 372
    },
    {
      "buffer": 0,
      "byteLength": 496,
      "byteOffset": 496
    },
    {
      "buffer": 0,
      "byteLength": 124,
      "byteOffset": 992
    },
    {
      "buffer": 0,
      "byteLength": 12,
      "byteOffset": 1116
    },
    {
      "buffer": 0,
      "byteLength": 4,
      "byteOffset": 1128
    },
    {
      "buffer": 0,
      "byteLength": 372,
      "byteOffset": 1132
    },
    {
      "buffer": 0,
      "byteLength": 124,
      "byteOffset": 1504
    },
    {
      "buffer": 0,
      "byteLength": 496,
      "byteOffset": 1628
    },
    {
      "buffer": 0,
      "byteLength": 124,
      "byteOffset": 2124
    },
    {
      "buffer": 0,
      "byteLength": 12,
      "byteOffset": 2248
    },
    {
      "buffer": 0,
      "byteLength": 4,
      "byteOffset": 2260
    },
    {
      "buffer": 0,
      "byteLength": 12,
      "byteOffset": 2264
    },
    {
      "buffer": 0,
      "byteLength": 4,
      "byteOffset": 2276
    },
    {
      "buffer": 0,
      "byteLength": 16,
      "byteOffset": 2280
    },
    {
      "buffer": 0,
      "byteLength": 4,
      "byteOffset": 2296
    },
    {
      "buffer": 0,
      "byteLength": 12,
      "byteOffset": 2300
    },
    {
      "buffer": 0,
      "byteLength": 4,
      "byteOffset": 2312
    },
    {
      "buffer": 0,
      "byteLength": 300,
      "byteOffset": 2316
    },
    {
      "buffer": 0,
      "byteLength": 100,
      "byteOffset": 2616
    },
    {
      "buffer": 0,
      "byteLength": 464,
      "byteOffset": 2716
    },
    {
      "buffer": 0,
      "byteLength": 116,
      "byteOffset": 3180
    },
    {
      "buffer": 0,
      "byteLength": 12,
      "byteOffset": 3296
    },
    {
      "buffer": 0,
      "byteLength": 4,
      "byteOffset": 3308
    },
    {
      "buffer": 0,
      "byteLength": 372,
      "byteOffset": 3312
    },
    {
      "buffer": 0,
      "byteLength": 124,
      "byteOffset": 3684
    },
    {
      "buffer": 0,
      "byteLength": 496,
      "byteOffset": 3808
    },
    {
      "buffer": 0,
      "byteLength": 124,
      "byteOffset": 4304
    },
    {
      "buffer": 0,
      "byteLength": 12,
      "byteOffset": 4428
    },
    {
      "buffer": 0,
      "byteLength": 4,
      "byteOffset": 4440
    },
    {
      "buffer": 0,
      "byteLength": 24,
      "byteOffset": 4444
    },
    {
      "buffer": 0,
      "byteLength": 8,
      "byteOffset": 4468
    },
    {
      "buffer": 0,
      "byteLength": 416,
      "byteOffset": 4476
    },
    {
      "buffer": 0,
      "byteLength": 104,
      "byteOffset": 4892
    },
    {
      "buffer": 0,
      "byteLength": 12,
      "byteOffset": 4996
    },
    {
      "buffer": 0,
      "byteLength": 4,
      "byteOffset": 5008
    },
    {
      "buffer": 0,
      "byteLength": 132,
      "byteOffset": 5012
    },
    {
      "buffer": 0,
      "byteLength": 44,
      "byteOffset": 5144
    },
    {
      "buffer": 0,
      "byteLength": 496,
      "byteOffset": 5188
    },
    {
      "buffer": 0,
      "byteLength": 124,
      "byteOffset": 5684
    },
    {
      "buffer": 0,
      "byteLength": 12,
      "byteOffset": 5808
    },
    {
      "buffer": 0,
      "byteLength": 4,
      "byteOffset": 5820
    },
    {
      "buffer": 0,
      "byteLength": 12,
      "byteOffset": 5824
    },
    {
      "buffer": 0,
      "byteLength": 4,
      "byteOffset": 5836
    },
    {
      "buffer": 0,
      "byteLength": 352,
      "byteOffset": 5840
    },
    {
      "buffer": 0,
      "byteLength": 88,
      "byteOffset": 6192
    },
    {
      "buffer": 0,
      "byteLength": 12,
      "byteOffset": 6280
    },
    {
      "buffer": 0,
      "byteLength": 4,
      "byteOffset": 6292
    },
    {
      "buffer": 0,
      "byteLength": 372,
      "byteOffset": 6296
    },
    {
      "buffer": 0,
      "byteLength": 124,
      "byteOffset": 6668
    },
    {
      "buffer": 0,
      "byteLength": 496,
      "byteOffset": 6792
    },
    {
      "buffer": 0,
      "byteLength": 124,
      "byteOffset": 7288
    },
    {
      "buffer": 0,
      "byteLength": 12,
      "byteOffset": 7412
    },
    {
      "buffer": 0,
      "byteLength": 4,
      "byteOffset": 7424
    },
    {
      "buffer": 0,
      "byteLength": 48,
      "byteOffset": 7428
    },
    {
      "buffer": 0,
      "byteLength": 16,
      "byteOffset": 7476
    },
    {
      "buffer": 0,
      "byteLength": 416,
      "byteOffset": 7492
    },
    {
      "buffer": 0,
      "byteLength": 104,
      "byteOffset": 7908
    },
    {
      "buffer": 0,
      "byteLength": 12,
      "byteOffset": 8012
    },
    {
      "buffer": 0,
      "byteLength": 4,
      "byteOffset": 8024
    },
    {
      "buffer": 0,
      "byteLength": 120,
      "byteOffset": 8028
    },
    {
      "buffer": 0,
      "byteLength": 40,
      "byteOffset": 8148
    },
    {
      "buffer": 0,
      "byteLength": 480,
      "byteOffset": 8188
    },
    {
      "buffer": 0,
      "byteLength": 120,
      "byteOffset": 8668
    },
    {
      "buffer": 0,
      "byteLength": 12,
      "byteOffset": 8788
    },
    {
      "buffer": 0,
      "byteLength": 4,
      "byteOffset": 8800
    },
    {
      "buffer": 0,
      "byteLength": 12,
      "byteOffset": 8804
    },
    {
      "buffer": 0,
      "byteLength": 4,
      "byteOffset": 8816
    },
    {
      "buffer": 0,
      "byteLength": 192,
      "byteOffset": 8820
    },
    {
      "buffer": 0,
      "byteLength": 48,
      "byteOffset": 9012
    },
    {
      "buffer": 0,
      "byteLength": 12,
      "byteOffset": 9060
    },
    {
      "buffer": 0,
      "byteLength": 4,
      "byteOffset": 9072
    },
    {
      "buffer": 0,
      "byteLength": 336,
      "byteOffset": 9076
    },
    {
      "buffer": 0,
      "byteLength": 112,
      "byteOffset": 9412
    },
    {
      "buffer": 0,
      "byteLength": 464,
      "byteOffset": 9524
    },
    {
      "buffer": 0,
      "byteLength": 116,
      "byteOffset": 9988
    },
    {
      "buffer": 0,
      "byteLength": 12,
      "byteOffset": 10104
    },
    {
      "buffer": 0,
      "byteLength": 4,
      "byteOffset": 10116
    },
    {
      "buffer": 0,
      "byteLength": 72,
      "byteOffset": 10120
    },
    {
      "buffer": 0,
      "byteLength": 24,
      "byteOffset": 10192
    },
    {
      "buffer": 0,
      "byteLength": 16,
      "byteOffset": 10216
    },
    {
      "buffer": 0,
      "byteLength": 4,
      "byteOffset": 10232
    },
    {
      "buffer": 0,
      "byteLength": 12,
      "byteOffset": 10236
    },
    {
      "buffer": 0,
      "byteLength": 4,
      "byteOffset": 10248
    },
    {
      "buffer": 0,
      "byteLength": 96,
      "byteOffset": 10252
    },
    {
      "buffer": 0,
      "byteLength": 32,
      "byteOffset": 10348
    },
    {
      "buffer": 0,
      "byteLength": 16,
      "byteOffset": 10380
    },
    {
      "buffer": 0,
      "byteLength": 4,
      "byteOffset": 10396
    },
    {
      "buffer": 0,
      "byteLength": 12,
      "byteOffset": 10400
    },
    {
      "buffer": 0,
      "byteLength": 4,
      "byteOffset": 10412
    },
    {
      "buffer": 0,
      "byteLength": 48,
      "byteOffset": 10416
    },
    {
      "buffer": 0,
      "byteLength": 16,
      "byteOffset": 10464
    },
    {
      "buffer": 0,
      "byteLength": 496,
      "byteOffset": 10480
    },
    {
      "buffer": 0,
      "byteLength": 124,
      "byteOffset": 10976
    },
    {
      "buffer": 0,
      "byteLength": 12,
      "byteOffset": 11100
    },
    {
      "buffer": 0,
      "byteLength": 4,
      "byteOffset": 11112
    },
    {
      "buffer": 0,
      "byteLength": 168,
      "byteOffset": 11116
    },
    {
      "buffer": 0,
      "byteLength": 56,
      "byteOffset": 11284
    },
    {
      "buffer": 0,
      "byteLength": 464,
      "byteOffset": 11340
    },
    {
      "buffer": 0,
      "byteLength": 116,
      "byteOffset": 11804
    },
    {
      "buffer": 0,
      "byteLength": 12,
      "byteOffset": 11920
    },
    {
      "buffer": 0,
      "byteLength": 4,
      "byteOffset": 11932
    },
    {
      "buffer": 0,
      "byteLength": 192,
      "byteOffset": 11936
    },
    {
      "buffer": 0,
      "byteLength": 64,
      "byteOffset": 12128
    },
    {
      "buffer": 0,
      "byteLength": 16,
      "byteOffset": 12192
    },
    {
      "buffer": 0,
      "byteLength": 4,
      "byteOffset": 12208
    },
    {
      "buffer": 0,
      "byteLength": 12,
      "byteOffset": 12212
    },
    {
      "buffer": 0,
      "byteLength": 4,
      "byteOffset": 12224
    },
    {
      "buffer": 0,
      "byteLength": 60,
      "byteOffset": 12228
    },
    {
      "buffer": 0,
      "byteLength": 20,
      "byteOffset": 12288
    },
    {
      "buffer": 0,
      "byteLength": 16,
      "byteOffset": 12308
    },
    {
      "buffer": 0,
      "byteLength": 4,
      "byteOffset": 12324
    },
    {
      "buffer": 0,
      "byteLength": 12,
      "byteOffset": 12328
    },
    {
      "buffer": 0,
      "byteLength": 4,
      "byteOffset": 12340
    },
    {
      "buffer": 0,
      "byteLength": 108,
      "byteOffset": 12344
    },
    {
      "buffer": 0,
      "byteLength": 36,
      "byteOffset": 12452
    },
    {
      "buffer": 0,
      "byteLength": 496,
      "byteOffset": 12488
    },
    {
      "buffer": 0,
      "byteLength": 124,
      "byteOffset": 12984
    },
    {
      "buffer": 0,
      "byteLength": 12,
      "byteOffset": 13108
    },
    {
      "buffer": 0,
      "byteLength": 4,
      "byteOffset": 13120
    },
    {
      "buffer": 0,
      "byteLength": 132,
      "byteOffset": 13124
    },
    {
      "buffer": 0,
      "byteLength": 44,
      "byteOffset": 13256
    },
    {
      "buffer": 0,
      "byteLength": 464,
      "byteOffset": 13300
    },
    {
      "buffer": 0,
      "byteLength": 116,
      "byteOffset": 13764
    },
    {
      "buffer": 0,
      "byteLength": 12,
      "byteOffset": 13880
    },
    {
      "buffer": 0,
      "byteLength": 4,
      "byteOffset": 13892
    },
    {
      "buffer": 0,
      "byteLength": 216,
      "byteOffset": 13896
    },
    {
      "buffer": 0,
      "byteLength": 72,
      "byteOffset": 14112
    },
    {
      "buffer": 0,
      "byteLength": 16,
      "byteOffset": 14184
    },
    {
      "buffer": 0,
      "byteLength": 4,
      "byteOffset": 14200
    },
    {
      "buffer": 0,
      "byteLength": 12,
      "byteOffset": 14204
    },
    {
      "buffer": 0,
      "byteLength": 4,
      "byteOffset": 14216
    },
    {
      "buffer": 0,
      "byteLength": 216,
      "byteOffset": 14220
    },
    {
      "buffer": 0,
      "byteLength": 72,
      "byteOffset": 14436
    },
    {
      "buffer": 0,
      "byteLength": 464,
      "byteOffset": 14508
    },
    {
      "buffer": 0,
      "byteLength": 116,
      "byteOffset": 14972
    },
    {
      "buffer": 0,
      "byteLength": 12,
      "byteOffset": 15088
    },
    {
      "buffer": 0,
      "byteLength": 4,
      "byteOffset": 15100
    },
    {
      "buffer": 0,
      "byteLength": 372,
      "byteOffset": 15104
    },
    {
      "buffer": 0,
      "byteLength": 124,
      "byteOffset": 15476
    },
    {
      "buffer": 0,
      "byteLength": 496,
      "byteOffset": 15600
    },
    {
      "buffer": 0,
      "byteLength": 124,
      "byteOffset": 16096
    },
    {
      "buffer": 0,
      "byteLength": 12,
      "byteOffset": 16220
    },
    {
      "buffer": 0,
      "byteLength": 4,
      "byteOffset": 16232
    }
  ],
  "buffers": [
    {
      "byteLength": 16236,
      "uri": "out.bin"
    }
  ],
  "extras": {
    "FBX-glTF-conv": {
      "animationFrameRate": 30.0,
      "fbxFileHeaderInfo": {
        "creationTimeStamp": {
          "day": 11,
          "hour": 16,
          "millisecond": 190,
          "minute": 47,
          "month": 6,
          "second": 3,
          "year": 2026
        },
        "creator": "FBX SDK/FBX Plugins version 2020.3.7",
        "sceneInfo": {
          "author": "",
          "comment": "",
          "keywords": "",
          "original": {
            "applicationName": "3ds Max",
            "applicationVendor": "Autodesk",
            "applicationVersion": "2026",
            "fileName": "E:\\试玩需求\\大壮\\修改\\举东西待机(xg)_2.fbx"
          },
          "revision": "",
          "subject": "",
          "title": "",
          "url": "D:\\工程项目\\test_pro\\test_pro\\HYQ_Project\\assets\\GameRes\\FBX\\Hero_1\\举东西待机(xg)_2.fbx"
        }
      }
    }
  },
  "nodes": [
    {
      "children": [
        1,
        2,
        26
      ],
      "extras": {
        "FBX-glTF-conv": {
          "skeleton": {
            "skeletonType": "Root"
          }
        }
      },
      "name": "Bip001",
      "rotation": [
        -0.4106597304344177,
        -0.44029656052589417,
        -0.5850479006767273,
        0.5433382391929626
      ],
      "translation": [
        0.0,
        0.5659424066543579,
        -0.0989391878247261
      ]
    },
    {
      "name": "Bip001 Footsteps",
      "rotation": [
        -0.09381788223981857,
        -0.10235462337732315,
        0.7250280380249023,
        0.6745784282684326
      ],
      "translation": [
        0.15468020737171173,
        0.012326010502874851,
        -0.5424953699111938
      ]
    },
    {
      "children": [
        3
      ],
      "extras": {
        "FBX-glTF-conv": {
          "skeleton": {
            "skeletonType": "LimbNode"
          }
        }
      },
      "name": "Bip001 Pelvis",
      "rotation": [
        -0.46505171060562134,
        -0.5346307158470154,
        -0.4630996882915497,
        0.5323866605758667
      ]
    },
    {
      "children": [
        4,
        9,
        14
      ],
      "extras": {
        "FBX-glTF-conv": {
          "skeleton": {
            "skeletonType": "LimbNode"
          }
        }
      },
      "name": "Bip001 Spine",
      "rotation": [
        -0.01886599510908127,
        5.231380418990739e-05,
        -0.09186907112598419,
        0.9955923557281494
      ],
      "translation": [
        0.07215514779090881,
        0.02428804337978363,
        -0.0037237072829157114
      ]
    },
    {
      "children": [
        5
      ],
      "extras": {
        "FBX-glTF-conv": {
          "skeleton": {
            "skeletonType": "LimbNode"
          }
        }
      },
      "name": "Bip001 L Thigh",
      "rotation": [
        0.7589417099952698,
        0.6405145525932312,
        0.021061230450868607,
        -0.11534711718559265
      ],
      "translation": [
        -0.06618114560842514,
        -0.0405590645968914,
        0.09189295023679733
      ]
    },
    {
      "children": [
        6
      ],
      "extras": {
        "FBX-glTF-conv": {
          "skeleton": {
            "skeletonType": "LimbNode"
          }
        }
      },
      "name": "Bip001 L Calf",
      "rotation": [
        1.7878206958049535e-17,
        -3.823421027994451e-17,
        -0.82389897108078,
        0.5667366981506348
      ],
      "translation": [
        0.40392667055130005,
        3.814697180359872e-08,
        1.907348590179936e-08
      ]
    },
    {
      "children": [
        7
      ],
      "extras": {
        "FBX-glTF-conv": {
          "skeleton": {
            "skeletonType": "LimbNode"
          }
        }
      },
      "name": "Bip001 L Foot",
      "rotation": [
        -0.022919142618775368,
        -0.07380214333534241,
        0.13543474674224854,
        0.9877678751945496
      ],
      "translation": [
        0.5253468155860901,
        9.53674295089968e-09,
        -3.552713599391162e-17
      ]
    },
    {
      "children": [
        8
      ],
      "extras": {
        "FBX-glTF-conv": {
          "skeleton": {
            "skeletonType": "LimbNode"
          }
        }
      },
      "name": "Bip001 L Toe0",
      "rotation": [
        -0.14617450535297394,
        0.14617560803890228,
        0.6918336153030396,
        0.6918323040008545
      ],
      "translation": [
        0.08683573454618454,
        0.10477733612060547,
        1.907348590179936e-08
      ]
    },
    {
      "extras": {
        "FBX-glTF-conv": {
          "skeleton": {
            "skeletonType": "LimbNode"
          }
        }
      },
      "name": "Bip001 L Toe0Nub",
      "rotation": [
        1.4901134548495065e-08,
        -1.4210854715202004e-14,
        1.0,
        -6.123213087102158e-17
      ],
      "scale": [
        -1.0,
        -1.0,
        -1.0
      ],
      "translation": [
        0.12583915889263153,
        0.0,
        7.105427198782324e-17
      ]
    },
    {
      "children": [
        10
      ],
      "extras": {
        "FBX-glTF-conv": {
          "skeleton": {
            "skeletonType": "LimbNode"
          }
        }
      },
      "name": "Bip001 R Thigh",
      "rotation": [
        0.3798642158508301,
        0.8528388738632202,
        -0.12026537954807281,
        0.33749860525131226
      ],
      "translation": [
        -0.06678207218647003,
        -0.03384040668606758,
        -0.08679043501615524
      ]
    },
    {
      "children": [
        11
      ],
      "extras": {
        "FBX-glTF-conv": {
          "skeleton": {
            "skeletonType": "LimbNode"
          }
        }
      },
      "name": "Bip001 R Calf",
      "rotation": [
        -3.46368547355106e-17,
        1.99860773986133e-18,
        -0.8332350850105286,
        0.5529189109802246
      ],
      "translation": [
        0.4039266109466553,
        -3.814697180359872e-08,
        3.814697180359872e-08
      ]
    },
    {
      "children": [
        12
      ],
      "extras": {
        "FBX-glTF-conv": {
          "skeleton": {
            "skeletonType": "LimbNode"
          }
        }
      },
      "name": "Bip001 R Foot",
      "rotation": [
        -0.014794484712183475,
        0.2520117461681366,
        0.16085273027420044,
        0.9541475772857666
      ],
      "translation": [
        0.5253467559814453,
        -4.7683716530855236e-08,
        0.0
      ]
    },
    {
      "children": [
        13
      ],
      "extras": {
        "FBX-glTF-conv": {
          "skeleton": {
            "skeletonType": "LimbNode"
          }
        }
      },
      "name": "Bip001 R Toe0",
      "rotation": [
        0.04103122651576996,
        -0.01389674749225378,
        0.9077702760696411,
        0.4172247350215912
      ],
      "translation": [
        0.08683574944734573,
        0.10477735847234726,
        0.0
      ]
    },
    {
      "extras": {
        "FBX-glTF-conv": {
          "skeleton": {
            "skeletonType": "LimbNode"
          }
        }
      },
      "name": "Bip001 R Toe0Nub",
      "translation": [
        0.12583911418914795,
        0.0,
        0.0
      ]
    },
    {
      "children": [
        15
      ],
      "extras": {
        "FBX-glTF-conv": {
          "skeleton": {
            "skeletonType": "LimbNode"
          }
        }
      },
      "name": "Bip001 Spine1",
      "rotation": [
        0.0023090741597115993,
        -0.005687071476131678,
        0.2647072374820709,
        0.9643092751502991
      ],
      "translation": [
        0.28289124369621277,
        -0.00020456314086914063,
        -3.4451485930730996e-07
      ]
    },
    {
      "children": [
        16,
        20,
        24
      ],
      "extras": {
        "FBX-glTF-conv": {
          "skeleton": {
            "skeletonType": "LimbNode"
          }
        }
      },
      "name": "Bip001 Neck",
      "rotation": [
        1.1524357024228493e-09,
        -2.829546588145604e-07,
        0.10156012326478958,
        0.9948294162750244
      ],
      "translation": [
        0.28435760736465454,
        -0.03362075984477997,
        -4.231929651155042e-08
      ]
    },
    {
      "children": [
        17
      ],
      "extras": {
        "FBX-glTF-conv": {
          "skeleton": {
            "skeletonType": "LimbNode"
          }
        }
      },
      "name": "Bip001 L Clavicle",
      "rotation": [
        0.8745654821395874,
        -0.12969733774662018,
        0.4663417637348175,
        -0.028967924416065216
      ],
      "translation": [
        -0.1258380115032196,
        -0.02249137870967388,
        0.10685665160417557
      ]
    },
    {
      "children": [
        18
      ],
      "extras": {
        "FBX-glTF-conv": {
          "skeleton": {
            "skeletonType": "LimbNode"
          }
        }
      },
      "name": "Bip001 L UpperArm",
      "rotation": [
        -0.7255783081054688,
        -0.021661801263689995,
        0.11474359780550003,
        0.6781598925590515
      ],
      "translation": [
        0.12755073606967926,
        -3.814697180359872e-08,
        -3.814697180359872e-08
      ]
    },
    {
      "children": [
        19
      ],
      "extras": {
        "FBX-glTF-conv": {
          "skeleton": {
            "skeletonType": "LimbNode"
          }
        }
      },
      "name": "Bip001 L Forearm",
      "rotation": [
        -1.1821050363996269e-17,
        -2.511244239094637e-17,
        -0.4258982241153717,
        0.904771089553833
      ],
      "translation": [
        0.2662735879421234,
        7.629394360719743e-08,
        7.105427198782324e-17
      ]
    },
    {
      "extras": {
        "FBX-glTF-conv": {
          "skeleton": {
            "skeletonType": "LimbNode"
          }
        }
      },
      "name": "Bip001 L Hand",
      "rotation": [
        0.835433840751648,
        0.45712995529174805,
        0.3045973479747772,
        0.017406005412340164
      ],
      "translation": [
        0.2864900231361389,
        3.814697180359872e-08,
        -3.814697180359872e-08
      ]
    },
    {
      "children": [
        21
      ],
      "extras": {
        "FBX-glTF-conv": {
          "skeleton": {
            "skeletonType": "LimbNode"
          }
        }
      },
      "name": "Bip001 R Clavicle",
      "rotation": [
        0.9278666377067566,
        -0.097757987678051,
        -0.3586300313472748,
        -0.029856789857149124
      ],
      "translation": [
        -0.1258380115032196,
        -0.022490767762064934,
        -0.10685688257217407
      ]
    },
    {
      "children": [
        22
      ],
      "extras": {
        "FBX-glTF-conv": {
          "skeleton": {
            "skeletonType": "LimbNode"
          }
        }
      },
      "name": "Bip001 R UpperArm",
      "rotation": [
        0.4553668200969696,
        -0.012593204155564308,
        0.20676809549331665,
        0.8658691644668579
      ],
      "translation": [
        0.12755081057548523,
        0.0,
        7.105427198782324e-17
      ]
    },
    {
      "children": [
        23
      ],
      "extras": {
        "FBX-glTF-conv": {
          "skeleton": {
            "skeletonType": "LimbNode"
          }
        }
      },
      "name": "Bip001 R Forearm",
      "rotation": [
        2.5885929055577357e-17,
        -1.0014522647766184e-17,
        -0.3608112037181854,
        0.9326388835906982
      ],
      "translation": [
        0.26627373695373535,
        -1.4210854397564648e-16,
        0.0
      ]
    },
    {
      "extras": {
        "FBX-glTF-conv": {
          "skeleton": {
            "skeletonType": "LimbNode"
          }
        }
      },
      "name": "Bip001 R Hand",
      "rotation": [
        0.762277364730835,
        0.4340994358062744,
        -0.41644471883773804,
        -0.23888210952281952
      ],
      "translation": [
        0.286490261554718,
        7.105427198782324e-17,
        -1.5258788721439487e-07
      ]
    },
    {
      "children": [
        25
      ],
      "extras": {
        "FBX-glTF-conv": {
          "skeleton": {
            "skeletonType": "LimbNode"
          }
        }
      },
      "name": "Bip001 Head",
      "rotation": [
        -0.018292907625436783,
        0.004253772087395191,
        -0.045308057218790054,
        0.9987965226173401
      ],
      "translation": [
        0.06347229331731796,
        -0.0012641906505450606,
        -4.6819448584756174e-07
      ]
    },
    {
      "extras": {
        "FBX-glTF-conv": {
          "skeleton": {
            "skeletonType": "LimbNode"
          }
        }
      },
      "name": "Bip001 HeadNub",
      "translation": [
        0.22270087897777557,
        7.629394360719743e-08,
        -2.38418573772492e-09
      ]
    },
    {
      "extras": {
        "FBX-glTF-conv": {
          "skeleton": {
            "skeletonType": "LimbNode"
          }
        }
      },
      "name": "Bip001 Prop1",
      "rotation": [
        -0.1859826147556305,
        0.07380324602127075,
        0.9763091802597046,
        0.08236458897590637
      ],
      "translation": [
        0.11298263818025589,
        -0.47564947605133057,
        1.0589908361434937
      ]
    }
  ],
  "scenes": [
    {
      "nodes": [
        0
      ]
    }
  ]
}