{
  "accessors": [
    {
      "bufferView": 0,
      "componentType": 5126,
      "count": 30,
      "name": "Bip001/translation/Output",
      "type": "VEC3"
    },
    {
      "bufferView": 1,
      "componentType": 5126,
      "count": 30,
      "max": [
        1.0
      ],
      "min": [
        0.0
      ],
      "name": "Bip001/translation/Input",
      "type": "SCALAR"
    },
    {
      "bufferView": 2,
      "componentType": 5126,
      "count": 1,
      "name": "Bip001/rotation/Output",
      "type": "VEC4"
    },
    {
      "bufferView": 3,
      "componentType": 5126,
      "count": 1,
      "max": [
        1.0
      ],
      "min": [
        1.0
      ],
      "name": "Bip001/rotation/Input",
      "type": "SCALAR"
    },
    {
      "bufferView": 4,
      "componentType": 5126,
      "count": 1,
      "name": "Bip001/scale/Output",
      "type": "VEC3"
    },
    {
      "bufferView": 5,
      "componentType": 5126,
      "count": 1,
      "max": [
        1.0
      ],
      "min": [
        1.0
      ],
      "name": "Bip001/scale/Input",
      "type": "SCALAR"
    },
    {
      "bufferView": 6,
      "componentType": 5126,
      "count": 30,
      "name": "Bip001 Footsteps/translation/Output",
      "type": "VEC3"
    },
    {
      "bufferView": 7,
      "componentType": 5126,
      "count": 30,
      "max": [
        1.0
      ],
      "min": [
        0.03333333507180214
      ],
      "name": "Bip001 Footsteps/translation/Input",
      "type": "SCALAR"
    },
    {
      "bufferView": 8,
      "componentType": 5126,
      "count": 1,
      "name": "Bip001 Footsteps/rotation/Output",
      "type": "VEC4"
    },
    {
      "bufferView": 9,
      "componentType": 5126,
      "count": 1,
      "max": [
        1.0
      ],
      "min": [
        1.0
      ],
      "name": "Bip001 Footsteps/rotation/Input",
      "type": "SCALAR"
    },
    {
      "bufferView": 10,
      "componentType": 5126,
      "count": 1,
      "name": "Bip001 Footsteps/scale/Output",
      "type": "VEC3"
    },
    {
      "bufferView": 11,
      "componentType": 5126,
      "count": 1,
      "max": [
        1.0
      ],
      "min": [
        1.0
      ],
      "name": "Bip001 Footsteps/scale/Input",
      "type": "SCALAR"
    },
    {
      "bufferView": 12,
      "componentType": 5126,
      "count": 1,
      "name": "Bip001 Pelvis/translation/Output",
      "type": "VEC3"
    },
    {
      "bufferView": 13,
      "componentType": 5126,
      "count": 1,
      "max": [
        1.0
      ],
      "min": [
        1.0
      ],
      "name": "Bip001 Pelvis/translation/Input",
      "type": "SCALAR"
    },
    {
      "bufferView": 14,
      "componentType": 5126,
      "count": 21,
      "name": "Bip001 Pelvis/rotation/Output",
      "type": "VEC4"
    },
    {
      "bufferView": 15,
      "componentType": 5126,
      "count": 21,
      "max": [
        0.6666666865348816
      ],
      "min": [
        0.0
      ],
      "name": "Bip001 Pelvis/rotation/Input",
      "type": "SCALAR"
    },
    {
      "bufferView": 16,
      "componentType": 5126,
      "count": 1,
      "name": "Bip001 Pelvis/scale/Output",
      "type": "VEC3"
    },
    {
      "bufferView": 17,
      "componentType": 5126,
      "count": 1,
      "max": [
        1.0
      ],
      "min": [
        1.0
      ],
      "name": "Bip001 Pelvis/scale/Input",
      "type": "SCALAR"
    },
    {
      "bufferView": 18,
      "componentType": 5126,
      "count": 31,
      "name": "Bip001 Spine/translation/Output",
      "type": "VEC3"
    },
    {
      "bufferView": 19,
      "componentType": 5126,
      "count": 31,
      "max": [
        1.0
      ],
      "min": [
        0.0
      ],
      "name": "Bip001 Spine/translation/Input",
      "type": "SCALAR"
    },
    {
      "bufferView": 20,
      "componentType": 5126,
      "count": 30,
      "name": "Bip001 Spine/rotation/Output",
      "type": "VEC4"
    },
    {
      "bufferView": 21,
      "componentType": 5126,
      "count": 30,
      "max": [
        1.0
      ],
      "min": [
        0.0
      ],
      "name": "Bip001 Spine/rotation/Input",
      "type": "SCALAR"
    },
    {
      "bufferView": 22,
      "componentType": 5126,
      "count": 1,
      "name": "Bip001 Spine/scale/Output",
      "type": "VEC3"
    },
    {
      "bufferView": 23,
      "componentType": 5126,
      "count": 1,
      "max": [
        1.0
      ],
      "min": [
        1.0
      ],
      "name": "Bip001 Spine/scale/Input",
      "type": "SCALAR"
    },
    {
      "bufferView": 24,
      "componentType": 5126,
      "count": 31,
      "name": "Bip001 Spine1/translation/Output",
      "type": "VEC3"
    },
    {
      "bufferView": 25,
      "componentType": 5126,
      "count": 31,
      "max": [
        1.0
      ],
      "min": [
        0.0
      ],
      "name": "Bip001 Spine1/translation/Input",
      "type": "SCALAR"
    },
    {
      "bufferView": 26,
      "componentType": 5126,
      "count": 29,
      "name": "Bip001 Spine1/rotation/Output",
      "type": "VEC4"
    },
    {
      "bufferView": 27,
      "componentType": 5126,
      "count": 29,
      "max": [
        1.0
      ],
      "min": [
        0.0
      ],
      "name": "Bip001 Spine1/rotation/Input",
      "type": "SCALAR"
    },
    {
      "bufferView": 28,
      "componentType": 5126,
      "count": 1,
      "name": "Bip001 Spine1/scale/Output",
      "type": "VEC3"
    },
    {
      "bufferView": 29,
      "componentType": 5126,
      "count": 1,
      "max": [
        1.0
      ],
      "min": [
        1.0
      ],
      "name": "Bip001 Spine1/scale/Input",
      "type": "SCALAR"
    },
    {
      "bufferView": 30,
      "componentType": 5126,
      "count": 13,
      "name": "Bip001 Neck/translation/Output",
      "type": "VEC3"
    },
    {
      "bufferView": 31,
      "componentType": 5126,
      "count": 13,
      "max": [
        0.9666666388511658
      ],
      "min": [
        0.03333333507180214
      ],
      "name": "Bip001 Neck/translation/Input",
      "type": "SCALAR"
    },
    {
      "bufferView": 32,
      "componentType": 5126,
      "count": 1,
      "name": "Bip001 Neck/rotation/Output",
      "type": "VEC4"
    },
    {
      "bufferView": 33,
      "componentType": 5126,
      "count": 1,
      "max": [
        1.0
      ],
      "min": [
        1.0
      ],
      "name": "Bip001 Neck/rotation/Input",
      "type": "SCALAR"
    },
    {
      "bufferView": 34,
      "componentType": 5126,
      "count": 1,
      "name": "Bip001 Neck/scale/Output",
      "type": "VEC3"
    },
    {
      "bufferView": 35,
      "componentType": 5126,
      "count": 1,
      "max": [
        1.0
      ],
      "min": [
        1.0
      ],
      "name": "Bip001 Neck/scale/Input",
      "type": "SCALAR"
    },
    {
      "bufferView": 36,
      "componentType": 5126,
      "count": 12,
      "name": "Bip001 Head/translation/Output",
      "type": "VEC3"
    },
    {
      "bufferView": 37,
      "componentType": 5126,
      "count": 12,
      "max": [
        1.0
      ],
      "min": [
        0.10000000149011612
      ],
      "name": "Bip001 Head/translation/Input",
      "type": "SCALAR"
    },
    {
      "bufferView": 38,
      "componentType": 5126,
      "count": 31,
      "name": "Bip001 Head/rotation/Output",
      "type": "VEC4"
    },
    {
      "bufferView": 39,
      "componentType": 5126,
      "count": 31,
      "max": [
        1.0
      ],
      "min": [
        0.0
      ],
      "name": "Bip001 Head/rotation/Input",
      "type": "SCALAR"
    },
    {
      "bufferView": 40,
      "componentType": 5126,
      "count": 1,
      "name": "Bip001 Head/scale/Output",
      "type": "VEC3"
    },
    {
      "bufferView": 41,
      "componentType": 5126,
      "count": 1,
      "max": [
        1.0
      ],
      "min": [
        1.0
      ],
      "name": "Bip001 Head/scale/Input",
      "type": "SCALAR"
    },
    {
      "bufferView": 42,
      "componentType": 5126,
      "count": 12,
      "name": "Bip001 L Clavicle/translation/Output",
      "type": "VEC3"
    },
    {
      "bufferView": 43,
      "componentType": 5126,
      "count": 12,
      "max": [
        1.0
      ],
      "min": [
        0.0
      ],
      "name": "Bip001 L Clavicle/translation/Input",
      "type": "SCALAR"
    },
    {
      "bufferView": 44,
      "componentType": 5126,
      "count": 1,
      "name": "Bip001 L Clavicle/rotation/Output",
      "type": "VEC4"
    },
    {
      "bufferView": 45,
      "componentType": 5126,
      "count": 1,
      "max": [
        1.0
      ],
      "min": [
        1.0
      ],
      "name": "Bip001 L Clavicle/rotation/Input",
      "type": "SCALAR"
    },
    {
      "bufferView": 46,
      "componentType": 5126,
      "count": 1,
      "name": "Bip001 L Clavicle/scale/Output",
      "type": "VEC3"
    },
    {
      "bufferView": 47,
      "componentType": 5126,
      "count": 1,
      "max": [
        1.0
      ],
      "min": [
        1.0
      ],
      "name": "Bip001 L Clavicle/scale/Input",
      "type": "SCALAR"
    },
    {
      "bufferView": 48,
      "componentType": 5126,
      "count": 4,
      "name": "Bip001 L UpperArm/translation/Output",
      "type": "VEC3"
    },
    {
      "bufferView": 49,
      "componentType": 5126,
      "count": 4,
      "max": [
        1.0
      ],
      "min": [
        0.8999999761581421
      ],
      "name": "Bip001 L UpperArm/translation/Input",
      "type": "SCALAR"
    },
    {
      "bufferView": 50,
      "componentType": 5126,
      "count": 31,
      "name": "Bip001 L UpperArm/rotation/Output",
      "type": "VEC4"
    },
    {
      "bufferView": 51,
      "componentType": 5126,
      "count": 31,
      "max": [
        1.0
      ],
      "min": [
        0.0
      ],
      "name": "Bip001 L UpperArm/rotation/Input",
      "type": "SCALAR"
    },
    {
      "bufferView": 52,
      "componentType": 5126,
      "count": 1,
      "name": "Bip001 L UpperArm/scale/Output",
      "type": "VEC3"
    },
    {
      "bufferView": 53,
      "componentType": 5126,
      "count": 1,
      "max": [
        1.0
      ],
      "min": [
        1.0
      ],
      "name": "Bip001 L UpperArm/scale/Input",
      "type": "SCALAR"
    },
    {
      "bufferView": 54,
      "componentType": 5126,
      "count": 12,
      "name": "Bip001 L Forearm/translation/Output",
      "type": "VEC3"
    },
    {
      "bufferView": 55,
      "componentType": 5126,
      "count": 12,
      "max": [
        0.9333333373069763
      ],
      "min": [
        0.10000000149011612
      ],
      "name": "Bip001 L Forearm/translation/Input",
      "type": "SCALAR"
    },
    {
      "bufferView": 56,
      "componentType": 5126,
      "count": 29,
      "name": "Bip001 L Forearm/rotation/Output",
      "type": "VEC4"
    },
    {
      "bufferView": 57,
      "componentType": 5126,
      "count": 29,
      "max": [
        1.0
      ],
      "min": [
        0.0
      ],
      "name": "Bip001 L Forearm/rotation/Input",
      "type": "SCALAR"
    },
    {
      "bufferView": 58,
      "componentType": 5126,
      "count": 1,
      "name": "Bip001 L Forearm/scale/Output",
      "type": "VEC3"
    },
    {
      "bufferView": 59,
      "componentType": 5126,
      "count": 1,
      "max": [
        1.0
      ],
      "min": [
        1.0
      ],
      "name": "Bip001 L Forearm/scale/Input",
      "type": "SCALAR"
    },
    {
      "bufferView": 60,
      "componentType": 5126,
      "count": 16,
      "name": "Bip001 L Hand/translation/Output",
      "type": "VEC3"
    },
    {
      "bufferView": 61,
      "componentType": 5126,
      "count": 16,
      "max": [
        0.8333333134651184
      ],
      "min": [
        0.0
      ],
      "name": "Bip001 L Hand/translation/Input",
      "type": "SCALAR"
    },
    {
      "bufferView": 62,
      "componentType": 5126,
      "count": 31,
      "name": "Bip001 L Hand/rotation/Output",
      "type": "VEC4"
    },
    {
      "bufferView": 63,
      "componentType": 5126,
      "count": 31,
      "max": [
        1.0
      ],
      "min": [
        0.0
      ],
      "name": "Bip001 L Hand/rotation/Input",
      "type": "SCALAR"
    },
    {
      "bufferView": 64,
      "componentType": 5126,
      "count": 1,
      "name": "Bip001 L Hand/scale/Output",
      "type": "VEC3"
    },
    {
      "bufferView": 65,
      "componentType": 5126,
      "count": 1,
      "max": [
        1.0
      ],
      "min": [
        1.0
      ],
      "name": "Bip001 L Hand/scale/Input",
      "type": "SCALAR"
    },
    {
      "bufferView": 66,
      "componentType": 5126,
      "count": 11,
      "name": "Bip001 R Clavicle/translation/Output",
      "type": "VEC3"
    },
    {
      "bufferView": 67,
      "componentType": 5126,
      "count": 11,
      "max": [
        0.8666666746139526
      ],
      "min": [
        0.10000000149011612
      ],
      "name": "Bip001 R Clavicle/translation/Input",
      "type": "SCALAR"
    },
    {
      "bufferView": 68,
      "componentType": 5126,
      "count": 1,
      "name": "Bip001 R Clavicle/rotation/Output",
      "type": "VEC4"
    },
    {
      "bufferView": 69,
      "componentType": 5126,
      "count": 1,
      "max": [
        1.0
      ],
      "min": [
        1.0
      ],
      "name": "Bip001 R Clavicle/rotation/Input",
      "type": "SCALAR"
    },
    {
      "bufferView": 70,
      "componentType": 5126,
      "count": 1,
      "name": "Bip001 R Clavicle/scale/Output",
      "type": "VEC3"
    },
    {
      "bufferView": 71,
      "componentType": 5126,
      "count": 1,
      "max": [
        1.0
      ],
      "min": [
        1.0
      ],
      "name": "Bip001 R Clavicle/scale/Input",
      "type": "SCALAR"
    },
    {
      "bufferView": 72,
      "componentType": 5126,
      "count": 12,
      "name": "Bip001 R UpperArm/translation/Output",
      "type": "VEC3"
    },
    {
      "bufferView": 73,
      "componentType": 5126,
      "count": 12,
      "max": [
        1.0
      ],
      "min": [
        0.0
      ],
      "name": "Bip001 R UpperArm/translation/Input",
      "type": "SCALAR"
    },
    {
      "bufferView": 74,
      "componentType": 5126,
      "count": 31,
      "name": "Bip001 R UpperArm/rotation/Output",
      "type": "VEC4"
    },
    {
      "bufferView": 75,
      "componentType": 5126,
      "count": 31,
      "max": [
        1.0
      ],
      "min": [
        0.0
      ],
      "name": "Bip001 R UpperArm/rotation/Input",
      "type": "SCALAR"
    },
    {
      "bufferView": 76,
      "componentType": 5126,
      "count": 1,
      "name": "Bip001 R UpperArm/scale/Output",
      "type": "VEC3"
    },
    {
      "bufferView": 77,
      "componentType": 5126,
      "count": 1,
      "max": [
        1.0
      ],
      "min": [
        1.0
      ],
      "name": "Bip001 R UpperArm/scale/Input",
      "type": "SCALAR"
    },
    {
      "bufferView": 78,
      "componentType": 5126,
      "count": 15,
      "name": "Bip001 R Forearm/translation/Output",
      "type": "VEC3"
    },
    {
      "bufferView": 79,
      "componentType": 5126,
      "count": 15,
      "max": [
        0.9666666388511658
      ],
      "min": [
        0.06666667014360428
      ],
      "name": "Bip001 R Forearm/translation/Input",
      "type": "SCALAR"
    },
    {
      "bufferView": 80,
      "componentType": 5126,
      "count": 29,
      "name": "Bip001 R Forearm/rotation/Output",
      "type": "VEC4"
    },
    {
      "bufferView": 81,
      "componentType": 5126,
      "count": 29,
      "max": [
        1.0
      ],
      "min": [
        0.0
      ],
      "name": "Bip001 R Forearm/rotation/Input",
      "type": "SCALAR"
    },
    {
      "bufferView": 82,
      "componentType": 5126,
      "count": 1,
      "name": "Bip001 R Forearm/scale/Output",
      "type": "VEC3"
    },
    {
      "bufferView": 83,
      "componentType": 5126,
      "count": 1,
      "max": [
        1.0
      ],
      "min": [
        1.0
      ],
      "name": "Bip001 R Forearm/scale/Input",
      "type": "SCALAR"
    },
    {
      "bufferView": 84,
      "componentType": 5126,
      "count": 18,
      "name": "Bip001 R Hand/translation/Output",
      "type": "VEC3"
    },
    {
      "bufferView": 85,
      "componentType": 5126,
      "count": 18,
      "max": [
        1.0
      ],
      "min": [
        0.0
      ],
      "name": "Bip001 R Hand/translation/Input",
      "type": "SCALAR"
    },
    {
      "bufferView": 86,
      "componentType": 5126,
      "count": 30,
      "name": "Bip001 R Hand/rotation/Output",
      "type": "VEC4"
    },
    {
      "bufferView": 87,
      "componentType": 5126,
      "count": 30,
      "max": [
        1.0
      ],
      "min": [
        0.0
      ],
      "name": "Bip001 R Hand/rotation/Input",
      "type": "SCALAR"
    },
    {
      "bufferView": 88,
      "componentType": 5126,
      "count": 1,
      "name": "Bip001 R Hand/scale/Output",
      "type": "VEC3"
    },
    {
      "bufferView": 89,
      "componentType": 5126,
      "count": 1,
      "max": [
        1.0
      ],
      "min": [
        1.0
      ],
      "name": "Bip001 R Hand/scale/Input",
      "type": "SCALAR"
    },
    {
      "bufferView": 90,
      "componentType": 5126,
      "count": 2,
      "name": "Bip001 L Thigh/translation/Output",
      "type": "VEC3"
    },
    {
      "bufferView": 91,
      "componentType": 5126,
      "count": 2,
      "max": [
        1.0
      ],
      "min": [
        0.9666666388511658
      ],
      "name": "Bip001 L Thigh/translation/Input",
      "type": "SCALAR"
    },
    {
      "bufferView": 92,
      "componentType": 5126,
      "count": 31,
      "name": "Bip001 L Thigh/rotation/Output",
      "type": "VEC4"
    },
    {
      "bufferView": 93,
      "componentType": 5126,
      "count": 31,
      "max": [
        1.0
      ],
      "min": [
        0.0
      ],
      "name": "Bip001 L Thigh/rotation/Input",
      "type": "SCALAR"
    },
    {
      "bufferView": 94,
      "componentType": 5126,
      "count": 1,
      "name": "Bip001 L Thigh/scale/Output",
      "type": "VEC3"
    },
    {
      "bufferView": 95,
      "componentType": 5126,
      "count": 1,
      "max": [
        1.0
      ],
      "min": [
        1.0
      ],
      "name": "Bip001 L Thigh/scale/Input",
      "type": "SCALAR"
    },
    {
      "bufferView": 96,
      "componentType": 5126,
      "count": 8,
      "name": "Bip001 L Calf/translation/Output",
      "type": "VEC3"
    },
    {
      "bufferView": 97,
      "componentType": 5126,
      "count": 8,
      "max": [
        1.0
      ],
      "min": [
        0.1666666716337204
      ],
      "name": "Bip001 L Calf/translation/Input",
      "type": "SCALAR"
    },
    {
      "bufferView": 98,
      "componentType": 5126,
      "count": 31,
      "name": "Bip001 L Calf/rotation/Output",
      "type": "VEC4"
    },
    {
      "bufferView": 99,
      "componentType": 5126,
      "count": 31,
      "max": [
        1.0
      ],
      "min": [
        0.0
      ],
      "name": "Bip001 L Calf/rotation/Input",
      "type": "SCALAR"
    },
    {
      "bufferView": 100,
      "componentType": 5126,
      "count": 1,
      "name": "Bip001 L Calf/scale/Output",
      "type": "VEC3"
    },
    {
      "bufferView": 101,
      "componentType": 5126,
      "count": 1,
      "max": [
        1.0
      ],
      "min": [
        1.0
      ],
      "name": "Bip001 L Calf/scale/Input",
      "type": "SCALAR"
    },
    {
      "bufferView": 102,
      "componentType": 5126,
      "count": 8,
      "name": "Bip001 L Foot/translation/Output",
      "type": "VEC3"
    },
    {
      "bufferView": 103,
      "componentType": 5126,
      "count": 8,
      "max": [
        1.0
      ],
      "min": [
        0.0
      ],
      "name": "Bip001 L Foot/translation/Input",
      "type": "SCALAR"
    },
    {
      "bufferView": 104,
      "componentType": 5126,
      "count": 31,
      "name": "Bip001 L Foot/rotation/Output",
      "type": "VEC4"
    },
    {
      "bufferView": 105,
      "componentType": 5126,
      "count": 31,
      "max": [
        1.0
      ],
      "min": [
        0.0
      ],
      "name": "Bip001 L Foot/rotation/Input",
      "type": "SCALAR"
    },
    {
      "bufferView": 106,
      "componentType": 5126,
      "count": 1,
      "name": "Bip001 L Foot/scale/Output",
      "type": "VEC3"
    },
    {
      "bufferView": 107,
      "componentType": 5126,
      "count": 1,
      "max": [
        1.0
      ],
      "min": [
        1.0
      ],
      "name": "Bip001 L Foot/scale/Input",
      "type": "SCALAR"
    },
    {
      "bufferView": 108,
      "componentType": 5126,
      "count": 1,
      "name": "Bip001 L Toe0/translation/Output",
      "type": "VEC3"
    },
    {
      "bufferView": 109,
      "componentType": 5126,
      "count": 1,
      "max": [
        1.0
      ],
      "min": [
        1.0
      ],
      "name": "Bip001 L Toe0/translation/Input",
      "type": "SCALAR"
    },
    {
      "bufferView": 110,
      "componentType": 5126,
      "count": 1,
      "name": "Bip001 L Toe0/rotation/Output",
      "type": "VEC4"
    },
    {
      "bufferView": 111,
      "componentType": 5126,
      "count": 1,
      "max": [
        1.0
      ],
      "min": [
        1.0
      ],
      "name": "Bip001 L Toe0/rotation/Input",
      "type": "SCALAR"
    },
    {
      "bufferView": 112,
      "componentType": 5126,
      "count": 1,
      "name": "Bip001 L Toe0/scale/Output",
      "type": "VEC3"
    },
    {
      "bufferView": 113,
      "componentType": 5126,
      "count": 1,
      "max": [
        1.0
      ],
      "min": [
        1.0
      ],
      "name": "Bip001 L Toe0/scale/Input",
      "type": "SCALAR"
    },
    {
      "bufferView": 114,
      "componentType": 5126,
      "count": 1,
      "name": "Bip001 R Thigh/translation/Output",
      "type": "VEC3"
    },
    {
      "bufferView": 115,
      "componentType": 5126,
      "count": 1,
      "max": [
        1.0
      ],
      "min": [
        1.0
      ],
      "name": "Bip001 R Thigh/translation/Input",
      "type": "SCALAR"
    },
    {
      "bufferView": 116,
      "componentType": 5126,
      "count": 31,
      "name": "Bip001 R Thigh/rotation/Output",
      "type": "VEC4"
    },
    {
      "bufferView": 117,
      "componentType": 5126,
      "count": 31,
      "max": [
        1.0
      ],
      "min": [
        0.0
      ],
      "name": "Bip001 R Thigh/rotation/Input",
      "type": "SCALAR"
    },
    {
      "bufferView": 118,
      "componentType": 5126,
      "count": 1,
      "name": "Bip001 R Thigh/scale/Output",
      "type": "VEC3"
    },
    {
      "bufferView": 119,
      "componentType": 5126,
      "count": 1,
      "max": [
        1.0
      ],
      "min": [
        1.0
      ],
      "name": "Bip001 R Thigh/scale/Input",
      "type": "SCALAR"
    },
    {
      "bufferView": 120,
      "componentType": 5126,
      "count": 10,
      "name": "Bip001 R Calf/translation/Output",
      "type": "VEC3"
    },
    {
      "bufferView": 121,
      "componentType": 5126,
      "count": 10,
      "max": [
        1.0
      ],
      "min": [
        0.13333334028720856
      ],
      "name": "Bip001 R Calf/translation/Input",
      "type": "SCALAR"
    },
    {
      "bufferView": 122,
      "componentType": 5126,
      "count": 31,
      "name": "Bip001 R Calf/rotation/Output",
      "type": "VEC4"
    },
    {
      "bufferView": 123,
      "componentType": 5126,
      "count": 31,
      "max": [
        1.0
      ],
      "min": [
        0.0
      ],
      "name": "Bip001 R Calf/rotation/Input",
      "type": "SCALAR"
    },
    {
      "bufferView": 124,
      "componentType": 5126,
      "count": 1,
      "name": "Bip001 R Calf/scale/Output",
      "type": "VEC3"
    },
    {
      "bufferView": 125,
      "componentType": 5126,
      "count": 1,
      "max": [
        1.0
      ],
      "min": [
        1.0
      ],
      "name": "Bip001 R Calf/scale/Input",
      "type": "SCALAR"
    },
    {
      "bufferView": 126,
      "componentType": 5126,
      "count": 7,
      "name": "Bip001 R Foot/translation/Output",
      "type": "VEC3"
    },
    {
      "bufferView": 127,
      "componentType": 5126,
      "count": 7,
      "max": [
        1.0
      ],
      "min": [
        0.06666667014360428
      ],
      "name": "Bip001 R Foot/translation/Input",
      "type": "SCALAR"
    },
    {
      "bufferView": 128,
      "componentType": 5126,
      "count": 31,
      "name": "Bip001 R Foot/rotation/Output",
      "type": "VEC4"
    },
    {
      "bufferView": 129,
      "componentType": 5126,
      "count": 31,
      "max": [
        1.0
      ],
      "min": [
        0.0
      ],
      "name": "Bip001 R Foot/rotation/Input",
      "type": "SCALAR"
    },
    {
      "bufferView": 130,
      "componentType": 5126,
      "count": 1,
      "name": "Bip001 R Foot/scale/Output",
      "type": "VEC3"
    },
    {
      "bufferView": 131,
      "componentType": 5126,
      "count": 1,
      "max": [
        1.0
      ],
      "min": [
        1.0
      ],
      "name": "Bip001 R Foot/scale/Input",
      "type": "SCALAR"
    },
    {
      "bufferView": 132,
      "componentType": 5126,
      "count": 1,
      "name": "Bip001 R Toe0/translation/Output",
      "type": "VEC3"
    },
    {
      "bufferView": 133,
      "componentType": 5126,
      "count": 1,
      "max": [
        1.0
      ],
      "min": [
        1.0
      ],
      "name": "Bip001 R Toe0/translation/Input",
      "type": "SCALAR"
    },
    {
      "bufferView": 134,
      "componentType": 5126,
      "count": 1,
      "name": "Bip001 R Toe0/rotation/Output",
      "type": "VEC4"
    },
    {
      "bufferView": 135,
      "componentType": 5126,
      "count": 1,
      "max": [
        1.0
      ],
      "min": [
        1.0
      ],
      "name": "Bip001 R Toe0/rotation/Input",
      "type": "SCALAR"
    },
    {
      "bufferView": 136,
      "componentType": 5126,
      "count": 1,
      "name": "Bip001 R Toe0/scale/Output",
      "type": "VEC3"
    },
    {
      "bufferView": 137,
      "componentType": 5126,
      "count": 1,
      "max": [
        1.0
      ],
      "min": [
        1.0
      ],
      "name": "Bip001 R Toe0/scale/Input",
      "type": "SCALAR"
    }
  ],
  "animations": [
    {
      "channels": [
        {
          "sampler": 0,
          "target": {
            "node": 0,
            "path": "translation"
          }
        },
        {
          "sampler": 1,
          "target": {
            "node": 0,
            "path": "rotation"
          }
        },
        {
          "sampler": 2,
          "target": {
            "node": 0,
            "path": "scale"
          }
        },
        {
          "sampler": 3,
          "target": {
            "node": 1,
            "path": "translation"
          }
        },
        {
          "sampler": 4,
          "target": {
            "node": 1,
            "path": "rotation"
          }
        },
        {
          "sampler": 5,
          "target": {
            "node": 1,
            "path": "scale"
          }
        },
        {
          "sampler": 6,
          "target": {
            "node": 2,
            "path": "translation"
          }
        },
        {
          "sampler": 7,
          "target": {
            "node": 2,
            "path": "rotation"
          }
        },
        {
          "sampler": 8,
          "target": {
            "node": 2,
            "path": "scale"
          }
        },
        {
          "sampler": 9,
          "target": {
            "node": 3,
            "path": "translation"
          }
        },
        {
          "sampler": 10,
          "target": {
            "node": 3,
            "path": "rotation"
          }
        },
        {
          "sampler": 11,
          "target": {
            "node": 3,
            "path": "scale"
          }
        },
        {
          "sampler": 12,
          "target": {
            "node": 4,
            "path": "translation"
          }
        },
        {
          "sampler": 13,
          "target": {
            "node": 4,
            "path": "rotation"
          }
        },
        {
          "sampler": 14,
          "target": {
            "node": 4,
            "path": "scale"
          }
        },
        {
          "sampler": 15,
          "target": {
            "node": 5,
            "path": "translation"
          }
        },
        {
          "sampler": 16,
          "target": {
            "node": 5,
            "path": "rotation"
          }
        },
        {
          "sampler": 17,
          "target": {
            "node": 5,
            "path": "scale"
          }
        },
        {
          "sampler": 18,
          "target": {
            "node": 6,
            "path": "translation"
          }
        },
        {
          "sampler": 19,
          "target": {
            "node": 6,
            "path": "rotation"
          }
        },
        {
          "sampler": 20,
          "target": {
            "node": 6,
            "path": "scale"
          }
        },
        {
          "sampler": 21,
          "target": {
            "node": 8,
            "path": "translation"
          }
        },
        {
          "sampler": 22,
          "target": {
            "node": 8,
            "path": "rotation"
          }
        },
        {
          "sampler": 23,
          "target": {
            "node": 8,
            "path": "scale"
          }
        },
        {
          "sampler": 24,
          "target": {
            "node": 9,
            "path": "translation"
          }
        },
        {
          "sampler": 25,
          "target": {
            "node": 9,
            "path": "rotation"
          }
        },
        {
          "sampler": 26,
          "target": {
            "node": 9,
            "path": "scale"
          }
        },
        {
          "sampler": 27,
          "target": {
            "node": 10,
            "path": "translation"
          }
        },
        {
          "sampler": 28,
          "target": {
            "node": 10,
            "path": "rotation"
          }
        },
        {
          "sampler": 29,
          "target": {
            "node": 10,
            "path": "scale"
          }
        },
        {
          "sampler": 30,
          "target": {
            "node": 11,
            "path": "translation"
          }
        },
        {
          "sampler": 31,
          "target": {
            "node": 11,
            "path": "rotation"
          }
        },
        {
          "sampler": 32,
          "target": {
            "node": 11,
            "path": "scale"
          }
        },
        {
          "sampler": 33,
          "target": {
            "node": 12,
            "path": "translation"
          }
        },
        {
          "sampler": 34,
          "target": {
            "node": 12,
            "path": "rotation"
          }
        },
        {
          "sampler": 35,
          "target": {
            "node": 12,
            "path": "scale"
          }
        },
        {
          "sampler": 36,
          "target": {
            "node": 13,
            "path": "translation"
          }
        },
        {
          "sampler": 37,
          "target": {
            "node": 13,
            "path": "rotation"
          }
        },
        {
          "sampler": 38,
          "target": {
            "node": 13,
            "path": "scale"
          }
        },
        {
          "sampler": 39,
          "target": {
            "node": 14,
            "path": "translation"
          }
        },
        {
          "sampler": 40,
          "target": {
            "node": 14,
            "path": "rotation"
          }
        },
        {
          "sampler": 41,
          "target": {
            "node": 14,
            "path": "scale"
          }
        },
        {
          "sampler": 42,
          "target": {
            "node": 15,
            "path": "translation"
          }
        },
        {
          "sampler": 43,
          "target": {
            "node": 15,
            "path": "rotation"
          }
        },
        {
          "sampler": 44,
          "target": {
            "node": 15,
            "path": "scale"
          }
        },
        {
          "sampler": 45,
          "target": {
            "node": 16,
            "path": "translation"
          }
        },
        {
          "sampler": 46,
          "target": {
            "node": 16,
            "path": "rotation"
          }
        },
        {
          "sampler": 47,
          "target": {
            "node": 16,
            "path": "scale"
          }
        },
        {
          "sampler": 48,
          "target": {
            "node": 17,
            "path": "translation"
          }
        },
        {
          "sampler": 49,
          "target": {
            "node": 17,
            "path": "rotation"
          }
        },
        {
          "sampler": 50,
          "target": {
            "node": 17,
            "path": "scale"
          }
        },
        {
          "sampler": 51,
          "target": {
            "node": 18,
            "path": "translation"
          }
        },
        {
          "sampler": 52,
          "target": {
            "node": 18,
            "path": "rotation"
          }
        },
        {
          "sampler": 53,
          "target": {
            "node": 18,
            "path": "scale"
          }
        },
        {
          "sampler": 54,
          "target": {
            "node": 19,
            "path": "translation"
          }
        },
        {
          "sampler": 55,
          "target": {
            "node": 19,
            "path": "rotation"
          }
        },
        {
          "sampler": 56,
          "target": {
            "node": 19,
            "path": "scale"
          }
        },
        {
          "sampler": 57,
          "target": {
            "node": 21,
            "path": "translation"
          }
        },
        {
          "sampler": 58,
          "target": {
            "node": 21,
            "path": "rotation"
          }
        },
        {
          "sampler": 59,
          "target": {
            "node": 21,
            "path": "scale"
          }
        },
        {
          "sampler": 60,
          "target": {
            "node": 22,
            "path": "translation"
          }
        },
        {
          "sampler": 61,
          "target": {
            "node": 22,
            "path": "rotation"
          }
        },
        {
          "sampler": 62,
          "target": {
            "node": 22,
            "path": "scale"
          }
        },
        {
          "sampler": 63,
          "target": {
            "node": 23,
            "path": "translation"
          }
        },
        {
          "sampler": 64,
          "target": {
            "node": 23,
            "path": "rotation"
          }
        },
        {
          "sampler": 65,
          "target": {
            "node": 23,
            "path": "scale"
          }
        },
        {
          "sampler": 66,
          "target": {
            "node": 24,
            "path": "translation"
          }
        },
        {
          "sampler": 67,
          "target": {
            "node": 24,
            "path": "rotation"
          }
        },
        {
          "sampler": 68,
          "target": {
            "node": 24,
            "path": "scale"
          }
        }
      ],
      "name": "Take 001",
      "samplers": [
        {
          "input": 1,
          "output": 0
        },
        {
          "input": 3,
          "output": 2
        },
        {
          "input": 5,
          "output": 4
        },
        {
          "input": 7,
          "output": 6
        },
        {
          "input": 9,
          "output": 8
        },
        {
          "input": 11,
          "output": 10
        },
        {
          "input": 13,
          "output": 12
        },
        {
          "input": 15,
          "output": 14
        },
        {
          "input": 17,
          "output": 16
        },
        {
          "input": 19,
          "output": 18
        },
        {
          "input": 21,
          "output": 20
        },
        {
          "input": 23,
          "output": 22
        },
        {
          "input": 25,
          "output": 24
        },
        {
          "input": 27,
          "output": 26
        },
        {
          "input": 29,
          "output": 28
        },
        {
          "input": 31,
          "output": 30
        },
        {
          "input": 33,
          "output": 32
        },
        {
          "input": 35,
          "output": 34
        },
        {
          "input": 37,
          "output": 36
        },
        {
          "input": 39,
          "output": 38
        },
        {
          "input": 41,
          "output": 40
        },
        {
          "input": 43,
          "output": 42
        },
        {
          "input": 45,
          "output": 44
        },
        {
          "input": 47,
          "output": 46
        },
        {
          "input": 49,
          "output": 48
        },
        {
          "input": 51,
          "output": 50
        },
        {
          "input": 53,
          "output": 52
        },
        {
          "input": 55,
          "output": 54
        },
        {
          "input": 57,
          "output": 56
        },
        {
          "input": 59,
          "output": 58
        },
        {
          "input": 61,
          "output": 60
        },
        {
          "input": 63,
          "output": 62
        },
        {
          "input": 65,
          "output": 64
        },
        {
          "input": 67,
          "output": 66
        },
        {
          "input": 69,
          "output": 68
        },
        {
          "input": 71,
          "output": 70
        },
        {
          "input": 73,
          "output": 72
        },
        {
          "input": 75,
          "output": 74
        },
        {
          "input": 77,
          "output": 76
        },
        {
          "input": 79,
          "output": 78
        },
        {
          "input": 81,
          "output": 80
        },
        {
          "input": 83,
          "output": 82
        },
        {
          "input": 85,
          "output": 84
        },
        {
          "input": 87,
          "output": 86
        },
        {
          "input": 89,
          "output": 88
        },
        {
          "input": 91,
          "output": 90
        },
        {
          "input": 93,
          "output": 92
        },
        {
          "input": 95,
          "output": 94
        },
        {
          "input": 97,
          "output": 96
        },
        {
          "input": 99,
          "output": 98
        },
        {
          "input": 101,
          "output": 100
        },
        {
          "input": 103,
          "output": 102
        },
        {
          "input": 105,
          "output": 104
        },
        {
          "input": 107,
          "output": 106
        },
        {
          "input": 109,
          "output": 108
        },
        {
          "input": 111,
          "output": 110
        },
        {
          "input": 113,
          "output": 112
        },
        {
          "input": 115,
          "output": 114
        },
        {
          "input": 117,
          "output": 116
        },
        {
          "input": 119,
          "output": 118
        },
        {
          "input": 121,
          "output": 120
        },
        {
          "input": 123,
          "output": 122
        },
        {
          "input": 125,
          "output": 124
        },
        {
          "input": 127,
          "output": 126
        },
        {
          "input": 129,
          "output": 128
        },
        {
          "input": 131,
          "output": 130
        },
        {
          "input": 133,
          "output": 132
        },
        {
          "input": 135,
          "output": 134
        },
        {
          "input": 137,
          "output": 136
        }
      ]
    }
  ],
  "asset": {
    "copyright": "Copyright (c) 2018-2020 Chukong Technologies Inc.",
    "generator": "FBX-glTF-conv",
    "version": "2.0"
  },
  "bufferViews": [
    {
      "buffer": 0,
      "byteLength": 360
    },
    {
      "buffer": 0,
      "byteLength": 120,
      "byteOffset": 360
    },
    {
      "buffer": 0,
      "byteLength": 16,
      "byteOffset": 480
    },
    {
      "buffer": 0,
      "byteLength": 4,
      "byteOffset": 496
    },
    {
      "buffer": 0,
      "byteLength": 12,
      "byteOffset": 500
    },
    {
      "buffer": 0,
      "byteLength": 4,
      "byteOffset": 512
    },
    {
      "buffer": 0,
      "byteLength": 360,
      "byteOffset": 516
    },
    {
      "buffer": 0,
      "byteLength": 120,
      "byteOffset": 876
    },
    {
      "buffer": 0,
      "byteLength": 16,
      "byteOffset": 996
    },
    {
      "buffer": 0,
      "byteLength": 4,
      "byteOffset": 1012
    },
    {
      "buffer": 0,
      "byteLength": 12,
      "byteOffset": 1016
    },
    {
      "buffer": 0,
      "byteLength": 4,
      "byteOffset": 1028
    },
    {
      "buffer": 0,
      "byteLength": 12,
      "byteOffset": 1032
    },
    {
      "buffer": 0,
      "byteLength": 4,
      "byteOffset": 1044
    },
    {
      "buffer": 0,
      "byteLength": 336,
      "byteOffset": 1048
    },
    {
      "buffer": 0,
      "byteLength": 84,
      "byteOffset": 1384
    },
    {
      "buffer": 0,
      "byteLength": 12,
      "byteOffset": 1468
    },
    {
      "buffer": 0,
      "byteLength": 4,
      "byteOffset": 1480
    },
    {
      "buffer": 0,
      "byteLength": 372,
      "byteOffset": 1484
    },
    {
      "buffer": 0,
      "byteLength": 124,
      "byteOffset": 1856
    },
    {
      "buffer": 0,
      "byteLength": 480,
      "byteOffset": 1980
    },
    {
      "buffer": 0,
      "byteLength": 120,
      "byteOffset": 2460
    },
    {
      "buffer": 0,
      "byteLength": 12,
      "byteOffset": 2580
    },
    {
      "buffer": 0,
      "byteLength": 4,
      "byteOffset": 2592
    },
    {
      "buffer": 0,
      "byteLength": 372,
      "byteOffset": 2596
    },
    {
      "buffer": 0,
      "byteLength": 124,
      "byteOffset": 2968
    },
    {
      "buffer": 0,
      "byteLength": 464,
      "byteOffset": 3092
    },
    {
      "buffer": 0,
      "byteLength": 116,
      "byteOffset": 3556
    },
    {
      "buffer": 0,
      "byteLength": 12,
      "byteOffset": 3672
    },
    {
      "buffer": 0,
      "byteLength": 4,
      "byteOffset": 3684
    },
    {
      "buffer": 0,
      "byteLength": 156,
      "byteOffset": 3688
    },
    {
      "buffer": 0,
      "byteLength": 52,
      "byteOffset": 3844
    },
    {
      "buffer": 0,
      "byteLength": 16,
      "byteOffset": 3896
    },
    {
      "buffer": 0,
      "byteLength": 4,
      "byteOffset": 3912
    },
    {
      "buffer": 0,
      "byteLength": 12,
      "byteOffset": 3916
    },
    {
      "buffer": 0,
      "byteLength": 4,
      "byteOffset": 3928
    },
    {
      "buffer": 0,
      "byteLength": 144,
      "byteOffset": 3932
    },
    {
      "buffer": 0,
      "byteLength": 48,
      "byteOffset": 4076
    },
    {
      "buffer": 0,
      "byteLength": 496,
      "byteOffset": 4124
    },
    {
      "buffer": 0,
      "byteLength": 124,
      "byteOffset": 4620
    },
    {
      "buffer": 0,
      "byteLength": 12,
      "byteOffset": 4744
    },
    {
      "buffer": 0,
      "byteLength": 4,
      "byteOffset": 4756
    },
    {
      "buffer": 0,
      "byteLength": 144,
      "byteOffset": 4760
    },
    {
      "buffer": 0,
      "byteLength": 48,
      "byteOffset": 4904
    },
    {
      "buffer": 0,
      "byteLength": 16,
      "byteOffset": 4952
    },
    {
      "buffer": 0,
      "byteLength": 4,
      "byteOffset": 4968
    },
    {
      "buffer": 0,
      "byteLength": 12,
      "byteOffset": 4972
    },
    {
      "buffer": 0,
      "byteLength": 4,
      "byteOffset": 4984
    },
    {
      "buffer": 0,
      "byteLength": 48,
      "byteOffset": 4988
    },
    {
      "buffer": 0,
      "byteLength": 16,
      "byteOffset": 5036
    },
    {
      "buffer": 0,
      "byteLength": 496,
      "byteOffset": 5052
    },
    {
      "buffer": 0,
      "byteLength": 124,
      "byteOffset": 5548
    },
    {
      "buffer": 0,
      "byteLength": 12,
      "byteOffset": 5672
    },
    {
      "buffer": 0,
      "byteLength": 4,
      "byteOffset": 5684
    },
    {
      "buffer": 0,
      "byteLength": 144,
      "byteOffset": 5688
    },
    {
      "buffer": 0,
      "byteLength": 48,
      "byteOffset": 5832
    },
    {
      "buffer": 0,
      "byteLength": 464,
      "byteOffset": 5880
    },
    {
      "buffer": 0,
      "byteLength": 116,
      "byteOffset": 6344
    },
    {
      "buffer": 0,
      "byteLength": 12,
      "byteOffset": 6460
    },
    {
      "buffer": 0,
      "byteLength": 4,
      "byteOffset": 6472
    },
    {
      "buffer": 0,
      "byteLength": 192,
      "byteOffset": 6476
    },
    {
      "buffer": 0,
      "byteLength": 64,
      "byteOffset": 6668
    },
    {
      "buffer": 0,
      "byteLength": 496,
      "byteOffset": 6732
    },
    {
      "buffer": 0,
      "byteLength": 124,
      "byteOffset": 7228
    },
    {
      "buffer": 0,
      "byteLength": 12,
      "byteOffset": 7352
    },
    {
      "buffer": 0,
      "byteLength": 4,
      "byteOffset": 7364
    },
    {
      "buffer": 0,
      "byteLength": 132,
      "byteOffset": 7368
    },
    {
      "buffer": 0,
      "byteLength": 44,
      "byteOffset": 7500
    },
    {
      "buffer": 0,
      "byteLength": 16,
      "byteOffset": 7544
    },
    {
      "buffer": 0,
      "byteLength": 4,
      "byteOffset": 7560
    },
    {
      "buffer": 0,
      "byteLength": 12,
      "byteOffset": 7564
    },
    {
      "buffer": 0,
      "byteLength": 4,
      "byteOffset": 7576
    },
    {
      "buffer": 0,
      "byteLength": 144,
      "byteOffset": 7580
    },
    {
      "buffer": 0,
      "byteLength": 48,
      "byteOffset": 7724
    },
    {
      "buffer": 0,
      "byteLength": 496,
      "byteOffset": 7772
    },
    {
      "buffer": 0,
      "byteLength": 124,
      "byteOffset": 8268
    },
    {
      "buffer": 0,
      "byteLength": 12,
      "byteOffset": 8392
    },
    {
      "buffer": 0,
      "byteLength": 4,
      "byteOffset": 8404
    },
    {
      "buffer": 0,
      "byteLength": 180,
      "byteOffset": 8408
    },
    {
      "buffer": 0,
      "byteLength": 60,
      "byteOffset": 8588
    },
    {
      "buffer": 0,
      "byteLength": 464,
      "byteOffset": 8648
    },
    {
      "buffer": 0,
      "byteLength": 116,
      "byteOffset": 9112
    },
    {
      "buffer": 0,
      "byteLength": 12,
      "byteOffset": 9228
    },
    {
      "buffer": 0,
      "byteLength": 4,
      "byteOffset": 9240
    },
    {
      "buffer": 0,
      "byteLength": 216,
      "byteOffset": 9244
    },
    {
      "buffer": 0,
      "byteLength": 72,
      "byteOffset": 9460
    },
    {
      "buffer": 0,
      "byteLength": 480,
      "byteOffset": 9532
    },
    {
      "buffer": 0,
      "byteLength": 120,
      "byteOffset": 10012
    },
    {
      "buffer": 0,
      "byteLength": 12,
      "byteOffset": 10132
    },
    {
      "buffer": 0,
      "byteLength": 4,
      "byteOffset": 10144
    },
    {
      "buffer": 0,
      "byteLength": 24,
      "byteOffset": 10148
    },
    {
      "buffer": 0,
      "byteLength": 8,
      "byteOffset": 10172
    },
    {
      "buffer": 0,
      "byteLength": 496,
      "byteOffset": 10180
    },
    {
      "buffer": 0,
      "byteLength": 124,
      "byteOffset": 10676
    },
    {
      "buffer": 0,
      "byteLength": 12,
      "byteOffset": 10800
    },
    {
      "buffer": 0,
      "byteLength": 4,
      "byteOffset": 10812
    },
    {
      "buffer": 0,
      "byteLength": 96,
      "byteOffset": 10816
    },
    {
      "buffer": 0,
      "byteLength": 32,
      "byteOffset": 10912
    },
    {
      "buffer": 0,
      "byteLength": 496,
      "byteOffset": 10944
    },
    {
      "buffer": 0,
      "byteLength": 124,
      "byteOffset": 11440
    },
    {
      "buffer": 0,
      "byteLength": 12,
      "byteOffset": 11564
    },
    {
      "buffer": 0,
      "byteLength": 4,
      "byteOffset": 11576
    },
    {
      "buffer": 0,
      "byteLength": 96,
      "byteOffset": 11580
    },
    {
      "buffer": 0,
      "byteLength": 32,
      "byteOffset": 11676
    },
    {
      "buffer": 0,
      "byteLength": 496,
      "byteOffset": 11708
    },
    {
      "buffer": 0,
      "byteLength": 124,
      "byteOffset": 12204
    },
    {
      "buffer": 0,
      "byteLength": 12,
      "byteOffset": 12328
    },
    {
      "buffer": 0,
      "byteLength": 4,
      "byteOffset": 12340
    },
    {
      "buffer": 0,
      "byteLength": 12,
      "byteOffset": 12344
    },
    {
      "buffer": 0,
      "byteLength": 4,
      "byteOffset": 12356
    },
    {
      "buffer": 0,
      "byteLength": 16,
      "byteOffset": 12360
    },
    {
      "buffer": 0,
      "byteLength": 4,
      "byteOffset": 12376
    },
    {
      "buffer": 0,
      "byteLength": 12,
      "byteOffset": 12380
    },
    {
      "buffer": 0,
      "byteLength": 4,
      "byteOffset": 12392
    },
    {
      "buffer": 0,
      "byteLength": 12,
      "byteOffset": 12396
    },
    {
      "buffer": 0,
      "byteLength": 4,
      "byteOffset": 12408
    },
    {
      "buffer": 0,
      "byteLength": 496,
      "byteOffset": 12412
    },
    {
      "buffer": 0,
      "byteLength": 124,
      "byteOffset": 12908
    },
    {
      "buffer": 0,
      "byteLength": 12,
      "byteOffset": 13032
    },
    {
      "buffer": 0,
      "byteLength": 4,
      "byteOffset": 13044
    },
    {
      "buffer": 0,
      "byteLength": 120,
      "byteOffset": 13048
    },
    {
      "buffer": 0,
      "byteLength": 40,
      "byteOffset": 13168
    },
    {
      "buffer": 0,
      "byteLength": 496,
      "byteOffset": 13208
    },
    {
      "buffer": 0,
      "byteLength": 124,
      "byteOffset": 13704
    },
    {
      "buffer": 0,
      "byteLength": 12,
      "byteOffset": 13828
    },
    {
      "buffer": 0,
      "byteLength": 4,
      "byteOffset": 13840
    },
    {
      "buffer": 0,
      "byteLength": 84,
      "byteOffset": 13844
    },
    {
      "buffer": 0,
      "byteLength": 28,
      "byteOffset": 13928
    },
    {
      "buffer": 0,
      "byteLength": 496,
      "byteOffset": 13956
    },
    {
      "buffer": 0,
      "byteLength": 124,
      "byteOffset": 14452
    },
    {
      "buffer": 0,
      "byteLength": 12,
      "byteOffset": 14576
    },
    {
      "buffer": 0,
      "byteLength": 4,
      "byteOffset": 14588
    },
    {
      "buffer": 0,
      "byteLength": 12,
      "byteOffset": 14592
    },
    {
      "buffer": 0,
      "byteLength": 4,
      "byteOffset": 14604
    },
    {
      "buffer": 0,
      "byteLength": 16,
      "byteOffset": 14608
    },
    {
      "buffer": 0,
      "byteLength": 4,
      "byteOffset": 14624
    },
    {
      "buffer": 0,
      "byteLength": 12,
      "byteOffset": 14628
    },
    {
      "buffer": 0,
      "byteLength": 4,
      "byteOffset": 14640
    }
  ],
  "buffers": [
    {
      "byteLength": 14644,
      "uri": "out.bin"
    }
  ],
  "extras": {
    "FBX-glTF-conv": {
      "animationFrameRate": 30.0,
      "fbxFileHeaderInfo": {
        "creationTimeStamp": {
          "day": 10,
          "hour": 18,
          "millisecond": 386,
          "minute": 59,
          "month": 6,
          "second": 36,
          "year": 2026
        },
        "creator": "FBX SDK/FBX Plugins version 2020.3.7",
        "sceneInfo": {
          "author": "",
          "comment": "",
          "keywords": "",
          "original": {
            "applicationName": "3ds Max",
            "applicationVendor": "Autodesk",
            "applicationVersion": "2026",
            "fileName": "E:\\试玩需求\\胖丧尸\\胖丧尸_死亡扑腾(xg)1.fbx"
          },
          "revision": "",
          "subject": "",
          "title": "",
          "url": "D:\\工程项目\\test_pro\\test_pro\\HYQ_Project\\assets\\GameRes\\FBX\\Monster\\胖丧尸_死亡扑腾(xg)1.fbx"
        }
      }
    }
  },
  "nodes": [
    {
      "children": [
        1,
        2
      ],
      "extras": {
        "FBX-glTF-conv": {
          "skeleton": {
            "skeletonType": "Root"
          }
        }
      },
      "name": "Bip001",
      "rotation": [
        0.5174922943115234,
        0.5596826076507568,
        0.4597901403903961,
        -0.45557671785354614
      ],
      "translation": [
        0.007509647402912378,
        0.8256614804267883,
        0.048240777105093
      ]
    },
    {
      "name": "Bip001 Footsteps",
      "rotation": [
        0.04378093406558037,
        0.070634625852108,
        0.7208760976791382,
        0.6880636811256409
      ],
      "translation": [
        -0.132788747549057,
        -0.03444669768214226,
        -0.8168151378631592
      ]
    },
    {
      "children": [
        3,
        16,
        21
      ],
      "extras": {
        "FBX-glTF-conv": {
          "skeleton": {
            "skeletonType": "LimbNode"
          }
        }
      },
      "name": "Bip001 Pelvis",
      "rotation": [
        -0.5,
        -0.5,
        -0.4999993145465851,
        0.5000007152557373
      ]
    },
    {
      "children": [
        4
      ],
      "extras": {
        "FBX-glTF-conv": {
          "skeleton": {
            "skeletonType": "LimbNode"
          }
        }
      },
      "name": "Bip001 Spine",
      "rotation": [
        -2.151893568225205e-06,
        -7.806037274349364e-07,
        0.1278008669614792,
        0.9917998313903809
      ],
      "translation": [
        0.09203887730836868,
        -0.059756163507699966,
        2.527236802052357e-07
      ]
    },
    {
      "children": [
        5,
        8,
        12
      ],
      "extras": {
        "FBX-glTF-conv": {
          "skeleton": {
            "skeletonType": "LimbNode"
          }
        }
      },
      "name": "Bip001 Spine1",
      "rotation": [
        0.020533958449959755,
        -0.0313878208398819,
        0.11926329135894775,
        0.9921539425849915
      ],
      "translation": [
        0.23062385618686676,
        -0.00022179604275152087,
        -7.610321063111769e-06
      ]
    },
    {
      "children": [
        6
      ],
      "extras": {
        "FBX-glTF-conv": {
          "skeleton": {
            "skeletonType": "LimbNode"
          }
        }
      },
      "name": "Bip001 Neck",
      "rotation": [
        0.14050260186195374,
        -0.17341716587543488,
        0.3504781126976013,
        0.9095881581306458
      ],
      "translation": [
        0.2972293198108673,
        -0.02458934858441353,
        -7.526874469476752e-06
      ]
    },
    {
      "children": [
        7
      ],
      "extras": {
        "FBX-glTF-conv": {
          "skeleton": {
            "skeletonType": "LimbNode"
          }
        }
      },
      "name": "Bip001 Head",
      "rotation": [
        -0.1336604654788971,
        0.17785616219043732,
        -0.4017189145088196,
        0.8883265256881714
      ],
      "translation": [
        0.06866813451051712,
        0.013006133958697319,
        1.907348590179936e-08
      ]
    },
    {
      "extras": {
        "FBX-glTF-conv": {
          "skeleton": {
            "skeletonType": "LimbNode"
          }
        }
      },
      "name": "Bip001 HeadNub",
      "translation": [
        0.24481643736362457,
        3.814697180359872e-08,
        8.881783998477905e-18
      ]
    },
    {
      "children": [
        9
      ],
      "extras": {
        "FBX-glTF-conv": {
          "skeleton": {
            "skeletonType": "LimbNode"
          }
        }
      },
      "name": "Bip001 L Clavicle",
      "rotation": [
        0.7140978574752808,
        -0.045240357518196106,
        0.6970809698104858,
        -0.04577823728322983
      ],
      "translation": [
        0.23566558957099915,
        -0.02611488290131092,
        0.1099160835146904
      ]
    },
    {
      "children": [
        10
      ],
      "extras": {
        "FBX-glTF-conv": {
          "skeleton": {
            "skeletonType": "LimbNode"
          }
        }
      },
      "name": "Bip001 L UpperArm",
      "rotation": [
        -0.3528578281402588,
        0.09874183684587479,
        -0.0503520704805851,
        0.929088830947876
      ],
      "translation": [
        0.1403508335351944,
        -7.105427198782324e-17,
        0.0
      ]
    },
    {
      "children": [
        11
      ],
      "extras": {
        "FBX-glTF-conv": {
          "skeleton": {
            "skeletonType": "LimbNode"
          }
        }
      },
      "name": "Bip001 L Forearm",
      "rotation": [
        -2.9954618730488887e-17,
        -8.104680073028225e-18,
        -0.19809004664421082,
        0.9801838397979736
      ],
      "translation": [
        0.2313036322593689,
        3.814697180359872e-08,
        -7.629394360719743e-08
      ]
    },
    {
      "extras": {
        "FBX-glTF-conv": {
          "skeleton": {
            "skeletonType": "LimbNode"
          }
        }
      },
      "name": "Bip001 L Hand",
      "rotation": [
        -0.42786121368408203,
        0.04190007969737053,
        0.12639234960079193,
        0.8939821720123291
      ],
      "translation": [
        0.26844677329063416,
        3.814697180359872e-08,
        0.0
      ]
    },
    {
      "children": [
        13
      ],
      "extras": {
        "FBX-glTF-conv": {
          "skeleton": {
            "skeletonType": "LimbNode"
          }
        }
      },
      "name": "Bip001 R Clavicle",
      "rotation": [
        -0.6285332441329956,
        0.002936082426458597,
        0.77777498960495,
        -0.0018607521196827292
      ],
      "translation": [
        0.2356654405593872,
        -0.026114273816347122,
        -0.10991624742746353
      ]
    },
    {
      "children": [
        14
      ],
      "extras": {
        "FBX-glTF-conv": {
          "skeleton": {
            "skeletonType": "LimbNode"
          }
        }
      },
      "name": "Bip001 R UpperArm",
      "rotation": [
        0.12874343991279602,
        0.09059278666973114,
        0.04197889566421509,
        0.9866386651992798
      ],
      "translation": [
        0.14035078883171082,
        3.814697180359872e-08,
        0.0
      ]
    },
    {
      "children": [
        15
      ],
      "extras": {
        "FBX-glTF-conv": {
          "skeleton": {
            "skeletonType": "LimbNode"
          }
        }
      },
      "name": "Bip001 R Forearm",
      "rotation": [
        5.686530048792756e-18,
        -5.277185660600477e-18,
        -0.28061193227767944,
        0.9598212838172913
      ],
      "translation": [
        0.23130369186401367,
        -9.53674295089968e-09,
        0.0
      ]
    },
    {
      "extras": {
        "FBX-glTF-conv": {
          "skeleton": {
            "skeletonType": "LimbNode"
          }
        }
      },
      "name": "Bip001 R Hand",
      "rotation": [
        0.8729777336120605,
        0.03454578295350075,
        0.07602990418672562,
        0.4805578887462616
      ],
      "translation": [
        0.26844656467437744,
        -3.814697180359872e-08,
        0.0
      ]
    },
    {
      "children": [
        17
      ],
      "extras": {
        "FBX-glTF-conv": {
          "skeleton": {
            "skeletonType": "LimbNode"
          }
        }
      },
      "name": "Bip001 L Thigh",
      "rotation": [
        0.030619291588664055,
        0.9262604117393494,
        0.28330039978027344,
        -0.2466678023338318
      ],
      "translation": [
        -1.5258788721439487e-07,
        2.288818308215923e-07,
        0.13230793178081512
      ]
    },
    {
      "children": [
        18
      ],
      "extras": {
        "FBX-glTF-conv": {
          "skeleton": {
            "skeletonType": "LimbNode"
          }
        }
      },
      "name": "Bip001 L Calf",
      "rotation": [
        -2.992160098915822e-17,
        -1.7561436488111128e-17,
        -0.11251971125602722,
        0.9936494827270508
      ],
      "translation": [
        0.4025454819202423,
        0.0,
        0.0
      ]
    },
    {
      "children": [
        19
      ],
      "extras": {
        "FBX-glTF-conv": {
          "skeleton": {
            "skeletonType": "LimbNode"
          }
        }
      },
      "name": "Bip001 L Foot",
      "rotation": [
        0.08570732176303864,
        -0.19849836826324463,
        -0.058769602328538895,
        0.9745762348175049
      ],
      "translation": [
        0.39813870191574097,
        0.0,
        7.629394360719743e-08
      ]
    },
    {
      "children": [
        20
      ],
      "extras": {
        "FBX-glTF-conv": {
          "skeleton": {
            "skeletonType": "LimbNode"
          }
        }
      },
      "name": "Bip001 L Toe0",
      "rotation": [
        -0.016001494601368904,
        0.016219116747379303,
        0.7116402387619019,
        0.7021744847297668
      ],
      "translation": [
        0.10792407393455505,
        0.13871049880981445,
        3.814697180359872e-08
      ]
    },
    {
      "extras": {
        "FBX-glTF-conv": {
          "skeleton": {
            "skeletonType": "LimbNode"
          }
        }
      },
      "name": "Bip001 L Toe0Nub",
      "rotation": [
        1.3626089589990897e-08,
        -2.2429702539739083e-10,
        1.0,
        -5.817604923221786e-17
      ],
      "scale": [
        -1.0,
        -1.0,
        -1.0
      ],
      "translation": [
        0.06367141753435135,
        1.1102229998097382e-18,
        3.814697180359872e-08
      ]
    },
    {
      "children": [
        22
      ],
      "extras": {
        "FBX-glTF-conv": {
          "skeleton": {
            "skeletonType": "LimbNode"
          }
        }
      },
      "name": "Bip001 R Thigh",
      "rotation": [
        -0.04373517259955406,
        0.9694710373878479,
        0.04154999926686287,
        0.23766928911209106
      ],
      "translation": [
        1.5258788721439487e-07,
        -1.335144048653092e-07,
        -0.13230793178081512
      ]
    },
    {
      "children": [
        23
      ],
      "extras": {
        "FBX-glTF-conv": {
          "skeleton": {
            "skeletonType": "LimbNode"
          }
        }
      },
      "name": "Bip001 R Calf",
      "rotation": [
        6.722858729736448e-18,
        -1.563623978684296e-17,
        -0.1878872811794281,
        0.9821906089782715
      ],
      "translation": [
        0.40254536271095276,
        0.0,
        0.0
      ]
    },
    {
      "children": [
        24
      ],
      "extras": {
        "FBX-glTF-conv": {
          "skeleton": {
            "skeletonType": "LimbNode"
          }
        }
      },
      "name": "Bip001 R Foot",
      "rotation": [
        0.1430949866771698,
        0.2421480268239975,
        0.10947822034358978,
        0.9533638954162598
      ],
      "translation": [
        0.3981388509273529,
        -2.1457672971791908e-08,
        0.0
      ]
    },
    {
      "children": [
        25
      ],
      "extras": {
        "FBX-glTF-conv": {
          "skeleton": {
            "skeletonType": "LimbNode"
          }
        }
      },
      "name": "Bip001 R Toe0",
      "rotation": [
        2.18002981000609e-07,
        -5.128086968397838e-07,
        0.6954527497291565,
        0.7185718417167664
      ],
      "translation": [
        0.10792407393455505,
        0.13871051371097565,
        -3.814697180359872e-08
      ]
    },
    {
      "extras": {
        "FBX-glTF-conv": {
          "skeleton": {
            "skeletonType": "LimbNode"
          }
        }
      },
      "name": "Bip001 R Toe0Nub",
      "translation": [
        0.06367138028144836,
        0.0,
        0.0
      ]
    }
  ],
  "scenes": [
    {
      "nodes": [
        0
      ]
    }
  ]
}