{
  "accessors": [
    {
      "bufferView": 0,
      "componentType": 5126,
      "count": 21,
      "name": "Bip001/translation/Output",
      "type": "VEC3"
    },
    {
      "bufferView": 1,
      "componentType": 5126,
      "count": 21,
      "max": [
        0.6666666865348816
      ],
      "min": [
        0.0
      ],
      "name": "Bip001/translation/Input",
      "type": "SCALAR"
    },
    {
      "bufferView": 2,
      "componentType": 5126,
      "count": 21,
      "name": "Bip001/rotation/Output",
      "type": "VEC4"
    },
    {
      "bufferView": 3,
      "componentType": 5126,
      "count": 21,
      "max": [
        0.6666666865348816
      ],
      "min": [
        0.0
      ],
      "name": "Bip001/rotation/Input",
      "type": "SCALAR"
    },
    {
      "bufferView": 4,
      "componentType": 5126,
      "count": 1,
      "name": "Bip001/scale/Output",
      "type": "VEC3"
    },
    {
      "bufferView": 5,
      "componentType": 5126,
      "count": 1,
      "max": [
        0.6666666865348816
      ],
      "min": [
        0.6666666865348816
      ],
      "name": "Bip001/scale/Input",
      "type": "SCALAR"
    },
    {
      "bufferView": 6,
      "componentType": 5126,
      "count": 1,
      "name": "Bip001 Pelvis/translation/Output",
      "type": "VEC3"
    },
    {
      "bufferView": 7,
      "componentType": 5126,
      "count": 1,
      "max": [
        0.6666666865348816
      ],
      "min": [
        0.6666666865348816
      ],
      "name": "Bip001 Pelvis/translation/Input",
      "type": "SCALAR"
    },
    {
      "bufferView": 8,
      "componentType": 5126,
      "count": 1,
      "name": "Bip001 Pelvis/rotation/Output",
      "type": "VEC4"
    },
    {
      "bufferView": 9,
      "componentType": 5126,
      "count": 1,
      "max": [
        0.6666666865348816
      ],
      "min": [
        0.6666666865348816
      ],
      "name": "Bip001 Pelvis/rotation/Input",
      "type": "SCALAR"
    },
    {
      "bufferView": 10,
      "componentType": 5126,
      "count": 1,
      "name": "Bip001 Pelvis/scale/Output",
      "type": "VEC3"
    },
    {
      "bufferView": 11,
      "componentType": 5126,
      "count": 1,
      "max": [
        0.6666666865348816
      ],
      "min": [
        0.6666666865348816
      ],
      "name": "Bip001 Pelvis/scale/Input",
      "type": "SCALAR"
    },
    {
      "bufferView": 12,
      "componentType": 5126,
      "count": 21,
      "name": "Bip001 Spine/translation/Output",
      "type": "VEC3"
    },
    {
      "bufferView": 13,
      "componentType": 5126,
      "count": 21,
      "max": [
        0.6666666865348816
      ],
      "min": [
        0.0
      ],
      "name": "Bip001 Spine/translation/Input",
      "type": "SCALAR"
    },
    {
      "bufferView": 14,
      "componentType": 5126,
      "count": 21,
      "name": "Bip001 Spine/rotation/Output",
      "type": "VEC4"
    },
    {
      "bufferView": 15,
      "componentType": 5126,
      "count": 21,
      "max": [
        0.6666666865348816
      ],
      "min": [
        0.0
      ],
      "name": "Bip001 Spine/rotation/Input",
      "type": "SCALAR"
    },
    {
      "bufferView": 16,
      "componentType": 5126,
      "count": 1,
      "name": "Bip001 Spine/scale/Output",
      "type": "VEC3"
    },
    {
      "bufferView": 17,
      "componentType": 5126,
      "count": 1,
      "max": [
        0.6666666865348816
      ],
      "min": [
        0.6666666865348816
      ],
      "name": "Bip001 Spine/scale/Input",
      "type": "SCALAR"
    },
    {
      "bufferView": 18,
      "componentType": 5126,
      "count": 17,
      "name": "Bip001 Spine1/translation/Output",
      "type": "VEC3"
    },
    {
      "bufferView": 19,
      "componentType": 5126,
      "count": 17,
      "max": [
        0.6666666865348816
      ],
      "min": [
        0.0
      ],
      "name": "Bip001 Spine1/translation/Input",
      "type": "SCALAR"
    },
    {
      "bufferView": 20,
      "componentType": 5126,
      "count": 21,
      "name": "Bip001 Spine1/rotation/Output",
      "type": "VEC4"
    },
    {
      "bufferView": 21,
      "componentType": 5126,
      "count": 21,
      "max": [
        0.6666666865348816
      ],
      "min": [
        0.0
      ],
      "name": "Bip001 Spine1/rotation/Input",
      "type": "SCALAR"
    },
    {
      "bufferView": 22,
      "componentType": 5126,
      "count": 1,
      "name": "Bip001 Spine1/scale/Output",
      "type": "VEC3"
    },
    {
      "bufferView": 23,
      "componentType": 5126,
      "count": 1,
      "max": [
        0.6666666865348816
      ],
      "min": [
        0.6666666865348816
      ],
      "name": "Bip001 Spine1/scale/Input",
      "type": "SCALAR"
    },
    {
      "bufferView": 24,
      "componentType": 5126,
      "count": 19,
      "name": "Bip001 Spine2/translation/Output",
      "type": "VEC3"
    },
    {
      "bufferView": 25,
      "componentType": 5126,
      "count": 19,
      "max": [
        0.6666666865348816
      ],
      "min": [
        0.0
      ],
      "name": "Bip001 Spine2/translation/Input",
      "type": "SCALAR"
    },
    {
      "bufferView": 26,
      "componentType": 5126,
      "count": 21,
      "name": "Bip001 Spine2/rotation/Output",
      "type": "VEC4"
    },
    {
      "bufferView": 27,
      "componentType": 5126,
      "count": 21,
      "max": [
        0.6666666865348816
      ],
      "min": [
        0.0
      ],
      "name": "Bip001 Spine2/rotation/Input",
      "type": "SCALAR"
    },
    {
      "bufferView": 28,
      "componentType": 5126,
      "count": 1,
      "name": "Bip001 Spine2/scale/Output",
      "type": "VEC3"
    },
    {
      "bufferView": 29,
      "componentType": 5126,
      "count": 1,
      "max": [
        0.6666666865348816
      ],
      "min": [
        0.6666666865348816
      ],
      "name": "Bip001 Spine2/scale/Input",
      "type": "SCALAR"
    },
    {
      "bufferView": 30,
      "componentType": 5126,
      "count": 21,
      "name": "Bip001 Neck/translation/Output",
      "type": "VEC3"
    },
    {
      "bufferView": 31,
      "componentType": 5126,
      "count": 21,
      "max": [
        0.6666666865348816
      ],
      "min": [
        0.0
      ],
      "name": "Bip001 Neck/translation/Input",
      "type": "SCALAR"
    },
    {
      "bufferView": 32,
      "componentType": 5126,
      "count": 21,
      "name": "Bip001 Neck/rotation/Output",
      "type": "VEC4"
    },
    {
      "bufferView": 33,
      "componentType": 5126,
      "count": 21,
      "max": [
        0.6666666865348816
      ],
      "min": [
        0.0
      ],
      "name": "Bip001 Neck/rotation/Input",
      "type": "SCALAR"
    },
    {
      "bufferView": 34,
      "componentType": 5126,
      "count": 1,
      "name": "Bip001 Neck/scale/Output",
      "type": "VEC3"
    },
    {
      "bufferView": 35,
      "componentType": 5126,
      "count": 1,
      "max": [
        0.6666666865348816
      ],
      "min": [
        0.6666666865348816
      ],
      "name": "Bip001 Neck/scale/Input",
      "type": "SCALAR"
    },
    {
      "bufferView": 36,
      "componentType": 5126,
      "count": 21,
      "name": "Bip001 L Clavicle/translation/Output",
      "type": "VEC3"
    },
    {
      "bufferView": 37,
      "componentType": 5126,
      "count": 21,
      "max": [
        0.6666666865348816
      ],
      "min": [
        0.0
      ],
      "name": "Bip001 L Clavicle/translation/Input",
      "type": "SCALAR"
    },
    {
      "bufferView": 38,
      "componentType": 5126,
      "count": 21,
      "name": "Bip001 L Clavicle/rotation/Output",
      "type": "VEC4"
    },
    {
      "bufferView": 39,
      "componentType": 5126,
      "count": 21,
      "max": [
        0.6666666865348816
      ],
      "min": [
        0.0
      ],
      "name": "Bip001 L Clavicle/rotation/Input",
      "type": "SCALAR"
    },
    {
      "bufferView": 40,
      "componentType": 5126,
      "count": 1,
      "name": "Bip001 L Clavicle/scale/Output",
      "type": "VEC3"
    },
    {
      "bufferView": 41,
      "componentType": 5126,
      "count": 1,
      "max": [
        0.6666666865348816
      ],
      "min": [
        0.6666666865348816
      ],
      "name": "Bip001 L Clavicle/scale/Input",
      "type": "SCALAR"
    },
    {
      "bufferView": 42,
      "componentType": 5126,
      "count": 13,
      "name": "Bip001 L UpperArm/translation/Output",
      "type": "VEC3"
    },
    {
      "bufferView": 43,
      "componentType": 5126,
      "count": 13,
      "max": [
        0.5666666626930237
      ],
      "min": [
        0.0
      ],
      "name": "Bip001 L UpperArm/translation/Input",
      "type": "SCALAR"
    },
    {
      "bufferView": 44,
      "componentType": 5126,
      "count": 21,
      "name": "Bip001 L UpperArm/rotation/Output",
      "type": "VEC4"
    },
    {
      "bufferView": 45,
      "componentType": 5126,
      "count": 21,
      "max": [
        0.6666666865348816
      ],
      "min": [
        0.0
      ],
      "name": "Bip001 L UpperArm/rotation/Input",
      "type": "SCALAR"
    },
    {
      "bufferView": 46,
      "componentType": 5126,
      "count": 1,
      "name": "Bip001 L UpperArm/scale/Output",
      "type": "VEC3"
    },
    {
      "bufferView": 47,
      "componentType": 5126,
      "count": 1,
      "max": [
        0.6666666865348816
      ],
      "min": [
        0.6666666865348816
      ],
      "name": "Bip001 L UpperArm/scale/Input",
      "type": "SCALAR"
    },
    {
      "bufferView": 48,
      "componentType": 5126,
      "count": 9,
      "name": "Bip001 L Forearm/translation/Output",
      "type": "VEC3"
    },
    {
      "bufferView": 49,
      "componentType": 5126,
      "count": 9,
      "max": [
        0.6666666865348816
      ],
      "min": [
        0.03333333507180214
      ],
      "name": "Bip001 L Forearm/translation/Input",
      "type": "SCALAR"
    },
    {
      "bufferView": 50,
      "componentType": 5126,
      "count": 20,
      "name": "Bip001 L Forearm/rotation/Output",
      "type": "VEC4"
    },
    {
      "bufferView": 51,
      "componentType": 5126,
      "count": 20,
      "max": [
        0.6666666865348816
      ],
      "min": [
        0.0
      ],
      "name": "Bip001 L Forearm/rotation/Input",
      "type": "SCALAR"
    },
    {
      "bufferView": 52,
      "componentType": 5126,
      "count": 1,
      "name": "Bip001 L Forearm/scale/Output",
      "type": "VEC3"
    },
    {
      "bufferView": 53,
      "componentType": 5126,
      "count": 1,
      "max": [
        0.6666666865348816
      ],
      "min": [
        0.6666666865348816
      ],
      "name": "Bip001 L Forearm/scale/Input",
      "type": "SCALAR"
    },
    {
      "bufferView": 54,
      "componentType": 5126,
      "count": 13,
      "name": "Bip001 L Hand/translation/Output",
      "type": "VEC3"
    },
    {
      "bufferView": 55,
      "componentType": 5126,
      "count": 13,
      "max": [
        0.6666666865348816
      ],
      "min": [
        0.03333333507180214
      ],
      "name": "Bip001 L Hand/translation/Input",
      "type": "SCALAR"
    },
    {
      "bufferView": 56,
      "componentType": 5126,
      "count": 21,
      "name": "Bip001 L Hand/rotation/Output",
      "type": "VEC4"
    },
    {
      "bufferView": 57,
      "componentType": 5126,
      "count": 21,
      "max": [
        0.6666666865348816
      ],
      "min": [
        0.0
      ],
      "name": "Bip001 L Hand/rotation/Input",
      "type": "SCALAR"
    },
    {
      "bufferView": 58,
      "componentType": 5126,
      "count": 1,
      "name": "Bip001 L Hand/scale/Output",
      "type": "VEC3"
    },
    {
      "bufferView": 59,
      "componentType": 5126,
      "count": 1,
      "max": [
        0.6666666865348816
      ],
      "min": [
        0.6666666865348816
      ],
      "name": "Bip001 L Hand/scale/Input",
      "type": "SCALAR"
    },
    {
      "bufferView": 60,
      "componentType": 5126,
      "count": 1,
      "name": "mixamorig:LeftHand/rotation/Output",
      "type": "VEC4"
    },
    {
      "bufferView": 61,
      "componentType": 5126,
      "count": 1,
      "max": [
        0.6666666865348816
      ],
      "min": [
        0.6666666865348816
      ],
      "name": "mixamorig:LeftHand/rotation/Input",
      "type": "SCALAR"
    },
    {
      "bufferView": 62,
      "componentType": 5126,
      "count": 1,
      "name": "mixamorig:LeftForeArm/rotation/Output",
      "type": "VEC4"
    },
    {
      "bufferView": 63,
      "componentType": 5126,
      "count": 1,
      "max": [
        0.6666666865348816
      ],
      "min": [
        0.6666666865348816
      ],
      "name": "mixamorig:LeftForeArm/rotation/Input",
      "type": "SCALAR"
    },
    {
      "bufferView": 64,
      "componentType": 5126,
      "count": 1,
      "name": "mixamorig:LeftArm/rotation/Output",
      "type": "VEC4"
    },
    {
      "bufferView": 65,
      "componentType": 5126,
      "count": 1,
      "max": [
        0.6666666865348816
      ],
      "min": [
        0.6666666865348816
      ],
      "name": "mixamorig:LeftArm/rotation/Input",
      "type": "SCALAR"
    },
    {
      "bufferView": 66,
      "componentType": 5126,
      "count": 1,
      "name": "mixamorig:LeftShoulder/rotation/Output",
      "type": "VEC4"
    },
    {
      "bufferView": 67,
      "componentType": 5126,
      "count": 1,
      "max": [
        0.6666666865348816
      ],
      "min": [
        0.6666666865348816
      ],
      "name": "mixamorig:LeftShoulder/rotation/Input",
      "type": "SCALAR"
    },
    {
      "bufferView": 68,
      "componentType": 5126,
      "count": 21,
      "name": "Bip001 R Clavicle/translation/Output",
      "type": "VEC3"
    },
    {
      "bufferView": 69,
      "componentType": 5126,
      "count": 21,
      "max": [
        0.6666666865348816
      ],
      "min": [
        0.0
      ],
      "name": "Bip001 R Clavicle/translation/Input",
      "type": "SCALAR"
    },
    {
      "bufferView": 70,
      "componentType": 5126,
      "count": 21,
      "name": "Bip001 R Clavicle/rotation/Output",
      "type": "VEC4"
    },
    {
      "bufferView": 71,
      "componentType": 5126,
      "count": 21,
      "max": [
        0.6666666865348816
      ],
      "min": [
        0.0
      ],
      "name": "Bip001 R Clavicle/rotation/Input",
      "type": "SCALAR"
    },
    {
      "bufferView": 72,
      "componentType": 5126,
      "count": 1,
      "name": "Bip001 R Clavicle/scale/Output",
      "type": "VEC3"
    },
    {
      "bufferView": 73,
      "componentType": 5126,
      "count": 1,
      "max": [
        0.6666666865348816
      ],
      "min": [
        0.6666666865348816
      ],
      "name": "Bip001 R Clavicle/scale/Input",
      "type": "SCALAR"
    },
    {
      "bufferView": 74,
      "componentType": 5126,
      "count": 16,
      "name": "Bip001 R UpperArm/translation/Output",
      "type": "VEC3"
    },
    {
      "bufferView": 75,
      "componentType": 5126,
      "count": 16,
      "max": [
        0.6666666865348816
      ],
      "min": [
        0.03333333507180214
      ],
      "name": "Bip001 R UpperArm/translation/Input",
      "type": "SCALAR"
    },
    {
      "bufferView": 76,
      "componentType": 5126,
      "count": 21,
      "name": "Bip001 R UpperArm/rotation/Output",
      "type": "VEC4"
    },
    {
      "bufferView": 77,
      "componentType": 5126,
      "count": 21,
      "max": [
        0.6666666865348816
      ],
      "min": [
        0.0
      ],
      "name": "Bip001 R UpperArm/rotation/Input",
      "type": "SCALAR"
    },
    {
      "bufferView": 78,
      "componentType": 5126,
      "count": 1,
      "name": "Bip001 R UpperArm/scale/Output",
      "type": "VEC3"
    },
    {
      "bufferView": 79,
      "componentType": 5126,
      "count": 1,
      "max": [
        0.6666666865348816
      ],
      "min": [
        0.6666666865348816
      ],
      "name": "Bip001 R UpperArm/scale/Input",
      "type": "SCALAR"
    },
    {
      "bufferView": 80,
      "componentType": 5126,
      "count": 9,
      "name": "Bip001 R Forearm/translation/Output",
      "type": "VEC3"
    },
    {
      "bufferView": 81,
      "componentType": 5126,
      "count": 9,
      "max": [
        0.6666666865348816
      ],
      "min": [
        0.10000000149011612
      ],
      "name": "Bip001 R Forearm/translation/Input",
      "type": "SCALAR"
    },
    {
      "bufferView": 82,
      "componentType": 5126,
      "count": 21,
      "name": "Bip001 R Forearm/rotation/Output",
      "type": "VEC4"
    },
    {
      "bufferView": 83,
      "componentType": 5126,
      "count": 21,
      "max": [
        0.6666666865348816
      ],
      "min": [
        0.0
      ],
      "name": "Bip001 R Forearm/rotation/Input",
      "type": "SCALAR"
    },
    {
      "bufferView": 84,
      "componentType": 5126,
      "count": 1,
      "name": "Bip001 R Forearm/scale/Output",
      "type": "VEC3"
    },
    {
      "bufferView": 85,
      "componentType": 5126,
      "count": 1,
      "max": [
        0.6666666865348816
      ],
      "min": [
        0.6666666865348816
      ],
      "name": "Bip001 R Forearm/scale/Input",
      "type": "SCALAR"
    },
    {
      "bufferView": 86,
      "componentType": 5126,
      "count": 6,
      "name": "Bip001 R Hand/translation/Output",
      "type": "VEC3"
    },
    {
      "bufferView": 87,
      "componentType": 5126,
      "count": 6,
      "max": [
        0.6666666865348816
      ],
      "min": [
        0.06666667014360428
      ],
      "name": "Bip001 R Hand/translation/Input",
      "type": "SCALAR"
    },
    {
      "bufferView": 88,
      "componentType": 5126,
      "count": 21,
      "name": "Bip001 R Hand/rotation/Output",
      "type": "VEC4"
    },
    {
      "bufferView": 89,
      "componentType": 5126,
      "count": 21,
      "max": [
        0.6666666865348816
      ],
      "min": [
        0.0
      ],
      "name": "Bip001 R Hand/rotation/Input",
      "type": "SCALAR"
    },
    {
      "bufferView": 90,
      "componentType": 5126,
      "count": 1,
      "name": "Bip001 R Hand/scale/Output",
      "type": "VEC3"
    },
    {
      "bufferView": 91,
      "componentType": 5126,
      "count": 1,
      "max": [
        0.6666666865348816
      ],
      "min": [
        0.6666666865348816
      ],
      "name": "Bip001 R Hand/scale/Input",
      "type": "SCALAR"
    },
    {
      "bufferView": 92,
      "componentType": 5126,
      "count": 1,
      "name": "mixamorig:RightHand/rotation/Output",
      "type": "VEC4"
    },
    {
      "bufferView": 93,
      "componentType": 5126,
      "count": 1,
      "max": [
        0.6666666865348816
      ],
      "min": [
        0.6666666865348816
      ],
      "name": "mixamorig:RightHand/rotation/Input",
      "type": "SCALAR"
    },
    {
      "bufferView": 94,
      "componentType": 5126,
      "count": 1,
      "name": "mixamorig:RightForeArm/rotation/Output",
      "type": "VEC4"
    },
    {
      "bufferView": 95,
      "componentType": 5126,
      "count": 1,
      "max": [
        0.6666666865348816
      ],
      "min": [
        0.6666666865348816
      ],
      "name": "mixamorig:RightForeArm/rotation/Input",
      "type": "SCALAR"
    },
    {
      "bufferView": 96,
      "componentType": 5126,
      "count": 1,
      "name": "mixamorig:RightArm/rotation/Output",
      "type": "VEC4"
    },
    {
      "bufferView": 97,
      "componentType": 5126,
      "count": 1,
      "max": [
        0.6666666865348816
      ],
      "min": [
        0.6666666865348816
      ],
      "name": "mixamorig:RightArm/rotation/Input",
      "type": "SCALAR"
    },
    {
      "bufferView": 98,
      "componentType": 5126,
      "count": 1,
      "name": "mixamorig:RightShoulder/rotation/Output",
      "type": "VEC4"
    },
    {
      "bufferView": 99,
      "componentType": 5126,
      "count": 1,
      "max": [
        0.6666666865348816
      ],
      "min": [
        0.6666666865348816
      ],
      "name": "mixamorig:RightShoulder/rotation/Input",
      "type": "SCALAR"
    },
    {
      "bufferView": 100,
      "componentType": 5126,
      "count": 8,
      "name": "Bip001 Head/translation/Output",
      "type": "VEC3"
    },
    {
      "bufferView": 101,
      "componentType": 5126,
      "count": 8,
      "max": [
        0.6666666865348816
      ],
      "min": [
        0.0
      ],
      "name": "Bip001 Head/translation/Input",
      "type": "SCALAR"
    },
    {
      "bufferView": 102,
      "componentType": 5126,
      "count": 21,
      "name": "Bip001 Head/rotation/Output",
      "type": "VEC4"
    },
    {
      "bufferView": 103,
      "componentType": 5126,
      "count": 21,
      "max": [
        0.6666666865348816
      ],
      "min": [
        0.0
      ],
      "name": "Bip001 Head/rotation/Input",
      "type": "SCALAR"
    },
    {
      "bufferView": 104,
      "componentType": 5126,
      "count": 1,
      "name": "Bip001 Head/scale/Output",
      "type": "VEC3"
    },
    {
      "bufferView": 105,
      "componentType": 5126,
      "count": 1,
      "max": [
        0.6666666865348816
      ],
      "min": [
        0.6666666865348816
      ],
      "name": "Bip001 Head/scale/Input",
      "type": "SCALAR"
    },
    {
      "bufferView": 106,
      "componentType": 5126,
      "count": 1,
      "name": "mixamorig:Head/rotation/Output",
      "type": "VEC4"
    },
    {
      "bufferView": 107,
      "componentType": 5126,
      "count": 1,
      "max": [
        0.6666666865348816
      ],
      "min": [
        0.6666666865348816
      ],
      "name": "mixamorig:Head/rotation/Input",
      "type": "SCALAR"
    },
    {
      "bufferView": 108,
      "componentType": 5126,
      "count": 1,
      "name": "mixamorig:HeadTop_End/rotation/Output",
      "type": "VEC4"
    },
    {
      "bufferView": 109,
      "componentType": 5126,
      "count": 1,
      "max": [
        0.6666666865348816
      ],
      "min": [
        0.6666666865348816
      ],
      "name": "mixamorig:HeadTop_End/rotation/Input",
      "type": "SCALAR"
    },
    {
      "bufferView": 110,
      "componentType": 5126,
      "count": 1,
      "name": "mixamorig:Neck/rotation/Output",
      "type": "VEC4"
    },
    {
      "bufferView": 111,
      "componentType": 5126,
      "count": 1,
      "max": [
        0.6666666865348816
      ],
      "min": [
        0.6666666865348816
      ],
      "name": "mixamorig:Neck/rotation/Input",
      "type": "SCALAR"
    },
    {
      "bufferView": 112,
      "componentType": 5126,
      "count": 1,
      "name": "mixamorig:Spine2/rotation/Output",
      "type": "VEC4"
    },
    {
      "bufferView": 113,
      "componentType": 5126,
      "count": 1,
      "max": [
        0.6666666865348816
      ],
      "min": [
        0.6666666865348816
      ],
      "name": "mixamorig:Spine2/rotation/Input",
      "type": "SCALAR"
    },
    {
      "bufferView": 114,
      "componentType": 5126,
      "count": 1,
      "name": "mixamorig:Spine1/rotation/Output",
      "type": "VEC4"
    },
    {
      "bufferView": 115,
      "componentType": 5126,
      "count": 1,
      "max": [
        0.6666666865348816
      ],
      "min": [
        0.6666666865348816
      ],
      "name": "mixamorig:Spine1/rotation/Input",
      "type": "SCALAR"
    },
    {
      "bufferView": 116,
      "componentType": 5126,
      "count": 21,
      "name": "Bip001 L Thigh/translation/Output",
      "type": "VEC3"
    },
    {
      "bufferView": 117,
      "componentType": 5126,
      "count": 21,
      "max": [
        0.6666666865348816
      ],
      "min": [
        0.0
      ],
      "name": "Bip001 L Thigh/translation/Input",
      "type": "SCALAR"
    },
    {
      "bufferView": 118,
      "componentType": 5126,
      "count": 21,
      "name": "Bip001 L Thigh/rotation/Output",
      "type": "VEC4"
    },
    {
      "bufferView": 119,
      "componentType": 5126,
      "count": 21,
      "max": [
        0.6666666865348816
      ],
      "min": [
        0.0
      ],
      "name": "Bip001 L Thigh/rotation/Input",
      "type": "SCALAR"
    },
    {
      "bufferView": 120,
      "componentType": 5126,
      "count": 1,
      "name": "Bip001 L Thigh/scale/Output",
      "type": "VEC3"
    },
    {
      "bufferView": 121,
      "componentType": 5126,
      "count": 1,
      "max": [
        0.6666666865348816
      ],
      "min": [
        0.6666666865348816
      ],
      "name": "Bip001 L Thigh/scale/Input",
      "type": "SCALAR"
    },
    {
      "bufferView": 122,
      "componentType": 5126,
      "count": 7,
      "name": "Bip001 L Calf/translation/Output",
      "type": "VEC3"
    },
    {
      "bufferView": 123,
      "componentType": 5126,
      "count": 7,
      "max": [
        0.5333333611488342
      ],
      "min": [
        0.23333333432674408
      ],
      "name": "Bip001 L Calf/translation/Input",
      "type": "SCALAR"
    },
    {
      "bufferView": 124,
      "componentType": 5126,
      "count": 21,
      "name": "Bip001 L Calf/rotation/Output",
      "type": "VEC4"
    },
    {
      "bufferView": 125,
      "componentType": 5126,
      "count": 21,
      "max": [
        0.6666666865348816
      ],
      "min": [
        0.0
      ],
      "name": "Bip001 L Calf/rotation/Input",
      "type": "SCALAR"
    },
    {
      "bufferView": 126,
      "componentType": 5126,
      "count": 1,
      "name": "Bip001 L Calf/scale/Output",
      "type": "VEC3"
    },
    {
      "bufferView": 127,
      "componentType": 5126,
      "count": 1,
      "max": [
        0.6666666865348816
      ],
      "min": [
        0.6666666865348816
      ],
      "name": "Bip001 L Calf/scale/Input",
      "type": "SCALAR"
    },
    {
      "bufferView": 128,
      "componentType": 5126,
      "count": 6,
      "name": "Bip001 L Foot/translation/Output",
      "type": "VEC3"
    },
    {
      "bufferView": 129,
      "componentType": 5126,
      "count": 6,
      "max": [
        0.6666666865348816
      ],
      "min": [
        0.0
      ],
      "name": "Bip001 L Foot/translation/Input",
      "type": "SCALAR"
    },
    {
      "bufferView": 130,
      "componentType": 5126,
      "count": 21,
      "name": "Bip001 L Foot/rotation/Output",
      "type": "VEC4"
    },
    {
      "bufferView": 131,
      "componentType": 5126,
      "count": 21,
      "max": [
        0.6666666865348816
      ],
      "min": [
        0.0
      ],
      "name": "Bip001 L Foot/rotation/Input",
      "type": "SCALAR"
    },
    {
      "bufferView": 132,
      "componentType": 5126,
      "count": 1,
      "name": "Bip001 L Foot/scale/Output",
      "type": "VEC3"
    },
    {
      "bufferView": 133,
      "componentType": 5126,
      "count": 1,
      "max": [
        0.6666666865348816
      ],
      "min": [
        0.6666666865348816
      ],
      "name": "Bip001 L Foot/scale/Input",
      "type": "SCALAR"
    },
    {
      "bufferView": 134,
      "componentType": 5126,
      "count": 2,
      "name": "Bip001 L Toe0/translation/Output",
      "type": "VEC3"
    },
    {
      "bufferView": 135,
      "componentType": 5126,
      "count": 2,
      "max": [
        0.4000000059604645
      ],
      "min": [
        0.36666667461395264
      ],
      "name": "Bip001 L Toe0/translation/Input",
      "type": "SCALAR"
    },
    {
      "bufferView": 136,
      "componentType": 5126,
      "count": 17,
      "name": "Bip001 L Toe0/rotation/Output",
      "type": "VEC4"
    },
    {
      "bufferView": 137,
      "componentType": 5126,
      "count": 17,
      "max": [
        0.6666666865348816
      ],
      "min": [
        0.10000000149011612
      ],
      "name": "Bip001 L Toe0/rotation/Input",
      "type": "SCALAR"
    },
    {
      "bufferView": 138,
      "componentType": 5126,
      "count": 1,
      "name": "Bip001 L Toe0/scale/Output",
      "type": "VEC3"
    },
    {
      "bufferView": 139,
      "componentType": 5126,
      "count": 1,
      "max": [
        0.6666666865348816
      ],
      "min": [
        0.6666666865348816
      ],
      "name": "Bip001 L Toe0/scale/Input",
      "type": "SCALAR"
    },
    {
      "bufferView": 140,
      "componentType": 5126,
      "count": 1,
      "name": "mixamorig:LeftToe_End/rotation/Output",
      "type": "VEC4"
    },
    {
      "bufferView": 141,
      "componentType": 5126,
      "count": 1,
      "max": [
        0.6666666865348816
      ],
      "min": [
        0.6666666865348816
      ],
      "name": "mixamorig:LeftToe_End/rotation/Input",
      "type": "SCALAR"
    },
    {
      "bufferView": 142,
      "componentType": 5126,
      "count": 1,
      "name": "mixamorig:LeftFoot/rotation/Output",
      "type": "VEC4"
    },
    {
      "bufferView": 143,
      "componentType": 5126,
      "count": 1,
      "max": [
        0.6666666865348816
      ],
      "min": [
        0.6666666865348816
      ],
      "name": "mixamorig:LeftFoot/rotation/Input",
      "type": "SCALAR"
    },
    {
      "bufferView": 144,
      "componentType": 5126,
      "count": 1,
      "name": "mixamorig:LeftToeBase/rotation/Output",
      "type": "VEC4"
    },
    {
      "bufferView": 145,
      "componentType": 5126,
      "count": 1,
      "max": [
        0.6666666865348816
      ],
      "min": [
        0.6666666865348816
      ],
      "name": "mixamorig:LeftToeBase/rotation/Input",
      "type": "SCALAR"
    },
    {
      "bufferView": 146,
      "componentType": 5126,
      "count": 1,
      "name": "mixamorig:LeftLeg/rotation/Output",
      "type": "VEC4"
    },
    {
      "bufferView": 147,
      "componentType": 5126,
      "count": 1,
      "max": [
        0.6666666865348816
      ],
      "min": [
        0.6666666865348816
      ],
      "name": "mixamorig:LeftLeg/rotation/Input",
      "type": "SCALAR"
    },
    {
      "bufferView": 148,
      "componentType": 5126,
      "count": 1,
      "name": "mixamorig:LeftUpLeg/rotation/Output",
      "type": "VEC4"
    },
    {
      "bufferView": 149,
      "componentType": 5126,
      "count": 1,
      "max": [
        0.6666666865348816
      ],
      "min": [
        0.6666666865348816
      ],
      "name": "mixamorig:LeftUpLeg/rotation/Input",
      "type": "SCALAR"
    },
    {
      "bufferView": 150,
      "componentType": 5126,
      "count": 21,
      "name": "Bip001 R Thigh/translation/Output",
      "type": "VEC3"
    },
    {
      "bufferView": 151,
      "componentType": 5126,
      "count": 21,
      "max": [
        0.6666666865348816
      ],
      "min": [
        0.0
      ],
      "name": "Bip001 R Thigh/translation/Input",
      "type": "SCALAR"
    },
    {
      "bufferView": 152,
      "componentType": 5126,
      "count": 21,
      "name": "Bip001 R Thigh/rotation/Output",
      "type": "VEC4"
    },
    {
      "bufferView": 153,
      "componentType": 5126,
      "count": 21,
      "max": [
        0.6666666865348816
      ],
      "min": [
        0.0
      ],
      "name": "Bip001 R Thigh/rotation/Input",
      "type": "SCALAR"
    },
    {
      "bufferView": 154,
      "componentType": 5126,
      "count": 1,
      "name": "Bip001 R Thigh/scale/Output",
      "type": "VEC3"
    },
    {
      "bufferView": 155,
      "componentType": 5126,
      "count": 1,
      "max": [
        0.6666666865348816
      ],
      "min": [
        0.6666666865348816
      ],
      "name": "Bip001 R Thigh/scale/Input",
      "type": "SCALAR"
    },
    {
      "bufferView": 156,
      "componentType": 5126,
      "count": 12,
      "name": "Bip001 R Calf/translation/Output",
      "type": "VEC3"
    },
    {
      "bufferView": 157,
      "componentType": 5126,
      "count": 12,
      "max": [
        0.6666666865348816
      ],
      "min": [
        0.0
      ],
      "name": "Bip001 R Calf/translation/Input",
      "type": "SCALAR"
    },
    {
      "bufferView": 158,
      "componentType": 5126,
      "count": 21,
      "name": "Bip001 R Calf/rotation/Output",
      "type": "VEC4"
    },
    {
      "bufferView": 159,
      "componentType": 5126,
      "count": 21,
      "max": [
        0.6666666865348816
      ],
      "min": [
        0.0
      ],
      "name": "Bip001 R Calf/rotation/Input",
      "type": "SCALAR"
    },
    {
      "bufferView": 160,
      "componentType": 5126,
      "count": 1,
      "name": "Bip001 R Calf/scale/Output",
      "type": "VEC3"
    },
    {
      "bufferView": 161,
      "componentType": 5126,
      "count": 1,
      "max": [
        0.6666666865348816
      ],
      "min": [
        0.6666666865348816
      ],
      "name": "Bip001 R Calf/scale/Input",
      "type": "SCALAR"
    },
    {
      "bufferView": 162,
      "componentType": 5126,
      "count": 5,
      "name": "Bip001 R Foot/translation/Output",
      "type": "VEC3"
    },
    {
      "bufferView": 163,
      "componentType": 5126,
      "count": 5,
      "max": [
        0.6666666865348816
      ],
      "min": [
        0.0
      ],
      "name": "Bip001 R Foot/translation/Input",
      "type": "SCALAR"
    },
    {
      "bufferView": 164,
      "componentType": 5126,
      "count": 21,
      "name": "Bip001 R Foot/rotation/Output",
      "type": "VEC4"
    },
    {
      "bufferView": 165,
      "componentType": 5126,
      "count": 21,
      "max": [
        0.6666666865348816
      ],
      "min": [
        0.0
      ],
      "name": "Bip001 R Foot/rotation/Input",
      "type": "SCALAR"
    },
    {
      "bufferView": 166,
      "componentType": 5126,
      "count": 1,
      "name": "Bip001 R Foot/scale/Output",
      "type": "VEC3"
    },
    {
      "bufferView": 167,
      "componentType": 5126,
      "count": 1,
      "max": [
        0.6666666865348816
      ],
      "min": [
        0.6666666865348816
      ],
      "name": "Bip001 R Foot/scale/Input",
      "type": "SCALAR"
    },
    {
      "bufferView": 168,
      "componentType": 5126,
      "count": 1,
      "name": "Bip001 R Toe0/translation/Output",
      "type": "VEC3"
    },
    {
      "bufferView": 169,
      "componentType": 5126,
      "count": 1,
      "max": [
        0.30000001192092896
      ],
      "min": [
        0.30000001192092896
      ],
      "name": "Bip001 R Toe0/translation/Input",
      "type": "SCALAR"
    },
    {
      "bufferView": 170,
      "componentType": 5126,
      "count": 21,
      "name": "Bip001 R Toe0/rotation/Output",
      "type": "VEC4"
    },
    {
      "bufferView": 171,
      "componentType": 5126,
      "count": 21,
      "max": [
        0.6666666865348816
      ],
      "min": [
        0.0
      ],
      "name": "Bip001 R Toe0/rotation/Input",
      "type": "SCALAR"
    },
    {
      "bufferView": 172,
      "componentType": 5126,
      "count": 1,
      "name": "Bip001 R Toe0/scale/Output",
      "type": "VEC3"
    },
    {
      "bufferView": 173,
      "componentType": 5126,
      "count": 1,
      "max": [
        0.6666666865348816
      ],
      "min": [
        0.6666666865348816
      ],
      "name": "Bip001 R Toe0/scale/Input",
      "type": "SCALAR"
    },
    {
      "bufferView": 174,
      "componentType": 5126,
      "count": 1,
      "name": "mixamorig:RightToe_End/rotation/Output",
      "type": "VEC4"
    },
    {
      "bufferView": 175,
      "componentType": 5126,
      "count": 1,
      "max": [
        0.6666666865348816
      ],
      "min": [
        0.6666666865348816
      ],
      "name": "mixamorig:RightToe_End/rotation/Input",
      "type": "SCALAR"
    },
    {
      "bufferView": 176,
      "componentType": 5126,
      "count": 1,
      "name": "mixamorig:RightFoot/rotation/Output",
      "type": "VEC4"
    },
    {
      "bufferView": 177,
      "componentType": 5126,
      "count": 1,
      "max": [
        0.6666666865348816
      ],
      "min": [
        0.6666666865348816
      ],
      "name": "mixamorig:RightFoot/rotation/Input",
      "type": "SCALAR"
    },
    {
      "bufferView": 178,
      "componentType": 5126,
      "count": 1,
      "name": "mixamorig:RightToeBase/rotation/Output",
      "type": "VEC4"
    },
    {
      "bufferView": 179,
      "componentType": 5126,
      "count": 1,
      "max": [
        0.6666666865348816
      ],
      "min": [
        0.6666666865348816
      ],
      "name": "mixamorig:RightToeBase/rotation/Input",
      "type": "SCALAR"
    },
    {
      "bufferView": 180,
      "componentType": 5126,
      "count": 1,
      "name": "mixamorig:RightLeg/rotation/Output",
      "type": "VEC4"
    },
    {
      "bufferView": 181,
      "componentType": 5126,
      "count": 1,
      "max": [
        0.6666666865348816
      ],
      "min": [
        0.6666666865348816
      ],
      "name": "mixamorig:RightLeg/rotation/Input",
      "type": "SCALAR"
    },
    {
      "bufferView": 182,
      "componentType": 5126,
      "count": 1,
      "name": "mixamorig:RightUpLeg/rotation/Output",
      "type": "VEC4"
    },
    {
      "bufferView": 183,
      "componentType": 5126,
      "count": 1,
      "max": [
        0.6666666865348816
      ],
      "min": [
        0.6666666865348816
      ],
      "name": "mixamorig:RightUpLeg/rotation/Input",
      "type": "SCALAR"
    },
    {
      "bufferView": 184,
      "componentType": 5126,
      "count": 1,
      "name": "mixamorig:Spine/rotation/Output",
      "type": "VEC4"
    },
    {
      "bufferView": 185,
      "componentType": 5126,
      "count": 1,
      "max": [
        0.6666666865348816
      ],
      "min": [
        0.6666666865348816
      ],
      "name": "mixamorig:Spine/rotation/Input",
      "type": "SCALAR"
    },
    {
      "bufferView": 186,
      "componentType": 5126,
      "count": 1,
      "name": "mixamorig:Hips/rotation/Output",
      "type": "VEC4"
    },
    {
      "bufferView": 187,
      "componentType": 5126,
      "count": 1,
      "max": [
        0.6666666865348816
      ],
      "min": [
        0.6666666865348816
      ],
      "name": "mixamorig:Hips/rotation/Input",
      "type": "SCALAR"
    }
  ],
  "animations": [
    {
      "channels": [
        {
          "sampler": 0,
          "target": {
            "node": 0,
            "path": "translation"
          }
        },
        {
          "sampler": 1,
          "target": {
            "node": 0,
            "path": "rotation"
          }
        },
        {
          "sampler": 2,
          "target": {
            "node": 0,
            "path": "scale"
          }
        },
        {
          "sampler": 3,
          "target": {
            "node": 1,
            "path": "translation"
          }
        },
        {
          "sampler": 4,
          "target": {
            "node": 1,
            "path": "rotation"
          }
        },
        {
          "sampler": 5,
          "target": {
            "node": 1,
            "path": "scale"
          }
        },
        {
          "sampler": 6,
          "target": {
            "node": 2,
            "path": "translation"
          }
        },
        {
          "sampler": 7,
          "target": {
            "node": 2,
            "path": "rotation"
          }
        },
        {
          "sampler": 8,
          "target": {
            "node": 2,
            "path": "scale"
          }
        },
        {
          "sampler": 9,
          "target": {
            "node": 3,
            "path": "translation"
          }
        },
        {
          "sampler": 10,
          "target": {
            "node": 3,
            "path": "rotation"
          }
        },
        {
          "sampler": 11,
          "target": {
            "node": 3,
            "path": "scale"
          }
        },
        {
          "sampler": 12,
          "target": {
            "node": 4,
            "path": "translation"
          }
        },
        {
          "sampler": 13,
          "target": {
            "node": 4,
            "path": "rotation"
          }
        },
        {
          "sampler": 14,
          "target": {
            "node": 4,
            "path": "scale"
          }
        },
        {
          "sampler": 15,
          "target": {
            "node": 5,
            "path": "translation"
          }
        },
        {
          "sampler": 16,
          "target": {
            "node": 5,
            "path": "rotation"
          }
        },
        {
          "sampler": 17,
          "target": {
            "node": 5,
            "path": "scale"
          }
        },
        {
          "sampler": 18,
          "target": {
            "node": 6,
            "path": "translation"
          }
        },
        {
          "sampler": 19,
          "target": {
            "node": 6,
            "path": "rotation"
          }
        },
        {
          "sampler": 20,
          "target": {
            "node": 6,
            "path": "scale"
          }
        },
        {
          "sampler": 21,
          "target": {
            "node": 7,
            "path": "translation"
          }
        },
        {
          "sampler": 22,
          "target": {
            "node": 7,
            "path": "rotation"
          }
        },
        {
          "sampler": 23,
          "target": {
            "node": 7,
            "path": "scale"
          }
        },
        {
          "sampler": 24,
          "target": {
            "node": 8,
            "path": "translation"
          }
        },
        {
          "sampler": 25,
          "target": {
            "node": 8,
            "path": "rotation"
          }
        },
        {
          "sampler": 26,
          "target": {
            "node": 8,
            "path": "scale"
          }
        },
        {
          "sampler": 27,
          "target": {
            "node": 9,
            "path": "translation"
          }
        },
        {
          "sampler": 28,
          "target": {
            "node": 9,
            "path": "rotation"
          }
        },
        {
          "sampler": 29,
          "target": {
            "node": 9,
            "path": "scale"
          }
        },
        {
          "sampler": 30,
          "target": {
            "node": 10,
            "path": "rotation"
          }
        },
        {
          "sampler": 31,
          "target": {
            "node": 11,
            "path": "rotation"
          }
        },
        {
          "sampler": 32,
          "target": {
            "node": 12,
            "path": "rotation"
          }
        },
        {
          "sampler": 33,
          "target": {
            "node": 13,
            "path": "rotation"
          }
        },
        {
          "sampler": 34,
          "target": {
            "node": 14,
            "path": "translation"
          }
        },
        {
          "sampler": 35,
          "target": {
            "node": 14,
            "path": "rotation"
          }
        },
        {
          "sampler": 36,
          "target": {
            "node": 14,
            "path": "scale"
          }
        },
        {
          "sampler": 37,
          "target": {
            "node": 15,
            "path": "translation"
          }
        },
        {
          "sampler": 38,
          "target": {
            "node": 15,
            "path": "rotation"
          }
        },
        {
          "sampler": 39,
          "target": {
            "node": 15,
            "path": "scale"
          }
        },
        {
          "sampler": 40,
          "target": {
            "node": 16,
            "path": "translation"
          }
        },
        {
          "sampler": 41,
          "target": {
            "node": 16,
            "path": "rotation"
          }
        },
        {
          "sampler": 42,
          "target": {
            "node": 16,
            "path": "scale"
          }
        },
        {
          "sampler": 43,
          "target": {
            "node": 17,
            "path": "translation"
          }
        },
        {
          "sampler": 44,
          "target": {
            "node": 17,
            "path": "rotation"
          }
        },
        {
          "sampler": 45,
          "target": {
            "node": 17,
            "path": "scale"
          }
        },
        {
          "sampler": 46,
          "target": {
            "node": 18,
            "path": "rotation"
          }
        },
        {
          "sampler": 47,
          "target": {
            "node": 19,
            "path": "rotation"
          }
        },
        {
          "sampler": 48,
          "target": {
            "node": 20,
            "path": "rotation"
          }
        },
        {
          "sampler": 49,
          "target": {
            "node": 21,
            "path": "rotation"
          }
        },
        {
          "sampler": 50,
          "target": {
            "node": 22,
            "path": "translation"
          }
        },
        {
          "sampler": 51,
          "target": {
            "node": 22,
            "path": "rotation"
          }
        },
        {
          "sampler": 52,
          "target": {
            "node": 22,
            "path": "scale"
          }
        },
        {
          "sampler": 53,
          "target": {
            "node": 23,
            "path": "rotation"
          }
        },
        {
          "sampler": 54,
          "target": {
            "node": 24,
            "path": "rotation"
          }
        },
        {
          "sampler": 55,
          "target": {
            "node": 25,
            "path": "rotation"
          }
        },
        {
          "sampler": 56,
          "target": {
            "node": 26,
            "path": "rotation"
          }
        },
        {
          "sampler": 57,
          "target": {
            "node": 27,
            "path": "rotation"
          }
        },
        {
          "sampler": 58,
          "target": {
            "node": 28,
            "path": "translation"
          }
        },
        {
          "sampler": 59,
          "target": {
            "node": 28,
            "path": "rotation"
          }
        },
        {
          "sampler": 60,
          "target": {
            "node": 28,
            "path": "scale"
          }
        },
        {
          "sampler": 61,
          "target": {
            "node": 29,
            "path": "translation"
          }
        },
        {
          "sampler": 62,
          "target": {
            "node": 29,
            "path": "rotation"
          }
        },
        {
          "sampler": 63,
          "target": {
            "node": 29,
            "path": "scale"
          }
        },
        {
          "sampler": 64,
          "target": {
            "node": 30,
            "path": "translation"
          }
        },
        {
          "sampler": 65,
          "target": {
            "node": 30,
            "path": "rotation"
          }
        },
        {
          "sampler": 66,
          "target": {
            "node": 30,
            "path": "scale"
          }
        },
        {
          "sampler": 67,
          "target": {
            "node": 31,
            "path": "translation"
          }
        },
        {
          "sampler": 68,
          "target": {
            "node": 31,
            "path": "rotation"
          }
        },
        {
          "sampler": 69,
          "target": {
            "node": 31,
            "path": "scale"
          }
        },
        {
          "sampler": 70,
          "target": {
            "node": 32,
            "path": "rotation"
          }
        },
        {
          "sampler": 71,
          "target": {
            "node": 33,
            "path": "rotation"
          }
        },
        {
          "sampler": 72,
          "target": {
            "node": 34,
            "path": "rotation"
          }
        },
        {
          "sampler": 73,
          "target": {
            "node": 35,
            "path": "rotation"
          }
        },
        {
          "sampler": 74,
          "target": {
            "node": 36,
            "path": "rotation"
          }
        },
        {
          "sampler": 75,
          "target": {
            "node": 37,
            "path": "translation"
          }
        },
        {
          "sampler": 76,
          "target": {
            "node": 37,
            "path": "rotation"
          }
        },
        {
          "sampler": 77,
          "target": {
            "node": 37,
            "path": "scale"
          }
        },
        {
          "sampler": 78,
          "target": {
            "node": 38,
            "path": "translation"
          }
        },
        {
          "sampler": 79,
          "target": {
            "node": 38,
            "path": "rotation"
          }
        },
        {
          "sampler": 80,
          "target": {
            "node": 38,
            "path": "scale"
          }
        },
        {
          "sampler": 81,
          "target": {
            "node": 39,
            "path": "translation"
          }
        },
        {
          "sampler": 82,
          "target": {
            "node": 39,
            "path": "rotation"
          }
        },
        {
          "sampler": 83,
          "target": {
            "node": 39,
            "path": "scale"
          }
        },
        {
          "sampler": 84,
          "target": {
            "node": 40,
            "path": "translation"
          }
        },
        {
          "sampler": 85,
          "target": {
            "node": 40,
            "path": "rotation"
          }
        },
        {
          "sampler": 86,
          "target": {
            "node": 40,
            "path": "scale"
          }
        },
        {
          "sampler": 87,
          "target": {
            "node": 41,
            "path": "rotation"
          }
        },
        {
          "sampler": 88,
          "target": {
            "node": 42,
            "path": "rotation"
          }
        },
        {
          "sampler": 89,
          "target": {
            "node": 43,
            "path": "rotation"
          }
        },
        {
          "sampler": 90,
          "target": {
            "node": 44,
            "path": "rotation"
          }
        },
        {
          "sampler": 91,
          "target": {
            "node": 45,
            "path": "rotation"
          }
        },
        {
          "sampler": 92,
          "target": {
            "node": 46,
            "path": "rotation"
          }
        },
        {
          "sampler": 93,
          "target": {
            "node": 47,
            "path": "rotation"
          }
        }
      ],
      "name": "Take 001",
      "samplers": [
        {
          "input": 1,
          "output": 0
        },
        {
          "input": 3,
          "output": 2
        },
        {
          "input": 5,
          "output": 4
        },
        {
          "input": 7,
          "output": 6
        },
        {
          "input": 9,
          "output": 8
        },
        {
          "input": 11,
          "output": 10
        },
        {
          "input": 13,
          "output": 12
        },
        {
          "input": 15,
          "output": 14
        },
        {
          "input": 17,
          "output": 16
        },
        {
          "input": 19,
          "output": 18
        },
        {
          "input": 21,
          "output": 20
        },
        {
          "input": 23,
          "output": 22
        },
        {
          "input": 25,
          "output": 24
        },
        {
          "input": 27,
          "output": 26
        },
        {
          "input": 29,
          "output": 28
        },
        {
          "input": 31,
          "output": 30
        },
        {
          "input": 33,
          "output": 32
        },
        {
          "input": 35,
          "output": 34
        },
        {
          "input": 37,
          "output": 36
        },
        {
          "input": 39,
          "output": 38
        },
        {
          "input": 41,
          "output": 40
        },
        {
          "input": 43,
          "output": 42
        },
        {
          "input": 45,
          "output": 44
        },
        {
          "input": 47,
          "output": 46
        },
        {
          "input": 49,
          "output": 48
        },
        {
          "input": 51,
          "output": 50
        },
        {
          "input": 53,
          "output": 52
        },
        {
          "input": 55,
          "output": 54
        },
        {
          "input": 57,
          "output": 56
        },
        {
          "input": 59,
          "output": 58
        },
        {
          "input": 61,
          "output": 60
        },
        {
          "input": 63,
          "output": 62
        },
        {
          "input": 65,
          "output": 64
        },
        {
          "input": 67,
          "output": 66
        },
        {
          "input": 69,
          "output": 68
        },
        {
          "input": 71,
          "output": 70
        },
        {
          "input": 73,
          "output": 72
        },
        {
          "input": 75,
          "output": 74
        },
        {
          "input": 77,
          "output": 76
        },
        {
          "input": 79,
          "output": 78
        },
        {
          "input": 81,
          "output": 80
        },
        {
          "input": 83,
          "output": 82
        },
        {
          "input": 85,
          "output": 84
        },
        {
          "input": 87,
          "output": 86
        },
        {
          "input": 89,
          "output": 88
        },
        {
          "input": 91,
          "output": 90
        },
        {
          "input": 93,
          "output": 92
        },
        {
          "input": 95,
          "output": 94
        },
        {
          "input": 97,
          "output": 96
        },
        {
          "input": 99,
          "output": 98
        },
        {
          "input": 101,
          "output": 100
        },
        {
          "input": 103,
          "output": 102
        },
        {
          "input": 105,
          "output": 104
        },
        {
          "input": 107,
          "output": 106
        },
        {
          "input": 109,
          "output": 108
        },
        {
          "input": 111,
          "output": 110
        },
        {
          "input": 113,
          "output": 112
        },
        {
          "input": 115,
          "output": 114
        },
        {
          "input": 117,
          "output": 116
        },
        {
          "input": 119,
          "output": 118
        },
        {
          "input": 121,
          "output": 120
        },
        {
          "input": 123,
          "output": 122
        },
        {
          "input": 125,
          "output": 124
        },
        {
          "input": 127,
          "output": 126
        },
        {
          "input": 129,
          "output": 128
        },
        {
          "input": 131,
          "output": 130
        },
        {
          "input": 133,
          "output": 132
        },
        {
          "input": 135,
          "output": 134
        },
        {
          "input": 137,
          "output": 136
        },
        {
          "input": 139,
          "output": 138
        },
        {
          "input": 141,
          "output": 140
        },
        {
          "input": 143,
          "output": 142
        },
        {
          "input": 145,
          "output": 144
        },
        {
          "input": 147,
          "output": 146
        },
        {
          "input": 149,
          "output": 148
        },
        {
          "input": 151,
          "output": 150
        },
        {
          "input": 153,
          "output": 152
        },
        {
          "input": 155,
          "output": 154
        },
        {
          "input": 157,
          "output": 156
        },
        {
          "input": 159,
          "output": 158
        },
        {
          "input": 161,
          "output": 160
        },
        {
          "input": 163,
          "output": 162
        },
        {
          "input": 165,
          "output": 164
        },
        {
          "input": 167,
          "output": 166
        },
        {
          "input": 169,
          "output": 168
        },
        {
          "input": 171,
          "output": 170
        },
        {
          "input": 173,
          "output": 172
        },
        {
          "input": 175,
          "output": 174
        },
        {
          "input": 177,
          "output": 176
        },
        {
          "input": 179,
          "output": 178
        },
        {
          "input": 181,
          "output": 180
        },
        {
          "input": 183,
          "output": 182
        },
        {
          "input": 185,
          "output": 184
        },
        {
          "input": 187,
          "output": 186
        }
      ]
    }
  ],
  "asset": {
    "copyright": "Copyright (c) 2018-2020 Chukong Technologies Inc.",
    "generator": "FBX-glTF-conv",
    "version": "2.0"
  },
  "bufferViews": [
    {
      "buffer": 0,
      "byteLength": 252
    },
    {
      "buffer": 0,
      "byteLength": 84,
      "byteOffset": 252
    },
    {
      "buffer": 0,
      "byteLength": 336,
      "byteOffset": 336
    },
    {
      "buffer": 0,
      "byteLength": 84,
      "byteOffset": 672
    },
    {
      "buffer": 0,
      "byteLength": 12,
      "byteOffset": 756
    },
    {
      "buffer": 0,
      "byteLength": 4,
      "byteOffset": 768
    },
    {
      "buffer": 0,
      "byteLength": 12,
      "byteOffset": 772
    },
    {
      "buffer": 0,
      "byteLength": 4,
      "byteOffset": 784
    },
    {
      "buffer": 0,
      "byteLength": 16,
      "byteOffset": 788
    },
    {
      "buffer": 0,
      "byteLength": 4,
      "byteOffset": 804
    },
    {
      "buffer": 0,
      "byteLength": 12,
      "byteOffset": 808
    },
    {
      "buffer": 0,
      "byteLength": 4,
      "byteOffset": 820
    },
    {
      "buffer": 0,
      "byteLength": 252,
      "byteOffset": 824
    },
    {
      "buffer": 0,
      "byteLength": 84,
      "byteOffset": 1076
    },
    {
      "buffer": 0,
      "byteLength": 336,
      "byteOffset": 1160
    },
    {
      "buffer": 0,
      "byteLength": 84,
      "byteOffset": 1496
    },
    {
      "buffer": 0,
      "byteLength": 12,
      "byteOffset": 1580
    },
    {
      "buffer": 0,
      "byteLength": 4,
      "byteOffset": 1592
    },
    {
      "buffer": 0,
      "byteLength": 204,
      "byteOffset": 1596
    },
    {
      "buffer": 0,
      "byteLength": 68,
      "byteOffset": 1800
    },
    {
      "buffer": 0,
      "byteLength": 336,
      "byteOffset": 1868
    },
    {
      "buffer": 0,
      "byteLength": 84,
      "byteOffset": 2204
    },
    {
      "buffer": 0,
      "byteLength": 12,
      "byteOffset": 2288
    },
    {
      "buffer": 0,
      "byteLength": 4,
      "byteOffset": 2300
    },
    {
      "buffer": 0,
      "byteLength": 228,
      "byteOffset": 2304
    },
    {
      "buffer": 0,
      "byteLength": 76,
      "byteOffset": 2532
    },
    {
      "buffer": 0,
      "byteLength": 336,
      "byteOffset": 2608
    },
    {
      "buffer": 0,
      "byteLength": 84,
      "byteOffset": 2944
    },
    {
      "buffer": 0,
      "byteLength": 12,
      "byteOffset": 3028
    },
    {
      "buffer": 0,
      "byteLength": 4,
      "byteOffset": 3040
    },
    {
      "buffer": 0,
      "byteLength": 252,
      "byteOffset": 3044
    },
    {
      "buffer": 0,
      "byteLength": 84,
      "byteOffset": 3296
    },
    {
      "buffer": 0,
      "byteLength": 336,
      "byteOffset": 3380
    },
    {
      "buffer": 0,
      "byteLength": 84,
      "byteOffset": 3716
    },
    {
      "buffer": 0,
      "byteLength": 12,
      "byteOffset": 3800
    },
    {
      "buffer": 0,
      "byteLength": 4,
      "byteOffset": 3812
    },
    {
      "buffer": 0,
      "byteLength": 252,
      "byteOffset": 3816
    },
    {
      "buffer": 0,
      "byteLength": 84,
      "byteOffset": 4068
    },
    {
      "buffer": 0,
      "byteLength": 336,
      "byteOffset": 4152
    },
    {
      "buffer": 0,
      "byteLength": 84,
      "byteOffset": 4488
    },
    {
      "buffer": 0,
      "byteLength": 12,
      "byteOffset": 4572
    },
    {
      "buffer": 0,
      "byteLength": 4,
      "byteOffset": 4584
    },
    {
      "buffer": 0,
      "byteLength": 156,
      "byteOffset": 4588
    },
    {
      "buffer": 0,
      "byteLength": 52,
      "byteOffset": 4744
    },
    {
      "buffer": 0,
      "byteLength": 336,
      "byteOffset": 4796
    },
    {
      "buffer": 0,
      "byteLength": 84,
      "byteOffset": 5132
    },
    {
      "buffer": 0,
      "byteLength": 12,
      "byteOffset": 5216
    },
    {
      "buffer": 0,
      "byteLength": 4,
      "byteOffset": 5228
    },
    {
      "buffer": 0,
      "byteLength": 108,
      "byteOffset": 5232
    },
    {
      "buffer": 0,
      "byteLength": 36,
      "byteOffset": 5340
    },
    {
      "buffer": 0,
      "byteLength": 320,
      "byteOffset": 5376
    },
    {
      "buffer": 0,
      "byteLength": 80,
      "byteOffset": 5696
    },
    {
      "buffer": 0,
      "byteLength": 12,
      "byteOffset": 5776
    },
    {
      "buffer": 0,
      "byteLength": 4,
      "byteOffset": 5788
    },
    {
      "buffer": 0,
      "byteLength": 156,
      "byteOffset": 5792
    },
    {
      "buffer": 0,
      "byteLength": 52,
      "byteOffset": 5948
    },
    {
      "buffer": 0,
      "byteLength": 336,
      "byteOffset": 6000
    },
    {
      "buffer": 0,
      "byteLength": 84,
      "byteOffset": 6336
    },
    {
      "buffer": 0,
      "byteLength": 12,
      "byteOffset": 6420
    },
    {
      "buffer": 0,
      "byteLength": 4,
      "byteOffset": 6432
    },
    {
      "buffer": 0,
      "byteLength": 16,
      "byteOffset": 6436
    },
    {
      "buffer": 0,
      "byteLength": 4,
      "byteOffset": 6452
    },
    {
      "buffer": 0,
      "byteLength": 16,
      "byteOffset": 6456
    },
    {
      "buffer": 0,
      "byteLength": 4,
      "byteOffset": 6472
    },
    {
      "buffer": 0,
      "byteLength": 16,
      "byteOffset": 6476
    },
    {
      "buffer": 0,
      "byteLength": 4,
      "byteOffset": 6492
    },
    {
      "buffer": 0,
      "byteLength": 16,
      "byteOffset": 6496
    },
    {
      "buffer": 0,
      "byteLength": 4,
      "byteOffset": 6512
    },
    {
      "buffer": 0,
      "byteLength": 252,
      "byteOffset": 6516
    },
    {
      "buffer": 0,
      "byteLength": 84,
      "byteOffset": 6768
    },
    {
      "buffer": 0,
      "byteLength": 336,
      "byteOffset": 6852
    },
    {
      "buffer": 0,
      "byteLength": 84,
      "byteOffset": 7188
    },
    {
      "buffer": 0,
      "byteLength": 12,
      "byteOffset": 7272
    },
    {
      "buffer": 0,
      "byteLength": 4,
      "byteOffset": 7284
    },
    {
      "buffer": 0,
      "byteLength": 192,
      "byteOffset": 7288
    },
    {
      "buffer": 0,
      "byteLength": 64,
      "byteOffset": 7480
    },
    {
      "buffer": 0,
      "byteLength": 336,
      "byteOffset": 7544
    },
    {
      "buffer": 0,
      "byteLength": 84,
      "byteOffset": 7880
    },
    {
      "buffer": 0,
      "byteLength": 12,
      "byteOffset": 7964
    },
    {
      "buffer": 0,
      "byteLength": 4,
      "byteOffset": 7976
    },
    {
      "buffer": 0,
      "byteLength": 108,
      "byteOffset": 7980
    },
    {
      "buffer": 0,
      "byteLength": 36,
      "byteOffset": 8088
    },
    {
      "buffer": 0,
      "byteLength": 336,
      "byteOffset": 8124
    },
    {
      "buffer": 0,
      "byteLength": 84,
      "byteOffset": 8460
    },
    {
      "buffer": 0,
      "byteLength": 12,
      "byteOffset": 8544
    },
    {
      "buffer": 0,
      "byteLength": 4,
      "byteOffset": 8556
    },
    {
      "buffer": 0,
      "byteLength": 72,
      "byteOffset": 8560
    },
    {
      "buffer": 0,
      "byteLength": 24,
      "byteOffset": 8632
    },
    {
      "buffer": 0,
      "byteLength": 336,
      "byteOffset": 8656
    },
    {
      "buffer": 0,
      "byteLength": 84,
      "byteOffset": 8992
    },
    {
      "buffer": 0,
      "byteLength": 12,
      "byteOffset": 9076
    },
    {
      "buffer": 0,
      "byteLength": 4,
      "byteOffset": 9088
    },
    {
      "buffer": 0,
      "byteLength": 16,
      "byteOffset": 9092
    },
    {
      "buffer": 0,
      "byteLength": 4,
      "byteOffset": 9108
    },
    {
      "buffer": 0,
      "byteLength": 16,
      "byteOffset": 9112
    },
    {
      "buffer": 0,
      "byteLength": 4,
      "byteOffset": 9128
    },
    {
      "buffer": 0,
      "byteLength": 16,
      "byteOffset": 9132
    },
    {
      "buffer": 0,
      "byteLength": 4,
      "byteOffset": 9148
    },
    {
      "buffer": 0,
      "byteLength": 16,
      "byteOffset": 9152
    },
    {
      "buffer": 0,
      "byteLength": 4,
      "byteOffset": 9168
    },
    {
      "buffer": 0,
      "byteLength": 96,
      "byteOffset": 9172
    },
    {
      "buffer": 0,
      "byteLength": 32,
      "byteOffset": 9268
    },
    {
      "buffer": 0,
      "byteLength": 336,
      "byteOffset": 9300
    },
    {
      "buffer": 0,
      "byteLength": 84,
      "byteOffset": 9636
    },
    {
      "buffer": 0,
      "byteLength": 12,
      "byteOffset": 9720
    },
    {
      "buffer": 0,
      "byteLength": 4,
      "byteOffset": 9732
    },
    {
      "buffer": 0,
      "byteLength": 16,
      "byteOffset": 9736
    },
    {
      "buffer": 0,
      "byteLength": 4,
      "byteOffset": 9752
    },
    {
      "buffer": 0,
      "byteLength": 16,
      "byteOffset": 9756
    },
    {
      "buffer": 0,
      "byteLength": 4,
      "byteOffset": 9772
    },
    {
      "buffer": 0,
      "byteLength": 16,
      "byteOffset": 9776
    },
    {
      "buffer": 0,
      "byteLength": 4,
      "byteOffset": 9792
    },
    {
      "buffer": 0,
      "byteLength": 16,
      "byteOffset": 9796
    },
    {
      "buffer": 0,
      "byteLength": 4,
      "byteOffset": 9812
    },
    {
      "buffer": 0,
      "byteLength": 16,
      "byteOffset": 9816
    },
    {
      "buffer": 0,
      "byteLength": 4,
      "byteOffset": 9832
    },
    {
      "buffer": 0,
      "byteLength": 252,
      "byteOffset": 9836
    },
    {
      "buffer": 0,
      "byteLength": 84,
      "byteOffset": 10088
    },
    {
      "buffer": 0,
      "byteLength": 336,
      "byteOffset": 10172
    },
    {
      "buffer": 0,
      "byteLength": 84,
      "byteOffset": 10508
    },
    {
      "buffer": 0,
      "byteLength": 12,
      "byteOffset": 10592
    },
    {
      "buffer": 0,
      "byteLength": 4,
      "byteOffset": 10604
    },
    {
      "buffer": 0,
      "byteLength": 84,
      "byteOffset": 10608
    },
    {
      "buffer": 0,
      "byteLength": 28,
      "byteOffset": 10692
    },
    {
      "buffer": 0,
      "byteLength": 336,
      "byteOffset": 10720
    },
    {
      "buffer": 0,
      "byteLength": 84,
      "byteOffset": 11056
    },
    {
      "buffer": 0,
      "byteLength": 12,
      "byteOffset": 11140
    },
    {
      "buffer": 0,
      "byteLength": 4,
      "byteOffset": 11152
    },
    {
      "buffer": 0,
      "byteLength": 72,
      "byteOffset": 11156
    },
    {
      "buffer": 0,
      "byteLength": 24,
      "byteOffset": 11228
    },
    {
      "buffer": 0,
      "byteLength": 336,
      "byteOffset": 11252
    },
    {
      "buffer": 0,
      "byteLength": 84,
      "byteOffset": 11588
    },
    {
      "buffer": 0,
      "byteLength": 12,
      "byteOffset": 11672
    },
    {
      "buffer": 0,
      "byteLength": 4,
      "byteOffset": 11684
    },
    {
      "buffer": 0,
      "byteLength": 24,
      "byteOffset": 11688
    },
    {
      "buffer": 0,
      "byteLength": 8,
      "byteOffset": 11712
    },
    {
      "buffer": 0,
      "byteLength": 272,
      "byteOffset": 11720
    },
    {
      "buffer": 0,
      "byteLength": 68,
      "byteOffset": 11992
    },
    {
      "buffer": 0,
      "byteLength": 12,
      "byteOffset": 12060
    },
    {
      "buffer": 0,
      "byteLength": 4,
      "byteOffset": 12072
    },
    {
      "buffer": 0,
      "byteLength": 16,
      "byteOffset": 12076
    },
    {
      "buffer": 0,
      "byteLength": 4,
      "byteOffset": 12092
    },
    {
      "buffer": 0,
      "byteLength": 16,
      "byteOffset": 12096
    },
    {
      "buffer": 0,
      "byteLength": 4,
      "byteOffset": 12112
    },
    {
      "buffer": 0,
      "byteLength": 16,
      "byteOffset": 12116
    },
    {
      "buffer": 0,
      "byteLength": 4,
      "byteOffset": 12132
    },
    {
      "buffer": 0,
      "byteLength": 16,
      "byteOffset": 12136
    },
    {
      "buffer": 0,
      "byteLength": 4,
      "byteOffset": 12152
    },
    {
      "buffer": 0,
      "byteLength": 16,
      "byteOffset": 12156
    },
    {
      "buffer": 0,
      "byteLength": 4,
      "byteOffset": 12172
    },
    {
      "buffer": 0,
      "byteLength": 252,
      "byteOffset": 12176
    },
    {
      "buffer": 0,
      "byteLength": 84,
      "byteOffset": 12428
    },
    {
      "buffer": 0,
      "byteLength": 336,
      "byteOffset": 12512
    },
    {
      "buffer": 0,
      "byteLength": 84,
      "byteOffset": 12848
    },
    {
      "buffer": 0,
      "byteLength": 12,
      "byteOffset": 12932
    },
    {
      "buffer": 0,
      "byteLength": 4,
      "byteOffset": 12944
    },
    {
      "buffer": 0,
      "byteLength": 144,
      "byteOffset": 12948
    },
    {
      "buffer": 0,
      "byteLength": 48,
      "byteOffset": 13092
    },
    {
      "buffer": 0,
      "byteLength": 336,
      "byteOffset": 13140
    },
    {
      "buffer": 0,
      "byteLength": 84,
      "byteOffset": 13476
    },
    {
      "buffer": 0,
      "byteLength": 12,
      "byteOffset": 13560
    },
    {
      "buffer": 0,
      "byteLength": 4,
      "byteOffset": 13572
    },
    {
      "buffer": 0,
      "byteLength": 60,
      "byteOffset": 13576
    },
    {
      "buffer": 0,
      "byteLength": 20,
      "byteOffset": 13636
    },
    {
      "buffer": 0,
      "byteLength": 336,
      "byteOffset": 13656
    },
    {
      "buffer": 0,
      "byteLength": 84,
      "byteOffset": 13992
    },
    {
      "buffer": 0,
      "byteLength": 12,
      "byteOffset": 14076
    },
    {
      "buffer": 0,
      "byteLength": 4,
      "byteOffset": 14088
    },
    {
      "buffer": 0,
      "byteLength": 12,
      "byteOffset": 14092
    },
    {
      "buffer": 0,
      "byteLength": 4,
      "byteOffset": 14104
    },
    {
      "buffer": 0,
      "byteLength": 336,
      "byteOffset": 14108
    },
    {
      "buffer": 0,
      "byteLength": 84,
      "byteOffset": 14444
    },
    {
      "buffer": 0,
      "byteLength": 12,
      "byteOffset": 14528
    },
    {
      "buffer": 0,
      "byteLength": 4,
      "byteOffset": 14540
    },
    {
      "buffer": 0,
      "byteLength": 16,
      "byteOffset": 14544
    },
    {
      "buffer": 0,
      "byteLength": 4,
      "byteOffset": 14560
    },
    {
      "buffer": 0,
      "byteLength": 16,
      "byteOffset": 14564
    },
    {
      "buffer": 0,
      "byteLength": 4,
      "byteOffset": 14580
    },
    {
      "buffer": 0,
      "byteLength": 16,
      "byteOffset": 14584
    },
    {
      "buffer": 0,
      "byteLength": 4,
      "byteOffset": 14600
    },
    {
      "buffer": 0,
      "byteLength": 16,
      "byteOffset": 14604
    },
    {
      "buffer": 0,
      "byteLength": 4,
      "byteOffset": 14620
    },
    {
      "buffer": 0,
      "byteLength": 16,
      "byteOffset": 14624
    },
    {
      "buffer": 0,
      "byteLength": 4,
      "byteOffset": 14640
    },
    {
      "buffer": 0,
      "byteLength": 16,
      "byteOffset": 14644
    },
    {
      "buffer": 0,
      "byteLength": 4,
      "byteOffset": 14660
    },
    {
      "buffer": 0,
      "byteLength": 16,
      "byteOffset": 14664
    },
    {
      "buffer": 0,
      "byteLength": 4,
      "byteOffset": 14680
    }
  ],
  "buffers": [
    {
      "byteLength": 14684,
      "uri": "out.bin"
    }
  ],
  "extras": {
    "FBX-glTF-conv": {
      "animationFrameRate": 30.0,
      "fbxFileHeaderInfo": {
        "creationTimeStamp": {
          "day": 29,
          "hour": 19,
          "millisecond": 459,
          "minute": 15,
          "month": 5,
          "second": 19,
          "year": 2026
        },
        "creator": "FBX SDK/FBX Plugins version 2020.3.7",
        "sceneInfo": {
          "author": "",
          "comment": "",
          "keywords": "",
          "original": {
            "applicationName": "3ds Max",
            "applicationVendor": "Autodesk",
            "applicationVersion": "2026",
            "fileName": "E:\\试玩需求\\boss\\boos_2\\boos_02_攻击.fbx"
          },
          "revision": "",
          "subject": "",
          "title": "",
          "url": "D:\\工程项目\\test_pro\\test_pro\\HYQ_Project\\assets\\GameRes\\FBX\\Monster_boos_2\\boos_02_攻击.fbx"
        }
      }
    }
  },
  "nodes": [
    {
      "children": [
        1,
        47
      ],
      "extras": {
        "FBX-glTF-conv": {
          "skeleton": {
            "skeletonType": "Root"
          }
        }
      },
      "name": "Bip001",
      "rotation": [
        0.38839060068130493,
        0.6546034216880798,
        0.5730252861976624,
        -0.3037912845611572
      ],
      "translation": [
        0.007509647402912378,
        0.8897715210914612,
        -0.007635587360709906
      ]
    },
    {
      "children": [
        2
      ],
      "extras": {
        "FBX-glTF-conv": {
          "skeleton": {
            "skeletonType": "LimbNode"
          }
        }
      },
      "name": "Bip001 Pelvis",
      "rotation": [
        -0.5,
        -0.5,
        -0.4999993145465851,
        0.5000007152557373
      ]
    },
    {
      "children": [
        3,
        28,
        37,
        46
      ],
      "extras": {
        "FBX-glTF-conv": {
          "skeleton": {
            "skeletonType": "LimbNode"
          }
        }
      },
      "name": "Bip001 Spine",
      "rotation": [
        0.007773290853947401,
        -0.025370735675096512,
        0.19190113246440887,
        0.981055498123169
      ],
      "translation": [
        0.03595931828022003,
        -0.00016785621119197458,
        -5.793571631329542e-07
      ]
    },
    {
      "children": [
        4,
        27
      ],
      "extras": {
        "FBX-glTF-conv": {
          "skeleton": {
            "skeletonType": "LimbNode"
          }
        }
      },
      "name": "Bip001 Spine1",
      "rotation": [
        0.0013094814494252205,
        -0.003597647650167346,
        0.03496390953660011,
        0.9993812441825867
      ],
      "translation": [
        0.14758002758026123,
        -0.0001661300630075857,
        -3.97562985199329e-07
      ]
    },
    {
      "children": [
        5,
        26
      ],
      "extras": {
        "FBX-glTF-conv": {
          "skeleton": {
            "skeletonType": "LimbNode"
          }
        }
      },
      "name": "Bip001 Spine2",
      "rotation": [
        0.0026172983925789595,
        -0.007190869189798832,
        0.06988462060689926,
        0.9975257515907288
      ],
      "translation": [
        0.20916466414928436,
        -0.00018243789963889867,
        -7.808208692949847e-07
      ]
    },
    {
      "children": [
        6,
        14,
        22
      ],
      "extras": {
        "FBX-glTF-conv": {
          "skeleton": {
            "skeletonType": "LimbNode"
          }
        }
      },
      "name": "Bip001 Neck",
      "rotation": [
        0.19134104251861572,
        -0.11490321904420853,
        0.01824432983994484,
        0.9746040105819702
      ],
      "translation": [
        0.24266746640205383,
        -5.298614632920362e-05,
        -2.109289198415354e-05
      ]
    },
    {
      "children": [
        7,
        13
      ],
      "extras": {
        "FBX-glTF-conv": {
          "skeleton": {
            "skeletonType": "LimbNode"
          }
        }
      },
      "name": "Bip001 L Clavicle",
      "rotation": [
        0.6474973559379578,
        0.14702989161014557,
        0.7374087572097778,
        0.12392642349004745
      ],
      "translation": [
        0.196330264210701,
        -0.10015750676393509,
        0.12436134368181229
      ]
    },
    {
      "children": [
        8,
        12
      ],
      "extras": {
        "FBX-glTF-conv": {
          "skeleton": {
            "skeletonType": "LimbNode"
          }
        }
      },
      "name": "Bip001 L UpperArm",
      "rotation": [
        0.010114639066159725,
        0.3743865191936493,
        0.07479493319988251,
        0.9241959452629089
      ],
      "translation": [
        0.3080410659313202,
        -7.629394360719743e-08,
        0.0
      ]
    },
    {
      "children": [
        9,
        11
      ],
      "extras": {
        "FBX-glTF-conv": {
          "skeleton": {
            "skeletonType": "LimbNode"
          }
        }
      },
      "name": "Bip001 L Forearm",
      "rotation": [
        4.294714709340113e-18,
        -7.838706268198332e-17,
        -0.6673645377159119,
        0.7447312474250793
      ],
      "translation": [
        0.2870975434780121,
        7.629394360719743e-08,
        -7.629394360719743e-08
      ]
    },
    {
      "children": [
        10
      ],
      "extras": {
        "FBX-glTF-conv": {
          "skeleton": {
            "skeletonType": "LimbNode"
          }
        }
      },
      "name": "Bip001 L Hand",
      "rotation": [
        -0.3050130307674408,
        -0.0030137053690850735,
        0.022435499355196953,
        0.9520791172981262
      ],
      "translation": [
        0.2870975136756897,
        -7.629394360719743e-08,
        -7.629394360719743e-08
      ]
    },
    {
      "name": "mixamorig:LeftHand",
      "rotation": [
        0.6532352566719055,
        0.45542916655540466,
        0.5144954919815063,
        -0.3180603086948395
      ],
      "scale": [
        2.539999008178711,
        2.5399999618530273,
        2.5399999618530273
      ],
      "translation": [
        -0.005195579491555691,
        0.006821594201028347,
        0.008967285044491291
      ]
    },
    {
      "name": "mixamorig:LeftForeArm",
      "rotation": [
        0.6836795210838318,
        0.7166414260864258,
        -0.07865602523088455,
        0.11322784423828125
      ],
      "scale": [
        2.539999008178711,
        2.5399999618530273,
        2.5399999618530273
      ],
      "translation": [
        -0.01502273604273796,
        -0.0066307829692959785,
        -0.017049789428710938
      ]
    },
    {
      "name": "mixamorig:LeftArm",
      "rotation": [
        0.7058023810386658,
        0.6951907277107239,
        -0.11008132249116898,
        0.08021821081638336
      ],
      "scale": [
        2.5399999618530273,
        2.5400009155273438,
        2.5399999618530273
      ],
      "translation": [
        -0.041310347616672516,
        0.002693710383027792,
        -0.0045975493267178535
      ]
    },
    {
      "name": "mixamorig:LeftShoulder",
      "rotation": [
        0.7018406391143799,
        0.7064086198806763,
        -0.07844384014606476,
        0.0474667102098465
      ],
      "scale": [
        2.539999008178711,
        2.5399999618530273,
        2.5399999618530273
      ],
      "translation": [
        -0.00021629333787132055,
        0.00041805265937000513,
        0.013138122856616974
      ]
    },
    {
      "children": [
        15,
        21
      ],
      "extras": {
        "FBX-glTF-conv": {
          "skeleton": {
            "skeletonType": "LimbNode"
          }
        }
      },
      "name": "Bip001 R Clavicle",
      "rotation": [
        -0.4583830237388611,
        0.16817231476306915,
        0.8677035570144653,
        -0.09323964267969131
      ],
      "translation": [
        0.14073623716831207,
        -0.18892627954483032,
        -0.09237361699342728
      ]
    },
    {
      "children": [
        16,
        20
      ],
      "extras": {
        "FBX-glTF-conv": {
          "skeleton": {
            "skeletonType": "LimbNode"
          }
        }
      },
      "name": "Bip001 R UpperArm",
      "rotation": [
        0.07365559786558151,
        -0.3397124707698822,
        0.0004910778952762485,
        0.9376406669616699
      ],
      "translation": [
        0.3080410361289978,
        0.0,
        1.5258788721439487e-07
      ]
    },
    {
      "children": [
        17,
        19
      ],
      "extras": {
        "FBX-glTF-conv": {
          "skeleton": {
            "skeletonType": "LimbNode"
          }
        }
      },
      "name": "Bip001 R Forearm",
      "rotation": [
        4.3104894572118055e-17,
        5.437640170590043e-17,
        -0.6212069988250732,
        0.7836465239524841
      ],
      "translation": [
        0.2870974838733673,
        0.0,
        0.0
      ]
    },
    {
      "children": [
        18
      ],
      "extras": {
        "FBX-glTF-conv": {
          "skeleton": {
            "skeletonType": "LimbNode"
          }
        }
      },
      "name": "Bip001 R Hand",
      "rotation": [
        0.9768171906471252,
        -0.06778823584318161,
        0.04383142665028572,
        0.19827181100845337
      ],
      "translation": [
        0.2870975732803345,
        7.629394360719743e-08,
        -1.4210854397564648e-16
      ]
    },
    {
      "name": "mixamorig:RightHand",
      "rotation": [
        0.5141546130180359,
        0.3193711042404175,
        0.6536287665367126,
        -0.4543309211730957
      ],
      "scale": [
        2.5399999618530273,
        2.5399999618530273,
        2.5400021076202393
      ],
      "translation": [
        -0.006829872261732817,
        0.008728256449103355,
        -0.008530884049832821
      ]
    },
    {
      "name": "mixamorig:RightForeArm",
      "rotation": [
        0.07833968847990036,
        0.11276663094758987,
        -0.6849592924118042,
        0.7155259251594543
      ],
      "scale": [
        2.5399999618530273,
        2.5399999618530273,
        2.5400009155273438
      ],
      "translation": [
        -0.017352676019072533,
        -0.0060639954172074795,
        0.018366089090704918
      ]
    },
    {
      "name": "mixamorig:RightArm",
      "rotation": [
        0.1095070168375969,
        0.07997933775186539,
        -0.7024778723716736,
        0.698667585849762
      ],
      "scale": [
        2.5399999618530273,
        2.539999008178711,
        2.5400009155273438
      ],
      "translation": [
        -0.04364013671875,
        0.0006764221470803022,
        0.0056491089053452015
      ]
    },
    {
      "name": "mixamorig:RightShoulder",
      "rotation": [
        0.0779046043753624,
        0.04660668969154358,
        -0.7037020921707153,
        0.7046716213226318
      ],
      "scale": [
        2.5399999618530273,
        2.5399999618530273,
        2.5399999618530273
      ],
      "translation": [
        -0.002597007667645812,
        -0.00025768281193450093,
        -0.01222991943359375
      ]
    },
    {
      "children": [
        23,
        25
      ],
      "extras": {
        "FBX-glTF-conv": {
          "skeleton": {
            "skeletonType": "LimbNode"
          }
        }
      },
      "name": "Bip001 Head",
      "rotation": [
        0.08650103211402893,
        0.10387715697288513,
        -0.017820008099079132,
        0.9906611442565918
      ],
      "translation": [
        0.16557204723358154,
        0.08173511177301407,
        0.0
      ]
    },
    {
      "children": [
        24
      ],
      "name": "mixamorig:Head",
      "rotation": [
        -0.4999998211860657,
        -0.5000001788139343,
        -0.49999916553497314,
        0.5000008344650269
      ],
      "scale": [
        2.539999008178711,
        2.5399999618530273,
        2.539999008178711
      ],
      "translation": [
        0.18508803844451904,
        -0.05307205021381378,
        0.0012736129574477673
      ]
    },
    {
      "name": "mixamorig:HeadTop_End",
      "translation": [
        -1.776356799695581e-17,
        0.013808670453727245,
        0.020804671570658684
      ]
    },
    {
      "name": "mixamorig:Neck",
      "rotation": [
        -0.49999985098838806,
        -0.5000001192092896,
        -0.4999992251396179,
        0.5000007748603821
      ],
      "scale": [
        2.539999008178711,
        2.5399999618530273,
        2.539999008178711
      ],
      "translation": [
        0.0722256451845169,
        -0.2231171429157257,
        0.001273574773222208
      ]
    },
    {
      "name": "mixamorig:Spine2",
      "rotation": [
        0.5392642021179199,
        0.457377552986145,
        0.5392634868621826,
        -0.4573781490325928
      ],
      "scale": [
        2.5399999618530273,
        2.5399999618530273,
        2.539999008178711
      ],
      "translation": [
        0.21886177361011505,
        -0.09824707359075546,
        0.0012737942161038518
      ]
    },
    {
      "name": "mixamorig:Spine1",
      "rotation": [
        0.5392642021179199,
        0.4573775827884674,
        0.5392635464668274,
        -0.4573781192302704
      ],
      "scale": [
        2.5399999618530273,
        2.5399999618530273,
        2.5399999618530273
      ],
      "translation": [
        0.19562645256519318,
        -0.0599871426820755,
        0.0012740242527797818
      ]
    },
    {
      "children": [
        29,
        36
      ],
      "extras": {
        "FBX-glTF-conv": {
          "skeleton": {
            "skeletonType": "LimbNode"
          }
        }
      },
      "name": "Bip001 L Thigh",
      "rotation": [
        0.20535926520824432,
        0.9394730925559998,
        -0.19678053259849548,
        -0.19103749096393585
      ],
      "translation": [
        -0.022676238790154457,
        0.01480991393327713,
        0.2008775770664215
      ]
    },
    {
      "children": [
        30,
        35
      ],
      "extras": {
        "FBX-glTF-conv": {
          "skeleton": {
            "skeletonType": "LimbNode"
          }
        }
      },
      "name": "Bip001 L Calf",
      "rotation": [
        -1.2843161050981093e-17,
        -4.6843542491343377e-17,
        -0.2644135057926178,
        0.9644094109535217
      ],
      "translation": [
        0.4784960150718689,
        -1.776356799695581e-17,
        -3.814697180359872e-08
      ]
    },
    {
      "children": [
        31,
        33,
        34
      ],
      "extras": {
        "FBX-glTF-conv": {
          "skeleton": {
            "skeletonType": "LimbNode"
          }
        }
      },
      "name": "Bip001 L Foot",
      "rotation": [
        0.0034248782321810722,
        -0.18419604003429413,
        0.19235152006149292,
        0.9638780951499939
      ],
      "translation": [
        0.35948628187179565,
        3.552713599391162e-17,
        -1.4210854397564648e-16
      ]
    },
    {
      "children": [
        32
      ],
      "extras": {
        "FBX-glTF-conv": {
          "skeleton": {
            "skeletonType": "LimbNode"
          }
        }
      },
      "name": "Bip001 L Toe0",
      "rotation": [
        -0.01600130833685398,
        0.01621922105550766,
        0.7116403579711914,
        0.7021743655204773
      ],
      "translation": [
        0.11005409061908722,
        0.14720523357391357,
        0.0
      ]
    },
    {
      "name": "mixamorig:LeftToe_End",
      "rotation": [
        0.51589435338974,
        0.5000927448272705,
        0.5084514021873474,
        -0.47459185123443604
      ],
      "scale": [
        2.5400009155273438,
        2.5400021076202393,
        2.5400009155273438
      ],
      "translation": [
        0.08570960909128189,
        0.006687743589282036,
        -0.0030456543900072575
      ]
    },
    {
      "name": "mixamorig:LeftFoot",
      "rotation": [
        -0.17010530829429626,
        -0.6228621006011963,
        -0.22538743913173676,
        0.7295940518379211
      ],
      "scale": [
        2.5400009155273438,
        2.5399999618530273,
        2.5399999618530273
      ],
      "translation": [
        -0.0012794113717973232,
        -0.005283374805003405,
        -0.010648002848029137
      ]
    },
    {
      "name": "mixamorig:LeftToeBase",
      "rotation": [
        -0.011173158884048462,
        -0.7184112071990967,
        -0.023941969498991966,
        0.6951166987419128
      ],
      "scale": [
        2.5400009155273438,
        2.5400009155273438,
        2.5399999618530273
      ],
      "translation": [
        0.09932301193475723,
        0.15108007192611694,
        -0.004591789096593857
      ]
    },
    {
      "name": "mixamorig:LeftLeg",
      "rotation": [
        0.5104009509086609,
        0.4873547852039337,
        0.5040136575698853,
        -0.4979422092437744
      ],
      "scale": [
        2.5399999618530273,
        2.5399999618530273,
        2.5399999618530273
      ],
      "translation": [
        0.007181091234087944,
        0.002397823380306363,
        -0.0029585266020148993
      ]
    },
    {
      "name": "mixamorig:LeftUpLeg",
      "rotation": [
        -0.5098433494567871,
        -0.4869600534439087,
        -0.4940733313560486,
        0.5087447762489319
      ],
      "scale": [
        2.5400009155273438,
        2.5399999618530273,
        2.5399999618530273
      ],
      "translation": [
        0.09449249505996704,
        0.004893036093562841,
        0.011757126078009605
      ]
    },
    {
      "children": [
        38,
        45
      ],
      "extras": {
        "FBX-glTF-conv": {
          "skeleton": {
            "skeletonType": "LimbNode"
          }
        }
      },
      "name": "Bip001 R Thigh",
      "rotation": [
        0.18832281231880188,
        0.9594085216522217,
        -0.0014332460705190897,
        0.20992331206798553
      ],
      "translation": [
        -0.04372650012373924,
        0.012609061785042286,
        -0.1975192278623581
      ]
    },
    {
      "children": [
        39,
        44
      ],
      "extras": {
        "FBX-glTF-conv": {
          "skeleton": {
            "skeletonType": "LimbNode"
          }
        }
      },
      "name": "Bip001 R Calf",
      "rotation": [
        2.349438943164772e-17,
        -2.0272608626898606e-17,
        -0.24572831392288208,
        0.9693387150764465
      ],
      "translation": [
        0.4784960150718689,
        -9.53674295089968e-09,
        0.0
      ]
    },
    {
      "children": [
        40,
        42,
        43
      ],
      "extras": {
        "FBX-glTF-conv": {
          "skeleton": {
            "skeletonType": "LimbNode"
          }
        }
      },
      "name": "Bip001 R Foot",
      "rotation": [
        0.02370515465736389,
        0.22074781358242035,
        0.15010161697864532,
        0.9634199142456055
      ],
      "translation": [
        0.35948601365089417,
        -3.33786012163273e-08,
        3.814697180359872e-08
      ]
    },
    {
      "children": [
        41
      ],
      "extras": {
        "FBX-glTF-conv": {
          "skeleton": {
            "skeletonType": "LimbNode"
          }
        }
      },
      "name": "Bip001 R Toe0",
      "rotation": [
        4.689415504799399e-07,
        -4.350930566943134e-07,
        0.6954526305198669,
        0.7185719013214111
      ],
      "translation": [
        0.11005411297082901,
        0.14720526337623596,
        3.814697180359872e-08
      ]
    },
    {
      "name": "mixamorig:RightToe_End",
      "rotation": [
        0.5079805850982666,
        0.4746192693710327,
        0.5164563059806824,
        -0.4999651312828064
      ],
      "scale": [
        2.5400009155273438,
        2.5400021076202393,
        2.5400021076202393
      ],
      "translation": [
        0.08575033396482468,
        0.006690602283924818,
        0.0003945159842260182
      ]
    },
    {
      "name": "mixamorig:RightFoot",
      "rotation": [
        -0.22557282447814941,
        -0.7292258143424988,
        -0.17077232897281647,
        0.6230437159538269
      ],
      "scale": [
        2.5400009155273438,
        2.5400009155273438,
        2.5400009155273438
      ],
      "translation": [
        -0.0012762832920998335,
        -0.00445644510909915,
        0.0077842711471021175
      ]
    },
    {
      "name": "mixamorig:RightToeBase",
      "rotation": [
        -0.02358953282237053,
        -0.6948030591011047,
        -0.011660424061119556,
        0.7187184691429138
      ],
      "scale": [
        2.5399999618530273,
        2.5400009155273438,
        2.5400009155273438
      ],
      "translation": [
        0.0993223562836647,
        0.15149778127670288,
        0.0018387603340670466
      ]
    },
    {
      "name": "mixamorig:RightLeg",
      "rotation": [
        0.5026594400405884,
        0.49915778636932373,
        0.5092341899871826,
        -0.48872846364974976
      ],
      "scale": [
        2.5400009155273438,
        2.5400009155273438,
        2.5400009155273438
      ],
      "translation": [
        0.007027340121567249,
        0.0020842170342803,
        0.0004178237868472934
      ]
    },
    {
      "name": "mixamorig:RightUpLeg",
      "rotation": [
        0.4929792582988739,
        0.5096492171287537,
        0.508956789970398,
        -0.48804929852485657
      ],
      "scale": [
        2.5399999618530273,
        2.5399999618530273,
        2.5399999618530273
      ],
      "translation": [
        0.09441249817609787,
        0.0030406189616769552,
        -0.014297752641141415
      ]
    },
    {
      "name": "mixamorig:Spine",
      "rotation": [
        0.5392643213272095,
        0.45737743377685547,
        0.5392636060714722,
        -0.45737800002098083
      ],
      "scale": [
        2.5399999618530273,
        2.5399999618530273,
        2.5399999618530273
      ],
      "translation": [
        0.1398676335811615,
        -0.026514949277043343,
        0.0012742399703711271
      ]
    },
    {
      "name": "mixamorig:Hips",
      "rotation": [
        0.5000003576278687,
        0.49999964237213135,
        0.49999964237213135,
        0.5000003576278687
      ],
      "scale": [
        2.5399999618530273,
        2.5399999618530273,
        2.5399999618530273
      ],
      "translation": [
        0.0021143818739801645,
        0.001274271053262055,
        0.0015002441359683871
      ]
    }
  ],
  "scenes": [
    {
      "nodes": [
        0
      ]
    }
  ]
}