{
  "accessors": [
    {
      "bufferView": 0,
      "componentType": 5126,
      "count": 6552,
      "max": [
        1.6852627992630005,
        1.6852627992630005,
        15.745448112487793
      ],
      "min": [
        -1.6852627992630005,
        -1.6852627992630005,
        -0.00013416289584711194
      ],
      "name": "LPillar01_E03/POSITION",
      "type": "VEC3"
    },
    {
      "bufferView": 0,
      "byteOffset": 12,
      "componentType": 5126,
      "count": 6552,
      "name": "LPillar01_E03/NORMAL",
      "type": "VEC3"
    },
    {
      "bufferView": 0,
      "byteOffset": 24,
      "componentType": 5126,
      "count": 6552,
      "name": "LPillar01_E03/TEXCOORD_0",
      "type": "VEC2"
    },
    {
      "bufferView": 0,
      "byteOffset": 32,
      "componentType": 5126,
      "count": 6552,
      "name": "LPillar01_E03/TEXCOORD_1",
      "type": "VEC2"
    },
    {
      "bufferView": 0,
      "byteOffset": 40,
      "componentType": 5126,
      "count": 6552,
      "name": "LPillar01_E03/COLOR_0",
      "type": "VEC4"
    },
    {
      "bufferView": 1,
      "componentType": 5123,
      "count": 19224,
      "name": "LPillar01_E03/INDICES",
      "type": "SCALAR"
    }
  ],
  "asset": {
    "copyright": "Copyright (c) 2018-2020 Chukong Technologies Inc.",
    "generator": "FBX-glTF-conv",
    "version": "2.0"
  },
  "bufferViews": [
    {
      "buffer": 0,
      "byteLength": 366912,
      "byteStride": 56,
      "name": "LPillar01_E03",
      "target": 34962
    },
    {
      "buffer": 0,
      "byteLength": 38448,
      "byteOffset": 366912,
      "target": 34963
    }
  ],
  "buffers": [
    {
      "byteLength": 405360,
      "uri": "out.bin"
    }
  ],
  "extras": {
    "FBX-glTF-conv": {
      "animationFrameRate": 30.0,
      "fbxFileHeaderInfo": {
        "creationTimeStamp": {
          "day": 15,
          "hour": 15,
          "millisecond": 570,
          "minute": 4,
          "month": 6,
          "second": 46,
          "year": 2026
        },
        "creator": "FBX SDK/FBX Plugins version 2020.1.1",
        "sceneInfo": {
          "author": "",
          "comment": "",
          "keywords": "",
          "original": {
            "applicationName": "3ds Max",
            "applicationVendor": "Autodesk",
            "applicationVersion": "2022",
            "fileName": "C:\\Users\\Administrator\\Desktop\\SLLYT\\shizhu.fbx"
          },
          "revision": "",
          "subject": "",
          "title": "",
          "url": "D:\\工程项目\\PlayableAD\\Cocos\\TheW\\20260615_HYQ\\HYQ_Project\\assets\\GameRes\\SLLYT_map\\fbx\\shizhu.fbx"
        }
      }
    }
  },
  "meshes": [
    {
      "name": "LPillar01_E03",
      "primitives": [
        {
          "attributes": {
            "COLOR_0": 4,
            "NORMAL": 1,
            "POSITION": 0,
            "TEXCOORD_0": 2,
            "TEXCOORD_1": 3
          },
          "indices": 5
        }
      ]
    }
  ],
  "nodes": [
    {
      "mesh": 0,
      "name": "LPillar01_E03",
      "rotation": [
        -0.7071067690849304,
        -0.0,
        0.0,
        0.7071067690849304
      ]
    }
  ],
  "scenes": [
    {
      "nodes": [
        0
      ]
    }
  ]
}