{
  "accessors": [
    {
      "bufferView": 0,
      "componentType": 5126,
      "count": 21,
      "name": "Bip001/translation/Output",
      "type": "VEC3"
    },
    {
      "bufferView": 1,
      "componentType": 5126,
      "count": 21,
      "max": [
        0.6666666865348816
      ],
      "min": [
        0.0
      ],
      "name": "Bip001/translation/Input",
      "type": "SCALAR"
    },
    {
      "bufferView": 2,
      "componentType": 5126,
      "count": 21,
      "name": "Bip001/rotation/Output",
      "type": "VEC4"
    },
    {
      "bufferView": 3,
      "componentType": 5126,
      "count": 21,
      "max": [
        0.6666666865348816
      ],
      "min": [
        0.0
      ],
      "name": "Bip001/rotation/Input",
      "type": "SCALAR"
    },
    {
      "bufferView": 4,
      "componentType": 5126,
      "count": 1,
      "name": "Bip001/scale/Output",
      "type": "VEC3"
    },
    {
      "bufferView": 5,
      "componentType": 5126,
      "count": 1,
      "max": [
        0.6666666865348816
      ],
      "min": [
        0.6666666865348816
      ],
      "name": "Bip001/scale/Input",
      "type": "SCALAR"
    },
    {
      "bufferView": 6,
      "componentType": 5126,
      "count": 1,
      "name": "Bip001 Pelvis/translation/Output",
      "type": "VEC3"
    },
    {
      "bufferView": 7,
      "componentType": 5126,
      "count": 1,
      "max": [
        0.6666666865348816
      ],
      "min": [
        0.6666666865348816
      ],
      "name": "Bip001 Pelvis/translation/Input",
      "type": "SCALAR"
    },
    {
      "bufferView": 8,
      "componentType": 5126,
      "count": 1,
      "name": "Bip001 Pelvis/rotation/Output",
      "type": "VEC4"
    },
    {
      "bufferView": 9,
      "componentType": 5126,
      "count": 1,
      "max": [
        0.6666666865348816
      ],
      "min": [
        0.6666666865348816
      ],
      "name": "Bip001 Pelvis/rotation/Input",
      "type": "SCALAR"
    },
    {
      "bufferView": 10,
      "componentType": 5126,
      "count": 1,
      "name": "Bip001 Pelvis/scale/Output",
      "type": "VEC3"
    },
    {
      "bufferView": 11,
      "componentType": 5126,
      "count": 1,
      "max": [
        0.6666666865348816
      ],
      "min": [
        0.6666666865348816
      ],
      "name": "Bip001 Pelvis/scale/Input",
      "type": "SCALAR"
    },
    {
      "bufferView": 12,
      "componentType": 5126,
      "count": 21,
      "name": "Bip001 Spine/translation/Output",
      "type": "VEC3"
    },
    {
      "bufferView": 13,
      "componentType": 5126,
      "count": 21,
      "max": [
        0.6666666865348816
      ],
      "min": [
        0.0
      ],
      "name": "Bip001 Spine/translation/Input",
      "type": "SCALAR"
    },
    {
      "bufferView": 14,
      "componentType": 5126,
      "count": 21,
      "name": "Bip001 Spine/rotation/Output",
      "type": "VEC4"
    },
    {
      "bufferView": 15,
      "componentType": 5126,
      "count": 21,
      "max": [
        0.6666666865348816
      ],
      "min": [
        0.0
      ],
      "name": "Bip001 Spine/rotation/Input",
      "type": "SCALAR"
    },
    {
      "bufferView": 16,
      "componentType": 5126,
      "count": 1,
      "name": "Bip001 Spine/scale/Output",
      "type": "VEC3"
    },
    {
      "bufferView": 17,
      "componentType": 5126,
      "count": 1,
      "max": [
        0.6666666865348816
      ],
      "min": [
        0.6666666865348816
      ],
      "name": "Bip001 Spine/scale/Input",
      "type": "SCALAR"
    },
    {
      "bufferView": 18,
      "componentType": 5126,
      "count": 21,
      "name": "Bip001 Spine1/translation/Output",
      "type": "VEC3"
    },
    {
      "bufferView": 19,
      "componentType": 5126,
      "count": 21,
      "max": [
        0.6666666865348816
      ],
      "min": [
        0.0
      ],
      "name": "Bip001 Spine1/translation/Input",
      "type": "SCALAR"
    },
    {
      "bufferView": 20,
      "componentType": 5126,
      "count": 21,
      "name": "Bip001 Spine1/rotation/Output",
      "type": "VEC4"
    },
    {
      "bufferView": 21,
      "componentType": 5126,
      "count": 21,
      "max": [
        0.6666666865348816
      ],
      "min": [
        0.0
      ],
      "name": "Bip001 Spine1/rotation/Input",
      "type": "SCALAR"
    },
    {
      "bufferView": 22,
      "componentType": 5126,
      "count": 1,
      "name": "Bip001 Spine1/scale/Output",
      "type": "VEC3"
    },
    {
      "bufferView": 23,
      "componentType": 5126,
      "count": 1,
      "max": [
        0.6666666865348816
      ],
      "min": [
        0.6666666865348816
      ],
      "name": "Bip001 Spine1/scale/Input",
      "type": "SCALAR"
    },
    {
      "bufferView": 24,
      "componentType": 5126,
      "count": 19,
      "name": "Bip001 Neck/translation/Output",
      "type": "VEC3"
    },
    {
      "bufferView": 25,
      "componentType": 5126,
      "count": 19,
      "max": [
        0.6666666865348816
      ],
      "min": [
        0.0
      ],
      "name": "Bip001 Neck/translation/Input",
      "type": "SCALAR"
    },
    {
      "bufferView": 26,
      "componentType": 5126,
      "count": 21,
      "name": "Bip001 Neck/rotation/Output",
      "type": "VEC4"
    },
    {
      "bufferView": 27,
      "componentType": 5126,
      "count": 21,
      "max": [
        0.6666666865348816
      ],
      "min": [
        0.0
      ],
      "name": "Bip001 Neck/rotation/Input",
      "type": "SCALAR"
    },
    {
      "bufferView": 28,
      "componentType": 5126,
      "count": 1,
      "name": "Bip001 Neck/scale/Output",
      "type": "VEC3"
    },
    {
      "bufferView": 29,
      "componentType": 5126,
      "count": 1,
      "max": [
        0.6666666865348816
      ],
      "min": [
        0.6666666865348816
      ],
      "name": "Bip001 Neck/scale/Input",
      "type": "SCALAR"
    },
    {
      "bufferView": 30,
      "componentType": 5126,
      "count": 21,
      "name": "Bip001 L Clavicle/translation/Output",
      "type": "VEC3"
    },
    {
      "bufferView": 31,
      "componentType": 5126,
      "count": 21,
      "max": [
        0.6666666865348816
      ],
      "min": [
        0.0
      ],
      "name": "Bip001 L Clavicle/translation/Input",
      "type": "SCALAR"
    },
    {
      "bufferView": 32,
      "componentType": 5126,
      "count": 21,
      "name": "Bip001 L Clavicle/rotation/Output",
      "type": "VEC4"
    },
    {
      "bufferView": 33,
      "componentType": 5126,
      "count": 21,
      "max": [
        0.6666666865348816
      ],
      "min": [
        0.0
      ],
      "name": "Bip001 L Clavicle/rotation/Input",
      "type": "SCALAR"
    },
    {
      "bufferView": 34,
      "componentType": 5126,
      "count": 1,
      "name": "Bip001 L Clavicle/scale/Output",
      "type": "VEC3"
    },
    {
      "bufferView": 35,
      "componentType": 5126,
      "count": 1,
      "max": [
        0.6666666865348816
      ],
      "min": [
        0.6666666865348816
      ],
      "name": "Bip001 L Clavicle/scale/Input",
      "type": "SCALAR"
    },
    {
      "bufferView": 36,
      "componentType": 5126,
      "count": 9,
      "name": "Bip001 L UpperArm/translation/Output",
      "type": "VEC3"
    },
    {
      "bufferView": 37,
      "componentType": 5126,
      "count": 9,
      "max": [
        0.6666666865348816
      ],
      "min": [
        0.0
      ],
      "name": "Bip001 L UpperArm/translation/Input",
      "type": "SCALAR"
    },
    {
      "bufferView": 38,
      "componentType": 5126,
      "count": 21,
      "name": "Bip001 L UpperArm/rotation/Output",
      "type": "VEC4"
    },
    {
      "bufferView": 39,
      "componentType": 5126,
      "count": 21,
      "max": [
        0.6666666865348816
      ],
      "min": [
        0.0
      ],
      "name": "Bip001 L UpperArm/rotation/Input",
      "type": "SCALAR"
    },
    {
      "bufferView": 40,
      "componentType": 5126,
      "count": 1,
      "name": "Bip001 L UpperArm/scale/Output",
      "type": "VEC3"
    },
    {
      "bufferView": 41,
      "componentType": 5126,
      "count": 1,
      "max": [
        0.6666666865348816
      ],
      "min": [
        0.6666666865348816
      ],
      "name": "Bip001 L UpperArm/scale/Input",
      "type": "SCALAR"
    },
    {
      "bufferView": 42,
      "componentType": 5126,
      "count": 9,
      "name": "Bip001 L Forearm/translation/Output",
      "type": "VEC3"
    },
    {
      "bufferView": 43,
      "componentType": 5126,
      "count": 9,
      "max": [
        0.6000000238418579
      ],
      "min": [
        0.13333334028720856
      ],
      "name": "Bip001 L Forearm/translation/Input",
      "type": "SCALAR"
    },
    {
      "bufferView": 44,
      "componentType": 5126,
      "count": 21,
      "name": "Bip001 L Forearm/rotation/Output",
      "type": "VEC4"
    },
    {
      "bufferView": 45,
      "componentType": 5126,
      "count": 21,
      "max": [
        0.6666666865348816
      ],
      "min": [
        0.0
      ],
      "name": "Bip001 L Forearm/rotation/Input",
      "type": "SCALAR"
    },
    {
      "bufferView": 46,
      "componentType": 5126,
      "count": 1,
      "name": "Bip001 L Forearm/scale/Output",
      "type": "VEC3"
    },
    {
      "bufferView": 47,
      "componentType": 5126,
      "count": 1,
      "max": [
        0.6666666865348816
      ],
      "min": [
        0.6666666865348816
      ],
      "name": "Bip001 L Forearm/scale/Input",
      "type": "SCALAR"
    },
    {
      "bufferView": 48,
      "componentType": 5126,
      "count": 13,
      "name": "Bip001 L Hand/translation/Output",
      "type": "VEC3"
    },
    {
      "bufferView": 49,
      "componentType": 5126,
      "count": 13,
      "max": [
        0.6666666865348816
      ],
      "min": [
        0.0
      ],
      "name": "Bip001 L Hand/translation/Input",
      "type": "SCALAR"
    },
    {
      "bufferView": 50,
      "componentType": 5126,
      "count": 21,
      "name": "Bip001 L Hand/rotation/Output",
      "type": "VEC4"
    },
    {
      "bufferView": 51,
      "componentType": 5126,
      "count": 21,
      "max": [
        0.6666666865348816
      ],
      "min": [
        0.0
      ],
      "name": "Bip001 L Hand/rotation/Input",
      "type": "SCALAR"
    },
    {
      "bufferView": 52,
      "componentType": 5126,
      "count": 1,
      "name": "Bip001 L Hand/scale/Output",
      "type": "VEC3"
    },
    {
      "bufferView": 53,
      "componentType": 5126,
      "count": 1,
      "max": [
        0.6666666865348816
      ],
      "min": [
        0.6666666865348816
      ],
      "name": "Bip001 L Hand/scale/Input",
      "type": "SCALAR"
    },
    {
      "bufferView": 54,
      "componentType": 5126,
      "count": 21,
      "name": "Bip001 R Clavicle/translation/Output",
      "type": "VEC3"
    },
    {
      "bufferView": 55,
      "componentType": 5126,
      "count": 21,
      "max": [
        0.6666666865348816
      ],
      "min": [
        0.0
      ],
      "name": "Bip001 R Clavicle/translation/Input",
      "type": "SCALAR"
    },
    {
      "bufferView": 56,
      "componentType": 5126,
      "count": 21,
      "name": "Bip001 R Clavicle/rotation/Output",
      "type": "VEC4"
    },
    {
      "bufferView": 57,
      "componentType": 5126,
      "count": 21,
      "max": [
        0.6666666865348816
      ],
      "min": [
        0.0
      ],
      "name": "Bip001 R Clavicle/rotation/Input",
      "type": "SCALAR"
    },
    {
      "bufferView": 58,
      "componentType": 5126,
      "count": 1,
      "name": "Bip001 R Clavicle/scale/Output",
      "type": "VEC3"
    },
    {
      "bufferView": 59,
      "componentType": 5126,
      "count": 1,
      "max": [
        0.6666666865348816
      ],
      "min": [
        0.6666666865348816
      ],
      "name": "Bip001 R Clavicle/scale/Input",
      "type": "SCALAR"
    },
    {
      "bufferView": 60,
      "componentType": 5126,
      "count": 6,
      "name": "Bip001 R UpperArm/translation/Output",
      "type": "VEC3"
    },
    {
      "bufferView": 61,
      "componentType": 5126,
      "count": 6,
      "max": [
        0.5333333611488342
      ],
      "min": [
        0.03333333507180214
      ],
      "name": "Bip001 R UpperArm/translation/Input",
      "type": "SCALAR"
    },
    {
      "bufferView": 62,
      "componentType": 5126,
      "count": 21,
      "name": "Bip001 R UpperArm/rotation/Output",
      "type": "VEC4"
    },
    {
      "bufferView": 63,
      "componentType": 5126,
      "count": 21,
      "max": [
        0.6666666865348816
      ],
      "min": [
        0.0
      ],
      "name": "Bip001 R UpperArm/rotation/Input",
      "type": "SCALAR"
    },
    {
      "bufferView": 64,
      "componentType": 5126,
      "count": 1,
      "name": "Bip001 R UpperArm/scale/Output",
      "type": "VEC3"
    },
    {
      "bufferView": 65,
      "componentType": 5126,
      "count": 1,
      "max": [
        0.6666666865348816
      ],
      "min": [
        0.6666666865348816
      ],
      "name": "Bip001 R UpperArm/scale/Input",
      "type": "SCALAR"
    },
    {
      "bufferView": 66,
      "componentType": 5126,
      "count": 11,
      "name": "Bip001 R Forearm/translation/Output",
      "type": "VEC3"
    },
    {
      "bufferView": 67,
      "componentType": 5126,
      "count": 11,
      "max": [
        0.6000000238418579
      ],
      "min": [
        0.0
      ],
      "name": "Bip001 R Forearm/translation/Input",
      "type": "SCALAR"
    },
    {
      "bufferView": 68,
      "componentType": 5126,
      "count": 21,
      "name": "Bip001 R Forearm/rotation/Output",
      "type": "VEC4"
    },
    {
      "bufferView": 69,
      "componentType": 5126,
      "count": 21,
      "max": [
        0.6666666865348816
      ],
      "min": [
        0.0
      ],
      "name": "Bip001 R Forearm/rotation/Input",
      "type": "SCALAR"
    },
    {
      "bufferView": 70,
      "componentType": 5126,
      "count": 1,
      "name": "Bip001 R Forearm/scale/Output",
      "type": "VEC3"
    },
    {
      "bufferView": 71,
      "componentType": 5126,
      "count": 1,
      "max": [
        0.6666666865348816
      ],
      "min": [
        0.6666666865348816
      ],
      "name": "Bip001 R Forearm/scale/Input",
      "type": "SCALAR"
    },
    {
      "bufferView": 72,
      "componentType": 5126,
      "count": 8,
      "name": "Bip001 R Hand/translation/Output",
      "type": "VEC3"
    },
    {
      "bufferView": 73,
      "componentType": 5126,
      "count": 8,
      "max": [
        0.5666666626930237
      ],
      "min": [
        0.13333334028720856
      ],
      "name": "Bip001 R Hand/translation/Input",
      "type": "SCALAR"
    },
    {
      "bufferView": 74,
      "componentType": 5126,
      "count": 21,
      "name": "Bip001 R Hand/rotation/Output",
      "type": "VEC4"
    },
    {
      "bufferView": 75,
      "componentType": 5126,
      "count": 21,
      "max": [
        0.6666666865348816
      ],
      "min": [
        0.0
      ],
      "name": "Bip001 R Hand/rotation/Input",
      "type": "SCALAR"
    },
    {
      "bufferView": 76,
      "componentType": 5126,
      "count": 1,
      "name": "Bip001 R Hand/scale/Output",
      "type": "VEC3"
    },
    {
      "bufferView": 77,
      "componentType": 5126,
      "count": 1,
      "max": [
        0.6666666865348816
      ],
      "min": [
        0.6666666865348816
      ],
      "name": "Bip001 R Hand/scale/Input",
      "type": "SCALAR"
    },
    {
      "bufferView": 78,
      "componentType": 5126,
      "count": 3,
      "name": "Bip001 Head/translation/Output",
      "type": "VEC3"
    },
    {
      "bufferView": 79,
      "componentType": 5126,
      "count": 3,
      "max": [
        0.23333333432674408
      ],
      "min": [
        0.06666667014360428
      ],
      "name": "Bip001 Head/translation/Input",
      "type": "SCALAR"
    },
    {
      "bufferView": 80,
      "componentType": 5126,
      "count": 21,
      "name": "Bip001 Head/rotation/Output",
      "type": "VEC4"
    },
    {
      "bufferView": 81,
      "componentType": 5126,
      "count": 21,
      "max": [
        0.6666666865348816
      ],
      "min": [
        0.0
      ],
      "name": "Bip001 Head/rotation/Input",
      "type": "SCALAR"
    },
    {
      "bufferView": 82,
      "componentType": 5126,
      "count": 1,
      "name": "Bip001 Head/scale/Output",
      "type": "VEC3"
    },
    {
      "bufferView": 83,
      "componentType": 5126,
      "count": 1,
      "max": [
        0.6666666865348816
      ],
      "min": [
        0.6666666865348816
      ],
      "name": "Bip001 Head/scale/Input",
      "type": "SCALAR"
    },
    {
      "bufferView": 84,
      "componentType": 5126,
      "count": 21,
      "name": "Bip001 L Thigh/translation/Output",
      "type": "VEC3"
    },
    {
      "bufferView": 85,
      "componentType": 5126,
      "count": 21,
      "max": [
        0.6666666865348816
      ],
      "min": [
        0.0
      ],
      "name": "Bip001 L Thigh/translation/Input",
      "type": "SCALAR"
    },
    {
      "bufferView": 86,
      "componentType": 5126,
      "count": 21,
      "name": "Bip001 L Thigh/rotation/Output",
      "type": "VEC4"
    },
    {
      "bufferView": 87,
      "componentType": 5126,
      "count": 21,
      "max": [
        0.6666666865348816
      ],
      "min": [
        0.0
      ],
      "name": "Bip001 L Thigh/rotation/Input",
      "type": "SCALAR"
    },
    {
      "bufferView": 88,
      "componentType": 5126,
      "count": 1,
      "name": "Bip001 L Thigh/scale/Output",
      "type": "VEC3"
    },
    {
      "bufferView": 89,
      "componentType": 5126,
      "count": 1,
      "max": [
        0.6666666865348816
      ],
      "min": [
        0.6666666865348816
      ],
      "name": "Bip001 L Thigh/scale/Input",
      "type": "SCALAR"
    },
    {
      "bufferView": 90,
      "componentType": 5126,
      "count": 5,
      "name": "Bip001 L Calf/translation/Output",
      "type": "VEC3"
    },
    {
      "bufferView": 91,
      "componentType": 5126,
      "count": 5,
      "max": [
        0.6666666865348816
      ],
      "min": [
        0.23333333432674408
      ],
      "name": "Bip001 L Calf/translation/Input",
      "type": "SCALAR"
    },
    {
      "bufferView": 92,
      "componentType": 5126,
      "count": 21,
      "name": "Bip001 L Calf/rotation/Output",
      "type": "VEC4"
    },
    {
      "bufferView": 93,
      "componentType": 5126,
      "count": 21,
      "max": [
        0.6666666865348816
      ],
      "min": [
        0.0
      ],
      "name": "Bip001 L Calf/rotation/Input",
      "type": "SCALAR"
    },
    {
      "bufferView": 94,
      "componentType": 5126,
      "count": 1,
      "name": "Bip001 L Calf/scale/Output",
      "type": "VEC3"
    },
    {
      "bufferView": 95,
      "componentType": 5126,
      "count": 1,
      "max": [
        0.6666666865348816
      ],
      "min": [
        0.6666666865348816
      ],
      "name": "Bip001 L Calf/scale/Input",
      "type": "SCALAR"
    },
    {
      "bufferView": 96,
      "componentType": 5126,
      "count": 9,
      "name": "Bip001 L Foot/translation/Output",
      "type": "VEC3"
    },
    {
      "bufferView": 97,
      "componentType": 5126,
      "count": 9,
      "max": [
        0.6666666865348816
      ],
      "min": [
        0.0
      ],
      "name": "Bip001 L Foot/translation/Input",
      "type": "SCALAR"
    },
    {
      "bufferView": 98,
      "componentType": 5126,
      "count": 21,
      "name": "Bip001 L Foot/rotation/Output",
      "type": "VEC4"
    },
    {
      "bufferView": 99,
      "componentType": 5126,
      "count": 21,
      "max": [
        0.6666666865348816
      ],
      "min": [
        0.0
      ],
      "name": "Bip001 L Foot/rotation/Input",
      "type": "SCALAR"
    },
    {
      "bufferView": 100,
      "componentType": 5126,
      "count": 1,
      "name": "Bip001 L Foot/scale/Output",
      "type": "VEC3"
    },
    {
      "bufferView": 101,
      "componentType": 5126,
      "count": 1,
      "max": [
        0.6666666865348816
      ],
      "min": [
        0.6666666865348816
      ],
      "name": "Bip001 L Foot/scale/Input",
      "type": "SCALAR"
    },
    {
      "bufferView": 102,
      "componentType": 5126,
      "count": 3,
      "name": "Bip001 L Toe0/translation/Output",
      "type": "VEC3"
    },
    {
      "bufferView": 103,
      "componentType": 5126,
      "count": 3,
      "max": [
        0.46666666865348816
      ],
      "min": [
        0.23333333432674408
      ],
      "name": "Bip001 L Toe0/translation/Input",
      "type": "SCALAR"
    },
    {
      "bufferView": 104,
      "componentType": 5126,
      "count": 17,
      "name": "Bip001 L Toe0/rotation/Output",
      "type": "VEC4"
    },
    {
      "bufferView": 105,
      "componentType": 5126,
      "count": 17,
      "max": [
        0.6666666865348816
      ],
      "min": [
        0.10000000149011612
      ],
      "name": "Bip001 L Toe0/rotation/Input",
      "type": "SCALAR"
    },
    {
      "bufferView": 106,
      "componentType": 5126,
      "count": 1,
      "name": "Bip001 L Toe0/scale/Output",
      "type": "VEC3"
    },
    {
      "bufferView": 107,
      "componentType": 5126,
      "count": 1,
      "max": [
        0.6666666865348816
      ],
      "min": [
        0.6666666865348816
      ],
      "name": "Bip001 L Toe0/scale/Input",
      "type": "SCALAR"
    },
    {
      "bufferView": 108,
      "componentType": 5126,
      "count": 21,
      "name": "Bip001 R Thigh/translation/Output",
      "type": "VEC3"
    },
    {
      "bufferView": 109,
      "componentType": 5126,
      "count": 21,
      "max": [
        0.6666666865348816
      ],
      "min": [
        0.0
      ],
      "name": "Bip001 R Thigh/translation/Input",
      "type": "SCALAR"
    },
    {
      "bufferView": 110,
      "componentType": 5126,
      "count": 21,
      "name": "Bip001 R Thigh/rotation/Output",
      "type": "VEC4"
    },
    {
      "bufferView": 111,
      "componentType": 5126,
      "count": 21,
      "max": [
        0.6666666865348816
      ],
      "min": [
        0.0
      ],
      "name": "Bip001 R Thigh/rotation/Input",
      "type": "SCALAR"
    },
    {
      "bufferView": 112,
      "componentType": 5126,
      "count": 1,
      "name": "Bip001 R Thigh/scale/Output",
      "type": "VEC3"
    },
    {
      "bufferView": 113,
      "componentType": 5126,
      "count": 1,
      "max": [
        0.6666666865348816
      ],
      "min": [
        0.6666666865348816
      ],
      "name": "Bip001 R Thigh/scale/Input",
      "type": "SCALAR"
    },
    {
      "bufferView": 114,
      "componentType": 5126,
      "count": 2,
      "name": "Bip001 R Calf/translation/Output",
      "type": "VEC3"
    },
    {
      "bufferView": 115,
      "componentType": 5126,
      "count": 2,
      "max": [
        0.20000000298023224
      ],
      "min": [
        0.1666666716337204
      ],
      "name": "Bip001 R Calf/translation/Input",
      "type": "SCALAR"
    },
    {
      "bufferView": 116,
      "componentType": 5126,
      "count": 21,
      "name": "Bip001 R Calf/rotation/Output",
      "type": "VEC4"
    },
    {
      "bufferView": 117,
      "componentType": 5126,
      "count": 21,
      "max": [
        0.6666666865348816
      ],
      "min": [
        0.0
      ],
      "name": "Bip001 R Calf/rotation/Input",
      "type": "SCALAR"
    },
    {
      "bufferView": 118,
      "componentType": 5126,
      "count": 1,
      "name": "Bip001 R Calf/scale/Output",
      "type": "VEC3"
    },
    {
      "bufferView": 119,
      "componentType": 5126,
      "count": 1,
      "max": [
        0.6666666865348816
      ],
      "min": [
        0.6666666865348816
      ],
      "name": "Bip001 R Calf/scale/Input",
      "type": "SCALAR"
    },
    {
      "bufferView": 120,
      "componentType": 5126,
      "count": 2,
      "name": "Bip001 R Foot/translation/Output",
      "type": "VEC3"
    },
    {
      "bufferView": 121,
      "componentType": 5126,
      "count": 2,
      "max": [
        0.6666666865348816
      ],
      "min": [
        0.10000000149011612
      ],
      "name": "Bip001 R Foot/translation/Input",
      "type": "SCALAR"
    },
    {
      "bufferView": 122,
      "componentType": 5126,
      "count": 21,
      "name": "Bip001 R Foot/rotation/Output",
      "type": "VEC4"
    },
    {
      "bufferView": 123,
      "componentType": 5126,
      "count": 21,
      "max": [
        0.6666666865348816
      ],
      "min": [
        0.0
      ],
      "name": "Bip001 R Foot/rotation/Input",
      "type": "SCALAR"
    },
    {
      "bufferView": 124,
      "componentType": 5126,
      "count": 1,
      "name": "Bip001 R Foot/scale/Output",
      "type": "VEC3"
    },
    {
      "bufferView": 125,
      "componentType": 5126,
      "count": 1,
      "max": [
        0.6666666865348816
      ],
      "min": [
        0.6666666865348816
      ],
      "name": "Bip001 R Foot/scale/Input",
      "type": "SCALAR"
    },
    {
      "bufferView": 126,
      "componentType": 5126,
      "count": 1,
      "name": "Bip001 R Toe0/translation/Output",
      "type": "VEC3"
    },
    {
      "bufferView": 127,
      "componentType": 5126,
      "count": 1,
      "max": [
        0.6666666865348816
      ],
      "min": [
        0.6666666865348816
      ],
      "name": "Bip001 R Toe0/translation/Input",
      "type": "SCALAR"
    },
    {
      "bufferView": 128,
      "componentType": 5126,
      "count": 21,
      "name": "Bip001 R Toe0/rotation/Output",
      "type": "VEC4"
    },
    {
      "bufferView": 129,
      "componentType": 5126,
      "count": 21,
      "max": [
        0.6666666865348816
      ],
      "min": [
        0.0
      ],
      "name": "Bip001 R Toe0/rotation/Input",
      "type": "SCALAR"
    },
    {
      "bufferView": 130,
      "componentType": 5126,
      "count": 1,
      "name": "Bip001 R Toe0/scale/Output",
      "type": "VEC3"
    },
    {
      "bufferView": 131,
      "componentType": 5126,
      "count": 1,
      "max": [
        0.6666666865348816
      ],
      "min": [
        0.6666666865348816
      ],
      "name": "Bip001 R Toe0/scale/Input",
      "type": "SCALAR"
    }
  ],
  "animations": [
    {
      "channels": [
        {
          "sampler": 0,
          "target": {
            "node": 0,
            "path": "translation"
          }
        },
        {
          "sampler": 1,
          "target": {
            "node": 0,
            "path": "rotation"
          }
        },
        {
          "sampler": 2,
          "target": {
            "node": 0,
            "path": "scale"
          }
        },
        {
          "sampler": 3,
          "target": {
            "node": 1,
            "path": "translation"
          }
        },
        {
          "sampler": 4,
          "target": {
            "node": 1,
            "path": "rotation"
          }
        },
        {
          "sampler": 5,
          "target": {
            "node": 1,
            "path": "scale"
          }
        },
        {
          "sampler": 6,
          "target": {
            "node": 2,
            "path": "translation"
          }
        },
        {
          "sampler": 7,
          "target": {
            "node": 2,
            "path": "rotation"
          }
        },
        {
          "sampler": 8,
          "target": {
            "node": 2,
            "path": "scale"
          }
        },
        {
          "sampler": 9,
          "target": {
            "node": 3,
            "path": "translation"
          }
        },
        {
          "sampler": 10,
          "target": {
            "node": 3,
            "path": "rotation"
          }
        },
        {
          "sampler": 11,
          "target": {
            "node": 3,
            "path": "scale"
          }
        },
        {
          "sampler": 12,
          "target": {
            "node": 4,
            "path": "translation"
          }
        },
        {
          "sampler": 13,
          "target": {
            "node": 4,
            "path": "rotation"
          }
        },
        {
          "sampler": 14,
          "target": {
            "node": 4,
            "path": "scale"
          }
        },
        {
          "sampler": 15,
          "target": {
            "node": 5,
            "path": "translation"
          }
        },
        {
          "sampler": 16,
          "target": {
            "node": 5,
            "path": "rotation"
          }
        },
        {
          "sampler": 17,
          "target": {
            "node": 5,
            "path": "scale"
          }
        },
        {
          "sampler": 18,
          "target": {
            "node": 6,
            "path": "translation"
          }
        },
        {
          "sampler": 19,
          "target": {
            "node": 6,
            "path": "rotation"
          }
        },
        {
          "sampler": 20,
          "target": {
            "node": 6,
            "path": "scale"
          }
        },
        {
          "sampler": 21,
          "target": {
            "node": 7,
            "path": "translation"
          }
        },
        {
          "sampler": 22,
          "target": {
            "node": 7,
            "path": "rotation"
          }
        },
        {
          "sampler": 23,
          "target": {
            "node": 7,
            "path": "scale"
          }
        },
        {
          "sampler": 24,
          "target": {
            "node": 8,
            "path": "translation"
          }
        },
        {
          "sampler": 25,
          "target": {
            "node": 8,
            "path": "rotation"
          }
        },
        {
          "sampler": 26,
          "target": {
            "node": 8,
            "path": "scale"
          }
        },
        {
          "sampler": 27,
          "target": {
            "node": 9,
            "path": "translation"
          }
        },
        {
          "sampler": 28,
          "target": {
            "node": 9,
            "path": "rotation"
          }
        },
        {
          "sampler": 29,
          "target": {
            "node": 9,
            "path": "scale"
          }
        },
        {
          "sampler": 30,
          "target": {
            "node": 10,
            "path": "translation"
          }
        },
        {
          "sampler": 31,
          "target": {
            "node": 10,
            "path": "rotation"
          }
        },
        {
          "sampler": 32,
          "target": {
            "node": 10,
            "path": "scale"
          }
        },
        {
          "sampler": 33,
          "target": {
            "node": 11,
            "path": "translation"
          }
        },
        {
          "sampler": 34,
          "target": {
            "node": 11,
            "path": "rotation"
          }
        },
        {
          "sampler": 35,
          "target": {
            "node": 11,
            "path": "scale"
          }
        },
        {
          "sampler": 36,
          "target": {
            "node": 12,
            "path": "translation"
          }
        },
        {
          "sampler": 37,
          "target": {
            "node": 12,
            "path": "rotation"
          }
        },
        {
          "sampler": 38,
          "target": {
            "node": 12,
            "path": "scale"
          }
        },
        {
          "sampler": 39,
          "target": {
            "node": 13,
            "path": "translation"
          }
        },
        {
          "sampler": 40,
          "target": {
            "node": 13,
            "path": "rotation"
          }
        },
        {
          "sampler": 41,
          "target": {
            "node": 13,
            "path": "scale"
          }
        },
        {
          "sampler": 42,
          "target": {
            "node": 14,
            "path": "translation"
          }
        },
        {
          "sampler": 43,
          "target": {
            "node": 14,
            "path": "rotation"
          }
        },
        {
          "sampler": 44,
          "target": {
            "node": 14,
            "path": "scale"
          }
        },
        {
          "sampler": 45,
          "target": {
            "node": 15,
            "path": "translation"
          }
        },
        {
          "sampler": 46,
          "target": {
            "node": 15,
            "path": "rotation"
          }
        },
        {
          "sampler": 47,
          "target": {
            "node": 15,
            "path": "scale"
          }
        },
        {
          "sampler": 48,
          "target": {
            "node": 16,
            "path": "translation"
          }
        },
        {
          "sampler": 49,
          "target": {
            "node": 16,
            "path": "rotation"
          }
        },
        {
          "sampler": 50,
          "target": {
            "node": 16,
            "path": "scale"
          }
        },
        {
          "sampler": 51,
          "target": {
            "node": 17,
            "path": "translation"
          }
        },
        {
          "sampler": 52,
          "target": {
            "node": 17,
            "path": "rotation"
          }
        },
        {
          "sampler": 53,
          "target": {
            "node": 17,
            "path": "scale"
          }
        },
        {
          "sampler": 54,
          "target": {
            "node": 18,
            "path": "translation"
          }
        },
        {
          "sampler": 55,
          "target": {
            "node": 18,
            "path": "rotation"
          }
        },
        {
          "sampler": 56,
          "target": {
            "node": 18,
            "path": "scale"
          }
        },
        {
          "sampler": 57,
          "target": {
            "node": 19,
            "path": "translation"
          }
        },
        {
          "sampler": 58,
          "target": {
            "node": 19,
            "path": "rotation"
          }
        },
        {
          "sampler": 59,
          "target": {
            "node": 19,
            "path": "scale"
          }
        },
        {
          "sampler": 60,
          "target": {
            "node": 20,
            "path": "translation"
          }
        },
        {
          "sampler": 61,
          "target": {
            "node": 20,
            "path": "rotation"
          }
        },
        {
          "sampler": 62,
          "target": {
            "node": 20,
            "path": "scale"
          }
        },
        {
          "sampler": 63,
          "target": {
            "node": 21,
            "path": "translation"
          }
        },
        {
          "sampler": 64,
          "target": {
            "node": 21,
            "path": "rotation"
          }
        },
        {
          "sampler": 65,
          "target": {
            "node": 21,
            "path": "scale"
          }
        }
      ],
      "name": "Take 001",
      "samplers": [
        {
          "input": 1,
          "output": 0
        },
        {
          "input": 3,
          "output": 2
        },
        {
          "input": 5,
          "output": 4
        },
        {
          "input": 7,
          "output": 6
        },
        {
          "input": 9,
          "output": 8
        },
        {
          "input": 11,
          "output": 10
        },
        {
          "input": 13,
          "output": 12
        },
        {
          "input": 15,
          "output": 14
        },
        {
          "input": 17,
          "output": 16
        },
        {
          "input": 19,
          "output": 18
        },
        {
          "input": 21,
          "output": 20
        },
        {
          "input": 23,
          "output": 22
        },
        {
          "input": 25,
          "output": 24
        },
        {
          "input": 27,
          "output": 26
        },
        {
          "input": 29,
          "output": 28
        },
        {
          "input": 31,
          "output": 30
        },
        {
          "input": 33,
          "output": 32
        },
        {
          "input": 35,
          "output": 34
        },
        {
          "input": 37,
          "output": 36
        },
        {
          "input": 39,
          "output": 38
        },
        {
          "input": 41,
          "output": 40
        },
        {
          "input": 43,
          "output": 42
        },
        {
          "input": 45,
          "output": 44
        },
        {
          "input": 47,
          "output": 46
        },
        {
          "input": 49,
          "output": 48
        },
        {
          "input": 51,
          "output": 50
        },
        {
          "input": 53,
          "output": 52
        },
        {
          "input": 55,
          "output": 54
        },
        {
          "input": 57,
          "output": 56
        },
        {
          "input": 59,
          "output": 58
        },
        {
          "input": 61,
          "output": 60
        },
        {
          "input": 63,
          "output": 62
        },
        {
          "input": 65,
          "output": 64
        },
        {
          "input": 67,
          "output": 66
        },
        {
          "input": 69,
          "output": 68
        },
        {
          "input": 71,
          "output": 70
        },
        {
          "input": 73,
          "output": 72
        },
        {
          "input": 75,
          "output": 74
        },
        {
          "input": 77,
          "output": 76
        },
        {
          "input": 79,
          "output": 78
        },
        {
          "input": 81,
          "output": 80
        },
        {
          "input": 83,
          "output": 82
        },
        {
          "input": 85,
          "output": 84
        },
        {
          "input": 87,
          "output": 86
        },
        {
          "input": 89,
          "output": 88
        },
        {
          "input": 91,
          "output": 90
        },
        {
          "input": 93,
          "output": 92
        },
        {
          "input": 95,
          "output": 94
        },
        {
          "input": 97,
          "output": 96
        },
        {
          "input": 99,
          "output": 98
        },
        {
          "input": 101,
          "output": 100
        },
        {
          "input": 103,
          "output": 102
        },
        {
          "input": 105,
          "output": 104
        },
        {
          "input": 107,
          "output": 106
        },
        {
          "input": 109,
          "output": 108
        },
        {
          "input": 111,
          "output": 110
        },
        {
          "input": 113,
          "output": 112
        },
        {
          "input": 115,
          "output": 114
        },
        {
          "input": 117,
          "output": 116
        },
        {
          "input": 119,
          "output": 118
        },
        {
          "input": 121,
          "output": 120
        },
        {
          "input": 123,
          "output": 122
        },
        {
          "input": 125,
          "output": 124
        },
        {
          "input": 127,
          "output": 126
        },
        {
          "input": 129,
          "output": 128
        },
        {
          "input": 131,
          "output": 130
        }
      ]
    }
  ],
  "asset": {
    "copyright": "Copyright (c) 2018-2020 Chukong Technologies Inc.",
    "generator": "FBX-glTF-conv",
    "version": "2.0"
  },
  "bufferViews": [
    {
      "buffer": 0,
      "byteLength": 252
    },
    {
      "buffer": 0,
      "byteLength": 84,
      "byteOffset": 252
    },
    {
      "buffer": 0,
      "byteLength": 336,
      "byteOffset": 336
    },
    {
      "buffer": 0,
      "byteLength": 84,
      "byteOffset": 672
    },
    {
      "buffer": 0,
      "byteLength": 12,
      "byteOffset": 756
    },
    {
      "buffer": 0,
      "byteLength": 4,
      "byteOffset": 768
    },
    {
      "buffer": 0,
      "byteLength": 12,
      "byteOffset": 772
    },
    {
      "buffer": 0,
      "byteLength": 4,
      "byteOffset": 784
    },
    {
      "buffer": 0,
      "byteLength": 16,
      "byteOffset": 788
    },
    {
      "buffer": 0,
      "byteLength": 4,
      "byteOffset": 804
    },
    {
      "buffer": 0,
      "byteLength": 12,
      "byteOffset": 808
    },
    {
      "buffer": 0,
      "byteLength": 4,
      "byteOffset": 820
    },
    {
      "buffer": 0,
      "byteLength": 252,
      "byteOffset": 824
    },
    {
      "buffer": 0,
      "byteLength": 84,
      "byteOffset": 1076
    },
    {
      "buffer": 0,
      "byteLength": 336,
      "byteOffset": 1160
    },
    {
      "buffer": 0,
      "byteLength": 84,
      "byteOffset": 1496
    },
    {
      "buffer": 0,
      "byteLength": 12,
      "byteOffset": 1580
    },
    {
      "buffer": 0,
      "byteLength": 4,
      "byteOffset": 1592
    },
    {
      "buffer": 0,
      "byteLength": 252,
      "byteOffset": 1596
    },
    {
      "buffer": 0,
      "byteLength": 84,
      "byteOffset": 1848
    },
    {
      "buffer": 0,
      "byteLength": 336,
      "byteOffset": 1932
    },
    {
      "buffer": 0,
      "byteLength": 84,
      "byteOffset": 2268
    },
    {
      "buffer": 0,
      "byteLength": 12,
      "byteOffset": 2352
    },
    {
      "buffer": 0,
      "byteLength": 4,
      "byteOffset": 2364
    },
    {
      "buffer": 0,
      "byteLength": 228,
      "byteOffset": 2368
    },
    {
      "buffer": 0,
      "byteLength": 76,
      "byteOffset": 2596
    },
    {
      "buffer": 0,
      "byteLength": 336,
      "byteOffset": 2672
    },
    {
      "buffer": 0,
      "byteLength": 84,
      "byteOffset": 3008
    },
    {
      "buffer": 0,
      "byteLength": 12,
      "byteOffset": 3092
    },
    {
      "buffer": 0,
      "byteLength": 4,
      "byteOffset": 3104
    },
    {
      "buffer": 0,
      "byteLength": 252,
      "byteOffset": 3108
    },
    {
      "buffer": 0,
      "byteLength": 84,
      "byteOffset": 3360
    },
    {
      "buffer": 0,
      "byteLength": 336,
      "byteOffset": 3444
    },
    {
      "buffer": 0,
      "byteLength": 84,
      "byteOffset": 3780
    },
    {
      "buffer": 0,
      "byteLength": 12,
      "byteOffset": 3864
    },
    {
      "buffer": 0,
      "byteLength": 4,
      "byteOffset": 3876
    },
    {
      "buffer": 0,
      "byteLength": 108,
      "byteOffset": 3880
    },
    {
      "buffer": 0,
      "byteLength": 36,
      "byteOffset": 3988
    },
    {
      "buffer": 0,
      "byteLength": 336,
      "byteOffset": 4024
    },
    {
      "buffer": 0,
      "byteLength": 84,
      "byteOffset": 4360
    },
    {
      "buffer": 0,
      "byteLength": 12,
      "byteOffset": 4444
    },
    {
      "buffer": 0,
      "byteLength": 4,
      "byteOffset": 4456
    },
    {
      "buffer": 0,
      "byteLength": 108,
      "byteOffset": 4460
    },
    {
      "buffer": 0,
      "byteLength": 36,
      "byteOffset": 4568
    },
    {
      "buffer": 0,
      "byteLength": 336,
      "byteOffset": 4604
    },
    {
      "buffer": 0,
      "byteLength": 84,
      "byteOffset": 4940
    },
    {
      "buffer": 0,
      "byteLength": 12,
      "byteOffset": 5024
    },
    {
      "buffer": 0,
      "byteLength": 4,
      "byteOffset": 5036
    },
    {
      "buffer": 0,
      "byteLength": 156,
      "byteOffset": 5040
    },
    {
      "buffer": 0,
      "byteLength": 52,
      "byteOffset": 5196
    },
    {
      "buffer": 0,
      "byteLength": 336,
      "byteOffset": 5248
    },
    {
      "buffer": 0,
      "byteLength": 84,
      "byteOffset": 5584
    },
    {
      "buffer": 0,
      "byteLength": 12,
      "byteOffset": 5668
    },
    {
      "buffer": 0,
      "byteLength": 4,
      "byteOffset": 5680
    },
    {
      "buffer": 0,
      "byteLength": 252,
      "byteOffset": 5684
    },
    {
      "buffer": 0,
      "byteLength": 84,
      "byteOffset": 5936
    },
    {
      "buffer": 0,
      "byteLength": 336,
      "byteOffset": 6020
    },
    {
      "buffer": 0,
      "byteLength": 84,
      "byteOffset": 6356
    },
    {
      "buffer": 0,
      "byteLength": 12,
      "byteOffset": 6440
    },
    {
      "buffer": 0,
      "byteLength": 4,
      "byteOffset": 6452
    },
    {
      "buffer": 0,
      "byteLength": 72,
      "byteOffset": 6456
    },
    {
      "buffer": 0,
      "byteLength": 24,
      "byteOffset": 6528
    },
    {
      "buffer": 0,
      "byteLength": 336,
      "byteOffset": 6552
    },
    {
      "buffer": 0,
      "byteLength": 84,
      "byteOffset": 6888
    },
    {
      "buffer": 0,
      "byteLength": 12,
      "byteOffset": 6972
    },
    {
      "buffer": 0,
      "byteLength": 4,
      "byteOffset": 6984
    },
    {
      "buffer": 0,
      "byteLength": 132,
      "byteOffset": 6988
    },
    {
      "buffer": 0,
      "byteLength": 44,
      "byteOffset": 7120
    },
    {
      "buffer": 0,
      "byteLength": 336,
      "byteOffset": 7164
    },
    {
      "buffer": 0,
      "byteLength": 84,
      "byteOffset": 7500
    },
    {
      "buffer": 0,
      "byteLength": 12,
      "byteOffset": 7584
    },
    {
      "buffer": 0,
      "byteLength": 4,
      "byteOffset": 7596
    },
    {
      "buffer": 0,
      "byteLength": 96,
      "byteOffset": 7600
    },
    {
      "buffer": 0,
      "byteLength": 32,
      "byteOffset": 7696
    },
    {
      "buffer": 0,
      "byteLength": 336,
      "byteOffset": 7728
    },
    {
      "buffer": 0,
      "byteLength": 84,
      "byteOffset": 8064
    },
    {
      "buffer": 0,
      "byteLength": 12,
      "byteOffset": 8148
    },
    {
      "buffer": 0,
      "byteLength": 4,
      "byteOffset": 8160
    },
    {
      "buffer": 0,
      "byteLength": 36,
      "byteOffset": 8164
    },
    {
      "buffer": 0,
      "byteLength": 12,
      "byteOffset": 8200
    },
    {
      "buffer": 0,
      "byteLength": 336,
      "byteOffset": 8212
    },
    {
      "buffer": 0,
      "byteLength": 84,
      "byteOffset": 8548
    },
    {
      "buffer": 0,
      "byteLength": 12,
      "byteOffset": 8632
    },
    {
      "buffer": 0,
      "byteLength": 4,
      "byteOffset": 8644
    },
    {
      "buffer": 0,
      "byteLength": 252,
      "byteOffset": 8648
    },
    {
      "buffer": 0,
      "byteLength": 84,
      "byteOffset": 8900
    },
    {
      "buffer": 0,
      "byteLength": 336,
      "byteOffset": 8984
    },
    {
      "buffer": 0,
      "byteLength": 84,
      "byteOffset": 9320
    },
    {
      "buffer": 0,
      "byteLength": 12,
      "byteOffset": 9404
    },
    {
      "buffer": 0,
      "byteLength": 4,
      "byteOffset": 9416
    },
    {
      "buffer": 0,
      "byteLength": 60,
      "byteOffset": 9420
    },
    {
      "buffer": 0,
      "byteLength": 20,
      "byteOffset": 9480
    },
    {
      "buffer": 0,
      "byteLength": 336,
      "byteOffset": 9500
    },
    {
      "buffer": 0,
      "byteLength": 84,
      "byteOffset": 9836
    },
    {
      "buffer": 0,
      "byteLength": 12,
      "byteOffset": 9920
    },
    {
      "buffer": 0,
      "byteLength": 4,
      "byteOffset": 9932
    },
    {
      "buffer": 0,
      "byteLength": 108,
      "byteOffset": 9936
    },
    {
      "buffer": 0,
      "byteLength": 36,
      "byteOffset": 10044
    },
    {
      "buffer": 0,
      "byteLength": 336,
      "byteOffset": 10080
    },
    {
      "buffer": 0,
      "byteLength": 84,
      "byteOffset": 10416
    },
    {
      "buffer": 0,
      "byteLength": 12,
      "byteOffset": 10500
    },
    {
      "buffer": 0,
      "byteLength": 4,
      "byteOffset": 10512
    },
    {
      "buffer": 0,
      "byteLength": 36,
      "byteOffset": 10516
    },
    {
      "buffer": 0,
      "byteLength": 12,
      "byteOffset": 10552
    },
    {
      "buffer": 0,
      "byteLength": 272,
      "byteOffset": 10564
    },
    {
      "buffer": 0,
      "byteLength": 68,
      "byteOffset": 10836
    },
    {
      "buffer": 0,
      "byteLength": 12,
      "byteOffset": 10904
    },
    {
      "buffer": 0,
      "byteLength": 4,
      "byteOffset": 10916
    },
    {
      "buffer": 0,
      "byteLength": 252,
      "byteOffset": 10920
    },
    {
      "buffer": 0,
      "byteLength": 84,
      "byteOffset": 11172
    },
    {
      "buffer": 0,
      "byteLength": 336,
      "byteOffset": 11256
    },
    {
      "buffer": 0,
      "byteLength": 84,
      "byteOffset": 11592
    },
    {
      "buffer": 0,
      "byteLength": 12,
      "byteOffset": 11676
    },
    {
      "buffer": 0,
      "byteLength": 4,
      "byteOffset": 11688
    },
    {
      "buffer": 0,
      "byteLength": 24,
      "byteOffset": 11692
    },
    {
      "buffer": 0,
      "byteLength": 8,
      "byteOffset": 11716
    },
    {
      "buffer": 0,
      "byteLength": 336,
      "byteOffset": 11724
    },
    {
      "buffer": 0,
      "byteLength": 84,
      "byteOffset": 12060
    },
    {
      "buffer": 0,
      "byteLength": 12,
      "byteOffset": 12144
    },
    {
      "buffer": 0,
      "byteLength": 4,
      "byteOffset": 12156
    },
    {
      "buffer": 0,
      "byteLength": 24,
      "byteOffset": 12160
    },
    {
      "buffer": 0,
      "byteLength": 8,
      "byteOffset": 12184
    },
    {
      "buffer": 0,
      "byteLength": 336,
      "byteOffset": 12192
    },
    {
      "buffer": 0,
      "byteLength": 84,
      "byteOffset": 12528
    },
    {
      "buffer": 0,
      "byteLength": 12,
      "byteOffset": 12612
    },
    {
      "buffer": 0,
      "byteLength": 4,
      "byteOffset": 12624
    },
    {
      "buffer": 0,
      "byteLength": 12,
      "byteOffset": 12628
    },
    {
      "buffer": 0,
      "byteLength": 4,
      "byteOffset": 12640
    },
    {
      "buffer": 0,
      "byteLength": 336,
      "byteOffset": 12644
    },
    {
      "buffer": 0,
      "byteLength": 84,
      "byteOffset": 12980
    },
    {
      "buffer": 0,
      "byteLength": 12,
      "byteOffset": 13064
    },
    {
      "buffer": 0,
      "byteLength": 4,
      "byteOffset": 13076
    }
  ],
  "buffers": [
    {
      "byteLength": 13080,
      "uri": "out.bin"
    }
  ],
  "extras": {
    "FBX-glTF-conv": {
      "animationFrameRate": 30.0,
      "fbxFileHeaderInfo": {
        "creationTimeStamp": {
          "day": 12,
          "hour": 10,
          "millisecond": 688,
          "minute": 30,
          "month": 5,
          "second": 41,
          "year": 2026
        },
        "creator": "FBX SDK/FBX Plugins version 2020.3.2",
        "sceneInfo": {
          "author": "",
          "comment": "",
          "keywords": "",
          "original": {
            "applicationName": "3ds Max",
            "applicationVendor": "Autodesk",
            "applicationVersion": "2024",
            "fileName": "\\\\192.168.5.190\\Playable\\T-The War\\1.美术资源\\3D模型\\BOSS\\fbx\\原地攻击.fbx"
          },
          "revision": "",
          "subject": "",
          "title": "",
          "url": "D:\\工程项目\\test_pro\\test_pro\\HYQ_Project\\assets\\GameRes\\FBX\\Monster_boos\\原地攻击.fbx"
        }
      }
    }
  },
  "nodes": [
    {
      "children": [
        1
      ],
      "extras": {
        "FBX-glTF-conv": {
          "skeleton": {
            "skeletonType": "Root"
          }
        }
      },
      "name": "Bip001",
      "rotation": [
        0.38839057087898254,
        0.6546034216880798,
        0.5730252861976624,
        -0.30379125475883484
      ],
      "translation": [
        0.007509647402912378,
        0.8089466691017151,
        -0.007635587360709906
      ]
    },
    {
      "children": [
        2
      ],
      "extras": {
        "FBX-glTF-conv": {
          "skeleton": {
            "skeletonType": "LimbNode"
          }
        }
      },
      "name": "Bip001 Pelvis",
      "rotation": [
        -0.5,
        -0.5,
        -0.4999992847442627,
        0.5000007152557373
      ]
    },
    {
      "children": [
        3,
        14,
        18
      ],
      "extras": {
        "FBX-glTF-conv": {
          "skeleton": {
            "skeletonType": "LimbNode"
          }
        }
      },
      "name": "Bip001 Spine",
      "rotation": [
        -2.0309466890466865e-06,
        -6.633667339883687e-07,
        -0.051665086299180984,
        0.9986644387245178
      ],
      "translation": [
        0.1204598993062973,
        -0.00020380019850563258,
        1.9073486612342094e-07
      ]
    },
    {
      "children": [
        4
      ],
      "extras": {
        "FBX-glTF-conv": {
          "skeleton": {
            "skeletonType": "LimbNode"
          }
        }
      },
      "name": "Bip001 Spine1",
      "rotation": [
        0.012828940525650978,
        -0.03524632379412651,
        0.34254226088523865,
        0.9387533664703369
      ],
      "translation": [
        0.25758445262908936,
        -0.00021558761363849044,
        0.0
      ]
    },
    {
      "children": [
        5,
        9,
        13
      ],
      "extras": {
        "FBX-glTF-conv": {
          "skeleton": {
            "skeletonType": "LimbNode"
          }
        }
      },
      "name": "Bip001 Neck",
      "rotation": [
        0.14050255715847015,
        -0.1734171211719513,
        0.35047808289527893,
        0.9095881581306458
      ],
      "translation": [
        0.35112106800079346,
        0.0628330260515213,
        -7.262229701154865e-06
      ]
    },
    {
      "children": [
        6
      ],
      "extras": {
        "FBX-glTF-conv": {
          "skeleton": {
            "skeletonType": "LimbNode"
          }
        }
      },
      "name": "Bip001 L Clavicle",
      "rotation": [
        0.687336802482605,
        -0.09979531913995743,
        0.6202573180198669,
        0.364540696144104
      ],
      "translation": [
        -0.10614132136106491,
        0.020404968410730362,
        0.13564351201057434
      ]
    },
    {
      "children": [
        7
      ],
      "extras": {
        "FBX-glTF-conv": {
          "skeleton": {
            "skeletonType": "LimbNode"
          }
        }
      },
      "name": "Bip001 L UpperArm",
      "rotation": [
        0.013468965888023376,
        0.4155859053134918,
        0.07426299154758453,
        0.9064170718193054
      ],
      "translation": [
        0.18830770254135132,
        -7.105427198782324e-17,
        7.629394360719743e-08
      ]
    },
    {
      "children": [
        8
      ],
      "extras": {
        "FBX-glTF-conv": {
          "skeleton": {
            "skeletonType": "LimbNode"
          }
        }
      },
      "name": "Bip001 L Forearm",
      "rotation": [
        -2.1474624066078507e-18,
        3.919352472354676e-17,
        -0.6673625111579895,
        0.7447330355644226
      ],
      "translation": [
        0.5471746921539307,
        0.0,
        2.8421708795129297e-16
      ]
    },
    {
      "extras": {
        "FBX-glTF-conv": {
          "skeleton": {
            "skeletonType": "LimbNode"
          }
        }
      },
      "name": "Bip001 L Hand",
      "rotation": [
        -0.305012971162796,
        -0.0030130597297102213,
        0.022433515638113022,
        0.952079176902771
      ],
      "translation": [
        0.4531119465827942,
        7.629394360719743e-08,
        0.0
      ]
    },
    {
      "children": [
        10
      ],
      "extras": {
        "FBX-glTF-conv": {
          "skeleton": {
            "skeletonType": "LimbNode"
          }
        }
      },
      "name": "Bip001 R Clavicle",
      "rotation": [
        -0.4109593629837036,
        0.3238973021507263,
        0.829616367816925,
        0.19478090107440948
      ],
      "translation": [
        -0.173135906457901,
        -0.0012875365791842341,
        -0.010070743970572948
      ]
    },
    {
      "children": [
        11
      ],
      "extras": {
        "FBX-glTF-conv": {
          "skeleton": {
            "skeletonType": "LimbNode"
          }
        }
      },
      "name": "Bip001 R UpperArm",
      "rotation": [
        0.07355895638465881,
        -0.3815515339374542,
        0.003804231761023402,
        0.9214081764221191
      ],
      "translation": [
        0.18830767273902893,
        0.0,
        0.0
      ]
    },
    {
      "children": [
        12
      ],
      "extras": {
        "FBX-glTF-conv": {
          "skeleton": {
            "skeletonType": "LimbNode"
          }
        }
      },
      "name": "Bip001 R Forearm",
      "rotation": [
        2.4401088570846694e-17,
        -1.2559853510979029e-16,
        -0.6212069988250732,
        0.7836465239524841
      ],
      "translation": [
        0.5471747517585754,
        7.105427198782324e-17,
        7.629394360719743e-08
      ]
    },
    {
      "extras": {
        "FBX-glTF-conv": {
          "skeleton": {
            "skeletonType": "LimbNode"
          }
        }
      },
      "name": "Bip001 R Hand",
      "rotation": [
        0.9768171906471252,
        -0.06778822094202042,
        0.04383140429854393,
        0.19827184081077576
      ],
      "translation": [
        0.45311203598976135,
        3.814697180359872e-08,
        -1.4210854397564648e-16
      ]
    },
    {
      "extras": {
        "FBX-glTF-conv": {
          "skeleton": {
            "skeletonType": "LimbNode"
          }
        }
      },
      "name": "Bip001 Head",
      "rotation": [
        0.11681243032217026,
        0.06802842766046524,
        -0.35557153820991516,
        0.9248220920562744
      ],
      "translation": [
        0.06890823692083359,
        -2.8421708795129297e-16,
        -1.776356799695581e-17
      ]
    },
    {
      "children": [
        15
      ],
      "extras": {
        "FBX-glTF-conv": {
          "skeleton": {
            "skeletonType": "LimbNode"
          }
        }
      },
      "name": "Bip001 L Thigh",
      "rotation": [
        -0.01531221717596054,
        0.967700183391571,
        -0.22444704174995422,
        -0.11377793550491333
      ],
      "translation": [
        -0.11983779817819595,
        -0.012227973900735378,
        0.08000770211219788
      ]
    },
    {
      "children": [
        16
      ],
      "extras": {
        "FBX-glTF-conv": {
          "skeleton": {
            "skeletonType": "LimbNode"
          }
        }
      },
      "name": "Bip001 L Calf",
      "rotation": [
        -8.945025926774525e-17,
        -1.1649239160504717e-17,
        -0.2621876895427704,
        0.9650169014930725
      ],
      "translation": [
        0.42956438660621643,
        4.76837147544984e-09,
        3.814697180359872e-08
      ]
    },
    {
      "children": [
        17
      ],
      "extras": {
        "FBX-glTF-conv": {
          "skeleton": {
            "skeletonType": "LimbNode"
          }
        }
      },
      "name": "Bip001 L Foot",
      "rotation": [
        0.0013397884322330356,
        -0.1842011958360672,
        0.18013320863246918,
        0.9662402272224426
      ],
      "translation": [
        0.3817952871322632,
        -9.53674295089968e-09,
        0.0
      ]
    },
    {
      "extras": {
        "FBX-glTF-conv": {
          "skeleton": {
            "skeletonType": "LimbNode"
          }
        }
      },
      "name": "Bip001 L Toe0",
      "rotation": [
        -0.016001399606466293,
        0.016219068318605423,
        0.7116402387619019,
        0.7021744847297668
      ],
      "translation": [
        0.06767954677343369,
        0.10465747117996216,
        3.814697180359872e-08
      ]
    },
    {
      "children": [
        19
      ],
      "extras": {
        "FBX-glTF-conv": {
          "skeleton": {
            "skeletonType": "LimbNode"
          }
        }
      },
      "name": "Bip001 R Thigh",
      "rotation": [
        -0.03865667060017586,
        0.9712914228439331,
        0.06503673642873764,
        0.22554126381874084
      ],
      "translation": [
        -0.11983779817819595,
        -0.012227535247802734,
        -0.08000778406858444
      ]
    },
    {
      "children": [
        20
      ],
      "extras": {
        "FBX-glTF-conv": {
          "skeleton": {
            "skeletonType": "LimbNode"
          }
        }
      },
      "name": "Bip001 R Calf",
      "rotation": [
        -2.6919051170876487e-17,
        6.762890135480952e-18,
        -0.24365879595279694,
        0.9698610305786133
      ],
      "translation": [
        0.42956432700157166,
        1.907348590179936e-08,
        3.814697180359872e-08
      ]
    },
    {
      "children": [
        21
      ],
      "extras": {
        "FBX-glTF-conv": {
          "skeleton": {
            "skeletonType": "LimbNode"
          }
        }
      },
      "name": "Bip001 R Foot",
      "rotation": [
        0.026278629899024963,
        0.2204563021659851,
        0.13885268568992615,
        0.9651053547859192
      ],
      "translation": [
        0.3817952871322632,
        -9.53674295089968e-09,
        7.105427198782324e-17
      ]
    },
    {
      "extras": {
        "FBX-glTF-conv": {
          "skeleton": {
            "skeletonType": "LimbNode"
          }
        }
      },
      "name": "Bip001 R Toe0",
      "rotation": [
        2.9083210506541946e-07,
        -5.109974949846219e-07,
        0.6954527497291565,
        0.7185718417167664
      ],
      "translation": [
        0.06767955422401428,
        0.10465747863054276,
        0.0
      ]
    }
  ],
  "scenes": [
    {
      "nodes": [
        0
      ]
    }
  ]
}