{
  "accessors": [
    {
      "bufferView": 0,
      "componentType": 5126,
      "count": 15,
      "name": "Bip001/translation/Output",
      "type": "VEC3"
    },
    {
      "bufferView": 1,
      "componentType": 5126,
      "count": 15,
      "max": [
        0.6000000238418579
      ],
      "min": [
        0.0
      ],
      "name": "Bip001/translation/Input",
      "type": "SCALAR"
    },
    {
      "bufferView": 2,
      "componentType": 5126,
      "count": 1,
      "name": "Bip001/rotation/Output",
      "type": "VEC4"
    },
    {
      "bufferView": 3,
      "componentType": 5126,
      "count": 1,
      "max": [
        0.6000000238418579
      ],
      "min": [
        0.6000000238418579
      ],
      "name": "Bip001/rotation/Input",
      "type": "SCALAR"
    },
    {
      "bufferView": 4,
      "componentType": 5126,
      "count": 1,
      "name": "Bip001/scale/Output",
      "type": "VEC3"
    },
    {
      "bufferView": 5,
      "componentType": 5126,
      "count": 1,
      "max": [
        0.6000000238418579
      ],
      "min": [
        0.6000000238418579
      ],
      "name": "Bip001/scale/Input",
      "type": "SCALAR"
    },
    {
      "bufferView": 6,
      "componentType": 5126,
      "count": 19,
      "name": "Bip001 Footsteps/translation/Output",
      "type": "VEC3"
    },
    {
      "bufferView": 7,
      "componentType": 5126,
      "count": 19,
      "max": [
        0.6000000238418579
      ],
      "min": [
        0.0
      ],
      "name": "Bip001 Footsteps/translation/Input",
      "type": "SCALAR"
    },
    {
      "bufferView": 8,
      "componentType": 5126,
      "count": 1,
      "name": "Bip001 Footsteps/rotation/Output",
      "type": "VEC4"
    },
    {
      "bufferView": 9,
      "componentType": 5126,
      "count": 1,
      "max": [
        0.6000000238418579
      ],
      "min": [
        0.6000000238418579
      ],
      "name": "Bip001 Footsteps/rotation/Input",
      "type": "SCALAR"
    },
    {
      "bufferView": 10,
      "componentType": 5126,
      "count": 1,
      "name": "Bip001 Footsteps/scale/Output",
      "type": "VEC3"
    },
    {
      "bufferView": 11,
      "componentType": 5126,
      "count": 1,
      "max": [
        0.6000000238418579
      ],
      "min": [
        0.6000000238418579
      ],
      "name": "Bip001 Footsteps/scale/Input",
      "type": "SCALAR"
    },
    {
      "bufferView": 12,
      "componentType": 5126,
      "count": 1,
      "name": "Bip001 Pelvis/translation/Output",
      "type": "VEC3"
    },
    {
      "bufferView": 13,
      "componentType": 5126,
      "count": 1,
      "max": [
        0.6000000238418579
      ],
      "min": [
        0.6000000238418579
      ],
      "name": "Bip001 Pelvis/translation/Input",
      "type": "SCALAR"
    },
    {
      "bufferView": 14,
      "componentType": 5126,
      "count": 12,
      "name": "Bip001 Pelvis/rotation/Output",
      "type": "VEC4"
    },
    {
      "bufferView": 15,
      "componentType": 5126,
      "count": 12,
      "max": [
        0.4000000059604645
      ],
      "min": [
        0.0
      ],
      "name": "Bip001 Pelvis/rotation/Input",
      "type": "SCALAR"
    },
    {
      "bufferView": 16,
      "componentType": 5126,
      "count": 1,
      "name": "Bip001 Pelvis/scale/Output",
      "type": "VEC3"
    },
    {
      "bufferView": 17,
      "componentType": 5126,
      "count": 1,
      "max": [
        0.6000000238418579
      ],
      "min": [
        0.6000000238418579
      ],
      "name": "Bip001 Pelvis/scale/Input",
      "type": "SCALAR"
    },
    {
      "bufferView": 18,
      "componentType": 5126,
      "count": 19,
      "name": "Bip001 Spine/translation/Output",
      "type": "VEC3"
    },
    {
      "bufferView": 19,
      "componentType": 5126,
      "count": 19,
      "max": [
        0.6000000238418579
      ],
      "min": [
        0.0
      ],
      "name": "Bip001 Spine/translation/Input",
      "type": "SCALAR"
    },
    {
      "bufferView": 20,
      "componentType": 5126,
      "count": 19,
      "name": "Bip001 Spine/rotation/Output",
      "type": "VEC4"
    },
    {
      "bufferView": 21,
      "componentType": 5126,
      "count": 19,
      "max": [
        0.6000000238418579
      ],
      "min": [
        0.0
      ],
      "name": "Bip001 Spine/rotation/Input",
      "type": "SCALAR"
    },
    {
      "bufferView": 22,
      "componentType": 5126,
      "count": 1,
      "name": "Bip001 Spine/scale/Output",
      "type": "VEC3"
    },
    {
      "bufferView": 23,
      "componentType": 5126,
      "count": 1,
      "max": [
        0.6000000238418579
      ],
      "min": [
        0.6000000238418579
      ],
      "name": "Bip001 Spine/scale/Input",
      "type": "SCALAR"
    },
    {
      "bufferView": 24,
      "componentType": 5126,
      "count": 19,
      "name": "Bip001 Spine1/translation/Output",
      "type": "VEC3"
    },
    {
      "bufferView": 25,
      "componentType": 5126,
      "count": 19,
      "max": [
        0.6000000238418579
      ],
      "min": [
        0.0
      ],
      "name": "Bip001 Spine1/translation/Input",
      "type": "SCALAR"
    },
    {
      "bufferView": 26,
      "componentType": 5126,
      "count": 19,
      "name": "Bip001 Spine1/rotation/Output",
      "type": "VEC4"
    },
    {
      "bufferView": 27,
      "componentType": 5126,
      "count": 19,
      "max": [
        0.6000000238418579
      ],
      "min": [
        0.0
      ],
      "name": "Bip001 Spine1/rotation/Input",
      "type": "SCALAR"
    },
    {
      "bufferView": 28,
      "componentType": 5126,
      "count": 1,
      "name": "Bip001 Spine1/scale/Output",
      "type": "VEC3"
    },
    {
      "bufferView": 29,
      "componentType": 5126,
      "count": 1,
      "max": [
        0.6000000238418579
      ],
      "min": [
        0.6000000238418579
      ],
      "name": "Bip001 Spine1/scale/Input",
      "type": "SCALAR"
    },
    {
      "bufferView": 30,
      "componentType": 5126,
      "count": 10,
      "name": "Bip001 Neck/translation/Output",
      "type": "VEC3"
    },
    {
      "bufferView": 31,
      "componentType": 5126,
      "count": 10,
      "max": [
        0.5
      ],
      "min": [
        0.0
      ],
      "name": "Bip001 Neck/translation/Input",
      "type": "SCALAR"
    },
    {
      "bufferView": 32,
      "componentType": 5126,
      "count": 1,
      "name": "Bip001 Neck/rotation/Output",
      "type": "VEC4"
    },
    {
      "bufferView": 33,
      "componentType": 5126,
      "count": 1,
      "max": [
        0.6000000238418579
      ],
      "min": [
        0.6000000238418579
      ],
      "name": "Bip001 Neck/rotation/Input",
      "type": "SCALAR"
    },
    {
      "bufferView": 34,
      "componentType": 5126,
      "count": 1,
      "name": "Bip001 Neck/scale/Output",
      "type": "VEC3"
    },
    {
      "bufferView": 35,
      "componentType": 5126,
      "count": 1,
      "max": [
        0.6000000238418579
      ],
      "min": [
        0.6000000238418579
      ],
      "name": "Bip001 Neck/scale/Input",
      "type": "SCALAR"
    },
    {
      "bufferView": 36,
      "componentType": 5126,
      "count": 15,
      "name": "Bip001 Head/translation/Output",
      "type": "VEC3"
    },
    {
      "bufferView": 37,
      "componentType": 5126,
      "count": 15,
      "max": [
        0.6000000238418579
      ],
      "min": [
        0.10000000149011612
      ],
      "name": "Bip001 Head/translation/Input",
      "type": "SCALAR"
    },
    {
      "bufferView": 38,
      "componentType": 5126,
      "count": 19,
      "name": "Bip001 Head/rotation/Output",
      "type": "VEC4"
    },
    {
      "bufferView": 39,
      "componentType": 5126,
      "count": 19,
      "max": [
        0.6000000238418579
      ],
      "min": [
        0.0
      ],
      "name": "Bip001 Head/rotation/Input",
      "type": "SCALAR"
    },
    {
      "bufferView": 40,
      "componentType": 5126,
      "count": 1,
      "name": "Bip001 Head/scale/Output",
      "type": "VEC3"
    },
    {
      "bufferView": 41,
      "componentType": 5126,
      "count": 1,
      "max": [
        0.6000000238418579
      ],
      "min": [
        0.6000000238418579
      ],
      "name": "Bip001 Head/scale/Input",
      "type": "SCALAR"
    },
    {
      "bufferView": 42,
      "componentType": 5126,
      "count": 8,
      "name": "Bip001 L Clavicle/translation/Output",
      "type": "VEC3"
    },
    {
      "bufferView": 43,
      "componentType": 5126,
      "count": 8,
      "max": [
        0.6000000238418579
      ],
      "min": [
        0.0
      ],
      "name": "Bip001 L Clavicle/translation/Input",
      "type": "SCALAR"
    },
    {
      "bufferView": 44,
      "componentType": 5126,
      "count": 1,
      "name": "Bip001 L Clavicle/rotation/Output",
      "type": "VEC4"
    },
    {
      "bufferView": 45,
      "componentType": 5126,
      "count": 1,
      "max": [
        0.6000000238418579
      ],
      "min": [
        0.6000000238418579
      ],
      "name": "Bip001 L Clavicle/rotation/Input",
      "type": "SCALAR"
    },
    {
      "bufferView": 46,
      "componentType": 5126,
      "count": 1,
      "name": "Bip001 L Clavicle/scale/Output",
      "type": "VEC3"
    },
    {
      "bufferView": 47,
      "componentType": 5126,
      "count": 1,
      "max": [
        0.6000000238418579
      ],
      "min": [
        0.6000000238418579
      ],
      "name": "Bip001 L Clavicle/scale/Input",
      "type": "SCALAR"
    },
    {
      "bufferView": 48,
      "componentType": 5126,
      "count": 9,
      "name": "Bip001 L UpperArm/translation/Output",
      "type": "VEC3"
    },
    {
      "bufferView": 49,
      "componentType": 5126,
      "count": 9,
      "max": [
        0.6000000238418579
      ],
      "min": [
        0.13333334028720856
      ],
      "name": "Bip001 L UpperArm/translation/Input",
      "type": "SCALAR"
    },
    {
      "bufferView": 50,
      "componentType": 5126,
      "count": 19,
      "name": "Bip001 L UpperArm/rotation/Output",
      "type": "VEC4"
    },
    {
      "bufferView": 51,
      "componentType": 5126,
      "count": 19,
      "max": [
        0.6000000238418579
      ],
      "min": [
        0.0
      ],
      "name": "Bip001 L UpperArm/rotation/Input",
      "type": "SCALAR"
    },
    {
      "bufferView": 52,
      "componentType": 5126,
      "count": 1,
      "name": "Bip001 L UpperArm/scale/Output",
      "type": "VEC3"
    },
    {
      "bufferView": 53,
      "componentType": 5126,
      "count": 1,
      "max": [
        0.6000000238418579
      ],
      "min": [
        0.6000000238418579
      ],
      "name": "Bip001 L UpperArm/scale/Input",
      "type": "SCALAR"
    },
    {
      "bufferView": 54,
      "componentType": 5126,
      "count": 5,
      "name": "Bip001 L Forearm/translation/Output",
      "type": "VEC3"
    },
    {
      "bufferView": 55,
      "componentType": 5126,
      "count": 5,
      "max": [
        0.5
      ],
      "min": [
        0.06666667014360428
      ],
      "name": "Bip001 L Forearm/translation/Input",
      "type": "SCALAR"
    },
    {
      "bufferView": 56,
      "componentType": 5126,
      "count": 19,
      "name": "Bip001 L Forearm/rotation/Output",
      "type": "VEC4"
    },
    {
      "bufferView": 57,
      "componentType": 5126,
      "count": 19,
      "max": [
        0.6000000238418579
      ],
      "min": [
        0.0
      ],
      "name": "Bip001 L Forearm/rotation/Input",
      "type": "SCALAR"
    },
    {
      "bufferView": 58,
      "componentType": 5126,
      "count": 1,
      "name": "Bip001 L Forearm/scale/Output",
      "type": "VEC3"
    },
    {
      "bufferView": 59,
      "componentType": 5126,
      "count": 1,
      "max": [
        0.6000000238418579
      ],
      "min": [
        0.6000000238418579
      ],
      "name": "Bip001 L Forearm/scale/Input",
      "type": "SCALAR"
    },
    {
      "bufferView": 60,
      "componentType": 5126,
      "count": 9,
      "name": "Bip001 L Hand/translation/Output",
      "type": "VEC3"
    },
    {
      "bufferView": 61,
      "componentType": 5126,
      "count": 9,
      "max": [
        0.6000000238418579
      ],
      "min": [
        0.0
      ],
      "name": "Bip001 L Hand/translation/Input",
      "type": "SCALAR"
    },
    {
      "bufferView": 62,
      "componentType": 5126,
      "count": 19,
      "name": "Bip001 L Hand/rotation/Output",
      "type": "VEC4"
    },
    {
      "bufferView": 63,
      "componentType": 5126,
      "count": 19,
      "max": [
        0.6000000238418579
      ],
      "min": [
        0.0
      ],
      "name": "Bip001 L Hand/rotation/Input",
      "type": "SCALAR"
    },
    {
      "bufferView": 64,
      "componentType": 5126,
      "count": 1,
      "name": "Bip001 L Hand/scale/Output",
      "type": "VEC3"
    },
    {
      "bufferView": 65,
      "componentType": 5126,
      "count": 1,
      "max": [
        0.6000000238418579
      ],
      "min": [
        0.6000000238418579
      ],
      "name": "Bip001 L Hand/scale/Input",
      "type": "SCALAR"
    },
    {
      "bufferView": 66,
      "componentType": 5126,
      "count": 11,
      "name": "Bip001 R Clavicle/translation/Output",
      "type": "VEC3"
    },
    {
      "bufferView": 67,
      "componentType": 5126,
      "count": 11,
      "max": [
        0.5
      ],
      "min": [
        0.03333333507180214
      ],
      "name": "Bip001 R Clavicle/translation/Input",
      "type": "SCALAR"
    },
    {
      "bufferView": 68,
      "componentType": 5126,
      "count": 19,
      "name": "Bip001 R Clavicle/rotation/Output",
      "type": "VEC4"
    },
    {
      "bufferView": 69,
      "componentType": 5126,
      "count": 19,
      "max": [
        0.6000000238418579
      ],
      "min": [
        0.0
      ],
      "name": "Bip001 R Clavicle/rotation/Input",
      "type": "SCALAR"
    },
    {
      "bufferView": 70,
      "componentType": 5126,
      "count": 1,
      "name": "Bip001 R Clavicle/scale/Output",
      "type": "VEC3"
    },
    {
      "bufferView": 71,
      "componentType": 5126,
      "count": 1,
      "max": [
        0.6000000238418579
      ],
      "min": [
        0.6000000238418579
      ],
      "name": "Bip001 R Clavicle/scale/Input",
      "type": "SCALAR"
    },
    {
      "bufferView": 72,
      "componentType": 5126,
      "count": 1,
      "name": "Bip001 R UpperArm/translation/Output",
      "type": "VEC3"
    },
    {
      "bufferView": 73,
      "componentType": 5126,
      "count": 1,
      "max": [
        0.6000000238418579
      ],
      "min": [
        0.6000000238418579
      ],
      "name": "Bip001 R UpperArm/translation/Input",
      "type": "SCALAR"
    },
    {
      "bufferView": 74,
      "componentType": 5126,
      "count": 19,
      "name": "Bip001 R UpperArm/rotation/Output",
      "type": "VEC4"
    },
    {
      "bufferView": 75,
      "componentType": 5126,
      "count": 19,
      "max": [
        0.6000000238418579
      ],
      "min": [
        0.0
      ],
      "name": "Bip001 R UpperArm/rotation/Input",
      "type": "SCALAR"
    },
    {
      "bufferView": 76,
      "componentType": 5126,
      "count": 1,
      "name": "Bip001 R UpperArm/scale/Output",
      "type": "VEC3"
    },
    {
      "bufferView": 77,
      "componentType": 5126,
      "count": 1,
      "max": [
        0.6000000238418579
      ],
      "min": [
        0.6000000238418579
      ],
      "name": "Bip001 R UpperArm/scale/Input",
      "type": "SCALAR"
    },
    {
      "bufferView": 78,
      "componentType": 5126,
      "count": 8,
      "name": "Bip001 R Forearm/translation/Output",
      "type": "VEC3"
    },
    {
      "bufferView": 79,
      "componentType": 5126,
      "count": 8,
      "max": [
        0.6000000238418579
      ],
      "min": [
        0.10000000149011612
      ],
      "name": "Bip001 R Forearm/translation/Input",
      "type": "SCALAR"
    },
    {
      "bufferView": 80,
      "componentType": 5126,
      "count": 19,
      "name": "Bip001 R Forearm/rotation/Output",
      "type": "VEC4"
    },
    {
      "bufferView": 81,
      "componentType": 5126,
      "count": 19,
      "max": [
        0.6000000238418579
      ],
      "min": [
        0.0
      ],
      "name": "Bip001 R Forearm/rotation/Input",
      "type": "SCALAR"
    },
    {
      "bufferView": 82,
      "componentType": 5126,
      "count": 1,
      "name": "Bip001 R Forearm/scale/Output",
      "type": "VEC3"
    },
    {
      "bufferView": 83,
      "componentType": 5126,
      "count": 1,
      "max": [
        0.6000000238418579
      ],
      "min": [
        0.6000000238418579
      ],
      "name": "Bip001 R Forearm/scale/Input",
      "type": "SCALAR"
    },
    {
      "bufferView": 84,
      "componentType": 5126,
      "count": 10,
      "name": "Bip001 R Hand/translation/Output",
      "type": "VEC3"
    },
    {
      "bufferView": 85,
      "componentType": 5126,
      "count": 10,
      "max": [
        0.6000000238418579
      ],
      "min": [
        0.0
      ],
      "name": "Bip001 R Hand/translation/Input",
      "type": "SCALAR"
    },
    {
      "bufferView": 86,
      "componentType": 5126,
      "count": 1,
      "name": "Bip001 R Hand/rotation/Output",
      "type": "VEC4"
    },
    {
      "bufferView": 87,
      "componentType": 5126,
      "count": 1,
      "max": [
        0.6000000238418579
      ],
      "min": [
        0.6000000238418579
      ],
      "name": "Bip001 R Hand/rotation/Input",
      "type": "SCALAR"
    },
    {
      "bufferView": 88,
      "componentType": 5126,
      "count": 1,
      "name": "Bip001 R Hand/scale/Output",
      "type": "VEC3"
    },
    {
      "bufferView": 89,
      "componentType": 5126,
      "count": 1,
      "max": [
        0.6000000238418579
      ],
      "min": [
        0.6000000238418579
      ],
      "name": "Bip001 R Hand/scale/Input",
      "type": "SCALAR"
    },
    {
      "bufferView": 90,
      "componentType": 5126,
      "count": 3,
      "name": "Bip001 L Thigh/translation/Output",
      "type": "VEC3"
    },
    {
      "bufferView": 91,
      "componentType": 5126,
      "count": 3,
      "max": [
        0.6000000238418579
      ],
      "min": [
        0.4000000059604645
      ],
      "name": "Bip001 L Thigh/translation/Input",
      "type": "SCALAR"
    },
    {
      "bufferView": 92,
      "componentType": 5126,
      "count": 19,
      "name": "Bip001 L Thigh/rotation/Output",
      "type": "VEC4"
    },
    {
      "bufferView": 93,
      "componentType": 5126,
      "count": 19,
      "max": [
        0.6000000238418579
      ],
      "min": [
        0.0
      ],
      "name": "Bip001 L Thigh/rotation/Input",
      "type": "SCALAR"
    },
    {
      "bufferView": 94,
      "componentType": 5126,
      "count": 1,
      "name": "Bip001 L Thigh/scale/Output",
      "type": "VEC3"
    },
    {
      "bufferView": 95,
      "componentType": 5126,
      "count": 1,
      "max": [
        0.6000000238418579
      ],
      "min": [
        0.6000000238418579
      ],
      "name": "Bip001 L Thigh/scale/Input",
      "type": "SCALAR"
    },
    {
      "bufferView": 96,
      "componentType": 5126,
      "count": 3,
      "name": "Bip001 L Calf/translation/Output",
      "type": "VEC3"
    },
    {
      "bufferView": 97,
      "componentType": 5126,
      "count": 3,
      "max": [
        0.46666666865348816
      ],
      "min": [
        0.10000000149011612
      ],
      "name": "Bip001 L Calf/translation/Input",
      "type": "SCALAR"
    },
    {
      "bufferView": 98,
      "componentType": 5126,
      "count": 19,
      "name": "Bip001 L Calf/rotation/Output",
      "type": "VEC4"
    },
    {
      "bufferView": 99,
      "componentType": 5126,
      "count": 19,
      "max": [
        0.6000000238418579
      ],
      "min": [
        0.0
      ],
      "name": "Bip001 L Calf/rotation/Input",
      "type": "SCALAR"
    },
    {
      "bufferView": 100,
      "componentType": 5126,
      "count": 1,
      "name": "Bip001 L Calf/scale/Output",
      "type": "VEC3"
    },
    {
      "bufferView": 101,
      "componentType": 5126,
      "count": 1,
      "max": [
        0.6000000238418579
      ],
      "min": [
        0.6000000238418579
      ],
      "name": "Bip001 L Calf/scale/Input",
      "type": "SCALAR"
    },
    {
      "bufferView": 102,
      "componentType": 5126,
      "count": 7,
      "name": "Bip001 L Foot/translation/Output",
      "type": "VEC3"
    },
    {
      "bufferView": 103,
      "componentType": 5126,
      "count": 7,
      "max": [
        0.6000000238418579
      ],
      "min": [
        0.0
      ],
      "name": "Bip001 L Foot/translation/Input",
      "type": "SCALAR"
    },
    {
      "bufferView": 104,
      "componentType": 5126,
      "count": 19,
      "name": "Bip001 L Foot/rotation/Output",
      "type": "VEC4"
    },
    {
      "bufferView": 105,
      "componentType": 5126,
      "count": 19,
      "max": [
        0.6000000238418579
      ],
      "min": [
        0.0
      ],
      "name": "Bip001 L Foot/rotation/Input",
      "type": "SCALAR"
    },
    {
      "bufferView": 106,
      "componentType": 5126,
      "count": 1,
      "name": "Bip001 L Foot/scale/Output",
      "type": "VEC3"
    },
    {
      "bufferView": 107,
      "componentType": 5126,
      "count": 1,
      "max": [
        0.6000000238418579
      ],
      "min": [
        0.6000000238418579
      ],
      "name": "Bip001 L Foot/scale/Input",
      "type": "SCALAR"
    },
    {
      "bufferView": 108,
      "componentType": 5126,
      "count": 1,
      "name": "Bip001 L Toe0/translation/Output",
      "type": "VEC3"
    },
    {
      "bufferView": 109,
      "componentType": 5126,
      "count": 1,
      "max": [
        0.6000000238418579
      ],
      "min": [
        0.6000000238418579
      ],
      "name": "Bip001 L Toe0/translation/Input",
      "type": "SCALAR"
    },
    {
      "bufferView": 110,
      "componentType": 5126,
      "count": 1,
      "name": "Bip001 L Toe0/rotation/Output",
      "type": "VEC4"
    },
    {
      "bufferView": 111,
      "componentType": 5126,
      "count": 1,
      "max": [
        0.6000000238418579
      ],
      "min": [
        0.6000000238418579
      ],
      "name": "Bip001 L Toe0/rotation/Input",
      "type": "SCALAR"
    },
    {
      "bufferView": 112,
      "componentType": 5126,
      "count": 1,
      "name": "Bip001 L Toe0/scale/Output",
      "type": "VEC3"
    },
    {
      "bufferView": 113,
      "componentType": 5126,
      "count": 1,
      "max": [
        0.6000000238418579
      ],
      "min": [
        0.6000000238418579
      ],
      "name": "Bip001 L Toe0/scale/Input",
      "type": "SCALAR"
    },
    {
      "bufferView": 114,
      "componentType": 5126,
      "count": 1,
      "name": "Bip001 R Thigh/translation/Output",
      "type": "VEC3"
    },
    {
      "bufferView": 115,
      "componentType": 5126,
      "count": 1,
      "max": [
        0.06666667014360428
      ],
      "min": [
        0.06666667014360428
      ],
      "name": "Bip001 R Thigh/translation/Input",
      "type": "SCALAR"
    },
    {
      "bufferView": 116,
      "componentType": 5126,
      "count": 19,
      "name": "Bip001 R Thigh/rotation/Output",
      "type": "VEC4"
    },
    {
      "bufferView": 117,
      "componentType": 5126,
      "count": 19,
      "max": [
        0.6000000238418579
      ],
      "min": [
        0.0
      ],
      "name": "Bip001 R Thigh/rotation/Input",
      "type": "SCALAR"
    },
    {
      "bufferView": 118,
      "componentType": 5126,
      "count": 1,
      "name": "Bip001 R Thigh/scale/Output",
      "type": "VEC3"
    },
    {
      "bufferView": 119,
      "componentType": 5126,
      "count": 1,
      "max": [
        0.6000000238418579
      ],
      "min": [
        0.6000000238418579
      ],
      "name": "Bip001 R Thigh/scale/Input",
      "type": "SCALAR"
    },
    {
      "bufferView": 120,
      "componentType": 5126,
      "count": 4,
      "name": "Bip001 R Calf/translation/Output",
      "type": "VEC3"
    },
    {
      "bufferView": 121,
      "componentType": 5126,
      "count": 4,
      "max": [
        0.6000000238418579
      ],
      "min": [
        0.1666666716337204
      ],
      "name": "Bip001 R Calf/translation/Input",
      "type": "SCALAR"
    },
    {
      "bufferView": 122,
      "componentType": 5126,
      "count": 19,
      "name": "Bip001 R Calf/rotation/Output",
      "type": "VEC4"
    },
    {
      "bufferView": 123,
      "componentType": 5126,
      "count": 19,
      "max": [
        0.6000000238418579
      ],
      "min": [
        0.0
      ],
      "name": "Bip001 R Calf/rotation/Input",
      "type": "SCALAR"
    },
    {
      "bufferView": 124,
      "componentType": 5126,
      "count": 1,
      "name": "Bip001 R Calf/scale/Output",
      "type": "VEC3"
    },
    {
      "bufferView": 125,
      "componentType": 5126,
      "count": 1,
      "max": [
        0.6000000238418579
      ],
      "min": [
        0.6000000238418579
      ],
      "name": "Bip001 R Calf/scale/Input",
      "type": "SCALAR"
    },
    {
      "bufferView": 126,
      "componentType": 5126,
      "count": 9,
      "name": "Bip001 R Foot/translation/Output",
      "type": "VEC3"
    },
    {
      "bufferView": 127,
      "componentType": 5126,
      "count": 9,
      "max": [
        0.6000000238418579
      ],
      "min": [
        0.0
      ],
      "name": "Bip001 R Foot/translation/Input",
      "type": "SCALAR"
    },
    {
      "bufferView": 128,
      "componentType": 5126,
      "count": 19,
      "name": "Bip001 R Foot/rotation/Output",
      "type": "VEC4"
    },
    {
      "bufferView": 129,
      "componentType": 5126,
      "count": 19,
      "max": [
        0.6000000238418579
      ],
      "min": [
        0.0
      ],
      "name": "Bip001 R Foot/rotation/Input",
      "type": "SCALAR"
    },
    {
      "bufferView": 130,
      "componentType": 5126,
      "count": 1,
      "name": "Bip001 R Foot/scale/Output",
      "type": "VEC3"
    },
    {
      "bufferView": 131,
      "componentType": 5126,
      "count": 1,
      "max": [
        0.6000000238418579
      ],
      "min": [
        0.6000000238418579
      ],
      "name": "Bip001 R Foot/scale/Input",
      "type": "SCALAR"
    },
    {
      "bufferView": 132,
      "componentType": 5126,
      "count": 1,
      "name": "Bip001 R Toe0/translation/Output",
      "type": "VEC3"
    },
    {
      "bufferView": 133,
      "componentType": 5126,
      "count": 1,
      "max": [
        0.6000000238418579
      ],
      "min": [
        0.6000000238418579
      ],
      "name": "Bip001 R Toe0/translation/Input",
      "type": "SCALAR"
    },
    {
      "bufferView": 134,
      "componentType": 5126,
      "count": 1,
      "name": "Bip001 R Toe0/rotation/Output",
      "type": "VEC4"
    },
    {
      "bufferView": 135,
      "componentType": 5126,
      "count": 1,
      "max": [
        0.6000000238418579
      ],
      "min": [
        0.6000000238418579
      ],
      "name": "Bip001 R Toe0/rotation/Input",
      "type": "SCALAR"
    },
    {
      "bufferView": 136,
      "componentType": 5126,
      "count": 1,
      "name": "Bip001 R Toe0/scale/Output",
      "type": "VEC3"
    },
    {
      "bufferView": 137,
      "componentType": 5126,
      "count": 1,
      "max": [
        0.6000000238418579
      ],
      "min": [
        0.6000000238418579
      ],
      "name": "Bip001 R Toe0/scale/Input",
      "type": "SCALAR"
    }
  ],
  "animations": [
    {
      "channels": [
        {
          "sampler": 0,
          "target": {
            "node": 0,
            "path": "translation"
          }
        },
        {
          "sampler": 1,
          "target": {
            "node": 0,
            "path": "rotation"
          }
        },
        {
          "sampler": 2,
          "target": {
            "node": 0,
            "path": "scale"
          }
        },
        {
          "sampler": 3,
          "target": {
            "node": 1,
            "path": "translation"
          }
        },
        {
          "sampler": 4,
          "target": {
            "node": 1,
            "path": "rotation"
          }
        },
        {
          "sampler": 5,
          "target": {
            "node": 1,
            "path": "scale"
          }
        },
        {
          "sampler": 6,
          "target": {
            "node": 2,
            "path": "translation"
          }
        },
        {
          "sampler": 7,
          "target": {
            "node": 2,
            "path": "rotation"
          }
        },
        {
          "sampler": 8,
          "target": {
            "node": 2,
            "path": "scale"
          }
        },
        {
          "sampler": 9,
          "target": {
            "node": 3,
            "path": "translation"
          }
        },
        {
          "sampler": 10,
          "target": {
            "node": 3,
            "path": "rotation"
          }
        },
        {
          "sampler": 11,
          "target": {
            "node": 3,
            "path": "scale"
          }
        },
        {
          "sampler": 12,
          "target": {
            "node": 4,
            "path": "translation"
          }
        },
        {
          "sampler": 13,
          "target": {
            "node": 4,
            "path": "rotation"
          }
        },
        {
          "sampler": 14,
          "target": {
            "node": 4,
            "path": "scale"
          }
        },
        {
          "sampler": 15,
          "target": {
            "node": 5,
            "path": "translation"
          }
        },
        {
          "sampler": 16,
          "target": {
            "node": 5,
            "path": "rotation"
          }
        },
        {
          "sampler": 17,
          "target": {
            "node": 5,
            "path": "scale"
          }
        },
        {
          "sampler": 18,
          "target": {
            "node": 6,
            "path": "translation"
          }
        },
        {
          "sampler": 19,
          "target": {
            "node": 6,
            "path": "rotation"
          }
        },
        {
          "sampler": 20,
          "target": {
            "node": 6,
            "path": "scale"
          }
        },
        {
          "sampler": 21,
          "target": {
            "node": 8,
            "path": "translation"
          }
        },
        {
          "sampler": 22,
          "target": {
            "node": 8,
            "path": "rotation"
          }
        },
        {
          "sampler": 23,
          "target": {
            "node": 8,
            "path": "scale"
          }
        },
        {
          "sampler": 24,
          "target": {
            "node": 9,
            "path": "translation"
          }
        },
        {
          "sampler": 25,
          "target": {
            "node": 9,
            "path": "rotation"
          }
        },
        {
          "sampler": 26,
          "target": {
            "node": 9,
            "path": "scale"
          }
        },
        {
          "sampler": 27,
          "target": {
            "node": 10,
            "path": "translation"
          }
        },
        {
          "sampler": 28,
          "target": {
            "node": 10,
            "path": "rotation"
          }
        },
        {
          "sampler": 29,
          "target": {
            "node": 10,
            "path": "scale"
          }
        },
        {
          "sampler": 30,
          "target": {
            "node": 11,
            "path": "translation"
          }
        },
        {
          "sampler": 31,
          "target": {
            "node": 11,
            "path": "rotation"
          }
        },
        {
          "sampler": 32,
          "target": {
            "node": 11,
            "path": "scale"
          }
        },
        {
          "sampler": 33,
          "target": {
            "node": 12,
            "path": "translation"
          }
        },
        {
          "sampler": 34,
          "target": {
            "node": 12,
            "path": "rotation"
          }
        },
        {
          "sampler": 35,
          "target": {
            "node": 12,
            "path": "scale"
          }
        },
        {
          "sampler": 36,
          "target": {
            "node": 13,
            "path": "translation"
          }
        },
        {
          "sampler": 37,
          "target": {
            "node": 13,
            "path": "rotation"
          }
        },
        {
          "sampler": 38,
          "target": {
            "node": 13,
            "path": "scale"
          }
        },
        {
          "sampler": 39,
          "target": {
            "node": 14,
            "path": "translation"
          }
        },
        {
          "sampler": 40,
          "target": {
            "node": 14,
            "path": "rotation"
          }
        },
        {
          "sampler": 41,
          "target": {
            "node": 14,
            "path": "scale"
          }
        },
        {
          "sampler": 42,
          "target": {
            "node": 15,
            "path": "translation"
          }
        },
        {
          "sampler": 43,
          "target": {
            "node": 15,
            "path": "rotation"
          }
        },
        {
          "sampler": 44,
          "target": {
            "node": 15,
            "path": "scale"
          }
        },
        {
          "sampler": 45,
          "target": {
            "node": 16,
            "path": "translation"
          }
        },
        {
          "sampler": 46,
          "target": {
            "node": 16,
            "path": "rotation"
          }
        },
        {
          "sampler": 47,
          "target": {
            "node": 16,
            "path": "scale"
          }
        },
        {
          "sampler": 48,
          "target": {
            "node": 17,
            "path": "translation"
          }
        },
        {
          "sampler": 49,
          "target": {
            "node": 17,
            "path": "rotation"
          }
        },
        {
          "sampler": 50,
          "target": {
            "node": 17,
            "path": "scale"
          }
        },
        {
          "sampler": 51,
          "target": {
            "node": 18,
            "path": "translation"
          }
        },
        {
          "sampler": 52,
          "target": {
            "node": 18,
            "path": "rotation"
          }
        },
        {
          "sampler": 53,
          "target": {
            "node": 18,
            "path": "scale"
          }
        },
        {
          "sampler": 54,
          "target": {
            "node": 19,
            "path": "translation"
          }
        },
        {
          "sampler": 55,
          "target": {
            "node": 19,
            "path": "rotation"
          }
        },
        {
          "sampler": 56,
          "target": {
            "node": 19,
            "path": "scale"
          }
        },
        {
          "sampler": 57,
          "target": {
            "node": 21,
            "path": "translation"
          }
        },
        {
          "sampler": 58,
          "target": {
            "node": 21,
            "path": "rotation"
          }
        },
        {
          "sampler": 59,
          "target": {
            "node": 21,
            "path": "scale"
          }
        },
        {
          "sampler": 60,
          "target": {
            "node": 22,
            "path": "translation"
          }
        },
        {
          "sampler": 61,
          "target": {
            "node": 22,
            "path": "rotation"
          }
        },
        {
          "sampler": 62,
          "target": {
            "node": 22,
            "path": "scale"
          }
        },
        {
          "sampler": 63,
          "target": {
            "node": 23,
            "path": "translation"
          }
        },
        {
          "sampler": 64,
          "target": {
            "node": 23,
            "path": "rotation"
          }
        },
        {
          "sampler": 65,
          "target": {
            "node": 23,
            "path": "scale"
          }
        },
        {
          "sampler": 66,
          "target": {
            "node": 24,
            "path": "translation"
          }
        },
        {
          "sampler": 67,
          "target": {
            "node": 24,
            "path": "rotation"
          }
        },
        {
          "sampler": 68,
          "target": {
            "node": 24,
            "path": "scale"
          }
        }
      ],
      "name": "Take 001",
      "samplers": [
        {
          "input": 1,
          "output": 0
        },
        {
          "input": 3,
          "output": 2
        },
        {
          "input": 5,
          "output": 4
        },
        {
          "input": 7,
          "output": 6
        },
        {
          "input": 9,
          "output": 8
        },
        {
          "input": 11,
          "output": 10
        },
        {
          "input": 13,
          "output": 12
        },
        {
          "input": 15,
          "output": 14
        },
        {
          "input": 17,
          "output": 16
        },
        {
          "input": 19,
          "output": 18
        },
        {
          "input": 21,
          "output": 20
        },
        {
          "input": 23,
          "output": 22
        },
        {
          "input": 25,
          "output": 24
        },
        {
          "input": 27,
          "output": 26
        },
        {
          "input": 29,
          "output": 28
        },
        {
          "input": 31,
          "output": 30
        },
        {
          "input": 33,
          "output": 32
        },
        {
          "input": 35,
          "output": 34
        },
        {
          "input": 37,
          "output": 36
        },
        {
          "input": 39,
          "output": 38
        },
        {
          "input": 41,
          "output": 40
        },
        {
          "input": 43,
          "output": 42
        },
        {
          "input": 45,
          "output": 44
        },
        {
          "input": 47,
          "output": 46
        },
        {
          "input": 49,
          "output": 48
        },
        {
          "input": 51,
          "output": 50
        },
        {
          "input": 53,
          "output": 52
        },
        {
          "input": 55,
          "output": 54
        },
        {
          "input": 57,
          "output": 56
        },
        {
          "input": 59,
          "output": 58
        },
        {
          "input": 61,
          "output": 60
        },
        {
          "input": 63,
          "output": 62
        },
        {
          "input": 65,
          "output": 64
        },
        {
          "input": 67,
          "output": 66
        },
        {
          "input": 69,
          "output": 68
        },
        {
          "input": 71,
          "output": 70
        },
        {
          "input": 73,
          "output": 72
        },
        {
          "input": 75,
          "output": 74
        },
        {
          "input": 77,
          "output": 76
        },
        {
          "input": 79,
          "output": 78
        },
        {
          "input": 81,
          "output": 80
        },
        {
          "input": 83,
          "output": 82
        },
        {
          "input": 85,
          "output": 84
        },
        {
          "input": 87,
          "output": 86
        },
        {
          "input": 89,
          "output": 88
        },
        {
          "input": 91,
          "output": 90
        },
        {
          "input": 93,
          "output": 92
        },
        {
          "input": 95,
          "output": 94
        },
        {
          "input": 97,
          "output": 96
        },
        {
          "input": 99,
          "output": 98
        },
        {
          "input": 101,
          "output": 100
        },
        {
          "input": 103,
          "output": 102
        },
        {
          "input": 105,
          "output": 104
        },
        {
          "input": 107,
          "output": 106
        },
        {
          "input": 109,
          "output": 108
        },
        {
          "input": 111,
          "output": 110
        },
        {
          "input": 113,
          "output": 112
        },
        {
          "input": 115,
          "output": 114
        },
        {
          "input": 117,
          "output": 116
        },
        {
          "input": 119,
          "output": 118
        },
        {
          "input": 121,
          "output": 120
        },
        {
          "input": 123,
          "output": 122
        },
        {
          "input": 125,
          "output": 124
        },
        {
          "input": 127,
          "output": 126
        },
        {
          "input": 129,
          "output": 128
        },
        {
          "input": 131,
          "output": 130
        },
        {
          "input": 133,
          "output": 132
        },
        {
          "input": 135,
          "output": 134
        },
        {
          "input": 137,
          "output": 136
        }
      ]
    }
  ],
  "asset": {
    "copyright": "Copyright (c) 2018-2020 Chukong Technologies Inc.",
    "generator": "FBX-glTF-conv",
    "version": "2.0"
  },
  "bufferViews": [
    {
      "buffer": 0,
      "byteLength": 180
    },
    {
      "buffer": 0,
      "byteLength": 60,
      "byteOffset": 180
    },
    {
      "buffer": 0,
      "byteLength": 16,
      "byteOffset": 240
    },
    {
      "buffer": 0,
      "byteLength": 4,
      "byteOffset": 256
    },
    {
      "buffer": 0,
      "byteLength": 12,
      "byteOffset": 260
    },
    {
      "buffer": 0,
      "byteLength": 4,
      "byteOffset": 272
    },
    {
      "buffer": 0,
      "byteLength": 228,
      "byteOffset": 276
    },
    {
      "buffer": 0,
      "byteLength": 76,
      "byteOffset": 504
    },
    {
      "buffer": 0,
      "byteLength": 16,
      "byteOffset": 580
    },
    {
      "buffer": 0,
      "byteLength": 4,
      "byteOffset": 596
    },
    {
      "buffer": 0,
      "byteLength": 12,
      "byteOffset": 600
    },
    {
      "buffer": 0,
      "byteLength": 4,
      "byteOffset": 612
    },
    {
      "buffer": 0,
      "byteLength": 12,
      "byteOffset": 616
    },
    {
      "buffer": 0,
      "byteLength": 4,
      "byteOffset": 628
    },
    {
      "buffer": 0,
      "byteLength": 192,
      "byteOffset": 632
    },
    {
      "buffer": 0,
      "byteLength": 48,
      "byteOffset": 824
    },
    {
      "buffer": 0,
      "byteLength": 12,
      "byteOffset": 872
    },
    {
      "buffer": 0,
      "byteLength": 4,
      "byteOffset": 884
    },
    {
      "buffer": 0,
      "byteLength": 228,
      "byteOffset": 888
    },
    {
      "buffer": 0,
      "byteLength": 76,
      "byteOffset": 1116
    },
    {
      "buffer": 0,
      "byteLength": 304,
      "byteOffset": 1192
    },
    {
      "buffer": 0,
      "byteLength": 76,
      "byteOffset": 1496
    },
    {
      "buffer": 0,
      "byteLength": 12,
      "byteOffset": 1572
    },
    {
      "buffer": 0,
      "byteLength": 4,
      "byteOffset": 1584
    },
    {
      "buffer": 0,
      "byteLength": 228,
      "byteOffset": 1588
    },
    {
      "buffer": 0,
      "byteLength": 76,
      "byteOffset": 1816
    },
    {
      "buffer": 0,
      "byteLength": 304,
      "byteOffset": 1892
    },
    {
      "buffer": 0,
      "byteLength": 76,
      "byteOffset": 2196
    },
    {
      "buffer": 0,
      "byteLength": 12,
      "byteOffset": 2272
    },
    {
      "buffer": 0,
      "byteLength": 4,
      "byteOffset": 2284
    },
    {
      "buffer": 0,
      "byteLength": 120,
      "byteOffset": 2288
    },
    {
      "buffer": 0,
      "byteLength": 40,
      "byteOffset": 2408
    },
    {
      "buffer": 0,
      "byteLength": 16,
      "byteOffset": 2448
    },
    {
      "buffer": 0,
      "byteLength": 4,
      "byteOffset": 2464
    },
    {
      "buffer": 0,
      "byteLength": 12,
      "byteOffset": 2468
    },
    {
      "buffer": 0,
      "byteLength": 4,
      "byteOffset": 2480
    },
    {
      "buffer": 0,
      "byteLength": 180,
      "byteOffset": 2484
    },
    {
      "buffer": 0,
      "byteLength": 60,
      "byteOffset": 2664
    },
    {
      "buffer": 0,
      "byteLength": 304,
      "byteOffset": 2724
    },
    {
      "buffer": 0,
      "byteLength": 76,
      "byteOffset": 3028
    },
    {
      "buffer": 0,
      "byteLength": 12,
      "byteOffset": 3104
    },
    {
      "buffer": 0,
      "byteLength": 4,
      "byteOffset": 3116
    },
    {
      "buffer": 0,
      "byteLength": 96,
      "byteOffset": 3120
    },
    {
      "buffer": 0,
      "byteLength": 32,
      "byteOffset": 3216
    },
    {
      "buffer": 0,
      "byteLength": 16,
      "byteOffset": 3248
    },
    {
      "buffer": 0,
      "byteLength": 4,
      "byteOffset": 3264
    },
    {
      "buffer": 0,
      "byteLength": 12,
      "byteOffset": 3268
    },
    {
      "buffer": 0,
      "byteLength": 4,
      "byteOffset": 3280
    },
    {
      "buffer": 0,
      "byteLength": 108,
      "byteOffset": 3284
    },
    {
      "buffer": 0,
      "byteLength": 36,
      "byteOffset": 3392
    },
    {
      "buffer": 0,
      "byteLength": 304,
      "byteOffset": 3428
    },
    {
      "buffer": 0,
      "byteLength": 76,
      "byteOffset": 3732
    },
    {
      "buffer": 0,
      "byteLength": 12,
      "byteOffset": 3808
    },
    {
      "buffer": 0,
      "byteLength": 4,
      "byteOffset": 3820
    },
    {
      "buffer": 0,
      "byteLength": 60,
      "byteOffset": 3824
    },
    {
      "buffer": 0,
      "byteLength": 20,
      "byteOffset": 3884
    },
    {
      "buffer": 0,
      "byteLength": 304,
      "byteOffset": 3904
    },
    {
      "buffer": 0,
      "byteLength": 76,
      "byteOffset": 4208
    },
    {
      "buffer": 0,
      "byteLength": 12,
      "byteOffset": 4284
    },
    {
      "buffer": 0,
      "byteLength": 4,
      "byteOffset": 4296
    },
    {
      "buffer": 0,
      "byteLength": 108,
      "byteOffset": 4300
    },
    {
      "buffer": 0,
      "byteLength": 36,
      "byteOffset": 4408
    },
    {
      "buffer": 0,
      "byteLength": 304,
      "byteOffset": 4444
    },
    {
      "buffer": 0,
      "byteLength": 76,
      "byteOffset": 4748
    },
    {
      "buffer": 0,
      "byteLength": 12,
      "byteOffset": 4824
    },
    {
      "buffer": 0,
      "byteLength": 4,
      "byteOffset": 4836
    },
    {
      "buffer": 0,
      "byteLength": 132,
      "byteOffset": 4840
    },
    {
      "buffer": 0,
      "byteLength": 44,
      "byteOffset": 4972
    },
    {
      "buffer": 0,
      "byteLength": 304,
      "byteOffset": 5016
    },
    {
      "buffer": 0,
      "byteLength": 76,
      "byteOffset": 5320
    },
    {
      "buffer": 0,
      "byteLength": 12,
      "byteOffset": 5396
    },
    {
      "buffer": 0,
      "byteLength": 4,
      "byteOffset": 5408
    },
    {
      "buffer": 0,
      "byteLength": 12,
      "byteOffset": 5412
    },
    {
      "buffer": 0,
      "byteLength": 4,
      "byteOffset": 5424
    },
    {
      "buffer": 0,
      "byteLength": 304,
      "byteOffset": 5428
    },
    {
      "buffer": 0,
      "byteLength": 76,
      "byteOffset": 5732
    },
    {
      "buffer": 0,
      "byteLength": 12,
      "byteOffset": 5808
    },
    {
      "buffer": 0,
      "byteLength": 4,
      "byteOffset": 5820
    },
    {
      "buffer": 0,
      "byteLength": 96,
      "byteOffset": 5824
    },
    {
      "buffer": 0,
      "byteLength": 32,
      "byteOffset": 5920
    },
    {
      "buffer": 0,
      "byteLength": 304,
      "byteOffset": 5952
    },
    {
      "buffer": 0,
      "byteLength": 76,
      "byteOffset": 6256
    },
    {
      "buffer": 0,
      "byteLength": 12,
      "byteOffset": 6332
    },
    {
      "buffer": 0,
      "byteLength": 4,
      "byteOffset": 6344
    },
    {
      "buffer": 0,
      "byteLength": 120,
      "byteOffset": 6348
    },
    {
      "buffer": 0,
      "byteLength": 40,
      "byteOffset": 6468
    },
    {
      "buffer": 0,
      "byteLength": 16,
      "byteOffset": 6508
    },
    {
      "buffer": 0,
      "byteLength": 4,
      "byteOffset": 6524
    },
    {
      "buffer": 0,
      "byteLength": 12,
      "byteOffset": 6528
    },
    {
      "buffer": 0,
      "byteLength": 4,
      "byteOffset": 6540
    },
    {
      "buffer": 0,
      "byteLength": 36,
      "byteOffset": 6544
    },
    {
      "buffer": 0,
      "byteLength": 12,
      "byteOffset": 6580
    },
    {
      "buffer": 0,
      "byteLength": 304,
      "byteOffset": 6592
    },
    {
      "buffer": 0,
      "byteLength": 76,
      "byteOffset": 6896
    },
    {
      "buffer": 0,
      "byteLength": 12,
      "byteOffset": 6972
    },
    {
      "buffer": 0,
      "byteLength": 4,
      "byteOffset": 6984
    },
    {
      "buffer": 0,
      "byteLength": 36,
      "byteOffset": 6988
    },
    {
      "buffer": 0,
      "byteLength": 12,
      "byteOffset": 7024
    },
    {
      "buffer": 0,
      "byteLength": 304,
      "byteOffset": 7036
    },
    {
      "buffer": 0,
      "byteLength": 76,
      "byteOffset": 7340
    },
    {
      "buffer": 0,
      "byteLength": 12,
      "byteOffset": 7416
    },
    {
      "buffer": 0,
      "byteLength": 4,
      "byteOffset": 7428
    },
    {
      "buffer": 0,
      "byteLength": 84,
      "byteOffset": 7432
    },
    {
      "buffer": 0,
      "byteLength": 28,
      "byteOffset": 7516
    },
    {
      "buffer": 0,
      "byteLength": 304,
      "byteOffset": 7544
    },
    {
      "buffer": 0,
      "byteLength": 76,
      "byteOffset": 7848
    },
    {
      "buffer": 0,
      "byteLength": 12,
      "byteOffset": 7924
    },
    {
      "buffer": 0,
      "byteLength": 4,
      "byteOffset": 7936
    },
    {
      "buffer": 0,
      "byteLength": 12,
      "byteOffset": 7940
    },
    {
      "buffer": 0,
      "byteLength": 4,
      "byteOffset": 7952
    },
    {
      "buffer": 0,
      "byteLength": 16,
      "byteOffset": 7956
    },
    {
      "buffer": 0,
      "byteLength": 4,
      "byteOffset": 7972
    },
    {
      "buffer": 0,
      "byteLength": 12,
      "byteOffset": 7976
    },
    {
      "buffer": 0,
      "byteLength": 4,
      "byteOffset": 7988
    },
    {
      "buffer": 0,
      "byteLength": 12,
      "byteOffset": 7992
    },
    {
      "buffer": 0,
      "byteLength": 4,
      "byteOffset": 8004
    },
    {
      "buffer": 0,
      "byteLength": 304,
      "byteOffset": 8008
    },
    {
      "buffer": 0,
      "byteLength": 76,
      "byteOffset": 8312
    },
    {
      "buffer": 0,
      "byteLength": 12,
      "byteOffset": 8388
    },
    {
      "buffer": 0,
      "byteLength": 4,
      "byteOffset": 8400
    },
    {
      "buffer": 0,
      "byteLength": 48,
      "byteOffset": 8404
    },
    {
      "buffer": 0,
      "byteLength": 16,
      "byteOffset": 8452
    },
    {
      "buffer": 0,
      "byteLength": 304,
      "byteOffset": 8468
    },
    {
      "buffer": 0,
      "byteLength": 76,
      "byteOffset": 8772
    },
    {
      "buffer": 0,
      "byteLength": 12,
      "byteOffset": 8848
    },
    {
      "buffer": 0,
      "byteLength": 4,
      "byteOffset": 8860
    },
    {
      "buffer": 0,
      "byteLength": 108,
      "byteOffset": 8864
    },
    {
      "buffer": 0,
      "byteLength": 36,
      "byteOffset": 8972
    },
    {
      "buffer": 0,
      "byteLength": 304,
      "byteOffset": 9008
    },
    {
      "buffer": 0,
      "byteLength": 76,
      "byteOffset": 9312
    },
    {
      "buffer": 0,
      "byteLength": 12,
      "byteOffset": 9388
    },
    {
      "buffer": 0,
      "byteLength": 4,
      "byteOffset": 9400
    },
    {
      "buffer": 0,
      "byteLength": 12,
      "byteOffset": 9404
    },
    {
      "buffer": 0,
      "byteLength": 4,
      "byteOffset": 9416
    },
    {
      "buffer": 0,
      "byteLength": 16,
      "byteOffset": 9420
    },
    {
      "buffer": 0,
      "byteLength": 4,
      "byteOffset": 9436
    },
    {
      "buffer": 0,
      "byteLength": 12,
      "byteOffset": 9440
    },
    {
      "buffer": 0,
      "byteLength": 4,
      "byteOffset": 9452
    }
  ],
  "buffers": [
    {
      "byteLength": 9456,
      "uri": "out.bin"
    }
  ],
  "extras": {
    "FBX-glTF-conv": {
      "animationFrameRate": 30.0,
      "fbxFileHeaderInfo": {
        "creationTimeStamp": {
          "day": 10,
          "hour": 16,
          "millisecond": 7,
          "minute": 44,
          "month": 6,
          "second": 57,
          "year": 2026
        },
        "creator": "FBX SDK/FBX Plugins version 2020.3.7",
        "sceneInfo": {
          "author": "",
          "comment": "",
          "keywords": "",
          "original": {
            "applicationName": "3ds Max",
            "applicationVendor": "Autodesk",
            "applicationVersion": "2026",
            "fileName": "E:\\试玩需求\\胖丧尸\\胖丧尸_死亡扑腾.fbx"
          },
          "revision": "",
          "subject": "",
          "title": "",
          "url": "D:\\工程项目\\test_pro\\test_pro\\HYQ_Project\\assets\\GameRes\\FBX\\Monster\\胖丧尸_死亡扑腾.fbx"
        }
      }
    }
  },
  "nodes": [
    {
      "children": [
        1,
        2
      ],
      "extras": {
        "FBX-glTF-conv": {
          "skeleton": {
            "skeletonType": "Root"
          }
        }
      },
      "name": "Bip001",
      "rotation": [
        0.5174922943115234,
        0.5596826076507568,
        0.4597901403903961,
        -0.45557671785354614
      ],
      "translation": [
        0.007509647402912378,
        0.8256614804267883,
        0.048240777105093
      ]
    },
    {
      "name": "Bip001 Footsteps",
      "rotation": [
        0.04378093406558037,
        0.070634625852108,
        0.7208760976791382,
        0.6880636811256409
      ],
      "translation": [
        -0.13278880715370178,
        -0.03444671258330345,
        -0.8168154954910278
      ]
    },
    {
      "children": [
        3,
        16,
        21
      ],
      "extras": {
        "FBX-glTF-conv": {
          "skeleton": {
            "skeletonType": "LimbNode"
          }
        }
      },
      "name": "Bip001 Pelvis",
      "rotation": [
        -0.5,
        -0.5,
        -0.4999993145465851,
        0.5000007152557373
      ]
    },
    {
      "children": [
        4
      ],
      "extras": {
        "FBX-glTF-conv": {
          "skeleton": {
            "skeletonType": "LimbNode"
          }
        }
      },
      "name": "Bip001 Spine",
      "rotation": [
        -2.151893568225205e-06,
        -7.806037274349364e-07,
        0.1278008669614792,
        0.9917998313903809
      ],
      "translation": [
        0.09203887730836868,
        -0.059756163507699966,
        2.527236802052357e-07
      ]
    },
    {
      "children": [
        5,
        8,
        12
      ],
      "extras": {
        "FBX-glTF-conv": {
          "skeleton": {
            "skeletonType": "LimbNode"
          }
        }
      },
      "name": "Bip001 Spine1",
      "rotation": [
        0.020533958449959755,
        -0.031387824565172195,
        0.11926329135894775,
        0.9921539425849915
      ],
      "translation": [
        0.23062385618686676,
        -0.00022179604275152087,
        -7.610321063111769e-06
      ]
    },
    {
      "children": [
        6
      ],
      "extras": {
        "FBX-glTF-conv": {
          "skeleton": {
            "skeletonType": "LimbNode"
          }
        }
      },
      "name": "Bip001 Neck",
      "rotation": [
        0.14050260186195374,
        -0.17341719567775726,
        0.3504781424999237,
        0.9095881581306458
      ],
      "translation": [
        0.2972293198108673,
        -0.02458934858441353,
        -7.52925870983745e-06
      ]
    },
    {
      "children": [
        7
      ],
      "extras": {
        "FBX-glTF-conv": {
          "skeleton": {
            "skeletonType": "LimbNode"
          }
        }
      },
      "name": "Bip001 Head",
      "rotation": [
        -0.1336604803800583,
        0.1778561919927597,
        -0.4017189145088196,
        0.8883264660835266
      ],
      "translation": [
        0.06866813451051712,
        0.013006133958697319,
        3.552713599391162e-17
      ]
    },
    {
      "extras": {
        "FBX-glTF-conv": {
          "skeleton": {
            "skeletonType": "LimbNode"
          }
        }
      },
      "name": "Bip001 HeadNub",
      "translation": [
        0.24481643736362457,
        3.814697180359872e-08,
        -4.76837147544984e-09
      ]
    },
    {
      "children": [
        9
      ],
      "extras": {
        "FBX-glTF-conv": {
          "skeleton": {
            "skeletonType": "LimbNode"
          }
        }
      },
      "name": "Bip001 L Clavicle",
      "rotation": [
        0.7140978574752808,
        -0.04524034634232521,
        0.6970809698104858,
        -0.045778241008520126
      ],
      "translation": [
        0.23566558957099915,
        -0.02611488290131092,
        0.10991609841585159
      ]
    },
    {
      "children": [
        10
      ],
      "extras": {
        "FBX-glTF-conv": {
          "skeleton": {
            "skeletonType": "LimbNode"
          }
        }
      },
      "name": "Bip001 L UpperArm",
      "rotation": [
        -0.3528578281402588,
        0.09874183684587479,
        -0.0503520704805851,
        0.929088830947876
      ],
      "translation": [
        0.1403508335351944,
        0.0,
        0.0
      ]
    },
    {
      "children": [
        11
      ],
      "extras": {
        "FBX-glTF-conv": {
          "skeleton": {
            "skeletonType": "LimbNode"
          }
        }
      },
      "name": "Bip001 L Forearm",
      "rotation": [
        -2.9954618730488887e-17,
        -8.104680073028225e-18,
        -0.19809004664421082,
        0.9801838397979736
      ],
      "translation": [
        0.2313036322593689,
        3.814697180359872e-08,
        -7.629394360719743e-08
      ]
    },
    {
      "extras": {
        "FBX-glTF-conv": {
          "skeleton": {
            "skeletonType": "LimbNode"
          }
        }
      },
      "name": "Bip001 L Hand",
      "rotation": [
        -0.42786121368408203,
        0.04190007969737053,
        0.12639234960079193,
        0.8939821720123291
      ],
      "translation": [
        0.26844677329063416,
        3.814697180359872e-08,
        0.0
      ]
    },
    {
      "children": [
        13
      ],
      "extras": {
        "FBX-glTF-conv": {
          "skeleton": {
            "skeletonType": "LimbNode"
          }
        }
      },
      "name": "Bip001 R Clavicle",
      "rotation": [
        -0.6285332441329956,
        0.002936071250587702,
        0.77777498960495,
        -0.0018607659731060266
      ],
      "translation": [
        0.2356654405593872,
        -0.02611423470079899,
        -0.10991623997688293
      ]
    },
    {
      "children": [
        14
      ],
      "extras": {
        "FBX-glTF-conv": {
          "skeleton": {
            "skeletonType": "LimbNode"
          }
        }
      },
      "name": "Bip001 R UpperArm",
      "rotation": [
        0.11585427820682526,
        0.04832656681537628,
        0.02257191576063633,
        0.9918330907821655
      ],
      "translation": [
        0.140350803732872,
        3.814697180359872e-08,
        0.0
      ]
    },
    {
      "children": [
        15
      ],
      "extras": {
        "FBX-glTF-conv": {
          "skeleton": {
            "skeletonType": "LimbNode"
          }
        }
      },
      "name": "Bip001 R Forearm",
      "rotation": [
        -1.1591668217051639e-17,
        1.031379990211032e-17,
        -0.26044297218322754,
        0.9654892086982727
      ],
      "translation": [
        0.2313036173582077,
        -9.53674295089968e-09,
        0.0
      ]
    },
    {
      "extras": {
        "FBX-glTF-conv": {
          "skeleton": {
            "skeletonType": "LimbNode"
          }
        }
      },
      "name": "Bip001 R Hand",
      "rotation": [
        0.9603000283241272,
        0.043009087443351746,
        0.11183725297451019,
        0.2519255578517914
      ],
      "translation": [
        0.268446683883667,
        -1.907348590179936e-08,
        -1.5258788721439487e-07
      ]
    },
    {
      "children": [
        17
      ],
      "extras": {
        "FBX-glTF-conv": {
          "skeleton": {
            "skeletonType": "LimbNode"
          }
        }
      },
      "name": "Bip001 L Thigh",
      "rotation": [
        0.030619719997048378,
        0.9262604117393494,
        0.28330016136169434,
        -0.24666796624660492
      ],
      "translation": [
        -1.5258788721439487e-07,
        2.288818308215923e-07,
        0.13230793178081512
      ]
    },
    {
      "children": [
        18
      ],
      "extras": {
        "FBX-glTF-conv": {
          "skeleton": {
            "skeletonType": "LimbNode"
          }
        }
      },
      "name": "Bip001 L Calf",
      "rotation": [
        -3.903848915646809e-19,
        -3.4474137555673455e-18,
        -0.11252078413963318,
        0.9936493635177612
      ],
      "translation": [
        0.40254539251327515,
        -3.814697180359872e-08,
        0.0
      ]
    },
    {
      "children": [
        19
      ],
      "extras": {
        "FBX-glTF-conv": {
          "skeleton": {
            "skeletonType": "LimbNode"
          }
        }
      },
      "name": "Bip001 L Foot",
      "rotation": [
        0.08570729196071625,
        -0.19849836826324463,
        -0.05876903235912323,
        0.9745762348175049
      ],
      "translation": [
        0.39813876152038574,
        -3.814697180359872e-08,
        -7.105427198782324e-17
      ]
    },
    {
      "children": [
        20
      ],
      "extras": {
        "FBX-glTF-conv": {
          "skeleton": {
            "skeletonType": "LimbNode"
          }
        }
      },
      "name": "Bip001 L Toe0",
      "rotation": [
        -0.016001494601368904,
        0.016219116747379303,
        0.7116402387619019,
        0.7021744847297668
      ],
      "translation": [
        0.10792407393455505,
        0.13871049880981445,
        3.814697180359872e-08
      ]
    },
    {
      "extras": {
        "FBX-glTF-conv": {
          "skeleton": {
            "skeletonType": "LimbNode"
          }
        }
      },
      "name": "Bip001 L Toe0Nub",
      "rotation": [
        1.3626089589990897e-08,
        -2.2429702539739083e-10,
        1.0,
        -5.817604923221786e-17
      ],
      "scale": [
        -1.0,
        -1.0,
        -1.0
      ],
      "translation": [
        0.06367141753435135,
        -5.9604643443123e-10,
        0.0
      ]
    },
    {
      "children": [
        22
      ],
      "extras": {
        "FBX-glTF-conv": {
          "skeleton": {
            "skeletonType": "LimbNode"
          }
        }
      },
      "name": "Bip001 R Thigh",
      "rotation": [
        -0.04373575374484062,
        0.9694711565971375,
        0.04154983162879944,
        0.2376687228679657
      ],
      "translation": [
        1.5258788721439487e-07,
        -1.335144048653092e-07,
        -0.13230793178081512
      ]
    },
    {
      "children": [
        23
      ],
      "extras": {
        "FBX-glTF-conv": {
          "skeleton": {
            "skeletonType": "LimbNode"
          }
        }
      },
      "name": "Bip001 R Calf",
      "rotation": [
        -2.603795409881664e-18,
        -8.995116841384408e-18,
        -0.18788659572601318,
        0.982190728187561
      ],
      "translation": [
        0.40254536271095276,
        0.0,
        -3.814697180359872e-08
      ]
    },
    {
      "children": [
        24
      ],
      "extras": {
        "FBX-glTF-conv": {
          "skeleton": {
            "skeletonType": "LimbNode"
          }
        }
      },
      "name": "Bip001 R Foot",
      "rotation": [
        0.14309509098529816,
        0.2421475052833557,
        0.10947832465171814,
        0.9533639550209045
      ],
      "translation": [
        0.39813876152038574,
        -1.668930060816365e-08,
        -3.814697180359872e-08
      ]
    },
    {
      "children": [
        25
      ],
      "extras": {
        "FBX-glTF-conv": {
          "skeleton": {
            "skeletonType": "LimbNode"
          }
        }
      },
      "name": "Bip001 R Toe0",
      "rotation": [
        2.1915359127433476e-07,
        -5.138306846674823e-07,
        0.6954527497291565,
        0.7185718417167664
      ],
      "translation": [
        0.10792405903339386,
        0.13871048390865326,
        7.105427198782324e-17
      ]
    },
    {
      "extras": {
        "FBX-glTF-conv": {
          "skeleton": {
            "skeletonType": "LimbNode"
          }
        }
      },
      "name": "Bip001 R Toe0Nub",
      "translation": [
        0.06367139518260956,
        0.0,
        3.814697180359872e-08
      ]
    }
  ],
  "scenes": [
    {
      "nodes": [
        0
      ]
    }
  ]
}