{
  "accessors": [
    {
      "bufferView": 0,
      "componentType": 5126,
      "count": 26,
      "name": "Bip001/translation/Output",
      "type": "VEC3"
    },
    {
      "bufferView": 1,
      "componentType": 5126,
      "count": 26,
      "max": [
        0.8666666746139526
      ],
      "min": [
        0.0
      ],
      "name": "Bip001/translation/Input",
      "type": "SCALAR"
    },
    {
      "bufferView": 2,
      "componentType": 5126,
      "count": 26,
      "name": "Bip001/rotation/Output",
      "type": "VEC4"
    },
    {
      "bufferView": 3,
      "componentType": 5126,
      "count": 26,
      "max": [
        0.8666666746139526
      ],
      "min": [
        0.0
      ],
      "name": "Bip001/rotation/Input",
      "type": "SCALAR"
    },
    {
      "bufferView": 4,
      "componentType": 5126,
      "count": 1,
      "name": "Bip001/scale/Output",
      "type": "VEC3"
    },
    {
      "bufferView": 5,
      "componentType": 5126,
      "count": 1,
      "max": [
        0.8666666746139526
      ],
      "min": [
        0.8666666746139526
      ],
      "name": "Bip001/scale/Input",
      "type": "SCALAR"
    },
    {
      "bufferView": 6,
      "componentType": 5126,
      "count": 1,
      "name": "Bip001 Pelvis/translation/Output",
      "type": "VEC3"
    },
    {
      "bufferView": 7,
      "componentType": 5126,
      "count": 1,
      "max": [
        0.8666666746139526
      ],
      "min": [
        0.8666666746139526
      ],
      "name": "Bip001 Pelvis/translation/Input",
      "type": "SCALAR"
    },
    {
      "bufferView": 8,
      "componentType": 5126,
      "count": 1,
      "name": "Bip001 Pelvis/rotation/Output",
      "type": "VEC4"
    },
    {
      "bufferView": 9,
      "componentType": 5126,
      "count": 1,
      "max": [
        0.8666666746139526
      ],
      "min": [
        0.8666666746139526
      ],
      "name": "Bip001 Pelvis/rotation/Input",
      "type": "SCALAR"
    },
    {
      "bufferView": 10,
      "componentType": 5126,
      "count": 1,
      "name": "Bip001 Pelvis/scale/Output",
      "type": "VEC3"
    },
    {
      "bufferView": 11,
      "componentType": 5126,
      "count": 1,
      "max": [
        0.8666666746139526
      ],
      "min": [
        0.8666666746139526
      ],
      "name": "Bip001 Pelvis/scale/Input",
      "type": "SCALAR"
    },
    {
      "bufferView": 12,
      "componentType": 5126,
      "count": 25,
      "name": "Bip001 Spine/translation/Output",
      "type": "VEC3"
    },
    {
      "bufferView": 13,
      "componentType": 5126,
      "count": 25,
      "max": [
        0.8666666746139526
      ],
      "min": [
        0.0
      ],
      "name": "Bip001 Spine/translation/Input",
      "type": "SCALAR"
    },
    {
      "bufferView": 14,
      "componentType": 5126,
      "count": 25,
      "name": "Bip001 Spine/rotation/Output",
      "type": "VEC4"
    },
    {
      "bufferView": 15,
      "componentType": 5126,
      "count": 25,
      "max": [
        0.8666666746139526
      ],
      "min": [
        0.0
      ],
      "name": "Bip001 Spine/rotation/Input",
      "type": "SCALAR"
    },
    {
      "bufferView": 16,
      "componentType": 5126,
      "count": 1,
      "name": "Bip001 Spine/scale/Output",
      "type": "VEC3"
    },
    {
      "bufferView": 17,
      "componentType": 5126,
      "count": 1,
      "max": [
        0.8666666746139526
      ],
      "min": [
        0.8666666746139526
      ],
      "name": "Bip001 Spine/scale/Input",
      "type": "SCALAR"
    },
    {
      "bufferView": 18,
      "componentType": 5126,
      "count": 18,
      "name": "Bip001 Spine1/translation/Output",
      "type": "VEC3"
    },
    {
      "bufferView": 19,
      "componentType": 5126,
      "count": 18,
      "max": [
        0.8666666746139526
      ],
      "min": [
        0.0
      ],
      "name": "Bip001 Spine1/translation/Input",
      "type": "SCALAR"
    },
    {
      "bufferView": 20,
      "componentType": 5126,
      "count": 25,
      "name": "Bip001 Spine1/rotation/Output",
      "type": "VEC4"
    },
    {
      "bufferView": 21,
      "componentType": 5126,
      "count": 25,
      "max": [
        0.8666666746139526
      ],
      "min": [
        0.0
      ],
      "name": "Bip001 Spine1/rotation/Input",
      "type": "SCALAR"
    },
    {
      "bufferView": 22,
      "componentType": 5126,
      "count": 1,
      "name": "Bip001 Spine1/scale/Output",
      "type": "VEC3"
    },
    {
      "bufferView": 23,
      "componentType": 5126,
      "count": 1,
      "max": [
        0.8666666746139526
      ],
      "min": [
        0.8666666746139526
      ],
      "name": "Bip001 Spine1/scale/Input",
      "type": "SCALAR"
    },
    {
      "bufferView": 24,
      "componentType": 5126,
      "count": 25,
      "name": "Bip001 Spine2/translation/Output",
      "type": "VEC3"
    },
    {
      "bufferView": 25,
      "componentType": 5126,
      "count": 25,
      "max": [
        0.8666666746139526
      ],
      "min": [
        0.0
      ],
      "name": "Bip001 Spine2/translation/Input",
      "type": "SCALAR"
    },
    {
      "bufferView": 26,
      "componentType": 5126,
      "count": 25,
      "name": "Bip001 Spine2/rotation/Output",
      "type": "VEC4"
    },
    {
      "bufferView": 27,
      "componentType": 5126,
      "count": 25,
      "max": [
        0.8666666746139526
      ],
      "min": [
        0.0
      ],
      "name": "Bip001 Spine2/rotation/Input",
      "type": "SCALAR"
    },
    {
      "bufferView": 28,
      "componentType": 5126,
      "count": 1,
      "name": "Bip001 Spine2/scale/Output",
      "type": "VEC3"
    },
    {
      "bufferView": 29,
      "componentType": 5126,
      "count": 1,
      "max": [
        0.8666666746139526
      ],
      "min": [
        0.8666666746139526
      ],
      "name": "Bip001 Spine2/scale/Input",
      "type": "SCALAR"
    },
    {
      "bufferView": 30,
      "componentType": 5126,
      "count": 15,
      "name": "Bip001 Neck/translation/Output",
      "type": "VEC3"
    },
    {
      "bufferView": 31,
      "componentType": 5126,
      "count": 15,
      "max": [
        0.8666666746139526
      ],
      "min": [
        0.0
      ],
      "name": "Bip001 Neck/translation/Input",
      "type": "SCALAR"
    },
    {
      "bufferView": 32,
      "componentType": 5126,
      "count": 1,
      "name": "Bip001 Neck/rotation/Output",
      "type": "VEC4"
    },
    {
      "bufferView": 33,
      "componentType": 5126,
      "count": 1,
      "max": [
        0.8666666746139526
      ],
      "min": [
        0.8666666746139526
      ],
      "name": "Bip001 Neck/rotation/Input",
      "type": "SCALAR"
    },
    {
      "bufferView": 34,
      "componentType": 5126,
      "count": 1,
      "name": "Bip001 Neck/scale/Output",
      "type": "VEC3"
    },
    {
      "bufferView": 35,
      "componentType": 5126,
      "count": 1,
      "max": [
        0.8666666746139526
      ],
      "min": [
        0.8666666746139526
      ],
      "name": "Bip001 Neck/scale/Input",
      "type": "SCALAR"
    },
    {
      "bufferView": 36,
      "componentType": 5126,
      "count": 13,
      "name": "Bip001 L Clavicle/translation/Output",
      "type": "VEC3"
    },
    {
      "bufferView": 37,
      "componentType": 5126,
      "count": 13,
      "max": [
        0.8666666746139526
      ],
      "min": [
        0.0
      ],
      "name": "Bip001 L Clavicle/translation/Input",
      "type": "SCALAR"
    },
    {
      "bufferView": 38,
      "componentType": 5126,
      "count": 27,
      "name": "Bip001 L Clavicle/rotation/Output",
      "type": "VEC4"
    },
    {
      "bufferView": 39,
      "componentType": 5126,
      "count": 27,
      "max": [
        0.8666666746139526
      ],
      "min": [
        0.0
      ],
      "name": "Bip001 L Clavicle/rotation/Input",
      "type": "SCALAR"
    },
    {
      "bufferView": 40,
      "componentType": 5126,
      "count": 1,
      "name": "Bip001 L Clavicle/scale/Output",
      "type": "VEC3"
    },
    {
      "bufferView": 41,
      "componentType": 5126,
      "count": 1,
      "max": [
        0.8666666746139526
      ],
      "min": [
        0.8666666746139526
      ],
      "name": "Bip001 L Clavicle/scale/Input",
      "type": "SCALAR"
    },
    {
      "bufferView": 42,
      "componentType": 5126,
      "count": 14,
      "name": "Bip001 L UpperArm/translation/Output",
      "type": "VEC3"
    },
    {
      "bufferView": 43,
      "componentType": 5126,
      "count": 14,
      "max": [
        0.8666666746139526
      ],
      "min": [
        0.0
      ],
      "name": "Bip001 L UpperArm/translation/Input",
      "type": "SCALAR"
    },
    {
      "bufferView": 44,
      "componentType": 5126,
      "count": 27,
      "name": "Bip001 L UpperArm/rotation/Output",
      "type": "VEC4"
    },
    {
      "bufferView": 45,
      "componentType": 5126,
      "count": 27,
      "max": [
        0.8666666746139526
      ],
      "min": [
        0.0
      ],
      "name": "Bip001 L UpperArm/rotation/Input",
      "type": "SCALAR"
    },
    {
      "bufferView": 46,
      "componentType": 5126,
      "count": 1,
      "name": "Bip001 L UpperArm/scale/Output",
      "type": "VEC3"
    },
    {
      "bufferView": 47,
      "componentType": 5126,
      "count": 1,
      "max": [
        0.8666666746139526
      ],
      "min": [
        0.8666666746139526
      ],
      "name": "Bip001 L UpperArm/scale/Input",
      "type": "SCALAR"
    },
    {
      "bufferView": 48,
      "componentType": 5126,
      "count": 14,
      "name": "Bip001 L Forearm/translation/Output",
      "type": "VEC3"
    },
    {
      "bufferView": 49,
      "componentType": 5126,
      "count": 14,
      "max": [
        0.8666666746139526
      ],
      "min": [
        0.03333333507180214
      ],
      "name": "Bip001 L Forearm/translation/Input",
      "type": "SCALAR"
    },
    {
      "bufferView": 50,
      "componentType": 5126,
      "count": 24,
      "name": "Bip001 L Forearm/rotation/Output",
      "type": "VEC4"
    },
    {
      "bufferView": 51,
      "componentType": 5126,
      "count": 24,
      "max": [
        0.8666666746139526
      ],
      "min": [
        0.0
      ],
      "name": "Bip001 L Forearm/rotation/Input",
      "type": "SCALAR"
    },
    {
      "bufferView": 52,
      "componentType": 5126,
      "count": 1,
      "name": "Bip001 L Forearm/scale/Output",
      "type": "VEC3"
    },
    {
      "bufferView": 53,
      "componentType": 5126,
      "count": 1,
      "max": [
        0.8666666746139526
      ],
      "min": [
        0.8666666746139526
      ],
      "name": "Bip001 L Forearm/scale/Input",
      "type": "SCALAR"
    },
    {
      "bufferView": 54,
      "componentType": 5126,
      "count": 17,
      "name": "Bip001 L Hand/translation/Output",
      "type": "VEC3"
    },
    {
      "bufferView": 55,
      "componentType": 5126,
      "count": 17,
      "max": [
        0.8666666746139526
      ],
      "min": [
        0.03333333507180214
      ],
      "name": "Bip001 L Hand/translation/Input",
      "type": "SCALAR"
    },
    {
      "bufferView": 56,
      "componentType": 5126,
      "count": 24,
      "name": "Bip001 L Hand/rotation/Output",
      "type": "VEC4"
    },
    {
      "bufferView": 57,
      "componentType": 5126,
      "count": 24,
      "max": [
        0.8666666746139526
      ],
      "min": [
        0.0
      ],
      "name": "Bip001 L Hand/rotation/Input",
      "type": "SCALAR"
    },
    {
      "bufferView": 58,
      "componentType": 5126,
      "count": 1,
      "name": "Bip001 L Hand/scale/Output",
      "type": "VEC3"
    },
    {
      "bufferView": 59,
      "componentType": 5126,
      "count": 1,
      "max": [
        0.8666666746139526
      ],
      "min": [
        0.8666666746139526
      ],
      "name": "Bip001 L Hand/scale/Input",
      "type": "SCALAR"
    },
    {
      "bufferView": 60,
      "componentType": 5126,
      "count": 1,
      "name": "mixamorig:LeftHand/rotation/Output",
      "type": "VEC4"
    },
    {
      "bufferView": 61,
      "componentType": 5126,
      "count": 1,
      "max": [
        0.8666666746139526
      ],
      "min": [
        0.8666666746139526
      ],
      "name": "mixamorig:LeftHand/rotation/Input",
      "type": "SCALAR"
    },
    {
      "bufferView": 62,
      "componentType": 5126,
      "count": 1,
      "name": "mixamorig:LeftForeArm/rotation/Output",
      "type": "VEC4"
    },
    {
      "bufferView": 63,
      "componentType": 5126,
      "count": 1,
      "max": [
        0.8666666746139526
      ],
      "min": [
        0.8666666746139526
      ],
      "name": "mixamorig:LeftForeArm/rotation/Input",
      "type": "SCALAR"
    },
    {
      "bufferView": 64,
      "componentType": 5126,
      "count": 1,
      "name": "mixamorig:LeftArm/rotation/Output",
      "type": "VEC4"
    },
    {
      "bufferView": 65,
      "componentType": 5126,
      "count": 1,
      "max": [
        0.8666666746139526
      ],
      "min": [
        0.8666666746139526
      ],
      "name": "mixamorig:LeftArm/rotation/Input",
      "type": "SCALAR"
    },
    {
      "bufferView": 66,
      "componentType": 5126,
      "count": 1,
      "name": "mixamorig:LeftShoulder/rotation/Output",
      "type": "VEC4"
    },
    {
      "bufferView": 67,
      "componentType": 5126,
      "count": 1,
      "max": [
        0.8666666746139526
      ],
      "min": [
        0.8666666746139526
      ],
      "name": "mixamorig:LeftShoulder/rotation/Input",
      "type": "SCALAR"
    },
    {
      "bufferView": 68,
      "componentType": 5126,
      "count": 14,
      "name": "Bip001 R Clavicle/translation/Output",
      "type": "VEC3"
    },
    {
      "bufferView": 69,
      "componentType": 5126,
      "count": 14,
      "max": [
        0.8666666746139526
      ],
      "min": [
        0.0
      ],
      "name": "Bip001 R Clavicle/translation/Input",
      "type": "SCALAR"
    },
    {
      "bufferView": 70,
      "componentType": 5126,
      "count": 27,
      "name": "Bip001 R Clavicle/rotation/Output",
      "type": "VEC4"
    },
    {
      "bufferView": 71,
      "componentType": 5126,
      "count": 27,
      "max": [
        0.8666666746139526
      ],
      "min": [
        0.0
      ],
      "name": "Bip001 R Clavicle/rotation/Input",
      "type": "SCALAR"
    },
    {
      "bufferView": 72,
      "componentType": 5126,
      "count": 1,
      "name": "Bip001 R Clavicle/scale/Output",
      "type": "VEC3"
    },
    {
      "bufferView": 73,
      "componentType": 5126,
      "count": 1,
      "max": [
        0.8666666746139526
      ],
      "min": [
        0.8666666746139526
      ],
      "name": "Bip001 R Clavicle/scale/Input",
      "type": "SCALAR"
    },
    {
      "bufferView": 74,
      "componentType": 5126,
      "count": 16,
      "name": "Bip001 R UpperArm/translation/Output",
      "type": "VEC3"
    },
    {
      "bufferView": 75,
      "componentType": 5126,
      "count": 16,
      "max": [
        0.8666666746139526
      ],
      "min": [
        0.0
      ],
      "name": "Bip001 R UpperArm/translation/Input",
      "type": "SCALAR"
    },
    {
      "bufferView": 76,
      "componentType": 5126,
      "count": 27,
      "name": "Bip001 R UpperArm/rotation/Output",
      "type": "VEC4"
    },
    {
      "bufferView": 77,
      "componentType": 5126,
      "count": 27,
      "max": [
        0.8666666746139526
      ],
      "min": [
        0.0
      ],
      "name": "Bip001 R UpperArm/rotation/Input",
      "type": "SCALAR"
    },
    {
      "bufferView": 78,
      "componentType": 5126,
      "count": 1,
      "name": "Bip001 R UpperArm/scale/Output",
      "type": "VEC3"
    },
    {
      "bufferView": 79,
      "componentType": 5126,
      "count": 1,
      "max": [
        0.8666666746139526
      ],
      "min": [
        0.8666666746139526
      ],
      "name": "Bip001 R UpperArm/scale/Input",
      "type": "SCALAR"
    },
    {
      "bufferView": 80,
      "componentType": 5126,
      "count": 10,
      "name": "Bip001 R Forearm/translation/Output",
      "type": "VEC3"
    },
    {
      "bufferView": 81,
      "componentType": 5126,
      "count": 10,
      "max": [
        0.8333333134651184
      ],
      "min": [
        0.23333333432674408
      ],
      "name": "Bip001 R Forearm/translation/Input",
      "type": "SCALAR"
    },
    {
      "bufferView": 82,
      "componentType": 5126,
      "count": 26,
      "name": "Bip001 R Forearm/rotation/Output",
      "type": "VEC4"
    },
    {
      "bufferView": 83,
      "componentType": 5126,
      "count": 26,
      "max": [
        0.8666666746139526
      ],
      "min": [
        0.0
      ],
      "name": "Bip001 R Forearm/rotation/Input",
      "type": "SCALAR"
    },
    {
      "bufferView": 84,
      "componentType": 5126,
      "count": 1,
      "name": "Bip001 R Forearm/scale/Output",
      "type": "VEC3"
    },
    {
      "bufferView": 85,
      "componentType": 5126,
      "count": 1,
      "max": [
        0.8666666746139526
      ],
      "min": [
        0.8666666746139526
      ],
      "name": "Bip001 R Forearm/scale/Input",
      "type": "SCALAR"
    },
    {
      "bufferView": 86,
      "componentType": 5126,
      "count": 14,
      "name": "Bip001 R Hand/translation/Output",
      "type": "VEC3"
    },
    {
      "bufferView": 87,
      "componentType": 5126,
      "count": 14,
      "max": [
        0.8666666746139526
      ],
      "min": [
        0.03333333507180214
      ],
      "name": "Bip001 R Hand/translation/Input",
      "type": "SCALAR"
    },
    {
      "bufferView": 88,
      "componentType": 5126,
      "count": 26,
      "name": "Bip001 R Hand/rotation/Output",
      "type": "VEC4"
    },
    {
      "bufferView": 89,
      "componentType": 5126,
      "count": 26,
      "max": [
        0.8666666746139526
      ],
      "min": [
        0.0
      ],
      "name": "Bip001 R Hand/rotation/Input",
      "type": "SCALAR"
    },
    {
      "bufferView": 90,
      "componentType": 5126,
      "count": 1,
      "name": "Bip001 R Hand/scale/Output",
      "type": "VEC3"
    },
    {
      "bufferView": 91,
      "componentType": 5126,
      "count": 1,
      "max": [
        0.8666666746139526
      ],
      "min": [
        0.8666666746139526
      ],
      "name": "Bip001 R Hand/scale/Input",
      "type": "SCALAR"
    },
    {
      "bufferView": 92,
      "componentType": 5126,
      "count": 1,
      "name": "mixamorig:RightHand/rotation/Output",
      "type": "VEC4"
    },
    {
      "bufferView": 93,
      "componentType": 5126,
      "count": 1,
      "max": [
        0.8666666746139526
      ],
      "min": [
        0.8666666746139526
      ],
      "name": "mixamorig:RightHand/rotation/Input",
      "type": "SCALAR"
    },
    {
      "bufferView": 94,
      "componentType": 5126,
      "count": 1,
      "name": "mixamorig:RightForeArm/rotation/Output",
      "type": "VEC4"
    },
    {
      "bufferView": 95,
      "componentType": 5126,
      "count": 1,
      "max": [
        0.8666666746139526
      ],
      "min": [
        0.8666666746139526
      ],
      "name": "mixamorig:RightForeArm/rotation/Input",
      "type": "SCALAR"
    },
    {
      "bufferView": 96,
      "componentType": 5126,
      "count": 1,
      "name": "mixamorig:RightArm/rotation/Output",
      "type": "VEC4"
    },
    {
      "bufferView": 97,
      "componentType": 5126,
      "count": 1,
      "max": [
        0.8666666746139526
      ],
      "min": [
        0.8666666746139526
      ],
      "name": "mixamorig:RightArm/rotation/Input",
      "type": "SCALAR"
    },
    {
      "bufferView": 98,
      "componentType": 5126,
      "count": 1,
      "name": "mixamorig:RightShoulder/rotation/Output",
      "type": "VEC4"
    },
    {
      "bufferView": 99,
      "componentType": 5126,
      "count": 1,
      "max": [
        0.8666666746139526
      ],
      "min": [
        0.8666666746139526
      ],
      "name": "mixamorig:RightShoulder/rotation/Input",
      "type": "SCALAR"
    },
    {
      "bufferView": 100,
      "componentType": 5126,
      "count": 21,
      "name": "Bip001 Head/translation/Output",
      "type": "VEC3"
    },
    {
      "bufferView": 101,
      "componentType": 5126,
      "count": 21,
      "max": [
        0.8666666746139526
      ],
      "min": [
        0.0
      ],
      "name": "Bip001 Head/translation/Input",
      "type": "SCALAR"
    },
    {
      "bufferView": 102,
      "componentType": 5126,
      "count": 27,
      "name": "Bip001 Head/rotation/Output",
      "type": "VEC4"
    },
    {
      "bufferView": 103,
      "componentType": 5126,
      "count": 27,
      "max": [
        0.8666666746139526
      ],
      "min": [
        0.0
      ],
      "name": "Bip001 Head/rotation/Input",
      "type": "SCALAR"
    },
    {
      "bufferView": 104,
      "componentType": 5126,
      "count": 1,
      "name": "Bip001 Head/scale/Output",
      "type": "VEC3"
    },
    {
      "bufferView": 105,
      "componentType": 5126,
      "count": 1,
      "max": [
        0.8666666746139526
      ],
      "min": [
        0.8666666746139526
      ],
      "name": "Bip001 Head/scale/Input",
      "type": "SCALAR"
    },
    {
      "bufferView": 106,
      "componentType": 5126,
      "count": 1,
      "name": "mixamorig:Head/rotation/Output",
      "type": "VEC4"
    },
    {
      "bufferView": 107,
      "componentType": 5126,
      "count": 1,
      "max": [
        0.8666666746139526
      ],
      "min": [
        0.8666666746139526
      ],
      "name": "mixamorig:Head/rotation/Input",
      "type": "SCALAR"
    },
    {
      "bufferView": 108,
      "componentType": 5126,
      "count": 1,
      "name": "mixamorig:HeadTop_End/rotation/Output",
      "type": "VEC4"
    },
    {
      "bufferView": 109,
      "componentType": 5126,
      "count": 1,
      "max": [
        0.8666666746139526
      ],
      "min": [
        0.8666666746139526
      ],
      "name": "mixamorig:HeadTop_End/rotation/Input",
      "type": "SCALAR"
    },
    {
      "bufferView": 110,
      "componentType": 5126,
      "count": 1,
      "name": "mixamorig:Neck/rotation/Output",
      "type": "VEC4"
    },
    {
      "bufferView": 111,
      "componentType": 5126,
      "count": 1,
      "max": [
        0.8666666746139526
      ],
      "min": [
        0.8666666746139526
      ],
      "name": "mixamorig:Neck/rotation/Input",
      "type": "SCALAR"
    },
    {
      "bufferView": 112,
      "componentType": 5126,
      "count": 1,
      "name": "mixamorig:Spine2/rotation/Output",
      "type": "VEC4"
    },
    {
      "bufferView": 113,
      "componentType": 5126,
      "count": 1,
      "max": [
        0.8666666746139526
      ],
      "min": [
        0.8666666746139526
      ],
      "name": "mixamorig:Spine2/rotation/Input",
      "type": "SCALAR"
    },
    {
      "bufferView": 114,
      "componentType": 5126,
      "count": 1,
      "name": "mixamorig:Spine1/rotation/Output",
      "type": "VEC4"
    },
    {
      "bufferView": 115,
      "componentType": 5126,
      "count": 1,
      "max": [
        0.8666666746139526
      ],
      "min": [
        0.8666666746139526
      ],
      "name": "mixamorig:Spine1/rotation/Input",
      "type": "SCALAR"
    },
    {
      "bufferView": 116,
      "componentType": 5126,
      "count": 27,
      "name": "Bip001 L Thigh/translation/Output",
      "type": "VEC3"
    },
    {
      "bufferView": 117,
      "componentType": 5126,
      "count": 27,
      "max": [
        0.8666666746139526
      ],
      "min": [
        0.0
      ],
      "name": "Bip001 L Thigh/translation/Input",
      "type": "SCALAR"
    },
    {
      "bufferView": 118,
      "componentType": 5126,
      "count": 27,
      "name": "Bip001 L Thigh/rotation/Output",
      "type": "VEC4"
    },
    {
      "bufferView": 119,
      "componentType": 5126,
      "count": 27,
      "max": [
        0.8666666746139526
      ],
      "min": [
        0.0
      ],
      "name": "Bip001 L Thigh/rotation/Input",
      "type": "SCALAR"
    },
    {
      "bufferView": 120,
      "componentType": 5126,
      "count": 1,
      "name": "Bip001 L Thigh/scale/Output",
      "type": "VEC3"
    },
    {
      "bufferView": 121,
      "componentType": 5126,
      "count": 1,
      "max": [
        0.8666666746139526
      ],
      "min": [
        0.8666666746139526
      ],
      "name": "Bip001 L Thigh/scale/Input",
      "type": "SCALAR"
    },
    {
      "bufferView": 122,
      "componentType": 5126,
      "count": 5,
      "name": "Bip001 L Calf/translation/Output",
      "type": "VEC3"
    },
    {
      "bufferView": 123,
      "componentType": 5126,
      "count": 5,
      "max": [
        0.699999988079071
      ],
      "min": [
        0.0
      ],
      "name": "Bip001 L Calf/translation/Input",
      "type": "SCALAR"
    },
    {
      "bufferView": 124,
      "componentType": 5126,
      "count": 27,
      "name": "Bip001 L Calf/rotation/Output",
      "type": "VEC4"
    },
    {
      "bufferView": 125,
      "componentType": 5126,
      "count": 27,
      "max": [
        0.8666666746139526
      ],
      "min": [
        0.0
      ],
      "name": "Bip001 L Calf/rotation/Input",
      "type": "SCALAR"
    },
    {
      "bufferView": 126,
      "componentType": 5126,
      "count": 1,
      "name": "Bip001 L Calf/scale/Output",
      "type": "VEC3"
    },
    {
      "bufferView": 127,
      "componentType": 5126,
      "count": 1,
      "max": [
        0.8666666746139526
      ],
      "min": [
        0.8666666746139526
      ],
      "name": "Bip001 L Calf/scale/Input",
      "type": "SCALAR"
    },
    {
      "bufferView": 128,
      "componentType": 5126,
      "count": 12,
      "name": "Bip001 L Foot/translation/Output",
      "type": "VEC3"
    },
    {
      "bufferView": 129,
      "componentType": 5126,
      "count": 12,
      "max": [
        0.8666666746139526
      ],
      "min": [
        0.23333333432674408
      ],
      "name": "Bip001 L Foot/translation/Input",
      "type": "SCALAR"
    },
    {
      "bufferView": 130,
      "componentType": 5126,
      "count": 27,
      "name": "Bip001 L Foot/rotation/Output",
      "type": "VEC4"
    },
    {
      "bufferView": 131,
      "componentType": 5126,
      "count": 27,
      "max": [
        0.8666666746139526
      ],
      "min": [
        0.0
      ],
      "name": "Bip001 L Foot/rotation/Input",
      "type": "SCALAR"
    },
    {
      "bufferView": 132,
      "componentType": 5126,
      "count": 1,
      "name": "Bip001 L Foot/scale/Output",
      "type": "VEC3"
    },
    {
      "bufferView": 133,
      "componentType": 5126,
      "count": 1,
      "max": [
        0.8666666746139526
      ],
      "min": [
        0.8666666746139526
      ],
      "name": "Bip001 L Foot/scale/Input",
      "type": "SCALAR"
    },
    {
      "bufferView": 134,
      "componentType": 5126,
      "count": 1,
      "name": "Bip001 L Toe0/translation/Output",
      "type": "VEC3"
    },
    {
      "bufferView": 135,
      "componentType": 5126,
      "count": 1,
      "max": [
        0.8666666746139526
      ],
      "min": [
        0.8666666746139526
      ],
      "name": "Bip001 L Toe0/translation/Input",
      "type": "SCALAR"
    },
    {
      "bufferView": 136,
      "componentType": 5126,
      "count": 23,
      "name": "Bip001 L Toe0/rotation/Output",
      "type": "VEC4"
    },
    {
      "bufferView": 137,
      "componentType": 5126,
      "count": 23,
      "max": [
        0.8666666746139526
      ],
      "min": [
        0.0
      ],
      "name": "Bip001 L Toe0/rotation/Input",
      "type": "SCALAR"
    },
    {
      "bufferView": 138,
      "componentType": 5126,
      "count": 1,
      "name": "Bip001 L Toe0/scale/Output",
      "type": "VEC3"
    },
    {
      "bufferView": 139,
      "componentType": 5126,
      "count": 1,
      "max": [
        0.8666666746139526
      ],
      "min": [
        0.8666666746139526
      ],
      "name": "Bip001 L Toe0/scale/Input",
      "type": "SCALAR"
    },
    {
      "bufferView": 140,
      "componentType": 5126,
      "count": 1,
      "name": "mixamorig:LeftToe_End/rotation/Output",
      "type": "VEC4"
    },
    {
      "bufferView": 141,
      "componentType": 5126,
      "count": 1,
      "max": [
        0.8666666746139526
      ],
      "min": [
        0.8666666746139526
      ],
      "name": "mixamorig:LeftToe_End/rotation/Input",
      "type": "SCALAR"
    },
    {
      "bufferView": 142,
      "componentType": 5126,
      "count": 1,
      "name": "mixamorig:LeftFoot/rotation/Output",
      "type": "VEC4"
    },
    {
      "bufferView": 143,
      "componentType": 5126,
      "count": 1,
      "max": [
        0.8666666746139526
      ],
      "min": [
        0.8666666746139526
      ],
      "name": "mixamorig:LeftFoot/rotation/Input",
      "type": "SCALAR"
    },
    {
      "bufferView": 144,
      "componentType": 5126,
      "count": 1,
      "name": "mixamorig:LeftToeBase/rotation/Output",
      "type": "VEC4"
    },
    {
      "bufferView": 145,
      "componentType": 5126,
      "count": 1,
      "max": [
        0.8666666746139526
      ],
      "min": [
        0.8666666746139526
      ],
      "name": "mixamorig:LeftToeBase/rotation/Input",
      "type": "SCALAR"
    },
    {
      "bufferView": 146,
      "componentType": 5126,
      "count": 1,
      "name": "mixamorig:LeftLeg/rotation/Output",
      "type": "VEC4"
    },
    {
      "bufferView": 147,
      "componentType": 5126,
      "count": 1,
      "max": [
        0.8666666746139526
      ],
      "min": [
        0.8666666746139526
      ],
      "name": "mixamorig:LeftLeg/rotation/Input",
      "type": "SCALAR"
    },
    {
      "bufferView": 148,
      "componentType": 5126,
      "count": 1,
      "name": "mixamorig:LeftUpLeg/rotation/Output",
      "type": "VEC4"
    },
    {
      "bufferView": 149,
      "componentType": 5126,
      "count": 1,
      "max": [
        0.8666666746139526
      ],
      "min": [
        0.8666666746139526
      ],
      "name": "mixamorig:LeftUpLeg/rotation/Input",
      "type": "SCALAR"
    },
    {
      "bufferView": 150,
      "componentType": 5126,
      "count": 27,
      "name": "Bip001 R Thigh/translation/Output",
      "type": "VEC3"
    },
    {
      "bufferView": 151,
      "componentType": 5126,
      "count": 27,
      "max": [
        0.8666666746139526
      ],
      "min": [
        0.0
      ],
      "name": "Bip001 R Thigh/translation/Input",
      "type": "SCALAR"
    },
    {
      "bufferView": 152,
      "componentType": 5126,
      "count": 27,
      "name": "Bip001 R Thigh/rotation/Output",
      "type": "VEC4"
    },
    {
      "bufferView": 153,
      "componentType": 5126,
      "count": 27,
      "max": [
        0.8666666746139526
      ],
      "min": [
        0.0
      ],
      "name": "Bip001 R Thigh/rotation/Input",
      "type": "SCALAR"
    },
    {
      "bufferView": 154,
      "componentType": 5126,
      "count": 1,
      "name": "Bip001 R Thigh/scale/Output",
      "type": "VEC3"
    },
    {
      "bufferView": 155,
      "componentType": 5126,
      "count": 1,
      "max": [
        0.8666666746139526
      ],
      "min": [
        0.8666666746139526
      ],
      "name": "Bip001 R Thigh/scale/Input",
      "type": "SCALAR"
    },
    {
      "bufferView": 156,
      "componentType": 5126,
      "count": 9,
      "name": "Bip001 R Calf/translation/Output",
      "type": "VEC3"
    },
    {
      "bufferView": 157,
      "componentType": 5126,
      "count": 9,
      "max": [
        0.8666666746139526
      ],
      "min": [
        0.10000000149011612
      ],
      "name": "Bip001 R Calf/translation/Input",
      "type": "SCALAR"
    },
    {
      "bufferView": 158,
      "componentType": 5126,
      "count": 26,
      "name": "Bip001 R Calf/rotation/Output",
      "type": "VEC4"
    },
    {
      "bufferView": 159,
      "componentType": 5126,
      "count": 26,
      "max": [
        0.8666666746139526
      ],
      "min": [
        0.0
      ],
      "name": "Bip001 R Calf/rotation/Input",
      "type": "SCALAR"
    },
    {
      "bufferView": 160,
      "componentType": 5126,
      "count": 1,
      "name": "Bip001 R Calf/scale/Output",
      "type": "VEC3"
    },
    {
      "bufferView": 161,
      "componentType": 5126,
      "count": 1,
      "max": [
        0.8666666746139526
      ],
      "min": [
        0.8666666746139526
      ],
      "name": "Bip001 R Calf/scale/Input",
      "type": "SCALAR"
    },
    {
      "bufferView": 162,
      "componentType": 5126,
      "count": 8,
      "name": "Bip001 R Foot/translation/Output",
      "type": "VEC3"
    },
    {
      "bufferView": 163,
      "componentType": 5126,
      "count": 8,
      "max": [
        0.8333333134651184
      ],
      "min": [
        0.10000000149011612
      ],
      "name": "Bip001 R Foot/translation/Input",
      "type": "SCALAR"
    },
    {
      "bufferView": 164,
      "componentType": 5126,
      "count": 27,
      "name": "Bip001 R Foot/rotation/Output",
      "type": "VEC4"
    },
    {
      "bufferView": 165,
      "componentType": 5126,
      "count": 27,
      "max": [
        0.8666666746139526
      ],
      "min": [
        0.0
      ],
      "name": "Bip001 R Foot/rotation/Input",
      "type": "SCALAR"
    },
    {
      "bufferView": 166,
      "componentType": 5126,
      "count": 1,
      "name": "Bip001 R Foot/scale/Output",
      "type": "VEC3"
    },
    {
      "bufferView": 167,
      "componentType": 5126,
      "count": 1,
      "max": [
        0.8666666746139526
      ],
      "min": [
        0.8666666746139526
      ],
      "name": "Bip001 R Foot/scale/Input",
      "type": "SCALAR"
    },
    {
      "bufferView": 168,
      "componentType": 5126,
      "count": 1,
      "name": "Bip001 R Toe0/translation/Output",
      "type": "VEC3"
    },
    {
      "bufferView": 169,
      "componentType": 5126,
      "count": 1,
      "max": [
        0.8666666746139526
      ],
      "min": [
        0.8666666746139526
      ],
      "name": "Bip001 R Toe0/translation/Input",
      "type": "SCALAR"
    },
    {
      "bufferView": 170,
      "componentType": 5126,
      "count": 25,
      "name": "Bip001 R Toe0/rotation/Output",
      "type": "VEC4"
    },
    {
      "bufferView": 171,
      "componentType": 5126,
      "count": 25,
      "max": [
        0.8666666746139526
      ],
      "min": [
        0.0
      ],
      "name": "Bip001 R Toe0/rotation/Input",
      "type": "SCALAR"
    },
    {
      "bufferView": 172,
      "componentType": 5126,
      "count": 1,
      "name": "Bip001 R Toe0/scale/Output",
      "type": "VEC3"
    },
    {
      "bufferView": 173,
      "componentType": 5126,
      "count": 1,
      "max": [
        0.8666666746139526
      ],
      "min": [
        0.8666666746139526
      ],
      "name": "Bip001 R Toe0/scale/Input",
      "type": "SCALAR"
    },
    {
      "bufferView": 174,
      "componentType": 5126,
      "count": 1,
      "name": "mixamorig:RightToe_End/rotation/Output",
      "type": "VEC4"
    },
    {
      "bufferView": 175,
      "componentType": 5126,
      "count": 1,
      "max": [
        0.8666666746139526
      ],
      "min": [
        0.8666666746139526
      ],
      "name": "mixamorig:RightToe_End/rotation/Input",
      "type": "SCALAR"
    },
    {
      "bufferView": 176,
      "componentType": 5126,
      "count": 1,
      "name": "mixamorig:RightFoot/rotation/Output",
      "type": "VEC4"
    },
    {
      "bufferView": 177,
      "componentType": 5126,
      "count": 1,
      "max": [
        0.8666666746139526
      ],
      "min": [
        0.8666666746139526
      ],
      "name": "mixamorig:RightFoot/rotation/Input",
      "type": "SCALAR"
    },
    {
      "bufferView": 178,
      "componentType": 5126,
      "count": 1,
      "name": "mixamorig:RightToeBase/rotation/Output",
      "type": "VEC4"
    },
    {
      "bufferView": 179,
      "componentType": 5126,
      "count": 1,
      "max": [
        0.8666666746139526
      ],
      "min": [
        0.8666666746139526
      ],
      "name": "mixamorig:RightToeBase/rotation/Input",
      "type": "SCALAR"
    },
    {
      "bufferView": 180,
      "componentType": 5126,
      "count": 1,
      "name": "mixamorig:RightLeg/rotation/Output",
      "type": "VEC4"
    },
    {
      "bufferView": 181,
      "componentType": 5126,
      "count": 1,
      "max": [
        0.8666666746139526
      ],
      "min": [
        0.8666666746139526
      ],
      "name": "mixamorig:RightLeg/rotation/Input",
      "type": "SCALAR"
    },
    {
      "bufferView": 182,
      "componentType": 5126,
      "count": 1,
      "name": "mixamorig:RightUpLeg/rotation/Output",
      "type": "VEC4"
    },
    {
      "bufferView": 183,
      "componentType": 5126,
      "count": 1,
      "max": [
        0.8666666746139526
      ],
      "min": [
        0.8666666746139526
      ],
      "name": "mixamorig:RightUpLeg/rotation/Input",
      "type": "SCALAR"
    },
    {
      "bufferView": 184,
      "componentType": 5126,
      "count": 1,
      "name": "mixamorig:Spine/rotation/Output",
      "type": "VEC4"
    },
    {
      "bufferView": 185,
      "componentType": 5126,
      "count": 1,
      "max": [
        0.8666666746139526
      ],
      "min": [
        0.8666666746139526
      ],
      "name": "mixamorig:Spine/rotation/Input",
      "type": "SCALAR"
    },
    {
      "bufferView": 186,
      "componentType": 5126,
      "count": 1,
      "name": "mixamorig:Hips/rotation/Output",
      "type": "VEC4"
    },
    {
      "bufferView": 187,
      "componentType": 5126,
      "count": 1,
      "max": [
        0.8666666746139526
      ],
      "min": [
        0.8666666746139526
      ],
      "name": "mixamorig:Hips/rotation/Input",
      "type": "SCALAR"
    }
  ],
  "animations": [
    {
      "channels": [
        {
          "sampler": 0,
          "target": {
            "node": 0,
            "path": "translation"
          }
        },
        {
          "sampler": 1,
          "target": {
            "node": 0,
            "path": "rotation"
          }
        },
        {
          "sampler": 2,
          "target": {
            "node": 0,
            "path": "scale"
          }
        },
        {
          "sampler": 3,
          "target": {
            "node": 1,
            "path": "translation"
          }
        },
        {
          "sampler": 4,
          "target": {
            "node": 1,
            "path": "rotation"
          }
        },
        {
          "sampler": 5,
          "target": {
            "node": 1,
            "path": "scale"
          }
        },
        {
          "sampler": 6,
          "target": {
            "node": 2,
            "path": "translation"
          }
        },
        {
          "sampler": 7,
          "target": {
            "node": 2,
            "path": "rotation"
          }
        },
        {
          "sampler": 8,
          "target": {
            "node": 2,
            "path": "scale"
          }
        },
        {
          "sampler": 9,
          "target": {
            "node": 3,
            "path": "translation"
          }
        },
        {
          "sampler": 10,
          "target": {
            "node": 3,
            "path": "rotation"
          }
        },
        {
          "sampler": 11,
          "target": {
            "node": 3,
            "path": "scale"
          }
        },
        {
          "sampler": 12,
          "target": {
            "node": 4,
            "path": "translation"
          }
        },
        {
          "sampler": 13,
          "target": {
            "node": 4,
            "path": "rotation"
          }
        },
        {
          "sampler": 14,
          "target": {
            "node": 4,
            "path": "scale"
          }
        },
        {
          "sampler": 15,
          "target": {
            "node": 5,
            "path": "translation"
          }
        },
        {
          "sampler": 16,
          "target": {
            "node": 5,
            "path": "rotation"
          }
        },
        {
          "sampler": 17,
          "target": {
            "node": 5,
            "path": "scale"
          }
        },
        {
          "sampler": 18,
          "target": {
            "node": 6,
            "path": "translation"
          }
        },
        {
          "sampler": 19,
          "target": {
            "node": 6,
            "path": "rotation"
          }
        },
        {
          "sampler": 20,
          "target": {
            "node": 6,
            "path": "scale"
          }
        },
        {
          "sampler": 21,
          "target": {
            "node": 7,
            "path": "translation"
          }
        },
        {
          "sampler": 22,
          "target": {
            "node": 7,
            "path": "rotation"
          }
        },
        {
          "sampler": 23,
          "target": {
            "node": 7,
            "path": "scale"
          }
        },
        {
          "sampler": 24,
          "target": {
            "node": 8,
            "path": "translation"
          }
        },
        {
          "sampler": 25,
          "target": {
            "node": 8,
            "path": "rotation"
          }
        },
        {
          "sampler": 26,
          "target": {
            "node": 8,
            "path": "scale"
          }
        },
        {
          "sampler": 27,
          "target": {
            "node": 9,
            "path": "translation"
          }
        },
        {
          "sampler": 28,
          "target": {
            "node": 9,
            "path": "rotation"
          }
        },
        {
          "sampler": 29,
          "target": {
            "node": 9,
            "path": "scale"
          }
        },
        {
          "sampler": 30,
          "target": {
            "node": 10,
            "path": "rotation"
          }
        },
        {
          "sampler": 31,
          "target": {
            "node": 11,
            "path": "rotation"
          }
        },
        {
          "sampler": 32,
          "target": {
            "node": 12,
            "path": "rotation"
          }
        },
        {
          "sampler": 33,
          "target": {
            "node": 13,
            "path": "rotation"
          }
        },
        {
          "sampler": 34,
          "target": {
            "node": 14,
            "path": "translation"
          }
        },
        {
          "sampler": 35,
          "target": {
            "node": 14,
            "path": "rotation"
          }
        },
        {
          "sampler": 36,
          "target": {
            "node": 14,
            "path": "scale"
          }
        },
        {
          "sampler": 37,
          "target": {
            "node": 15,
            "path": "translation"
          }
        },
        {
          "sampler": 38,
          "target": {
            "node": 15,
            "path": "rotation"
          }
        },
        {
          "sampler": 39,
          "target": {
            "node": 15,
            "path": "scale"
          }
        },
        {
          "sampler": 40,
          "target": {
            "node": 16,
            "path": "translation"
          }
        },
        {
          "sampler": 41,
          "target": {
            "node": 16,
            "path": "rotation"
          }
        },
        {
          "sampler": 42,
          "target": {
            "node": 16,
            "path": "scale"
          }
        },
        {
          "sampler": 43,
          "target": {
            "node": 17,
            "path": "translation"
          }
        },
        {
          "sampler": 44,
          "target": {
            "node": 17,
            "path": "rotation"
          }
        },
        {
          "sampler": 45,
          "target": {
            "node": 17,
            "path": "scale"
          }
        },
        {
          "sampler": 46,
          "target": {
            "node": 18,
            "path": "rotation"
          }
        },
        {
          "sampler": 47,
          "target": {
            "node": 19,
            "path": "rotation"
          }
        },
        {
          "sampler": 48,
          "target": {
            "node": 20,
            "path": "rotation"
          }
        },
        {
          "sampler": 49,
          "target": {
            "node": 21,
            "path": "rotation"
          }
        },
        {
          "sampler": 50,
          "target": {
            "node": 22,
            "path": "translation"
          }
        },
        {
          "sampler": 51,
          "target": {
            "node": 22,
            "path": "rotation"
          }
        },
        {
          "sampler": 52,
          "target": {
            "node": 22,
            "path": "scale"
          }
        },
        {
          "sampler": 53,
          "target": {
            "node": 23,
            "path": "rotation"
          }
        },
        {
          "sampler": 54,
          "target": {
            "node": 24,
            "path": "rotation"
          }
        },
        {
          "sampler": 55,
          "target": {
            "node": 25,
            "path": "rotation"
          }
        },
        {
          "sampler": 56,
          "target": {
            "node": 26,
            "path": "rotation"
          }
        },
        {
          "sampler": 57,
          "target": {
            "node": 27,
            "path": "rotation"
          }
        },
        {
          "sampler": 58,
          "target": {
            "node": 28,
            "path": "translation"
          }
        },
        {
          "sampler": 59,
          "target": {
            "node": 28,
            "path": "rotation"
          }
        },
        {
          "sampler": 60,
          "target": {
            "node": 28,
            "path": "scale"
          }
        },
        {
          "sampler": 61,
          "target": {
            "node": 29,
            "path": "translation"
          }
        },
        {
          "sampler": 62,
          "target": {
            "node": 29,
            "path": "rotation"
          }
        },
        {
          "sampler": 63,
          "target": {
            "node": 29,
            "path": "scale"
          }
        },
        {
          "sampler": 64,
          "target": {
            "node": 30,
            "path": "translation"
          }
        },
        {
          "sampler": 65,
          "target": {
            "node": 30,
            "path": "rotation"
          }
        },
        {
          "sampler": 66,
          "target": {
            "node": 30,
            "path": "scale"
          }
        },
        {
          "sampler": 67,
          "target": {
            "node": 31,
            "path": "translation"
          }
        },
        {
          "sampler": 68,
          "target": {
            "node": 31,
            "path": "rotation"
          }
        },
        {
          "sampler": 69,
          "target": {
            "node": 31,
            "path": "scale"
          }
        },
        {
          "sampler": 70,
          "target": {
            "node": 32,
            "path": "rotation"
          }
        },
        {
          "sampler": 71,
          "target": {
            "node": 33,
            "path": "rotation"
          }
        },
        {
          "sampler": 72,
          "target": {
            "node": 34,
            "path": "rotation"
          }
        },
        {
          "sampler": 73,
          "target": {
            "node": 35,
            "path": "rotation"
          }
        },
        {
          "sampler": 74,
          "target": {
            "node": 36,
            "path": "rotation"
          }
        },
        {
          "sampler": 75,
          "target": {
            "node": 37,
            "path": "translation"
          }
        },
        {
          "sampler": 76,
          "target": {
            "node": 37,
            "path": "rotation"
          }
        },
        {
          "sampler": 77,
          "target": {
            "node": 37,
            "path": "scale"
          }
        },
        {
          "sampler": 78,
          "target": {
            "node": 38,
            "path": "translation"
          }
        },
        {
          "sampler": 79,
          "target": {
            "node": 38,
            "path": "rotation"
          }
        },
        {
          "sampler": 80,
          "target": {
            "node": 38,
            "path": "scale"
          }
        },
        {
          "sampler": 81,
          "target": {
            "node": 39,
            "path": "translation"
          }
        },
        {
          "sampler": 82,
          "target": {
            "node": 39,
            "path": "rotation"
          }
        },
        {
          "sampler": 83,
          "target": {
            "node": 39,
            "path": "scale"
          }
        },
        {
          "sampler": 84,
          "target": {
            "node": 40,
            "path": "translation"
          }
        },
        {
          "sampler": 85,
          "target": {
            "node": 40,
            "path": "rotation"
          }
        },
        {
          "sampler": 86,
          "target": {
            "node": 40,
            "path": "scale"
          }
        },
        {
          "sampler": 87,
          "target": {
            "node": 41,
            "path": "rotation"
          }
        },
        {
          "sampler": 88,
          "target": {
            "node": 42,
            "path": "rotation"
          }
        },
        {
          "sampler": 89,
          "target": {
            "node": 43,
            "path": "rotation"
          }
        },
        {
          "sampler": 90,
          "target": {
            "node": 44,
            "path": "rotation"
          }
        },
        {
          "sampler": 91,
          "target": {
            "node": 45,
            "path": "rotation"
          }
        },
        {
          "sampler": 92,
          "target": {
            "node": 46,
            "path": "rotation"
          }
        },
        {
          "sampler": 93,
          "target": {
            "node": 47,
            "path": "rotation"
          }
        }
      ],
      "name": "Take 001",
      "samplers": [
        {
          "input": 1,
          "output": 0
        },
        {
          "input": 3,
          "output": 2
        },
        {
          "input": 5,
          "output": 4
        },
        {
          "input": 7,
          "output": 6
        },
        {
          "input": 9,
          "output": 8
        },
        {
          "input": 11,
          "output": 10
        },
        {
          "input": 13,
          "output": 12
        },
        {
          "input": 15,
          "output": 14
        },
        {
          "input": 17,
          "output": 16
        },
        {
          "input": 19,
          "output": 18
        },
        {
          "input": 21,
          "output": 20
        },
        {
          "input": 23,
          "output": 22
        },
        {
          "input": 25,
          "output": 24
        },
        {
          "input": 27,
          "output": 26
        },
        {
          "input": 29,
          "output": 28
        },
        {
          "input": 31,
          "output": 30
        },
        {
          "input": 33,
          "output": 32
        },
        {
          "input": 35,
          "output": 34
        },
        {
          "input": 37,
          "output": 36
        },
        {
          "input": 39,
          "output": 38
        },
        {
          "input": 41,
          "output": 40
        },
        {
          "input": 43,
          "output": 42
        },
        {
          "input": 45,
          "output": 44
        },
        {
          "input": 47,
          "output": 46
        },
        {
          "input": 49,
          "output": 48
        },
        {
          "input": 51,
          "output": 50
        },
        {
          "input": 53,
          "output": 52
        },
        {
          "input": 55,
          "output": 54
        },
        {
          "input": 57,
          "output": 56
        },
        {
          "input": 59,
          "output": 58
        },
        {
          "input": 61,
          "output": 60
        },
        {
          "input": 63,
          "output": 62
        },
        {
          "input": 65,
          "output": 64
        },
        {
          "input": 67,
          "output": 66
        },
        {
          "input": 69,
          "output": 68
        },
        {
          "input": 71,
          "output": 70
        },
        {
          "input": 73,
          "output": 72
        },
        {
          "input": 75,
          "output": 74
        },
        {
          "input": 77,
          "output": 76
        },
        {
          "input": 79,
          "output": 78
        },
        {
          "input": 81,
          "output": 80
        },
        {
          "input": 83,
          "output": 82
        },
        {
          "input": 85,
          "output": 84
        },
        {
          "input": 87,
          "output": 86
        },
        {
          "input": 89,
          "output": 88
        },
        {
          "input": 91,
          "output": 90
        },
        {
          "input": 93,
          "output": 92
        },
        {
          "input": 95,
          "output": 94
        },
        {
          "input": 97,
          "output": 96
        },
        {
          "input": 99,
          "output": 98
        },
        {
          "input": 101,
          "output": 100
        },
        {
          "input": 103,
          "output": 102
        },
        {
          "input": 105,
          "output": 104
        },
        {
          "input": 107,
          "output": 106
        },
        {
          "input": 109,
          "output": 108
        },
        {
          "input": 111,
          "output": 110
        },
        {
          "input": 113,
          "output": 112
        },
        {
          "input": 115,
          "output": 114
        },
        {
          "input": 117,
          "output": 116
        },
        {
          "input": 119,
          "output": 118
        },
        {
          "input": 121,
          "output": 120
        },
        {
          "input": 123,
          "output": 122
        },
        {
          "input": 125,
          "output": 124
        },
        {
          "input": 127,
          "output": 126
        },
        {
          "input": 129,
          "output": 128
        },
        {
          "input": 131,
          "output": 130
        },
        {
          "input": 133,
          "output": 132
        },
        {
          "input": 135,
          "output": 134
        },
        {
          "input": 137,
          "output": 136
        },
        {
          "input": 139,
          "output": 138
        },
        {
          "input": 141,
          "output": 140
        },
        {
          "input": 143,
          "output": 142
        },
        {
          "input": 145,
          "output": 144
        },
        {
          "input": 147,
          "output": 146
        },
        {
          "input": 149,
          "output": 148
        },
        {
          "input": 151,
          "output": 150
        },
        {
          "input": 153,
          "output": 152
        },
        {
          "input": 155,
          "output": 154
        },
        {
          "input": 157,
          "output": 156
        },
        {
          "input": 159,
          "output": 158
        },
        {
          "input": 161,
          "output": 160
        },
        {
          "input": 163,
          "output": 162
        },
        {
          "input": 165,
          "output": 164
        },
        {
          "input": 167,
          "output": 166
        },
        {
          "input": 169,
          "output": 168
        },
        {
          "input": 171,
          "output": 170
        },
        {
          "input": 173,
          "output": 172
        },
        {
          "input": 175,
          "output": 174
        },
        {
          "input": 177,
          "output": 176
        },
        {
          "input": 179,
          "output": 178
        },
        {
          "input": 181,
          "output": 180
        },
        {
          "input": 183,
          "output": 182
        },
        {
          "input": 185,
          "output": 184
        },
        {
          "input": 187,
          "output": 186
        }
      ]
    }
  ],
  "asset": {
    "copyright": "Copyright (c) 2018-2020 Chukong Technologies Inc.",
    "generator": "FBX-glTF-conv",
    "version": "2.0"
  },
  "bufferViews": [
    {
      "buffer": 0,
      "byteLength": 312
    },
    {
      "buffer": 0,
      "byteLength": 104,
      "byteOffset": 312
    },
    {
      "buffer": 0,
      "byteLength": 416,
      "byteOffset": 416
    },
    {
      "buffer": 0,
      "byteLength": 104,
      "byteOffset": 832
    },
    {
      "buffer": 0,
      "byteLength": 12,
      "byteOffset": 936
    },
    {
      "buffer": 0,
      "byteLength": 4,
      "byteOffset": 948
    },
    {
      "buffer": 0,
      "byteLength": 12,
      "byteOffset": 952
    },
    {
      "buffer": 0,
      "byteLength": 4,
      "byteOffset": 964
    },
    {
      "buffer": 0,
      "byteLength": 16,
      "byteOffset": 968
    },
    {
      "buffer": 0,
      "byteLength": 4,
      "byteOffset": 984
    },
    {
      "buffer": 0,
      "byteLength": 12,
      "byteOffset": 988
    },
    {
      "buffer": 0,
      "byteLength": 4,
      "byteOffset": 1000
    },
    {
      "buffer": 0,
      "byteLength": 300,
      "byteOffset": 1004
    },
    {
      "buffer": 0,
      "byteLength": 100,
      "byteOffset": 1304
    },
    {
      "buffer": 0,
      "byteLength": 400,
      "byteOffset": 1404
    },
    {
      "buffer": 0,
      "byteLength": 100,
      "byteOffset": 1804
    },
    {
      "buffer": 0,
      "byteLength": 12,
      "byteOffset": 1904
    },
    {
      "buffer": 0,
      "byteLength": 4,
      "byteOffset": 1916
    },
    {
      "buffer": 0,
      "byteLength": 216,
      "byteOffset": 1920
    },
    {
      "buffer": 0,
      "byteLength": 72,
      "byteOffset": 2136
    },
    {
      "buffer": 0,
      "byteLength": 400,
      "byteOffset": 2208
    },
    {
      "buffer": 0,
      "byteLength": 100,
      "byteOffset": 2608
    },
    {
      "buffer": 0,
      "byteLength": 12,
      "byteOffset": 2708
    },
    {
      "buffer": 0,
      "byteLength": 4,
      "byteOffset": 2720
    },
    {
      "buffer": 0,
      "byteLength": 300,
      "byteOffset": 2724
    },
    {
      "buffer": 0,
      "byteLength": 100,
      "byteOffset": 3024
    },
    {
      "buffer": 0,
      "byteLength": 400,
      "byteOffset": 3124
    },
    {
      "buffer": 0,
      "byteLength": 100,
      "byteOffset": 3524
    },
    {
      "buffer": 0,
      "byteLength": 12,
      "byteOffset": 3624
    },
    {
      "buffer": 0,
      "byteLength": 4,
      "byteOffset": 3636
    },
    {
      "buffer": 0,
      "byteLength": 180,
      "byteOffset": 3640
    },
    {
      "buffer": 0,
      "byteLength": 60,
      "byteOffset": 3820
    },
    {
      "buffer": 0,
      "byteLength": 16,
      "byteOffset": 3880
    },
    {
      "buffer": 0,
      "byteLength": 4,
      "byteOffset": 3896
    },
    {
      "buffer": 0,
      "byteLength": 12,
      "byteOffset": 3900
    },
    {
      "buffer": 0,
      "byteLength": 4,
      "byteOffset": 3912
    },
    {
      "buffer": 0,
      "byteLength": 156,
      "byteOffset": 3916
    },
    {
      "buffer": 0,
      "byteLength": 52,
      "byteOffset": 4072
    },
    {
      "buffer": 0,
      "byteLength": 432,
      "byteOffset": 4124
    },
    {
      "buffer": 0,
      "byteLength": 108,
      "byteOffset": 4556
    },
    {
      "buffer": 0,
      "byteLength": 12,
      "byteOffset": 4664
    },
    {
      "buffer": 0,
      "byteLength": 4,
      "byteOffset": 4676
    },
    {
      "buffer": 0,
      "byteLength": 168,
      "byteOffset": 4680
    },
    {
      "buffer": 0,
      "byteLength": 56,
      "byteOffset": 4848
    },
    {
      "buffer": 0,
      "byteLength": 432,
      "byteOffset": 4904
    },
    {
      "buffer": 0,
      "byteLength": 108,
      "byteOffset": 5336
    },
    {
      "buffer": 0,
      "byteLength": 12,
      "byteOffset": 5444
    },
    {
      "buffer": 0,
      "byteLength": 4,
      "byteOffset": 5456
    },
    {
      "buffer": 0,
      "byteLength": 168,
      "byteOffset": 5460
    },
    {
      "buffer": 0,
      "byteLength": 56,
      "byteOffset": 5628
    },
    {
      "buffer": 0,
      "byteLength": 384,
      "byteOffset": 5684
    },
    {
      "buffer": 0,
      "byteLength": 96,
      "byteOffset": 6068
    },
    {
      "buffer": 0,
      "byteLength": 12,
      "byteOffset": 6164
    },
    {
      "buffer": 0,
      "byteLength": 4,
      "byteOffset": 6176
    },
    {
      "buffer": 0,
      "byteLength": 204,
      "byteOffset": 6180
    },
    {
      "buffer": 0,
      "byteLength": 68,
      "byteOffset": 6384
    },
    {
      "buffer": 0,
      "byteLength": 384,
      "byteOffset": 6452
    },
    {
      "buffer": 0,
      "byteLength": 96,
      "byteOffset": 6836
    },
    {
      "buffer": 0,
      "byteLength": 12,
      "byteOffset": 6932
    },
    {
      "buffer": 0,
      "byteLength": 4,
      "byteOffset": 6944
    },
    {
      "buffer": 0,
      "byteLength": 16,
      "byteOffset": 6948
    },
    {
      "buffer": 0,
      "byteLength": 4,
      "byteOffset": 6964
    },
    {
      "buffer": 0,
      "byteLength": 16,
      "byteOffset": 6968
    },
    {
      "buffer": 0,
      "byteLength": 4,
      "byteOffset": 6984
    },
    {
      "buffer": 0,
      "byteLength": 16,
      "byteOffset": 6988
    },
    {
      "buffer": 0,
      "byteLength": 4,
      "byteOffset": 7004
    },
    {
      "buffer": 0,
      "byteLength": 16,
      "byteOffset": 7008
    },
    {
      "buffer": 0,
      "byteLength": 4,
      "byteOffset": 7024
    },
    {
      "buffer": 0,
      "byteLength": 168,
      "byteOffset": 7028
    },
    {
      "buffer": 0,
      "byteLength": 56,
      "byteOffset": 7196
    },
    {
      "buffer": 0,
      "byteLength": 432,
      "byteOffset": 7252
    },
    {
      "buffer": 0,
      "byteLength": 108,
      "byteOffset": 7684
    },
    {
      "buffer": 0,
      "byteLength": 12,
      "byteOffset": 7792
    },
    {
      "buffer": 0,
      "byteLength": 4,
      "byteOffset": 7804
    },
    {
      "buffer": 0,
      "byteLength": 192,
      "byteOffset": 7808
    },
    {
      "buffer": 0,
      "byteLength": 64,
      "byteOffset": 8000
    },
    {
      "buffer": 0,
      "byteLength": 432,
      "byteOffset": 8064
    },
    {
      "buffer": 0,
      "byteLength": 108,
      "byteOffset": 8496
    },
    {
      "buffer": 0,
      "byteLength": 12,
      "byteOffset": 8604
    },
    {
      "buffer": 0,
      "byteLength": 4,
      "byteOffset": 8616
    },
    {
      "buffer": 0,
      "byteLength": 120,
      "byteOffset": 8620
    },
    {
      "buffer": 0,
      "byteLength": 40,
      "byteOffset": 8740
    },
    {
      "buffer": 0,
      "byteLength": 416,
      "byteOffset": 8780
    },
    {
      "buffer": 0,
      "byteLength": 104,
      "byteOffset": 9196
    },
    {
      "buffer": 0,
      "byteLength": 12,
      "byteOffset": 9300
    },
    {
      "buffer": 0,
      "byteLength": 4,
      "byteOffset": 9312
    },
    {
      "buffer": 0,
      "byteLength": 168,
      "byteOffset": 9316
    },
    {
      "buffer": 0,
      "byteLength": 56,
      "byteOffset": 9484
    },
    {
      "buffer": 0,
      "byteLength": 416,
      "byteOffset": 9540
    },
    {
      "buffer": 0,
      "byteLength": 104,
      "byteOffset": 9956
    },
    {
      "buffer": 0,
      "byteLength": 12,
      "byteOffset": 10060
    },
    {
      "buffer": 0,
      "byteLength": 4,
      "byteOffset": 10072
    },
    {
      "buffer": 0,
      "byteLength": 16,
      "byteOffset": 10076
    },
    {
      "buffer": 0,
      "byteLength": 4,
      "byteOffset": 10092
    },
    {
      "buffer": 0,
      "byteLength": 16,
      "byteOffset": 10096
    },
    {
      "buffer": 0,
      "byteLength": 4,
      "byteOffset": 10112
    },
    {
      "buffer": 0,
      "byteLength": 16,
      "byteOffset": 10116
    },
    {
      "buffer": 0,
      "byteLength": 4,
      "byteOffset": 10132
    },
    {
      "buffer": 0,
      "byteLength": 16,
      "byteOffset": 10136
    },
    {
      "buffer": 0,
      "byteLength": 4,
      "byteOffset": 10152
    },
    {
      "buffer": 0,
      "byteLength": 252,
      "byteOffset": 10156
    },
    {
      "buffer": 0,
      "byteLength": 84,
      "byteOffset": 10408
    },
    {
      "buffer": 0,
      "byteLength": 432,
      "byteOffset": 10492
    },
    {
      "buffer": 0,
      "byteLength": 108,
      "byteOffset": 10924
    },
    {
      "buffer": 0,
      "byteLength": 12,
      "byteOffset": 11032
    },
    {
      "buffer": 0,
      "byteLength": 4,
      "byteOffset": 11044
    },
    {
      "buffer": 0,
      "byteLength": 16,
      "byteOffset": 11048
    },
    {
      "buffer": 0,
      "byteLength": 4,
      "byteOffset": 11064
    },
    {
      "buffer": 0,
      "byteLength": 16,
      "byteOffset": 11068
    },
    {
      "buffer": 0,
      "byteLength": 4,
      "byteOffset": 11084
    },
    {
      "buffer": 0,
      "byteLength": 16,
      "byteOffset": 11088
    },
    {
      "buffer": 0,
      "byteLength": 4,
      "byteOffset": 11104
    },
    {
      "buffer": 0,
      "byteLength": 16,
      "byteOffset": 11108
    },
    {
      "buffer": 0,
      "byteLength": 4,
      "byteOffset": 11124
    },
    {
      "buffer": 0,
      "byteLength": 16,
      "byteOffset": 11128
    },
    {
      "buffer": 0,
      "byteLength": 4,
      "byteOffset": 11144
    },
    {
      "buffer": 0,
      "byteLength": 324,
      "byteOffset": 11148
    },
    {
      "buffer": 0,
      "byteLength": 108,
      "byteOffset": 11472
    },
    {
      "buffer": 0,
      "byteLength": 432,
      "byteOffset": 11580
    },
    {
      "buffer": 0,
      "byteLength": 108,
      "byteOffset": 12012
    },
    {
      "buffer": 0,
      "byteLength": 12,
      "byteOffset": 12120
    },
    {
      "buffer": 0,
      "byteLength": 4,
      "byteOffset": 12132
    },
    {
      "buffer": 0,
      "byteLength": 60,
      "byteOffset": 12136
    },
    {
      "buffer": 0,
      "byteLength": 20,
      "byteOffset": 12196
    },
    {
      "buffer": 0,
      "byteLength": 432,
      "byteOffset": 12216
    },
    {
      "buffer": 0,
      "byteLength": 108,
      "byteOffset": 12648
    },
    {
      "buffer": 0,
      "byteLength": 12,
      "byteOffset": 12756
    },
    {
      "buffer": 0,
      "byteLength": 4,
      "byteOffset": 12768
    },
    {
      "buffer": 0,
      "byteLength": 144,
      "byteOffset": 12772
    },
    {
      "buffer": 0,
      "byteLength": 48,
      "byteOffset": 12916
    },
    {
      "buffer": 0,
      "byteLength": 432,
      "byteOffset": 12964
    },
    {
      "buffer": 0,
      "byteLength": 108,
      "byteOffset": 13396
    },
    {
      "buffer": 0,
      "byteLength": 12,
      "byteOffset": 13504
    },
    {
      "buffer": 0,
      "byteLength": 4,
      "byteOffset": 13516
    },
    {
      "buffer": 0,
      "byteLength": 12,
      "byteOffset": 13520
    },
    {
      "buffer": 0,
      "byteLength": 4,
      "byteOffset": 13532
    },
    {
      "buffer": 0,
      "byteLength": 368,
      "byteOffset": 13536
    },
    {
      "buffer": 0,
      "byteLength": 92,
      "byteOffset": 13904
    },
    {
      "buffer": 0,
      "byteLength": 12,
      "byteOffset": 13996
    },
    {
      "buffer": 0,
      "byteLength": 4,
      "byteOffset": 14008
    },
    {
      "buffer": 0,
      "byteLength": 16,
      "byteOffset": 14012
    },
    {
      "buffer": 0,
      "byteLength": 4,
      "byteOffset": 14028
    },
    {
      "buffer": 0,
      "byteLength": 16,
      "byteOffset": 14032
    },
    {
      "buffer": 0,
      "byteLength": 4,
      "byteOffset": 14048
    },
    {
      "buffer": 0,
      "byteLength": 16,
      "byteOffset": 14052
    },
    {
      "buffer": 0,
      "byteLength": 4,
      "byteOffset": 14068
    },
    {
      "buffer": 0,
      "byteLength": 16,
      "byteOffset": 14072
    },
    {
      "buffer": 0,
      "byteLength": 4,
      "byteOffset": 14088
    },
    {
      "buffer": 0,
      "byteLength": 16,
      "byteOffset": 14092
    },
    {
      "buffer": 0,
      "byteLength": 4,
      "byteOffset": 14108
    },
    {
      "buffer": 0,
      "byteLength": 324,
      "byteOffset": 14112
    },
    {
      "buffer": 0,
      "byteLength": 108,
      "byteOffset": 14436
    },
    {
      "buffer": 0,
      "byteLength": 432,
      "byteOffset": 14544
    },
    {
      "buffer": 0,
      "byteLength": 108,
      "byteOffset": 14976
    },
    {
      "buffer": 0,
      "byteLength": 12,
      "byteOffset": 15084
    },
    {
      "buffer": 0,
      "byteLength": 4,
      "byteOffset": 15096
    },
    {
      "buffer": 0,
      "byteLength": 108,
      "byteOffset": 15100
    },
    {
      "buffer": 0,
      "byteLength": 36,
      "byteOffset": 15208
    },
    {
      "buffer": 0,
      "byteLength": 416,
      "byteOffset": 15244
    },
    {
      "buffer": 0,
      "byteLength": 104,
      "byteOffset": 15660
    },
    {
      "buffer": 0,
      "byteLength": 12,
      "byteOffset": 15764
    },
    {
      "buffer": 0,
      "byteLength": 4,
      "byteOffset": 15776
    },
    {
      "buffer": 0,
      "byteLength": 96,
      "byteOffset": 15780
    },
    {
      "buffer": 0,
      "byteLength": 32,
      "byteOffset": 15876
    },
    {
      "buffer": 0,
      "byteLength": 432,
      "byteOffset": 15908
    },
    {
      "buffer": 0,
      "byteLength": 108,
      "byteOffset": 16340
    },
    {
      "buffer": 0,
      "byteLength": 12,
      "byteOffset": 16448
    },
    {
      "buffer": 0,
      "byteLength": 4,
      "byteOffset": 16460
    },
    {
      "buffer": 0,
      "byteLength": 12,
      "byteOffset": 16464
    },
    {
      "buffer": 0,
      "byteLength": 4,
      "byteOffset": 16476
    },
    {
      "buffer": 0,
      "byteLength": 400,
      "byteOffset": 16480
    },
    {
      "buffer": 0,
      "byteLength": 100,
      "byteOffset": 16880
    },
    {
      "buffer": 0,
      "byteLength": 12,
      "byteOffset": 16980
    },
    {
      "buffer": 0,
      "byteLength": 4,
      "byteOffset": 16992
    },
    {
      "buffer": 0,
      "byteLength": 16,
      "byteOffset": 16996
    },
    {
      "buffer": 0,
      "byteLength": 4,
      "byteOffset": 17012
    },
    {
      "buffer": 0,
      "byteLength": 16,
      "byteOffset": 17016
    },
    {
      "buffer": 0,
      "byteLength": 4,
      "byteOffset": 17032
    },
    {
      "buffer": 0,
      "byteLength": 16,
      "byteOffset": 17036
    },
    {
      "buffer": 0,
      "byteLength": 4,
      "byteOffset": 17052
    },
    {
      "buffer": 0,
      "byteLength": 16,
      "byteOffset": 17056
    },
    {
      "buffer": 0,
      "byteLength": 4,
      "byteOffset": 17072
    },
    {
      "buffer": 0,
      "byteLength": 16,
      "byteOffset": 17076
    },
    {
      "buffer": 0,
      "byteLength": 4,
      "byteOffset": 17092
    },
    {
      "buffer": 0,
      "byteLength": 16,
      "byteOffset": 17096
    },
    {
      "buffer": 0,
      "byteLength": 4,
      "byteOffset": 17112
    },
    {
      "buffer": 0,
      "byteLength": 16,
      "byteOffset": 17116
    },
    {
      "buffer": 0,
      "byteLength": 4,
      "byteOffset": 17132
    }
  ],
  "buffers": [
    {
      "byteLength": 17136,
      "uri": "out.bin"
    }
  ],
  "extras": {
    "FBX-glTF-conv": {
      "animationFrameRate": 30.0,
      "fbxFileHeaderInfo": {
        "creationTimeStamp": {
          "day": 29,
          "hour": 19,
          "millisecond": 65,
          "minute": 13,
          "month": 5,
          "second": 12,
          "year": 2026
        },
        "creator": "FBX SDK/FBX Plugins version 2020.3.7",
        "sceneInfo": {
          "author": "",
          "comment": "",
          "keywords": "",
          "original": {
            "applicationName": "3ds Max",
            "applicationVendor": "Autodesk",
            "applicationVersion": "2026",
            "fileName": "E:\\试玩需求\\boss\\boos_2\\boos_02_走.fbx"
          },
          "revision": "",
          "subject": "",
          "title": "",
          "url": "D:\\工程项目\\test_pro\\test_pro\\HYQ_Project\\assets\\GameRes\\FBX\\Monster_boos_2\\boos_02_走.fbx"
        }
      }
    }
  },
  "nodes": [
    {
      "children": [
        1,
        47
      ],
      "extras": {
        "FBX-glTF-conv": {
          "skeleton": {
            "skeletonType": "Root"
          }
        }
      },
      "name": "Bip001",
      "rotation": [
        -0.5471300482749939,
        -0.4625873565673828,
        -0.45268598198890686,
        0.5307890772819519
      ],
      "translation": [
        -0.002829070668667555,
        0.9034353494644165,
        0.0010268115438520908
      ]
    },
    {
      "children": [
        2
      ],
      "extras": {
        "FBX-glTF-conv": {
          "skeleton": {
            "skeletonType": "LimbNode"
          }
        }
      },
      "name": "Bip001 Pelvis",
      "rotation": [
        -0.5,
        -0.5,
        -0.4999993145465851,
        0.5000007152557373
      ]
    },
    {
      "children": [
        3,
        28,
        37,
        46
      ],
      "extras": {
        "FBX-glTF-conv": {
          "skeleton": {
            "skeletonType": "LimbNode"
          }
        }
      },
      "name": "Bip001 Spine",
      "rotation": [
        -0.11765499413013458,
        0.01865832321345806,
        0.0316285714507103,
        0.9923753142356873
      ],
      "translation": [
        0.035922929644584656,
        -0.00017301559273619205,
        2.7344227419234812e-05
      ]
    },
    {
      "children": [
        4,
        27
      ],
      "extras": {
        "FBX-glTF-conv": {
          "skeleton": {
            "skeletonType": "LimbNode"
          }
        }
      },
      "name": "Bip001 Spine1",
      "rotation": [
        0.0028893814887851477,
        0.0007663777796551585,
        0.004094306845217943,
        0.9999871253967285
      ],
      "translation": [
        0.14756980538368225,
        -0.00016652345948386937,
        -9.632110504753655e-07
      ]
    },
    {
      "children": [
        5,
        26
      ],
      "extras": {
        "FBX-glTF-conv": {
          "skeleton": {
            "skeletonType": "LimbNode"
          }
        }
      },
      "name": "Bip001 Spine2",
      "rotation": [
        0.005778679624199867,
        0.0015327396104112267,
        0.008188511244952679,
        0.9999486207962036
      ],
      "translation": [
        0.20914185047149658,
        -0.00018414974329061806,
        -2.1338462374842493e-06
      ]
    },
    {
      "children": [
        6,
        14,
        22
      ],
      "extras": {
        "FBX-glTF-conv": {
          "skeleton": {
            "skeletonType": "LimbNode"
          }
        }
      },
      "name": "Bip001 Neck",
      "rotation": [
        4.160154443155761e-09,
        -6.081080528019811e-07,
        0.2195538878440857,
        0.9756003618240356
      ],
      "translation": [
        0.2426873743534088,
        -5.1655770221259445e-05,
        2.38418573772492e-09
      ]
    },
    {
      "children": [
        7,
        13
      ],
      "extras": {
        "FBX-glTF-conv": {
          "skeleton": {
            "skeletonType": "LimbNode"
          }
        }
      },
      "name": "Bip001 L Clavicle",
      "rotation": [
        0.627476692199707,
        -0.11800863593816757,
        0.7463911175727844,
        0.18774256110191345
      ],
      "translation": [
        0.09485901147127151,
        -0.20136290788650513,
        0.12035789340734482
      ]
    },
    {
      "children": [
        8,
        12
      ],
      "extras": {
        "FBX-glTF-conv": {
          "skeleton": {
            "skeletonType": "LimbNode"
          }
        }
      },
      "name": "Bip001 L UpperArm",
      "rotation": [
        0.2750963270664215,
        0.3385121822357178,
        -0.17725016176700592,
        0.882220983505249
      ],
      "translation": [
        0.308040976524353,
        0.0,
        1.5258788721439487e-07
      ]
    },
    {
      "children": [
        9,
        11
      ],
      "extras": {
        "FBX-glTF-conv": {
          "skeleton": {
            "skeletonType": "LimbNode"
          }
        }
      },
      "name": "Bip001 L Forearm",
      "rotation": [
        -3.672030432284996e-17,
        1.962030061328419e-17,
        -0.4712638854980469,
        0.8819922804832458
      ],
      "translation": [
        0.287097692489624,
        -7.629394360719743e-08,
        -7.629394360719743e-08
      ]
    },
    {
      "children": [
        10
      ],
      "extras": {
        "FBX-glTF-conv": {
          "skeleton": {
            "skeletonType": "LimbNode"
          }
        }
      },
      "name": "Bip001 L Hand",
      "rotation": [
        -0.7357588410377502,
        0.04043396934866905,
        0.0836963951587677,
        0.670834481716156
      ],
      "translation": [
        0.2870974838733673,
        -3.814697180359872e-08,
        -7.629394360719743e-08
      ]
    },
    {
      "name": "mixamorig:LeftHand",
      "rotation": [
        0.6532353162765503,
        0.45542916655540466,
        0.5144954323768616,
        -0.3180602788925171
      ],
      "scale": [
        2.539999008178711,
        2.5399999618530273,
        2.5399999618530273
      ],
      "translation": [
        -0.0051955413073301315,
        0.0068216705694794655,
        0.008967285044491291
      ]
    },
    {
      "name": "mixamorig:LeftForeArm",
      "rotation": [
        0.6836795210838318,
        0.7166414260864258,
        -0.07865605503320694,
        0.11322782188653946
      ],
      "scale": [
        2.539999008178711,
        2.5399999618530273,
        2.5399999618530273
      ],
      "translation": [
        -0.015022811479866505,
        -0.006630744785070419,
        -0.017049789428710938
      ]
    },
    {
      "name": "mixamorig:LeftArm",
      "rotation": [
        0.7058023810386658,
        0.6951906681060791,
        -0.11008129268884659,
        0.08021822571754456
      ],
      "scale": [
        2.5399999618530273,
        2.5399999618530273,
        2.5400009155273438
      ],
      "translation": [
        -0.04131019487977028,
        0.002693710383027792,
        -0.004597472958266735
      ]
    },
    {
      "name": "mixamorig:LeftShoulder",
      "rotation": [
        0.7018406391143799,
        0.7064086198806763,
        -0.07844385504722595,
        0.0474667027592659
      ],
      "scale": [
        2.539999008178711,
        2.5399999618530273,
        2.5400009155273438
      ],
      "translation": [
        -0.00021631241543218493,
        0.0004180908144917339,
        0.013138122856616974
      ]
    },
    {
      "children": [
        15,
        21
      ],
      "extras": {
        "FBX-glTF-conv": {
          "skeleton": {
            "skeletonType": "LimbNode"
          }
        }
      },
      "name": "Bip001 R Clavicle",
      "rotation": [
        -0.5448683500289917,
        0.2505374252796173,
        0.7956737279891968,
        0.08516356348991394
      ],
      "translation": [
        0.09485901147127151,
        -0.20136214792728424,
        -0.12035901844501495
      ]
    },
    {
      "children": [
        16,
        20
      ],
      "extras": {
        "FBX-glTF-conv": {
          "skeleton": {
            "skeletonType": "LimbNode"
          }
        }
      },
      "name": "Bip001 R UpperArm",
      "rotation": [
        -0.2858857810497284,
        -0.372505247592926,
        0.17600543797016144,
        0.8651770353317261
      ],
      "translation": [
        0.3080410361289978,
        -3.814697180359872e-08,
        1.5258788721439487e-07
      ]
    },
    {
      "children": [
        17,
        19
      ],
      "extras": {
        "FBX-glTF-conv": {
          "skeleton": {
            "skeletonType": "LimbNode"
          }
        }
      },
      "name": "Bip001 R Forearm",
      "rotation": [
        1.6995494402253372e-17,
        2.8953604457846615e-17,
        -0.41439157724380493,
        0.910098671913147
      ],
      "translation": [
        0.28709763288497925,
        -2.8421708795129297e-16,
        -1.4210854397564648e-16
      ]
    },
    {
      "children": [
        18
      ],
      "extras": {
        "FBX-glTF-conv": {
          "skeleton": {
            "skeletonType": "LimbNode"
          }
        }
      },
      "name": "Bip001 R Hand",
      "rotation": [
        0.73936927318573,
        -0.09444884210824966,
        0.06708734482526779,
        0.66325843334198
      ],
      "translation": [
        0.287097692489624,
        7.629394360719743e-08,
        -7.629394360719743e-08
      ]
    },
    {
      "name": "mixamorig:RightHand",
      "rotation": [
        0.5141547322273254,
        0.3193710148334503,
        0.6536288261413574,
        -0.45433077216148376
      ],
      "scale": [
        2.5399999618530273,
        2.5399999618530273,
        2.5400009155273438
      ],
      "translation": [
        -0.0068298340775072575,
        0.008728218264877796,
        -0.008531017228960991
      ]
    },
    {
      "name": "mixamorig:RightForeArm",
      "rotation": [
        0.07833966612815857,
        0.11276661604642868,
        -0.684959352016449,
        0.7155258655548096
      ],
      "scale": [
        2.5399999618530273,
        2.5399999618530273,
        2.5400009155273438
      ],
      "translation": [
        -0.017352676019072533,
        -0.006064033601433039,
        0.018366089090704918
      ]
    },
    {
      "name": "mixamorig:RightArm",
      "rotation": [
        0.1095070168375969,
        0.07997933030128479,
        -0.7024778723716736,
        0.698667585849762
      ],
      "scale": [
        2.5399999618530273,
        2.539999008178711,
        2.5400009155273438
      ],
      "translation": [
        -0.04363998398184776,
        0.0006764221470803022,
        0.0056491089053452015
      ]
    },
    {
      "name": "mixamorig:RightShoulder",
      "rotation": [
        0.07790463417768478,
        0.04660666361451149,
        -0.7037020921707153,
        0.7046715617179871
      ],
      "scale": [
        2.539999008178711,
        2.5399999618530273,
        2.5400009155273438
      ],
      "translation": [
        -0.002597007667645812,
        -0.00025772093795239925,
        -0.01222991943359375
      ]
    },
    {
      "children": [
        23,
        25
      ],
      "extras": {
        "FBX-glTF-conv": {
          "skeleton": {
            "skeletonType": "LimbNode"
          }
        }
      },
      "name": "Bip001 Head",
      "rotation": [
        -0.007190237753093243,
        -0.03130695968866348,
        -0.10689331591129303,
        0.9937514662742615
      ],
      "translation": [
        0.16557204723358154,
        0.08173507452011108,
        -8.881783998477905e-18
      ]
    },
    {
      "children": [
        24
      ],
      "name": "mixamorig:Head",
      "rotation": [
        -0.4999997913837433,
        -0.5000001788139343,
        -0.49999916553497314,
        0.5000008344650269
      ],
      "scale": [
        2.539999008178711,
        2.5399999618530273,
        2.539999008178711
      ],
      "translation": [
        0.18508820235729218,
        -0.05307203158736229,
        0.0012736129574477673
      ]
    },
    {
      "name": "mixamorig:HeadTop_End",
      "translation": [
        0.0,
        0.013808594085276127,
        0.020804643630981445
      ]
    },
    {
      "name": "mixamorig:Neck",
      "rotation": [
        -0.49999988079071045,
        -0.5000001192092896,
        -0.4999992251396179,
        0.5000007748603821
      ],
      "scale": [
        2.539999008178711,
        2.5399999618530273,
        2.539999008178711
      ],
      "translation": [
        0.0722256451845169,
        -0.22311712801456451,
        0.0012735414784401655
      ]
    },
    {
      "name": "mixamorig:Spine2",
      "rotation": [
        0.5392642021179199,
        0.457377552986145,
        0.5392634868621826,
        -0.4573781490325928
      ],
      "scale": [
        2.5399999618530273,
        2.5399999618530273,
        2.539999008178711
      ],
      "translation": [
        0.21886184811592102,
        -0.09824707359075546,
        0.0012738060904666781
      ]
    },
    {
      "name": "mixamorig:Spine1",
      "rotation": [
        0.5392642021179199,
        0.457377552986145,
        0.5392634868621826,
        -0.4573781490325928
      ],
      "scale": [
        2.5399999618530273,
        2.5399999618530273,
        2.5399999618530273
      ],
      "translation": [
        0.1956263780593872,
        -0.059987131506204605,
        0.001274025416933
      ]
    },
    {
      "children": [
        29,
        36
      ],
      "extras": {
        "FBX-glTF-conv": {
          "skeleton": {
            "skeletonType": "LimbNode"
          }
        }
      },
      "name": "Bip001 L Thigh",
      "rotation": [
        -0.17846359312534332,
        0.9835814833641052,
        -0.00441533699631691,
        -0.026433294638991356
      ],
      "translation": [
        -0.04468673840165138,
        -0.043758802115917206,
        0.1927689164876938
      ]
    },
    {
      "children": [
        30,
        35
      ],
      "extras": {
        "FBX-glTF-conv": {
          "skeleton": {
            "skeletonType": "LimbNode"
          }
        }
      },
      "name": "Bip001 L Calf",
      "rotation": [
        6.353917564974015e-18,
        -4.451184194010644e-18,
        -0.1469082087278366,
        0.9891501069068909
      ],
      "translation": [
        0.4784960150718689,
        -3.814697180359872e-08,
        -3.814697180359872e-08
      ]
    },
    {
      "children": [
        31,
        33,
        34
      ],
      "extras": {
        "FBX-glTF-conv": {
          "skeleton": {
            "skeletonType": "LimbNode"
          }
        }
      },
      "name": "Bip001 L Foot",
      "rotation": [
        -0.09742564707994461,
        -0.09871194511651993,
        0.02216123417019844,
        0.9900873899459839
      ],
      "translation": [
        0.35948607325553894,
        0.0,
        1.907348590179936e-08
      ]
    },
    {
      "children": [
        32
      ],
      "extras": {
        "FBX-glTF-conv": {
          "skeleton": {
            "skeletonType": "LimbNode"
          }
        }
      },
      "name": "Bip001 L Toe0",
      "rotation": [
        -0.015498594380915165,
        -0.017863493412733078,
        0.8865219950675964,
        0.46208158135414124
      ],
      "translation": [
        0.11005407571792603,
        0.14720526337623596,
        -3.814697180359872e-08
      ]
    },
    {
      "name": "mixamorig:LeftToe_End",
      "rotation": [
        0.5158946514129639,
        0.5000923871994019,
        0.5084517598152161,
        -0.4745914936065674
      ],
      "scale": [
        2.5400009155273438,
        2.5400009155273438,
        2.5399999618530273
      ],
      "translation": [
        0.0857095718383789,
        0.006687748245894909,
        -0.003045692341402173
      ]
    },
    {
      "name": "mixamorig:LeftFoot",
      "rotation": [
        -0.17010530829429626,
        -0.6228621006011963,
        -0.22538740932941437,
        0.7295940518379211
      ],
      "scale": [
        2.5400009155273438,
        2.5399999618530273,
        2.5399999618530273
      ],
      "translation": [
        -0.001279430347494781,
        -0.005283355712890625,
        -0.010648041032254696
      ]
    },
    {
      "name": "mixamorig:LeftToeBase",
      "rotation": [
        -0.011173262260854244,
        -0.7184112071990967,
        -0.023942064493894577,
        0.6951166987419128
      ],
      "scale": [
        2.5400009155273438,
        2.5400009155273438,
        2.5399999618530273
      ],
      "translation": [
        0.09932302683591843,
        0.15108008682727814,
        -0.004591827280819416
      ]
    },
    {
      "name": "mixamorig:LeftLeg",
      "rotation": [
        0.5103990435600281,
        0.4873567223548889,
        0.5040117502212524,
        -0.497944176197052
      ],
      "scale": [
        2.5399999618530273,
        2.5399999618530273,
        2.5399999618530273
      ],
      "translation": [
        0.007181033957749605,
        0.002397880656644702,
        -0.002958583878353238
      ]
    },
    {
      "name": "mixamorig:LeftUpLeg",
      "rotation": [
        -0.5098432302474976,
        -0.48696014285087585,
        -0.4940732717514038,
        0.5087448358535767
      ],
      "scale": [
        2.5400009155273438,
        2.539999008178711,
        2.5399999618530273
      ],
      "translation": [
        0.09449256956577301,
        0.004893036093562841,
        0.011757126078009605
      ]
    },
    {
      "children": [
        38,
        45
      ],
      "extras": {
        "FBX-glTF-conv": {
          "skeleton": {
            "skeletonType": "LimbNode"
          }
        }
      },
      "name": "Bip001 R Thigh",
      "rotation": [
        0.33205747604370117,
        0.9376381635665894,
        0.06441028416156769,
        0.0801486223936081
      ],
      "translation": [
        -0.026942672207951546,
        0.04893289878964424,
        -0.19486671686172485
      ]
    },
    {
      "children": [
        39,
        44
      ],
      "extras": {
        "FBX-glTF-conv": {
          "skeleton": {
            "skeletonType": "LimbNode"
          }
        }
      },
      "name": "Bip001 R Calf",
      "rotation": [
        5.826820707862362e-18,
        -1.0950949830999702e-17,
        -0.16856762766838074,
        0.9856901168823242
      ],
      "translation": [
        0.4784960150718689,
        -7.105427198782324e-17,
        0.0
      ]
    },
    {
      "children": [
        40,
        42,
        43
      ],
      "extras": {
        "FBX-glTF-conv": {
          "skeleton": {
            "skeletonType": "LimbNode"
          }
        }
      },
      "name": "Bip001 R Foot",
      "rotation": [
        0.10210362076759338,
        0.08742425590753555,
        0.1737273782491684,
        0.9755770564079285
      ],
      "translation": [
        0.3594861626625061,
        0.0,
        0.0
      ]
    },
    {
      "children": [
        41
      ],
      "extras": {
        "FBX-glTF-conv": {
          "skeleton": {
            "skeletonType": "LimbNode"
          }
        }
      },
      "name": "Bip001 R Toe0",
      "rotation": [
        -1.4487979704824738e-08,
        -1.1853800607752873e-08,
        0.7071067690849304,
        0.7071067690849304
      ],
      "translation": [
        0.11005409061908722,
        0.14720523357391357,
        0.0
      ]
    },
    {
      "name": "mixamorig:RightToe_End",
      "rotation": [
        0.5079807639122009,
        0.4746190905570984,
        0.5164564847946167,
        -0.49996495246887207
      ],
      "scale": [
        2.5400009155273438,
        2.5400009155273438,
        2.5400021076202393
      ],
      "translation": [
        0.08575031161308289,
        0.006690597627311945,
        0.00039445876609534025
      ]
    },
    {
      "name": "mixamorig:RightFoot",
      "rotation": [
        -0.22557277977466583,
        -0.7292258143424988,
        -0.17077229917049408,
        0.6230437159538269
      ],
      "scale": [
        2.5400009155273438,
        2.5400009155273438,
        2.5400009155273438
      ],
      "translation": [
        -0.0012762832920998335,
        -0.004456443712115288,
        0.007784194778650999
      ]
    },
    {
      "name": "mixamorig:RightToeBase",
      "rotation": [
        -0.02358981966972351,
        -0.6948030591011047,
        -0.011660696938633919,
        0.7187184691429138
      ],
      "scale": [
        2.5400009155273438,
        2.5400009155273438,
        2.5400021076202393
      ],
      "translation": [
        0.0993223562836647,
        0.1514977663755417,
        0.0018386458978056908
      ]
    },
    {
      "name": "mixamorig:RightLeg",
      "rotation": [
        0.502659797668457,
        0.4991574287414551,
        0.5092345476150513,
        -0.4887281358242035
      ],
      "scale": [
        2.5399999618530273,
        2.5400009155273438,
        2.5400009155273438
      ],
      "translation": [
        0.007027359213680029,
        0.0020841979421675205,
        0.0004177856317255646
      ]
    },
    {
      "name": "mixamorig:RightUpLeg",
      "rotation": [
        0.4929790198802948,
        0.5096495151519775,
        0.5089565515518188,
        -0.48804953694343567
      ],
      "scale": [
        2.5399999618530273,
        2.5400009155273438,
        2.5399999618530273
      ],
      "translation": [
        0.09441253542900085,
        0.0030406189616769552,
        -0.014297752641141415
      ]
    },
    {
      "name": "mixamorig:Spine",
      "rotation": [
        0.5392643213272095,
        0.45737743377685547,
        0.5392636060714722,
        -0.45737800002098083
      ],
      "scale": [
        2.5399999618530273,
        2.5399999618530273,
        2.5399999618530273
      ],
      "translation": [
        0.13986770808696747,
        -0.026514938101172447,
        0.0012742351973429322
      ]
    },
    {
      "name": "mixamorig:Hips",
      "rotation": [
        0.5000003576278687,
        0.49999967217445374,
        0.49999964237213135,
        0.5000003576278687
      ],
      "scale": [
        2.5399999618530273,
        2.5399999618530273,
        2.5399999618530273
      ],
      "translation": [
        0.002114384202286601,
        0.001274271053262055,
        0.0015001678839325905
      ]
    }
  ],
  "scenes": [
    {
      "nodes": [
        0
      ]
    }
  ]
}