{
  "accessors": [
    {
      "bufferView": 0,
      "componentType": 5126,
      "count": 144,
      "max": [
        0.42820489406585693,
        0.21747863292694092,
        0.5313538312911987
      ],
      "min": [
        -0.42820489406585693,
        -0.21747833490371704,
        -0.5313538312911987
      ],
      "name": "langan_001/POSITION",
      "type": "VEC3"
    },
    {
      "bufferView": 0,
      "byteOffset": 12,
      "componentType": 5126,
      "count": 144,
      "name": "langan_001/NORMAL",
      "type": "VEC3"
    },
    {
      "bufferView": 0,
      "byteOffset": 24,
      "componentType": 5126,
      "count": 144,
      "name": "langan_001/TEXCOORD_0",
      "type": "VEC2"
    },
    {
      "bufferView": 1,
      "componentType": 5123,
      "count": 486,
      "name": "langan_001/INDICES",
      "type": "SCALAR"
    },
    {
      "bufferView": 2,
      "componentType": 5126,
      "count": 64,
      "max": [
        0.11250152438879013,
        3.076812744140625,
        0.2896781861782074
      ],
      "min": [
        -0.11250152438879013,
        -3.076812744140625,
        -0.2896781861782074
      ],
      "name": "langan_003/POSITION",
      "type": "VEC3"
    },
    {
      "bufferView": 2,
      "byteOffset": 12,
      "componentType": 5126,
      "count": 64,
      "name": "langan_003/NORMAL",
      "type": "VEC3"
    },
    {
      "bufferView": 2,
      "byteOffset": 24,
      "componentType": 5126,
      "count": 64,
      "name": "langan_003/TEXCOORD_0",
      "type": "VEC2"
    },
    {
      "bufferView": 3,
      "componentType": 5123,
      "count": 96,
      "name": "langan_003/INDICES",
      "type": "SCALAR"
    },
    {
      "bufferView": 4,
      "componentType": 5126,
      "count": 62,
      "max": [
        0.1634558141231537,
        0.10074219107627869,
        0.5521055459976196
      ],
      "min": [
        -0.1634558141231537,
        -0.10074219107627869,
        -0.5521055459976196
      ],
      "name": "langan_002/POSITION",
      "type": "VEC3"
    },
    {
      "bufferView": 4,
      "byteOffset": 12,
      "componentType": 5126,
      "count": 62,
      "name": "langan_002/NORMAL",
      "type": "VEC3"
    },
    {
      "bufferView": 4,
      "byteOffset": 24,
      "componentType": 5126,
      "count": 62,
      "name": "langan_002/TEXCOORD_0",
      "type": "VEC2"
    },
    {
      "bufferView": 5,
      "componentType": 5123,
      "count": 228,
      "name": "langan_002/INDICES",
      "type": "SCALAR"
    }
  ],
  "asset": {
    "copyright": "Copyright (c) 2018-2020 Chukong Technologies Inc.",
    "generator": "FBX-glTF-conv",
    "version": "2.0"
  },
  "bufferViews": [
    {
      "buffer": 0,
      "byteLength": 4608,
      "byteStride": 32,
      "name": "langan_001",
      "target": 34962
    },
    {
      "buffer": 0,
      "byteLength": 972,
      "byteOffset": 4608,
      "target": 34963
    },
    {
      "buffer": 0,
      "byteLength": 2048,
      "byteOffset": 5580,
      "byteStride": 32,
      "name": "langan_003",
      "target": 34962
    },
    {
      "buffer": 0,
      "byteLength": 192,
      "byteOffset": 7628,
      "target": 34963
    },
    {
      "buffer": 0,
      "byteLength": 1984,
      "byteOffset": 7820,
      "byteStride": 32,
      "name": "langan_002",
      "target": 34962
    },
    {
      "buffer": 0,
      "byteLength": 456,
      "byteOffset": 9804,
      "target": 34963
    }
  ],
  "buffers": [
    {
      "byteLength": 10260,
      "uri": "out.bin"
    }
  ],
  "extras": {
    "FBX-glTF-conv": {
      "animationFrameRate": 30.0,
      "fbxFileHeaderInfo": {
        "creationTimeStamp": {
          "day": 20,
          "hour": 17,
          "millisecond": 417,
          "minute": 20,
          "month": 5,
          "second": 54,
          "year": 2026
        },
        "creator": "FBX SDK/FBX Plugins version 2020.3.1",
        "sceneInfo": {
          "author": "",
          "comment": "",
          "keywords": "",
          "original": {
            "applicationName": "3ds Max",
            "applicationVendor": "Autodesk",
            "applicationVersion": "2023",
            "fileName": "C:\\PlayableAD\\Cocos\\TheW\\DJBT\\DJBT_Project\\assets\\GameRes\\DJBT_map\\fbx\\DJBT_langan_01.fbx"
          },
          "revision": "",
          "subject": "",
          "title": "",
          "url": "D:\\工程项目\\test_pro\\test_pro\\HYQ_Project\\assets\\GameRes\\DJBT_map\\fbx\\DJBT_langan_01.fbx"
        }
      }
    }
  },
  "meshes": [
    {
      "name": "langan_001",
      "primitives": [
        {
          "attributes": {
            "NORMAL": 1,
            "POSITION": 0,
            "TEXCOORD_0": 2
          },
          "indices": 3
        }
      ]
    },
    {
      "name": "langan_003",
      "primitives": [
        {
          "attributes": {
            "NORMAL": 5,
            "POSITION": 4,
            "TEXCOORD_0": 6
          },
          "indices": 7
        }
      ]
    },
    {
      "name": "langan_002",
      "primitives": [
        {
          "attributes": {
            "NORMAL": 9,
            "POSITION": 8,
            "TEXCOORD_0": 10
          },
          "indices": 11
        }
      ]
    }
  ],
  "nodes": [
    {
      "mesh": 0,
      "name": "langan_001",
      "rotation": [
        -0.7071067690849304,
        -0.0,
        0.0,
        0.7071067690849304
      ],
      "translation": [
        0.020615195855498314,
        0.5269550085067749,
        3.028773784637451
      ]
    },
    {
      "mesh": 1,
      "name": "langan_003",
      "rotation": [
        -0.7071067690849304,
        -0.0,
        0.0,
        0.7071067690849304
      ],
      "translation": [
        0.03172393888235092,
        0.5350080728530884,
        -0.057362060993909836
      ]
    },
    {
      "mesh": 2,
      "name": "langan_002",
      "rotation": [
        -0.7071067690849304,
        -0.0,
        0.0,
        0.7071067690849304
      ],
      "translation": [
        0.03763139620423317,
        0.506203293800354,
        -3.2112841606140137
      ]
    }
  ],
  "scenes": [
    {
      "nodes": [
        0,
        1,
        2
      ]
    }
  ]
}