{
  "accessors": [
    {
      "bufferView": 0,
      "componentType": 5126,
      "count": 60,
      "max": [
        14.578482627868652,
        101.6161117553711,
        5.682908535003662
      ],
      "min": [
        -14.578482627868652,
        -101.6161117553711,
        0.043681640177965164
      ],
      "name": "shiban_01/POSITION",
      "type": "VEC3"
    },
    {
      "bufferView": 0,
      "byteOffset": 12,
      "componentType": 5126,
      "count": 60,
      "name": "shiban_01/NORMAL",
      "type": "VEC3"
    },
    {
      "bufferView": 0,
      "byteOffset": 24,
      "componentType": 5126,
      "count": 60,
      "name": "shiban_01/TEXCOORD_0",
      "type": "VEC2"
    },
    {
      "bufferView": 1,
      "componentType": 5123,
      "count": 198,
      "name": "shiban_01/INDICES",
      "type": "SCALAR"
    }
  ],
  "asset": {
    "copyright": "Copyright (c) 2018-2020 Chukong Technologies Inc.",
    "generator": "FBX-glTF-conv",
    "version": "2.0"
  },
  "bufferViews": [
    {
      "buffer": 0,
      "byteLength": 1920,
      "byteStride": 32,
      "name": "shiban_01",
      "target": 34962
    },
    {
      "buffer": 0,
      "byteLength": 396,
      "byteOffset": 1920,
      "target": 34963
    }
  ],
  "buffers": [
    {
      "byteLength": 2316,
      "uri": "out.bin"
    }
  ],
  "extras": {
    "FBX-glTF-conv": {
      "animationFrameRate": 30.0,
      "fbxFileHeaderInfo": {
        "creationTimeStamp": {
          "day": 20,
          "hour": 13,
          "millisecond": 974,
          "minute": 44,
          "month": 5,
          "second": 4,
          "year": 2026
        },
        "creator": "FBX SDK/FBX Plugins version 2020.3.1",
        "sceneInfo": {
          "author": "",
          "comment": "",
          "keywords": "",
          "original": {
            "applicationName": "3ds Max",
            "applicationVendor": "Autodesk",
            "applicationVersion": "2023",
            "fileName": "C:\\PlayableAD\\Cocos\\TheW\\DJBT\\DJBT_Project\\assets\\GameRes\\DJBT_map\\fbx\\DJBT_shiban_01.fbx"
          },
          "revision": "",
          "subject": "",
          "title": "",
          "url": "D:\\工程项目\\test_pro\\test_pro\\HYQ_Project\\assets\\GameRes\\DJBT_map\\fbx\\DJBT_shiban_01.fbx"
        }
      }
    }
  },
  "meshes": [
    {
      "name": "shiban_01",
      "primitives": [
        {
          "attributes": {
            "NORMAL": 1,
            "POSITION": 0,
            "TEXCOORD_0": 2
          },
          "indices": 3
        }
      ]
    }
  ],
  "nodes": [
    {
      "mesh": 0,
      "name": "shiban_01",
      "rotation": [
        -0.7071067690849304,
        -0.0,
        0.0,
        0.7071067690849304
      ]
    }
  ],
  "scenes": [
    {
      "nodes": [
        0
      ]
    }
  ]
}