{
  "accessors": [
    {
      "bufferView": 0,
      "componentType": 5126,
      "count": 690,
      "max": [
        0.40090644359588623,
        1.227667212486267,
        0.40091049671173096
      ],
      "min": [
        -0.4009053707122803,
        0.00020093144848942757,
        -0.40091049671173096
      ],
      "name": "Gen_const_barrels_03/POSITION",
      "type": "VEC3"
    },
    {
      "bufferView": 0,
      "byteOffset": 12,
      "componentType": 5126,
      "count": 690,
      "name": "Gen_const_barrels_03/NORMAL",
      "type": "VEC3"
    },
    {
      "bufferView": 0,
      "byteOffset": 24,
      "componentType": 5126,
      "count": 690,
      "name": "Gen_const_barrels_03/TEXCOORD_0",
      "type": "VEC2"
    },
    {
      "bufferView": 1,
      "componentType": 5123,
      "count": 1776,
      "name": "Gen_const_barrels_03/INDICES",
      "type": "SCALAR"
    }
  ],
  "asset": {
    "copyright": "Copyright (c) 2018-2020 Chukong Technologies Inc.",
    "generator": "FBX-glTF-conv",
    "version": "2.0"
  },
  "bufferViews": [
    {
      "buffer": 0,
      "byteLength": 22080,
      "byteStride": 32,
      "name": "Gen_const_barrels_03",
      "target": 34962
    },
    {
      "buffer": 0,
      "byteLength": 3552,
      "byteOffset": 22080,
      "target": 34963
    }
  ],
  "buffers": [
    {
      "byteLength": 25632,
      "uri": "out.bin"
    }
  ],
  "extras": {
    "FBX-glTF-conv": {
      "animationFrameRate": 30.0,
      "fbxFileHeaderInfo": {
        "creationTimeStamp": {
          "day": 17,
          "hour": 11,
          "millisecond": 255,
          "minute": 49,
          "month": 6,
          "second": 47,
          "year": 2026
        },
        "creator": "FBX SDK/FBX Plugins version 2020.1.1",
        "sceneInfo": {
          "author": "",
          "comment": "",
          "keywords": "",
          "original": {
            "applicationName": "3ds Max",
            "applicationVendor": "Autodesk",
            "applicationVersion": "2022",
            "fileName": "C:\\Users\\Administrator\\Desktop\\SLLYT\\SM_youtong.fbx"
          },
          "revision": "",
          "subject": "",
          "title": "",
          "url": "D:\\工程项目\\PlayableAD\\Cocos\\TheW\\20260615_HYQ\\HYQ_Project\\assets\\GameRes\\SLLYT_map\\fbx\\SM_youtong.fbx"
        }
      }
    }
  },
  "meshes": [
    {
      "name": "Gen_const_barrels_03",
      "primitives": [
        {
          "attributes": {
            "NORMAL": 1,
            "POSITION": 0,
            "TEXCOORD_0": 2
          },
          "indices": 3
        }
      ]
    }
  ],
  "nodes": [
    {
      "mesh": 0,
      "name": "Gen_const_barrels_03"
    }
  ],
  "scenes": [
    {
      "nodes": [
        0
      ]
    }
  ]
}