{
  "accessors": [
    {
      "bufferView": 0,
      "componentType": 5126,
      "count": 488,
      "max": [
        12.086186408996582,
        345.1484375,
        3.9969234466552734
      ],
      "min": [
        -12.086186408996582,
        6.475241661071777,
        -1.829685091972351
      ],
      "name": "daqiao01_02/POSITION",
      "type": "VEC3"
    },
    {
      "bufferView": 0,
      "byteOffset": 12,
      "componentType": 5126,
      "count": 488,
      "name": "daqiao01_02/NORMAL",
      "type": "VEC3"
    },
    {
      "bufferView": 0,
      "byteOffset": 24,
      "componentType": 5126,
      "count": 488,
      "name": "daqiao01_02/TEXCOORD_0",
      "type": "VEC2"
    },
    {
      "bufferView": 1,
      "componentType": 5123,
      "count": 780,
      "name": "daqiao01_02/INDICES",
      "type": "SCALAR"
    },
    {
      "bufferView": 2,
      "componentType": 5126,
      "count": 22,
      "max": [
        8.582165718078613,
        345.1322326660156,
        3.447953224182129
      ],
      "min": [
        -8.582165718078613,
        6.475241661071777,
        -0.46473175287246704
      ],
      "name": "daqiao01_01/POSITION",
      "type": "VEC3"
    },
    {
      "bufferView": 2,
      "byteOffset": 12,
      "componentType": 5126,
      "count": 22,
      "name": "daqiao01_01/NORMAL",
      "type": "VEC3"
    },
    {
      "bufferView": 2,
      "byteOffset": 24,
      "componentType": 5126,
      "count": 22,
      "name": "daqiao01_01/TEXCOORD_0",
      "type": "VEC2"
    },
    {
      "bufferView": 3,
      "componentType": 5123,
      "count": 36,
      "name": "daqiao01_01/INDICES",
      "type": "SCALAR"
    }
  ],
  "asset": {
    "copyright": "Copyright (c) 2018-2020 Chukong Technologies Inc.",
    "generator": "FBX-glTF-conv",
    "version": "2.0"
  },
  "bufferViews": [
    {
      "buffer": 0,
      "byteLength": 15616,
      "byteStride": 32,
      "name": "daqiao01_02",
      "target": 34962
    },
    {
      "buffer": 0,
      "byteLength": 1560,
      "byteOffset": 15616,
      "target": 34963
    },
    {
      "buffer": 0,
      "byteLength": 704,
      "byteOffset": 17176,
      "byteStride": 32,
      "name": "daqiao01_01",
      "target": 34962
    },
    {
      "buffer": 0,
      "byteLength": 72,
      "byteOffset": 17880,
      "target": 34963
    }
  ],
  "buffers": [
    {
      "byteLength": 17952,
      "uri": "out.bin"
    }
  ],
  "extras": {
    "FBX-glTF-conv": {
      "animationFrameRate": 30.0,
      "fbxFileHeaderInfo": {
        "creationTimeStamp": {
          "day": 15,
          "hour": 16,
          "millisecond": 468,
          "minute": 41,
          "month": 5,
          "second": 43,
          "year": 2026
        },
        "creator": "FBX SDK/FBX Plugins version 2020.1.1",
        "sceneInfo": {
          "author": "",
          "comment": "",
          "keywords": "",
          "original": {
            "applicationName": "3ds Max",
            "applicationVendor": "Autodesk",
            "applicationVersion": "2022",
            "fileName": "D:\\PlayableAD\\Cocos\\TheW\\DotNoName\\DotNoNamePreject\\assets\\GameRes\\Environment\\Fbx\\daqiao01_01.fbx"
          },
          "revision": "",
          "subject": "",
          "title": "",
          "url": "D:\\工程项目\\test_pro\\test_pro\\HYQ_Project\\assets\\GameRes\\Environment\\Fbx\\daqiao01_01.fbx"
        }
      }
    }
  },
  "meshes": [
    {
      "name": "daqiao01_02",
      "primitives": [
        {
          "attributes": {
            "NORMAL": 1,
            "POSITION": 0,
            "TEXCOORD_0": 2
          },
          "indices": 3
        }
      ]
    },
    {
      "name": "daqiao01_01",
      "primitives": [
        {
          "attributes": {
            "NORMAL": 5,
            "POSITION": 4,
            "TEXCOORD_0": 6
          },
          "indices": 7
        }
      ]
    }
  ],
  "nodes": [
    {
      "mesh": 0,
      "name": "daqiao01_02",
      "rotation": [
        -0.7071067690849304,
        -0.0,
        0.0,
        0.7071067690849304
      ]
    },
    {
      "mesh": 1,
      "name": "daqiao01_01",
      "rotation": [
        -0.7071067690849304,
        -0.0,
        0.0,
        0.7071067690849304
      ]
    }
  ],
  "scenes": [
    {
      "nodes": [
        0,
        1
      ]
    }
  ]
}