{
  "accessors": [
    {
      "bufferView": 0,
      "componentType": 5126,
      "count": 169,
      "max": [
        0.1400064378976822,
        2.04231595993042,
        0.0828605592250824
      ],
      "min": [
        -0.1400064378976822,
        0.0008334350422956049,
        -0.08286092430353165
      ],
      "name": "beizhenmen01/POSITION",
      "type": "VEC3"
    },
    {
      "bufferView": 0,
      "byteOffset": 12,
      "componentType": 5126,
      "count": 169,
      "name": "beizhenmen01/NORMAL",
      "type": "VEC3"
    },
    {
      "bufferView": 0,
      "byteOffset": 24,
      "componentType": 5126,
      "count": 169,
      "name": "beizhenmen01/TEXCOORD_0",
      "type": "VEC2"
    },
    {
      "bufferView": 1,
      "componentType": 5123,
      "count": 318,
      "name": "beizhenmen01/INDICES",
      "type": "SCALAR"
    }
  ],
  "asset": {
    "copyright": "Copyright (c) 2018-2020 Chukong Technologies Inc.",
    "generator": "FBX-glTF-conv",
    "version": "2.0"
  },
  "bufferViews": [
    {
      "buffer": 0,
      "byteLength": 5408,
      "byteStride": 32,
      "name": "beizhenmen01",
      "target": 34962
    },
    {
      "buffer": 0,
      "byteLength": 636,
      "byteOffset": 5408,
      "target": 34963
    }
  ],
  "buffers": [
    {
      "byteLength": 6044,
      "uri": "out.bin"
    }
  ],
  "extras": {
    "FBX-glTF-conv": {
      "animationFrameRate": 30.0,
      "fbxFileHeaderInfo": {
        "creationTimeStamp": {
          "day": 15,
          "hour": 16,
          "millisecond": 220,
          "minute": 41,
          "month": 5,
          "second": 18,
          "year": 2026
        },
        "creator": "FBX SDK/FBX Plugins version 2020.1.1",
        "sceneInfo": {
          "author": "",
          "comment": "",
          "keywords": "",
          "original": {
            "applicationName": "3ds Max",
            "applicationVendor": "Autodesk",
            "applicationVersion": "2022",
            "fileName": "D:\\PlayableAD\\Cocos\\TheW\\DotNoName\\DotNoNamePreject\\assets\\GameRes\\Environment\\Fbx\\beizhenmen01.fbx"
          },
          "revision": "",
          "subject": "",
          "title": "",
          "url": "D:\\工程项目\\test_pro\\test_pro\\HYQ_Project\\assets\\GameRes\\DJBT_map\\fbx\\beizhenmen01.fbx"
        }
      }
    }
  },
  "meshes": [
    {
      "name": "beizhenmen01",
      "primitives": [
        {
          "attributes": {
            "NORMAL": 1,
            "POSITION": 0,
            "TEXCOORD_0": 2
          },
          "indices": 3
        }
      ]
    }
  ],
  "nodes": [
    {
      "mesh": 0,
      "name": "beizhenmen01"
    }
  ],
  "scenes": [
    {
      "nodes": [
        0
      ]
    }
  ]
}