{
  "accessors": [
    {
      "bufferView": 0,
      "componentType": 5126,
      "count": 1769,
      "max": [
        0.6888990998268127,
        0.23815800249576569,
        1.848876953125
      ],
      "min": [
        -0.6908509731292725,
        -0.18811199069023132,
        -0.0008929999894462526
      ],
      "name": "dazhuang/POSITION",
      "type": "VEC3"
    },
    {
      "bufferView": 0,
      "byteOffset": 12,
      "componentType": 5126,
      "count": 1769,
      "name": "dazhuang/NORMAL",
      "type": "VEC3"
    },
    {
      "bufferView": 0,
      "byteOffset": 24,
      "componentType": 5126,
      "count": 1769,
      "name": "dazhuang/TEXCOORD_0",
      "type": "VEC2"
    },
    {
      "bufferView": 0,
      "byteOffset": 32,
      "componentType": 5123,
      "count": 1769,
      "name": "dazhuang/JOINTS_0",
      "type": "VEC4"
    },
    {
      "bufferView": 0,
      "byteOffset": 40,
      "componentType": 5126,
      "count": 1769,
      "name": "dazhuang/WEIGHTS_0",
      "type": "VEC4"
    },
    {
      "bufferView": 0,
      "byteOffset": 56,
      "componentType": 5123,
      "count": 1769,
      "name": "dazhuang/JOINTS_1",
      "type": "VEC4"
    },
    {
      "bufferView": 0,
      "byteOffset": 64,
      "componentType": 5126,
      "count": 1769,
      "name": "dazhuang/WEIGHTS_1",
      "type": "VEC4"
    },
    {
      "bufferView": 0,
      "byteOffset": 80,
      "componentType": 5123,
      "count": 1769,
      "name": "dazhuang/JOINTS_2",
      "type": "VEC4"
    },
    {
      "bufferView": 0,
      "byteOffset": 88,
      "componentType": 5126,
      "count": 1769,
      "name": "dazhuang/WEIGHTS_2",
      "type": "VEC4"
    },
    {
      "bufferView": 1,
      "componentType": 5123,
      "count": 6993,
      "name": "dazhuang/INDICES",
      "type": "SCALAR"
    },
    {
      "bufferView": 2,
      "componentType": 5126,
      "count": 21,
      "name": "/InverseBindMatrices",
      "type": "MAT4"
    }
  ],
  "asset": {
    "copyright": "Copyright (c) 2018-2020 Chukong Technologies Inc.",
    "generator": "FBX-glTF-conv",
    "version": "2.0"
  },
  "bufferViews": [
    {
      "buffer": 0,
      "byteLength": 183976,
      "byteStride": 104,
      "name": "dazhuang",
      "target": 34962
    },
    {
      "buffer": 0,
      "byteLength": 13986,
      "byteOffset": 183976,
      "target": 34963
    },
    {
      "buffer": 0,
      "byteLength": 1344,
      "byteOffset": 197962
    }
  ],
  "buffers": [
    {
      "byteLength": 199306,
      "uri": "out.bin"
    }
  ],
  "extras": {
    "FBX-glTF-conv": {
      "animationFrameRate": 30.0,
      "fbxFileHeaderInfo": {
        "creationTimeStamp": {
          "day": 8,
          "hour": 18,
          "millisecond": 540,
          "minute": 17,
          "month": 6,
          "second": 58,
          "year": 2026
        },
        "creator": "FBX SDK/FBX Plugins version 2020.3.7",
        "sceneInfo": {
          "author": "",
          "comment": "",
          "keywords": "",
          "original": {
            "applicationName": "3ds Max",
            "applicationVendor": "Autodesk",
            "applicationVersion": "2026",
            "fileName": "E:\\试玩需求\\大壮\\修改\\新skin.fbx"
          },
          "revision": "",
          "subject": "",
          "title": "",
          "url": "D:\\工程项目\\test_pro\\test_pro\\HYQ_Project\\assets\\GameRes\\FBX\\Hero_1\\dazhuang.fbx"
        }
      }
    }
  },
  "meshes": [
    {
      "name": "dazhuang",
      "primitives": [
        {
          "attributes": {
            "JOINTS_0": 3,
            "JOINTS_1": 5,
            "JOINTS_2": 7,
            "NORMAL": 1,
            "POSITION": 0,
            "TEXCOORD_0": 2,
            "WEIGHTS_0": 4,
            "WEIGHTS_1": 6,
            "WEIGHTS_2": 8
          },
          "indices": 9
        }
      ]
    }
  ],
  "nodes": [
    {
      "mesh": 0,
      "name": "dazhuang",
      "rotation": [
        -0.7071067690849304,
        -0.0,
        0.0,
        0.7071067690849304
      ],
      "scale": [
        1.0677249431610107,
        1.0677249431610107,
        1.0677249431610107
      ],
      "skin": 0,
      "translation": [
        0.0,
        0.0,
        -0.013483581133186817
      ]
    },
    {
      "children": [
        2,
        26
      ],
      "extras": {
        "FBX-glTF-conv": {
          "skeleton": {
            "skeletonType": "Root"
          }
        }
      },
      "name": "Bip001",
      "rotation": [
        -0.5000003576278687,
        -0.49999964237213135,
        -0.49999964237213135,
        0.5000003576278687
      ],
      "translation": [
        0.0,
        1.0262242555618286,
        -0.030854295939207077
      ]
    },
    {
      "children": [
        3
      ],
      "extras": {
        "FBX-glTF-conv": {
          "skeleton": {
            "skeletonType": "LimbNode"
          }
        }
      },
      "name": "Bip001 Pelvis",
      "rotation": [
        -0.5,
        -0.5,
        -0.4999993145465851,
        0.5000007152557373
      ]
    },
    {
      "children": [
        4,
        9,
        14
      ],
      "extras": {
        "FBX-glTF-conv": {
          "skeleton": {
            "skeletonType": "LimbNode"
          }
        }
      },
      "name": "Bip001 Spine",
      "rotation": [
        -2.0804759515158366e-06,
        -6.936759859854646e-07,
        0.0003981589979957789,
        0.9999999403953552
      ],
      "translation": [
        0.0722116082906723,
        0.024522690102458,
        4.139597820085328e-08
      ]
    },
    {
      "children": [
        5
      ],
      "extras": {
        "FBX-glTF-conv": {
          "skeleton": {
            "skeletonType": "LimbNode"
          }
        }
      },
      "name": "Bip001 L Thigh",
      "rotation": [
        0.0467529259622097,
        0.9909859895706177,
        0.10528938472270966,
        -0.06837426126003265
      ],
      "translation": [
        -0.07223114371299744,
        -0.02446538396179676,
        0.08940529078245163
      ]
    },
    {
      "children": [
        6
      ],
      "extras": {
        "FBX-glTF-conv": {
          "skeleton": {
            "skeletonType": "LimbNode"
          }
        }
      },
      "name": "Bip001 L Calf",
      "rotation": [
        4.680751422617332e-19,
        3.4377270570040432e-18,
        -0.13491347432136536,
        0.9908573627471924
      ],
      "translation": [
        0.40392667055130005,
        0.0,
        -3.552713599391162e-17
      ]
    },
    {
      "children": [
        7
      ],
      "extras": {
        "FBX-glTF-conv": {
          "skeleton": {
            "skeletonType": "LimbNode"
          }
        }
      },
      "name": "Bip001 L Foot",
      "rotation": [
        0.006559259258210659,
        -0.06272029131650925,
        0.08149074018001556,
        0.9946770071983337
      ],
      "translation": [
        0.5253466963768005,
        -9.53674295089968e-09,
        -1.907348590179936e-08
      ]
    },
    {
      "children": [
        8
      ],
      "extras": {
        "FBX-glTF-conv": {
          "skeleton": {
            "skeletonType": "LimbNode"
          }
        }
      },
      "name": "Bip001 L Toe0",
      "rotation": [
        1.0185956078601066e-08,
        2.0722668025996427e-08,
        0.7071067690849304,
        0.7071067690849304
      ],
      "translation": [
        0.08683574944734573,
        0.10477733612060547,
        0.0
      ]
    },
    {
      "extras": {
        "FBX-glTF-conv": {
          "skeleton": {
            "skeletonType": "LimbNode"
          }
        }
      },
      "name": "Bip001 L Toe0Nub",
      "rotation": [
        7.4505792646561986e-09,
        -4.098253824093688e-22,
        1.0,
        -1.8375892746737375e-15
      ],
      "scale": [
        -1.0,
        -1.0,
        -1.0
      ],
      "translation": [
        0.12583911418914795,
        2.38418573772492e-09,
        -1.907348590179936e-08
      ]
    },
    {
      "children": [
        10
      ],
      "extras": {
        "FBX-glTF-conv": {
          "skeleton": {
            "skeletonType": "LimbNode"
          }
        }
      },
      "name": "Bip001 R Thigh",
      "rotation": [
        0.04675311967730522,
        0.9909862875938416,
        -0.1052866280078888,
        0.06837423145771027
      ],
      "translation": [
        -0.07223114371299744,
        -0.024464888498187065,
        -0.08940538763999939
      ]
    },
    {
      "children": [
        11
      ],
      "extras": {
        "FBX-glTF-conv": {
          "skeleton": {
            "skeletonType": "LimbNode"
          }
        }
      },
      "name": "Bip001 R Calf",
      "rotation": [
        1.281475815028786e-17,
        -8.747755096645326e-18,
        -0.13491348922252655,
        0.9908573627471924
      ],
      "translation": [
        0.4039266109466553,
        0.0,
        -1.907348590179936e-08
      ]
    },
    {
      "children": [
        12
      ],
      "extras": {
        "FBX-glTF-conv": {
          "skeleton": {
            "skeletonType": "LimbNode"
          }
        }
      },
      "name": "Bip001 R Foot",
      "rotation": [
        -0.006559273228049278,
        0.062720388174057,
        0.08149072527885437,
        0.9946770071983337
      ],
      "translation": [
        0.5253466963768005,
        9.53674295089968e-09,
        1.907348590179936e-08
      ]
    },
    {
      "children": [
        13
      ],
      "extras": {
        "FBX-glTF-conv": {
          "skeleton": {
            "skeletonType": "LimbNode"
          }
        }
      },
      "name": "Bip001 R Toe0",
      "rotation": [
        -1.0185955190422646e-08,
        -2.0722666249639587e-08,
        0.7071067690849304,
        0.7071067690849304
      ],
      "translation": [
        0.08683574944734573,
        0.10477733612060547,
        1.907348590179936e-08
      ]
    },
    {
      "extras": {
        "FBX-glTF-conv": {
          "skeleton": {
            "skeletonType": "LimbNode"
          }
        }
      },
      "name": "Bip001 R Toe0Nub",
      "translation": [
        0.12583914399147034,
        2.38418573772492e-09,
        -1.907348590179936e-08
      ]
    },
    {
      "children": [
        15
      ],
      "extras": {
        "FBX-glTF-conv": {
          "skeleton": {
            "skeletonType": "LimbNode"
          }
        }
      },
      "name": "Bip001 Spine1",
      "rotation": [
        -5.976288393197762e-14,
        1.3837635037816653e-07,
        -0.049890514463186264,
        0.9987546801567078
      ],
      "translation": [
        0.2827458083629608,
        -0.00023664295440539718,
        -6.563556365080103e-10
      ]
    },
    {
      "children": [
        16,
        20,
        24
      ],
      "extras": {
        "FBX-glTF-conv": {
          "skeleton": {
            "skeletonType": "LimbNode"
          }
        }
      },
      "name": "Bip001 Neck",
      "rotation": [
        -1.7700261878417223e-06,
        5.747714340031962e-07,
        0.11564712226390839,
        0.993290364742279
      ],
      "translation": [
        0.2843591272830963,
        -0.0336204431951046,
        -4.197692859975177e-08
      ]
    },
    {
      "children": [
        17
      ],
      "extras": {
        "FBX-glTF-conv": {
          "skeleton": {
            "skeletonType": "LimbNode"
          }
        }
      },
      "name": "Bip001 L Clavicle",
      "rotation": [
        0.7017064690589905,
        -0.08722183108329773,
        0.7029149532318115,
        0.0768827348947525
      ],
      "translation": [
        -0.12642669677734375,
        -0.018916644155979156,
        0.10685630887746811
      ]
    },
    {
      "children": [
        18
      ],
      "extras": {
        "FBX-glTF-conv": {
          "skeleton": {
            "skeletonType": "LimbNode"
          }
        }
      },
      "name": "Bip001 L UpperArm",
      "rotation": [
        -0.06153464317321777,
        0.37407180666923523,
        0.09354978799819946,
        0.9206151366233826
      ],
      "translation": [
        0.12755075097084045,
        -1.907348590179936e-08,
        -2.8421708795129297e-16
      ]
    },
    {
      "children": [
        19
      ],
      "extras": {
        "FBX-glTF-conv": {
          "skeleton": {
            "skeletonType": "LimbNode"
          }
        }
      },
      "name": "Bip001 L Forearm",
      "rotation": [
        1.7604355581374054e-17,
        -4.683797060273722e-17,
        -0.22649849951267242,
        0.9740115404129028
      ],
      "translation": [
        0.2662736475467682,
        3.552713599391162e-17,
        7.629394360719743e-08
      ]
    },
    {
      "extras": {
        "FBX-glTF-conv": {
          "skeleton": {
            "skeletonType": "LimbNode"
          }
        }
      },
      "name": "Bip001 L Hand",
      "rotation": [
        -0.7304133772850037,
        0.038269415497779846,
        0.015705429017543793,
        0.6817514896392822
      ],
      "translation": [
        0.28649020195007324,
        7.629394360719743e-08,
        0.0
      ]
    },
    {
      "children": [
        21
      ],
      "extras": {
        "FBX-glTF-conv": {
          "skeleton": {
            "skeletonType": "LimbNode"
          }
        }
      },
      "name": "Bip001 R Clavicle",
      "rotation": [
        -0.7017075419425964,
        0.08721738308668137,
        0.7029139399528503,
        0.07688719034194946
      ],
      "translation": [
        -0.12642623484134674,
        -0.0189153291285038,
        -0.10685720294713974
      ]
    },
    {
      "children": [
        22
      ],
      "extras": {
        "FBX-glTF-conv": {
          "skeleton": {
            "skeletonType": "LimbNode"
          }
        }
      },
      "name": "Bip001 R UpperArm",
      "rotation": [
        0.061534639447927475,
        -0.37407177686691284,
        0.09354978799819946,
        0.9206151366233826
      ],
      "translation": [
        0.12755075097084045,
        -9.53674295089968e-09,
        1.5258788721439487e-07
      ]
    },
    {
      "children": [
        23
      ],
      "extras": {
        "FBX-glTF-conv": {
          "skeleton": {
            "skeletonType": "LimbNode"
          }
        }
      },
      "name": "Bip001 R Forearm",
      "rotation": [
        1.4461057673143973e-17,
        -6.035509442858876e-17,
        -0.22649849951267242,
        0.9740115404129028
      ],
      "translation": [
        0.2662736475467682,
        0.0,
        1.4210854397564648e-16
      ]
    },
    {
      "extras": {
        "FBX-glTF-conv": {
          "skeleton": {
            "skeletonType": "LimbNode"
          }
        }
      },
      "name": "Bip001 R Hand",
      "rotation": [
        0.7304133772850037,
        -0.03826942294836044,
        0.01570546068251133,
        0.6817514896392822
      ],
      "translation": [
        0.28649017214775085,
        7.105427198782324e-17,
        1.5258788721439487e-07
      ]
    },
    {
      "children": [
        25
      ],
      "extras": {
        "FBX-glTF-conv": {
          "skeleton": {
            "skeletonType": "LimbNode"
          }
        }
      },
      "name": "Bip001 Head",
      "rotation": [
        1.683154550846666e-06,
        -9.758366559253773e-07,
        -0.026646804064512253,
        0.999644935131073
      ],
      "translation": [
        0.06347213685512543,
        -0.0012642479268833995,
        -4.6796967012596724e-07
      ]
    },
    {
      "extras": {
        "FBX-glTF-conv": {
          "skeleton": {
            "skeletonType": "LimbNode"
          }
        }
      },
      "name": "Bip001 HeadNub",
      "translation": [
        0.22270095348358154,
        0.0,
        5.421010741258487e-22
      ]
    },
    {
      "extras": {
        "FBX-glTF-conv": {
          "skeleton": {
            "skeletonType": "LimbNode"
          }
        }
      },
      "name": "Bip001 Prop1",
      "rotation": [
        -4.2146808709730976e-08,
        0.7071067690849304,
        4.2146808709730976e-08,
        0.7071067690849304
      ],
      "translation": [
        0.012667052447795868,
        -1.8429875373840332,
        0.09599640220403671
      ]
    }
  ],
  "scenes": [
    {
      "nodes": [
        0,
        1
      ]
    }
  ],
  "skins": [
    {
      "inverseBindMatrices": 10,
      "joints": [
        21,
        20,
        17,
        24,
        15,
        14,
        10,
        9,
        4,
        3,
        2,
        16,
        5,
        23,
        22,
        19,
        18,
        12,
        7,
        6,
        11
      ]
    }
  ]
}