{
  "accessors": [
    {
      "bufferView": 0,
      "componentType": 5126,
      "count": 9,
      "name": "Bip001/translation/Output",
      "type": "VEC3"
    },
    {
      "bufferView": 1,
      "componentType": 5126,
      "count": 9,
      "max": [
        0.3333333432674408
      ],
      "min": [
        0.0
      ],
      "name": "Bip001/translation/Input",
      "type": "SCALAR"
    },
    {
      "bufferView": 2,
      "componentType": 5126,
      "count": 1,
      "name": "Bip001/rotation/Output",
      "type": "VEC4"
    },
    {
      "bufferView": 3,
      "componentType": 5126,
      "count": 1,
      "max": [
        0.3333333432674408
      ],
      "min": [
        0.3333333432674408
      ],
      "name": "Bip001/rotation/Input",
      "type": "SCALAR"
    },
    {
      "bufferView": 4,
      "componentType": 5126,
      "count": 1,
      "name": "Bip001/scale/Output",
      "type": "VEC3"
    },
    {
      "bufferView": 5,
      "componentType": 5126,
      "count": 1,
      "max": [
        0.3333333432674408
      ],
      "min": [
        0.3333333432674408
      ],
      "name": "Bip001/scale/Input",
      "type": "SCALAR"
    },
    {
      "bufferView": 6,
      "componentType": 5126,
      "count": 1,
      "name": "Bip001 Pelvis/translation/Output",
      "type": "VEC3"
    },
    {
      "bufferView": 7,
      "componentType": 5126,
      "count": 1,
      "max": [
        0.3333333432674408
      ],
      "min": [
        0.3333333432674408
      ],
      "name": "Bip001 Pelvis/translation/Input",
      "type": "SCALAR"
    },
    {
      "bufferView": 8,
      "componentType": 5126,
      "count": 1,
      "name": "Bip001 Pelvis/rotation/Output",
      "type": "VEC4"
    },
    {
      "bufferView": 9,
      "componentType": 5126,
      "count": 1,
      "max": [
        0.3333333432674408
      ],
      "min": [
        0.3333333432674408
      ],
      "name": "Bip001 Pelvis/rotation/Input",
      "type": "SCALAR"
    },
    {
      "bufferView": 10,
      "componentType": 5126,
      "count": 1,
      "name": "Bip001 Pelvis/scale/Output",
      "type": "VEC3"
    },
    {
      "bufferView": 11,
      "componentType": 5126,
      "count": 1,
      "max": [
        0.3333333432674408
      ],
      "min": [
        0.3333333432674408
      ],
      "name": "Bip001 Pelvis/scale/Input",
      "type": "SCALAR"
    },
    {
      "bufferView": 12,
      "componentType": 5126,
      "count": 11,
      "name": "Bip001 Spine/translation/Output",
      "type": "VEC3"
    },
    {
      "bufferView": 13,
      "componentType": 5126,
      "count": 11,
      "max": [
        0.3333333432674408
      ],
      "min": [
        0.0
      ],
      "name": "Bip001 Spine/translation/Input",
      "type": "SCALAR"
    },
    {
      "bufferView": 14,
      "componentType": 5126,
      "count": 11,
      "name": "Bip001 Spine/rotation/Output",
      "type": "VEC4"
    },
    {
      "bufferView": 15,
      "componentType": 5126,
      "count": 11,
      "max": [
        0.3333333432674408
      ],
      "min": [
        0.0
      ],
      "name": "Bip001 Spine/rotation/Input",
      "type": "SCALAR"
    },
    {
      "bufferView": 16,
      "componentType": 5126,
      "count": 1,
      "name": "Bip001 Spine/scale/Output",
      "type": "VEC3"
    },
    {
      "bufferView": 17,
      "componentType": 5126,
      "count": 1,
      "max": [
        0.3333333432674408
      ],
      "min": [
        0.3333333432674408
      ],
      "name": "Bip001 Spine/scale/Input",
      "type": "SCALAR"
    },
    {
      "bufferView": 18,
      "componentType": 5126,
      "count": 11,
      "name": "Bip001 L Thigh/translation/Output",
      "type": "VEC3"
    },
    {
      "bufferView": 19,
      "componentType": 5126,
      "count": 11,
      "max": [
        0.3333333432674408
      ],
      "min": [
        0.0
      ],
      "name": "Bip001 L Thigh/translation/Input",
      "type": "SCALAR"
    },
    {
      "bufferView": 20,
      "componentType": 5126,
      "count": 11,
      "name": "Bip001 L Thigh/rotation/Output",
      "type": "VEC4"
    },
    {
      "bufferView": 21,
      "componentType": 5126,
      "count": 11,
      "max": [
        0.3333333432674408
      ],
      "min": [
        0.0
      ],
      "name": "Bip001 L Thigh/rotation/Input",
      "type": "SCALAR"
    },
    {
      "bufferView": 22,
      "componentType": 5126,
      "count": 1,
      "name": "Bip001 L Thigh/scale/Output",
      "type": "VEC3"
    },
    {
      "bufferView": 23,
      "componentType": 5126,
      "count": 1,
      "max": [
        0.3333333432674408
      ],
      "min": [
        0.3333333432674408
      ],
      "name": "Bip001 L Thigh/scale/Input",
      "type": "SCALAR"
    },
    {
      "bufferView": 24,
      "componentType": 5126,
      "count": 1,
      "name": "Bip001 L Calf/translation/Output",
      "type": "VEC3"
    },
    {
      "bufferView": 25,
      "componentType": 5126,
      "count": 1,
      "max": [
        0.10000000149011612
      ],
      "min": [
        0.10000000149011612
      ],
      "name": "Bip001 L Calf/translation/Input",
      "type": "SCALAR"
    },
    {
      "bufferView": 26,
      "componentType": 5126,
      "count": 11,
      "name": "Bip001 L Calf/rotation/Output",
      "type": "VEC4"
    },
    {
      "bufferView": 27,
      "componentType": 5126,
      "count": 11,
      "max": [
        0.3333333432674408
      ],
      "min": [
        0.0
      ],
      "name": "Bip001 L Calf/rotation/Input",
      "type": "SCALAR"
    },
    {
      "bufferView": 28,
      "componentType": 5126,
      "count": 1,
      "name": "Bip001 L Calf/scale/Output",
      "type": "VEC3"
    },
    {
      "bufferView": 29,
      "componentType": 5126,
      "count": 1,
      "max": [
        0.3333333432674408
      ],
      "min": [
        0.3333333432674408
      ],
      "name": "Bip001 L Calf/scale/Input",
      "type": "SCALAR"
    },
    {
      "bufferView": 30,
      "componentType": 5126,
      "count": 3,
      "name": "Bip001 L Foot/translation/Output",
      "type": "VEC3"
    },
    {
      "bufferView": 31,
      "componentType": 5126,
      "count": 3,
      "max": [
        0.3333333432674408
      ],
      "min": [
        0.20000000298023224
      ],
      "name": "Bip001 L Foot/translation/Input",
      "type": "SCALAR"
    },
    {
      "bufferView": 32,
      "componentType": 5126,
      "count": 11,
      "name": "Bip001 L Foot/rotation/Output",
      "type": "VEC4"
    },
    {
      "bufferView": 33,
      "componentType": 5126,
      "count": 11,
      "max": [
        0.3333333432674408
      ],
      "min": [
        0.0
      ],
      "name": "Bip001 L Foot/rotation/Input",
      "type": "SCALAR"
    },
    {
      "bufferView": 34,
      "componentType": 5126,
      "count": 1,
      "name": "Bip001 L Foot/scale/Output",
      "type": "VEC3"
    },
    {
      "bufferView": 35,
      "componentType": 5126,
      "count": 1,
      "max": [
        0.3333333432674408
      ],
      "min": [
        0.3333333432674408
      ],
      "name": "Bip001 L Foot/scale/Input",
      "type": "SCALAR"
    },
    {
      "bufferView": 36,
      "componentType": 5126,
      "count": 1,
      "name": "Bip001 L Toe0/translation/Output",
      "type": "VEC3"
    },
    {
      "bufferView": 37,
      "componentType": 5126,
      "count": 1,
      "max": [
        0.3333333432674408
      ],
      "min": [
        0.3333333432674408
      ],
      "name": "Bip001 L Toe0/translation/Input",
      "type": "SCALAR"
    },
    {
      "bufferView": 38,
      "componentType": 5126,
      "count": 11,
      "name": "Bip001 L Toe0/rotation/Output",
      "type": "VEC4"
    },
    {
      "bufferView": 39,
      "componentType": 5126,
      "count": 11,
      "max": [
        0.3333333432674408
      ],
      "min": [
        0.0
      ],
      "name": "Bip001 L Toe0/rotation/Input",
      "type": "SCALAR"
    },
    {
      "bufferView": 40,
      "componentType": 5126,
      "count": 1,
      "name": "Bip001 L Toe0/scale/Output",
      "type": "VEC3"
    },
    {
      "bufferView": 41,
      "componentType": 5126,
      "count": 1,
      "max": [
        0.3333333432674408
      ],
      "min": [
        0.3333333432674408
      ],
      "name": "Bip001 L Toe0/scale/Input",
      "type": "SCALAR"
    },
    {
      "bufferView": 42,
      "componentType": 5126,
      "count": 11,
      "name": "Bip001 R Thigh/translation/Output",
      "type": "VEC3"
    },
    {
      "bufferView": 43,
      "componentType": 5126,
      "count": 11,
      "max": [
        0.3333333432674408
      ],
      "min": [
        0.0
      ],
      "name": "Bip001 R Thigh/translation/Input",
      "type": "SCALAR"
    },
    {
      "bufferView": 44,
      "componentType": 5126,
      "count": 11,
      "name": "Bip001 R Thigh/rotation/Output",
      "type": "VEC4"
    },
    {
      "bufferView": 45,
      "componentType": 5126,
      "count": 11,
      "max": [
        0.3333333432674408
      ],
      "min": [
        0.0
      ],
      "name": "Bip001 R Thigh/rotation/Input",
      "type": "SCALAR"
    },
    {
      "bufferView": 46,
      "componentType": 5126,
      "count": 1,
      "name": "Bip001 R Thigh/scale/Output",
      "type": "VEC3"
    },
    {
      "bufferView": 47,
      "componentType": 5126,
      "count": 1,
      "max": [
        0.3333333432674408
      ],
      "min": [
        0.3333333432674408
      ],
      "name": "Bip001 R Thigh/scale/Input",
      "type": "SCALAR"
    },
    {
      "bufferView": 48,
      "componentType": 5126,
      "count": 6,
      "name": "Bip001 R Calf/translation/Output",
      "type": "VEC3"
    },
    {
      "bufferView": 49,
      "componentType": 5126,
      "count": 6,
      "max": [
        0.30000001192092896
      ],
      "min": [
        0.03333333507180214
      ],
      "name": "Bip001 R Calf/translation/Input",
      "type": "SCALAR"
    },
    {
      "bufferView": 50,
      "componentType": 5126,
      "count": 11,
      "name": "Bip001 R Calf/rotation/Output",
      "type": "VEC4"
    },
    {
      "bufferView": 51,
      "componentType": 5126,
      "count": 11,
      "max": [
        0.3333333432674408
      ],
      "min": [
        0.0
      ],
      "name": "Bip001 R Calf/rotation/Input",
      "type": "SCALAR"
    },
    {
      "bufferView": 52,
      "componentType": 5126,
      "count": 1,
      "name": "Bip001 R Calf/scale/Output",
      "type": "VEC3"
    },
    {
      "bufferView": 53,
      "componentType": 5126,
      "count": 1,
      "max": [
        0.3333333432674408
      ],
      "min": [
        0.3333333432674408
      ],
      "name": "Bip001 R Calf/scale/Input",
      "type": "SCALAR"
    },
    {
      "bufferView": 54,
      "componentType": 5126,
      "count": 6,
      "name": "Bip001 R Foot/translation/Output",
      "type": "VEC3"
    },
    {
      "bufferView": 55,
      "componentType": 5126,
      "count": 6,
      "max": [
        0.3333333432674408
      ],
      "min": [
        0.0
      ],
      "name": "Bip001 R Foot/translation/Input",
      "type": "SCALAR"
    },
    {
      "bufferView": 56,
      "componentType": 5126,
      "count": 11,
      "name": "Bip001 R Foot/rotation/Output",
      "type": "VEC4"
    },
    {
      "bufferView": 57,
      "componentType": 5126,
      "count": 11,
      "max": [
        0.3333333432674408
      ],
      "min": [
        0.0
      ],
      "name": "Bip001 R Foot/rotation/Input",
      "type": "SCALAR"
    },
    {
      "bufferView": 58,
      "componentType": 5126,
      "count": 1,
      "name": "Bip001 R Foot/scale/Output",
      "type": "VEC3"
    },
    {
      "bufferView": 59,
      "componentType": 5126,
      "count": 1,
      "max": [
        0.3333333432674408
      ],
      "min": [
        0.3333333432674408
      ],
      "name": "Bip001 R Foot/scale/Input",
      "type": "SCALAR"
    },
    {
      "bufferView": 60,
      "componentType": 5126,
      "count": 1,
      "name": "Bip001 R Toe0/translation/Output",
      "type": "VEC3"
    },
    {
      "bufferView": 61,
      "componentType": 5126,
      "count": 1,
      "max": [
        0.3333333432674408
      ],
      "min": [
        0.3333333432674408
      ],
      "name": "Bip001 R Toe0/translation/Input",
      "type": "SCALAR"
    },
    {
      "bufferView": 62,
      "componentType": 5126,
      "count": 11,
      "name": "Bip001 R Toe0/rotation/Output",
      "type": "VEC4"
    },
    {
      "bufferView": 63,
      "componentType": 5126,
      "count": 11,
      "max": [
        0.3333333432674408
      ],
      "min": [
        0.0
      ],
      "name": "Bip001 R Toe0/rotation/Input",
      "type": "SCALAR"
    },
    {
      "bufferView": 64,
      "componentType": 5126,
      "count": 1,
      "name": "Bip001 R Toe0/scale/Output",
      "type": "VEC3"
    },
    {
      "bufferView": 65,
      "componentType": 5126,
      "count": 1,
      "max": [
        0.3333333432674408
      ],
      "min": [
        0.3333333432674408
      ],
      "name": "Bip001 R Toe0/scale/Input",
      "type": "SCALAR"
    },
    {
      "bufferView": 66,
      "componentType": 5126,
      "count": 5,
      "name": "Bip001 Spine1/translation/Output",
      "type": "VEC3"
    },
    {
      "bufferView": 67,
      "componentType": 5126,
      "count": 5,
      "max": [
        0.2666666805744171
      ],
      "min": [
        0.0
      ],
      "name": "Bip001 Spine1/translation/Input",
      "type": "SCALAR"
    },
    {
      "bufferView": 68,
      "componentType": 5126,
      "count": 1,
      "name": "Bip001 Spine1/rotation/Output",
      "type": "VEC4"
    },
    {
      "bufferView": 69,
      "componentType": 5126,
      "count": 1,
      "max": [
        0.3333333432674408
      ],
      "min": [
        0.3333333432674408
      ],
      "name": "Bip001 Spine1/rotation/Input",
      "type": "SCALAR"
    },
    {
      "bufferView": 70,
      "componentType": 5126,
      "count": 1,
      "name": "Bip001 Spine1/scale/Output",
      "type": "VEC3"
    },
    {
      "bufferView": 71,
      "componentType": 5126,
      "count": 1,
      "max": [
        0.3333333432674408
      ],
      "min": [
        0.3333333432674408
      ],
      "name": "Bip001 Spine1/scale/Input",
      "type": "SCALAR"
    },
    {
      "bufferView": 72,
      "componentType": 5126,
      "count": 5,
      "name": "Bip001 Neck/translation/Output",
      "type": "VEC3"
    },
    {
      "bufferView": 73,
      "componentType": 5126,
      "count": 5,
      "max": [
        0.3333333432674408
      ],
      "min": [
        0.0
      ],
      "name": "Bip001 Neck/translation/Input",
      "type": "SCALAR"
    },
    {
      "bufferView": 74,
      "componentType": 5126,
      "count": 1,
      "name": "Bip001 Neck/rotation/Output",
      "type": "VEC4"
    },
    {
      "bufferView": 75,
      "componentType": 5126,
      "count": 1,
      "max": [
        0.3333333432674408
      ],
      "min": [
        0.3333333432674408
      ],
      "name": "Bip001 Neck/rotation/Input",
      "type": "SCALAR"
    },
    {
      "bufferView": 76,
      "componentType": 5126,
      "count": 1,
      "name": "Bip001 Neck/scale/Output",
      "type": "VEC3"
    },
    {
      "bufferView": 77,
      "componentType": 5126,
      "count": 1,
      "max": [
        0.3333333432674408
      ],
      "min": [
        0.3333333432674408
      ],
      "name": "Bip001 Neck/scale/Input",
      "type": "SCALAR"
    },
    {
      "bufferView": 78,
      "componentType": 5126,
      "count": 8,
      "name": "Bip001 L Clavicle/translation/Output",
      "type": "VEC3"
    },
    {
      "bufferView": 79,
      "componentType": 5126,
      "count": 8,
      "max": [
        0.3333333432674408
      ],
      "min": [
        0.0
      ],
      "name": "Bip001 L Clavicle/translation/Input",
      "type": "SCALAR"
    },
    {
      "bufferView": 80,
      "componentType": 5126,
      "count": 1,
      "name": "Bip001 L Clavicle/rotation/Output",
      "type": "VEC4"
    },
    {
      "bufferView": 81,
      "componentType": 5126,
      "count": 1,
      "max": [
        0.3333333432674408
      ],
      "min": [
        0.3333333432674408
      ],
      "name": "Bip001 L Clavicle/rotation/Input",
      "type": "SCALAR"
    },
    {
      "bufferView": 82,
      "componentType": 5126,
      "count": 1,
      "name": "Bip001 L Clavicle/scale/Output",
      "type": "VEC3"
    },
    {
      "bufferView": 83,
      "componentType": 5126,
      "count": 1,
      "max": [
        0.3333333432674408
      ],
      "min": [
        0.3333333432674408
      ],
      "name": "Bip001 L Clavicle/scale/Input",
      "type": "SCALAR"
    },
    {
      "bufferView": 84,
      "componentType": 5126,
      "count": 7,
      "name": "Bip001 L UpperArm/translation/Output",
      "type": "VEC3"
    },
    {
      "bufferView": 85,
      "componentType": 5126,
      "count": 7,
      "max": [
        0.3333333432674408
      ],
      "min": [
        0.0
      ],
      "name": "Bip001 L UpperArm/translation/Input",
      "type": "SCALAR"
    },
    {
      "bufferView": 86,
      "componentType": 5126,
      "count": 11,
      "name": "Bip001 L UpperArm/rotation/Output",
      "type": "VEC4"
    },
    {
      "bufferView": 87,
      "componentType": 5126,
      "count": 11,
      "max": [
        0.3333333432674408
      ],
      "min": [
        0.0
      ],
      "name": "Bip001 L UpperArm/rotation/Input",
      "type": "SCALAR"
    },
    {
      "bufferView": 88,
      "componentType": 5126,
      "count": 1,
      "name": "Bip001 L UpperArm/scale/Output",
      "type": "VEC3"
    },
    {
      "bufferView": 89,
      "componentType": 5126,
      "count": 1,
      "max": [
        0.3333333432674408
      ],
      "min": [
        0.3333333432674408
      ],
      "name": "Bip001 L UpperArm/scale/Input",
      "type": "SCALAR"
    },
    {
      "bufferView": 90,
      "componentType": 5126,
      "count": 5,
      "name": "Bip001 L Forearm/translation/Output",
      "type": "VEC3"
    },
    {
      "bufferView": 91,
      "componentType": 5126,
      "count": 5,
      "max": [
        0.3333333432674408
      ],
      "min": [
        0.03333333507180214
      ],
      "name": "Bip001 L Forearm/translation/Input",
      "type": "SCALAR"
    },
    {
      "bufferView": 92,
      "componentType": 5126,
      "count": 11,
      "name": "Bip001 L Forearm/rotation/Output",
      "type": "VEC4"
    },
    {
      "bufferView": 93,
      "componentType": 5126,
      "count": 11,
      "max": [
        0.3333333432674408
      ],
      "min": [
        0.0
      ],
      "name": "Bip001 L Forearm/rotation/Input",
      "type": "SCALAR"
    },
    {
      "bufferView": 94,
      "componentType": 5126,
      "count": 1,
      "name": "Bip001 L Forearm/scale/Output",
      "type": "VEC3"
    },
    {
      "bufferView": 95,
      "componentType": 5126,
      "count": 1,
      "max": [
        0.3333333432674408
      ],
      "min": [
        0.3333333432674408
      ],
      "name": "Bip001 L Forearm/scale/Input",
      "type": "SCALAR"
    },
    {
      "bufferView": 96,
      "componentType": 5126,
      "count": 3,
      "name": "Bip001 L Hand/translation/Output",
      "type": "VEC3"
    },
    {
      "bufferView": 97,
      "componentType": 5126,
      "count": 3,
      "max": [
        0.3333333432674408
      ],
      "min": [
        0.23333333432674408
      ],
      "name": "Bip001 L Hand/translation/Input",
      "type": "SCALAR"
    },
    {
      "bufferView": 98,
      "componentType": 5126,
      "count": 11,
      "name": "Bip001 L Hand/rotation/Output",
      "type": "VEC4"
    },
    {
      "bufferView": 99,
      "componentType": 5126,
      "count": 11,
      "max": [
        0.3333333432674408
      ],
      "min": [
        0.0
      ],
      "name": "Bip001 L Hand/rotation/Input",
      "type": "SCALAR"
    },
    {
      "bufferView": 100,
      "componentType": 5126,
      "count": 1,
      "name": "Bip001 L Hand/scale/Output",
      "type": "VEC3"
    },
    {
      "bufferView": 101,
      "componentType": 5126,
      "count": 1,
      "max": [
        0.3333333432674408
      ],
      "min": [
        0.3333333432674408
      ],
      "name": "Bip001 L Hand/scale/Input",
      "type": "SCALAR"
    },
    {
      "bufferView": 102,
      "componentType": 5126,
      "count": 7,
      "name": "Bip001 R Clavicle/translation/Output",
      "type": "VEC3"
    },
    {
      "bufferView": 103,
      "componentType": 5126,
      "count": 7,
      "max": [
        0.3333333432674408
      ],
      "min": [
        0.0
      ],
      "name": "Bip001 R Clavicle/translation/Input",
      "type": "SCALAR"
    },
    {
      "bufferView": 104,
      "componentType": 5126,
      "count": 1,
      "name": "Bip001 R Clavicle/rotation/Output",
      "type": "VEC4"
    },
    {
      "bufferView": 105,
      "componentType": 5126,
      "count": 1,
      "max": [
        0.3333333432674408
      ],
      "min": [
        0.3333333432674408
      ],
      "name": "Bip001 R Clavicle/rotation/Input",
      "type": "SCALAR"
    },
    {
      "bufferView": 106,
      "componentType": 5126,
      "count": 1,
      "name": "Bip001 R Clavicle/scale/Output",
      "type": "VEC3"
    },
    {
      "bufferView": 107,
      "componentType": 5126,
      "count": 1,
      "max": [
        0.3333333432674408
      ],
      "min": [
        0.3333333432674408
      ],
      "name": "Bip001 R Clavicle/scale/Input",
      "type": "SCALAR"
    },
    {
      "bufferView": 108,
      "componentType": 5126,
      "count": 5,
      "name": "Bip001 R UpperArm/translation/Output",
      "type": "VEC3"
    },
    {
      "bufferView": 109,
      "componentType": 5126,
      "count": 5,
      "max": [
        0.3333333432674408
      ],
      "min": [
        0.0
      ],
      "name": "Bip001 R UpperArm/translation/Input",
      "type": "SCALAR"
    },
    {
      "bufferView": 110,
      "componentType": 5126,
      "count": 11,
      "name": "Bip001 R UpperArm/rotation/Output",
      "type": "VEC4"
    },
    {
      "bufferView": 111,
      "componentType": 5126,
      "count": 11,
      "max": [
        0.3333333432674408
      ],
      "min": [
        0.0
      ],
      "name": "Bip001 R UpperArm/rotation/Input",
      "type": "SCALAR"
    },
    {
      "bufferView": 112,
      "componentType": 5126,
      "count": 1,
      "name": "Bip001 R UpperArm/scale/Output",
      "type": "VEC3"
    },
    {
      "bufferView": 113,
      "componentType": 5126,
      "count": 1,
      "max": [
        0.3333333432674408
      ],
      "min": [
        0.3333333432674408
      ],
      "name": "Bip001 R UpperArm/scale/Input",
      "type": "SCALAR"
    },
    {
      "bufferView": 114,
      "componentType": 5126,
      "count": 5,
      "name": "Bip001 R Forearm/translation/Output",
      "type": "VEC3"
    },
    {
      "bufferView": 115,
      "componentType": 5126,
      "count": 5,
      "max": [
        0.3333333432674408
      ],
      "min": [
        0.06666667014360428
      ],
      "name": "Bip001 R Forearm/translation/Input",
      "type": "SCALAR"
    },
    {
      "bufferView": 116,
      "componentType": 5126,
      "count": 11,
      "name": "Bip001 R Forearm/rotation/Output",
      "type": "VEC4"
    },
    {
      "bufferView": 117,
      "componentType": 5126,
      "count": 11,
      "max": [
        0.3333333432674408
      ],
      "min": [
        0.0
      ],
      "name": "Bip001 R Forearm/rotation/Input",
      "type": "SCALAR"
    },
    {
      "bufferView": 118,
      "componentType": 5126,
      "count": 1,
      "name": "Bip001 R Forearm/scale/Output",
      "type": "VEC3"
    },
    {
      "bufferView": 119,
      "componentType": 5126,
      "count": 1,
      "max": [
        0.3333333432674408
      ],
      "min": [
        0.3333333432674408
      ],
      "name": "Bip001 R Forearm/scale/Input",
      "type": "SCALAR"
    },
    {
      "bufferView": 120,
      "componentType": 5126,
      "count": 5,
      "name": "Bip001 R Hand/translation/Output",
      "type": "VEC3"
    },
    {
      "bufferView": 121,
      "componentType": 5126,
      "count": 5,
      "max": [
        0.2666666805744171
      ],
      "min": [
        0.06666667014360428
      ],
      "name": "Bip001 R Hand/translation/Input",
      "type": "SCALAR"
    },
    {
      "bufferView": 122,
      "componentType": 5126,
      "count": 11,
      "name": "Bip001 R Hand/rotation/Output",
      "type": "VEC4"
    },
    {
      "bufferView": 123,
      "componentType": 5126,
      "count": 11,
      "max": [
        0.3333333432674408
      ],
      "min": [
        0.0
      ],
      "name": "Bip001 R Hand/rotation/Input",
      "type": "SCALAR"
    },
    {
      "bufferView": 124,
      "componentType": 5126,
      "count": 1,
      "name": "Bip001 R Hand/scale/Output",
      "type": "VEC3"
    },
    {
      "bufferView": 125,
      "componentType": 5126,
      "count": 1,
      "max": [
        0.3333333432674408
      ],
      "min": [
        0.3333333432674408
      ],
      "name": "Bip001 R Hand/scale/Input",
      "type": "SCALAR"
    },
    {
      "bufferView": 126,
      "componentType": 5126,
      "count": 3,
      "name": "Bip001 Head/translation/Output",
      "type": "VEC3"
    },
    {
      "bufferView": 127,
      "componentType": 5126,
      "count": 3,
      "max": [
        0.3333333432674408
      ],
      "min": [
        0.06666667014360428
      ],
      "name": "Bip001 Head/translation/Input",
      "type": "SCALAR"
    },
    {
      "bufferView": 128,
      "componentType": 5126,
      "count": 11,
      "name": "Bip001 Head/rotation/Output",
      "type": "VEC4"
    },
    {
      "bufferView": 129,
      "componentType": 5126,
      "count": 11,
      "max": [
        0.3333333432674408
      ],
      "min": [
        0.0
      ],
      "name": "Bip001 Head/rotation/Input",
      "type": "SCALAR"
    },
    {
      "bufferView": 130,
      "componentType": 5126,
      "count": 1,
      "name": "Bip001 Head/scale/Output",
      "type": "VEC3"
    },
    {
      "bufferView": 131,
      "componentType": 5126,
      "count": 1,
      "max": [
        0.3333333432674408
      ],
      "min": [
        0.3333333432674408
      ],
      "name": "Bip001 Head/scale/Input",
      "type": "SCALAR"
    },
    {
      "bufferView": 132,
      "componentType": 5126,
      "count": 11,
      "name": "Bip001 Prop1/translation/Output",
      "type": "VEC3"
    },
    {
      "bufferView": 133,
      "componentType": 5126,
      "count": 11,
      "max": [
        0.3333333432674408
      ],
      "min": [
        0.0
      ],
      "name": "Bip001 Prop1/translation/Input",
      "type": "SCALAR"
    },
    {
      "bufferView": 134,
      "componentType": 5126,
      "count": 10,
      "name": "Bip001 Prop1/rotation/Output",
      "type": "VEC4"
    },
    {
      "bufferView": 135,
      "componentType": 5126,
      "count": 10,
      "max": [
        0.3333333432674408
      ],
      "min": [
        0.03333333507180214
      ],
      "name": "Bip001 Prop1/rotation/Input",
      "type": "SCALAR"
    },
    {
      "bufferView": 136,
      "componentType": 5126,
      "count": 1,
      "name": "Bip001 Prop1/scale/Output",
      "type": "VEC3"
    },
    {
      "bufferView": 137,
      "componentType": 5126,
      "count": 1,
      "max": [
        0.3333333432674408
      ],
      "min": [
        0.3333333432674408
      ],
      "name": "Bip001 Prop1/scale/Input",
      "type": "SCALAR"
    }
  ],
  "animations": [
    {
      "channels": [
        {
          "sampler": 0,
          "target": {
            "node": 0,
            "path": "translation"
          }
        },
        {
          "sampler": 1,
          "target": {
            "node": 0,
            "path": "rotation"
          }
        },
        {
          "sampler": 2,
          "target": {
            "node": 0,
            "path": "scale"
          }
        },
        {
          "sampler": 3,
          "target": {
            "node": 1,
            "path": "translation"
          }
        },
        {
          "sampler": 4,
          "target": {
            "node": 1,
            "path": "rotation"
          }
        },
        {
          "sampler": 5,
          "target": {
            "node": 1,
            "path": "scale"
          }
        },
        {
          "sampler": 6,
          "target": {
            "node": 2,
            "path": "translation"
          }
        },
        {
          "sampler": 7,
          "target": {
            "node": 2,
            "path": "rotation"
          }
        },
        {
          "sampler": 8,
          "target": {
            "node": 2,
            "path": "scale"
          }
        },
        {
          "sampler": 9,
          "target": {
            "node": 3,
            "path": "translation"
          }
        },
        {
          "sampler": 10,
          "target": {
            "node": 3,
            "path": "rotation"
          }
        },
        {
          "sampler": 11,
          "target": {
            "node": 3,
            "path": "scale"
          }
        },
        {
          "sampler": 12,
          "target": {
            "node": 4,
            "path": "translation"
          }
        },
        {
          "sampler": 13,
          "target": {
            "node": 4,
            "path": "rotation"
          }
        },
        {
          "sampler": 14,
          "target": {
            "node": 4,
            "path": "scale"
          }
        },
        {
          "sampler": 15,
          "target": {
            "node": 5,
            "path": "translation"
          }
        },
        {
          "sampler": 16,
          "target": {
            "node": 5,
            "path": "rotation"
          }
        },
        {
          "sampler": 17,
          "target": {
            "node": 5,
            "path": "scale"
          }
        },
        {
          "sampler": 18,
          "target": {
            "node": 6,
            "path": "translation"
          }
        },
        {
          "sampler": 19,
          "target": {
            "node": 6,
            "path": "rotation"
          }
        },
        {
          "sampler": 20,
          "target": {
            "node": 6,
            "path": "scale"
          }
        },
        {
          "sampler": 21,
          "target": {
            "node": 7,
            "path": "translation"
          }
        },
        {
          "sampler": 22,
          "target": {
            "node": 7,
            "path": "rotation"
          }
        },
        {
          "sampler": 23,
          "target": {
            "node": 7,
            "path": "scale"
          }
        },
        {
          "sampler": 24,
          "target": {
            "node": 8,
            "path": "translation"
          }
        },
        {
          "sampler": 25,
          "target": {
            "node": 8,
            "path": "rotation"
          }
        },
        {
          "sampler": 26,
          "target": {
            "node": 8,
            "path": "scale"
          }
        },
        {
          "sampler": 27,
          "target": {
            "node": 9,
            "path": "translation"
          }
        },
        {
          "sampler": 28,
          "target": {
            "node": 9,
            "path": "rotation"
          }
        },
        {
          "sampler": 29,
          "target": {
            "node": 9,
            "path": "scale"
          }
        },
        {
          "sampler": 30,
          "target": {
            "node": 10,
            "path": "translation"
          }
        },
        {
          "sampler": 31,
          "target": {
            "node": 10,
            "path": "rotation"
          }
        },
        {
          "sampler": 32,
          "target": {
            "node": 10,
            "path": "scale"
          }
        },
        {
          "sampler": 33,
          "target": {
            "node": 11,
            "path": "translation"
          }
        },
        {
          "sampler": 34,
          "target": {
            "node": 11,
            "path": "rotation"
          }
        },
        {
          "sampler": 35,
          "target": {
            "node": 11,
            "path": "scale"
          }
        },
        {
          "sampler": 36,
          "target": {
            "node": 12,
            "path": "translation"
          }
        },
        {
          "sampler": 37,
          "target": {
            "node": 12,
            "path": "rotation"
          }
        },
        {
          "sampler": 38,
          "target": {
            "node": 12,
            "path": "scale"
          }
        },
        {
          "sampler": 39,
          "target": {
            "node": 13,
            "path": "translation"
          }
        },
        {
          "sampler": 40,
          "target": {
            "node": 13,
            "path": "rotation"
          }
        },
        {
          "sampler": 41,
          "target": {
            "node": 13,
            "path": "scale"
          }
        },
        {
          "sampler": 42,
          "target": {
            "node": 14,
            "path": "translation"
          }
        },
        {
          "sampler": 43,
          "target": {
            "node": 14,
            "path": "rotation"
          }
        },
        {
          "sampler": 44,
          "target": {
            "node": 14,
            "path": "scale"
          }
        },
        {
          "sampler": 45,
          "target": {
            "node": 15,
            "path": "translation"
          }
        },
        {
          "sampler": 46,
          "target": {
            "node": 15,
            "path": "rotation"
          }
        },
        {
          "sampler": 47,
          "target": {
            "node": 15,
            "path": "scale"
          }
        },
        {
          "sampler": 48,
          "target": {
            "node": 16,
            "path": "translation"
          }
        },
        {
          "sampler": 49,
          "target": {
            "node": 16,
            "path": "rotation"
          }
        },
        {
          "sampler": 50,
          "target": {
            "node": 16,
            "path": "scale"
          }
        },
        {
          "sampler": 51,
          "target": {
            "node": 17,
            "path": "translation"
          }
        },
        {
          "sampler": 52,
          "target": {
            "node": 17,
            "path": "rotation"
          }
        },
        {
          "sampler": 53,
          "target": {
            "node": 17,
            "path": "scale"
          }
        },
        {
          "sampler": 54,
          "target": {
            "node": 18,
            "path": "translation"
          }
        },
        {
          "sampler": 55,
          "target": {
            "node": 18,
            "path": "rotation"
          }
        },
        {
          "sampler": 56,
          "target": {
            "node": 18,
            "path": "scale"
          }
        },
        {
          "sampler": 57,
          "target": {
            "node": 19,
            "path": "translation"
          }
        },
        {
          "sampler": 58,
          "target": {
            "node": 19,
            "path": "rotation"
          }
        },
        {
          "sampler": 59,
          "target": {
            "node": 19,
            "path": "scale"
          }
        },
        {
          "sampler": 60,
          "target": {
            "node": 20,
            "path": "translation"
          }
        },
        {
          "sampler": 61,
          "target": {
            "node": 20,
            "path": "rotation"
          }
        },
        {
          "sampler": 62,
          "target": {
            "node": 20,
            "path": "scale"
          }
        },
        {
          "sampler": 63,
          "target": {
            "node": 21,
            "path": "translation"
          }
        },
        {
          "sampler": 64,
          "target": {
            "node": 21,
            "path": "rotation"
          }
        },
        {
          "sampler": 65,
          "target": {
            "node": 21,
            "path": "scale"
          }
        },
        {
          "sampler": 66,
          "target": {
            "node": 22,
            "path": "translation"
          }
        },
        {
          "sampler": 67,
          "target": {
            "node": 22,
            "path": "rotation"
          }
        },
        {
          "sampler": 68,
          "target": {
            "node": 22,
            "path": "scale"
          }
        }
      ],
      "name": "Take 001",
      "samplers": [
        {
          "input": 1,
          "output": 0
        },
        {
          "input": 3,
          "output": 2
        },
        {
          "input": 5,
          "output": 4
        },
        {
          "input": 7,
          "output": 6
        },
        {
          "input": 9,
          "output": 8
        },
        {
          "input": 11,
          "output": 10
        },
        {
          "input": 13,
          "output": 12
        },
        {
          "input": 15,
          "output": 14
        },
        {
          "input": 17,
          "output": 16
        },
        {
          "input": 19,
          "output": 18
        },
        {
          "input": 21,
          "output": 20
        },
        {
          "input": 23,
          "output": 22
        },
        {
          "input": 25,
          "output": 24
        },
        {
          "input": 27,
          "output": 26
        },
        {
          "input": 29,
          "output": 28
        },
        {
          "input": 31,
          "output": 30
        },
        {
          "input": 33,
          "output": 32
        },
        {
          "input": 35,
          "output": 34
        },
        {
          "input": 37,
          "output": 36
        },
        {
          "input": 39,
          "output": 38
        },
        {
          "input": 41,
          "output": 40
        },
        {
          "input": 43,
          "output": 42
        },
        {
          "input": 45,
          "output": 44
        },
        {
          "input": 47,
          "output": 46
        },
        {
          "input": 49,
          "output": 48
        },
        {
          "input": 51,
          "output": 50
        },
        {
          "input": 53,
          "output": 52
        },
        {
          "input": 55,
          "output": 54
        },
        {
          "input": 57,
          "output": 56
        },
        {
          "input": 59,
          "output": 58
        },
        {
          "input": 61,
          "output": 60
        },
        {
          "input": 63,
          "output": 62
        },
        {
          "input": 65,
          "output": 64
        },
        {
          "input": 67,
          "output": 66
        },
        {
          "input": 69,
          "output": 68
        },
        {
          "input": 71,
          "output": 70
        },
        {
          "input": 73,
          "output": 72
        },
        {
          "input": 75,
          "output": 74
        },
        {
          "input": 77,
          "output": 76
        },
        {
          "input": 79,
          "output": 78
        },
        {
          "input": 81,
          "output": 80
        },
        {
          "input": 83,
          "output": 82
        },
        {
          "input": 85,
          "output": 84
        },
        {
          "input": 87,
          "output": 86
        },
        {
          "input": 89,
          "output": 88
        },
        {
          "input": 91,
          "output": 90
        },
        {
          "input": 93,
          "output": 92
        },
        {
          "input": 95,
          "output": 94
        },
        {
          "input": 97,
          "output": 96
        },
        {
          "input": 99,
          "output": 98
        },
        {
          "input": 101,
          "output": 100
        },
        {
          "input": 103,
          "output": 102
        },
        {
          "input": 105,
          "output": 104
        },
        {
          "input": 107,
          "output": 106
        },
        {
          "input": 109,
          "output": 108
        },
        {
          "input": 111,
          "output": 110
        },
        {
          "input": 113,
          "output": 112
        },
        {
          "input": 115,
          "output": 114
        },
        {
          "input": 117,
          "output": 116
        },
        {
          "input": 119,
          "output": 118
        },
        {
          "input": 121,
          "output": 120
        },
        {
          "input": 123,
          "output": 122
        },
        {
          "input": 125,
          "output": 124
        },
        {
          "input": 127,
          "output": 126
        },
        {
          "input": 129,
          "output": 128
        },
        {
          "input": 131,
          "output": 130
        },
        {
          "input": 133,
          "output": 132
        },
        {
          "input": 135,
          "output": 134
        },
        {
          "input": 137,
          "output": 136
        }
      ]
    }
  ],
  "asset": {
    "copyright": "Copyright (c) 2018-2020 Chukong Technologies Inc.",
    "generator": "FBX-glTF-conv",
    "version": "2.0"
  },
  "bufferViews": [
    {
      "buffer": 0,
      "byteLength": 108
    },
    {
      "buffer": 0,
      "byteLength": 36,
      "byteOffset": 108
    },
    {
      "buffer": 0,
      "byteLength": 16,
      "byteOffset": 144
    },
    {
      "buffer": 0,
      "byteLength": 4,
      "byteOffset": 160
    },
    {
      "buffer": 0,
      "byteLength": 12,
      "byteOffset": 164
    },
    {
      "buffer": 0,
      "byteLength": 4,
      "byteOffset": 176
    },
    {
      "buffer": 0,
      "byteLength": 12,
      "byteOffset": 180
    },
    {
      "buffer": 0,
      "byteLength": 4,
      "byteOffset": 192
    },
    {
      "buffer": 0,
      "byteLength": 16,
      "byteOffset": 196
    },
    {
      "buffer": 0,
      "byteLength": 4,
      "byteOffset": 212
    },
    {
      "buffer": 0,
      "byteLength": 12,
      "byteOffset": 216
    },
    {
      "buffer": 0,
      "byteLength": 4,
      "byteOffset": 228
    },
    {
      "buffer": 0,
      "byteLength": 132,
      "byteOffset": 232
    },
    {
      "buffer": 0,
      "byteLength": 44,
      "byteOffset": 364
    },
    {
      "buffer": 0,
      "byteLength": 176,
      "byteOffset": 408
    },
    {
      "buffer": 0,
      "byteLength": 44,
      "byteOffset": 584
    },
    {
      "buffer": 0,
      "byteLength": 12,
      "byteOffset": 628
    },
    {
      "buffer": 0,
      "byteLength": 4,
      "byteOffset": 640
    },
    {
      "buffer": 0,
      "byteLength": 132,
      "byteOffset": 644
    },
    {
      "buffer": 0,
      "byteLength": 44,
      "byteOffset": 776
    },
    {
      "buffer": 0,
      "byteLength": 176,
      "byteOffset": 820
    },
    {
      "buffer": 0,
      "byteLength": 44,
      "byteOffset": 996
    },
    {
      "buffer": 0,
      "byteLength": 12,
      "byteOffset": 1040
    },
    {
      "buffer": 0,
      "byteLength": 4,
      "byteOffset": 1052
    },
    {
      "buffer": 0,
      "byteLength": 12,
      "byteOffset": 1056
    },
    {
      "buffer": 0,
      "byteLength": 4,
      "byteOffset": 1068
    },
    {
      "buffer": 0,
      "byteLength": 176,
      "byteOffset": 1072
    },
    {
      "buffer": 0,
      "byteLength": 44,
      "byteOffset": 1248
    },
    {
      "buffer": 0,
      "byteLength": 12,
      "byteOffset": 1292
    },
    {
      "buffer": 0,
      "byteLength": 4,
      "byteOffset": 1304
    },
    {
      "buffer": 0,
      "byteLength": 36,
      "byteOffset": 1308
    },
    {
      "buffer": 0,
      "byteLength": 12,
      "byteOffset": 1344
    },
    {
      "buffer": 0,
      "byteLength": 176,
      "byteOffset": 1356
    },
    {
      "buffer": 0,
      "byteLength": 44,
      "byteOffset": 1532
    },
    {
      "buffer": 0,
      "byteLength": 12,
      "byteOffset": 1576
    },
    {
      "buffer": 0,
      "byteLength": 4,
      "byteOffset": 1588
    },
    {
      "buffer": 0,
      "byteLength": 12,
      "byteOffset": 1592
    },
    {
      "buffer": 0,
      "byteLength": 4,
      "byteOffset": 1604
    },
    {
      "buffer": 0,
      "byteLength": 176,
      "byteOffset": 1608
    },
    {
      "buffer": 0,
      "byteLength": 44,
      "byteOffset": 1784
    },
    {
      "buffer": 0,
      "byteLength": 12,
      "byteOffset": 1828
    },
    {
      "buffer": 0,
      "byteLength": 4,
      "byteOffset": 1840
    },
    {
      "buffer": 0,
      "byteLength": 132,
      "byteOffset": 1844
    },
    {
      "buffer": 0,
      "byteLength": 44,
      "byteOffset": 1976
    },
    {
      "buffer": 0,
      "byteLength": 176,
      "byteOffset": 2020
    },
    {
      "buffer": 0,
      "byteLength": 44,
      "byteOffset": 2196
    },
    {
      "buffer": 0,
      "byteLength": 12,
      "byteOffset": 2240
    },
    {
      "buffer": 0,
      "byteLength": 4,
      "byteOffset": 2252
    },
    {
      "buffer": 0,
      "byteLength": 72,
      "byteOffset": 2256
    },
    {
      "buffer": 0,
      "byteLength": 24,
      "byteOffset": 2328
    },
    {
      "buffer": 0,
      "byteLength": 176,
      "byteOffset": 2352
    },
    {
      "buffer": 0,
      "byteLength": 44,
      "byteOffset": 2528
    },
    {
      "buffer": 0,
      "byteLength": 12,
      "byteOffset": 2572
    },
    {
      "buffer": 0,
      "byteLength": 4,
      "byteOffset": 2584
    },
    {
      "buffer": 0,
      "byteLength": 72,
      "byteOffset": 2588
    },
    {
      "buffer": 0,
      "byteLength": 24,
      "byteOffset": 2660
    },
    {
      "buffer": 0,
      "byteLength": 176,
      "byteOffset": 2684
    },
    {
      "buffer": 0,
      "byteLength": 44,
      "byteOffset": 2860
    },
    {
      "buffer": 0,
      "byteLength": 12,
      "byteOffset": 2904
    },
    {
      "buffer": 0,
      "byteLength": 4,
      "byteOffset": 2916
    },
    {
      "buffer": 0,
      "byteLength": 12,
      "byteOffset": 2920
    },
    {
      "buffer": 0,
      "byteLength": 4,
      "byteOffset": 2932
    },
    {
      "buffer": 0,
      "byteLength": 176,
      "byteOffset": 2936
    },
    {
      "buffer": 0,
      "byteLength": 44,
      "byteOffset": 3112
    },
    {
      "buffer": 0,
      "byteLength": 12,
      "byteOffset": 3156
    },
    {
      "buffer": 0,
      "byteLength": 4,
      "byteOffset": 3168
    },
    {
      "buffer": 0,
      "byteLength": 60,
      "byteOffset": 3172
    },
    {
      "buffer": 0,
      "byteLength": 20,
      "byteOffset": 3232
    },
    {
      "buffer": 0,
      "byteLength": 16,
      "byteOffset": 3252
    },
    {
      "buffer": 0,
      "byteLength": 4,
      "byteOffset": 3268
    },
    {
      "buffer": 0,
      "byteLength": 12,
      "byteOffset": 3272
    },
    {
      "buffer": 0,
      "byteLength": 4,
      "byteOffset": 3284
    },
    {
      "buffer": 0,
      "byteLength": 60,
      "byteOffset": 3288
    },
    {
      "buffer": 0,
      "byteLength": 20,
      "byteOffset": 3348
    },
    {
      "buffer": 0,
      "byteLength": 16,
      "byteOffset": 3368
    },
    {
      "buffer": 0,
      "byteLength": 4,
      "byteOffset": 3384
    },
    {
      "buffer": 0,
      "byteLength": 12,
      "byteOffset": 3388
    },
    {
      "buffer": 0,
      "byteLength": 4,
      "byteOffset": 3400
    },
    {
      "buffer": 0,
      "byteLength": 96,
      "byteOffset": 3404
    },
    {
      "buffer": 0,
      "byteLength": 32,
      "byteOffset": 3500
    },
    {
      "buffer": 0,
      "byteLength": 16,
      "byteOffset": 3532
    },
    {
      "buffer": 0,
      "byteLength": 4,
      "byteOffset": 3548
    },
    {
      "buffer": 0,
      "byteLength": 12,
      "byteOffset": 3552
    },
    {
      "buffer": 0,
      "byteLength": 4,
      "byteOffset": 3564
    },
    {
      "buffer": 0,
      "byteLength": 84,
      "byteOffset": 3568
    },
    {
      "buffer": 0,
      "byteLength": 28,
      "byteOffset": 3652
    },
    {
      "buffer": 0,
      "byteLength": 176,
      "byteOffset": 3680
    },
    {
      "buffer": 0,
      "byteLength": 44,
      "byteOffset": 3856
    },
    {
      "buffer": 0,
      "byteLength": 12,
      "byteOffset": 3900
    },
    {
      "buffer": 0,
      "byteLength": 4,
      "byteOffset": 3912
    },
    {
      "buffer": 0,
      "byteLength": 60,
      "byteOffset": 3916
    },
    {
      "buffer": 0,
      "byteLength": 20,
      "byteOffset": 3976
    },
    {
      "buffer": 0,
      "byteLength": 176,
      "byteOffset": 3996
    },
    {
      "buffer": 0,
      "byteLength": 44,
      "byteOffset": 4172
    },
    {
      "buffer": 0,
      "byteLength": 12,
      "byteOffset": 4216
    },
    {
      "buffer": 0,
      "byteLength": 4,
      "byteOffset": 4228
    },
    {
      "buffer": 0,
      "byteLength": 36,
      "byteOffset": 4232
    },
    {
      "buffer": 0,
      "byteLength": 12,
      "byteOffset": 4268
    },
    {
      "buffer": 0,
      "byteLength": 176,
      "byteOffset": 4280
    },
    {
      "buffer": 0,
      "byteLength": 44,
      "byteOffset": 4456
    },
    {
      "buffer": 0,
      "byteLength": 12,
      "byteOffset": 4500
    },
    {
      "buffer": 0,
      "byteLength": 4,
      "byteOffset": 4512
    },
    {
      "buffer": 0,
      "byteLength": 84,
      "byteOffset": 4516
    },
    {
      "buffer": 0,
      "byteLength": 28,
      "byteOffset": 4600
    },
    {
      "buffer": 0,
      "byteLength": 16,
      "byteOffset": 4628
    },
    {
      "buffer": 0,
      "byteLength": 4,
      "byteOffset": 4644
    },
    {
      "buffer": 0,
      "byteLength": 12,
      "byteOffset": 4648
    },
    {
      "buffer": 0,
      "byteLength": 4,
      "byteOffset": 4660
    },
    {
      "buffer": 0,
      "byteLength": 60,
      "byteOffset": 4664
    },
    {
      "buffer": 0,
      "byteLength": 20,
      "byteOffset": 4724
    },
    {
      "buffer": 0,
      "byteLength": 176,
      "byteOffset": 4744
    },
    {
      "buffer": 0,
      "byteLength": 44,
      "byteOffset": 4920
    },
    {
      "buffer": 0,
      "byteLength": 12,
      "byteOffset": 4964
    },
    {
      "buffer": 0,
      "byteLength": 4,
      "byteOffset": 4976
    },
    {
      "buffer": 0,
      "byteLength": 60,
      "byteOffset": 4980
    },
    {
      "buffer": 0,
      "byteLength": 20,
      "byteOffset": 5040
    },
    {
      "buffer": 0,
      "byteLength": 176,
      "byteOffset": 5060
    },
    {
      "buffer": 0,
      "byteLength": 44,
      "byteOffset": 5236
    },
    {
      "buffer": 0,
      "byteLength": 12,
      "byteOffset": 5280
    },
    {
      "buffer": 0,
      "byteLength": 4,
      "byteOffset": 5292
    },
    {
      "buffer": 0,
      "byteLength": 60,
      "byteOffset": 5296
    },
    {
      "buffer": 0,
      "byteLength": 20,
      "byteOffset": 5356
    },
    {
      "buffer": 0,
      "byteLength": 176,
      "byteOffset": 5376
    },
    {
      "buffer": 0,
      "byteLength": 44,
      "byteOffset": 5552
    },
    {
      "buffer": 0,
      "byteLength": 12,
      "byteOffset": 5596
    },
    {
      "buffer": 0,
      "byteLength": 4,
      "byteOffset": 5608
    },
    {
      "buffer": 0,
      "byteLength": 36,
      "byteOffset": 5612
    },
    {
      "buffer": 0,
      "byteLength": 12,
      "byteOffset": 5648
    },
    {
      "buffer": 0,
      "byteLength": 176,
      "byteOffset": 5660
    },
    {
      "buffer": 0,
      "byteLength": 44,
      "byteOffset": 5836
    },
    {
      "buffer": 0,
      "byteLength": 12,
      "byteOffset": 5880
    },
    {
      "buffer": 0,
      "byteLength": 4,
      "byteOffset": 5892
    },
    {
      "buffer": 0,
      "byteLength": 132,
      "byteOffset": 5896
    },
    {
      "buffer": 0,
      "byteLength": 44,
      "byteOffset": 6028
    },
    {
      "buffer": 0,
      "byteLength": 160,
      "byteOffset": 6072
    },
    {
      "buffer": 0,
      "byteLength": 40,
      "byteOffset": 6232
    },
    {
      "buffer": 0,
      "byteLength": 12,
      "byteOffset": 6272
    },
    {
      "buffer": 0,
      "byteLength": 4,
      "byteOffset": 6284
    }
  ],
  "buffers": [
    {
      "byteLength": 6288,
      "uri": "out.bin"
    }
  ],
  "extras": {
    "FBX-glTF-conv": {
      "animationFrameRate": 30.0,
      "fbxFileHeaderInfo": {
        "creationTimeStamp": {
          "day": 12,
          "hour": 11,
          "millisecond": 814,
          "minute": 33,
          "month": 5,
          "second": 22,
          "year": 2026
        },
        "creator": "FBX SDK/FBX Plugins version 2020.3.2",
        "sceneInfo": {
          "author": "",
          "comment": "",
          "keywords": "",
          "original": {
            "applicationName": "3ds Max",
            "applicationVendor": "Autodesk",
            "applicationVersion": "2024",
            "fileName": "\\\\192.168.5.190\\Playable\\T-The War\\1.美术资源\\3D模型\\大壮\\fbx\\攻击.fbx"
          },
          "revision": "",
          "subject": "",
          "title": "",
          "url": "D:\\工程项目\\test_pro\\test_pro\\HYQ_Project\\assets\\GameRes\\FBX\\Hero_1\\攻击.fbx"
        }
      }
    }
  },
  "nodes": [
    {
      "children": [
        1,
        22
      ],
      "extras": {
        "FBX-glTF-conv": {
          "skeleton": {
            "skeletonType": "Root"
          }
        }
      },
      "name": "Bip001",
      "rotation": [
        0.3443387746810913,
        0.6762915849685669,
        0.6034788489341736,
        -0.24469110369682312
      ],
      "translation": [
        2.066712356807443e-09,
        0.9752237200737,
        -0.04728088527917862
      ]
    },
    {
      "children": [
        2
      ],
      "extras": {
        "FBX-glTF-conv": {
          "skeleton": {
            "skeletonType": "LimbNode"
          }
        }
      },
      "name": "Bip001 Pelvis",
      "rotation": [
        -0.5,
        -0.5,
        -0.4999992847442627,
        0.5000007152557373
      ]
    },
    {
      "children": [
        3,
        7,
        11
      ],
      "extras": {
        "FBX-glTF-conv": {
          "skeleton": {
            "skeletonType": "LimbNode"
          }
        }
      },
      "name": "Bip001 Spine",
      "rotation": [
        0.1053125187754631,
        -0.006222317460924387,
        0.007234838325530291,
        0.9943934082984924
      ],
      "translation": [
        0.07221496850252151,
        0.02452770248055458,
        -4.7078134230105206e-05
      ]
    },
    {
      "children": [
        4
      ],
      "extras": {
        "FBX-glTF-conv": {
          "skeleton": {
            "skeletonType": "LimbNode"
          }
        }
      },
      "name": "Bip001 L Thigh",
      "rotation": [
        0.12062051892280579,
        0.9352436065673828,
        0.28365665674209595,
        -0.17409469187259674
      ],
      "translation": [
        -0.07127952575683594,
        -0.004119977820664644,
        0.09338430315256119
      ]
    },
    {
      "children": [
        5
      ],
      "extras": {
        "FBX-glTF-conv": {
          "skeleton": {
            "skeletonType": "LimbNode"
          }
        }
      },
      "name": "Bip001 L Calf",
      "rotation": [
        -1.3796695983643433e-17,
        2.2920362068892564e-18,
        -0.28497546911239624,
        0.958534836769104
      ],
      "translation": [
        0.4039266109466553,
        -3.814697180359872e-08,
        0.0
      ]
    },
    {
      "children": [
        6
      ],
      "extras": {
        "FBX-glTF-conv": {
          "skeleton": {
            "skeletonType": "LimbNode"
          }
        }
      },
      "name": "Bip001 L Foot",
      "rotation": [
        -0.058662958443164825,
        -0.08023911714553833,
        0.051734261214733124,
        0.9937021136283875
      ],
      "translation": [
        0.5253467559814453,
        -3.552713599391162e-17,
        -1.907348590179936e-08
      ]
    },
    {
      "extras": {
        "FBX-glTF-conv": {
          "skeleton": {
            "skeletonType": "LimbNode"
          }
        }
      },
      "name": "Bip001 L Toe0",
      "rotation": [
        -5.5503810436619005e-09,
        3.3162447721224453e-07,
        0.7071068286895752,
        0.7071067094802856
      ],
      "translation": [
        0.08683575689792633,
        0.10477737337350845,
        -1.907348590179936e-08
      ]
    },
    {
      "children": [
        8
      ],
      "extras": {
        "FBX-glTF-conv": {
          "skeleton": {
            "skeletonType": "LimbNode"
          }
        }
      },
      "name": "Bip001 R Thigh",
      "rotation": [
        0.0207858607172966,
        0.8756542205810547,
        -0.4073655605316162,
        0.25855544209480286
      ],
      "translation": [
        -0.07376449555158615,
        -0.04155495762825012,
        -0.08144620805978775
      ]
    },
    {
      "children": [
        9
      ],
      "extras": {
        "FBX-glTF-conv": {
          "skeleton": {
            "skeletonType": "LimbNode"
          }
        }
      },
      "name": "Bip001 R Calf",
      "rotation": [
        1.2105119902778617e-17,
        5.4175214837315285e-17,
        -0.21806645393371582,
        0.9759339094161987
      ],
      "translation": [
        0.40392667055130005,
        3.814697180359872e-08,
        3.814697180359872e-08
      ]
    },
    {
      "children": [
        10
      ],
      "extras": {
        "FBX-glTF-conv": {
          "skeleton": {
            "skeletonType": "LimbNode"
          }
        }
      },
      "name": "Bip001 R Foot",
      "rotation": [
        -0.17524604499340057,
        0.15226788818836212,
        0.027725117281079292,
        0.9722831845283508
      ],
      "translation": [
        0.525346577167511,
        -1.907348590179936e-08,
        -7.105427198782324e-17
      ]
    },
    {
      "extras": {
        "FBX-glTF-conv": {
          "skeleton": {
            "skeletonType": "LimbNode"
          }
        }
      },
      "name": "Bip001 R Toe0",
      "rotation": [
        3.550661062945437e-07,
        3.953584553073597e-07,
        0.7249724268913269,
        0.6887779235839844
      ],
      "translation": [
        0.08683576434850693,
        0.10477732867002487,
        0.0
      ]
    },
    {
      "children": [
        12
      ],
      "extras": {
        "FBX-glTF-conv": {
          "skeleton": {
            "skeletonType": "LimbNode"
          }
        }
      },
      "name": "Bip001 Spine1",
      "translation": [
        0.28276970982551575,
        -0.00023784636869095266,
        0.0
      ]
    },
    {
      "children": [
        13,
        17,
        21
      ],
      "extras": {
        "FBX-glTF-conv": {
          "skeleton": {
            "skeletonType": "LimbNode"
          }
        }
      },
      "name": "Bip001 Neck",
      "rotation": [
        2.4972573342552096e-08,
        -2.7642718691822665e-07,
        0.10156011581420898,
        0.9948294162750244
      ],
      "translation": [
        0.2843577563762665,
        -0.033620767295360565,
        -4.7683716530855236e-08
      ]
    },
    {
      "children": [
        14
      ],
      "extras": {
        "FBX-glTF-conv": {
          "skeleton": {
            "skeletonType": "LimbNode"
          }
        }
      },
      "name": "Bip001 L Clavicle",
      "rotation": [
        0.7091081738471985,
        0.047131963074207306,
        0.6772368550300598,
        0.19051097333431244
      ],
      "translation": [
        -0.12583816051483154,
        -0.022491341456770897,
        0.10685662925243378
      ]
    },
    {
      "children": [
        15
      ],
      "extras": {
        "FBX-glTF-conv": {
          "skeleton": {
            "skeletonType": "LimbNode"
          }
        }
      },
      "name": "Bip001 L UpperArm",
      "rotation": [
        0.12250770628452301,
        0.3787658214569092,
        -0.3988826274871826,
        0.8260877728462219
      ],
      "translation": [
        0.12755073606967926,
        -1.907348590179936e-08,
        0.0
      ]
    },
    {
      "children": [
        16
      ],
      "extras": {
        "FBX-glTF-conv": {
          "skeleton": {
            "skeletonType": "LimbNode"
          }
        }
      },
      "name": "Bip001 L Forearm",
      "rotation": [
        -4.983720838984629e-17,
        2.4448730865407298e-17,
        -0.4404291808605194,
        0.89778733253479
      ],
      "translation": [
        0.26627373695373535,
        -1.907348590179936e-08,
        0.0
      ]
    },
    {
      "extras": {
        "FBX-glTF-conv": {
          "skeleton": {
            "skeletonType": "LimbNode"
          }
        }
      },
      "name": "Bip001 L Hand",
      "rotation": [
        -0.5619692206382751,
        -0.04631183668971062,
        0.10954175889492035,
        0.8185636401176453
      ],
      "translation": [
        0.2864901125431061,
        -7.629394360719743e-08,
        0.0
      ]
    },
    {
      "children": [
        18
      ],
      "extras": {
        "FBX-glTF-conv": {
          "skeleton": {
            "skeletonType": "LimbNode"
          }
        }
      },
      "name": "Bip001 R Clavicle",
      "rotation": [
        0.7904431223869324,
        -0.08549769222736359,
        -0.6039466857910156,
        -0.05601945146918297
      ],
      "translation": [
        -0.12583816051483154,
        -0.02249074913561344,
        -0.10685688257217407
      ]
    },
    {
      "children": [
        19
      ],
      "extras": {
        "FBX-glTF-conv": {
          "skeleton": {
            "skeletonType": "LimbNode"
          }
        }
      },
      "name": "Bip001 R UpperArm",
      "rotation": [
        -0.34035807847976685,
        -0.561345636844635,
        -0.17225593328475952,
        0.7344217896461487
      ],
      "translation": [
        0.12755081057548523,
        1.907348590179936e-08,
        0.0
      ]
    },
    {
      "children": [
        20
      ],
      "extras": {
        "FBX-glTF-conv": {
          "skeleton": {
            "skeletonType": "LimbNode"
          }
        }
      },
      "name": "Bip001 R Forearm",
      "rotation": [
        -5.339990175789178e-17,
        4.430886257113389e-17,
        -0.638558030128479,
        0.7695736885070801
      ],
      "translation": [
        0.26627373695373535,
        0.0,
        1.4210854397564648e-16
      ]
    },
    {
      "extras": {
        "FBX-glTF-conv": {
          "skeleton": {
            "skeletonType": "LimbNode"
          }
        }
      },
      "name": "Bip001 R Hand",
      "rotation": [
        0.7479758858680725,
        -0.09956030547618866,
        -0.4269367456436157,
        0.49834203720092773
      ],
      "translation": [
        0.28649017214775085,
        1.4210854397564648e-16,
        0.0
      ]
    },
    {
      "extras": {
        "FBX-glTF-conv": {
          "skeleton": {
            "skeletonType": "LimbNode"
          }
        }
      },
      "name": "Bip001 Head",
      "rotation": [
        0.2601366937160492,
        -0.06012967973947525,
        -0.0023066685535013676,
        0.9636949896812439
      ],
      "translation": [
        0.06347229331731796,
        -0.0012642479268833995,
        -4.625320570994518e-07
      ]
    },
    {
      "extras": {
        "FBX-glTF-conv": {
          "skeleton": {
            "skeletonType": "LimbNode"
          }
        }
      },
      "name": "Bip001 Prop1",
      "rotation": [
        0.6961542963981628,
        0.23246844112873077,
        0.6284126043319702,
        -0.25773102045059204
      ],
      "translation": [
        0.16256995499134064,
        -0.16583463549613953,
        0.11440162360668182
      ]
    }
  ],
  "scenes": [
    {
      "nodes": [
        0
      ]
    }
  ]
}