{
  "accessors": [
    {
      "bufferView": 0,
      "componentType": 5126,
      "count": 351,
      "max": [
        0.2989644706249237,
        0.2989644706249237,
        0.4288434088230133
      ],
      "min": [
        -0.2989644706249237,
        -0.2989644706249237,
        -0.42884349822998047
      ],
      "name": "Cylinder002/POSITION",
      "type": "VEC3"
    },
    {
      "bufferView": 0,
      "byteOffset": 12,
      "componentType": 5126,
      "count": 351,
      "name": "Cylinder002/NORMAL",
      "type": "VEC3"
    },
    {
      "bufferView": 0,
      "byteOffset": 24,
      "componentType": 5126,
      "count": 351,
      "name": "Cylinder002/TEXCOORD_0",
      "type": "VEC2"
    },
    {
      "bufferView": 1,
      "componentType": 5123,
      "count": 1872,
      "name": "Cylinder002/INDICES",
      "type": "SCALAR"
    },
    {
      "bufferView": 2,
      "componentType": 5126,
      "count": 256,
      "max": [
        0.3055746853351593,
        0.3055746257305145,
        0.44350770115852356
      ],
      "min": [
        -0.3055746853351593,
        -0.3055746853351593,
        -0.4435099959373474
      ],
      "name": "对象001/POSITION",
      "type": "VEC3"
    },
    {
      "bufferView": 2,
      "byteOffset": 12,
      "componentType": 5126,
      "count": 256,
      "name": "对象001/NORMAL",
      "type": "VEC3"
    },
    {
      "bufferView": 2,
      "byteOffset": 24,
      "componentType": 5126,
      "count": 256,
      "name": "对象001/TEXCOORD_0",
      "type": "VEC2"
    },
    {
      "bufferView": 3,
      "componentType": 5123,
      "count": 780,
      "name": "对象001/INDICES",
      "type": "SCALAR"
    }
  ],
  "asset": {
    "copyright": "Copyright (c) 2018-2020 Chukong Technologies Inc.",
    "generator": "FBX-glTF-conv",
    "version": "2.0"
  },
  "bufferViews": [
    {
      "buffer": 0,
      "byteLength": 11232,
      "byteStride": 32,
      "name": "Cylinder002",
      "target": 34962
    },
    {
      "buffer": 0,
      "byteLength": 3744,
      "byteOffset": 11232,
      "target": 34963
    },
    {
      "buffer": 0,
      "byteLength": 8192,
      "byteOffset": 14976,
      "byteStride": 32,
      "name": "对象001",
      "target": 34962
    },
    {
      "buffer": 0,
      "byteLength": 1560,
      "byteOffset": 23168,
      "target": 34963
    }
  ],
  "buffers": [
    {
      "byteLength": 24728,
      "uri": "out.bin"
    }
  ],
  "extras": {
    "FBX-glTF-conv": {
      "animationFrameRate": 30.0,
      "fbxFileHeaderInfo": {
        "creationTimeStamp": {
          "day": 22,
          "hour": 15,
          "millisecond": 980,
          "minute": 6,
          "month": 6,
          "second": 39,
          "year": 2026
        },
        "creator": "FBX SDK/FBX Plugins version 2020.1.1",
        "sceneInfo": {
          "author": "",
          "comment": "",
          "keywords": "",
          "original": {
            "applicationName": "3ds Max",
            "applicationVendor": "Autodesk",
            "applicationVersion": "2022",
            "fileName": "C:\\Users\\Administrator\\Desktop\\SLLYT\\教网店学徒各种副业vx-Rshgzs666-3dmax室外藤曼爬山虎花藤植物3d模型素材cr vr渲染带贴图藤曼fbx\\SM_youtong_02.fbx"
          },
          "revision": "",
          "subject": "",
          "title": "",
          "url": "D:\\工程项目\\PlayableAD\\Cocos\\TheW\\20260615_HYQ\\HYQ_Project\\assets\\GameRes\\SLLYT_map\\fbx\\SM_youtong_02.fbx"
        }
      }
    }
  },
  "meshes": [
    {
      "name": "Cylinder002",
      "primitives": [
        {
          "attributes": {
            "NORMAL": 1,
            "POSITION": 0,
            "TEXCOORD_0": 2
          },
          "indices": 3
        }
      ]
    },
    {
      "name": "对象001",
      "primitives": [
        {
          "attributes": {
            "NORMAL": 5,
            "POSITION": 4,
            "TEXCOORD_0": 6
          },
          "indices": 7
        }
      ]
    }
  ],
  "nodes": [
    {
      "mesh": 0,
      "name": "Cylinder002",
      "rotation": [
        -0.7071067690849304,
        -0.0,
        0.0,
        0.7071067690849304
      ]
    },
    {
      "mesh": 1,
      "name": "对象001",
      "rotation": [
        -0.7071067690849304,
        -0.0,
        0.0,
        0.7071067690849304
      ]
    }
  ],
  "scenes": [
    {
      "nodes": [
        0,
        1
      ]
    }
  ]
}