{
  "accessors": [
    {
      "bufferView": 0,
      "componentType": 5126,
      "count": 2395,
      "max": [
        0.6894294023513794,
        0.24364271759986877,
        1.850112795829773
      ],
      "min": [
        -0.6885124444961548,
        -0.16309431195259094,
        -0.0034416571725159883
      ],
      "name": "zhujue/POSITION",
      "type": "VEC3"
    },
    {
      "bufferView": 0,
      "byteOffset": 12,
      "componentType": 5126,
      "count": 2395,
      "name": "zhujue/NORMAL",
      "type": "VEC3"
    },
    {
      "bufferView": 0,
      "byteOffset": 24,
      "componentType": 5126,
      "count": 2395,
      "name": "zhujue/TEXCOORD_0",
      "type": "VEC2"
    },
    {
      "bufferView": 0,
      "byteOffset": 32,
      "componentType": 5123,
      "count": 2395,
      "name": "zhujue/JOINTS_0",
      "type": "VEC4"
    },
    {
      "bufferView": 0,
      "byteOffset": 40,
      "componentType": 5126,
      "count": 2395,
      "name": "zhujue/WEIGHTS_0",
      "type": "VEC4"
    },
    {
      "bufferView": 0,
      "byteOffset": 56,
      "componentType": 5123,
      "count": 2395,
      "name": "zhujue/JOINTS_1",
      "type": "VEC4"
    },
    {
      "bufferView": 0,
      "byteOffset": 64,
      "componentType": 5126,
      "count": 2395,
      "name": "zhujue/WEIGHTS_1",
      "type": "VEC4"
    },
    {
      "bufferView": 1,
      "componentType": 5123,
      "count": 8511,
      "name": "zhujue/INDICES",
      "type": "SCALAR"
    },
    {
      "bufferView": 2,
      "componentType": 5126,
      "count": 21,
      "name": "/InverseBindMatrices",
      "type": "MAT4"
    },
    {
      "bufferView": 3,
      "componentType": 5126,
      "count": 869,
      "max": [
        0.029050979763269424,
        0.31761670112609863,
        0.13582740724086761
      ],
      "min": [
        -0.029050979763269424,
        -0.31761670112609863,
        -0.13582740724086761
      ],
      "name": "AK/POSITION",
      "type": "VEC3"
    },
    {
      "bufferView": 3,
      "byteOffset": 12,
      "componentType": 5126,
      "count": 869,
      "name": "AK/NORMAL",
      "type": "VEC3"
    },
    {
      "bufferView": 3,
      "byteOffset": 24,
      "componentType": 5126,
      "count": 869,
      "name": "AK/TEXCOORD_0",
      "type": "VEC2"
    },
    {
      "bufferView": 4,
      "componentType": 5123,
      "count": 1956,
      "name": "AK/INDICES",
      "type": "SCALAR"
    },
    {
      "bufferView": 5,
      "componentType": 5126,
      "count": 1,
      "name": "zhujue/rotation/Output",
      "type": "VEC4"
    },
    {
      "bufferView": 6,
      "componentType": 5126,
      "count": 1,
      "max": [
        0.6666666865348816
      ],
      "min": [
        0.6666666865348816
      ],
      "name": "zhujue/rotation/Input",
      "type": "SCALAR"
    },
    {
      "bufferView": 7,
      "componentType": 5126,
      "count": 21,
      "name": "Bip001/translation/Output",
      "type": "VEC3"
    },
    {
      "bufferView": 8,
      "componentType": 5126,
      "count": 21,
      "max": [
        0.6666666865348816
      ],
      "min": [
        0.0
      ],
      "name": "Bip001/translation/Input",
      "type": "SCALAR"
    },
    {
      "bufferView": 9,
      "componentType": 5126,
      "count": 1,
      "name": "Bip001/rotation/Output",
      "type": "VEC4"
    },
    {
      "bufferView": 10,
      "componentType": 5126,
      "count": 1,
      "max": [
        0.6666666865348816
      ],
      "min": [
        0.6666666865348816
      ],
      "name": "Bip001/rotation/Input",
      "type": "SCALAR"
    },
    {
      "bufferView": 11,
      "componentType": 5126,
      "count": 1,
      "name": "Bip001/scale/Output",
      "type": "VEC3"
    },
    {
      "bufferView": 12,
      "componentType": 5126,
      "count": 1,
      "max": [
        0.6666666865348816
      ],
      "min": [
        0.6666666865348816
      ],
      "name": "Bip001/scale/Input",
      "type": "SCALAR"
    },
    {
      "bufferView": 13,
      "componentType": 5126,
      "count": 1,
      "name": "Bip001 Pelvis/translation/Output",
      "type": "VEC3"
    },
    {
      "bufferView": 14,
      "componentType": 5126,
      "count": 1,
      "max": [
        0.6666666865348816
      ],
      "min": [
        0.6666666865348816
      ],
      "name": "Bip001 Pelvis/translation/Input",
      "type": "SCALAR"
    },
    {
      "bufferView": 15,
      "componentType": 5126,
      "count": 1,
      "name": "Bip001 Pelvis/rotation/Output",
      "type": "VEC4"
    },
    {
      "bufferView": 16,
      "componentType": 5126,
      "count": 1,
      "max": [
        0.6666666865348816
      ],
      "min": [
        0.6666666865348816
      ],
      "name": "Bip001 Pelvis/rotation/Input",
      "type": "SCALAR"
    },
    {
      "bufferView": 17,
      "componentType": 5126,
      "count": 1,
      "name": "Bip001 Pelvis/scale/Output",
      "type": "VEC3"
    },
    {
      "bufferView": 18,
      "componentType": 5126,
      "count": 1,
      "max": [
        0.6666666865348816
      ],
      "min": [
        0.6666666865348816
      ],
      "name": "Bip001 Pelvis/scale/Input",
      "type": "SCALAR"
    },
    {
      "bufferView": 19,
      "componentType": 5126,
      "count": 16,
      "name": "Bip001 Spine/translation/Output",
      "type": "VEC3"
    },
    {
      "bufferView": 20,
      "componentType": 5126,
      "count": 16,
      "max": [
        0.6666666865348816
      ],
      "min": [
        0.0
      ],
      "name": "Bip001 Spine/translation/Input",
      "type": "SCALAR"
    },
    {
      "bufferView": 21,
      "componentType": 5126,
      "count": 21,
      "name": "Bip001 Spine/rotation/Output",
      "type": "VEC4"
    },
    {
      "bufferView": 22,
      "componentType": 5126,
      "count": 21,
      "max": [
        0.6666666865348816
      ],
      "min": [
        0.0
      ],
      "name": "Bip001 Spine/rotation/Input",
      "type": "SCALAR"
    },
    {
      "bufferView": 23,
      "componentType": 5126,
      "count": 1,
      "name": "Bip001 Spine/scale/Output",
      "type": "VEC3"
    },
    {
      "bufferView": 24,
      "componentType": 5126,
      "count": 1,
      "max": [
        0.6666666865348816
      ],
      "min": [
        0.6666666865348816
      ],
      "name": "Bip001 Spine/scale/Input",
      "type": "SCALAR"
    },
    {
      "bufferView": 25,
      "componentType": 5126,
      "count": 21,
      "name": "Bip001 L Thigh/translation/Output",
      "type": "VEC3"
    },
    {
      "bufferView": 26,
      "componentType": 5126,
      "count": 21,
      "max": [
        0.6666666865348816
      ],
      "min": [
        0.0
      ],
      "name": "Bip001 L Thigh/translation/Input",
      "type": "SCALAR"
    },
    {
      "bufferView": 27,
      "componentType": 5126,
      "count": 21,
      "name": "Bip001 L Thigh/rotation/Output",
      "type": "VEC4"
    },
    {
      "bufferView": 28,
      "componentType": 5126,
      "count": 21,
      "max": [
        0.6666666865348816
      ],
      "min": [
        0.0
      ],
      "name": "Bip001 L Thigh/rotation/Input",
      "type": "SCALAR"
    },
    {
      "bufferView": 29,
      "componentType": 5126,
      "count": 1,
      "name": "Bip001 L Thigh/scale/Output",
      "type": "VEC3"
    },
    {
      "bufferView": 30,
      "componentType": 5126,
      "count": 1,
      "max": [
        0.6666666865348816
      ],
      "min": [
        0.6666666865348816
      ],
      "name": "Bip001 L Thigh/scale/Input",
      "type": "SCALAR"
    },
    {
      "bufferView": 31,
      "componentType": 5126,
      "count": 6,
      "name": "Bip001 L Calf/translation/Output",
      "type": "VEC3"
    },
    {
      "bufferView": 32,
      "componentType": 5126,
      "count": 6,
      "max": [
        0.6666666865348816
      ],
      "min": [
        0.13333334028720856
      ],
      "name": "Bip001 L Calf/translation/Input",
      "type": "SCALAR"
    },
    {
      "bufferView": 33,
      "componentType": 5126,
      "count": 21,
      "name": "Bip001 L Calf/rotation/Output",
      "type": "VEC4"
    },
    {
      "bufferView": 34,
      "componentType": 5126,
      "count": 21,
      "max": [
        0.6666666865348816
      ],
      "min": [
        0.0
      ],
      "name": "Bip001 L Calf/rotation/Input",
      "type": "SCALAR"
    },
    {
      "bufferView": 35,
      "componentType": 5126,
      "count": 1,
      "name": "Bip001 L Calf/scale/Output",
      "type": "VEC3"
    },
    {
      "bufferView": 36,
      "componentType": 5126,
      "count": 1,
      "max": [
        0.6666666865348816
      ],
      "min": [
        0.6666666865348816
      ],
      "name": "Bip001 L Calf/scale/Input",
      "type": "SCALAR"
    },
    {
      "bufferView": 37,
      "componentType": 5126,
      "count": 6,
      "name": "Bip001 L Foot/translation/Output",
      "type": "VEC3"
    },
    {
      "bufferView": 38,
      "componentType": 5126,
      "count": 6,
      "max": [
        0.5666666626930237
      ],
      "min": [
        0.0
      ],
      "name": "Bip001 L Foot/translation/Input",
      "type": "SCALAR"
    },
    {
      "bufferView": 39,
      "componentType": 5126,
      "count": 20,
      "name": "Bip001 L Foot/rotation/Output",
      "type": "VEC4"
    },
    {
      "bufferView": 40,
      "componentType": 5126,
      "count": 20,
      "max": [
        0.6666666865348816
      ],
      "min": [
        0.0
      ],
      "name": "Bip001 L Foot/rotation/Input",
      "type": "SCALAR"
    },
    {
      "bufferView": 41,
      "componentType": 5126,
      "count": 1,
      "name": "Bip001 L Foot/scale/Output",
      "type": "VEC3"
    },
    {
      "bufferView": 42,
      "componentType": 5126,
      "count": 1,
      "max": [
        0.6666666865348816
      ],
      "min": [
        0.6666666865348816
      ],
      "name": "Bip001 L Foot/scale/Input",
      "type": "SCALAR"
    },
    {
      "bufferView": 43,
      "componentType": 5126,
      "count": 1,
      "name": "Bip001 L Toe0/translation/Output",
      "type": "VEC3"
    },
    {
      "bufferView": 44,
      "componentType": 5126,
      "count": 1,
      "max": [
        0.6666666865348816
      ],
      "min": [
        0.6666666865348816
      ],
      "name": "Bip001 L Toe0/translation/Input",
      "type": "SCALAR"
    },
    {
      "bufferView": 45,
      "componentType": 5126,
      "count": 13,
      "name": "Bip001 L Toe0/rotation/Output",
      "type": "VEC4"
    },
    {
      "bufferView": 46,
      "componentType": 5126,
      "count": 13,
      "max": [
        0.6666666865348816
      ],
      "min": [
        0.10000000149011612
      ],
      "name": "Bip001 L Toe0/rotation/Input",
      "type": "SCALAR"
    },
    {
      "bufferView": 47,
      "componentType": 5126,
      "count": 1,
      "name": "Bip001 L Toe0/scale/Output",
      "type": "VEC3"
    },
    {
      "bufferView": 48,
      "componentType": 5126,
      "count": 1,
      "max": [
        0.6666666865348816
      ],
      "min": [
        0.6666666865348816
      ],
      "name": "Bip001 L Toe0/scale/Input",
      "type": "SCALAR"
    },
    {
      "bufferView": 49,
      "componentType": 5126,
      "count": 21,
      "name": "Bip001 R Thigh/translation/Output",
      "type": "VEC3"
    },
    {
      "bufferView": 50,
      "componentType": 5126,
      "count": 21,
      "max": [
        0.6666666865348816
      ],
      "min": [
        0.0
      ],
      "name": "Bip001 R Thigh/translation/Input",
      "type": "SCALAR"
    },
    {
      "bufferView": 51,
      "componentType": 5126,
      "count": 21,
      "name": "Bip001 R Thigh/rotation/Output",
      "type": "VEC4"
    },
    {
      "bufferView": 52,
      "componentType": 5126,
      "count": 21,
      "max": [
        0.6666666865348816
      ],
      "min": [
        0.0
      ],
      "name": "Bip001 R Thigh/rotation/Input",
      "type": "SCALAR"
    },
    {
      "bufferView": 53,
      "componentType": 5126,
      "count": 1,
      "name": "Bip001 R Thigh/scale/Output",
      "type": "VEC3"
    },
    {
      "bufferView": 54,
      "componentType": 5126,
      "count": 1,
      "max": [
        0.6666666865348816
      ],
      "min": [
        0.6666666865348816
      ],
      "name": "Bip001 R Thigh/scale/Input",
      "type": "SCALAR"
    },
    {
      "bufferView": 55,
      "componentType": 5126,
      "count": 3,
      "name": "Bip001 R Calf/translation/Output",
      "type": "VEC3"
    },
    {
      "bufferView": 56,
      "componentType": 5126,
      "count": 3,
      "max": [
        0.3333333432674408
      ],
      "min": [
        0.23333333432674408
      ],
      "name": "Bip001 R Calf/translation/Input",
      "type": "SCALAR"
    },
    {
      "bufferView": 57,
      "componentType": 5126,
      "count": 21,
      "name": "Bip001 R Calf/rotation/Output",
      "type": "VEC4"
    },
    {
      "bufferView": 58,
      "componentType": 5126,
      "count": 21,
      "max": [
        0.6666666865348816
      ],
      "min": [
        0.0
      ],
      "name": "Bip001 R Calf/rotation/Input",
      "type": "SCALAR"
    },
    {
      "bufferView": 59,
      "componentType": 5126,
      "count": 1,
      "name": "Bip001 R Calf/scale/Output",
      "type": "VEC3"
    },
    {
      "bufferView": 60,
      "componentType": 5126,
      "count": 1,
      "max": [
        0.6666666865348816
      ],
      "min": [
        0.6666666865348816
      ],
      "name": "Bip001 R Calf/scale/Input",
      "type": "SCALAR"
    },
    {
      "bufferView": 61,
      "componentType": 5126,
      "count": 11,
      "name": "Bip001 R Foot/translation/Output",
      "type": "VEC3"
    },
    {
      "bufferView": 62,
      "componentType": 5126,
      "count": 11,
      "max": [
        0.5666666626930237
      ],
      "min": [
        0.0
      ],
      "name": "Bip001 R Foot/translation/Input",
      "type": "SCALAR"
    },
    {
      "bufferView": 63,
      "componentType": 5126,
      "count": 21,
      "name": "Bip001 R Foot/rotation/Output",
      "type": "VEC4"
    },
    {
      "bufferView": 64,
      "componentType": 5126,
      "count": 21,
      "max": [
        0.6666666865348816
      ],
      "min": [
        0.0
      ],
      "name": "Bip001 R Foot/rotation/Input",
      "type": "SCALAR"
    },
    {
      "bufferView": 65,
      "componentType": 5126,
      "count": 1,
      "name": "Bip001 R Foot/scale/Output",
      "type": "VEC3"
    },
    {
      "bufferView": 66,
      "componentType": 5126,
      "count": 1,
      "max": [
        0.6666666865348816
      ],
      "min": [
        0.6666666865348816
      ],
      "name": "Bip001 R Foot/scale/Input",
      "type": "SCALAR"
    },
    {
      "bufferView": 67,
      "componentType": 5126,
      "count": 1,
      "name": "Bip001 R Toe0/translation/Output",
      "type": "VEC3"
    },
    {
      "bufferView": 68,
      "componentType": 5126,
      "count": 1,
      "max": [
        0.6666666865348816
      ],
      "min": [
        0.6666666865348816
      ],
      "name": "Bip001 R Toe0/translation/Input",
      "type": "SCALAR"
    },
    {
      "bufferView": 69,
      "componentType": 5126,
      "count": 21,
      "name": "Bip001 R Toe0/rotation/Output",
      "type": "VEC4"
    },
    {
      "bufferView": 70,
      "componentType": 5126,
      "count": 21,
      "max": [
        0.6666666865348816
      ],
      "min": [
        0.0
      ],
      "name": "Bip001 R Toe0/rotation/Input",
      "type": "SCALAR"
    },
    {
      "bufferView": 71,
      "componentType": 5126,
      "count": 1,
      "name": "Bip001 R Toe0/scale/Output",
      "type": "VEC3"
    },
    {
      "bufferView": 72,
      "componentType": 5126,
      "count": 1,
      "max": [
        0.6666666865348816
      ],
      "min": [
        0.6666666865348816
      ],
      "name": "Bip001 R Toe0/scale/Input",
      "type": "SCALAR"
    },
    {
      "bufferView": 73,
      "componentType": 5126,
      "count": 8,
      "name": "Bip001 Spine1/translation/Output",
      "type": "VEC3"
    },
    {
      "bufferView": 74,
      "componentType": 5126,
      "count": 8,
      "max": [
        0.6666666865348816
      ],
      "min": [
        0.2666666805744171
      ],
      "name": "Bip001 Spine1/translation/Input",
      "type": "SCALAR"
    },
    {
      "bufferView": 75,
      "componentType": 5126,
      "count": 1,
      "name": "Bip001 Spine1/rotation/Output",
      "type": "VEC4"
    },
    {
      "bufferView": 76,
      "componentType": 5126,
      "count": 1,
      "max": [
        0.6666666865348816
      ],
      "min": [
        0.6666666865348816
      ],
      "name": "Bip001 Spine1/rotation/Input",
      "type": "SCALAR"
    },
    {
      "bufferView": 77,
      "componentType": 5126,
      "count": 1,
      "name": "Bip001 Spine1/scale/Output",
      "type": "VEC3"
    },
    {
      "bufferView": 78,
      "componentType": 5126,
      "count": 1,
      "max": [
        0.6666666865348816
      ],
      "min": [
        0.6666666865348816
      ],
      "name": "Bip001 Spine1/scale/Input",
      "type": "SCALAR"
    },
    {
      "bufferView": 79,
      "componentType": 5126,
      "count": 16,
      "name": "Bip001 Neck/translation/Output",
      "type": "VEC3"
    },
    {
      "bufferView": 80,
      "componentType": 5126,
      "count": 16,
      "max": [
        0.6666666865348816
      ],
      "min": [
        0.03333333507180214
      ],
      "name": "Bip001 Neck/translation/Input",
      "type": "SCALAR"
    },
    {
      "bufferView": 81,
      "componentType": 5126,
      "count": 1,
      "name": "Bip001 Neck/rotation/Output",
      "type": "VEC4"
    },
    {
      "bufferView": 82,
      "componentType": 5126,
      "count": 1,
      "max": [
        0.6666666865348816
      ],
      "min": [
        0.6666666865348816
      ],
      "name": "Bip001 Neck/rotation/Input",
      "type": "SCALAR"
    },
    {
      "bufferView": 83,
      "componentType": 5126,
      "count": 1,
      "name": "Bip001 Neck/scale/Output",
      "type": "VEC3"
    },
    {
      "bufferView": 84,
      "componentType": 5126,
      "count": 1,
      "max": [
        0.6666666865348816
      ],
      "min": [
        0.6666666865348816
      ],
      "name": "Bip001 Neck/scale/Input",
      "type": "SCALAR"
    },
    {
      "bufferView": 85,
      "componentType": 5126,
      "count": 13,
      "name": "Bip001 L Clavicle/translation/Output",
      "type": "VEC3"
    },
    {
      "bufferView": 86,
      "componentType": 5126,
      "count": 13,
      "max": [
        0.6666666865348816
      ],
      "min": [
        0.0
      ],
      "name": "Bip001 L Clavicle/translation/Input",
      "type": "SCALAR"
    },
    {
      "bufferView": 87,
      "componentType": 5126,
      "count": 1,
      "name": "Bip001 L Clavicle/rotation/Output",
      "type": "VEC4"
    },
    {
      "bufferView": 88,
      "componentType": 5126,
      "count": 1,
      "max": [
        0.6666666865348816
      ],
      "min": [
        0.6666666865348816
      ],
      "name": "Bip001 L Clavicle/rotation/Input",
      "type": "SCALAR"
    },
    {
      "bufferView": 89,
      "componentType": 5126,
      "count": 1,
      "name": "Bip001 L Clavicle/scale/Output",
      "type": "VEC3"
    },
    {
      "bufferView": 90,
      "componentType": 5126,
      "count": 1,
      "max": [
        0.6666666865348816
      ],
      "min": [
        0.6666666865348816
      ],
      "name": "Bip001 L Clavicle/scale/Input",
      "type": "SCALAR"
    },
    {
      "bufferView": 91,
      "componentType": 5126,
      "count": 10,
      "name": "Bip001 L UpperArm/translation/Output",
      "type": "VEC3"
    },
    {
      "bufferView": 92,
      "componentType": 5126,
      "count": 10,
      "max": [
        0.6666666865348816
      ],
      "min": [
        0.10000000149011612
      ],
      "name": "Bip001 L UpperArm/translation/Input",
      "type": "SCALAR"
    },
    {
      "bufferView": 93,
      "componentType": 5126,
      "count": 21,
      "name": "Bip001 L UpperArm/rotation/Output",
      "type": "VEC4"
    },
    {
      "bufferView": 94,
      "componentType": 5126,
      "count": 21,
      "max": [
        0.6666666865348816
      ],
      "min": [
        0.0
      ],
      "name": "Bip001 L UpperArm/rotation/Input",
      "type": "SCALAR"
    },
    {
      "bufferView": 95,
      "componentType": 5126,
      "count": 1,
      "name": "Bip001 L UpperArm/scale/Output",
      "type": "VEC3"
    },
    {
      "bufferView": 96,
      "componentType": 5126,
      "count": 1,
      "max": [
        0.6666666865348816
      ],
      "min": [
        0.6666666865348816
      ],
      "name": "Bip001 L UpperArm/scale/Input",
      "type": "SCALAR"
    },
    {
      "bufferView": 97,
      "componentType": 5126,
      "count": 7,
      "name": "Bip001 L Forearm/translation/Output",
      "type": "VEC3"
    },
    {
      "bufferView": 98,
      "componentType": 5126,
      "count": 7,
      "max": [
        0.6000000238418579
      ],
      "min": [
        0.06666667014360428
      ],
      "name": "Bip001 L Forearm/translation/Input",
      "type": "SCALAR"
    },
    {
      "bufferView": 99,
      "componentType": 5126,
      "count": 20,
      "name": "Bip001 L Forearm/rotation/Output",
      "type": "VEC4"
    },
    {
      "bufferView": 100,
      "componentType": 5126,
      "count": 20,
      "max": [
        0.6666666865348816
      ],
      "min": [
        0.0
      ],
      "name": "Bip001 L Forearm/rotation/Input",
      "type": "SCALAR"
    },
    {
      "bufferView": 101,
      "componentType": 5126,
      "count": 1,
      "name": "Bip001 L Forearm/scale/Output",
      "type": "VEC3"
    },
    {
      "bufferView": 102,
      "componentType": 5126,
      "count": 1,
      "max": [
        0.6666666865348816
      ],
      "min": [
        0.6666666865348816
      ],
      "name": "Bip001 L Forearm/scale/Input",
      "type": "SCALAR"
    },
    {
      "bufferView": 103,
      "componentType": 5126,
      "count": 6,
      "name": "Bip001 L Hand/translation/Output",
      "type": "VEC3"
    },
    {
      "bufferView": 104,
      "componentType": 5126,
      "count": 6,
      "max": [
        0.6666666865348816
      ],
      "min": [
        0.06666667014360428
      ],
      "name": "Bip001 L Hand/translation/Input",
      "type": "SCALAR"
    },
    {
      "bufferView": 105,
      "componentType": 5126,
      "count": 21,
      "name": "Bip001 L Hand/rotation/Output",
      "type": "VEC4"
    },
    {
      "bufferView": 106,
      "componentType": 5126,
      "count": 21,
      "max": [
        0.6666666865348816
      ],
      "min": [
        0.0
      ],
      "name": "Bip001 L Hand/rotation/Input",
      "type": "SCALAR"
    },
    {
      "bufferView": 107,
      "componentType": 5126,
      "count": 1,
      "name": "Bip001 L Hand/scale/Output",
      "type": "VEC3"
    },
    {
      "bufferView": 108,
      "componentType": 5126,
      "count": 1,
      "max": [
        0.6666666865348816
      ],
      "min": [
        0.6666666865348816
      ],
      "name": "Bip001 L Hand/scale/Input",
      "type": "SCALAR"
    },
    {
      "bufferView": 109,
      "componentType": 5126,
      "count": 13,
      "name": "Bip001 R Clavicle/translation/Output",
      "type": "VEC3"
    },
    {
      "bufferView": 110,
      "componentType": 5126,
      "count": 13,
      "max": [
        0.6666666865348816
      ],
      "min": [
        0.0
      ],
      "name": "Bip001 R Clavicle/translation/Input",
      "type": "SCALAR"
    },
    {
      "bufferView": 111,
      "componentType": 5126,
      "count": 1,
      "name": "Bip001 R Clavicle/rotation/Output",
      "type": "VEC4"
    },
    {
      "bufferView": 112,
      "componentType": 5126,
      "count": 1,
      "max": [
        0.6666666865348816
      ],
      "min": [
        0.6666666865348816
      ],
      "name": "Bip001 R Clavicle/rotation/Input",
      "type": "SCALAR"
    },
    {
      "bufferView": 113,
      "componentType": 5126,
      "count": 1,
      "name": "Bip001 R Clavicle/scale/Output",
      "type": "VEC3"
    },
    {
      "bufferView": 114,
      "componentType": 5126,
      "count": 1,
      "max": [
        0.6666666865348816
      ],
      "min": [
        0.6666666865348816
      ],
      "name": "Bip001 R Clavicle/scale/Input",
      "type": "SCALAR"
    },
    {
      "bufferView": 115,
      "componentType": 5126,
      "count": 10,
      "name": "Bip001 R UpperArm/translation/Output",
      "type": "VEC3"
    },
    {
      "bufferView": 116,
      "componentType": 5126,
      "count": 10,
      "max": [
        0.6666666865348816
      ],
      "min": [
        0.03333333507180214
      ],
      "name": "Bip001 R UpperArm/translation/Input",
      "type": "SCALAR"
    },
    {
      "bufferView": 117,
      "componentType": 5126,
      "count": 21,
      "name": "Bip001 R UpperArm/rotation/Output",
      "type": "VEC4"
    },
    {
      "bufferView": 118,
      "componentType": 5126,
      "count": 21,
      "max": [
        0.6666666865348816
      ],
      "min": [
        0.0
      ],
      "name": "Bip001 R UpperArm/rotation/Input",
      "type": "SCALAR"
    },
    {
      "bufferView": 119,
      "componentType": 5126,
      "count": 1,
      "name": "Bip001 R UpperArm/scale/Output",
      "type": "VEC3"
    },
    {
      "bufferView": 120,
      "componentType": 5126,
      "count": 1,
      "max": [
        0.6666666865348816
      ],
      "min": [
        0.6666666865348816
      ],
      "name": "Bip001 R UpperArm/scale/Input",
      "type": "SCALAR"
    },
    {
      "bufferView": 121,
      "componentType": 5126,
      "count": 15,
      "name": "Bip001 R Forearm/translation/Output",
      "type": "VEC3"
    },
    {
      "bufferView": 122,
      "componentType": 5126,
      "count": 15,
      "max": [
        0.6666666865348816
      ],
      "min": [
        0.03333333507180214
      ],
      "name": "Bip001 R Forearm/translation/Input",
      "type": "SCALAR"
    },
    {
      "bufferView": 123,
      "componentType": 5126,
      "count": 20,
      "name": "Bip001 R Forearm/rotation/Output",
      "type": "VEC4"
    },
    {
      "bufferView": 124,
      "componentType": 5126,
      "count": 20,
      "max": [
        0.6666666865348816
      ],
      "min": [
        0.0
      ],
      "name": "Bip001 R Forearm/rotation/Input",
      "type": "SCALAR"
    },
    {
      "bufferView": 125,
      "componentType": 5126,
      "count": 1,
      "name": "Bip001 R Forearm/scale/Output",
      "type": "VEC3"
    },
    {
      "bufferView": 126,
      "componentType": 5126,
      "count": 1,
      "max": [
        0.6666666865348816
      ],
      "min": [
        0.6666666865348816
      ],
      "name": "Bip001 R Forearm/scale/Input",
      "type": "SCALAR"
    },
    {
      "bufferView": 127,
      "componentType": 5126,
      "count": 14,
      "name": "Bip001 R Hand/translation/Output",
      "type": "VEC3"
    },
    {
      "bufferView": 128,
      "componentType": 5126,
      "count": 14,
      "max": [
        0.6666666865348816
      ],
      "min": [
        0.0
      ],
      "name": "Bip001 R Hand/translation/Input",
      "type": "SCALAR"
    },
    {
      "bufferView": 129,
      "componentType": 5126,
      "count": 21,
      "name": "Bip001 R Hand/rotation/Output",
      "type": "VEC4"
    },
    {
      "bufferView": 130,
      "componentType": 5126,
      "count": 21,
      "max": [
        0.6666666865348816
      ],
      "min": [
        0.0
      ],
      "name": "Bip001 R Hand/rotation/Input",
      "type": "SCALAR"
    },
    {
      "bufferView": 131,
      "componentType": 5126,
      "count": 1,
      "name": "Bip001 R Hand/scale/Output",
      "type": "VEC3"
    },
    {
      "bufferView": 132,
      "componentType": 5126,
      "count": 1,
      "max": [
        0.6666666865348816
      ],
      "min": [
        0.6666666865348816
      ],
      "name": "Bip001 R Hand/scale/Input",
      "type": "SCALAR"
    },
    {
      "bufferView": 133,
      "componentType": 5126,
      "count": 11,
      "name": "Bip001 Head/translation/Output",
      "type": "VEC3"
    },
    {
      "bufferView": 134,
      "componentType": 5126,
      "count": 11,
      "max": [
        0.6666666865348816
      ],
      "min": [
        0.0
      ],
      "name": "Bip001 Head/translation/Input",
      "type": "SCALAR"
    },
    {
      "bufferView": 135,
      "componentType": 5126,
      "count": 21,
      "name": "Bip001 Head/rotation/Output",
      "type": "VEC4"
    },
    {
      "bufferView": 136,
      "componentType": 5126,
      "count": 21,
      "max": [
        0.6666666865348816
      ],
      "min": [
        0.0
      ],
      "name": "Bip001 Head/rotation/Input",
      "type": "SCALAR"
    },
    {
      "bufferView": 137,
      "componentType": 5126,
      "count": 1,
      "name": "Bip001 Head/scale/Output",
      "type": "VEC3"
    },
    {
      "bufferView": 138,
      "componentType": 5126,
      "count": 1,
      "max": [
        0.6666666865348816
      ],
      "min": [
        0.6666666865348816
      ],
      "name": "Bip001 Head/scale/Input",
      "type": "SCALAR"
    },
    {
      "bufferView": 139,
      "componentType": 5126,
      "count": 21,
      "name": "Bip001 Prop1/translation/Output",
      "type": "VEC3"
    },
    {
      "bufferView": 140,
      "componentType": 5126,
      "count": 21,
      "max": [
        0.6666666865348816
      ],
      "min": [
        0.0
      ],
      "name": "Bip001 Prop1/translation/Input",
      "type": "SCALAR"
    },
    {
      "bufferView": 141,
      "componentType": 5126,
      "count": 21,
      "name": "Bip001 Prop1/rotation/Output",
      "type": "VEC4"
    },
    {
      "bufferView": 142,
      "componentType": 5126,
      "count": 21,
      "max": [
        0.6666666865348816
      ],
      "min": [
        0.0
      ],
      "name": "Bip001 Prop1/rotation/Input",
      "type": "SCALAR"
    },
    {
      "bufferView": 143,
      "componentType": 5126,
      "count": 1,
      "name": "Bip001 Prop1/scale/Output",
      "type": "VEC3"
    },
    {
      "bufferView": 144,
      "componentType": 5126,
      "count": 1,
      "max": [
        0.6666666865348816
      ],
      "min": [
        0.6666666865348816
      ],
      "name": "Bip001 Prop1/scale/Input",
      "type": "SCALAR"
    },
    {
      "bufferView": 145,
      "componentType": 5126,
      "count": 1,
      "name": "AK/rotation/Output",
      "type": "VEC4"
    },
    {
      "bufferView": 146,
      "componentType": 5126,
      "count": 1,
      "max": [
        0.6666666865348816
      ],
      "min": [
        0.6666666865348816
      ],
      "name": "AK/rotation/Input",
      "type": "SCALAR"
    }
  ],
  "animations": [
    {
      "channels": [
        {
          "sampler": 0,
          "target": {
            "node": 0,
            "path": "rotation"
          }
        },
        {
          "sampler": 1,
          "target": {
            "node": 1,
            "path": "translation"
          }
        },
        {
          "sampler": 2,
          "target": {
            "node": 1,
            "path": "rotation"
          }
        },
        {
          "sampler": 3,
          "target": {
            "node": 1,
            "path": "scale"
          }
        },
        {
          "sampler": 4,
          "target": {
            "node": 2,
            "path": "translation"
          }
        },
        {
          "sampler": 5,
          "target": {
            "node": 2,
            "path": "rotation"
          }
        },
        {
          "sampler": 6,
          "target": {
            "node": 2,
            "path": "scale"
          }
        },
        {
          "sampler": 7,
          "target": {
            "node": 3,
            "path": "translation"
          }
        },
        {
          "sampler": 8,
          "target": {
            "node": 3,
            "path": "rotation"
          }
        },
        {
          "sampler": 9,
          "target": {
            "node": 3,
            "path": "scale"
          }
        },
        {
          "sampler": 10,
          "target": {
            "node": 4,
            "path": "translation"
          }
        },
        {
          "sampler": 11,
          "target": {
            "node": 4,
            "path": "rotation"
          }
        },
        {
          "sampler": 12,
          "target": {
            "node": 4,
            "path": "scale"
          }
        },
        {
          "sampler": 13,
          "target": {
            "node": 5,
            "path": "translation"
          }
        },
        {
          "sampler": 14,
          "target": {
            "node": 5,
            "path": "rotation"
          }
        },
        {
          "sampler": 15,
          "target": {
            "node": 5,
            "path": "scale"
          }
        },
        {
          "sampler": 16,
          "target": {
            "node": 6,
            "path": "translation"
          }
        },
        {
          "sampler": 17,
          "target": {
            "node": 6,
            "path": "rotation"
          }
        },
        {
          "sampler": 18,
          "target": {
            "node": 6,
            "path": "scale"
          }
        },
        {
          "sampler": 19,
          "target": {
            "node": 7,
            "path": "translation"
          }
        },
        {
          "sampler": 20,
          "target": {
            "node": 7,
            "path": "rotation"
          }
        },
        {
          "sampler": 21,
          "target": {
            "node": 7,
            "path": "scale"
          }
        },
        {
          "sampler": 22,
          "target": {
            "node": 8,
            "path": "translation"
          }
        },
        {
          "sampler": 23,
          "target": {
            "node": 8,
            "path": "rotation"
          }
        },
        {
          "sampler": 24,
          "target": {
            "node": 8,
            "path": "scale"
          }
        },
        {
          "sampler": 25,
          "target": {
            "node": 9,
            "path": "translation"
          }
        },
        {
          "sampler": 26,
          "target": {
            "node": 9,
            "path": "rotation"
          }
        },
        {
          "sampler": 27,
          "target": {
            "node": 9,
            "path": "scale"
          }
        },
        {
          "sampler": 28,
          "target": {
            "node": 10,
            "path": "translation"
          }
        },
        {
          "sampler": 29,
          "target": {
            "node": 10,
            "path": "rotation"
          }
        },
        {
          "sampler": 30,
          "target": {
            "node": 10,
            "path": "scale"
          }
        },
        {
          "sampler": 31,
          "target": {
            "node": 11,
            "path": "translation"
          }
        },
        {
          "sampler": 32,
          "target": {
            "node": 11,
            "path": "rotation"
          }
        },
        {
          "sampler": 33,
          "target": {
            "node": 11,
            "path": "scale"
          }
        },
        {
          "sampler": 34,
          "target": {
            "node": 12,
            "path": "translation"
          }
        },
        {
          "sampler": 35,
          "target": {
            "node": 12,
            "path": "rotation"
          }
        },
        {
          "sampler": 36,
          "target": {
            "node": 12,
            "path": "scale"
          }
        },
        {
          "sampler": 37,
          "target": {
            "node": 13,
            "path": "translation"
          }
        },
        {
          "sampler": 38,
          "target": {
            "node": 13,
            "path": "rotation"
          }
        },
        {
          "sampler": 39,
          "target": {
            "node": 13,
            "path": "scale"
          }
        },
        {
          "sampler": 40,
          "target": {
            "node": 14,
            "path": "translation"
          }
        },
        {
          "sampler": 41,
          "target": {
            "node": 14,
            "path": "rotation"
          }
        },
        {
          "sampler": 42,
          "target": {
            "node": 14,
            "path": "scale"
          }
        },
        {
          "sampler": 43,
          "target": {
            "node": 15,
            "path": "translation"
          }
        },
        {
          "sampler": 44,
          "target": {
            "node": 15,
            "path": "rotation"
          }
        },
        {
          "sampler": 45,
          "target": {
            "node": 15,
            "path": "scale"
          }
        },
        {
          "sampler": 46,
          "target": {
            "node": 16,
            "path": "translation"
          }
        },
        {
          "sampler": 47,
          "target": {
            "node": 16,
            "path": "rotation"
          }
        },
        {
          "sampler": 48,
          "target": {
            "node": 16,
            "path": "scale"
          }
        },
        {
          "sampler": 49,
          "target": {
            "node": 17,
            "path": "translation"
          }
        },
        {
          "sampler": 50,
          "target": {
            "node": 17,
            "path": "rotation"
          }
        },
        {
          "sampler": 51,
          "target": {
            "node": 17,
            "path": "scale"
          }
        },
        {
          "sampler": 52,
          "target": {
            "node": 18,
            "path": "translation"
          }
        },
        {
          "sampler": 53,
          "target": {
            "node": 18,
            "path": "rotation"
          }
        },
        {
          "sampler": 54,
          "target": {
            "node": 18,
            "path": "scale"
          }
        },
        {
          "sampler": 55,
          "target": {
            "node": 19,
            "path": "translation"
          }
        },
        {
          "sampler": 56,
          "target": {
            "node": 19,
            "path": "rotation"
          }
        },
        {
          "sampler": 57,
          "target": {
            "node": 19,
            "path": "scale"
          }
        },
        {
          "sampler": 58,
          "target": {
            "node": 20,
            "path": "translation"
          }
        },
        {
          "sampler": 59,
          "target": {
            "node": 20,
            "path": "rotation"
          }
        },
        {
          "sampler": 60,
          "target": {
            "node": 20,
            "path": "scale"
          }
        },
        {
          "sampler": 61,
          "target": {
            "node": 21,
            "path": "translation"
          }
        },
        {
          "sampler": 62,
          "target": {
            "node": 21,
            "path": "rotation"
          }
        },
        {
          "sampler": 63,
          "target": {
            "node": 21,
            "path": "scale"
          }
        },
        {
          "sampler": 64,
          "target": {
            "node": 22,
            "path": "translation"
          }
        },
        {
          "sampler": 65,
          "target": {
            "node": 22,
            "path": "rotation"
          }
        },
        {
          "sampler": 66,
          "target": {
            "node": 22,
            "path": "scale"
          }
        },
        {
          "sampler": 67,
          "target": {
            "node": 23,
            "path": "translation"
          }
        },
        {
          "sampler": 68,
          "target": {
            "node": 23,
            "path": "rotation"
          }
        },
        {
          "sampler": 69,
          "target": {
            "node": 23,
            "path": "scale"
          }
        },
        {
          "sampler": 70,
          "target": {
            "node": 24,
            "path": "rotation"
          }
        }
      ],
      "name": "Take 001",
      "samplers": [
        {
          "input": 14,
          "output": 13
        },
        {
          "input": 16,
          "output": 15
        },
        {
          "input": 18,
          "output": 17
        },
        {
          "input": 20,
          "output": 19
        },
        {
          "input": 22,
          "output": 21
        },
        {
          "input": 24,
          "output": 23
        },
        {
          "input": 26,
          "output": 25
        },
        {
          "input": 28,
          "output": 27
        },
        {
          "input": 30,
          "output": 29
        },
        {
          "input": 32,
          "output": 31
        },
        {
          "input": 34,
          "output": 33
        },
        {
          "input": 36,
          "output": 35
        },
        {
          "input": 38,
          "output": 37
        },
        {
          "input": 40,
          "output": 39
        },
        {
          "input": 42,
          "output": 41
        },
        {
          "input": 44,
          "output": 43
        },
        {
          "input": 46,
          "output": 45
        },
        {
          "input": 48,
          "output": 47
        },
        {
          "input": 50,
          "output": 49
        },
        {
          "input": 52,
          "output": 51
        },
        {
          "input": 54,
          "output": 53
        },
        {
          "input": 56,
          "output": 55
        },
        {
          "input": 58,
          "output": 57
        },
        {
          "input": 60,
          "output": 59
        },
        {
          "input": 62,
          "output": 61
        },
        {
          "input": 64,
          "output": 63
        },
        {
          "input": 66,
          "output": 65
        },
        {
          "input": 68,
          "output": 67
        },
        {
          "input": 70,
          "output": 69
        },
        {
          "input": 72,
          "output": 71
        },
        {
          "input": 74,
          "output": 73
        },
        {
          "input": 76,
          "output": 75
        },
        {
          "input": 78,
          "output": 77
        },
        {
          "input": 80,
          "output": 79
        },
        {
          "input": 82,
          "output": 81
        },
        {
          "input": 84,
          "output": 83
        },
        {
          "input": 86,
          "output": 85
        },
        {
          "input": 88,
          "output": 87
        },
        {
          "input": 90,
          "output": 89
        },
        {
          "input": 92,
          "output": 91
        },
        {
          "input": 94,
          "output": 93
        },
        {
          "input": 96,
          "output": 95
        },
        {
          "input": 98,
          "output": 97
        },
        {
          "input": 100,
          "output": 99
        },
        {
          "input": 102,
          "output": 101
        },
        {
          "input": 104,
          "output": 103
        },
        {
          "input": 106,
          "output": 105
        },
        {
          "input": 108,
          "output": 107
        },
        {
          "input": 110,
          "output": 109
        },
        {
          "input": 112,
          "output": 111
        },
        {
          "input": 114,
          "output": 113
        },
        {
          "input": 116,
          "output": 115
        },
        {
          "input": 118,
          "output": 117
        },
        {
          "input": 120,
          "output": 119
        },
        {
          "input": 122,
          "output": 121
        },
        {
          "input": 124,
          "output": 123
        },
        {
          "input": 126,
          "output": 125
        },
        {
          "input": 128,
          "output": 127
        },
        {
          "input": 130,
          "output": 129
        },
        {
          "input": 132,
          "output": 131
        },
        {
          "input": 134,
          "output": 133
        },
        {
          "input": 136,
          "output": 135
        },
        {
          "input": 138,
          "output": 137
        },
        {
          "input": 140,
          "output": 139
        },
        {
          "input": 142,
          "output": 141
        },
        {
          "input": 144,
          "output": 143
        },
        {
          "input": 146,
          "output": 145
        },
        {
          "input": 148,
          "output": 147
        },
        {
          "input": 150,
          "output": 149
        },
        {
          "input": 152,
          "output": 151
        },
        {
          "input": 154,
          "output": 153
        }
      ]
    }
  ],
  "asset": {
    "copyright": "Copyright (c) 2018-2020 Chukong Technologies Inc.",
    "generator": "FBX-glTF-conv",
    "version": "2.0"
  },
  "bufferViews": [
    {
      "buffer": 0,
      "byteLength": 191600,
      "byteStride": 80,
      "name": "zhujue",
      "target": 34962
    },
    {
      "buffer": 0,
      "byteLength": 17022,
      "byteOffset": 191600,
      "target": 34963
    },
    {
      "buffer": 0,
      "byteLength": 1344,
      "byteOffset": 208622
    },
    {
      "buffer": 0,
      "byteLength": 27808,
      "byteOffset": 209966,
      "byteStride": 32,
      "name": "AK",
      "target": 34962
    },
    {
      "buffer": 0,
      "byteLength": 3912,
      "byteOffset": 237774,
      "target": 34963
    },
    {
      "buffer": 0,
      "byteLength": 16,
      "byteOffset": 241686
    },
    {
      "buffer": 0,
      "byteLength": 4,
      "byteOffset": 241702
    },
    {
      "buffer": 0,
      "byteLength": 252,
      "byteOffset": 241706
    },
    {
      "buffer": 0,
      "byteLength": 84,
      "byteOffset": 241958
    },
    {
      "buffer": 0,
      "byteLength": 16,
      "byteOffset": 242042
    },
    {
      "buffer": 0,
      "byteLength": 4,
      "byteOffset": 242058
    },
    {
      "buffer": 0,
      "byteLength": 12,
      "byteOffset": 242062
    },
    {
      "buffer": 0,
      "byteLength": 4,
      "byteOffset": 242074
    },
    {
      "buffer": 0,
      "byteLength": 12,
      "byteOffset": 242078
    },
    {
      "buffer": 0,
      "byteLength": 4,
      "byteOffset": 242090
    },
    {
      "buffer": 0,
      "byteLength": 16,
      "byteOffset": 242094
    },
    {
      "buffer": 0,
      "byteLength": 4,
      "byteOffset": 242110
    },
    {
      "buffer": 0,
      "byteLength": 12,
      "byteOffset": 242114
    },
    {
      "buffer": 0,
      "byteLength": 4,
      "byteOffset": 242126
    },
    {
      "buffer": 0,
      "byteLength": 192,
      "byteOffset": 242130
    },
    {
      "buffer": 0,
      "byteLength": 64,
      "byteOffset": 242322
    },
    {
      "buffer": 0,
      "byteLength": 336,
      "byteOffset": 242386
    },
    {
      "buffer": 0,
      "byteLength": 84,
      "byteOffset": 242722
    },
    {
      "buffer": 0,
      "byteLength": 12,
      "byteOffset": 242806
    },
    {
      "buffer": 0,
      "byteLength": 4,
      "byteOffset": 242818
    },
    {
      "buffer": 0,
      "byteLength": 252,
      "byteOffset": 242822
    },
    {
      "buffer": 0,
      "byteLength": 84,
      "byteOffset": 243074
    },
    {
      "buffer": 0,
      "byteLength": 336,
      "byteOffset": 243158
    },
    {
      "buffer": 0,
      "byteLength": 84,
      "byteOffset": 243494
    },
    {
      "buffer": 0,
      "byteLength": 12,
      "byteOffset": 243578
    },
    {
      "buffer": 0,
      "byteLength": 4,
      "byteOffset": 243590
    },
    {
      "buffer": 0,
      "byteLength": 72,
      "byteOffset": 243594
    },
    {
      "buffer": 0,
      "byteLength": 24,
      "byteOffset": 243666
    },
    {
      "buffer": 0,
      "byteLength": 336,
      "byteOffset": 243690
    },
    {
      "buffer": 0,
      "byteLength": 84,
      "byteOffset": 244026
    },
    {
      "buffer": 0,
      "byteLength": 12,
      "byteOffset": 244110
    },
    {
      "buffer": 0,
      "byteLength": 4,
      "byteOffset": 244122
    },
    {
      "buffer": 0,
      "byteLength": 72,
      "byteOffset": 244126
    },
    {
      "buffer": 0,
      "byteLength": 24,
      "byteOffset": 244198
    },
    {
      "buffer": 0,
      "byteLength": 320,
      "byteOffset": 244222
    },
    {
      "buffer": 0,
      "byteLength": 80,
      "byteOffset": 244542
    },
    {
      "buffer": 0,
      "byteLength": 12,
      "byteOffset": 244622
    },
    {
      "buffer": 0,
      "byteLength": 4,
      "byteOffset": 244634
    },
    {
      "buffer": 0,
      "byteLength": 12,
      "byteOffset": 244638
    },
    {
      "buffer": 0,
      "byteLength": 4,
      "byteOffset": 244650
    },
    {
      "buffer": 0,
      "byteLength": 208,
      "byteOffset": 244654
    },
    {
      "buffer": 0,
      "byteLength": 52,
      "byteOffset": 244862
    },
    {
      "buffer": 0,
      "byteLength": 12,
      "byteOffset": 244914
    },
    {
      "buffer": 0,
      "byteLength": 4,
      "byteOffset": 244926
    },
    {
      "buffer": 0,
      "byteLength": 252,
      "byteOffset": 244930
    },
    {
      "buffer": 0,
      "byteLength": 84,
      "byteOffset": 245182
    },
    {
      "buffer": 0,
      "byteLength": 336,
      "byteOffset": 245266
    },
    {
      "buffer": 0,
      "byteLength": 84,
      "byteOffset": 245602
    },
    {
      "buffer": 0,
      "byteLength": 12,
      "byteOffset": 245686
    },
    {
      "buffer": 0,
      "byteLength": 4,
      "byteOffset": 245698
    },
    {
      "buffer": 0,
      "byteLength": 36,
      "byteOffset": 245702
    },
    {
      "buffer": 0,
      "byteLength": 12,
      "byteOffset": 245738
    },
    {
      "buffer": 0,
      "byteLength": 336,
      "byteOffset": 245750
    },
    {
      "buffer": 0,
      "byteLength": 84,
      "byteOffset": 246086
    },
    {
      "buffer": 0,
      "byteLength": 12,
      "byteOffset": 246170
    },
    {
      "buffer": 0,
      "byteLength": 4,
      "byteOffset": 246182
    },
    {
      "buffer": 0,
      "byteLength": 132,
      "byteOffset": 246186
    },
    {
      "buffer": 0,
      "byteLength": 44,
      "byteOffset": 246318
    },
    {
      "buffer": 0,
      "byteLength": 336,
      "byteOffset": 246362
    },
    {
      "buffer": 0,
      "byteLength": 84,
      "byteOffset": 246698
    },
    {
      "buffer": 0,
      "byteLength": 12,
      "byteOffset": 246782
    },
    {
      "buffer": 0,
      "byteLength": 4,
      "byteOffset": 246794
    },
    {
      "buffer": 0,
      "byteLength": 12,
      "byteOffset": 246798
    },
    {
      "buffer": 0,
      "byteLength": 4,
      "byteOffset": 246810
    },
    {
      "buffer": 0,
      "byteLength": 336,
      "byteOffset": 246814
    },
    {
      "buffer": 0,
      "byteLength": 84,
      "byteOffset": 247150
    },
    {
      "buffer": 0,
      "byteLength": 12,
      "byteOffset": 247234
    },
    {
      "buffer": 0,
      "byteLength": 4,
      "byteOffset": 247246
    },
    {
      "buffer": 0,
      "byteLength": 96,
      "byteOffset": 247250
    },
    {
      "buffer": 0,
      "byteLength": 32,
      "byteOffset": 247346
    },
    {
      "buffer": 0,
      "byteLength": 16,
      "byteOffset": 247378
    },
    {
      "buffer": 0,
      "byteLength": 4,
      "byteOffset": 247394
    },
    {
      "buffer": 0,
      "byteLength": 12,
      "byteOffset": 247398
    },
    {
      "buffer": 0,
      "byteLength": 4,
      "byteOffset": 247410
    },
    {
      "buffer": 0,
      "byteLength": 192,
      "byteOffset": 247414
    },
    {
      "buffer": 0,
      "byteLength": 64,
      "byteOffset": 247606
    },
    {
      "buffer": 0,
      "byteLength": 16,
      "byteOffset": 247670
    },
    {
      "buffer": 0,
      "byteLength": 4,
      "byteOffset": 247686
    },
    {
      "buffer": 0,
      "byteLength": 12,
      "byteOffset": 247690
    },
    {
      "buffer": 0,
      "byteLength": 4,
      "byteOffset": 247702
    },
    {
      "buffer": 0,
      "byteLength": 156,
      "byteOffset": 247706
    },
    {
      "buffer": 0,
      "byteLength": 52,
      "byteOffset": 247862
    },
    {
      "buffer": 0,
      "byteLength": 16,
      "byteOffset": 247914
    },
    {
      "buffer": 0,
      "byteLength": 4,
      "byteOffset": 247930
    },
    {
      "buffer": 0,
      "byteLength": 12,
      "byteOffset": 247934
    },
    {
      "buffer": 0,
      "byteLength": 4,
      "byteOffset": 247946
    },
    {
      "buffer": 0,
      "byteLength": 120,
      "byteOffset": 247950
    },
    {
      "buffer": 0,
      "byteLength": 40,
      "byteOffset": 248070
    },
    {
      "buffer": 0,
      "byteLength": 336,
      "byteOffset": 248110
    },
    {
      "buffer": 0,
      "byteLength": 84,
      "byteOffset": 248446
    },
    {
      "buffer": 0,
      "byteLength": 12,
      "byteOffset": 248530
    },
    {
      "buffer": 0,
      "byteLength": 4,
      "byteOffset": 248542
    },
    {
      "buffer": 0,
      "byteLength": 84,
      "byteOffset": 248546
    },
    {
      "buffer": 0,
      "byteLength": 28,
      "byteOffset": 248630
    },
    {
      "buffer": 0,
      "byteLength": 320,
      "byteOffset": 248658
    },
    {
      "buffer": 0,
      "byteLength": 80,
      "byteOffset": 248978
    },
    {
      "buffer": 0,
      "byteLength": 12,
      "byteOffset": 249058
    },
    {
      "buffer": 0,
      "byteLength": 4,
      "byteOffset": 249070
    },
    {
      "buffer": 0,
      "byteLength": 72,
      "byteOffset": 249074
    },
    {
      "buffer": 0,
      "byteLength": 24,
      "byteOffset": 249146
    },
    {
      "buffer": 0,
      "byteLength": 336,
      "byteOffset": 249170
    },
    {
      "buffer": 0,
      "byteLength": 84,
      "byteOffset": 249506
    },
    {
      "buffer": 0,
      "byteLength": 12,
      "byteOffset": 249590
    },
    {
      "buffer": 0,
      "byteLength": 4,
      "byteOffset": 249602
    },
    {
      "buffer": 0,
      "byteLength": 156,
      "byteOffset": 249606
    },
    {
      "buffer": 0,
      "byteLength": 52,
      "byteOffset": 249762
    },
    {
      "buffer": 0,
      "byteLength": 16,
      "byteOffset": 249814
    },
    {
      "buffer": 0,
      "byteLength": 4,
      "byteOffset": 249830
    },
    {
      "buffer": 0,
      "byteLength": 12,
      "byteOffset": 249834
    },
    {
      "buffer": 0,
      "byteLength": 4,
      "byteOffset": 249846
    },
    {
      "buffer": 0,
      "byteLength": 120,
      "byteOffset": 249850
    },
    {
      "buffer": 0,
      "byteLength": 40,
      "byteOffset": 249970
    },
    {
      "buffer": 0,
      "byteLength": 336,
      "byteOffset": 250010
    },
    {
      "buffer": 0,
      "byteLength": 84,
      "byteOffset": 250346
    },
    {
      "buffer": 0,
      "byteLength": 12,
      "byteOffset": 250430
    },
    {
      "buffer": 0,
      "byteLength": 4,
      "byteOffset": 250442
    },
    {
      "buffer": 0,
      "byteLength": 180,
      "byteOffset": 250446
    },
    {
      "buffer": 0,
      "byteLength": 60,
      "byteOffset": 250626
    },
    {
      "buffer": 0,
      "byteLength": 320,
      "byteOffset": 250686
    },
    {
      "buffer": 0,
      "byteLength": 80,
      "byteOffset": 251006
    },
    {
      "buffer": 0,
      "byteLength": 12,
      "byteOffset": 251086
    },
    {
      "buffer": 0,
      "byteLength": 4,
      "byteOffset": 251098
    },
    {
      "buffer": 0,
      "byteLength": 168,
      "byteOffset": 251102
    },
    {
      "buffer": 0,
      "byteLength": 56,
      "byteOffset": 251270
    },
    {
      "buffer": 0,
      "byteLength": 336,
      "byteOffset": 251326
    },
    {
      "buffer": 0,
      "byteLength": 84,
      "byteOffset": 251662
    },
    {
      "buffer": 0,
      "byteLength": 12,
      "byteOffset": 251746
    },
    {
      "buffer": 0,
      "byteLength": 4,
      "byteOffset": 251758
    },
    {
      "buffer": 0,
      "byteLength": 132,
      "byteOffset": 251762
    },
    {
      "buffer": 0,
      "byteLength": 44,
      "byteOffset": 251894
    },
    {
      "buffer": 0,
      "byteLength": 336,
      "byteOffset": 251938
    },
    {
      "buffer": 0,
      "byteLength": 84,
      "byteOffset": 252274
    },
    {
      "buffer": 0,
      "byteLength": 12,
      "byteOffset": 252358
    },
    {
      "buffer": 0,
      "byteLength": 4,
      "byteOffset": 252370
    },
    {
      "buffer": 0,
      "byteLength": 252,
      "byteOffset": 252374
    },
    {
      "buffer": 0,
      "byteLength": 84,
      "byteOffset": 252626
    },
    {
      "buffer": 0,
      "byteLength": 336,
      "byteOffset": 252710
    },
    {
      "buffer": 0,
      "byteLength": 84,
      "byteOffset": 253046
    },
    {
      "buffer": 0,
      "byteLength": 12,
      "byteOffset": 253130
    },
    {
      "buffer": 0,
      "byteLength": 4,
      "byteOffset": 253142
    },
    {
      "buffer": 0,
      "byteLength": 16,
      "byteOffset": 253146
    },
    {
      "buffer": 0,
      "byteLength": 4,
      "byteOffset": 253162
    }
  ],
  "buffers": [
    {
      "byteLength": 253166,
      "uri": "out.bin"
    }
  ],
  "extras": {
    "FBX-glTF-conv": {
      "animationFrameRate": 30.0,
      "fbxFileHeaderInfo": {
        "creationTimeStamp": {
          "day": 22,
          "hour": 16,
          "millisecond": 632,
          "minute": 22,
          "month": 5,
          "second": 16,
          "year": 2026
        },
        "creator": "FBX SDK/FBX Plugins version 2020.3.2",
        "sceneInfo": {
          "author": "",
          "comment": "",
          "keywords": "",
          "original": {
            "applicationName": "3ds Max",
            "applicationVendor": "Autodesk",
            "applicationVersion": "2024",
            "fileName": "\\\\192.168.5.190\\Playable\\T-The War\\1.美术资源\\3D模型\\主角\\合批修改\\zhujue_skin.fbx"
          },
          "revision": "",
          "subject": "",
          "title": "",
          "url": "D:\\工程项目\\test_pro\\test_pro\\HYQ_Project\\assets\\GameRes\\FBX\\Hero_0\\zhujue_skin.fbx"
        }
      }
    }
  },
  "meshes": [
    {
      "name": "zhujue",
      "primitives": [
        {
          "attributes": {
            "JOINTS_0": 3,
            "JOINTS_1": 5,
            "NORMAL": 1,
            "POSITION": 0,
            "TEXCOORD_0": 2,
            "WEIGHTS_0": 4,
            "WEIGHTS_1": 6
          },
          "indices": 7
        }
      ]
    },
    {
      "name": "AK",
      "primitives": [
        {
          "attributes": {
            "NORMAL": 10,
            "POSITION": 9,
            "TEXCOORD_0": 11
          },
          "indices": 12
        }
      ]
    }
  ],
  "nodes": [
    {
      "mesh": 0,
      "name": "zhujue",
      "rotation": [
        -0.7071067690849304,
        -0.0,
        0.0,
        0.7071067690849304
      ],
      "scale": [
        1.0773999691009521,
        1.0773999691009521,
        1.0773999691009521
      ],
      "skin": 0
    },
    {
      "children": [
        2,
        23
      ],
      "extras": {
        "FBX-glTF-conv": {
          "skeleton": {
            "skeletonType": "Root"
          }
        }
      },
      "name": "Bip001",
      "rotation": [
        0.4800005555152893,
        0.5933997631072998,
        0.502349853515625,
        -0.40635058283805847
      ],
      "translation": [
        0.0,
        0.9926661849021912,
        -1.3891796157849967e-08
      ]
    },
    {
      "children": [
        3
      ],
      "extras": {
        "FBX-glTF-conv": {
          "skeleton": {
            "skeletonType": "LimbNode"
          }
        }
      },
      "name": "Bip001 Pelvis",
      "rotation": [
        -0.5,
        -0.5,
        -0.4999993145465851,
        0.5000007152557373
      ]
    },
    {
      "children": [
        4,
        8,
        12
      ],
      "extras": {
        "FBX-glTF-conv": {
          "skeleton": {
            "skeletonType": "LimbNode"
          }
        }
      },
      "name": "Bip001 Spine",
      "rotation": [
        0.10487830638885498,
        -0.01140048261731863,
        0.056190066039562225,
        0.9928309321403503
      ],
      "translation": [
        0.07223716378211975,
        0.024529075250029564,
        -4.6555996959796175e-05
      ]
    },
    {
      "children": [
        5
      ],
      "extras": {
        "FBX-glTF-conv": {
          "skeleton": {
            "skeletonType": "LimbNode"
          }
        }
      },
      "name": "Bip001 L Thigh",
      "rotation": [
        0.15544641017913818,
        0.9779651165008545,
        0.10744798928499222,
        -0.08874471485614777
      ],
      "translation": [
        -0.0713612362742424,
        0.0029122019186615944,
        0.09338431060314178
      ]
    },
    {
      "children": [
        6
      ],
      "extras": {
        "FBX-glTF-conv": {
          "skeleton": {
            "skeletonType": "LimbNode"
          }
        }
      },
      "name": "Bip001 L Calf",
      "rotation": [
        1.6038937778813376e-17,
        6.6090105533083245e-18,
        -0.24996228516101837,
        0.9682555794715881
      ],
      "translation": [
        0.40392667055130005,
        -3.814697180359872e-08,
        -3.552713599391162e-17
      ]
    },
    {
      "children": [
        7
      ],
      "extras": {
        "FBX-glTF-conv": {
          "skeleton": {
            "skeletonType": "LimbNode"
          }
        }
      },
      "name": "Bip001 L Foot",
      "rotation": [
        -0.016376739367842674,
        -0.0598987340927124,
        0.0611787885427475,
        0.9961932897567749
      ],
      "translation": [
        0.5253465175628662,
        -3.552713599391162e-17,
        -1.907348590179936e-08
      ]
    },
    {
      "extras": {
        "FBX-glTF-conv": {
          "skeleton": {
            "skeletonType": "LimbNode"
          }
        }
      },
      "name": "Bip001 L Toe0",
      "rotation": [
        -2.439340107684984e-07,
        5.147095976099081e-07,
        0.7071074843406677,
        0.7071061134338379
      ],
      "translation": [
        0.08683574944734573,
        0.10477733612060547,
        0.0
      ]
    },
    {
      "children": [
        9
      ],
      "extras": {
        "FBX-glTF-conv": {
          "skeleton": {
            "skeletonType": "LimbNode"
          }
        }
      },
      "name": "Bip001 R Thigh",
      "rotation": [
        0.007293801289051771,
        0.9337377548217773,
        -0.320367693901062,
        0.15951547026634216
      ],
      "translation": [
        -0.07751632481813431,
        -0.034096814692020416,
        -0.08144620060920715
      ]
    },
    {
      "children": [
        10
      ],
      "extras": {
        "FBX-glTF-conv": {
          "skeleton": {
            "skeletonType": "LimbNode"
          }
        }
      },
      "name": "Bip001 R Calf",
      "rotation": [
        -5.0651574320349646e-17,
        2.6617643099274415e-17,
        -0.23659898340702057,
        0.9716073870658875
      ],
      "translation": [
        0.4039265811443329,
        -1.907348590179936e-08,
        -7.105427198782324e-17
      ]
    },
    {
      "children": [
        11
      ],
      "extras": {
        "FBX-glTF-conv": {
          "skeleton": {
            "skeletonType": "LimbNode"
          }
        }
      },
      "name": "Bip001 R Foot",
      "rotation": [
        -0.20683109760284424,
        0.08381547033786774,
        0.0718802958726883,
        0.9721260666847229
      ],
      "translation": [
        0.5253467559814453,
        -9.53674295089968e-09,
        3.814697180359872e-08
      ]
    },
    {
      "extras": {
        "FBX-glTF-conv": {
          "skeleton": {
            "skeletonType": "LimbNode"
          }
        }
      },
      "name": "Bip001 R Toe0",
      "rotation": [
        2.1891389678785345e-07,
        5.735407526685776e-08,
        0.7774100303649902,
        0.6289941072463989
      ],
      "translation": [
        0.08683574944734573,
        0.10477731376886368,
        0.0
      ]
    },
    {
      "children": [
        13
      ],
      "extras": {
        "FBX-glTF-conv": {
          "skeleton": {
            "skeletonType": "LimbNode"
          }
        }
      },
      "name": "Bip001 Spine1",
      "translation": [
        0.28276970982551575,
        -0.00023783206415828317,
        2.38418573772492e-09
      ]
    },
    {
      "children": [
        14,
        18,
        22
      ],
      "extras": {
        "FBX-glTF-conv": {
          "skeleton": {
            "skeletonType": "LimbNode"
          }
        }
      },
      "name": "Bip001 Neck",
      "rotation": [
        8.52570999909652e-11,
        -2.822444855610229e-07,
        0.10156010836362839,
        0.9948294162750244
      ],
      "translation": [
        0.28435760736465454,
        -0.033620767295360565,
        -4.410743770222325e-08
      ]
    },
    {
      "children": [
        15
      ],
      "extras": {
        "FBX-glTF-conv": {
          "skeleton": {
            "skeletonType": "LimbNode"
          }
        }
      },
      "name": "Bip001 L Clavicle",
      "rotation": [
        0.7202990651130676,
        -0.03554676100611687,
        0.6839700937271118,
        0.10995743423700333
      ],
      "translation": [
        -0.12583832442760468,
        -0.022491320967674255,
        0.10685665160417557
      ]
    },
    {
      "children": [
        16
      ],
      "extras": {
        "FBX-glTF-conv": {
          "skeleton": {
            "skeletonType": "LimbNode"
          }
        }
      },
      "name": "Bip001 L UpperArm",
      "rotation": [
        0.3825795352458954,
        0.3522695302963257,
        -0.4125767648220062,
        0.7478766441345215
      ],
      "translation": [
        0.12755072116851807,
        -9.53674295089968e-09,
        0.0
      ]
    },
    {
      "children": [
        17
      ],
      "extras": {
        "FBX-glTF-conv": {
          "skeleton": {
            "skeletonType": "LimbNode"
          }
        }
      },
      "name": "Bip001 L Forearm",
      "rotation": [
        -1.1856141847122606e-17,
        7.212828825824577e-18,
        -0.5197390913963318,
        0.8543250560760498
      ],
      "translation": [
        0.26627373695373535,
        0.0,
        1.4210854397564648e-16
      ]
    },
    {
      "extras": {
        "FBX-glTF-conv": {
          "skeleton": {
            "skeletonType": "LimbNode"
          }
        }
      },
      "name": "Bip001 L Hand",
      "rotation": [
        0.8744463324546814,
        0.24758030474185944,
        0.37222063541412354,
        0.18841293454170227
      ],
      "translation": [
        0.2864900827407837,
        0.0,
        -1.4210854397564648e-16
      ]
    },
    {
      "children": [
        19
      ],
      "extras": {
        "FBX-glTF-conv": {
          "skeleton": {
            "skeletonType": "LimbNode"
          }
        }
      },
      "name": "Bip001 R Clavicle",
      "rotation": [
        0.7904431223869324,
        -0.08549774438142776,
        -0.6039466857910156,
        -0.05601951852440834
      ],
      "translation": [
        -0.12583816051483154,
        -0.02249074913561344,
        -0.10685688257217407
      ]
    },
    {
      "children": [
        20
      ],
      "extras": {
        "FBX-glTF-conv": {
          "skeleton": {
            "skeletonType": "LimbNode"
          }
        }
      },
      "name": "Bip001 R UpperArm",
      "rotation": [
        -0.14896486699581146,
        -0.5730935335159302,
        -0.24257297813892365,
        0.7684605717658997
      ],
      "translation": [
        0.12755069136619568,
        -4.76837147544984e-09,
        0.0
      ]
    },
    {
      "children": [
        21
      ],
      "extras": {
        "FBX-glTF-conv": {
          "skeleton": {
            "skeletonType": "LimbNode"
          }
        }
      },
      "name": "Bip001 R Forearm",
      "rotation": [
        1.2486214584127108e-16,
        -1.0487761444322264e-16,
        -0.6431683897972107,
        0.765724778175354
      ],
      "translation": [
        0.26627373695373535,
        0.0,
        -1.4210854397564648e-16
      ]
    },
    {
      "extras": {
        "FBX-glTF-conv": {
          "skeleton": {
            "skeletonType": "LimbNode"
          }
        }
      },
      "name": "Bip001 R Hand",
      "rotation": [
        0.8625103235244751,
        -0.1379799246788025,
        0.14070521295070648,
        0.4660896360874176
      ],
      "translation": [
        0.28649014234542847,
        7.629394360719743e-08,
        1.4210854397564648e-16
      ]
    },
    {
      "extras": {
        "FBX-glTF-conv": {
          "skeleton": {
            "skeletonType": "LimbNode"
          }
        }
      },
      "name": "Bip001 Head",
      "rotation": [
        -0.0035057857166975737,
        0.008882555179297924,
        0.07601278275251389,
        0.9970611333847046
      ],
      "translation": [
        0.06347229331731796,
        -0.001264267018996179,
        -4.6849251589264895e-07
      ]
    },
    {
      "children": [
        24
      ],
      "extras": {
        "FBX-glTF-conv": {
          "skeleton": {
            "skeletonType": "LimbNode"
          }
        }
      },
      "name": "Bip001 Prop1",
      "rotation": [
        0.5515857338905334,
        0.6240644454956055,
        0.3770996630191803,
        -0.40508341789245605
      ],
      "translation": [
        0.3021925687789917,
        -0.2033047080039978,
        0.2948255240917206
      ]
    },
    {
      "mesh": 1,
      "name": "AK",
      "rotation": [
        0.5000003576278687,
        -0.4999997019767761,
        0.5000003576278687,
        -0.49999958276748657
      ],
      "scale": [
        1.7316139936447144,
        1.7316139936447144,
        1.7316139936447144
      ],
      "translation": [
        -0.023744354024529457,
        0.01653343252837658,
        0.3768939673900604
      ]
    }
  ],
  "scenes": [
    {
      "nodes": [
        0,
        1
      ]
    }
  ],
  "skins": [
    {
      "inverseBindMatrices": 8,
      "joints": [
        18,
        14,
        4,
        3,
        2,
        12,
        8,
        5,
        15,
        13,
        22,
        20,
        19,
        17,
        16,
        21,
        11,
        7,
        6,
        9,
        10
      ]
    }
  ]
}