{
  "accessors": [
    {
      "bufferView": 0,
      "componentType": 5126,
      "count": 1606,
      "max": [
        0.4113558232784271,
        0.1275371015071869,
        0.7693395018577576
      ],
      "min": [
        -0.4114092290401459,
        -0.2382010519504547,
        -0.0021364265121519566
      ],
      "name": "boss_01/POSITION",
      "type": "VEC3"
    },
    {
      "bufferView": 0,
      "byteOffset": 12,
      "componentType": 5126,
      "count": 1606,
      "name": "boss_01/NORMAL",
      "type": "VEC3"
    },
    {
      "bufferView": 0,
      "byteOffset": 24,
      "componentType": 5126,
      "count": 1606,
      "name": "boss_01/TEXCOORD_0",
      "type": "VEC2"
    },
    {
      "bufferView": 0,
      "byteOffset": 32,
      "componentType": 5126,
      "count": 1606,
      "name": "boss_01/COLOR_0",
      "type": "VEC4"
    },
    {
      "bufferView": 0,
      "byteOffset": 48,
      "componentType": 5123,
      "count": 1606,
      "name": "boss_01/JOINTS_0",
      "type": "VEC4"
    },
    {
      "bufferView": 0,
      "byteOffset": 56,
      "componentType": 5126,
      "count": 1606,
      "name": "boss_01/WEIGHTS_0",
      "type": "VEC4"
    },
    {
      "bufferView": 0,
      "byteOffset": 72,
      "componentType": 5123,
      "count": 1606,
      "name": "boss_01/JOINTS_1",
      "type": "VEC4"
    },
    {
      "bufferView": 0,
      "byteOffset": 80,
      "componentType": 5126,
      "count": 1606,
      "name": "boss_01/WEIGHTS_1",
      "type": "VEC4"
    },
    {
      "bufferView": 1,
      "componentType": 5123,
      "count": 4620,
      "name": "boss_01/INDICES",
      "type": "SCALAR"
    },
    {
      "bufferView": 2,
      "componentType": 5126,
      "count": 22,
      "name": "/InverseBindMatrices",
      "type": "MAT4"
    }
  ],
  "asset": {
    "copyright": "Copyright (c) 2018-2020 Chukong Technologies Inc.",
    "generator": "FBX-glTF-conv",
    "version": "2.0"
  },
  "bufferViews": [
    {
      "buffer": 0,
      "byteLength": 154176,
      "byteStride": 96,
      "name": "boss_01",
      "target": 34962
    },
    {
      "buffer": 0,
      "byteLength": 9240,
      "byteOffset": 154176,
      "target": 34963
    },
    {
      "buffer": 0,
      "byteLength": 1408,
      "byteOffset": 163416
    }
  ],
  "buffers": [
    {
      "byteLength": 164824,
      "uri": "out.bin"
    }
  ],
  "extras": {
    "FBX-glTF-conv": {
      "animationFrameRate": 30.0,
      "fbxFileHeaderInfo": {
        "creationTimeStamp": {
          "day": 29,
          "hour": 19,
          "millisecond": 963,
          "minute": 16,
          "month": 5,
          "second": 29,
          "year": 2026
        },
        "creator": "FBX SDK/FBX Plugins version 2020.3.7",
        "sceneInfo": {
          "author": "",
          "comment": "",
          "keywords": "",
          "original": {
            "applicationName": "3ds Max",
            "applicationVendor": "Autodesk",
            "applicationVersion": "2026",
            "fileName": "E:\\试玩需求\\boss\\boos_2\\boos_02_skin_1.fbx"
          },
          "revision": "",
          "subject": "",
          "title": "",
          "url": "D:\\工程项目\\test_pro\\test_pro\\HYQ_Project\\assets\\GameRes\\FBX\\Monster_boos_2\\boos_02_skin_1.fbx"
        }
      }
    }
  },
  "meshes": [
    {
      "name": "boss_01",
      "primitives": [
        {
          "attributes": {
            "COLOR_0": 3,
            "JOINTS_0": 4,
            "JOINTS_1": 6,
            "NORMAL": 1,
            "POSITION": 0,
            "TEXCOORD_0": 2,
            "WEIGHTS_0": 5,
            "WEIGHTS_1": 7
          },
          "indices": 8
        }
      ]
    }
  ],
  "nodes": [
    {
      "mesh": 0,
      "name": "boss_01",
      "rotation": [
        -0.7071067690849304,
        -0.0,
        0.0,
        0.7071067690849304
      ],
      "scale": [
        2.5399999618530273,
        2.5399999618530273,
        2.5399999618530273
      ],
      "skin": 0
    },
    {
      "children": [
        2,
        48
      ],
      "extras": {
        "FBX-glTF-conv": {
          "skeleton": {
            "skeletonType": "Root"
          }
        }
      },
      "name": "Bip001",
      "rotation": [
        -0.5000003576278687,
        -0.49999964237213135,
        -0.49999964237213135,
        0.5000003576278687
      ],
      "translation": [
        -0.001342105446383357,
        0.9307230114936829,
        0.06984253227710724
      ]
    },
    {
      "children": [
        3
      ],
      "extras": {
        "FBX-glTF-conv": {
          "skeleton": {
            "skeletonType": "LimbNode"
          }
        }
      },
      "name": "Bip001 Pelvis",
      "rotation": [
        -0.5,
        -0.5,
        -0.4999993145465851,
        0.5000007152557373
      ]
    },
    {
      "children": [
        4,
        29,
        38,
        47
      ],
      "extras": {
        "FBX-glTF-conv": {
          "skeleton": {
            "skeletonType": "LimbNode"
          }
        }
      },
      "name": "Bip001 Spine",
      "rotation": [
        -2.0804759515158366e-06,
        -6.936759859854646e-07,
        0.0003981589979957789,
        0.9999999403953552
      ],
      "translation": [
        0.03591514751315117,
        -0.00017650127119850367,
        5.0067900048134106e-08
      ]
    },
    {
      "children": [
        5,
        28
      ],
      "extras": {
        "FBX-glTF-conv": {
          "skeleton": {
            "skeletonType": "LimbNode"
          }
        }
      },
      "name": "Bip001 Spine1",
      "translation": [
        0.1475685089826584,
        -0.00016652584599796683,
        -7.450580707946131e-10
      ]
    },
    {
      "children": [
        6,
        27
      ],
      "extras": {
        "FBX-glTF-conv": {
          "skeleton": {
            "skeletonType": "LimbNode"
          }
        }
      },
      "name": "Bip001 Spine2",
      "translation": [
        0.20913872122764587,
        -0.00018419265688862652,
        -4.4703482582342247e-10
      ]
    },
    {
      "children": [
        7,
        15,
        23
      ],
      "extras": {
        "FBX-glTF-conv": {
          "skeleton": {
            "skeletonType": "LimbNode"
          }
        }
      },
      "name": "Bip001 Neck",
      "translation": [
        0.24266311526298523,
        -5.714893268304877e-05,
        -1.490116086078075e-10
      ]
    },
    {
      "children": [
        8,
        14
      ],
      "extras": {
        "FBX-glTF-conv": {
          "skeleton": {
            "skeletonType": "LimbNode"
          }
        }
      },
      "name": "Bip001 L Clavicle",
      "rotation": [
        0.5673526525497437,
        -0.00022704417642671615,
        0.8234748244285583,
        0.00032708156504668295
      ],
      "translation": [
        0.17200088500976563,
        -0.14130747318267822,
        0.12035807967185974
      ]
    },
    {
      "children": [
        9,
        13
      ],
      "extras": {
        "FBX-glTF-conv": {
          "skeleton": {
            "skeletonType": "LimbNode"
          }
        }
      },
      "name": "Bip001 L UpperArm",
      "rotation": [
        0.04535311087965965,
        0.06928359717130661,
        0.02100043185055256,
        0.996344268321991
      ],
      "translation": [
        0.3080410361289978,
        9.53674295089968e-09,
        -1.5258788721439487e-07
      ]
    },
    {
      "children": [
        10,
        12
      ],
      "extras": {
        "FBX-glTF-conv": {
          "skeleton": {
            "skeletonType": "LimbNode"
          }
        }
      },
      "name": "Bip001 L Forearm",
      "rotation": [
        4.84177867246303e-19,
        5.181598323375074e-18,
        -0.09303651005029678,
        0.9956626892089844
      ],
      "translation": [
        0.2870975434780121,
        -3.552713599391162e-17,
        2.8421708795129297e-16
      ]
    },
    {
      "children": [
        11
      ],
      "extras": {
        "FBX-glTF-conv": {
          "skeleton": {
            "skeletonType": "LimbNode"
          }
        }
      },
      "name": "Bip001 L Hand",
      "rotation": [
        -0.695946991443634,
        0.1236284151673317,
        0.12353001534938812,
        0.6965013742446899
      ],
      "translation": [
        0.2870975732803345,
        -3.552713599391162e-17,
        -1.5258788721439487e-07
      ]
    },
    {
      "extras": {
        "FBX-glTF-conv": {
          "skeleton": {
            "skeletonType": "LimbNode"
          }
        }
      },
      "name": "mixamorig:LeftHand",
      "rotation": [
        0.6532353162765503,
        0.45542916655540466,
        0.5144954919815063,
        -0.3180602788925171
      ],
      "scale": [
        2.5399999618530273,
        2.5400009155273438,
        2.5399999618530273
      ],
      "translation": [
        -0.005195503123104572,
        0.006821594201028347,
        0.008967266418039799
      ]
    },
    {
      "extras": {
        "FBX-glTF-conv": {
          "skeleton": {
            "skeletonType": "LimbNode"
          }
        }
      },
      "name": "mixamorig:LeftForeArm",
      "rotation": [
        0.6836795210838318,
        0.7166414856910706,
        -0.07865605503320694,
        0.11322784423828125
      ],
      "scale": [
        2.539999008178711,
        2.5399999618530273,
        2.5399999618530273
      ],
      "translation": [
        -0.015022811479866505,
        -0.0066307829692959785,
        -0.01704971306025982
      ]
    },
    {
      "extras": {
        "FBX-glTF-conv": {
          "skeleton": {
            "skeletonType": "LimbNode"
          }
        }
      },
      "name": "mixamorig:LeftArm",
      "rotation": [
        0.7058023810386658,
        0.6951907277107239,
        -0.11008130759000778,
        0.08021822571754456
      ],
      "scale": [
        2.5399999618530273,
        2.5400009155273438,
        2.5400009155273438
      ],
      "translation": [
        -0.04131031036376953,
        0.002693710383027792,
        -0.004597472958266735
      ]
    },
    {
      "extras": {
        "FBX-glTF-conv": {
          "skeleton": {
            "skeletonType": "LimbNode"
          }
        }
      },
      "name": "mixamorig:LeftShoulder",
      "rotation": [
        0.7018406391143799,
        0.7064086198806763,
        -0.07844384014606476,
        0.0474667027592659
      ],
      "scale": [
        2.5399999618530273,
        2.5399999618530273,
        2.5399999618530273
      ],
      "translation": [
        -0.0002163314784411341,
        0.0004181003605481237,
        0.013138122856616974
      ]
    },
    {
      "children": [
        16,
        22
      ],
      "extras": {
        "FBX-glTF-conv": {
          "skeleton": {
            "skeletonType": "LimbNode"
          }
        }
      },
      "name": "Bip001 R Clavicle",
      "rotation": [
        -0.5673526525497437,
        0.00022476020967587829,
        0.8234748244285583,
        0.00032865520915947855
      ],
      "translation": [
        0.17200088500976563,
        -0.1413068175315857,
        -0.12035886943340302
      ]
    },
    {
      "children": [
        17,
        21
      ],
      "extras": {
        "FBX-glTF-conv": {
          "skeleton": {
            "skeletonType": "LimbNode"
          }
        }
      },
      "name": "Bip001 R UpperArm",
      "rotation": [
        -0.04535311087965965,
        -0.0692836120724678,
        0.02100043185055256,
        0.996344268321991
      ],
      "translation": [
        0.3080410361289978,
        -9.53674295089968e-09,
        1.5258788721439487e-07
      ]
    },
    {
      "children": [
        18,
        20
      ],
      "extras": {
        "FBX-glTF-conv": {
          "skeleton": {
            "skeletonType": "LimbNode"
          }
        }
      },
      "name": "Bip001 R Forearm",
      "rotation": [
        2.228411955713515e-18,
        -5.0734355247331503e-17,
        -0.09303651005029678,
        0.9956626892089844
      ],
      "translation": [
        0.2870975434780121,
        0.0,
        2.8421708795129297e-16
      ]
    },
    {
      "children": [
        19
      ],
      "extras": {
        "FBX-glTF-conv": {
          "skeleton": {
            "skeletonType": "LimbNode"
          }
        }
      },
      "name": "Bip001 R Hand",
      "rotation": [
        0.695946991443634,
        -0.12362843006849289,
        0.12353003025054932,
        0.6965013742446899
      ],
      "translation": [
        0.287097692489624,
        0.0,
        1.5258788721439487e-07
      ]
    },
    {
      "extras": {
        "FBX-glTF-conv": {
          "skeleton": {
            "skeletonType": "LimbNode"
          }
        }
      },
      "name": "mixamorig:RightHand",
      "rotation": [
        0.5141547322273254,
        0.3193710446357727,
        0.6536287665367126,
        -0.45433080196380615
      ],
      "scale": [
        2.5400009155273438,
        2.5399999618530273,
        2.5400021076202393
      ],
      "translation": [
        -0.006829795893281698,
        0.008728332817554474,
        -0.008531017228960991
      ]
    },
    {
      "extras": {
        "FBX-glTF-conv": {
          "skeleton": {
            "skeletonType": "LimbNode"
          }
        }
      },
      "name": "mixamorig:RightForeArm",
      "rotation": [
        0.07833968102931976,
        0.11276662349700928,
        -0.684959352016449,
        0.7155258655548096
      ],
      "scale": [
        2.5399999618530273,
        2.5399999618530273,
        2.5400009155273438
      ],
      "translation": [
        -0.01735256239771843,
        -0.006064014509320259,
        0.018366241827607155
      ]
    },
    {
      "extras": {
        "FBX-glTF-conv": {
          "skeleton": {
            "skeletonType": "LimbNode"
          }
        }
      },
      "name": "mixamorig:RightArm",
      "rotation": [
        0.10950697213411331,
        0.07997933775186539,
        -0.7024778723716736,
        0.698667585849762
      ],
      "scale": [
        2.5399999618530273,
        2.5399999618530273,
        2.5400009155273438
      ],
      "translation": [
        -0.04364002123475075,
        0.0006763648707419634,
        0.0056491089053452015
      ]
    },
    {
      "extras": {
        "FBX-glTF-conv": {
          "skeleton": {
            "skeletonType": "LimbNode"
          }
        }
      },
      "name": "mixamorig:RightShoulder",
      "rotation": [
        0.07790463417768478,
        0.04660667106509209,
        -0.7037020921707153,
        0.7046715617179871
      ],
      "scale": [
        2.5399999618530273,
        2.5399999618530273,
        2.5400009155273438
      ],
      "translation": [
        -0.0025970458518713713,
        -0.000257706647971645,
        -0.01222991943359375
      ]
    },
    {
      "children": [
        24,
        26
      ],
      "extras": {
        "FBX-glTF-conv": {
          "skeleton": {
            "skeletonType": "LimbNode"
          }
        }
      },
      "name": "Bip001 Head",
      "rotation": [
        -7.265599932674074e-14,
        1.1042733394361903e-09,
        -0.00039883056888356805,
        0.9999999403953552
      ],
      "translation": [
        0.16557221114635468,
        0.08173505961894989,
        -1.490116086078075e-10
      ]
    },
    {
      "children": [
        25
      ],
      "extras": {
        "FBX-glTF-conv": {
          "skeleton": {
            "skeletonType": "LimbNode"
          }
        }
      },
      "name": "mixamorig:Head",
      "rotation": [
        -0.4999998211860657,
        -0.5000001788139343,
        -0.49999919533729553,
        0.5000008344650269
      ],
      "scale": [
        2.539999008178711,
        2.5399999618530273,
        2.539999008178711
      ],
      "translation": [
        0.18508803844451904,
        -0.05307203158736229,
        0.0012736177304759622
      ]
    },
    {
      "name": "mixamorig:HeadTop_End",
      "translation": [
        -2.328306384496992e-12,
        0.013808670453727245,
        0.020804649218916893
      ]
    },
    {
      "extras": {
        "FBX-glTF-conv": {
          "skeleton": {
            "skeletonType": "LimbNode"
          }
        }
      },
      "name": "mixamorig:Neck",
      "rotation": [
        -0.49999988079071045,
        -0.5000001192092896,
        -0.4999992549419403,
        0.5000007748603821
      ],
      "scale": [
        2.539999008178711,
        2.5399999618530273,
        2.539999008178711
      ],
      "translation": [
        0.07222549617290497,
        -0.22311709821224213,
        0.001273543108254671
      ]
    },
    {
      "extras": {
        "FBX-glTF-conv": {
          "skeleton": {
            "skeletonType": "LimbNode"
          }
        }
      },
      "name": "mixamorig:Spine2",
      "rotation": [
        0.5392642021179199,
        0.457377552986145,
        0.5392634868621826,
        -0.4573781490325928
      ],
      "scale": [
        2.5399999618530273,
        2.5399999618530273,
        2.539999008178711
      ],
      "translation": [
        0.21886184811592102,
        -0.09824707359075546,
        0.0012737989891320467
      ]
    },
    {
      "extras": {
        "FBX-glTF-conv": {
          "skeleton": {
            "skeletonType": "LimbNode"
          }
        }
      },
      "name": "mixamorig:Spine1",
      "rotation": [
        0.5392642021179199,
        0.457377552986145,
        0.5392634868621826,
        -0.4573781490325928
      ],
      "scale": [
        2.5399999618530273,
        2.5399999618530273,
        2.5399999618530273
      ],
      "translation": [
        0.19562630355358124,
        -0.0599871426820755,
        0.0012740262318402529
      ]
    },
    {
      "children": [
        30,
        37
      ],
      "extras": {
        "FBX-glTF-conv": {
          "skeleton": {
            "skeletonType": "LimbNode"
          }
        }
      },
      "name": "Bip001 L Thigh",
      "rotation": [
        -0.03238936886191368,
        0.9986926317214966,
        0.0013147431891411543,
        -0.03952464833855629
      ],
      "translation": [
        -0.03591499477624893,
        0.0002045965229626745,
        0.19947931170463562
      ]
    },
    {
      "children": [
        31,
        36
      ],
      "extras": {
        "FBX-glTF-conv": {
          "skeleton": {
            "skeletonType": "LimbNode"
          }
        }
      },
      "name": "Bip001 L Calf",
      "rotation": [
        3.2901793873241446e-19,
        -6.125429600271555e-18,
        -0.04640829935669899,
        0.9989225268363953
      ],
      "translation": [
        0.4784959852695465,
        4.440891999238953e-18,
        0.0
      ]
    },
    {
      "children": [
        32,
        34,
        35
      ],
      "extras": {
        "FBX-glTF-conv": {
          "skeleton": {
            "skeletonType": "LimbNode"
          }
        }
      },
      "name": "Bip001 L Foot",
      "rotation": [
        -0.1279442012310028,
        -0.0494861826300621,
        0.07322455942630768,
        0.9878358244895935
      ],
      "translation": [
        0.3594861626625061,
        4.76837147544984e-09,
        1.907348590179936e-08
      ]
    },
    {
      "children": [
        33
      ],
      "extras": {
        "FBX-glTF-conv": {
          "skeleton": {
            "skeletonType": "LimbNode"
          }
        }
      },
      "name": "Bip001 L Toe0",
      "rotation": [
        1.5454311608209537e-08,
        1.5454309831852697e-08,
        0.7071067690849304,
        0.7071067690849304
      ],
      "translation": [
        0.11005411297082901,
        0.14720524847507477,
        -1.907348590179936e-08
      ]
    },
    {
      "name": "mixamorig:LeftToe_End",
      "rotation": [
        0.5158945322036743,
        0.5000925660133362,
        0.5084516406059265,
        -0.4745916426181793
      ],
      "scale": [
        2.5400009155273438,
        2.5400009155273438,
        2.5399999618530273
      ],
      "translation": [
        0.0857095941901207,
        0.006687748245894909,
        -0.003045673482120037
      ]
    },
    {
      "extras": {
        "FBX-glTF-conv": {
          "skeleton": {
            "skeletonType": "LimbNode"
          }
        }
      },
      "name": "mixamorig:LeftFoot",
      "rotation": [
        -0.17010529339313507,
        -0.6228621006011963,
        -0.22538739442825317,
        0.7295940518379211
      ],
      "scale": [
        2.5400009155273438,
        2.5399999618530273,
        2.5399999618530273
      ],
      "translation": [
        -0.0012794113717973232,
        -0.005283365026116371,
        -0.010648021474480629
      ]
    },
    {
      "extras": {
        "FBX-glTF-conv": {
          "skeleton": {
            "skeletonType": "LimbNode"
          }
        }
      },
      "name": "mixamorig:LeftToeBase",
      "rotation": [
        -0.011173455975949764,
        -0.7184112071990967,
        -0.0239422470331192,
        0.6951166987419128
      ],
      "scale": [
        2.5400009155273438,
        2.5400009155273438,
        2.5399999618530273
      ],
      "translation": [
        0.09932303428649902,
        0.15108008682727814,
        -0.004591808188706636
      ]
    },
    {
      "extras": {
        "FBX-glTF-conv": {
          "skeleton": {
            "skeletonType": "LimbNode"
          }
        }
      },
      "name": "mixamorig:LeftLeg",
      "rotation": [
        0.5103992223739624,
        0.4873565435409546,
        0.5040119290351868,
        -0.4979439973831177
      ],
      "scale": [
        2.5399999618530273,
        2.5399999618530273,
        2.5399999618530273
      ],
      "translation": [
        0.007181129418313503,
        0.0023978520184755325,
        -0.0029585647862404585
      ]
    },
    {
      "extras": {
        "FBX-glTF-conv": {
          "skeleton": {
            "skeletonType": "LimbNode"
          }
        }
      },
      "name": "mixamorig:LeftUpLeg",
      "rotation": [
        -0.5098432302474976,
        -0.48696014285087585,
        -0.4940732419490814,
        0.5087448358535767
      ],
      "scale": [
        2.5400009155273438,
        2.5399999618530273,
        2.5399999618530273
      ],
      "translation": [
        0.09449264407157898,
        0.0048930407501757145,
        0.011757126078009605
      ]
    },
    {
      "children": [
        39,
        46
      ],
      "extras": {
        "FBX-glTF-conv": {
          "skeleton": {
            "skeletonType": "LimbNode"
          }
        }
      },
      "name": "Bip001 R Thigh",
      "rotation": [
        -0.03238925337791443,
        0.9986926317214966,
        -0.0013119765790179372,
        0.039524827152490616
      ],
      "translation": [
        -0.03591499477624893,
        0.0002056980156339705,
        -0.19947931170463562
      ]
    },
    {
      "children": [
        40,
        45
      ],
      "extras": {
        "FBX-glTF-conv": {
          "skeleton": {
            "skeletonType": "LimbNode"
          }
        }
      },
      "name": "Bip001 R Calf",
      "rotation": [
        1.3946094521642708e-19,
        -1.2233802736312267e-17,
        -0.04640830680727959,
        0.9989225268363953
      ],
      "translation": [
        0.4784960150718689,
        -4.76837147544984e-09,
        0.0
      ]
    },
    {
      "children": [
        41,
        43,
        44
      ],
      "extras": {
        "FBX-glTF-conv": {
          "skeleton": {
            "skeletonType": "LimbNode"
          }
        }
      },
      "name": "Bip001 R Foot",
      "rotation": [
        0.1279442012310028,
        0.049486272037029266,
        0.07322455197572708,
        0.9878357648849487
      ],
      "translation": [
        0.3594861626625061,
        -9.53674295089968e-09,
        0.0
      ]
    },
    {
      "children": [
        42
      ],
      "extras": {
        "FBX-glTF-conv": {
          "skeleton": {
            "skeletonType": "LimbNode"
          }
        }
      },
      "name": "Bip001 R Toe0",
      "rotation": [
        -1.5454311608209537e-08,
        -1.5454309831852697e-08,
        0.7071067690849304,
        0.7071067690849304
      ],
      "translation": [
        0.11005411297082901,
        0.14720523357391357,
        -1.907348590179936e-08
      ]
    },
    {
      "name": "mixamorig:RightToe_End",
      "rotation": [
        0.5079807043075562,
        0.47461915016174316,
        0.5164564251899719,
        -0.49996504187583923
      ],
      "scale": [
        2.5400009155273438,
        2.5400009155273438,
        2.5400021076202393
      ],
      "translation": [
        0.08575033396482468,
        0.0066905999556183815,
        0.00039445876609534025
      ]
    },
    {
      "extras": {
        "FBX-glTF-conv": {
          "skeleton": {
            "skeletonType": "LimbNode"
          }
        }
      },
      "name": "mixamorig:RightFoot",
      "rotation": [
        -0.22557279467582703,
        -0.7292258143424988,
        -0.17077232897281647,
        0.6230437159538269
      ],
      "scale": [
        2.5399999618530273,
        2.5400009155273438,
        2.5400009155273438
      ],
      "translation": [
        -0.0012762832920998335,
        -0.004456443712115288,
        0.007784232962876558
      ]
    },
    {
      "extras": {
        "FBX-glTF-conv": {
          "skeleton": {
            "skeletonType": "LimbNode"
          }
        }
      },
      "name": "mixamorig:RightToeBase",
      "rotation": [
        -0.02358975261449814,
        -0.6948030591011047,
        -0.011660641990602016,
        0.7187184691429138
      ],
      "scale": [
        2.5400009155273438,
        2.5400009155273438,
        2.5400021076202393
      ],
      "translation": [
        0.0993223562836647,
        0.15149778127670288,
        0.00183868408203125
      ]
    },
    {
      "extras": {
        "FBX-glTF-conv": {
          "skeleton": {
            "skeletonType": "LimbNode"
          }
        }
      },
      "name": "mixamorig:RightLeg",
      "rotation": [
        0.502659797668457,
        0.4991573989391327,
        0.5092345476150513,
        -0.4887280762195587
      ],
      "scale": [
        2.5399999618530273,
        2.5400009155273438,
        2.5400009155273438
      ],
      "translation": [
        0.007027359213680029,
        0.00208422658033669,
        0.0004178047238383442
      ]
    },
    {
      "extras": {
        "FBX-glTF-conv": {
          "skeleton": {
            "skeletonType": "LimbNode"
          }
        }
      },
      "name": "mixamorig:RightUpLeg",
      "rotation": [
        0.49297887086868286,
        0.5096496343612671,
        0.5089563727378845,
        -0.4880496859550476
      ],
      "scale": [
        2.5399999618530273,
        2.5399999618530273,
        2.5399999618530273
      ],
      "translation": [
        0.09441253542900085,
        0.0030406236182898283,
        -0.014297771267592907
      ]
    },
    {
      "extras": {
        "FBX-glTF-conv": {
          "skeleton": {
            "skeletonType": "LimbNode"
          }
        }
      },
      "name": "mixamorig:Spine",
      "rotation": [
        0.5392643213272095,
        0.45737743377685547,
        0.5392636060714722,
        -0.45737800002098083
      ],
      "scale": [
        2.5399999618530273,
        2.5399999618530273,
        2.5399999618530273
      ],
      "translation": [
        0.13986770808696747,
        -0.026514936238527298,
        0.0012742376420646906
      ]
    },
    {
      "extras": {
        "FBX-glTF-conv": {
          "skeleton": {
            "skeletonType": "LimbNode"
          }
        }
      },
      "name": "mixamorig:Hips",
      "rotation": [
        0.5000003576278687,
        0.49999967217445374,
        0.49999964237213135,
        0.5000003576278687
      ],
      "scale": [
        2.5399999618530273,
        2.5399999618530273,
        2.5399999618530273
      ],
      "translation": [
        0.0021143865305930376,
        0.0012742708204314113,
        0.0015002441359683871
      ]
    }
  ],
  "scenes": [
    {
      "nodes": [
        0,
        1
      ]
    }
  ],
  "skins": [
    {
      "inverseBindMatrices": 9,
      "joints": [
        48,
        46,
        45,
        37,
        28,
        47,
        44,
        43,
        36,
        34,
        35,
        22,
        21,
        27,
        24,
        26,
        11,
        13,
        12,
        14,
        20,
        19
      ]
    }
  ]
}