{
  "accessors": [
    {
      "bufferView": 0,
      "componentType": 5126,
      "count": 2086,
      "max": [
        0.9999999403953552,
        0.2721383273601532,
        0.2820029556751251
      ],
      "min": [
        -0.9308974742889404,
        -0.40516990423202515,
        -0.28645220398902893
      ],
      "name": "jiateling01/POSITION",
      "type": "VEC3"
    },
    {
      "bufferView": 0,
      "byteOffset": 12,
      "componentType": 5126,
      "count": 2086,
      "name": "jiateling01/NORMAL",
      "type": "VEC3"
    },
    {
      "bufferView": 0,
      "byteOffset": 24,
      "componentType": 5126,
      "count": 2086,
      "name": "jiateling01/TEXCOORD_0",
      "type": "VEC2"
    },
    {
      "bufferView": 1,
      "componentType": 5123,
      "count": 4929,
      "name": "jiateling01/INDICES",
      "type": "SCALAR"
    }
  ],
  "asset": {
    "copyright": "Copyright (c) 2018-2020 Chukong Technologies Inc.",
    "generator": "FBX-glTF-conv",
    "version": "2.0"
  },
  "bufferViews": [
    {
      "buffer": 0,
      "byteLength": 66752,
      "byteStride": 32,
      "name": "jiateling01",
      "target": 34962
    },
    {
      "buffer": 0,
      "byteLength": 9858,
      "byteOffset": 66752,
      "target": 34963
    }
  ],
  "buffers": [
    {
      "byteLength": 76610,
      "uri": "out.bin"
    }
  ],
  "extras": {
    "FBX-glTF-conv": {
      "animationFrameRate": 30.0,
      "fbxFileHeaderInfo": {
        "creationTimeStamp": {
          "day": 9,
          "hour": 18,
          "millisecond": 454,
          "minute": 4,
          "month": 5,
          "second": 11,
          "year": 2026
        },
        "creator": "FBX SDK/FBX Plugins version 2020.1.1",
        "sceneInfo": {
          "author": "",
          "comment": "",
          "keywords": "",
          "original": {
            "applicationName": "3ds Max",
            "applicationVendor": "Autodesk",
            "applicationVersion": "2022",
            "fileName": "D:\\ZXY\\TheW\\武器\\加特林\\jiateling01.fbx"
          },
          "revision": "",
          "subject": "",
          "title": "",
          "url": "D:\\工程项目\\test_pro\\test_pro\\HYQ_Project\\assets\\GameRes\\FBX\\Arms\\jiateling01.fbx"
        }
      }
    }
  },
  "meshes": [
    {
      "name": "jiateling01",
      "primitives": [
        {
          "attributes": {
            "NORMAL": 1,
            "POSITION": 0,
            "TEXCOORD_0": 2
          },
          "indices": 3
        }
      ]
    }
  ],
  "nodes": [
    {
      "mesh": 0,
      "name": "jiateling01",
      "rotation": [
        -0.7071067690849304,
        -0.0,
        0.0,
        0.7071067690849304
      ],
      "scale": [
        1.8936049938201904,
        1.8936049938201904,
        1.8936049938201904
      ]
    }
  ],
  "scenes": [
    {
      "nodes": [
        0
      ]
    }
  ]
}